<?xml version="1.0" encoding="UTF-8" standalone="no"?>
<!-- Created with Inkscape (http://www.inkscape.org/) -->

<svg
   width="62.078087"
   height="54.450134"
   viewBox="0 0 16.424827 14.406598"
   version="1.1"
   id="svg3435"
   xml:space="preserve"
   inkscape:version="1.2.1 (9c6d41e410, 2022-07-14)"
   sodipodi:docname="CATCoolingkit.svg"
   xmlns:inkscape="http://www.inkscape.org/namespaces/inkscape"
   xmlns:sodipodi="http://sodipodi.sourceforge.net/DTD/sodipodi-0.dtd"
   xmlns="http://www.w3.org/2000/svg"
   xmlns:svg="http://www.w3.org/2000/svg"><sodipodi:namedview
     id="namedview3437"
     pagecolor="#ffffff"
     bordercolor="#000000"
     borderopacity="0.25"
     inkscape:showpageshadow="2"
     inkscape:pageopacity="0.0"
     inkscape:pagecheckerboard="true"
     inkscape:deskcolor="#d1d1d1"
     inkscape:document-units="mm"
     showgrid="false"
     inkscape:zoom="1.829812"
     inkscape:cx="-571.91668"
     inkscape:cy="24.59269"
     inkscape:window-width="5120"
     inkscape:window-height="1377"
     inkscape:window-x="-8"
     inkscape:window-y="-8"
     inkscape:window-maximized="1"
     inkscape:current-layer="layer5" /><defs
     id="defs3432" /><g
     inkscape:label="Layer 1"
     inkscape:groupmode="layer"
     id="layer1"
     style="display:inline"
     transform="translate(-65.583539,-147.47739)" /><g
     inkscape:groupmode="layer"
     id="layer6"
     inkscape:label="Layer 4"
     transform="translate(-65.583539,-147.47739)" /><g
     inkscape:groupmode="layer"
     id="layer4"
     inkscape:label="Layer 2"
     style="display:inline"
     transform="translate(-65.583539,-147.47739)"><g
       inkscape:groupmode="layer"
       id="layer5"
       inkscape:label="Layer 3"><g
         id="g279"
         transform="matrix(-0.1993869,-0.00397503,0.00309947,-0.25571154,94.499835,200.03769)"><path
           style="display:inline;fill:#ffffff;stroke:#000000;stroke-width:0.232866;stroke-linejoin:bevel;stroke-dasharray:none;stroke-opacity:1"
           d="m 74.968997,148.15708 65.326373,-0.3551 0.68555,0.11028 0.68013,0.40295 1.1675,0.60717 3.01331,1.71481 1.43865,1.88095 0.27105,43.82673 -0.92335,2.13014 -2.41067,2.88343 -1.99808,1.81748 -7.3698,0.15668 -0.8801,-0.21146 -57.958401,0.29598 -3.731288,-0.0689 -2.293536,-3.45831 -2.024189,-2.08694 -1.051278,-1.58101 -0.853096,-1.67492 -0.280161,-0.78597 2.035087,-41.0514 0.419795,-1.45623 1.99627,-1.71991 2.087254,-1.32781 z"
           id="path4424"
           transform="translate(1.1458334e-6)" /><path
           style="display:inline;fill:#1a1a1a;stroke:#575757;stroke-width:0.185208;stroke-linejoin:bevel"
           d="m 82.61057,148.82196 -0.245713,7.76739 -0.798663,4.48479 -2.027278,4.56435 -3.053328,4.74994 -3.138564,3.828 -3.833386,2.69028 -2.271656,1.18519 -0.232773,1.52964 -0.108952,16.9735 3.672632,0.47688 76.607911,-0.73267 0.0256,-17.99767 -1.30441,-1.35351 -2.83027,-1.79071 -2.01245,-1.77564 -1.90456,-2.08041 -3.58012,-5.48601 -1.87058,-3.92051 -1.16064,-3.60062 -0.0758,-1.43307 0.0658,-9.10012 -50.829631,0.2884 z"
           id="path3569"
           transform="translate(1.1458334e-6)" /><ellipse
           style="display:inline;fill:#ffffff;stroke:#000000;stroke-width:0.432208;stroke-linejoin:bevel;stroke-dasharray:none;stroke-opacity:1"
           id="path4808"
           cx="109.95894"
           cy="154.51891"
           rx="24.754072"
           ry="6.6795845"
           transform="rotate(1.0580458,5.3595645e-5,6.1558377e-5)" /><path
           style="fill:#ffffff;stroke:#000000;stroke-width:0.343958;stroke-linejoin:bevel;stroke-dasharray:none;stroke-opacity:1"
           d="m 67.08678,180.69514 0.693387,-0.34875 1.101266,4.97359 0.640087,4.49506 0.440583,3.55134 0.05493,0.94104 -0.115771,0.39557 -2.657783,0.99942 z"
           id="path4700" /><path
           style="fill:#ffffff;stroke:#000000;stroke-width:0.343958;stroke-linejoin:bevel;stroke-dasharray:none;stroke-opacity:1"
           d="m 69.096662,179.53913 0.441726,-0.4257 1.097633,-0.70284 1.16992,-0.70149 1.063494,-0.81192 1.211404,-0.98997 1.102306,-0.95584 0.7034,-0.89089 0.551487,-0.49599 3.477543,9.42841 0.912442,3.45159 0.407013,1.45373 0.09842,0.54415 -9.421634,5.06849 -0.401673,-1.74288 -0.03758,-1.88075 -0.224964,-1.52268 -0.245755,-2.35462 -0.565032,-2.68592 -0.706934,-2.83315 z"
           id="path4702" /><path
           style="fill:#ffffff;stroke:#000000;stroke-width:0.343958;stroke-linejoin:bevel;stroke-dasharray:none;stroke-opacity:1"
           d="m 76.400556,173.63611 1.146461,-1.38887 c 0,0 1.322124,4.76074 1.318787,4.94145 -0.0033,0.18072 1.098595,5.11817 1.098595,5.11817 l 0.09842,0.54414 z"
           id="path4704" /><path
           style="fill:#ffffff;stroke:#000000;stroke-width:0.343958;stroke-linejoin:bevel;stroke-dasharray:none;stroke-opacity:1"
           d="m 78.463937,171.54107 c 0.182048,-0.069 3.181706,-3.91831 3.36509,-4.05954 0.183384,-0.14124 2.587402,-3.06155 2.587402,-3.06155 0,0 0.981099,-2.2235 1.019913,-2.36741 0.03881,-0.1439 0.238215,-1.15256 0.238215,-1.15256 l 4.299285,6.045 5.386434,9.82521 0.05226,1.08562 -13.345556,10.02158 -3.366735,-15.42811 z"
           id="path4706" /><path
           style="fill:#ffffff;stroke:#000000;stroke-width:0.343958;stroke-linejoin:bevel;stroke-dasharray:none;stroke-opacity:1"
           d="m 85.379977,159.23143 21.147553,0.17363 -1.05395,4.21069 -2.44941,5.37804 -1.70863,2.46315 -3.61876,4.091 -1.179932,1.24364 -2.117269,-4.77542 -2.732363,-4.75064 -2.882943,-4.42802 -2.275094,-2.10286 -0.823275,-0.44907 z"
           id="path4708" /><path
           style="fill:#ffffff;stroke:#000000;stroke-width:0.343958;stroke-linejoin:bevel;stroke-dasharray:none;stroke-opacity:1"
           d="m 86.497,184.88606 23.06398,-9.62518 0.44515,1.34596 -25.569838,10.22969 z"
           id="path4710" /><path
           style="fill:#ffffff;stroke:#000000;stroke-width:0.343958;stroke-linejoin:bevel;stroke-dasharray:none;stroke-opacity:1"
           d="m 79.93866,189.57356 -0.963744,1.2838 -0.207414,1.44236 0.55025,1.52868 0.380885,0.91092 c 0,0 -1.920242,0.21762 -2.024665,-0.001 -0.104423,-0.21886 -0.306693,-2.97038 -0.306693,-2.97038 l 0.816501,-1.14189 c 0,0 1.133111,-0.66602 1.279016,-0.73564 0.145908,-0.0696 0.475865,-0.31661 0.475865,-0.31661 z"
           id="path4712" /><path
           style="fill:#ffffff;stroke:#000000;stroke-width:0.343958;stroke-linejoin:bevel;stroke-dasharray:none;stroke-opacity:1"
           d="m 86.319821,188.60676 0.696156,1.45906 1.890203,1.40881 8.181154,3.3689 1.706054,-0.3662 -4.054767,-1.66571 -5.167852,-2.08398 -2.069583,-1.48442 -0.672697,-0.77168 z"
           id="path4714" /><path
           style="fill:#ffffff;stroke:#000000;stroke-width:0.343958;stroke-linejoin:bevel;stroke-dasharray:none;stroke-opacity:1"
           d="m 98.330583,188.21394 1.061589,1.24889 5.606238,1.83898 11.69568,2.96379 c 0,0 5.56333,0.24738 5.31033,0.2427 -0.253,-0.005 -0.67737,-0.51868 -0.82194,-0.52135 -0.14457,-0.003 -13.70699,-3.68789 -13.70699,-3.68789 l -6.22268,-1.74191 -1.977177,-0.61499 z"
           id="path4716" /><path
           style="fill:#ffffff;stroke:#000000;stroke-width:0.343958;stroke-linejoin:bevel;stroke-dasharray:none;stroke-opacity:1"
           d="m 104.6408,187.17352 c 0.94171,-0.0911 4.01184,0.0741 4.23004,0.006 0.21819,-0.0683 4.25741,-1.47605 4.25741,-1.47605 l 3.53456,-1.4894 c 0,0 2.05403,-1.58904 2.19927,-1.62251 0.14523,-0.0334 1.14246,-1.17203 1.18193,-1.35207 0.0394,-0.18005 0.27904,-1.4049 0.27904,-1.4049 l 0.12044,-0.64856 0.70885,0.77235 -0.32587,1.98251 -0.7877,1.54012 -6.38373,3.06376 -1.71473,0.83605 6.39794,0.0821 -0.15258,0.43105 -3.32647,0.0109 22.52327,5.9477 3.26964,1.10889 -3.07548,0.12398 -24.82439,-6.64101 -8.08798,-0.58323 z"
           id="path4718" /><path
           style="fill:#ffffff;stroke:#000000;stroke-width:0.343958;stroke-linejoin:bevel;stroke-dasharray:none;stroke-opacity:1"
           d="m 125.31315,187.62762 c 0,0 16.85218,5.66219 17.0329,5.66553 0.18071,0.003 0.0603,0.6519 0.0603,0.6519 l -17.10053,-5.91986 z"
           id="path4720" /><path
           style="fill:#ffffff;stroke:#000000;stroke-width:0.343958;stroke-linejoin:bevel;stroke-dasharray:none;stroke-opacity:1"
           d="m 82.900938,187.7482 c 0.506001,0.009 16.817757,-0.30403 16.817757,-0.30403 l 0.242986,0.54682 -17.140371,0.15345 z"
           id="path4722" /><path
           style="fill:#ffffff;stroke:#000000;stroke-width:0.343958;stroke-linejoin:bevel;stroke-dasharray:none;stroke-opacity:1"
           d="m 107.89295,159.86414 2.0631,5.75061 6.05236,9.00594 2.06557,1.7013 10.56627,-16.14699 -0.0523,-1.08562 -20.89856,0.0479 z"
           id="path4724" /><path
           style="fill:#ffffff;stroke:#000000;stroke-width:0.343958;stroke-linejoin:bevel;stroke-dasharray:none;stroke-opacity:1"
           d="m 135.96439,170.79526 -3.99897,16.84675 -13.1886,-10.22239 4.21087,-8.7441 6.01266,-8.42156 c 0,0 0.74575,2.68925 0.81136,3.05202 0.0656,0.36276 5.22632,6.74906 5.22632,6.74906 z"
           id="path4726" /><path
           style="fill:#ffffff;stroke:#000000;stroke-width:0.343958;stroke-linejoin:bevel;stroke-dasharray:none;stroke-opacity:1"
           d="m 138.29908,173.58616 c -0.37478,0.71618 -4.89061,14.22712 -4.89061,14.22712 l 3.42298,2.59408 c 0,0 1.04271,-1.64389 0.97577,-1.93436 -0.067,-0.29048 0.87925,-4.53931 0.87925,-4.53931 l 1.88304,-7.99166 z"
           id="path4728" /><path
           style="fill:#ffffff;stroke:#000000;stroke-width:0.343958;stroke-linejoin:bevel;stroke-dasharray:none;stroke-opacity:1"
           d="m 136.66321,172.10975 1.55692,1.83651 -4.57744,12.93132 1.57234,-10.7452 z"
           id="path4730" /><path
           style="fill:#ffffff;stroke:#000000;stroke-width:0.343958;stroke-linejoin:bevel;stroke-dasharray:none;stroke-opacity:1"
           d="m 141.70605,177.04767 c -0.3641,0.13789 -1.96353,4.51929 -1.96353,4.51929 l -1.01028,7.71854 0.24777,2.2462 7.89133,3.3997 0.27368,-14.81855 z"
           id="path4732" /></g></g></g></svg>
