<?xml version="1.0" encoding="UTF-8" standalone="no"?>
<!-- Created with Inkscape (http://www.inkscape.org/) -->

<svg
   width="303.37967mm"
   height="211.82587mm"
   viewBox="0 0 303.37967 211.82587"
   version="1.1"
   id="svg3878"
   xml:space="preserve"
   inkscape:version="1.2.1 (9c6d41e410, 2022-07-14)"
   sodipodi:docname="CATEquipStealth.svg"
   xmlns:inkscape="http://www.inkscape.org/namespaces/inkscape"
   xmlns:sodipodi="http://sodipodi.sourceforge.net/DTD/sodipodi-0.dtd"
   xmlns="http://www.w3.org/2000/svg"
   xmlns:svg="http://www.w3.org/2000/svg"><sodipodi:namedview
     id="namedview3880"
     pagecolor="#505050"
     bordercolor="#ffffff"
     borderopacity="1"
     inkscape:showpageshadow="0"
     inkscape:pageopacity="0"
     inkscape:pagecheckerboard="1"
     inkscape:deskcolor="#505050"
     inkscape:document-units="mm"
     showgrid="false"
     showguides="false"
     inkscape:zoom="0.50646226"
     inkscape:cx="373.17687"
     inkscape:cy="91.813357"
     inkscape:window-width="1920"
     inkscape:window-height="991"
     inkscape:window-x="-9"
     inkscape:window-y="-9"
     inkscape:window-maximized="1"
     inkscape:current-layer="layer1" /><defs
     id="defs3875" /><g
     inkscape:groupmode="layer"
     id="layer6"
     inkscape:label="Layer 2"
     transform="translate(43.015119,-49.757533)"><ellipse
       style="fill:#1a1a1a;stroke:#ffffff;stroke-width:0.942746;stroke-linejoin:bevel;stroke-dasharray:none;stroke-dashoffset:28.2467;stroke-opacity:1"
       id="path5444"
       cx="107.12687"
       cy="154.77985"
       rx="21.755901"
       ry="23.602917" /></g><g
     inkscape:label="Layer 1"
     inkscape:groupmode="layer"
     id="layer1"
     transform="translate(43.015119,-49.757533)"><path
       style="fill:#ffffff;stroke:#000000;stroke-width:0.865;stroke-linecap:butt;stroke-linejoin:miter;stroke-dasharray:none;stroke-opacity:1"
       d="m 141.08238,50.886431 24.03107,5.224148 8.61985,2.87328 10.7095,3.918111 18.54572,9.142256 16.97848,10.97071 16.19485,14.366404 11.23193,14.62761 5.48534,10.4483 3.91811,11.23191 2.35088,10.97071 0.78361,8.61984 -0.26119,15.93365 -2.35088,9.14226 -5.74656,16.19485 -13.32159,19.59056 -17.23967,15.93364 -22.72504,14.1052 -28.99402,12.01554 -26.38194,4.96294 18.54572,-8.88105 12.27675,-8.09743 11.23191,-11.23191 12.01554,-15.15003 9.92588,-18.28451 4.70173,-17.76211 3.13449,-26.12073 -2.61207,-26.12073 -6.79139,-20.37418 -16.45607,-26.120734 -9.66467,-10.187088 -13.32157,-9.664671 -26.38195,-12.537953 h 0.52242 z"
       id="path5319-9" /><path
       style="fill:#ffffff;stroke:#000000;stroke-width:0.501355;stroke-linecap:butt;stroke-linejoin:miter;stroke-dasharray:none;stroke-opacity:1"
       d="m 117.45835,98.698249 14.2046,2.969051 5.09514,1.63297 6.33031,2.22679 10.96225,5.19584 10.03586,6.235 9.57268,8.16488 6.63911,8.31334 3.24235,5.9381 2.31597,6.38345 1.38959,6.23501 0.46319,4.89893 -0.15439,9.0556 -1.38959,5.19583 -3.39676,9.20406 -7.87429,11.13393 -10.19026,9.05559 -13.43262,8.01644 -17.13817,6.82881 -15.59418,2.8206 10.96224,-5.04739 7.25671,-4.60202 6.63911,-6.38345 7.1023,-8.61025 5.86713,-10.39166 2.77917,-10.09478 1.85276,-14.84524 -1.54398,-14.84525 -4.01433,-11.57929 -9.72708,-14.84524 -5.71273,-5.78965 -7.87429,-5.49274 -15.59419,-7.125714 h 0.30879 z"
       id="path5319-5-3" /><path
       style="fill:#ffffff;stroke:#000000;stroke-width:0.501355;stroke-linecap:butt;stroke-linejoin:miter;stroke-dasharray:none;stroke-opacity:1"
       d="m 100.48902,97.874624 -14.204597,2.969046 -5.09514,1.63298 -6.33031,2.22679 -10.96225,5.19583 -10.03586,6.235 -9.57268,8.16489 -6.63911,8.31334 -3.24235,5.93809 -2.31597,6.38346 -1.38959,6.235 -0.46319,4.89893 0.15439,9.0556 1.38959,5.19584 3.39676,9.20405 7.87429,11.13394 10.19026,9.05559 13.43262,8.01643 17.13817,6.82882 15.59418,2.82059 -10.96224,-5.04738 -7.25671,-4.60203 -6.63911,-6.38345 -7.1023,-8.61024 -5.86712,-10.39167 -2.77917,-10.09477 -1.85277,-14.84525 1.54398,-14.84524 4.01434,-11.57929 9.72707,-14.84525 5.71273,-5.78964 7.87429,-5.49274 15.594187,-7.125719 h -0.30879 z"
       id="path5319-5" /><path
       style="fill:#ffffff;stroke:#000000;stroke-width:0.865;stroke-linecap:butt;stroke-linejoin:miter;stroke-dasharray:none;stroke-opacity:1"
       d="m 76.267043,50.45124 -24.03107,5.224148 -8.61985,2.87328 -10.7095,3.918111 -18.54572,9.142256 -16.9784795,10.97071 -16.1948505,14.366404 -11.23193,14.627611 -5.48534,10.44829 -3.91811,11.23192 -2.35088,10.97071 -0.78361,8.61984 0.26119,15.93365 2.35088,9.14226 5.74656,16.19485 13.32159,19.59056 17.2396705,15.93364 22.7250395,14.1052 28.99402,12.01554 26.38194,4.96294 -18.54572,-8.88105 -12.27675,-8.09743 -11.23191,-11.23191 -12.01554,-15.15003 -9.92588,-18.28452 -4.7017295,-17.7621 -3.13449,-26.12073 2.61207,-26.12074 6.7913895,-20.37417 16.45607,-26.120735 9.66467,-10.187088 13.32157,-9.664671 26.38195,-12.537953 h -0.52242 z"
       id="path5319" /><ellipse
       style="fill:#ffffff;stroke:#ffffff;stroke-width:0.865;stroke-linejoin:bevel;stroke-dasharray:none;stroke-dashoffset:28.2467;stroke-opacity:1"
       id="path5439"
       cx="107.12685"
       cy="154.59515"
       rx="16.623135"
       ry="18.65485" /></g></svg>
