<?xml version="1.0" encoding="UTF-8" standalone="no"?>
<!-- Created with Inkscape (http://www.inkscape.org/) -->

<svg
   width="793.70081"
   height="1122.5197"
   viewBox="0 0 210 296.99999"
   version="1.1"
   id="svg5"
   xml:space="preserve"
   inkscape:version="1.2.1 (9c6d41e410, 2022-07-14)"
   sodipodi:docname="CATEngineCore.svg"
   xmlns:inkscape="http://www.inkscape.org/namespaces/inkscape"
   xmlns:sodipodi="http://sodipodi.sourceforge.net/DTD/sodipodi-0.dtd"
   xmlns="http://www.w3.org/2000/svg"
   xmlns:svg="http://www.w3.org/2000/svg"><sodipodi:namedview
     id="namedview7"
     pagecolor="#ffffff"
     bordercolor="#000000"
     borderopacity="0.25"
     inkscape:showpageshadow="2"
     inkscape:pageopacity="0.0"
     inkscape:pagecheckerboard="true"
     inkscape:deskcolor="#d1d1d1"
     inkscape:document-units="mm"
     showgrid="false"
     inkscape:zoom="2.587745"
     inkscape:cx="18.162532"
     inkscape:cy="404.59938"
     inkscape:window-width="5120"
     inkscape:window-height="1377"
     inkscape:window-x="-8"
     inkscape:window-y="-8"
     inkscape:window-maximized="1"
     inkscape:current-layer="layer1" /><defs
     id="defs2" /><g
     inkscape:label="Layer 1"
     inkscape:groupmode="layer"
     id="layer1"><ellipse
       style="fill:#000000;stroke:#000000;stroke-width:0.396693;stroke-linejoin:bevel"
       id="path3485"
       cx="77.50341"
       cy="122.68964"
       rx="9.2277708"
       ry="9.0108757" /></g><g
     inkscape:groupmode="layer"
     id="layer3"
     inkscape:label="Layer 3"><path
       style="fill:#ffffff;stroke:#000000;stroke-width:0.343958;stroke-linejoin:bevel"
       d="m 52.894805,138.14413 17.413384,-9.95974 -0.748945,-0.78515 -0.547939,-1.14498 -0.367291,-0.9678 -0.03177,-0.63875 -19.394236,5.38416 0.641117,0.21105 0.963341,0.48909 0.674739,0.38327 0.296423,0.25274 0.731455,0.95787 0.470646,1.08182 0.159448,0.62473 0.205981,0.8096 0.01727,1.11819 c 0,0 -0.496167,1.55135 -0.508198,1.62815 -0.01202,0.0768 -0.204473,0.66022 -0.204473,0.66022 z"
       id="path1151-6" /><path
       style="fill:#ffffff;stroke:#000000;stroke-width:0.343958;stroke-linejoin:bevel"
       d="m 70.986141,150.71843 5.02721,-19.42034 -1.085005,-0.012 -1.202278,-0.40711 -0.949307,-0.41275 -0.479478,-0.42321 -9.685966,17.64391 0.59871,-0.31164 1.022734,-0.34821 0.74548,-0.21547 0.387899,-0.0358 1.196448,0.1451 1.103096,0.41835 0.558583,0.32202 0.723424,0.41778 0.812597,0.76833 c 0,0 0.764237,1.43834 0.810821,1.50057 0.04659,0.0622 0.329909,0.60734 0.329909,0.60734 z"
       id="path1151-6-4" /><path
       style="fill:#ffffff;stroke:#000000;stroke-width:0.343958;stroke-linejoin:bevel"
       d="m 49.487949,116.36356 19.303555,5.45849 0.03615,-1.08447 0.433789,-1.19291 0.433787,-0.93988 0.433787,-0.46993 -17.423807,-10.07653 0.298231,0.6055 0.325339,1.03024 0.198819,0.75009 0.02711,0.3886 -0.171707,1.19292 -0.442825,1.09351 -0.334378,0.55127 -0.433787,0.71394 -0.786241,0.79528 c 0,0 -1.454997,0.73201 -1.518256,0.7772 -0.06326,0.0452 -0.614534,0.3163 -0.614534,0.3163 z"
       id="path1151" /><path
       style="fill:#ffffff;stroke:#000000;stroke-width:0.312282;stroke-linejoin:bevel"
       d="m 91.327977,146.86838 -8.489556,-17.03206 -0.651353,0.74501 -0.954444,0.55091 -0.807564,0.37134 -0.534743,0.0383 4.673623,19.02818 0.171374,-0.633 0.401544,-0.95294 0.315344,-0.66785 0.209179,-0.2943 0.79617,-0.72957 0.902191,-0.47422 0.521948,-0.16331 0.676411,-0.21099 0.936486,-0.0284 c 0,0 1.30365,0.47229 1.36808,0.48333 0.06441,0.011 0.554747,0.19442 0.554747,0.19442 z"
       id="path1151-6-4-7" /><path
       style="fill:#ffffff;stroke:#000000;stroke-width:0.33718;stroke-linejoin:bevel"
       d="m 104.86624,129.84177 -18.398334,-5.54098 -0.04337,1.09067 -0.424149,1.19871 -0.422094,0.94419 -0.418264,0.47152 16.564832,10.1809 -0.28,-0.60981 -0.30245,-1.03707 -0.18384,-0.75498 -0.0228,-0.39093 0.17376,-1.19939 0.43196,-1.0987 0.32397,-0.55359 0.42024,-0.71695 0.75766,-0.79783 c 0,0 1.39607,-0.73244 1.45687,-0.77772 0.0608,-0.0453 0.58971,-0.31652 0.58971,-0.31652 z"
       id="path1151-6-4-4" /><path
       style="fill:#ffffff;stroke:#000000;stroke-width:0.333784;stroke-linejoin:bevel"
       d="m 101.63181,108.48624 -17.159191,9.25126 0.710913,0.77644 0.507389,1.12016 0.335623,0.9447 0.01665,0.61882 18.983666,-4.77946 -0.61885,-0.21848 -0.92606,-0.49468 -0.64772,-0.38589 -0.2827,-0.25113 -0.69005,-0.94317 -0.43363,-1.05733 -0.14112,-0.6081 -0.18228,-0.78802 0.008,-1.08247 c 0,0 0.51723,-1.49021 0.53065,-1.56426 0.0134,-0.074 0.21362,-0.63436 0.21362,-0.63436 z"
       id="path1151-6-4-4-1" /><path
       style="fill:#ffffff;stroke:#000000;stroke-width:0.34337;stroke-linejoin:bevel"
       d="m 84.337378,95.216707 -5.411152,19.250283 1.084591,0.0334 1.194019,0.42937 0.940962,0.42998 0.471018,0.43114 10.033936,-17.388358 -0.604784,0.298673 -1.029456,0.326758 -0.749634,0.199962 -0.388541,0.02805 -1.193373,-0.168186 -1.094631,-0.438594 -0.552109,-0.331892 -0.715031,-0.430518 -0.797521,-0.781301 c 0,0 -0.735607,-1.44818 -0.78094,-1.511111 -0.04533,-0.06293 -0.317826,-0.611641 -0.317826,-0.611641 z"
       id="path1151-6-4-4-1-8" /><path
       style="fill:#ffffff;stroke:#000000;stroke-width:0.343958;stroke-linejoin:bevel"
       d="m 62.415381,98.36026 9.913768,17.43959 0.787157,-0.74683 1.146423,-0.54493 0.968759,-0.36473 0.638817,-0.0304 -5.332984,-19.408371 -0.212748,0.640549 -0.491616,0.96205 -0.385058,0.673727 -0.253459,0.295815 -0.959791,0.728925 -1.08305,0.467807 -0.62516,0.157785 -0.81013,0.203861 -1.118234,0.01472 c 0,0 -1.55003,-0.500262 -1.626796,-0.512505 -0.07676,-0.01224 -0.659683,-0.206215 -0.659683,-0.206215 z"
       id="path1151-6-4-4-1-8-5" /></g><g
     inkscape:groupmode="layer"
     id="layer2"
     inkscape:label="Layer 2"><path
       style="fill:#ffffff;stroke:#000000;stroke-width:0.343958;stroke-linejoin:bevel"
       d="m 70.3071,94.356382 c -0.179196,0.07606 -2.744807,1.01546 -2.744807,1.01546 l -2.078829,0.874997 -1.966636,1.053449 -1.066881,0.853877 1.11098,0.392613 1.109468,0.320333 1.299574,-0.09945 1.365819,-0.390082 1.056731,-0.474021 0.940759,-0.833162 0.487873,-0.877952 0.503299,-1.004819 0.0779,-0.598213 z"
       id="path410-9" /><path
       style="fill:#ffffff;stroke:#000000;stroke-width:0.343958;stroke-linejoin:bevel"
       d="m 52.272628,107.97045 c -0.07668,0.17893 -1.278059,2.63281 -1.278059,2.63281 l -0.894644,2.07045 -0.69015,2.12158 -0.178929,1.35474 1.07357,-0.48566 1.022448,-0.53678 0.86908,-0.97133 0.715713,-1.22694 0.434539,-1.07357 0.102245,-1.25249 -0.255611,-0.97133 -0.332295,-1.07357 -0.357857,-0.48566 z"
       id="path410" /><path
       style="fill:#ffffff;stroke:#000000;stroke-width:0.343958;stroke-linejoin:bevel"
       d="m 92.852638,97.890748 c -0.177412,-0.08013 -2.607587,-1.328763 -2.607587,-1.328763 l -2.052751,-0.934539 -2.107831,-0.731073 -1.351024,-0.205109 0.464796,1.082767 0.516895,1.032643 0.954334,0.887712 1.212862,0.73932 1.064961,0.45523 1.250277,0.126461 0.976094,-0.236768 1.079799,-0.31146 0.492493,-0.348392 z"
       id="path410-0" /><path
       style="fill:#ffffff;stroke:#000000;stroke-width:0.343958;stroke-linejoin:bevel"
       d="m 105.45507,116.10813 c -0.0617,-0.18462 -0.79557,-2.81642 -0.79557,-2.81642 l -0.70813,-2.14143 -0.89488,-2.04367 -0.76698,-1.13096 -0.47911,1.07651 -0.40693,1.08071 -0.003,1.30337 0.28103,1.39235 0.38911,1.09086 0.75627,1.00361 0.83669,0.55567 0.96195,0.58107 0.59019,0.12489 z"
       id="path410-0-7" /><path
       style="fill:#ffffff;stroke:#000000;stroke-width:0.343958;stroke-linejoin:bevel"
       d="m 101.9509,138.14428 c 0.0835,-0.17583 1.37896,-2.5814 1.37896,-2.5814 l 0.97407,-2.0343 0.7717,-2.09329 0.23119,-1.34681 -1.09156,0.44377 -1.04244,0.49683 -0.90566,0.93731 -0.76264,1.19834 -0.47574,1.05596 -0.15063,1.24759 0.21785,0.98049 0.29052,1.08563 0.3388,0.49913 z"
       id="path410-0-7-3" /><path
       style="fill:#ffffff;stroke:#000000;stroke-width:0.343958;stroke-linejoin:bevel"
       d="m 84.401824,150.66227 c 0.180457,-0.073 2.761857,-0.96815 2.761857,-0.96815 l 2.093562,-0.83914 1.984446,-1.0195 1.081387,-0.83542 -1.104067,-0.41165 -1.103798,-0.33935 -1.301064,0.0776 -1.372315,0.36656 -1.064722,0.45579 -0.954942,0.81686 -0.502888,0.86944 -0.520497,0.99603 -0.08816,0.59678 z"
       id="path410-0-7-2" /><path
       style="fill:#ffffff;stroke:#000000;stroke-width:0.343958;stroke-linejoin:bevel"
       d="m 62.448822,147.79949 c 0.180156,0.0737 2.653255,1.23507 2.653255,1.23507 l 2.084733,0.86084 2.132523,0.65555 1.35747,0.15686 -0.503057,-1.06553 -0.553341,-1.01358 -0.985649,-0.8528 -1.23842,-0.69566 -1.0805,-0.41702 -1.253984,-0.0818 -0.967044,0.27137 -1.06803,0.34972 -0.47977,0.36571 z"
       id="path410-0-7-0" /><path
       style="fill:#ffffff;stroke:#000000;stroke-width:0.343958;stroke-linejoin:bevel"
       d="m 49.297057,130.48111 c 0.0649,0.18351 0.84417,2.80224 0.84417,2.80224 l 0.745076,2.12886 0.930097,2.02788 0.786429,1.11752 0.460416,-1.08463 0.388175,-1.08759 -0.01955,-1.30322 -0.30507,-1.38729 -0.407919,-1.08397 -0.773571,-0.99033 -0.846172,-0.54112 -0.971861,-0.56434 -0.592264,-0.11465 z"
       id="path410-0-7-0-0" /></g></svg>
