<?xml version="1.0" encoding="UTF-8" standalone="no"?>
<!-- Created with Inkscape (http://www.inkscape.org/) -->

<svg
   width="400mm"
   height="400mm"
   viewBox="0 0 400 400"
   version="1.1"
   id="svg24"
   xml:space="preserve"
   inkscape:version="1.2.1 (9c6d41e410, 2022-07-14)"
   sodipodi:docname="integratedCS.svg"
   xmlns:inkscape="http://www.inkscape.org/namespaces/inkscape"
   xmlns:sodipodi="http://sodipodi.sourceforge.net/DTD/sodipodi-0.dtd"
   xmlns="http://www.w3.org/2000/svg"
   xmlns:svg="http://www.w3.org/2000/svg"><sodipodi:namedview
     id="namedview26"
     pagecolor="#ffffff"
     bordercolor="#000000"
     borderopacity="0.25"
     inkscape:showpageshadow="2"
     inkscape:pageopacity="0.0"
     inkscape:pagecheckerboard="true"
     inkscape:deskcolor="#d1d1d1"
     inkscape:document-units="mm"
     showgrid="false"
     inkscape:zoom="0.22627417"
     inkscape:cx="1447.3592"
     inkscape:cy="1047.4019"
     inkscape:window-width="2402"
     inkscape:window-height="1361"
     inkscape:window-x="969"
     inkscape:window-y="34"
     inkscape:window-maximized="0"
     inkscape:current-layer="layer1" /><defs
     id="defs21" /><g
     inkscape:label="Layer 1"
     inkscape:groupmode="layer"
     id="layer1"><ellipse
       style="fill:#ddc79a;fill-opacity:1;stroke-width:2.11666"
       id="path2293"
       cx="404.32678"
       cy="440.39273"
       rx="1.7351509"
       ry="2.3135345" /><path
       style="fill:#ffffff;fill-opacity:1;stroke-width:2.8243"
       d="m -70.888373,-105.6472 c -0.58856,-1.32815 -12.16397,-47.24408 -12.16397,-47.24408 l 64.74369,38.32653 -52.38353,10.05596 -1.17716,-2.08708 1.56955,-0.75895 -2.15812,-0.94868 z"
       id="path2460" /><path
       style="fill:#ffffff;fill-opacity:1;stroke-width:2.8243"
       d="m -71.280763,-106.02667 6.27818,24.096392 23.73936,68.684174 c 0,0 15.69544,-0.37952 13.7335,-2.087088 -1.96193,-1.707616 -30.8023,-86.709038 -30.8023,-86.709038 l 23.73935,-4.93312 -0.58856,-5.50231 z"
       id="path2462" /><path
       style="fill:#ffffff;fill-opacity:1;stroke-width:2.8243"
       d="m 1.5068372,12.937368 c 1.37336,0 29.8213498,-4.9331199 29.8213498,-4.9331199 l -66.90182,-116.8769381 -9.02487,3.7947 0.19616,4.74338 c 0,0 -12.55636,0 -11.77159,0.758962 0.7848,0.75896 29.62515,84.432208 29.62515,84.432208 l 25.89747022,28.839752 z"
       id="path2464" /><path
       style="fill:#ffffff;fill-opacity:1;stroke-width:2.8243"
       d="m 28.973867,8.3837201 h 11.37919 l -1.56954,-3.794712 -10.20203,1.707624 z"
       id="path2466" /><path
       style="fill:#ffffff;fill-opacity:1;stroke-width:2.8243"
       d="M 37.017777,4.3992801 C 36.036817,3.8300641 -31.453583,-112.85713 -31.453583,-112.85713 l 12.94875,-1.89736 -7.45534,6.64074 63.76273,110.9951421 0.98094,3.225512 -2.74671,-1.897368 z"
       id="path2468" /><path
       style="fill:#ffffff;fill-opacity:1;stroke-width:2.8243"
       d="m 4.4497368,17.30128 26.0936802,-6.261264 43.35865,73.996759 -38.42669,11.59108 z"
       id="path2470" /><path
       style="fill:#ffffff;fill-opacity:1;stroke-width:2.8243"
       d="m -40.825803,-8.5560239 29.68809,82.6444689 20.5319498,19.58783 31.0753902,85.327755 9.71107,-2.68329 0.83233,-6.70815 5.27173,-4.02487 2.49713,-2.95161 L 13.001177,51.012392 -6.6984028,9.6901521 -28.340183,-11.775952 Z"
       id="path2472" /><path
       style="fill:#ffffff;fill-opacity:1;stroke-width:2.8243"
       d="m 38.804877,101.45772 36.90202,-11.001355 16.924992,27.100955 42.173741,-5.63487 5.27171,2.41495 c 0,0 -49.387661,78.8879 -51.329871,78.35127 -1.94222,-0.53664 -28.855722,-34.88242 -28.855722,-34.88242 z"
       id="path2474" /><path
       style="fill:#ffffff;fill-opacity:1;stroke-width:2.8243"
       d="m 52.677817,174.97914 12.20819,-5.09822 9.4336,9.92807 -15.53769,6.97648 z"
       id="path2476" /><path
       style="fill:#ffffff;fill-opacity:1;stroke-width:2.8243"
       d="m 62.111417,192.957 15.26024,-6.70815 9.711052,11.26968 -18.034812,12.61135 -7.76885,-11.80637 z"
       id="path2478" /><path
       style="fill:#ffffff;fill-opacity:1;stroke-width:2.8243"
       d="m 36.585217,241.2557 49.387662,-38.63896 43.006121,-59.03178 44.39292,-74.485935 4.70865,13.28146 -44.33963,76.273605 76.51527,-16.69672 -8.63249,17.45566 3.53147,10.62517 -15.30305,12.14306 -16.8726,8.72782 c 0,0 -20.40408,7.58942 -21.97361,7.58942 -1.56956,0 -7.45536,14.41988 -7.45536,14.41988 L 96.856649,227.3383 46.631247,258.07542 Z"
       id="path2480" /><path
       style="fill:#ffffff;fill-opacity:1;stroke-width:2.8243"
       d="m 175.33384,65.494035 7.25917,-11.573835 17.06878,-1.328152 19.81548,-11.573856 1.37338,6.451 -14.12591,6.261264 -6.86677,3.415239 -12.36016,23.71692 z"
       id="path2482" /><path
       style="fill:#ffffff;fill-opacity:1;stroke-width:2.8243"
       d="m 179.84629,50.884432 34.1376,-48.9517119 3.72767,0.948656 -2.35433,37.3778479 -10.00583,3.984448 -6.08201,6.640736 z"
       id="path2484" /><path
       style="fill:#ffffff;fill-opacity:1;stroke-width:2.8243"
       d="m 80.768829,244.7939 25.897471,23.14772 36.88427,-12.52252 17.265,-12.14308 c 0,0 7.45533,-5.69204 7.06296,-7.5894 -0.3924,-1.89736 -13.7335,-14.41988 -13.7335,-14.41988 l -15.30308,1.13844 -22.75838,6.45096 z"
       id="path2486" /><path
       style="fill:#ffffff;fill-opacity:1;stroke-width:2.8243"
       d="m 149.82877,214.05678 35.70712,-9.10727 23.54315,20.49139 -1.96193,9.86624 -18.44213,17.83516 -1.96193,-20.11196 -23.93555,-15.17884 -15.69543,-4.17416 z"
       id="path2488" /><path
       style="fill:#ffffff;fill-opacity:1;stroke-width:2.8243"
       d="m 147.08207,254.2807 39.63098,-13.28148 -21.58122,20.87088 -17.65739,5.69208 -19.22691,18.97348 -34.922361,23.5272 -5.10101,-7.96888 19.619291,-20.11192 -0.3924,-10.24572 z"
       id="path2490" /><path
       style="fill:#ffffff;fill-opacity:1;stroke-width:2.8243"
       d="m 110.59016,300.57606 29.03657,-12.902 12.55636,-19.35296 61.6046,-16.69672 105.15947,-79.68882 20.01168,0.37952 -65.52849,58.05898 30.99857,-7.20992 4.70856,3.03576 -7.06296,6.83048 -49.4406,27.32188 -1.17718,7.20996 -78.86959,34.91128 -12.55634,13.66088 -34.52998,1.89736 -26.682251,-9.10728 z"
       id="path2492" /><path
       style="fill:#ffffff;fill-opacity:1;stroke-width:2.8243"
       d="m 318.55476,168.14086 21.58128,3.7947 16.48016,-9.48677 20.01168,-31.87553 -3.53144,-2.65629 z"
       id="path2494" /><path
       style="fill:#ffffff;fill-opacity:1;stroke-width:2.8243"
       d="m 149.04401,321.44694 22.75838,-10.62512 2.74669,12.902 c 0,0 -18.44213,9.10728 -20.79645,8.72776 -2.35433,-0.3792 -4.70862,-11.00464 -4.70862,-11.00464 z"
       id="path2496" /><path
       style="fill:#ffffff;fill-opacity:1;stroke-width:2.8243"
       d="m 175.33384,306.26814 -0.7848,17.45568 52.57973,12.52248 -0.7848,-14.0404 105.94423,-44.01856 3.13912,-2.65632 -20.40408,-16.31724 -7.45536,-11.76356 -66.31325,27.32188 -63.95893,31.49604 z"
       id="path2498" /><path
       style="fill:#ffffff;fill-opacity:1;stroke-width:2.8243"
       d="m 376.23548,267.94162 -123.99396,48.19276 c 0,0 52.57972,10.24576 61.21228,13.66096 8.63248,3.4152 29.82128,10.24568 29.82128,10.24568 l 28.25176,-15.55824 -30.21368,-12.14312 c 0,0 27.85944,-15.93776 29.42896,-16.3172 1.56952,-0.3792 19.61928,-15.17884 19.61928,-15.17884 l -3.13912,-13.66092 z"
       id="path2500" /><path
       style="fill:#ffffff;fill-opacity:1;stroke-width:2.8243"
       d="m 246.74812,319.17014 c 2.7467,-0.7592 175.00416,44.01856 175.00416,44.01856 l 38.06144,10.6252 41.98528,19.35304 -7.45528,8.72776 -31.39088,-7.96888 -67.4904,-17.07616 -24.32792,-6.45096 -17.26504,-12.14312 -63.95888,-14.79928 -52.97215,-12.14312 -5.4934,-2.2768 z"
       id="path2502" /><path
       style="fill:#ffffff;fill-opacity:1;stroke-width:2.8243"
       d="m 351.90756,312.33966 127.91784,45.15704 10.9868,-1.51792 -4.70864,-5.31256 -108.69088,-42.50072 -14.12592,-1.89736 -14.12584,7.20992 z"
       id="path2504" /><path
       style="fill:#ffffff;fill-opacity:1;stroke-width:2.8243"
       d="m 353.86948,341.55894 27.46704,-13.66096 94.95744,32.25504 -17.26504,9.48672 z"
       id="path2506" /><path
       style="fill:#ffffff;fill-opacity:1;stroke-width:2.8243"
       d="m 469.6234,372.6755 18.83456,-11.00464 c 0,0 168.3336,51.22856 165.19448,52.7464 -3.13912,1.51792 -14.91064,11.7636 -14.91064,11.7636 L 506.50764,393.54638 471.58532,373.43446 Z"
       id="path2508" /><path
       style="fill:#ffffff;fill-opacity:1;stroke-width:2.8243"
       d="m 499.83708,401.13582 6.67056,-4.93312 130.27216,31.87552 0.3928,4.93312 -98.8812,-23.5272 z"
       id="path2510" /><path
       style="fill:#ffffff;fill-opacity:1;stroke-width:2.8243"
       d="m 201.95066,62.013775 -44.94831,88.011005 8.04628,0.26832 40.78646,-91.499245 z"
       id="path2512" /><path
       style="fill:#ffffff;fill-opacity:1;stroke-width:2.8243"
       d="m 166.71339,106.01928 -7.21393,9.92807 c 0,0 13.04055,0.53664 13.04055,-0.53664 0,-1.07328 6.93648,-10.46472 6.93648,-10.46472 l -11.09836,1.07331 z"
       id="path2514" /></g></svg>
