<?xml version="1.0" encoding="utf-8"?>
<!-- Generator: Adobe Illustrator 27.7.0, SVG Export Plug-In . SVG Version: 6.00 Build 0)  -->
<svg version="1.1"
	 id="svg5" xmlns:svg="http://www.w3.org/2000/svg" xmlns:inkscape="http://www.inkscape.org/namespaces/inkscape" xmlns:sodipodi="http://sodipodi.sourceforge.net/DTD/sodipodi-0.dtd" inkscape:export-filename="MSEquip.svg" inkscape:export-ydpi="96"
	 xmlns="http://www.w3.org/2000/svg" xmlns:xlink="http://www.w3.org/1999/xlink" x="0px" y="0px" viewBox="0 0 793.7 1122.5"
	 style="enable-background:new 0 0 793.7 1122.5;" xml:space="preserve">
<style type="text/css">
	.st0{fill:#FFFFFF;}
</style>
<sodipodi:namedview  bordercolor="#000000" borderopacity="0.25" id="namedview7" inkscape:deskcolor="#d1d1d1" inkscape:document-units="mm" inkscape:pagecheckerboard="0" inkscape:pageopacity="0.0" inkscape:showpageshadow="2" pagecolor="#ffffff" showgrid="false">
	</sodipodi:namedview>
<g id="layer3" inkscape:groupmode="layer" inkscape:label="Layer 3">
	<g id="g632" transform="matrix(0.62833008,0.01424264,-0.01075883,0.58716464,-27.281147,-54.829596)">
		<path id="path516" class="st0" d="M49.6,132.6l103.2,112.5L142,257.8l-4.6-0.8l-20.1,39.4L49.6,132.6z"/>
		<path id="path518" class="st0" d="M126.9,291.1c1.9,3.1,2.3,18.2,2.3,18.2l23.2,51l51.8-33.2l-15.5-51.4l24-13.5l-15.8-8.9
			L193,254l-8.9-6.6l-24.7-1.2l-13.1,16.6l-4.6-0.4l-14.7,26.7L126.9,291.1z"/>
		<path id="path520" class="st0" d="M196.8,274.1l221-126.8L207.3,320.8l-15.1-44.1L196.8,274.1z"/>
		<path id="path522" class="st0" d="M165.9,222.7l-2.7-58.4l27.8,0l8.9,10l8.5,49.1l-39.4,0v8.1l44.4,3.1l29-22.4l6.2-34l83.1-28.6
			l4.3-28.6l-2.3-7.3L322,104l-49.5-1.9L189.5,133l-26.3,15.8l-12,12.4l5.8,62.2l5.4,7l7.3,1.2l-0.4-9.3L165.9,222.7z"/>
		<path id="path524" class="st0" d="M161.7,235c1.5,0,54.5,2.7,54.5,2.7l29-21.6l7.7-32.5l78.8-29.4l14.7,14.3l-2.3,16.6l-7.7,2.7
			l-6.2-3.5l-15.8,2.3l-9.7,2.3l-18.9,7.3l-12.4,7.3L259,214.2l-12.8,14.3l-8.5,12.4l-4.3,8.9l-19.7,10l-15.8-8.5l-3.9-0.4l-8.9-7
			l-21.3-1.2L161.7,235z"/>
		<path id="path526" class="st0" d="M241.3,244.7l14.7-21.3l11.6-10.4l13.9-9.3l21.3-8.5l16.2-5l8.9-1.9l7.3,2.3L241.3,244.7z"/>
		<path id="path528" class="st0" d="M166.7,357.1l38.6-26.7l42.9-36.3l17,8.9l4.6,8.1l9.3,4.6l6.6,1.2l20.1,16.2
			c0,0-30.9,9.3-33.2,9.3c-2.3,0-38.3,10-38.3,10l-58.7,5.4L166.7,357.1z"/>
		<path id="path530" class="st0" d="M252.9,290.7l34.8-29l1.2,6.2l4.6,0.4L283,278.7l-0.4,6.2l1.5,10.8l2.7,6.2l5.4,4.3l10,1.2
			l11.2-0.8l5.4-2.7l7.7,4.3l1.2,2.3l26.3-15.5l8.1,14.7l-5.8,7.3L346,333.6l-7,4.3l-3.9,11.6l-10.8,5.8l-5.8-14.3l-12-14.3
			l-14.3-14.3l-7.7-1.9l-3.5-1.5l-8.1-3.5l-4.3-7.7l-4.3-1.9L252.9,290.7z"/>
		<path id="path532" class="st0" d="M304.1,266.1l5.9-2.5l4.9-2l8.9-2.4l5.4-0.8l5.1,0.4l3.5,1.7l2.1,1.9l0.2,4.2l0.3,5.3
			c0,0-1.4,5.8-1.9,6.4s-4.3,7.8-4.3,7.8l-8.3,6l-5.1,4l-0.1-5.4c0,0,0.3-2.4,0.1-3.2c-0.2-0.8-1.1-5-1.1-5s-0.6-2.5-0.9-3.1
			c-0.3-0.6-2.4-4.6-2.4-4.6l-3.6-4.3l-3.8-2.7l-4.2-1.8L304.1,266.1z"/>
		<path id="path534" class="st0" d="M292.5,288.4l1.3-0.4c0,0,2.4-0.4,2.8-0.3c0.4,0.1,2.3,0.8,2.3,0.8l1.4,1.4l0.7,1.2l0.2,3.6v2.1
			l-0.7,1.1l-1.4,0.6l-2.5,0.2l-2.3-1.2l-1.2-1l-1.6-2.1l0.6-3.9l-5.7-0.7l0.9,3.2l1.2,2.8l2.6,4.2l1.8,1.6l1.7,1.8l3.2,0.9l8.7-1.4
			l8-1.6l1.4-0.7l0.5-4.1l0.1-5.6l0.3-4.5l-2.1-5.9l-3.1-4.5l-1.1-1.8l-4-2.6l-1.2-1.4l-7.8-0.2l-8.2,7.1l-1.9,4l-1,5.1l0.1,3.7
			l5.6,0.6L292.5,288.4z"/>
		<path id="path536" class="st0" d="M292.5,257.2l-0.4,6.1l3.5,2.1l12.2-6.7l8.3-2.2c0,0,6.1-1.5,6.6-1.6c0.5-0.1,5.9-1.1,5.9-1.1
			l5.6,0.3l3.1,0.6l4.5,1.9l2.7,2.8c0,0,1.1,2.5,1.1,3.1s0.8,4.3,0.7,4.9c-0.1,0.6-0.4,3.8-0.5,4.3c-0.1,0.5-0.5,3.9-0.5,3.9
			l-1.9,4.7c0,0-2.9,4.7-3,5.2c-0.1,0.5-3.3,4.7-3.3,4.7l-14.8,10.6c0,0,4.6,4.2,5.8,4.1c1.2-0.1,27.1-16,27.1-16l2.5,0.1
			c0,0,1,2.2,1.3,3c0.3,0.8,5,12.7,5,12.7l27.3-40.1l0.9-8.4l-0.5-8.8l-2.5-5.7l-5.1-7.8l-7.5-7.1l-5.9-4.6l-10-3.4l-11.5-2.2
			l-5.4-0.1L292.5,257.2z"/>
		<path id="path538" class="st0" d="M126.5,314.7l-8.7,28.6l7.1,7.3l22.2,6.3l-18.6-42.7L126.5,314.7z"/>
		<path id="path540" class="st0" d="M295.5,341.5c0,0,12.2-3.6,12.6-2.9c0.4,0.7,8.7,8.2,8.7,8.2l1.6,6.7l-18.7-1L295.5,341.5z"/>
		<path id="path542" class="st0" d="M202.7,360.6l69.1-12.3l2.3,4.5l-26.4,15.7l-44.8-4.9L202.7,360.6z"/>
		<path id="path544" class="st0" d="M157.6,363.2l1.8,7.2l2.9,1.2c0,0,10.4-9.2,10.9-9.2c0.5,0,25.5,11.1,25.5,11.1l-3.8,2.2
			l-0.1,7.8l-24-7.2l-13,7.9l-4.2-3.6l2.6-17.9L157.6,363.2z"/>
		<path id="path546" class="st0" d="M204.1,375.1l-1.2,1.8l-2.9,1.6l-0.7,6.7l19.3,4.1l19.3,0.1l-4.6-10.8L204.1,375.1z"/>
		<path id="path548" class="st0" d="M237.9,378.9l4,8.5l31.3-12.8l15.7-13.5L237.9,378.9z"/>
		<path id="path550" class="st0" d="M157.6,397l7.9-7.2l18.7,7.9l-0.1,3.6l-3.7-0.3l-13.7-5.5l0.5,8.5l16.7,7.2l0.1,2.5
			c0,0-0.3,1-1.1,1.1c-0.8,0.1-14.8-5.9-14.8-5.9l2,16.5l16.3,12.7l3.8,0.7l28.3,49l14.9-21.9l7.1-19.3l0.4-47.4l-2.6-5.3l-22.8,0.8
			l-44.5-15l-14.2,9.8l-7-7.9l1.5-15.4l-5.2,13.3l8.3,58.9l5.3,13.5l8.5-13.1l19.4-0.5L170,424.8l-1.6-16.4l-2,0.5l-2.9,3.1
			c0,0-4.2-1.6-3.7-2c0.5-0.4,7.1-6.8,7.1-6.8v-7.7l-5.5,4.9l-3.3-1.9L157.6,397z"/>
		<path id="path552" class="st0" d="M167.4,427.7c0,0,9-3.4,8.3-3.7c-0.7-0.3-6.4-12-6.7-11.5C168.8,413.1,167.4,427.7,167.4,427.7
			L167.4,427.7z"/>
		<path id="path554" class="st0" d="M165.4,403.7l3.1,0.4l-1.2-6.3L165.4,403.7z"/>
		<path id="path556" class="st0" d="M244,392.9l21.3-10.5l-6.1,7.2l-7,11.5l1.4,53.3l1,16.1l3.4,6.1l-33.7,12.2l15.4-23l6.1-17.1
			l0.5-9l-0.3-36.5l-0.3-6.4L244,392.9z"/>
		<path id="path558" class="st0" d="M170.6,443.8l16.7,0.3l29,50l-26,19.9l-27.9-1.6l-4.9-37.4l10.7-29.5L170.6,443.8z"/>
		<path id="path560" class="st0" d="M129.5,357.6c0,0,18.3,3.3,17.8,4.2s-5.3,12.4-5.3,12.4l-2.7,1.4l0.5,5.9l-6,3.7l0.5,67.8
			l7.8,21.7l-15.7-6l-5.7-24.9l0.4-57.5l3.8-4.9l-1.6-6.3L129.5,357.6z"/>
		<path id="path562" class="st0" d="M299,357.7l21.1,0.6l-46.2,44.2l1.9,65.5l10.6,23l-18.4,0.6l-10.2-23.4l-3.3-65.9L299,357.7z"/>
		<path id="path564" class="st0" d="M344.4,340.7l-1.9,1.5l-3.5,11.8l-12.9,5l-47.5,45.6l2.1,63.8l11.2,23.2l65.7-1.7l5.6-7.5
			c0,0,20.3-1.5,19.3-1.9c-1-0.4-13.9-2.9-13.9-2.9s-29.6,6.2-30.3,6.2c-0.8,0-12.4,1.5-12.4,1.5v-1.4l-2.1-66.3l22.2-51.4l0.2-26.9
			l-2.9,2.7L344.4,340.7z"/>
		<path id="path566" class="st0" d="M379,222.5l5.8-1.5l26.9,13.7l7.7,6.4l5.8,14.3l-1.2,9.9l-10.2,19.1l-9.5,7.9l-19.9-9.9
			c0,0,10.6-17.4,11.2-18.4c0.6-1,1.7-10.8,1.4-12.4c-0.4-1.5-3.1-12.2-3.1-12.2L379,222.5z"/>
		<path id="path568" class="st0" d="M380.6,287.4l19.7,10l-15.7,23l8.3,33l-7.7,30.5l-15.7,31.9l-1,57.2l-39,6.4l-0.4-60.7
			l21.8-52.2l-0.4-31.9L380.6,287.4z"/>
		<path id="path570" class="st0" d="M429.9,263.5l-2.5,10.9L404.8,299l-15.3,23.8l9.3,31.2l-11.2,38.3L375,416.5l-1.9,58.7l24,4.1
			l47.8-26.8l4.9-24.3l4.1-30.3l-2.7-53.6l-6.3-35.8l-9.6-30.9L429.9,263.5z"/>
		<path id="path592" class="st0" d="M340.6,117.9c0,0,1.5,9.7,0.4,11.2c-1.2,1.5-5,22.8-5,22.8l13.9,15.8c0,0-3.9,15.1-2.3,15.1
			s32.8-16.6,32.8-16.6L340.6,117.9z"/>
		<path id="path594" class="st0" d="M361.4,204.1l20.1-17.4l1.5,13.9l1.5,15.5l-8.5,1.2L361.4,204.1z"/>
		<path id="path596" class="st0" d="M349.5,211.8l7-5.4l12,9.3L349.5,211.8z"/>
	</g>
</g>
</svg>
