<?xml version="1.0" encoding="UTF-8" standalone="no"?>
<!-- Created with Inkscape (http://www.inkscape.org/) -->

<svg
   width="250"
   height="250"
   viewBox="0 0 66.145834 66.145833"
   version="1.1"
   id="svg4444"
   xml:space="preserve"
   inkscape:version="1.2.2 (732a01da63, 2022-12-09)"
   sodipodi:docname="Beta.svg"
   xmlns:inkscape="http://www.inkscape.org/namespaces/inkscape"
   xmlns:sodipodi="http://sodipodi.sourceforge.net/DTD/sodipodi-0.dtd"
   xmlns="http://www.w3.org/2000/svg"
   xmlns:svg="http://www.w3.org/2000/svg"><sodipodi:namedview
     id="namedview4446"
     pagecolor="#ffffff"
     bordercolor="#000000"
     borderopacity="0.25"
     inkscape:showpageshadow="2"
     inkscape:pageopacity="0.0"
     inkscape:pagecheckerboard="0"
     inkscape:deskcolor="#d1d1d1"
     inkscape:document-units="mm"
     showgrid="false"
     inkscape:zoom="1.2938725"
     inkscape:cx="-695.97276"
     inkscape:cy="188.58118"
     inkscape:window-width="5120"
     inkscape:window-height="1377"
     inkscape:window-x="-8"
     inkscape:window-y="-8"
     inkscape:window-maximized="1"
     inkscape:current-layer="layer3" /><defs
     id="defs4441" /><g
     inkscape:groupmode="layer"
     id="layer3"
     inkscape:label="Layer 3"
     style="fill:#ffffff;stroke:#ffffff"><path
       style="fill:#ffffff;stroke-width:0.148018"
       d="m 11.193527,63.052491 c 0,-0.07795 0.199271,-0.864679 0.442829,-1.74842 1.096989,-3.980365 1.045839,-2.818705 1.164763,-26.452916 0.09985,-19.842789 0.135613,-21.788961 0.427199,-23.24417 0.5711,-2.85015 1.511001,-4.531398 3.424303,-6.125228 2.569371,-2.1403509 6.021716,-3.5161975 10.225901,-4.0752811 1.528034,-0.2032038 6.184518,-0.2326944 7.826582,-0.049574 5.701802,0.6358679 10.631699,2.8322734 12.68839,5.6530341 2.100478,2.880812 2.114672,6.553516 0.03692,9.551508 -1.195676,1.725232 -3.422967,3.533965 -5.746496,4.66659 -0.466504,0.227405 -0.847323,0.445512 -0.846262,0.484685 0.0014,0.03917 0.61563,0.292077 1.365721,0.56201 2.695377,0.969978 5.489409,2.536042 7.112404,3.986512 1.753605,1.567209 3.058554,3.718173 3.492291,5.756402 0.347035,1.6308 0.133855,4.817381 -0.420078,6.279461 -1.113721,2.93958 -3.088701,5.328339 -6.192616,7.490067 -3.745925,2.608858 -8.549259,3.789413 -14.792257,3.635629 -2.107809,-0.05186 -2.67436,-0.112591 -4.138515,-0.442609 -2.002207,-0.451422 -3.942923,-1.272176 -5.380797,-2.275624 l -1.005895,-0.701991 -0.09107,5.313647 c -0.09774,5.703582 -0.27532,7.298073 -1.130654,10.152436 -0.254046,0.847785 -0.498996,1.582825 -0.544335,1.633467 -0.143882,0.160511 -7.918317,0.111964 -7.918317,-0.0496 z M 35.957691,46.784797 c 2.368173,-0.610957 3.748169,-1.376509 5.158746,-2.861788 4.058857,-4.273802 3.940377,-11.321722 -0.2899,-17.244029 -0.893458,-1.250832 -2.511107,-2.885231 -3.424739,-3.460212 l -0.449579,-0.282937 -1.495673,0.218787 c -0.989129,0.144689 -2.281871,0.219699 -3.817054,0.221481 -2.179513,0.0025 -2.383009,-0.01813 -3.329758,-0.33746 -1.640156,-0.553275 -2.047055,-1.592971 -0.908996,-2.322671 0.811662,-0.520424 1.623346,-0.626601 4.220065,-0.552036 2.11328,0.06067 3.018708,0.168703 5.386475,0.6426 0.318999,0.06385 0.478321,-0.08023 1.198636,-1.083933 3.817182,-5.318917 3.326591,-12.025655 -1.074375,-14.687472 -1.805702,-1.0921324 -3.52499,-1.5191007 -6.117032,-1.5191007 -2.852704,0 -4.883264,0.5743162 -6.868565,1.9426697 -1.902091,1.311004 -2.753915,2.809123 -3.118699,5.484898 -0.122222,0.896532 -0.190078,6.848186 -0.190469,16.705857 l -6.08e-4,15.313162 0.701606,0.709909 c 1.034325,1.046552 3.062306,2.28043 4.563513,2.776577 1.998354,0.660449 3.036605,0.792491 5.895343,0.749912 2.282216,-0.03399 2.627192,-0.06994 3.961063,-0.414214 z"
       id="path430" /></g></svg>
