<?xml version="1.0" encoding="UTF-8" standalone="no"?>
<!-- Created with Inkscape (http://www.inkscape.org/) -->

<svg
   width="250"
   height="250"
   viewBox="0 0 66.145834 66.145833"
   version="1.1"
   id="svg4444"
   xml:space="preserve"
   inkscape:version="1.2.1 (9c6d41e410, 2022-07-14)"
   sodipodi:docname="ComstarPilot.svg"
   xmlns:inkscape="http://www.inkscape.org/namespaces/inkscape"
   xmlns:sodipodi="http://sodipodi.sourceforge.net/DTD/sodipodi-0.dtd"
   xmlns="http://www.w3.org/2000/svg"
   xmlns:svg="http://www.w3.org/2000/svg"><sodipodi:namedview
     id="namedview4446"
     pagecolor="#ffffff"
     bordercolor="#000000"
     borderopacity="0.25"
     inkscape:showpageshadow="2"
     inkscape:pageopacity="0.0"
     inkscape:pagecheckerboard="0"
     inkscape:deskcolor="#d1d1d1"
     inkscape:document-units="mm"
     showgrid="false"
     inkscape:zoom="3.659624"
     inkscape:cx="-115.44902"
     inkscape:cy="142.36435"
     inkscape:window-width="5120"
     inkscape:window-height="1377"
     inkscape:window-x="-8"
     inkscape:window-y="-8"
     inkscape:window-maximized="1"
     inkscape:current-layer="layer3" /><defs
     id="defs4441" /><g
     inkscape:groupmode="layer"
     id="layer3"
     inkscape:label="Layer 3"
     style="fill:#ffffff;stroke:#ffffff"><path
       style="fill:#ffffff;fill-opacity:1;stroke:#ffffff;stroke-width:0;stroke-linejoin:bevel"
       d="m 16.819261,24.692106 4.907748,6.21137 -0.281173,0.587907 v 1.150252 l -0.102245,1.431427 0.07668,1.917089 0.306734,1.7126 0.920203,2.607242 1.635916,2.811729 1.431426,1.405867 -1.175815,-0.485664 -1.456987,-1.09913 -1.94265,-2.300507 -1.814845,-2.939537 -1.07357,-2.428314 -1.150253,-3.987543 -0.408979,-3.680812 -0.05112,-2.939537 z"
       id="path5154" /><path
       style="fill:#ffffff;fill-opacity:1;stroke:#ffffff;stroke-width:0;stroke-linejoin:bevel"
       d="m 16.640333,23.490731 0.945764,-5.112238 1.533671,-4.038667 1.661477,-2.811731 h 0.306734 l 3.834178,12.652788 -0.332295,0.255612 -1.405865,1.993772 -0.587908,1.584795 -0.23005,0.383416 -5.853512,-4.779941 z"
       id="path5156" /><path
       style="fill:#ffffff;fill-opacity:1;stroke:#ffffff;stroke-width:0;stroke-linejoin:bevel"
       d="M 21.573642,10.326719 24.589862,7.5661114 27.14598,6.006879 c 0,0 2.223823,-0.4856625 2.326068,-0.5112237 0.102246,-0.025561 1.252498,-0.2556121 1.252498,-0.2556121 l -0.332295,15.9246198 -1.226937,0.127806 -0.536784,0.23005 -0.715714,0.408979 -0.766836,0.357857 -0.153366,0.05112 z"
       id="path5158" /><path
       style="fill:#ffffff;fill-opacity:1;stroke:#ffffff;stroke-width:0;stroke-linejoin:bevel"
       d="m 46.5993,24.714935 -4.907748,6.21137 0.281173,0.587907 v 1.150252 l 0.102245,1.431427 -0.07668,1.917089 -0.306734,1.7126 -0.920203,2.607243 -1.635916,2.811729 -1.431426,1.405867 1.175815,-0.485664 1.456987,-1.099131 1.94265,-2.300507 1.814845,-2.939537 1.07357,-2.428314 1.150253,-3.987543 0.408979,-3.680812 0.05112,-2.939537 z"
       id="path5154-4" /><path
       style="fill:#ffffff;fill-opacity:1;stroke:#ffffff;stroke-width:0;stroke-linejoin:bevel"
       d="m 46.778228,23.513561 -0.945764,-5.112239 -1.533671,-4.038666 -1.661477,-2.811731 h -0.306734 l -3.834178,12.652787 0.332295,0.255612 1.405865,1.993772 0.587908,1.584795 0.23005,0.383416 5.853512,-4.779941 z"
       id="path5156-3" /><path
       style="fill:#ffffff;fill-opacity:1;stroke:#ffffff;stroke-width:0;stroke-linejoin:bevel"
       d="M 41.844919,10.349549 38.828699,7.588941 36.272581,6.0297086 c 0,0 -2.223823,-0.4856625 -2.326068,-0.5112237 -0.102246,-0.025561 -1.252498,-0.2556121 -1.252498,-0.2556121 l 0.332295,15.9246192 1.226937,0.127806 0.536784,0.23005 0.715714,0.408979 0.766836,0.357857 0.153366,0.05112 z"
       id="path5158-3" /><path
       style="fill:#ffffff;fill-opacity:1;stroke:#ffffff;stroke-width:0;stroke-linejoin:bevel"
       d="m 24.762049,37.414192 4.301729,-0.939874 -2.313536,-3.976386 3.542602,2.241235 1.301361,-4.084833 1.156769,4.15713 3.687196,-2.09664 -1.915898,3.578749 3.795644,1.301363 -3.867941,1.120619 c 0,0 2.421982,3.867941 2.241237,3.867941 -0.180744,0 -3.398004,-1.988195 -3.398004,-1.988195 l -0.180744,0.506087 -0.289193,7.302092 0.108448,4.807815 -0.144598,5.783837 -0.108444,5.422344 v 0.36149 l -0.506088,-3.651046 -0.614531,-13.122079 -0.75913,8.350414 -0.180744,-2.060491 -0.180745,-8.892648 -0.0723,-4.98856 -0.253042,0.0723 -3.289559,2.024343 2.241238,-3.759493 z"
       id="path5203" /></g></svg>
