<?xml version="1.0" encoding="utf-8"?>
<!-- Generator: Adobe Illustrator 27.7.0, SVG Export Plug-In . SVG Version: 6.00 Build 0)  -->
<svg version="1.1" id="svg5" xmlns:svg="http://www.w3.org/2000/svg"
	 xmlns="http://www.w3.org/2000/svg" xmlns:xlink="http://www.w3.org/1999/xlink" x="0px" y="0px" viewBox="0 0 255 255"
	 style="enable-background:new 0 0 255 255;" xml:space="preserve">
<style type="text/css">
	.st0{fill:#FFFFFF;}
</style>
<g id="layer1">
	<path id="path361" class="st0" d="M144.8,78.6c0.9-0.1,31.5-24.5,31.5-24.5l3.7-2.4l7.4,10.4l7.5,15.4L144.8,78.6z"/>
	<path id="path363" class="st0" d="M137.1,83.9c1.4-0.3,56.3-0.6,56.3-0.6l19.5,24.3l2.9-3.5l-19.3-25l-56.1,0.4L137.1,83.9z"/>
	<path id="path365" class="st0" d="M184.1,52.3c0.5,0.8,13.2,24.6,13.2,24.6l19.3,26.6l-19.2,28.5l-85.3-18.6l-1.7,1.5l85.7,19.5
		l3.2,0.3l23.5-29.9l-4.5-7.9l-15.9-24.2L184.1,52.3z"/>
	<path id="path367" class="st0" d="M224.6,104.8c0.7-0.2,10.2-17.5,10.2-17.5l-6-16.4l-7.9-16.2l-18-22.8l-17.7-14l-27.8,1.4
		L169.8,33l5,6.6l2.3,6.8l2.3,3.9l3.6,0.1l7.6,6l5.4,6.5l6.5,8.4l6.8,9.5l8.1,12.3L224.6,104.8z"/>
	<path id="path369" class="st0" d="M157.5,22.7l13.9,15.7l7.8,11.8l-0.8,0.5l-23.8-29.9L157.5,22.7z"/>
	<path id="path371" class="st0" d="M37.6,46.2L26.2,72L26,93.2l0.5,1.4l2.9,0.2l1.8,1.4l3.6,2.6l2.7,2.8l5.1,8.1l4.3,8.7l3.4,8.1
		l3.2,9.2l2.2,10l1,3.7l9.5-15.6l23.4,7.8l21.3,7.1l24.8,4.8l14.6,2.4l58.7,5.8l12.8-13.7l18-29.7l-5.3-26.9l-8.3,14.6l-3.4,0.3
		l-22.9,29.4l-89.8-19.6l-3.7,5.6l-1.2,1.4L81,111l4.2-14.5L88,84.4l0.7-3.3L74.6,64.6l-10.3-7.8l-15.6-7.3L37.6,46.2z"/>
	<path id="path373" class="st0" d="M65.9,136.2l-9.2,15.3l-2.1-1.8l-1-4.9l-1.3-9.4l-5-14.1l-10.5-18.8l-5.4-4.7l-3.5-1.4l-3.1,0.8
		l-6,6.1l-3.5,4.9l-0.9,12.1l0.6,18.1l1.8,12.3l3,11.2l7.5,16.5L21,159.7l-0.6-7.8l1-3.7l-1.9-11.7l-1.5-3.9l-1.9-11l-0.3-5.4
		l0.6-3.8l1.1-2.1l1.5-1l2-0.2l1.9,0.3l3.7,3.2l8.2,14.5l6.4,13.6l4.4,12.3l0,5.6l-1,3.3l-0.9,1.3l-1.2,1.5l1.8,8.2l2.2,2.2l7.4,6.6
		l5.1,1.2l12.7,2.8l0.8-6.4l-1.4-8.8l-2.5-11.7l-2.4-8.3l0.3-3.2l5.1-9.5L65.9,136.2z"/>
	<path id="path375" class="st0" d="M19.1,132.8l-1.6-10.5l0-5.6l-0.1-3.2l1-1.6l1-0.9l1.7-0.4l0.9,0.3l1.5,0.9l2.9,3.3l5.3,8.9
		l3.9,8.2l5,12.5l2.4,5.8l0.9,3.2l0,3.2l-0.1,1.8l-0.7,1.6l-0.5,0.9l-0.8,1c0,0-0.5-0.8-0.5-0.9c0-0.1-0.2-1.8-0.2-1.8l-0.6-2.6
		l-2.3-6.8l-3.3-10.8l-2.3-7.7l-2.5-4.7l-1.2-1.6l-1.5-2l-1.4-0.4l-1.2,0.3l-1.3,0.8l-1,1.3l-1.5,2.3l-0.8,1.7l0.3,3.2l-0.3,0.4
		L19.1,132.8z"/>
	<path id="path377" class="st0" d="M38,43.1c0,0-3.5,4.4-3.7,4.7c-0.2,0.3-8,11.5-8,11.5L19.8,70l-4.1,10.3l-3.4,15.4l-1.7,12
		l0.5,19l1.2,13.9l4.3,19.9l3.3,10.5l6.1,10.6l1.8,1.5l1.2-0.3l-2.4-3.8l-5-9.4c0,0-3.7-9.3-3.7-9.5c0-0.3-2.3-9.4-2.3-9.4l-1.8-8.8
		l-1.2-17.7l0.3-10.2l0.7-5.7c0,0,3-5.4,3.4-5.6c0.3-0.2,7.6-7.5,7.6-7.5l0.2-22.9L38,44.4l2.5-3.3L38,43.1z"/>
	<path id="path379" class="st0" d="M21.5,151.4l3.3,10.7l4.5,11.8l3.4,7l5.5,6.1l1,3.2l-3.5-2.8l-4.4-6.5l-3.7-6.2l-2.5-4.6
		l-2.6-9.4l-1.4-6.9L21.5,151.4z"/>
	<path id="path381" class="st0" d="M25.6,124.8l2.6,1.6l2.3,4l5.2,15.3l3.1,9.4l2.1,10.3l1.5,10L41.2,187L34.1,167l1.1-1.6l0.2-4
		l-1-8l-1.2-6.8l-1.5-4.1l-1.5-2.1l-2.3,0.5l-1.3,1.6l-0.8,3.4l0.5,5.1l1.4,7.4l1.8,6.1l1.9,3l1.1,0l1.9-0.7l7.1,20.2l-2-0.3l-2-2.5
		l-3.9-4.8l-4.6-9.8l-4.8-14.8l-2.7-18.1l-0.1-6.1l2.1-3.9L25.6,124.8z"/>
	
		<ellipse id="path435" transform="matrix(0.9817 -0.1906 0.1906 0.9817 -28.8429 8.7019)" class="st0" cx="30.8" cy="154.3" rx="2.5" ry="10.8"/>
	<path id="path437" class="st0" d="M57.1,185.3l16.7,2l49.4,37.6l4.3,2.3l-3.9,1.4L91.3,212l-28.9-20.5l-6.2-5.9L57.1,185.3z"/>
	<path id="path439" class="st0" d="M127.4,227.9l26.1,10.7l-3.8,0.4l-25.1-10L127.4,227.9z"/>
	<path id="path441" class="st0" d="M43.7,175.9l0.2,11.4l1.2,0.4l1.5-9.9L43.7,175.9z"/>
	<path id="path443" class="st0" d="M47.7,178.8l14.9,13.5l30.6,21.4l-0.6,0.5l-30.5-20.7l-1.2,1.1l-1.3,1.9l-0.7,2.3l0.4,2.1
		l0.4,1.4l24.8,17.6l-1.7,1.1l-23-17.2l-14.4-15.4L47.7,178.8z"/>
	<path id="path445" class="st0" d="M62.7,202.2l3-4.4l27.1,17.8l1.4-1.5l29.3,14.8l-2.3,10.8c0,0,1.6,1,1.5,0.4
		c-0.1-0.7,1.9-10.2,1.9-10.2l26,9.8l3.8-0.1l9.6,3.1l22.1-2.8l-7.9,11.5l-7.6,1.9l-10,1.2l-7.4-1.1L124.1,242l-41.4-20.9l1.7-1
		l5.9,3.3l0.7-1.1l-28.8-19.2L62.7,202.2z"/>
	<path id="path447" class="st0" d="M112,113.3l25.4-29.6l1.3,0l-26.1,30L112,113.3z"/>
	<path id="path449" class="st0" d="M74.8,139.8l-4.7,10l2,9.4l2.8,11.2l0.7,14.3l2.5-0.1c0,0,2.2-1.4,2.6-1.6
		c0.4-0.2,1.8-1.3,1.8-1.3l0.6-0.7l-0.6-10.3l-0.9-4.9l-1.2-5.1l-1.4-3.9l-3.6-7.7l4.2-8.3l-4.4-1.7L74.8,139.8z"/>
	<path id="path451" class="st0" d="M76.4,186.4l2.7-1l2.9-1.6l1.6-0.9l31.9,27.3l2.9,0.8l3.5,0.2l10.6-0.5l3.6,0.3l-3.7,4.8l-3.5,10
		l-2.3,0.1l-19.6-14.3l-31.7-24.5L76.4,186.4z"/>
	<path id="path455" class="st0" d="M136.1,211.4c0.5,0.1,4.5,1.9,4.5,1.9l2.9,3l1.8,2.4l5.1,6.2l6.7,6.4l3.9,3.2l3.5,1.5l3.8,1.5
		l7.2,0l10.8-1.9l5.5-6.1l3.3-6.4l0.8,0.3l-3.5,6.9l-4.5,7.4l-1.3,0.9l-19.6,2.7l-3.2-0.4l-17.2-6.5l-16.9-7.3l2.9-8.4l2-4.1
		L136.1,211.4z"/>
	<path id="path457" class="st0" d="M159,230.3c0,0,9.7-1.5,10.1-1.6c0.4,0,8.6-1.3,8.6-1.3l2.4-1.2l2.5-21.7l13.9-23.2l9.8-10.8
		l3-0.1l-2.3,15.9l-6.4,24.9l-5.7,10.6l-5.6,8.3l-4.4,4l-13,1.9l-4-0.6l-5.5-2.5L159,230.3z"/>
	<path id="path459" class="st0" d="M150.5,156.9l57.4,6l-18.6,12.3l-4.1-1.5L150.5,156.9z"/>
	<path id="path357" class="st0" d="M84.5,110.6l0.6-1.2l16.8,8.2l1.2,0.6l2-3.4l-19-8.6l3.1-15.5l4.6-11l20.9-18.6l-5.6-4L94.3,67.8
		L66.1,46.2l-2,2.1l4.7,3.4l11.5,7.8l10.2,7.8l2.1,3.2L91.5,72l-3.7-3l0.6-1.4L61,48.5l-18.5-5.8l-0.9,1.2l16.8,6.4l6.4,3.1l13,8.4
		l6.5,4.9l7.8,9.7l-1.8,2.7L76,63.1l-8.7-6.7L53,49.7l-13.8-4.5l4.8-6.1l11,4.8l1.1-2.3L45.5,37l4.3-5.7l4.4-3.6l7-4l8.7-4l12-5.1
		l23.6-7.9l5.6-1.3l6.7-1.6l16.8-1.6l20.2,17.1l24.2,30.9l-24.3,16.2L139,79.6l-26.9,30.3l-7.3,10.6L84.5,110.6z"/>
	<path id="path461" class="st0" d="M90.3,143.3l24.5,7.3l25.6,5.2l7.1,0.5l23.7,13.2L188,176l-3.6,1.6l-16.9-5.5L139,158.1l-3.1-2.2
		l-14.4-2.2l-17.1-4.9L90.3,143.3z"/>
	<path id="path624" class="st0" d="M175.1,40.8c-0.1-0.5-19-22.8-19-22.8L137,1.8l10.1-0.6l7.9,0.5l5,0.6l9.4,2.1l6.1,2.8l10.2,11
		L175.1,40.8z"/>
	<path id="path626" class="st0" d="M131.5,2.7l6.1-0.8l26.5,21.2l16.3,23.1l-0.6,3.9l-3.1,0.6L131.5,2.7z"/>
	<path id="path629" class="st0" d="M206.5,169.8l5.4-11.7l2.4-2.5l-5.2,14.9l-3.1,0.2L206.5,169.8z"/>
</g>
</svg>
