<?xml version="1.0" encoding="UTF-8" standalone="no"?>
<!-- Created with Inkscape (http://www.inkscape.org/) -->

<svg
   width="250"
   height="250"
   viewBox="0 0 66.145832 66.145833"
   version="1.1"
   id="svg5"
   xml:space="preserve"
   inkscape:version="1.2.1 (9c6d41e410, 2022-07-14)"
   sodipodi:docname="SLDF.svg"
   xmlns:inkscape="http://www.inkscape.org/namespaces/inkscape"
   xmlns:sodipodi="http://sodipodi.sourceforge.net/DTD/sodipodi-0.dtd"
   xmlns="http://www.w3.org/2000/svg"
   xmlns:svg="http://www.w3.org/2000/svg"><sodipodi:namedview
     id="namedview7"
     pagecolor="#ffffff"
     bordercolor="#000000"
     borderopacity="0.25"
     inkscape:showpageshadow="2"
     inkscape:pageopacity="0.0"
     inkscape:pagecheckerboard="0"
     inkscape:deskcolor="#d1d1d1"
     inkscape:document-units="mm"
     showgrid="false"
     inkscape:zoom="1.829812"
     inkscape:cx="394.3028"
     inkscape:cy="79.789618"
     inkscape:window-width="5120"
     inkscape:window-height="1377"
     inkscape:window-x="-8"
     inkscape:window-y="-8"
     inkscape:window-maximized="1"
     inkscape:current-layer="layer1" /><defs
     id="defs2" /><g
     inkscape:groupmode="layer"
     id="layer1"
     inkscape:label="Layer 3" /><g
     inkscape:groupmode="layer"
     id="layer2"
     inkscape:label="Layer 2"
     transform="translate(-152.25949,6.0730282)"><path
       style="font-variation-settings:'wght' 700;fill:#ffffff;stroke:none;stroke-width:0;stroke-linejoin:bevel"
       d="m 167.21723,23.174207 0.83494,3.193817 -3.26717,2.822442 3.30348,2.525342 -1.45208,3.899426 c 0,0 -14.37558,-6.573319 -14.15777,-6.68473 0.21782,-0.111413 14.23038,-6.12767 14.23038,-6.12767 0,0 5.7357,-27.6673592 5.98982,-27.2217101 0.25411,0.4456484 6.57065,26.8874731 6.57065,26.8874731 l 38.91569,7.093242 -38.55267,5.384922 -1.19797,-0.965572 c 0,0 -0.58083,-2.488205 -0.50822,-2.636755 0.0726,-0.14855 2.46853,-2.562481 2.46853,-2.562481 l -2.61374,-2.079693 0.98015,-3.230954 -3.8117,0.705611 -1.99661,-1.374083 -2.25072,1.55977 -3.30348,-1.448358 z"
       id="path357" /><path
       style="font-variation-settings:'wght' 700;fill:#ffffff;stroke:none;stroke-width:0;stroke-linejoin:bevel"
       d="m 166.6727,35.615234 5.40899,16.897516 7.58711,-17.6774 -1.08906,-0.854161 -0.72604,0.297099 -2.54113,-0.594199 -2.79526,2.00542 c 0,0 -1.924,-1.894007 -2.10551,-1.819731 -0.1815,0.07427 -3.7754,1.11412 -3.7754,1.11412 z"
       id="path359" /><path
       style="font-variation-settings:'wght' 700;fill:#ffffff;stroke:none;stroke-width:0;stroke-linejoin:bevel"
       d="m 164.13157,34.426837 c 0,0 -5.37269,8.727288 -5.15488,8.69015 0.21781,-0.03714 8.53096,-4.047975 8.53096,-4.047975 l -1.12537,-3.268092 z"
       id="path361" /><path
       style="font-variation-settings:'wght' 700;fill:#ffffff;stroke:none;stroke-width:0;stroke-linejoin:bevel"
       d="m 178.32562,39.069012 1.34318,-3.750876 3.7754,-0.5942 5.11858,8.727288 z"
       id="path363" /><path
       style="font-variation-settings:'wght' 700;fill:#ffffff;stroke:none;stroke-width:0;stroke-linejoin:bevel"
       d="m 179.19687,19.534743 c 0.21782,-0.111412 8.38576,-4.642174 8.38576,-4.642174 l -3.41239,7.947402 -3.70279,-0.594198 z"
       id="path365" /><path
       style="font-variation-settings:'wght' 700;fill:#ffffff;stroke:none;stroke-width:0;stroke-linejoin:bevel"
       d="m 158.57736,14.706881 3.81171,8.244502 3.23087,-0.891298 1.52468,-2.970991 z"
       id="path367" /><path
       style="font-variation-settings:'wght' 700;fill:#ffffff;stroke:none;stroke-width:0;stroke-linejoin:bevel"
       d="m 172.2269,26.962221 -0.90755,0.482786 -0.32671,0.519924 -0.18152,0.594198 -0.0363,0.519924 0.0363,0.408511 0.25412,0.519924 c 0,0 0.14521,0.519924 0.29041,0.557062 0.14521,0.03713 0.79864,0.445648 0.79864,0.445648 0,0 0.68975,0.07428 0.83495,0.03714 0.14521,-0.03714 1.05276,-0.408513 1.05276,-0.408513 0,0 0.79864,-0.742746 0.79864,-0.891297 0,-0.148548 0.18151,-0.631334 0.0726,-0.928434 -0.1089,-0.2971 -0.61713,-1.299808 -0.61713,-1.299808 0,0 -0.98015,-0.557062 -1.12536,-0.594199 -0.14521,-0.03714 -0.94385,0.03713 -0.94385,0.03713 z"
       id="path369" /></g></svg>
