<?xml version="1.0" encoding="UTF-8"?>
<svg id="svg5" xmlns="http://www.w3.org/2000/svg" width="199.87" height="244.55" viewBox="0 0 199.87 244.55">
  <defs>
    <style>
      .cls-1 {
        fill: #fff;
      }
    </style>
  </defs>
  <g id="layer2">
    <path id="path427" class="cls-1" d="m1.73,37.48c1.54-2.47,10.37-13.98,11.52-13.98s20.74-1.85,20.74-1.85c0,0,2.69,4.32,3.65,4.32s5.57,2.67,5.57,2.67l4.03.41-14.59,4.52-10.18,16.45s31.3,9.05,31.3,7.2,5.57-18.51,5.57-18.51l10.94-6.58,8.26,1.23-6.72,6.79-3.65,16.45,53.95,1.65-2.88-19.12-3.84-6.17,28.03-3.7,15.36,2.88,10.94,17.27s13.25-2.67,14.4-2.88c1.15-.21,11.52-8.02,11.52-8.02l-12.48-15.22-20.35-1.65,1.34-1.65,20.54.21,13.44,14.81,1.15-1.23s.58-2.26.38-3.08c-.19-.82-1.34-1.44-1.92-2.67s-14.02-15.63-14.02-15.63l-21.7,1.85-4.22-3.7-6.72-1.85s-7.68-1.65-6.91-2.06c.77-.41,13.06-3.08,13.06-3.08l-4.61-1.44L132.1.06l-6.34,4.11-7.87-.62S124.99.26,123.26.06s-37.06.21-37.06.21l1.15,4.52-25.92,4.11-12.29-4.73-17.09,3.91-9.02,3.29,17.86,1.85-2.11,1.85-21.7-.41L.77,32.34l.96,5.14Z"/>
    <path id="path537" class="cls-1" d="m0,38.3l3.46,5.55,16.51,6.99,32.26,7.61s20.35,1.44,27.26,1.23,38.21.41,40.7.21c2.5-.21,49.92-8.43,49.92-8.43,0,0,15.94-3.5,17.66-4.52,1.73-1.03,12.1-11.31,12.1-11.31l-.77,19.12-5.57,6.37-9.79,5.35-19.97,6.58-17.09,3.5-23.04,3.08-47.81.21-39.17-3.91-21.12-6.58-11.71-8.23-1.92-2.06-1.92-20.77Z"/>
    <path id="path539" class="cls-1" d="m.96,65.65l10.37,6.17s10.75,4.94,12.1,5.14,22.66,5.76,22.66,5.76l22.08,1.85s35.14.41,36.29.41,35.33-3.29,35.33-3.29l28.22-5.55,19.97-6.79,11.14-11.93-.38,19.53-4.22,5.76s-1.92,2.47-2.88,3.08-10.75,6.37-10.75,6.37c0,0-19.01,7.2-20.93,7.2s-18.05,3.08-18.05,3.08l-12.86,1.85-20.93,2.06h-28.42l-14.98-.82-8.64-.82-21.7-3.7-16.13-5.76-10.56-6.58-3.84-5.35-1.73-3.08-1.15-14.6Z"/>
    <path id="path541" class="cls-1" d="m9.79,92.18l-.19,12.13,5.57,6.58,7.68,6.17s7.1,2.88,9.41,3.7c2.3.82,20.93,4.73,21.7,4.94.77.21,15.94,2.06,15.94,2.06l18.24,1.03,27.65-.21,24.77-3.7,26.5-6.37,14.59-7.4,8.64-7.2,3.26-8.43-.58-8.02s-13.63,7.81-14.78,8.02-22.46,6.58-22.46,6.58l-15.55,2.88-26.11,4.32-29.95-.21-28.22-2.67-27.46-5.14-18.62-9.05Z"/>
    <path id="path545" class="cls-1" d="m80.45,151.2l3.84,74.64-26.88-2.06-28.61-10.9-14.21-12.54s-3.65-10.49-3.46-8.23c.19,2.26.77,19.33.77,19.33l12.48,15.22,11.71,6.37,23.62,8.02,20.35,3.5,44.35-1.23,47.42-14.39,21.89-17.07,3.07-12.95s.96-15.83,0-15.42-4.8,2.47-4.8,2.47l-.38-58.4-11.9,3.91-1.54,79.99-21.89,11.1-23.62,5.55-13.44,1.85-6.72-.82-1.15-82.25,67.58-14.19,14.02-5.35,4.61-7.4,1.54-18.71s-3.65,5.96-4.42,6.79c-.77.82-6.34,5.14-6.34,5.14l-14.21,5.96-18.62,4.73-20.16,5.76-43.2,1.85-27.65-1.44-13.25-1.44-21.5-5.55-15.55-7.61-7.68-8.64-1.15-1.44,1.15,18.71,4.42,7.2,13.25,9.46,24.58,5.76,31.68,4.73Z"/>
    <path id="path547" class="cls-1" d="m60.67,157.16l10.94.62,2.88,61.48-11.33-.41-2.5-61.69Z"/>
    <path id="path549" class="cls-1" d="m38.78,151.81c1.73,0,9.41,1.65,9.41,1.65l2.88,60.87-8.83-1.65-3.46-60.87Z"/>
    <path id="path551" class="cls-1" d="m21.89,144.82l7.1,1.65,3.46,61.07-7.3-3.29-3.26-59.43Z"/>
    <path id="path553" class="cls-1" d="m11.52,137.01l6.14,2.47,2.69,59.84-5.57-4.11-3.26-58.19Z"/>
    <path id="path555" class="cls-1" d="m120,148.52l.58,74.23,13.06-2.26-2.11-74.44-11.33,1.65-.19.82Z"/>
    <path id="path557" class="cls-1" d="m150.53,144.41c0,2.26-.38,68.68-.38,68.68l.58,2.26h9.98l3.07-2.06v-73.62l-14.21,2.47.96,2.26Z"/>
    <path id="path559" class="cls-1" d="m124.45,41.55l30.95-5.82,8.96,14.83-38.01,5.23-1.9-14.25Z"/>
    <path id="path561" class="cls-1" d="m61.72,41.85c2.99-.58,7.87,0,7.87,0l-3.53,14.25-8.15-.29,3.8-13.96Z"/>
    <path id="path563" class="cls-1" d="m3.35,40.39l12.76-12.21,16.02-2.04,3.8,3.78-7.6,5.23-8.69,13.67L3.35,40.39Z"/>
    <path id="path565" class="cls-1" d="m156.22,8.11l9.78,4.36,8.42-.87-14.66-4.94-3.53,1.45Z"/>
  </g>
</svg>