<?xml version="1.0" encoding="utf-8"?>
<!-- Generator: Adobe Illustrator 27.7.0, SVG Export Plug-In . SVG Version: 6.00 Build 0)  -->
<svg version="1.1"
	 id="svg5" xmlns:sodipodi="http://sodipodi.sourceforge.net/DTD/sodipodi-0.dtd" xmlns:inkscape="http://www.inkscape.org/namespaces/inkscape" xmlns:svg="http://www.w3.org/2000/svg"
	 xmlns="http://www.w3.org/2000/svg" xmlns:xlink="http://www.w3.org/1999/xlink" x="0px" y="0px" viewBox="0 0 157.7 157.3"
	 style="enable-background:new 0 0 157.7 157.3;" xml:space="preserve">
<style type="text/css">
	.st0{fill:#FF0000;stroke:#231F20;stroke-width:0.75;stroke-miterlimit:11.3386;}
</style>
<sodipodi:namedview  bordercolor="#ffffff" borderopacity="1" id="namedview7" inkscape:current-layer="layer1" inkscape:cx="-3.839464" inkscape:cy="66.318015" inkscape:deskcolor="#505050" inkscape:document-units="mm" inkscape:pagecheckerboard="1" inkscape:pageopacity="0" inkscape:showpageshadow="0" inkscape:window-height="1377" inkscape:window-maximized="1" inkscape:window-width="5120" inkscape:window-x="-8" inkscape:window-y="-8" inkscape:zoom="1.4324916" pagecolor="#505050" showgrid="false">
	</sodipodi:namedview>
<g id="layer1" transform="translate(8.0640615,-29.719956)" inkscape:groupmode="layer" inkscape:label="Layer 1">
	<path id="path4778-0-6-3-6" class="st0" d="M24.5,114.8c-0.2-0.1-2.1-0.8-2.1-0.8h3.1l-0.5-0.4l1.2-0.1c0,0-2.9-2.1-2.5-1.9
		c0.4,0.2,3.7,1.5,3.7,1.5s0.5-0.1,0.5-0.2c0.1-0.1,0.5-0.9,0.6-1c0.2-0.1,0.6-0.3,0.6-0.3s0.2,0,0.2-0.2s0.5-11.6,0.5-11.6
		s0.3,5.2,0.3,5c0-0.3,0.2-4.9,0.2-4.9l0.2,0.9l0.4,2.9v5.3l0.6,2.5l0.3,0.4l1.5,0.7c0,0,4.5-2.4,4.3-2.2c-0.2,0.3-3.7,2.7-3.7,2.7
		s0.1,0.2,0.5,0.1s2.2-0.8,2.2-0.8l-2.1,1.1l4.3-0.3l-1.7,0.9l12.2,0.6l3.4,0.4l-3,0.3l-11.8,0.6l1,0.8l-3.8-0.1l-0.2,0.1v0.5
		c-0.1,0-0.2,0.2,0,0.3c0.2,0.1,0.9,0.7,0.9,0.7l1.2,0.8l0.1,0.4l-2.9-1.6l-0.8-0.2l-0.2,0.4l-0.6-0.2l-0.7-0.3l-0.1,0.6l-0.3,0.7
		l-1,14.4L29,119.1l-0.9-0.7l-0.9-0.1l-0.4-0.2c0,0-1.3,0.5-1.5,0.5c-0.1,0.1-1.8,0.9-1.8,0.9l0.7-0.8l2.6-1.6L26,117h-0.3l-3.7,0
		l1.5-0.6l-3.9-0.4l-6.8-0.1L24.5,114.8z"/>
	<path id="path4778-0-6-3-6-2" class="st0" d="M52.5,62.8c-0.2-0.1-2.1-0.8-2.1-0.8h3.1L53,61.7l1.2-0.1c0,0-2.9-2.1-2.5-1.9
		c0.4,0.2,3.7,1.5,3.7,1.5s0.5-0.1,0.5-0.2c0.1-0.1,0.5-0.9,0.6-1c0.2-0.1,0.6-0.3,0.6-0.3s0.2,0,0.2-0.2c0-0.2,0.5-11.6,0.5-11.6
		s0.3,5.2,0.3,5c0-0.3,0.2-4.9,0.2-4.9l0.2,0.9l0.4,2.9v5.8l0.7,2.5l0.3,0.4l1.5,0.7c0,0,4.5-2.4,4.3-2.2c-0.2,0.3-3.7,2.7-3.7,2.7
		s0.1,0.2,0.5,0.1c0.4-0.1,2.2-0.8,2.2-0.8l-2.1,1.1l4.3-0.3l-1.7,0.9l12.2,0.6l3.4,0.4l-3,0.3L66,64.6l1,0.8l-3.8-0.1l-0.3,0.1v0.5
		c0,0-0.1,0.2,0.1,0.3c0.2,0.1,0.9,0.7,0.9,0.7l1.2,0.8l0.1,0.4l-2.9-1.6l-0.8-0.2l-0.2,0.4l-0.6-0.2L60,66.2L59.9,67l-0.3,0.7
		l-1,14.4l-1.4-14.5l-0.9-0.7l-0.9-0.1L55,66.6c0,0-1.3,0.5-1.5,0.5c-0.1,0.1-1.8,0.9-1.8,0.9l0.7-0.8l2.6-1.6L54.2,65h-0.3
		l-3.7,0.5l1.5-0.6L47.8,64l-6.9-0.1L52.5,62.8z"/>
	<path id="path4778-0-6-3-6-7" class="st0" d="M74.8,137.9c-0.2-0.1-2.3-0.9-2.3-0.9h3.4l-0.5-0.4l1.3-0.1c0,0-3.2-2.3-2.8-2.1
		c0.4,0.2,4.1,1.7,4.1,1.7s0.5-0.1,0.6-0.2c0.1-0.1,0.5-1,0.7-1.1c0.2-0.1,0.7-0.3,0.7-0.3s0.2,0,0.2-0.2s0.6-12.8,0.6-12.8
		s0.3,5.7,0.3,5.5c0-0.3,0.2-5.4,0.2-5.4l0.2,1l0.4,3.2v6.4l0.2,2.5l0.3,0.4l1.5,0.7c0,0,4.5-2.4,4.3-2.2c-0.2,0.3-3.7,2.7-3.7,2.7
		s0.1,0.2,0.5,0.1c0.4-0.1,2.2-0.8,2.2-0.8l-2.1,1.1l4.3-0.3l-1.7,0.9l12.2,0.6l3.4,0.4l-3,0.3l-11.8,0.6l1,0.8l-3.8-0.1l0.2,0.1
		v0.5c-0.5,0-0.6,0.2-0.4,0.3s0.9,0.7,0.9,0.7l1.2,0.8l0.1,0.4l-2.9-1.6l-0.8-0.2l-0.2,0.4l-0.6-0.2l-0.7-0.3l-0.1,0.6l-0.3,0.7
		l-1,14.4L79.7,142l-0.9-0.7l-0.9-0.1l-0.4-0.2c0,0-1.3,0.5-1.5,0.5c-0.1,0.1-1.8,0.9-1.8,0.9l0.7-0.8l2.6-1.6l-0.8,0h-0.3l-3.7-0.1
		l1.5-0.6l-3.9-0.3l-8.2-0.1L74.8,137.9z"/>
	<path id="path4778-0-6-3-6-3" class="st0" d="M99.5,81.8c-0.2-0.1-2.1-0.8-2.1-0.8h3.1l-0.5-0.4l1.2-0.1c0,0-2.9-2.1-2.5-1.9
		c0.4,0.2,3.7,1.5,3.7,1.5s0.5-0.1,0.5-0.2c0.1-0.1,0.5-0.9,0.6-1c0.2-0.1,0.6-0.3,0.6-0.3s0.2,0,0.2-0.2s0.5-11.6,0.5-11.6
		s0.3,5.2,0.3,5c0-0.3,0.2-4.9,0.2-4.9l0.2,0.9l0.4,2.9v5.3l0.6,2.5l0.3,0.4l1.5,0.7c0,0,4.5-2.4,4.3-2.2c-0.2,0.3-3.7,2.7-3.7,2.7
		s0.1,0.2,0.5,0.1s2.2-0.8,2.2-0.8l-2.1,1.1l4.3-0.3l-1.7,0.9l12.2,0.6l3.4,0.4l-3,0.3l-11.8,0.6l1,0.8l-3.8-0.1l-0.2,0.1v0.5
		c-0.1,0-0.2,0.2,0,0.3c0.2,0.1,0.9,0.7,0.9,0.7l1.2,0.8l0.1,0.4l-2.9-1.6l-0.8-0.2l-0.2,0.4l-0.6-0.2l-0.7-0.3l-0.1,0.6l-0.3,0.7
		l-1,14.4L104,86.1l-0.9-0.7l-0.9-0.1l-0.4-0.2c0,0-1.3,0.5-1.5,0.5c-0.1,0.1-1.8,0.9-1.8,0.9l0.7-0.8l2.6-1.6L101,84h-0.3l-3.5,0
		l1.5-0.6L94.8,83L88,82.9L99.5,81.8z"/>
	<path id="path4778-0-6-3-6-76" class="st0" d="M26.5,152.8c-0.2-0.1-2.1-0.8-2.1-0.8h3.1l-0.5-0.4l1.2-0.1c0,0-2.9-2.1-2.5-1.9
		s3.7,1.5,3.7,1.5s0.5-0.1,0.5-0.2c0.1-0.1,0.5-0.9,0.6-1s0.6-0.3,0.6-0.3s0.2,0,0.2-0.2c0-0.2,0.5-11.6,0.5-11.6s0.3,5.2,0.3,5
		c0-0.3,0.2-4.9,0.2-4.9l0.2,0.9l0.4,2.9v5.2l0.5,2.5l0.3,0.4l1.5,0.7c0,0,4.5-2.4,4.3-2.2c-0.2,0.3-3.7,2.7-3.7,2.7
		s0.1,0.2,0.5,0.1c0.4-0.1,2.2-0.8,2.2-0.8l-2.1,1.1l4.3-0.3l-1.7,0.9l12.2,0.6l3.4,0.4l-3,0.3L39.8,154l1,0.8l-3.8-0.1l-0.1,0.1
		v0.5c-0.2,0-0.3,0.2-0.1,0.3c0.2,0.1,0.9,0.7,0.9,0.7l1.2,0.8l0.1,0.4l-2.9-1.6l-0.8-0.2l-0.2,0.4l-0.6-0.2l-0.7-0.3l-0.1,0.6
		l-0.3,0.7l-1,14.4L30.9,157l-0.9-0.7l-0.9-0.1l-0.4-0.2c0,0-1.3,0.5-1.5,0.5c-0.1,0.1-1.8,0.9-1.8,0.9l0.7-0.8l2.6-1.6l-0.8,0h-0.3
		l-3.7-0.1l1.5-0.6l-3.9-0.3l-6.7-0.1L26.5,152.8z"/>
	<path id="path4778-0-6-3-6-78" class="st0" d="M67.5,95.8c-0.2-0.1-2.1-0.8-2.1-0.8h3.1L68,94.7l1.2-0.1c0,0-2.9-2.1-2.5-1.9
		c0.4,0.2,3.7,1.5,3.7,1.5s0.5-0.1,0.5-0.2c0.1-0.1,0.5-0.9,0.6-1c0.2-0.1,0.6-0.3,0.6-0.3s0.2,0,0.2-0.2s0.5-11.6,0.5-11.6
		s0.3,5.2,0.3,5c0-0.3,0.2-4.9,0.2-4.9l0.2,0.9l0.4,2.9v6.1l0.7,2.5l0.3,0.4l1.5,0.7c0,0,4.5-2.4,4.3-2.2C80.5,92.6,77,95,77,95
		s0.1,0.2,0.5,0.1s2.2-0.8,2.2-0.8l-2.1,1.1l4.3-0.3L80.2,96l12.2,0.6l3.4,0.4l-3,0.3L81,97.9l1,0.8l-3.8-0.1l-0.3,0.1v0.5
		c0,0-0.1,0.2,0.1,0.3c0.2,0.1,0.9,0.7,0.9,0.7l1.2,0.8l0.1,0.4l-2.9-1.6l-0.8-0.2l-0.2,0.4l-0.6-0.2L75,99.5l-0.1,0.6l-0.3,0.7
		l-1,14.4l-1.4-14.5l-0.9-0.7l-0.9,0H70c0-0.1-1.3,0.4-1.5,0.4c-0.1,0.1-1.8,0.9-1.8,0.9l0.7-0.8l2.6-1.6L69.2,99h-0.3l-3.7-0.2
		l1.5-0.6L62.8,97l-6.9-0.1L67.5,95.8z"/>
</g>
</svg>
