<?xml version="1.0" encoding="UTF-8"?>
<svg id="svg5" xmlns="http://www.w3.org/2000/svg" width="137.27" height="251.2" viewBox="0 0 137.27 251.2">
  <defs>
    <style>
      .cls-1 {
        fill: #fff;
        stroke-width: 0px;
      }
    </style>
  </defs>
  <g id="layer1">
    <path id="path419" class="cls-1" d="m28.66,38.62l-1.96,1.99-.53,42.24,1.25,15.59,13.35,10.88,8.9-.18-3.92-10.33,1.42-26.29v-33.36l-18.52-.54Z"/>
    <path id="path475" class="cls-1" d="m56.26,27.2l-8.01,14.14.18,15.77,9.79,9.61,17.09.18,9.44-12.69.71-16.68-7.48-11.78-21.19-.54-.53,1.99Z"/>
    <path id="path477" class="cls-1" d="m47.72,41.16l7.66-15.23,2.31-.91-8.19,17.95-2.14-3.26"/>
    <path id="path479" class="cls-1" d="m48.61,60.01l7.12,11.24,20.65-.36,11.39-17.04s-1.78-13.6-.89-13.6h18.52l-.18,59.47-12.82,11.06-42.73,1.99,1.6-3.08-4.27-9.97.53-40.43,2.67,1.45-1.6-.73Z"/>
    <path id="path481" class="cls-1" d="m107.36,46.59l11.04,7.8-.71,2.72,10.15,5.08-.36,14.32-2.67.91-.18,8.52-14.6-1.63-1.6-3.08-2.14-1.99-.36-33,1.42.36Z"/>
    <path id="path483" class="cls-1" d="m113.23,101.53l-1.96,10.52,1.78,1.27-2.31.91-2.49,2.18-1.07,15.41,3.74,3.63,13.53-.18,4.45-4.53v-13.23l-2.85-2.9-3.03-.91,2.31-1.99-.18-8.52-1.78-2.54-9.97-.18-.18,1.09Z"/>
    <path id="path485" class="cls-1" d="m114.13,86.84c-.18.73.71,11.06.71,11.06l6.23.54,2.67-11.42-10.5-.91.89.73Z"/>
    <path id="path487" class="cls-1" d="m107.72,20.85c0,1.09.18,17.59.18,17.59l26.17.91,3.2-3.63-.18-13.96-3.56-2.54h-25.1l-.71,1.63Z"/>
    <path id="path489" class="cls-1" d="m47.89,114.04l-5.7.36-11.39,12.51s-.71,4.9.36,4.35c1.07-.54,12.11.91,12.11.91l2.49-3.26,10.5,3.26,1.25,20.67,5.88,6.71h13.18s-1.25-26.83-.53-27.01c.71-.18,9.79-4.35,9.79-4.35l3.92,3.81,11.39-.73-.71-4.53-11.57-13.42-40.95.73Z"/>
    <path id="path491" class="cls-1" d="m25.1,136.34l-1.6,1.09.71,38.44s1.96,1.27,3.03,1.27,20.3-.54,20.3-.54"/>
    <path id="path493" class="cls-1" d="m47.36,137.61l-23.15-1.27,3.2,38.07,10.86,1.99,10.5.36-1.42-39.16Z"/>
    <path id="path495" class="cls-1" d="m24.57,181.48h23.5l1.96,40.61-7.3,1.99-14.78-.73-5.34-1.45-1.07-27.38,3.03-13.05Z"/>
    <path id="path497" class="cls-1" d="m23.15,226.44c-1.25.36-7.12,2.9-7.12,2.9l-8.72,5.8.18,13.78h21.19l3.2-2.18,9.97-.36,1.25,3.08s22.26,3.26,22.26.73-1.42-16.32-1.42-16.32l-14.96-6.71-25.82-.73Z"/>
    <path id="path499" class="cls-1" d="m85.46,139.6l22.61.36-.53,36.99-23.86-1.45,1.78-35.9Z"/>
    <path id="path501" class="cls-1" d="m86.35,185.65l.53,38.07s2.49,2.72,3.56,2.54c1.07-.18,13-.73,14.07-.73s4.45-1.27,4.45-1.27v-40.97l-22.61.36v1.99Z"/>
    <path id="path503" class="cls-1" d="m125.88,250.01l-1.42-13.05-10.68-6.53-5.52-2.54-17.45-.54-9.79,2.72-9.26,3.44-3.74,3.81s-1.25,12.69,0,12.69"/>
    <path id="path505" class="cls-1" d="m25.46,45.69l-8.9,5.8-1.78,3.99-8.72,3.26v17.77l1.96,1.09-1.42,1.27.18,4.53,14.42-.73,2.85-.91s.53-3.08.71-4.17c.18-1.09.71-31.91.71-31.91Z"/>
    <path id="path507" class="cls-1" d="m7.12,83.76l.36,1.99.18,1.99,13.71,1.09.89-2.9-.36-1.81-14.78-.36Z"/>
    <path id="path509" class="cls-1" d="m7.3,89.56l1.25,9.07h12.64l.89-8.88-14.78-.18Z"/>
    <path id="path511" class="cls-1" d="m9.26,99.9l-1.78,9.61s2.49,2.9,2.67,1.99c.18-.91-.18,1.45-.18,1.45l-2.67.91s-2.85,2.54-3.38,3.26c-.53.73-1.07,10.52-1.07,10.52l.53,3.63,4.27,3.08,14.78.91,3.92-3.63.89-13.6-4.27-4.35-4.27-.73.89-1.27,1.42-.91v-7.61l-1.25-3.26-1.78-.91-8.72.91Z"/>
    <path id="path513" class="cls-1" d="m.36.91l-.36,36.44,2.31,3.63,10.86.18,10.33-.73.89-6.53.18-30.82-2.85-3.08L.36.91Z"/>
    <path id="path515" class="cls-1" d="m46,56.02l3.02,5.64,3.65,50.64-10.58.13-14.48-14.61,15.11-40.13,3.27-1.67Z"/>
    <path id="path517" class="cls-1" d="m7.98,87.04v1.67l13.47-.13-1.76-3.2-11.71,1.67Z"/>
    <path id="path615" class="cls-1" d="m27.74,248.83l22.66,1.03s-4.03-6.92-5.29-7.18c-1.26-.26-19.39-.51-19.39-.51l2.01,6.67Z"/>
    <path id="path671" class="cls-1" d="m58.58,251.2H7.21l.27-8.2,37.16,1.64,13.94,6.56Z"/>
    <path id="path673" class="cls-1" d="m49.29,137.11l5.6-3.55.55,25-5.47-5.19-.68-16.26Z"/>
    <path id="path675" class="cls-1" d="m78.93,133.7l.55,24.73,3.42-5.06s.27-17.76-.41-18.03c-.68-.27-3.55-1.64-3.55-1.64Z"/>
  </g>
</svg>