<?xml version="1.0" encoding="UTF-8"?>
<svg id="svg982" xmlns="http://www.w3.org/2000/svg" width="122.17" height="126.62" viewBox="0 0 122.17 126.62">
  <defs>
    <style>
      .cls-1 {
        fill: #666;
      }

      .cls-1, .cls-2, .cls-3, .cls-4 {
        stroke-width: 0px;
      }

      .cls-3 {
        fill: #333;
      }

      .cls-4 {
        fill: #fff;
      }
    </style>
  </defs>
  <g id="layer3">
    <path id="path359" class="cls-3" d="m45.95,29.97c-.21.93-4.35,7.92-4.35,7.92l-.11,7.92,7.95,2.37,12.51-5.56-4.66-7.72v-6.89l-11.34,1.95Z"/>
    <path id="path527" class="cls-2" d="m37,69.79c1.43-.72,12.08-9.67,12.08-9.67l2.38-1.18s6.57.72,7.26,1.13c.69.41,6.78,1.85,7.58,2.21.79.36,4.56.77,5.3.62.74-.15,4.5-1.29,4.98-1.44.48-.15,3.5.1,3.66-.26.16-.36.32-7.56.32-7.56,0,0-3.39-.51-3.82-.62-.42-.1-8.74-1.44-8.74-1.44l-8.32-.93s-10.76.21-10.97.21-8.27,3.5-8.27,3.5l-5.41,5.76s-2.7,2.88-2.76,3.14c-.05.26.11,1.95.37,2.06s1.64.93,1.96,1.34c.32.41.42,4.37.42,4.37l1.96-1.23Z"/>
    <path id="path529" class="cls-2" d="m46.26,70.26c.49-.33,3.04-2.15,3.04-2.15l4.61.65s.26,1.05.11,1.05-3.67-.36-3.67-.36l-3.93,2.26-.15-1.46Z"/>
    <path id="path531" class="cls-2" d="m47.35,74.4l2.51-2,4.46.69-.04,1.35-3.82-.58-2.85,1.49-.26-.95Z"/>
    <path id="path533" class="cls-2" d="m49.13,84.97l5.19-1.39.79,2.62s2.23,6.64,2.23,7,1.48,3.29,1.48,3.29l1.85,1.08,1.59.93,1.01,1.75-.05,1.59s-1.59,1.23-2.01,1.29c-.42.05-2.01.62-2.7.72-.69.1-2.54.21-3.07.26s-.85.05-1.54.05h-1.27c-.21,0-1.64-2.06-1.85-2.37-.21-.31-.79-1.65-.9-2.11-.11-.46-.74-4.17-.74-4.17l-.69-3.86s-.42-4.78-.32-5.09c.11-.31.37-1.29.37-1.29l.64-.31Z"/>
    <path id="path535" class="cls-2" d="m24.23,76.22c0,.25-.9,4.4-.9,4.4l4.35-1.42.08-4.77-3.52,1.78Z"/>
    <path id="path537" class="cls-2" d="m24.23,83.61c-.11.18-.49,3.75-.49,3.75l3.86-1.82.04-3.46-3.41,1.53Z"/>
    <path id="path539" class="cls-2" d="m24.6,90.23c.67-.29,3.26-1.53,3.26-1.53l.79,1.13-3.67,1.27-.37-.87Z"/>
    <path id="path541" class="cls-2" d="m26.07,95.47c.49-.29,3.49-1.75,3.49-1.75l.45,3.97s-4.01,1.64-3.97,1.49c.04-.15.04-3.71.04-3.71h0Z"/>
    <path id="path543" class="cls-2" d="m26.37,103.83c0,.4.22,4.11.22,4.11l4.5-1.49-.3-3.89-.86-.4-3.79,1.42.22.25Z"/>
    <path id="path545" class="cls-2" d="m91.5,88.08l5.77-.8-.15,5.53-5.7.15.08-4.87Z"/>
    <path id="path547" class="cls-2" d="m91.35,83.93v-3.71l4.87-.07.3,3.56-5.17.22Z"/>
    <path id="path549" class="cls-2" d="m93.82,75.79c.22-.44,1.05-1.67,1.35-1.67s2.55.15,2.55.15l-.82,1.75-3.07-.22Z"/>
    <path id="path551" class="cls-2" d="m96.37,71.28l-.15-3.86,4.35-.51-.15,4-4.05.36Z"/>
    <path id="path553" class="cls-2" d="m95.47,63.64l-.15-3.86,5.32-.44.97,4.44-5.77-.07-.37-.07Z"/>
    <path id="path555" class="cls-2" d="m81.94,37.84c-.45,0-4.46-.04-4.76-.04s-2.47.8-2.47.8c0,0-1.27,1.53-1.27,1.78s.34,1.49.64,1.93c.3.44,2.47,1.71,3.04,1.96.56.25,3.3.8,3.6.84.3.04,1.39.33,1.39.33,0,0,1.2-1.16,1.39-1.38.19-.22.64-.69.64-1.09s-.22-1.75-.26-2.4c-.04-.65.11-1.05-.19-1.49-.3-.44-1.72-1.24-1.72-1.24h0Z"/>
    <path id="path557" class="cls-2" d="m30.03,57.11c-.11-.15-1.59-2.03-1.62-2.34-.03-.31.03-1.72.03-1.98s.11-1.65.26-1.88c.16-.23.42-.82.66-1,.24-.18,1.67-.51,2.01-.51s2.36.33,2.36.33c0,0,.5.51.5.69s-.4,1.34-.48,1.59c-.08.26-.58,1.57-.9,2.01-.32.44-1.32,1.44-1.48,1.8-.16.36-.66,1.11-.66,1.11l-.69.18Z"/>
    <path id="path559" class="cls-2" d="m45.4,29.37l-.15-7.78,2.02-3.35,10.04-1.38,2.77,6.4.22,4-14.92,2.11Z"/>
    <path id="path2549" class="cls-4" d="m26.99,122.69c-2.15-3.48-2.61-4.31-3.81-6.82l-1.36-2.86-.39-2.98-.39-2.98-.06-6.64c-.03-3.65-.16-10.82-.28-15.93l-.22-9.29.88-1.38.88-1.38,2.38-1.26c2.32-1.22,4.16-2.26,4.42-2.5.1-.09.03-.93-.34-3.82-.43-3.43-.51-3.86-1.05-5.81-.32-1.16-.69-2.71-.82-3.44-.22-1.27-.22-1.35-.06-1.94.25-.88.72-1.72,1.28-2.3l.49-.51-.06.36c-.1.65-.2,3.36-.13,3.63.05.2,1.19,1.86,1.55,2.26.04.04.24.03.46-.03.33-.09.45-.21.78-.78.21-.37.7-1.03,1.08-1.46.78-.89,1.23-1.75,1.72-3.32l.35-1.1-.26-.36c-.23-.32-.34-.37-.95-.48-1.31-.22-2.03-.24-2.74-.06-.37.09-.69.16-.7.14-.02-.02.54-.69,1.23-1.5.79-.93,1.58-1.99,2.12-2.88.62-1.01,1.09-1.63,1.67-2.21.74-.74.79-.81.62-.94-.1-.08-8.1-5.06-17.77-11.08C7.89,25.02-.01,20.08,0,20.07c.01-.01,9.1,2.36,20.2,5.28,11.1,2.92,20.33,5.33,20.51,5.36l.32.05.35-2.97c.19-1.63.6-5.03.9-7.55l.54-4.58,7.47-1.67,7.47-1.67,5.15,2.63,5.15,2.63,1.75,1.75,1.75,1.75,17.94-10.56C101.66,3.36,107.5-.02,107.66,0c.18.03-2.31,2.23-11.47,10.17-6.43,5.57-12.35,10.7-13.14,11.38-.79.69-2.68,2.32-4.19,3.63-1.52,1.31-2.76,2.43-2.76,2.49s.64.35,1.43.65c.79.3,2.75,1.14,4.37,1.87l2.94,1.33,3.66,2.97,3.66,2.97,2.85,3.2,2.85,3.2,2.33,4.17c2.07,3.7,2.38,4.32,2.77,5.5.24.74.48,1.7.52,2.15.05.45.13.84.19.87.06.04,1.61.57,3.45,1.19l3.34,1.13,2.3,4.17,2.3,4.17,2.86,7.56,2.86,7.56.69,5.45.69,5.45-1.71,12.14-1.71,12.14-1.64,2.73c-.9,1.5-1.7,2.79-1.77,2.86-.09.1-.98.15-3.47.2l-3.35.07-.06-.76c-.04-.42-.14-2.24-.24-4.05l-.17-3.29-1.95-4.02-1.95-4.02-1.44-1.1c-1.08-.83-1.49-1.09-1.66-1.05-.12.03-1.71.33-3.52.66l-3.3.61-.95-.14-.95-.14-7.41-4.6c-4.07-2.53-7.48-4.62-7.58-4.65-.09-.02-1.9.59-4.03,1.37-3.72,1.37-3.95,1.44-6.19,1.88l-2.33.47-.05.82-.05.82-2,.71c-1.14.4-2.23.72-2.54.75q-.54.04.3-.22c1.28-.4,1.32-.42,2.12-1l.74-.54.03-.84c.03-.84.03-.85-.48-1.73l-.51-.88-1.71-1-1.71-1-.46-.93c-.66-1.32-.98-2.12-1.29-3.24-.15-.54-.7-2.27-1.22-3.86-.52-1.58-1.07-3.32-1.23-3.86-.16-.54-.3-.99-.32-1.01-.05-.07-5.2,1.35-5.56,1.53-.33.16-.4.27-.56.81-.37,1.28-.1,4.44.83,9.73.88,5.03,1.08,5.58,2.63,7.57l.76.98h2.07c1.14-.02,1.99,0,1.91.01-.09.02-.9.12-1.8.23-1.5.18-2.08.19-6.68.12-3.81-.06-5.14-.11-5.46-.22-.55-.18-1.16-.8-1.75-1.77-.26-.43-.5-.79-.53-.79s-.72,3.06-1.54,6.81l-1.48,6.81-2.2,2.8c-1.98,2.52-2.36,3.08-3.86,5.62-.91,1.55-1.67,2.83-1.69,2.85-.02.02-1.13-1.75-2.48-3.93h0Zm1.94-15.46c1.1-.36,2.05-.7,2.1-.75.09-.08-.07-3.21-.19-3.77-.04-.2-.64-.56-.93-.56-.14,0-3.68,1.31-3.77,1.39-.03.03,0,.1.06.18.06.07.14.83.18,1.67.1,2.27.16,2.65.37,2.57.09-.04,1.08-.36,2.18-.73h0Zm-.42-8.89c.76-.3,1.41-.57,1.46-.61.08-.07-.32-3.92-.42-4.02-.03-.03-.83.34-1.79.81l-1.74.86v3.87l.56-.19c.31-.1,1.18-.43,1.93-.73h0Zm68.61-5.51s.21-5.54.17-5.58c-.03-.03-5.19.66-5.63.76-.23.05-.24.06-.26,2.53l-.03,2.48,2.86-.07c1.57-.04,2.88-.09,2.9-.1h0Zm-70.3-2.31c.98-.34,1.8-.64,1.82-.67.03-.03-.13-.31-.34-.62-.47-.68-.31-.7-2.31.27l-1.45.7.18.46c.1.26.21.46.25.46s.87-.28,1.85-.62h0Zm-.21-4.46l.97-.47.07-1.37c.04-.75.06-1.56.04-1.8l-.04-.43-1.68.75c-.92.41-1.72.79-1.77.84-.08.07-.52,3.23-.52,3.71,0,.12,1.07-.33,2.93-1.24h0Zm69.57-2.29l.37-.05-.13-1.46c-.07-.8-.13-1.61-.13-1.8v-.33h-4.99v3.83l2.25-.07c1.24-.04,2.42-.09,2.62-.12h0Zm-70.64-3.82l2.13-.69.07-2.41c.04-1.33.06-2.43.03-2.45-.02-.02-.84.37-1.82.86l-1.78.9-.46,2.21c-.25,1.22-.46,2.22-.46,2.24,0,.07.3-.02,2.28-.66h0Zm71.81-4.82c.23-.48.42-.89.42-.91s-.6-.07-1.34-.11c-1.3-.07-1.35-.07-1.61.17-.32.28-1.11,1.43-1.03,1.5.06.06,1.62.19,2.53.21l.62.02.42-.88Zm-48.33-.46c.75-.4,1.46-.72,1.57-.72s.95.12,1.85.26c.9.14,1.69.26,1.75.26.07,0,.11-.28.11-.72v-.72l-.34-.06c-.19-.03-1.2-.19-2.24-.35l-1.9-.29-1.23.98c-.68.54-1.25,1.02-1.27,1.08-.04.11.2,1.01.27,1.01.03,0,.66-.32,1.41-.72h0Zm-.33-4.21c.9-.51,1.74-.94,1.85-.93.12,0,.84.07,1.6.15.76.08,1.52.15,1.68.15h.31s-.07-.54-.07-.54c-.04-.3-.09-.55-.1-.57-.02-.01-1.08-.18-2.36-.36l-2.33-.33-1.53,1.08-1.53,1.08.03.4c.02.22.06.58.09.79l.06.39.33-.2c.18-.11,1.07-.62,1.97-1.13h0Zm49.99.65c.93-.09,1.71-.18,1.73-.21.05-.05.22-3.98.17-4.03-.03-.03-3.24.33-4.01.45l-.4.06v.63c0,.35.03,1.22.07,1.95l.07,1.31h.34c.18,0,1.1-.07,2.02-.16h0Zm-62.17-.95c1.7-1.06,4.49-3.26,10.44-8.2,1.8-1.49,2.3-1.85,3.31-2.37l1.19-.61,1.62.18c2.44.28,5.16.74,5.7.98.26.11,1.91.6,3.66,1.09,1.75.48,3.56.99,4.03,1.13,1.18.34,3.44.61,4.64.55.79-.04,1.32-.16,2.93-.64,2.62-.8,3-.87,4.61-.87.76,0,1.43-.04,1.5-.08.07-.04.15-.21.18-.38.08-.37.32-7.25.26-7.31-.03-.02-1.04-.21-2.26-.41-8.95-1.48-10.65-1.73-14.48-2.16l-4.17-.47-5.56.12-5.56.12-2.02.85c-1.11.47-2.95,1.25-4.09,1.74l-2.07.89-3.25,3.47c-3.49,3.72-4.68,5.04-4.85,5.36-.1.19,0,1.5.16,1.98.03.1.38.36.77.59,1.21.71,1.39.9,1.51,1.61.06.34.13,1.27.17,2.06.07,1.61.09,1.74.28,1.63.07-.04.68-.42,1.35-.84h0Zm65.15-6.48c-.03-.1-.25-1.08-.49-2.19-.24-1.1-.45-2.05-.47-2.11-.03-.1-5.3.26-5.4.37-.07.07.11,3.8.19,3.88.04.04,1.35.1,2.91.13,1.55.03,2.94.06,3.07.08.19.02.23-.02.19-.16h0Zm-45.99-18.21c3.41-1.51,6.22-2.8,6.24-2.86.03-.06-1.01-1.85-2.29-3.97l-2.34-3.86v-6.84l-.29.06c-.16.03-2.72.48-5.69.99s-5.4.94-5.41.95c-.06.26-2.08,3.98-3.05,5.63l-1.3,2.21v8.1l3.87,1.16c2.13.64,3.91,1.16,3.97,1.17.05,0,2.89-1.23,6.29-2.74h0Zm27.41-.96c.55-.56.95-1.06,1-1.25.05-.19.03-.78-.05-1.41-.07-.6-.13-1.42-.14-1.83,0-.87-.17-1.12-1.21-1.81l-.65-.43-2.49-.03-2.49-.03-1.22.43-1.22.43-.51.66c-.73.95-.77,1.08-.62,1.72.07.3.24.78.38,1.07.22.46.38.61,1.3,1.2,1.46.95,2.2,1.25,3.91,1.61.82.17,1.75.38,2.07.46.97.24.96.24,1.95-.77h0Zm-30.19-16.16c4.08-.57,7.44-1.06,7.45-1.07.02-.02-.02-.94-.09-2.06l-.13-2.04-1.36-3.14c-1.19-2.76-1.39-3.15-1.61-3.17-.33-.04-9.86,1.29-9.96,1.39-.04.04-.51.79-1.05,1.67l-.97,1.59.06,2.52c.03,1.39.06,3.16.06,3.94,0,.78.04,1.42.08,1.42.04,0,3.42-.47,7.5-1.04h0Z"/>
    <path id="path2557" class="cls-4" d="m42.18,121.4l4.65-3.42,5.55-1.09,14.02-.87,9.14-.15,14.02.36,8.39.44,4.87,1.67,2.02,1.31.9,2.4-62.28,1.31-1.27-1.96Z"/>
    <path id="path2559" class="cls-4" d="m43.68,118.93l.45-7.78s4.12-3.2,4.87-3.56c.75-.36,7.42-2.18,7.42-2.18l10.94-.65,12.52.15s4.87.29,6.3.65c1.42.36,6.07,1.24,6.82,1.53.75.29,2.92,1.6,2.92,1.6l1.95,6.62-35.9-.15-12.82,1.6-5.47,2.18Z"/>
  </g>
  <g id="layer2">
    <path id="path2566" class="cls-4" d="m44.52,57.45l-2.44-.05-3.71,2.88-1.27,3.4.16,1.75s1.01.67,1.43.67,2.01,0,2.65-.41c.64-.41,2.81-1.75,3.18-2.37.37-.62,1.64-1.85,1.64-2.11s-.58-1.18-.69-1.85c-.11-.67-.95-1.9-.95-1.9h0Z"/>
    <path id="path2568" class="cls-4" d="m61.69,53.9l-1.22,3.4s.74.87.95.87,3.39,1.34,3.39,1.34c0,0,1.59.21,2.49.21s2.6,0,3.92-.21c1.32-.21,3.23-.87,3.44-.93.21-.05,1.06-.26,1.06-.67s-.16-1.65-.42-1.95c-.26-.31-.32-1.03-.79-1.29-.48-.26-2.07-.82-2.54-.82s-6.52-.21-6.52-.21l-3.76.26Z"/>
    <path id="path2570" class="cls-1" d="m33.44,77.71l4.03-2.06,2.97,26.96-3.92,1.54-3.07-26.44Z"/>
    <path id="path2572" class="cls-1" d="m72.24,67.93c.45-.29,4.72-1.96,4.72-1.96l1.65,28.01s-5.02.8-5.25.44c-.22-.36-1.8-25.9-1.8-25.9l.67-.58Z"/>
    <path id="path2574" class="cls-1" d="m36.71,103.87l-4.27,13.97s.75.07,1.42-.29c.67-.36,2.85-1.82,2.85-1.82l1.05-.87,2.7-8.95-.07-3.35-3.67,1.31Z"/>
    <path id="path2576" class="cls-1" d="m78.46,93.68l3.9,1.16,3.67,2.26,7.2,5.09,3.82,4.22-4.65.73-4.72-4.29-6.82-4.58-4.42-2.69-2.77-1.6,4.8-.29Z"/>
  </g>
</svg>