<?xml version="1.0" encoding="UTF-8"?>
<svg id="svg5" xmlns="http://www.w3.org/2000/svg" width="254.37" height="130.17" viewBox="0 0 254.37 130.17">
  <defs>
    <style>
      .cls-1 {
        fill: #fff;
        stroke-width: 0px;
      }
    </style>
  </defs>
  <g id="layer1">
    <path id="path788" class="cls-1" d="m58.79,49.22c-1.49-.89-22.62-9.27-22.62-9.27l-5.21-16.76,31.55-9.81.74-1.6,15.18-1.96.15-2.32,1.49-.53s.15-1.78.74-2.14c.6-.36,1.79-1.78,2.38-1.78h10.57l.45-2.85,5.66-.18-.15,3.74-.6.53,1.93,1.6,4.17,1.43v3.21l6.85-1.43,8.04-.71s6.4,5.88,8.19,6.06c1.79.18,12.5,6.24,12.5,6.24l13.69,1.43,99.57,2.14.3,8.74-4.17.71-.15,1.6s-51.65,4.99-52.24,4.81,1.93-4.1,1.93-4.1l-.3-3.21h-1.93l.74,3.21s-3.27,4.99-3.87,5.17c-.6.18-41.23,5.35-41.23,5.35l-6.55,4.99-88.56.71v-2.5l.74-.53Z"/>
    <path id="path790" class="cls-1" d="m20.24,57.06l-6.25,6.6-2.83,6.06h-3.13l-4.61,1.07-.74.71-2.53,2.85,10.42,29.24,31.85,3.21,2.68-3.57v-7.49l11.01,17.47,1.04,1.78,55.67,3.74,16.07-19.26,10.12-5.71,26.49-2.67-10.42-15.34-29.92-14.62-63.55-1.6-5.21-2.67-1.64-1.78-34.53,1.96Z"/>
    <path id="path792" class="cls-1" d="m196.62,59.91l41.97,17.3,10.12,14.8s-21.28-1.43-22.33-1.25-11.91,9.45-11.91,9.45l-7.59,20.33-24.26-5.17,10.12-11.41-32,2.67s-1.04-1.6-.3-1.78,1.79-.53,1.79-.53l.74-6.6-2.53-6.42s-16.97-19.79-17.71-20.15c-.74-.36-18.01-10.34-18.01-10.34,0,0,4.02-6.6,4.91-6.6s11.01,1.25,11.01,1.25c0,0,4.91.71,5.8.89.89.18,8.04.18,8.04.18l5.51-2.14,10.72-.53,8.78.53.89,1.78.15,2.67,3.42-.36,8.19-.71,4.47,2.14Z"/>
    <path id="path794" class="cls-1" d="m59.24,52.78l-1.34,3.92,3.72,1.6s56.56,1.78,57.15,1.78,5.21-.71,5.21-.71l4.76-5.35.3-2.14-69.81.89Z"/>
    <path id="path796" class="cls-1" d="m0,80.06l.6,7.13,11.01,28.35,3.27,3.57,58.35,8.02,37.95,3.03,30.36-.71,9.38-6.24,9.23-14.09,2.23-10.88-1.19-3.74-22.18.53-2.53,9.63-7.89,12.13-15.93,9.09s-5.36,2.32-6.1,2.32-59.39-6.78-59.39-6.78l-26.2-2.67-5.36-2.67s-4.32-8.74-4.61-9.63c-.3-.89-11.01-26.39-11.01-26.39h0Z"/>
    <path id="path798" class="cls-1" d="m156.28,117.15l41.08,7.13s6.25,1.25,7,.89c.74-.36,12.06-9.99,12.8-9.99s9.08-16.05,9.08-16.05l.74-4.64h18.46l-.45,6.06-1.49.36v4.28l-2.23,5.17s-1.04-.36-1.49.36c-.45.71-1.49,5.35-1.49,5.35l-4.32,4.46s-3.42,5.17-4.61,4.99c-1.19-.18-28.58,2.32-29.62,2.32s-45.4-9.09-45.4-9.09l1.93-1.6Z"/>
    <path id="path800" class="cls-1" d="m157.92,115.55l3.13-4.99,23.81-2.5-7.29,7.13-19.65.36Z"/>
  </g>
</svg>