<?xml version="1.0" encoding="UTF-8" standalone="no"?>
<!-- Created with Inkscape (http://www.inkscape.org/) -->

<svg
   width="59.450714mm"
   height="29.602861mm"
   viewBox="0 0 59.450714 29.602861"
   version="1.1"
   id="svg2706"
   xml:space="preserve"
   inkscape:version="1.2.1 (9c6d41e410, 2022-07-14)"
   sodipodi:docname="CATArtillery.svg"
   xmlns:inkscape="http://www.inkscape.org/namespaces/inkscape"
   xmlns:sodipodi="http://sodipodi.sourceforge.net/DTD/sodipodi-0.dtd"
   xmlns="http://www.w3.org/2000/svg"
   xmlns:svg="http://www.w3.org/2000/svg"><sodipodi:namedview
     id="namedview2708"
     pagecolor="#505050"
     bordercolor="#ffffff"
     borderopacity="1"
     inkscape:showpageshadow="0"
     inkscape:pageopacity="0"
     inkscape:pagecheckerboard="1"
     inkscape:deskcolor="#505050"
     inkscape:document-units="mm"
     showgrid="false"
     inkscape:zoom="2.8649832"
     inkscape:cx="176.61535"
     inkscape:cy="27.748854"
     inkscape:window-width="1920"
     inkscape:window-height="991"
     inkscape:window-x="-9"
     inkscape:window-y="-9"
     inkscape:window-maximized="1"
     inkscape:current-layer="layer4" /><defs
     id="defs2703" /><g
     inkscape:groupmode="layer"
     id="layer4"
     inkscape:label="Layer 2"
     transform="translate(-81.404151,-135.58999)"><path
       style="fill:#ffffff;stroke:#000000;stroke-width:0.195633px;stroke-linecap:butt;stroke-linejoin:miter;stroke-opacity:1"
       d="m 89.069621,145.35916 -1.464052,2.34403 0.06365,1.09876 0.381926,1.46503 c 0,0 -0.381926,1.09877 0.127309,1.09877 0.509237,0 5.728903,0.586 5.728903,0.586 l 12.858203,-2.49053 c 0,0 0.38193,0 0.7002,-0.36626 0.31827,-0.36626 0.50924,-0.43951 0.50924,-0.43951 l 0.76386,0.51277 7.19295,-2.27079 v -0.87901 l 0.57288,-0.36626 1.52771,0.87901 7.51123,-1.83128 0.76386,-0.95226 6.87468,-1.75802 1.27309,0.51275 5.60159,-1.24527 0.7002,-1.02551 v -0.80576 -0.80577 c 0,0 -0.0636,-0.73251 -0.19096,-1.02551 -0.12731,-0.29301 -0.95482,-1.68478 -0.95482,-1.68478 l -0.82751,-0.21975 -5.53794,0.95226 -0.95481,0.80576 -7.19296,1.68478 -1.27309,-1.02552 -7.38392,1.53828 -0.82751,1.46502 h -2.16425 l -9.42086,1.09877 z"
       id="path3207" /></g><g
     inkscape:label="Layer 1"
     inkscape:groupmode="layer"
     id="layer1"
     transform="translate(-81.404151,-135.58999)"><path
       style="fill:#ffffff;stroke:#000000;stroke-width:0.175667px;stroke-linecap:butt;stroke-linejoin:miter;stroke-opacity:1"
       d="m 82.169451,158.67686 0.8144,-1.47084 0.826222,-1.07672 0.974129,-1.87012 c 0,0 4.50563,-0.52961 4.787604,-0.66957 0.281974,-0.13994 0.627094,-1.99118 0.627094,-1.99118 l 8.814047,-0.001 5.154343,0.1084 0.0158,0.52549 13.7239,-0.41162 c 0,0 -0.50283,0.40956 -0.10255,0.39756 0.40028,-0.012 5.56251,0.35913 5.56251,0.35913 l 0.75914,0.50321 0.0887,1.04928 1.9521,0.20443 0.11427,3.80986 0.26601,6.96112 -45.054182,-0.3581 0.03162,-2.76229 0.528486,-1.46227 z"
       id="path2839" /><path
       style="fill:#ffffff;stroke:#000000;stroke-width:0.264583px;stroke-linecap:butt;stroke-linejoin:miter;stroke-opacity:1"
       d="m 96.783582,153.30224 0.554104,-2.58582 c 0,0 1.20056,-1.47762 1.20056,-2.12407 0,-0.64646 0.27705,-2.67817 0.461753,-3.23228 0.184701,-0.5541 1.939361,-1.75466 1.939361,-1.75466 h 2.30877 l 1.29291,0.46175 1.66232,1.01586 2.49347,2.49347 v 1.38526 l -0.64646,2.30877 h -5.72574 l -1.84702,2.12407 z"
       id="path3204" /></g></svg>
