<?xml version="1.0" encoding="UTF-8" standalone="no"?>
<!-- Created with Inkscape (http://www.inkscape.org/) -->

<svg
   width="33.072914mm"
   height="15.141013mm"
   viewBox="0 0 33.072914 15.141013"
   version="1.1"
   id="svg5513"
   xml:space="preserve"
   inkscape:version="1.2.1 (9c6d41e410, 2022-07-14)"
   sodipodi:docname="CATGauss.svg"
   xmlns:inkscape="http://www.inkscape.org/namespaces/inkscape"
   xmlns:sodipodi="http://sodipodi.sourceforge.net/DTD/sodipodi-0.dtd"
   xmlns="http://www.w3.org/2000/svg"
   xmlns:svg="http://www.w3.org/2000/svg"><sodipodi:namedview
     id="namedview5515"
     pagecolor="#505050"
     bordercolor="#ffffff"
     borderopacity="1"
     inkscape:showpageshadow="0"
     inkscape:pageopacity="0"
     inkscape:pagecheckerboard="1"
     inkscape:deskcolor="#505050"
     inkscape:document-units="mm"
     showgrid="false"
     inkscape:zoom="2.8649832"
     inkscape:cx="94.939476"
     inkscape:cy="50.785639"
     inkscape:window-width="1920"
     inkscape:window-height="991"
     inkscape:window-x="-9"
     inkscape:window-y="-9"
     inkscape:window-maximized="1"
     inkscape:current-layer="layer1" /><defs
     id="defs5510" /><g
     inkscape:label="Layer 1"
     inkscape:groupmode="layer"
     id="layer1"
     style="display:inline"
     transform="translate(-80.516083,-114.39253)"><path
       style="display:inline;fill:#ffffff;stroke:#000000;stroke-width:0.124916px;stroke-linecap:butt;stroke-linejoin:miter;stroke-opacity:1"
       d="m 82.554333,114.56657 20.791947,3.01225 1.83355,-0.4126 6.71043,1.58587 0.79296,1.12794 -0.48551,2.3301 -0.8396,0.388 2.07442,2.51921 0.0831,0.8854 -0.18403,0.60129 -0.63055,-0.12976 -0.22983,0.29641 -0.4181,1.0355 -0.82347,1.65757 -3.31981,-0.59871 c 0,0 -2.38778,-2.19779 -2.7092,-2.51115 -0.32143,-0.31337 -1.26874,-1.80471 -1.26874,-1.80471 l 0.43888,-0.81416 -0.42574,-0.50969 -0.0874,-0.74758 -1.15212,-1.1114 -21.113373,-3.32562 0.764539,-0.63861 0.380359,-0.7056 0.0547,-0.88116 -0.24595,-0.97317 z"
       id="path5648" /><path
       style="display:inline;fill:#ffffff;stroke:#000000;stroke-width:0.124916px;stroke-linecap:butt;stroke-linejoin:miter;stroke-opacity:1"
       d="m 82.601296,114.60939 -0.898859,-0.1518 c 0,0 -0.364462,0.18881 -0.42086,0.22846 -0.05639,0.0397 -0.54637,0.72119 -0.54637,0.72119 l -0.15519,1.45742 0.226334,0.48977 0.269267,0.21519 0.396585,0.33637 0.239041,0.0763 0.685138,-0.5238 0.195374,-0.29747 0.156789,-0.38831 0.06074,-0.40507 0.01282,-0.64104 -0.115657,-0.50015 -0.134426,-0.56281 -0.0093,-0.14512 z"
       id="path6013" /></g><ellipse
     style="display:inline;fill:#000000;stroke:#ffffff;stroke-width:0.141637;stroke-linejoin:bevel;stroke-dasharray:none;stroke-dashoffset:28.2467"
     id="path6199-6"
     cx="7.9002361"
     cy="-0.1463944"
     rx="0.31610635"
     ry="0.45780918"
     transform="rotate(28.327107)" /><ellipse
     style="display:inline;fill:#000000;stroke:#ffffff;stroke-width:0.141637;stroke-linejoin:bevel;stroke-dasharray:none;stroke-dashoffset:28.2467"
     id="path6199-0"
     cx="9.6878796"
     cy="-0.80040139"
     rx="0.31610635"
     ry="0.45780918"
     transform="rotate(28.327107)" /><g
     inkscape:groupmode="layer"
     id="layer7"
     inkscape:label="Layer 2"
     style="display:inline"
     transform="translate(-80.516083,-114.39253)"><ellipse
       style="fill:#000000;stroke:#ffffff;stroke-width:0.141637;stroke-linejoin:bevel;stroke-dasharray:none;stroke-dashoffset:28.2467"
       id="path6016"
       cx="127.05725"
       cy="63.43008"
       rx="0.93224657"
       ry="1.0412488"
       transform="rotate(28.327107)" /><ellipse
       style="display:inline;fill:#000000;stroke:#ffffff;stroke-width:0.141637;stroke-linejoin:bevel;stroke-dasharray:none;stroke-dashoffset:28.2467"
       id="path6070"
       cx="131.56316"
       cy="60.565247"
       rx="0.55494851"
       ry="0.27747425"
       transform="rotate(28.327107)" /><ellipse
       style="display:inline;fill:#000000;stroke:#ffffff;stroke-width:0.141637;stroke-linejoin:bevel;stroke-dasharray:none;stroke-dashoffset:28.2467"
       id="path6199-7"
       cx="131.11432"
       cy="62.974922"
       rx="0.31610635"
       ry="0.45780918"
       transform="rotate(28.327107)" /><ellipse
       style="display:inline;fill:#000000;stroke:#ffffff;stroke-width:0.141637;stroke-linejoin:bevel;stroke-dasharray:none;stroke-dashoffset:28.2467"
       id="path6070-4"
       cx="129.54469"
       cy="61.318081"
       rx="0.55494851"
       ry="0.27747425"
       transform="rotate(28.327107)" /><ellipse
       style="display:inline;fill:#000000;stroke:#ffffff;stroke-width:0.141637;stroke-linejoin:bevel;stroke-dasharray:none;stroke-dashoffset:28.2467"
       id="path6070-2"
       cx="133.75217"
       cy="59.922859"
       rx="0.55494851"
       ry="0.27747425"
       transform="rotate(28.327107)" /><ellipse
       style="fill:#000000;stroke:#ffffff;stroke-width:0.141637;stroke-linejoin:bevel;stroke-dasharray:none;stroke-dashoffset:28.2467"
       id="path6199"
       cx="129.29398"
       cy="63.65073"
       rx="0.31610635"
       ry="0.45780918"
       transform="rotate(28.327107)" /><path
       style="fill:#ffffff;stroke:#000000;stroke-width:0.124916px;stroke-linecap:butt;stroke-linejoin:miter;stroke-opacity:1"
       d="m 103.05504,117.80689 c 0.0495,-0.0229 2.10436,-0.71072 2.10436,-0.71072 l 0.27826,0.14999 -0.15674,0.49752 -0.89135,0.59684 c 0,0 -0.45621,-0.0726 -0.50494,-0.0741 -0.0487,-10e-4 -0.73004,-0.20779 -0.73004,-0.20779 z"
       id="path6252" /><path
       style="fill:#ffffff;stroke:#000000;stroke-width:0.124916px;stroke-linecap:butt;stroke-linejoin:miter;stroke-opacity:1"
       d="m 105.24688,117.8987 c -0.0214,0.0627 -0.15973,0.59496 -0.15973,0.59496 l -0.71235,-0.14872 0.82636,-0.54519 0.0324,0.21558 -0.0273,-0.0642 z"
       id="path6254" /><path
       style="fill:#ffffff;stroke:#000000;stroke-width:0.124916px;stroke-linecap:butt;stroke-linejoin:miter;stroke-opacity:1"
       d="m 105.42956,117.19227 c 0,0 0.16169,-0.0243 0.20007,-0.004 0.0383,0.0207 0.0206,0.12256 0.23762,0.20239 0.21702,0.0798 1.61225,0.22517 1.61225,0.22517 0,0 0.20014,-0.16454 0.223,-0.11507 0.0229,0.0495 0.10398,0.26656 0.11057,0.36918 0.007,0.10263 -0.30875,0.36604 -0.30875,0.36604 0,0 -0.1617,0.0243 -0.19857,-0.0451 -0.0369,-0.0694 0.0864,-0.11438 -0.11732,-0.14993 -0.20374,-0.0355 -1.49186,-0.33363 -1.56127,-0.29675 -0.0694,0.0369 -0.1817,0.19924 -0.1817,0.19924 l -0.13951,-0.0628 -0.0428,-0.0355 z"
       id="path6256" /><path
       style="fill:#ffffff;stroke:#000000;stroke-width:0.124916px;stroke-linecap:butt;stroke-linejoin:miter;stroke-opacity:1"
       d="m 107.73496,117.55582 1.78129,0.27914 c 0,0 0.19482,0.16693 0.23537,0.27548 0.0406,0.10853 -0.12636,0.30337 -0.16182,0.34617 -0.0355,0.0428 -0.1418,0.17122 -0.29242,0.15194 -0.1506,-0.0193 -0.38755,-0.0851 -0.62525,-0.12652 -0.23769,-0.0415 -0.95004,-0.19017 -1.0187,-0.17765 -0.0687,0.0126 -0.20817,-0.0503 -0.20817,-0.0503 l 0.24002,-0.19257 0.10345,-0.19191 z"
       id="path6258" /><path
       style="fill:#ffffff;stroke:#000000;stroke-width:0.124916px;stroke-linecap:butt;stroke-linejoin:miter;stroke-opacity:1"
       d="m 109.09712,119.41796 1.23522,-0.24479 0.64316,-0.0561 c 0,0 0.61592,0.15689 0.75162,0.23003 0.13569,0.0731 0.91857,0.40761 0.91857,0.40761 0,0 0.23683,0.37283 0.20757,0.42711 -0.0293,0.0543 -0.48881,0.41949 -0.48881,0.41949 0,0 -0.50111,-0.0775 -0.59821,-0.0598 -0.0971,0.0177 -0.45002,0.0551 -0.55337,0.052 -0.10335,-0.003 -0.70465,-0.18721 -0.99067,-0.30637 -0.28601,-0.11915 -0.88306,-0.44099 -0.99161,-0.49951 -0.10856,-0.0585 -0.19401,-0.4198 -0.19401,-0.4198 z"
       id="path6986" /><path
       style="fill:#ffffff;stroke:#000000;stroke-width:0.124916px;stroke-linecap:butt;stroke-linejoin:miter;stroke-opacity:1"
       d="m 107.70111,122.14406 0.5721,0.11027 1.66458,2.01177 0.0552,0.426 -0.49068,1.0481 -0.39789,-0.0659 -1.87275,-2.06207 c 0,0 -0.0626,-0.34333 -0.0419,-0.3817 0.0207,-0.0384 0.001,-0.0487 0.001,-0.0487 z"
       id="path6988" /><path
       style="fill:#ffffff;stroke:#000000;stroke-width:0.124916px;stroke-linecap:butt;stroke-linejoin:miter;stroke-opacity:1"
       d="m 108.25844,122.25875 c 0.10703,0.008 3.00524,0.44359 3.00524,0.44359 l 2.00347,1.93442 0.20269,0.70364 -3.4289,-0.62244 -0.0876,-0.48065 -1.63063,-2.00585 0.0768,0.0414 -0.0539,0.008 0.0318,-0.0819 z"
       id="path6990" /><path
       style="fill:#ffffff;stroke:#000000;stroke-width:0.124916px;stroke-linecap:butt;stroke-linejoin:miter;stroke-opacity:1"
       d="m 109.47274,125.74904 3.11438,0.70056 0.63417,-0.005 0.30523,-0.72703 -4.7e-4,-0.29753 -0.0657,-0.0849 -3.38536,-0.61136 -0.12848,0.0546 z"
       id="path6992" /><path
       style="fill:#ffffff;stroke:#000000;stroke-width:0.124916px;stroke-linecap:butt;stroke-linejoin:miter;stroke-opacity:1"
       d="m 107.28254,123.70159 c -0.0355,0.0428 -0.35216,0.0331 -0.35216,0.0331 l -0.57847,0.88933 0.095,0.5589 c 0,0 1.80634,2.00151 1.89269,2.04806 0.0863,0.0465 0.36468,0.0356 0.36468,0.0356 l 0.52756,-0.97868 -0.13778,-0.59436 z"
       id="path6994" /><path
       style="fill:#ffffff;stroke:#000000;stroke-width:0.124916px;stroke-linecap:butt;stroke-linejoin:miter;stroke-opacity:1"
       d="m 112.56718,126.46362 c -0.0487,-0.001 0.0279,0.36176 0.0279,0.36176 l -0.53791,0.99787 -3.33371,-0.54636 0.50468,-1.02817 -0.1533,-0.56558 2.29649,0.49495 z"
       id="path6996" /><path
       style="fill:#ffffff;stroke:#000000;stroke-width:0.124916px;stroke-linecap:butt;stroke-linejoin:miter;stroke-opacity:1"
       d="m 108.33516,127.21617 0.13777,0.59436 -0.55119,0.95356 -0.46363,0.0101 -1.82769,-2.0997 -0.11934,-0.55966 0.58363,-0.89893 0.42593,0.10577 1.84178,1.9587 z"
       id="path6998" /><path
       style="fill:#ffffff;stroke:#000000;stroke-width:0.124916px;stroke-linecap:butt;stroke-linejoin:miter;stroke-opacity:1"
       d="m 108.36244,127.28041 3.40905,0.47553 -0.0431,0.6083 -0.4921,0.93589 -3.21415,-0.46954 -0.10555,-0.0569 0.60065,-0.97643 -0.19759,-0.55231 0.0169,0.0834 z"
       id="path7000" /></g></svg>
