<?xml version="1.0" encoding="UTF-8" standalone="no"?>
<!-- Created with Inkscape (http://www.inkscape.org/) -->

<svg
   width="210mm"
   height="297mm"
   viewBox="0 0 210 297"
   version="1.1"
   id="svg5"
   inkscape:version="1.2.1 (9c6d41e410, 2022-07-14)"
   sodipodi:docname="CATPPC.svg"
   xmlns:inkscape="http://www.inkscape.org/namespaces/inkscape"
   xmlns:sodipodi="http://sodipodi.sourceforge.net/DTD/sodipodi-0.dtd"
   xmlns="http://www.w3.org/2000/svg"
   xmlns:svg="http://www.w3.org/2000/svg">
  <sodipodi:namedview
     id="namedview7"
     pagecolor="#505050"
     bordercolor="#ffffff"
     borderopacity="1"
     inkscape:showpageshadow="0"
     inkscape:pageopacity="0"
     inkscape:pagecheckerboard="1"
     inkscape:deskcolor="#505050"
     inkscape:document-units="mm"
     showgrid="false"
     inkscape:zoom="2"
     inkscape:cx="415"
     inkscape:cy="472.75"
     inkscape:window-width="1920"
     inkscape:window-height="991"
     inkscape:window-x="-9"
     inkscape:window-y="-9"
     inkscape:window-maximized="1"
     inkscape:current-layer="layer3" />
  <defs
     id="defs2">
    <pattern
       id="EMFhbasepattern"
       patternUnits="userSpaceOnUse"
       width="6"
       height="6"
       x="0"
       y="0" />
  </defs>
  <g
     inkscape:groupmode="layer"
     id="layer3"
     inkscape:label="Layer 3">
    <path
       style="fill:#ffffff;stroke:#000000;stroke-width:0.296429px;stroke-linecap:butt;stroke-linejoin:miter;stroke-opacity:1"
       d="m 99.563795,117.06164 -3.261326,-2.07119 -1.134541,2.43183 -1.337803,-4.41281 -2.832462,1.34678 -0.548816,-4.32261 -6.828342,0.69516 1.58543,-3.24339 c 0,0 -11.384034,-2.16433 -10.445926,-2.78101 0.938109,-0.61668 5.163142,-2.08271 5.163142,-2.08271 l -3.130382,-3.281263 -3.385152,1.756933 1.08365,-2.632544 26.127003,17.575794 z"
       id="path2654" />
    <path
       style="fill:#ffffff;stroke:#000000;stroke-width:0.296429px;stroke-linecap:butt;stroke-linejoin:miter;stroke-opacity:1"
       d="m 102.00588,113.25035 -3.249701,-2.08939 1.730161,-2.05123 -4.566526,0.63992 0.03217,-3.13618 -4.153197,1.318 -2.237913,-6.48855 -2.277195,2.80135 c 0,0 -6.746762,-9.421342 -6.912257,-8.310957 -0.165496,1.110384 0.279168,5.560377 0.279168,5.560377 l -4.292786,-1.46218 0.172178,-3.810045 -1.933681,2.089371 26.926026,16.325374 z"
       id="path2654-4" />
  </g>
  <ellipse
     style="fill:#ffffff;stroke:#000000;stroke-width:0.29283;stroke-linejoin:bevel;stroke-dashoffset:28.2467"
     id="path2643"
     cx="132.49028"
     cy="42.787067"
     rx="19.580221"
     ry="1.6552006"
     transform="matrix(0.84364284,0.5369048,-0.53242085,0.84647979,0,0)" />
  <g
     inkscape:groupmode="layer"
     id="layer2"
     inkscape:label="Layer 2" />
  <ellipse
     style="fill:#ffffff;stroke:#000000;stroke-width:0.691999;stroke-linejoin:bevel;stroke-dashoffset:28.2467"
     id="path2641"
     cx="157.93135"
     cy="42.078739"
     rx="12.898438"
     ry="6.5484376"
     transform="rotate(32.578796)" />
  <g
     inkscape:label="Layer 1"
     inkscape:groupmode="layer"
     id="layer1" />
</svg>
