<?xml version="1.0" encoding="UTF-8" standalone="no"?>
<!-- Created with Inkscape (http://www.inkscape.org/) -->

<svg
   width="26.458334mm"
   height="28.794224mm"
   viewBox="0 0 26.458334 28.794224"
   version="1.1"
   id="svg5"
   xml:space="preserve"
   inkscape:version="1.2.1 (9c6d41e410, 2022-07-14)"
   sodipodi:docname="GN.svg"
   xmlns:inkscape="http://www.inkscape.org/namespaces/inkscape"
   xmlns:sodipodi="http://sodipodi.sourceforge.net/DTD/sodipodi-0.dtd"
   xmlns="http://www.w3.org/2000/svg"
   xmlns:svg="http://www.w3.org/2000/svg"><sodipodi:namedview
     id="namedview7"
     pagecolor="#ffffff"
     bordercolor="#000000"
     borderopacity="0.25"
     inkscape:showpageshadow="2"
     inkscape:pageopacity="0.0"
     inkscape:pagecheckerboard="true"
     inkscape:deskcolor="#d1d1d1"
     inkscape:document-units="mm"
     showgrid="false"
     inkscape:zoom="5.1754899"
     inkscape:cx="7.8253462"
     inkscape:cy="67.43323"
     inkscape:window-width="5120"
     inkscape:window-height="1377"
     inkscape:window-x="-8"
     inkscape:window-y="-8"
     inkscape:window-maximized="1"
     inkscape:current-layer="layer1" /><defs
     id="defs2" /><g
     inkscape:label="Layer 1"
     inkscape:groupmode="layer"
     id="layer1"
     transform="translate(-81.911439,-111.69197)"><g
       id="g1999"
       transform="matrix(0.25252817,0,0,0.25252817,69.362225,93.152597)"
       style="stroke-width:1.57160684;stroke-dasharray:none"><path
         style="fill:#ffffff;stroke-width:1.57160684;stroke-dasharray:none"
         d="m 62.93537,118.13486 -1.048321,1.73515 -0.939874,2.24123 -0.542235,1.62671 -0.253042,1.66285 -0.361489,2.53043 -0.144598,1.699 -0.03615,4.22943 0.578384,3.97639 1.048319,3.21726 1.156766,2.74732 1.301364,1.7713 2.024343,2.34969 4.084836,3.14495 3.470301,1.40982 3.578749,0.79527 2.78347,0.36149 2.964217,0.0361 3.470301,-0.39764 3.072665,-0.65068 2.747322,-1.01217 2.49428,-1.15677 1.012171,-0.57838 0.28919,-1.15677 -0.03615,-18.39983 -0.650682,-1.12062 -1.048321,-0.32534 -14.85723,-0.0361 -0.506084,0.54223 -0.289192,0.65068 c 0,0 0.03615,0.93988 0,1.08447 -0.03615,0.1446 0.03615,1.44596 0.03615,1.44596 l 0.361489,0.65068 0.180745,0.32534 10.844691,0.0361 0.144598,13.01363 -2.566578,1.01217 -2.421982,0.61454 -3.723344,0.25304 -3.108812,-0.21689 -3.687196,-1.22907 -2.891917,-1.8436 -2.675025,-2.89192 -1.879748,-3.94023 -0.759129,-2.71118 -0.506084,-6.00073 0.614531,-4.04868 1.337514,-4.01254 1.482109,-2.53043 2.277385,-2.45813 1.73515,-1.44596 3.21726,-1.37366 3.614896,-0.75913 4.012538,-0.0362 3.867939,0.86758 3.108812,1.22906 2.964217,1.69901 0.578384,0.28919 0.469937,0.10844 0.397637,-0.25304 0.506087,-0.90372 -0.108447,-2.53043 -0.253042,-1.04832 -1.265214,-1.37366 -4.916263,-2.13279 -5.350047,-0.90373 -4.880112,-0.0723 -5.856134,1.40981 -4.98856,2.60272 -4.265578,4.19328 -2.13279,3.83179 z"
         id="path356" /><path
         style="fill:#ffffff;stroke-width:1.57160684;stroke-dasharray:none"
         d="m 106.94801,152.75365 v -43.14728 l 1.32918,-1.12469 6.13468,0.10224 20.75569,36.70587 -0.20449,-36.29689 0.61347,-0.40898 h 3.98754 l 1.02245,0.9202 0.10224,41.30688 -0.81795,1.53367 -1.1247,0.92021 -5.00999,-0.40898 -1.84041,-1.53367 -19.63099,-36.0924 0.30674,37.11484 -1.22694,1.02245 h -1.73816 z"
         id="path358" /><path
         style="fill:none;stroke:#ffffff;stroke-width:1.57160684;stroke-dasharray:none;stroke-opacity:1"
         d="M 52.054527,75.479065 H 152.40409 V 184.79357 H 55.524828 l -2.602725,-0.28919 -1.156769,0.28919 z"
         id="path360" /></g></g></svg>
