<?xml version="1.0" encoding="utf-8"?>
<!-- Generator: Adobe Illustrator 27.9.0, SVG Export Plug-In . SVG Version: 6.00 Build 0)  -->
<svg version="1.1"
	 id="svg982" xmlns:inkscape="http://www.inkscape.org/namespaces/inkscape" xmlns:sodipodi="http://sodipodi.sourceforge.net/DTD/sodipodi-0.dtd" xmlns:svg="http://www.w3.org/2000/svg" inkscape:export-filename="..\Equipment\CommandConsole.svg" inkscape:version="1.2.2 (732a01da63, 2022-12-09)"
	 xmlns="http://www.w3.org/2000/svg" xmlns:xlink="http://www.w3.org/1999/xlink" x="0px" y="0px" viewBox="0 0 137.6 128.6"
	 style="enable-background:new 0 0 137.6 128.6;" xml:space="preserve">
<style type="text/css">
	.st0{fill:#FFFFFF;}
</style>
<sodipodi:namedview  bordercolor="#000000" borderopacity="0.25" id="namedview984" inkscape:current-layer="layer1" inkscape:cx="-231.30791" inkscape:cy="124.60296" inkscape:deskcolor="#d1d1d1" inkscape:document-units="mm" inkscape:pagecheckerboard="0" inkscape:pageopacity="0.0" inkscape:showpageshadow="2" inkscape:window-height="1377" inkscape:window-maximized="1" inkscape:window-width="5120" inkscape:window-x="-8" inkscape:window-y="-8" inkscape:zoom="3.6596241" pagecolor="#ffffff" showgrid="false">
	</sodipodi:namedview>
<g id="layer1" transform="translate(-95.404021,-73.221084)" inkscape:groupmode="layer" inkscape:label="Layer 1">
</g>
<g id="layer3" transform="translate(-95.404021,-73.221084)" inkscape:groupmode="layer" inkscape:label="Layer 2">
	<path id="path760-1" class="st0" d="M162,172.6l0.1,3.8l-1.7,2.1l8,0.1l-1.7-1.7l-0.2-4.3L162,172.6z"/>
	<path id="path760-7" class="st0" d="M186.3,172.5l0.1,3.8l-1.7,2.1l8,0.1l-1.7-1.7l-0.2-4.3L186.3,172.5z"/>
	<path id="path748" class="st0" d="M132.9,150c-0.6-0.2-3.6-2-3.6-2.8c0-0.8-2.6-8.3-2.6-8.3s-1.7-4.9-1.7-5.5c0-0.6,0.5-9,0.5-9
		s0.9-3.8,1.4-5.2c0.5-1.4,2.2-7.1,2.2-7.1l3-5.5c0,0,3.6-4.3,4.2-4.6c0.6-0.3,3.9-4.9,4.8-5.1c0.9-0.2,4.5-2.8,4.5-2.8
		s1.9-0.8,3.1-1.4c1.2-0.6,5.6-1.8,6.5-2c0.9-0.2,9.7-1.2,9.7-1.2l7.2,0.9l10.6,2.9l5.3,3.7l4.2,3.4l3.9,4.3l3.9,6.1l2.8,6.9
		l0.8,7.5l0.3,6.9l-1.4,7.7l-2.2,5.1l-3.3,5.7l-64.4,0.3L132.9,150z"/>
	<path id="path750" class="st0" d="M132.6,152.8l0.2,19.2h61.1l2.6-11c0,0,0.5-8.6-0.3-8.6S132.6,152.8,132.6,152.8L132.6,152.8z"/>
	<path id="path752" class="st0" d="M195.5,161.1c0.6-0.2,16.5-0.3,16.5-0.3l0.2,23.5l-18.4,0.3l-0.2-18.1L195.5,161.1z"/>
	<path id="path754" class="st0" d="M118.4,159.2l-0.6,2l0.2,16.7l12.8,0.5l-0.5-17.3l-2.3-1.8L118.4,159.2z"/>
	<path id="path756" class="st0" d="M110.5,179.2c0,0-0.6,5.5,0.2,5.5c0.8,0,82.6-0.3,82.6-0.3l-0.6-5.7L110.5,179.2z"/>
	<path id="path760" class="st0" d="M138,172.4l0.1,3.8l-1.7,2.1l8,0.1l-1.7-1.7l-0.2-4.3L138,172.4z"/>
</g>
<g id="layer2" inkscape:groupmode="layer" inkscape:label="Layer 3">
	<path id="path813" d="M67.3,87.1l-0.9,1l0.4,4.1l21.6,0.2v-4.8l-1.5-1.4H67.7L67.3,87.1z"/>
	<path id="path815" d="M105.3,92l-2.3,0.1l-1.2,1.4l-0.1,2l1.4,1.2l2.6,0.3l0.9-1v-2.7L105.3,92z"/>
	<path id="path817" d="M109.8,92.2l4.7,0.2l0.3,4.5h-5.1L109.8,92.2z"/>
	<path id="path819" d="M24.4,97.8l-0.4,4.5l6.3,0.2l0.2-4.8L24.4,97.8z"/>
	<path id="path821" d="M37.6,84.4l7.9,0.3l-0.2,9.9l-7.6,0.2L37.6,84.4z"/>
	<path id="path823" d="M46.7,84.9v10l1.2,0.1V84.9L46.7,84.9z"/>
	<path id="path825" d="M55.7,84.7l0.2,10l4.1,0.2L59.9,85L55.7,84.7z"/>
	<path id="path823-7" d="M48.9,85v10l1.2,0.1V85L48.9,85z"/>
	<path id="path823-6" d="M51.2,84.9v10l1.2,0.1V84.9L51.2,84.9z"/>
	<path id="path823-9" d="M53.4,85v10l1.2,0.1V85L53.4,85z"/>
</g>
</svg>
