<?xml version="1.0" encoding="utf-8"?>
<!-- Generator: Adobe Illustrator 27.9.0, SVG Export Plug-In . SVG Version: 6.00 Build 0)  -->
<svg version="1.1"
	 id="svg982" xmlns:sodipodi="http://sodipodi.sourceforge.net/DTD/sodipodi-0.dtd" xmlns:inkscape="http://www.inkscape.org/namespaces/inkscape" xmlns:svg="http://www.w3.org/2000/svg" inkscape:export-filename="..\Equipment\CommandConsole.svg" inkscape:export-ydpi="96" sodipodi:docname="CommandConsole.svg"
	 xmlns="http://www.w3.org/2000/svg" xmlns:xlink="http://www.w3.org/1999/xlink" x="0px" y="0px" viewBox="0 0 137.6 128.6"
	 style="enable-background:new 0 0 137.6 128.6;" xml:space="preserve">
<style type="text/css">
	.st0{fill:#FFFFFF;}
</style>
<sodipodi:namedview  bordercolor="#000000" borderopacity="0.25" id="namedview984" inkscape:current-layer="layer1" inkscape:cx="-136.21899" inkscape:cy="6.9558631" inkscape:deskcolor="#d1d1d1" inkscape:document-units="mm" inkscape:pagecheckerboard="0" inkscape:pageopacity="0.0" inkscape:showpageshadow="2" inkscape:window-height="1377" inkscape:window-maximized="1" inkscape:window-width="5120" inkscape:window-x="-8" inkscape:window-y="-8" inkscape:zoom="2.587745" pagecolor="#ffffff" showgrid="false">
	</sodipodi:namedview>
<g id="layer1" transform="translate(-95.404021,-73.221084)" inkscape:groupmode="layer" inkscape:label="Layer 1">
	<path id="path1140" class="st0" d="M117.8,82.5v56.7h94.3l0.7-57.1L117.8,82.5z"/>
	<path id="path1142" class="st0" d="M104,156.2l-0.5,31.2l43.4-1.8L147,152L104,156.2z"/>
	<path id="path1144" class="st0" d="M183.2,153.2l-0.4,30.2l43.4,3.6l0.2-30.8L183.2,153.2z"/>
</g>
<g id="layer3" transform="translate(-95.404021,-73.221084)" inkscape:groupmode="layer" inkscape:label="Layer 2">
	<path id="path1146" d="M159.6,117.7l-4.5,3.2l-1.4,2.4l-1.8,4.5l-0.7,3.6l-0.2,5.9l1.4,8.3l2.9,2.2l0.4,5.3l-0.2,2.8l-2,1.4
		l-23.2,11.7l-2,3.2l-2.3,25.7l77.7-0.8l-0.2-13.8l-1.8-12.6c0,0-2.9-2.6-4.1-3s-22.5-11.1-22.5-11.1l-0.2-1.6l-0.9-3.4
		c0,0-0.2-2.6,0.7-3.2c0.9-0.6,3.1-2.4,3.1-2.4l0.5-4.3l0.5-7.1l-0.2-6.9l-2.2-5.1l-6.7-4.5l-6.7-0.2L159.6,117.7z"/>
	<ellipse id="path1213" cx="132.7" cy="95.6" rx="5.6" ry="5.8"/>
	<ellipse id="path1213-3" cx="192.8" cy="109.2" rx="5.6" ry="5.8"/>
	<ellipse id="path1213-1" cx="138.7" cy="122.7" rx="5.6" ry="5.8"/>
	<ellipse id="path1213-18" cx="168.8" cy="92.9" rx="5.6" ry="5.8"/>
	<path id="path1319" d="M137.1,99.1l3.5,17.4L137.1,99.1z"/>
	<path id="path1321" d="M134.8,101l3.5,17.8h1.9L134.8,101z"/>
	<path id="path1323" d="M140.2,119.6l25.1-23.2l2.7,1.5L140.2,119.6z"/>
	<path id="path1325" d="M170.8,98l20.1,13.5c0,0,6.2-3.1,3.5-4.6C191.6,105.3,170.8,98,170.8,98z"/>
</g>
</svg>
