<?xml version="1.0" encoding="utf-8"?>
<!-- Generator: Adobe Illustrator 27.7.0, SVG Export Plug-In . SVG Version: 6.00 Build 0)  -->
<svg version="1.1"
	 id="svg5" xmlns:svg="http://www.w3.org/2000/svg" xmlns:sodipodi="http://sodipodi.sourceforge.net/DTD/sodipodi-0.dtd" xmlns:inkscape="http://www.inkscape.org/namespaces/inkscape"
	 xmlns="http://www.w3.org/2000/svg" xmlns:xlink="http://www.w3.org/1999/xlink" x="0px" y="0px" viewBox="0 0 793.7 1122.5"
	 style="enable-background:new 0 0 793.7 1122.5;" xml:space="preserve">
<style type="text/css">
	.st0{fill:#FFFFFF;}
</style>
<sodipodi:namedview  bordercolor="#000000" borderopacity="0.25" id="namedview7" inkscape:deskcolor="#d1d1d1" inkscape:document-units="mm" inkscape:pagecheckerboard="0" inkscape:pageopacity="0.0" inkscape:showpageshadow="2" pagecolor="#ffffff" showgrid="false">
	</sodipodi:namedview>
<g id="layer2" inkscape:groupmode="layer" inkscape:label="Layer 2">
	<path id="path357" class="st0" d="M143.7,171.6l14,4.1l7.3,0.5c0,0,6.3-1.8,7.2-2.1c0.9-0.2,3.5-0.5,3.5-0.5l-0.7-4.7l-1.3-4.2
		l-1.2-3.7l-1.9-4.2l-1.9-4.3l-2.7-4.7l-2.5-4.1l-4-5.6l-1.5-1.8l-0.5,2.4l-0.7,2l-1.9,2.3l-1.2,2.6l-0.2,5.2L152,158l-3.1,7l-4,5.3
		L143.7,171.6z"/>
	<path id="path359" class="st0" d="M177.2,164.8l-4.5-11.5c0,0-4.3-7.4-4.8-8.1c-0.5-0.7-5.4-6.6-5.4-6.6l-4.3-4.7l-2.1-5.7
		l-2.3-4.3l6.8,0.6c0,0,8.1,1.9,9,2.5c0.8,0.6,7.3,5.3,8.4,5.9c1.1,0.6,8.4,6.5,8.9,6.9c0.5,0.4,2.7,2.7,2.7,2.7L189,148
		c0,0-0.2,2.9-0.5,3.3c-0.3,0.4-3.3,6.6-3.3,6.6l-3.6,5.5l-3,1.8L177.2,164.8z"/>
	<path id="path361" class="st0" d="M185.6,133.8l-10.4-6.7l-4.8-2.8l-11.1-3.1l-5.7-0.7l-3.2,0.3l-4.4-1.8l-1.7-2.4
		c0,0,3.3-5.6,4-6.4c0.8-0.8,7.2-5.7,7.2-5.7s8.8-3.1,10.3-3.3c1.5-0.2,4-1.6,4.9-1.1c0.8,0.5,7.2,9.6,7.7,10
		c0.6,0.4,4.7,10.2,4.7,10.2l3.1,11.2l-0.2,2.6"/>
	<path id="path363" class="st0" d="M134.3,120.6l-2.8-8.1l-2.3-9c0,0-0.2-8.3-0.1-9c0.1-0.7,0-10.3,0-10.3l0.3-6.1
		c0,0,0.4-1.5,1-1.3c0.6,0.2,6.7,0.9,7.4,1.1c0.6,0.2,7,2.8,8.1,3.2c1.1,0.5,6.9,4,6.9,4s-1,2.1-1.5,2.2c-0.6,0.2-2.3,4.8-2.7,5.3
		c-0.3,0.5-2.4,9-2.6,9.5c-0.2,0.5-2.1,8.1-2.1,8.1l-2,4.5l-1.5,4.1l-0.4,1l-3.8,2.4L134.3,120.6z"/>
	<path id="path365" class="st0" d="M135.8,130.8c0,0-3.2-1.4-4.1-1.9c-1-0.5-5.9-3.1-6.3-3.7c-0.4-0.6-3.8-3.8-4.7-4.6
		c-0.9-0.8-5.5-5.9-5.5-5.9s-4.7-5.6-5.1-6.1c-0.4-0.5-6.3-6.3-6.5-7c-0.3-0.7-3.9-7.5-3.9-7.5s4.7-4.4,4.9-5.6
		c0.2-1.1,3.6-4.6,3.6-4.6l2.2-2.4l5.3-2.4c0,0,1.8-1.6,1.7-0.6c-0.2,1,0.3,6.8,0.5,7.6c0.1,0.8,2.8,5.5,3.7,6.8
		c1,1.3,3.1,5.2,3.9,6.7c0.8,1.6,2.1,4.9,2.5,6c0.5,1.1,3,10.5,3,10.5l4,6.7l1.7,1.8l0.8,5.7"/>
	<path id="path367" class="st0" d="M142.1,140.1c0,0-2.7-0.4-3.9,0.2c-1.3,0.5-9.6,1.5-9.6,1.5l-7.8,0.9l-6.5-1.7l-7.8-2.5l-1.8-1.1
		c0,0-2.7-5.2-2.8-5.9c-0.1-0.7-1.5-6.8-1.7-7.8c-0.2-1-1.9-7.3-1.8-8.1c0.1-0.8-0.3-4.7-0.1-6c0.2-1.2,1.2-5.5,1.6-5.2
		c0.5,0.4,6.3,4.7,6.7,5.2c0.4,0.5,6.3,6,7.1,6.8c0.8,0.8,5.8,6.5,7.7,7.8c1.9,1.3,7.2,5.4,8.2,5.7c1,0.3,4.9,1.6,5.9,1.9
		c1,0.3,3.3,1.4,3.3,1.4l2.5,4L142.1,140.1z"/>
	<path id="path369" class="st0" d="M152.2,143.5l0.1,6.5l-3.6,10.3l-3.6,4.5l-5.5,6.9l-2.4,0.2c0,0-1.9-1.4-3.5-2.8
		c-1.6-1.4-13.1-11.5-13.1-11.5s-8.9-6.9-8-9.5c0.9-2.6,15.2-5.4,15.2-5.4l13.9-1.6c0,0,1.1-1.5,2.2-1.3c1,0.2,5.5,1.7,6.1,1.8
		c0.6,0.1,3.2,1,3.2,1L152.2,143.5z"/>
	<path id="path371" class="st0" d="M153.1,141c0,0,2.6-2.5,2.7-3c0.1-0.5,0.2-5.9,0.2-5.9l-3.2-5l-2.9-2.7l-3.8-2.1l-5,1.4l-1.9,4.3
		c0,0,2.9,2.7,2.9,2.2c0-0.5,1.3-4.5,1.3-4.5s1.4-1.1,2.6-0.8c1.2,0.3,4.8,3.3,4.8,3.3s1,0.8,1.6,2c0.6,1.2,1.2,3.7,1,4.8
		c-0.2,1.1-0.6,1.8-0.8,2.3c-0.2,0.5-2.3,1.3-2.3,1.3s-3.7-1.4-4.1-1.8c-0.5-0.4-3.1-3.4-3.1-3.4l-1.4-3.2l-2.7-2.4l0.5,4.2l3.2,5.4
		l5,3.1l4.1,0.5L153.1,141z"/>
	<path id="path373" class="st0" d="M141.8,133l0.2-4.7l-1.6-2.1l-1.6,2.9l1.6,2.1L141.8,133z"/>
	<path id="path375" class="st0" d="M186.5,172c1.3-0.2,6.3-8.4,7-9.3c0.7-0.9,2.8-12.6,3.2-14.8c0.4-2.3-2-13.3-2-13.3l-4.4-13.1
		l-6.7-13.4L170.9,93l-11.7-9.5l-12.6-5.5l-12.1-3.8l-4.9-0.5l-11.9,1.1l-7.3,1.6l-4.6,4.1l-5.8,6.9L94.5,99l0.1,13.9l2.3,16.4
		l4.7,14.3l9.6,13l12,11.3l8.5,8.4c0,0,11.4,4.9,12.6,5.5c1.2,0.7,18.3,2.7,18.3,2.7l13.9-4.1l7.8-5.1l21.1,22.1l-10,6.9l-18,6.8
		l-16.7-1.3l-16.8-5.6l-19.4-12.2l-20.3-19.2c0,0-17.7-23.7-17.6-24.6c0.1-0.9-8.8-29.2-8.8-29.2l-2.1-19.2l1.8-17.6l6.4-10.8
		l14.6-11.2l17.3-5.7l20.5,2.2l28.2,12.2l15.9,12.6l17.7,19l12.7,21.4l6.1,20l2.4,22.4l-1.1,7l-6.2,17.4l-3.7,6.9l-3.8,2.8
		L184,175.8L186.5,172z"/>
	<path id="path377" class="st0" d="M71.8,104.3c0,0-17.1-3.6-19.5-4.9C49.9,98,18,85.8,18,85.8l-11.8-14l2.2-16.6l10.4,3.3
		l22.4,12.9c0,0,13.7,5.6,17,7.5c3.3,1.9,11.9,6.6,11.9,6.6l4.2,2.8l1.6,15.8L71.8,104.3z"/>
	<path id="path379" class="st0" d="M71.9,84.5L80.5,63c0,0,5.8-7.2,8.2-8.8c2.4-1.7,13.3-8.4,16-8.9c2.7-0.5,16.2-0.4,16.2-0.4
		L118,1.7l-11.8-1.1L76.5,0.9l-21.3,3L21.7,37.3l-3.3,17L71.9,84.5z"/>
	<path id="path381" class="st0" d="M71.7,108.2l-16.2-3L16.2,87.7l7,33.6l17.5,33.5l35.4,51.4c0,0,8.8,9.9,9.2,7.6
		c0.4-2.3,10.4-19,11.8-21.2c1.4-2.2,6.2-15.9,6.2-15.9l-15.6-16.1c0,0-7.3-15.9-8.6-20.6C77.7,135.3,71.7,108.2,71.7,108.2z"/>
	<path id="path383" class="st0" d="M114.7,234.6l33,14.9c0,0,33.1,8,36.2,7.7c3.2-0.2,24.8-5.5,29.1-6.1c4.3-0.6,10.9-6.3,10.9-6.3
		s-9.2-10.6-11.6-14.9c-2.4-4.3-13.3-17.3-13.3-17.3l-9.7,5c0,0-12.6,0.5-16-1c-3.4-1.4-20.3-6.3-20.3-6.3l-22.5-9L114.7,234.6z"/>
	<path id="path387" class="st0" d="M229.9,239.7l6.1-2.5l-24.7-37l-10.2,8.2L229.9,239.7z"/>
	<path id="path389" class="st0" d="M144.8,48.7c-3.8-2.1-16.6-3.8-16.6-3.8l-3.6-45.1l16.9,4.9l7.5,43.8L144.8,48.7z"/>
	<path id="path391" class="st0" d="M221,101.9l-14,2.6l-26.2-33.9L162.3,56l-7.8-12.8l0.6-23l29.2,22.2l30.3,37.7L221,101.9z"/>
	<path id="path393" class="st0" d="M104.7,233.6l-12.9-9.2l15.1-38.9l17.8,10.3l-15.2,32.5l-7.2,7.9L104.7,233.6z"/>
</g>
</svg>
