<?xml version="1.0" encoding="utf-8"?>
<!-- Generator: Adobe Illustrator 27.9.0, SVG Export Plug-In . SVG Version: 6.00 Build 0)  -->
<svg version="1.1"
	 id="svg982" xmlns:inkscape="http://www.inkscape.org/namespaces/inkscape" xmlns:sodipodi="http://sodipodi.sourceforge.net/DTD/sodipodi-0.dtd" xmlns:svg="http://www.w3.org/2000/svg" inkscape:export-filename="..\Equipment\CommandConsole.svg" inkscape:version="1.2.2 (732a01da63, 2022-12-09)"
	 xmlns="http://www.w3.org/2000/svg" xmlns:xlink="http://www.w3.org/1999/xlink" x="0px" y="0px" viewBox="0 0 137.6 128.6"
	 style="enable-background:new 0 0 137.6 128.6;" xml:space="preserve">
<style type="text/css">
	.st0{fill:#FFFFFF;}
</style>
<sodipodi:namedview  bordercolor="#000000" borderopacity="0.25" id="namedview984" inkscape:current-layer="layer2" inkscape:cx="-385.4221" inkscape:cy="123.78321" inkscape:deskcolor="#d1d1d1" inkscape:document-units="mm" inkscape:pagecheckerboard="0" inkscape:pageopacity="0.0" inkscape:showpageshadow="2" inkscape:window-height="1377" inkscape:window-maximized="1" inkscape:window-width="5120" inkscape:window-x="-8" inkscape:window-y="-8" inkscape:zoom="3.6596241" pagecolor="#ffffff" showgrid="false">
	</sodipodi:namedview>
<g id="layer1" transform="translate(-95.404021,-73.221084)" inkscape:groupmode="layer" inkscape:label="Layer 1">
</g>
<g id="layer3" transform="translate(-95.404021,-73.221084)" inkscape:groupmode="layer" inkscape:label="Layer 2">
	<path id="path925" class="st0" d="M129.6,96.3l-2,2.3l-2.6,10.8l-1.1,9v36.5l2.9,16.8l2.7,4.8h1l14.3-0.1l-0.1-43l-0.1-15.7V96.2
		L129.6,96.3z"/>
	<path id="path927" class="st0" d="M145.1,104l1.3,1.3c0,0,2.5-0.1,3.1-0.3c0.6-0.2,3.7-1.7,4-1.9c0.3-0.2,4.2-1.8,4.2-1.8
		s2.2-0.6,2.5-0.7c0.3-0.1,12.1-0.3,12.1-0.3l2,1.2l4.6,1l3.2,1.2c0,0,1.4,1.8,1.6,2.1c0.2,0.3,1.7,2.9,1.7,2.9v1.3l0.9,0.4l0.3,2.5
		l-0.2,5.5c0,0-1.3,1.2-1.3,1.5c0,0.3-0.4,1.4-0.5,1.8s-3.2,2.8-3.2,2.8l-0.5,1.1l-1.9-0.2l0.1-1.6c0,0,1.8-1.8,2.2-2
		c0.3-0.3,2.1-2.2,2.3-2.5s1.2-2,1.1-2.4c-0.1-0.3-0.3-5-0.3-5s-0.9-0.8-1-1.2s-0.1-2-0.1-2s-0.3-0.5-0.6-1
		c-0.3-0.4-2.2-2.2-2.2-2.2s-0.5-0.9-1.3-1c-0.8-0.1-2.3-0.5-2.3-0.5s0.3-0.3-0.9-0.5c-1.2-0.2-2.7-0.4-2.7-0.4l-0.8-0.5h-11.4
		l-1.4,1l-1.4,0.3l-1.5,0.9l-2.5,0.8l-2.5,1l-0.7,0.5l-1.3,0.6l-3.8,0.1l-2,1.9v-6L145.1,104z"/>
	<path id="path931" class="st0" d="M144.2,110.2l1.6,1.4l4.2-0.3l2.6-1.2l2.9-1.3h2.1l1-0.5l3.8,0.2l1.6,0.6l1.8,0.9l0.6,1l0.1,1.8
		c0,0,0.2,1.4-0.1,1.7c-0.3,0.3-0.5,0.7-1,1c-0.4,0.3-1,1-1.3,1.4c-0.3,0.3-0.6,0.5-1,1c-0.3,0.5-0.9,1.2-0.9,1.6c0,0.5,0,0.9,0,0.9
		l-0.6,0.7c0,0-0.5,0.8-0.5,1.4c0,0.5,0.1,1.1,0.4,1.6c0.3,0.5,0.8,1.6,1.1,1.8c0.3,0.2,0.4,0.5,0.4,0.5h-5.9l0.9-0.8
		c0,0,0.9-0.3,0.9-0.6c0-0.3,0-2,0-2.5c0-0.4,0.3-2.3,0.5-2.7c0.3-0.3,0.6-0.7,0.6-1.2c0-0.5-0.1-1,0.1-1.4c0.3-0.3,0.5-0.8,1.2-1.2
		s1.8-1.4,2-1.8c0.2-0.3,0.5-1,0.5-1l0.2-0.8c0,0-1-1-1.2-1.2s-0.7-0.2-1.1-0.3c-0.4-0.1-0.6-0.5-1.3-0.5c-0.7,0-2,0.8-2,0.8
		s-1.3,0.5-2,0.4c-0.7-0.1-1.4-0.4-1.8,0.1c-0.5,0.5-0.5,0.9-1,1.1c-0.5,0.2-1.4,0.4-1.7,0.5c-0.3,0.1-1.5,0.5-1.5,0.5
		s-0.5,0.2-0.8,0.3c-0.3,0.1-1.2,0.5-1.6,0.5c-0.4,0-1.6,0-1.6,0l-2.4,1.9L144.2,110.2z"/>
	<path id="path933" class="st0" d="M153.9,126.6l-0.5,17.8l39.3-0.3l-0.3-10.4l-7.6-7.6l-3.2-1.9l-2.8,0.2c0,0-0.5,1.4-1.2,1.4
		c-0.8,0-15.2-0.3-15.2-0.3L154,126L153.9,126.6z"/>
	<path id="path935" class="st0" d="M148.1,149.5l0.1,24l51.6-0.1c0,0,0.7,0.3,0.8,0c0.1-0.3,2.5-5,2.7-5.5
		c0.2-0.5-0.1-12.4-0.1-12.4l-2.5-6.3L148.1,149.5z"/>
	<path id="path937" class="st0" d="M162.6,145l-0.1,1.1h6.8l-0.1-1.6l-6.7,0.1L162.6,145z"/>
	<path id="path939" class="st0" d="M178.5,144.6l0.1,1.6l7-0.2c0,0,0.4-1.4-0.1-1.4C185,144.6,178.5,144.6,178.5,144.6z"/>
	<path id="path941" class="st0" d="M152.9,129.4c-0.3,0-8.4-0.1-8.4-0.1s-0.4,6.6,0,6.6s8.7,0.1,8.7,0.1L152.9,129.4z"/>
	<path id="path943" class="st0" d="M153.2,136.5l-0.1,5.4l-9.2-0.1l0.2-5.4L153.2,136.5z"/>
</g>
<g id="layer2" inkscape:groupmode="layer" inkscape:label="Layer 3">
	<ellipse id="path954" cx="40.9" cy="80.2" rx="2.4" ry="2.4"/>
	<path id="path1173-9" d="M81.7,73.6l9.4,0.1l0.5,9.1L90,84.6h-7.2L81.5,83l-0.1-9.1L81.7,73.6z"/>
	<path id="path1136-6" d="M93.7,61.6l-0.3,8.9l0.5,0.3h0.5l-0.1-0.2l0.2-9L93.7,61.6z"/>
	<path id="path1136-2" d="M95.9,61.5l-0.3,8.9l0.5,0.3h0.5l-0.1-0.2l0.2-9L95.9,61.5z"/>
	<path id="path1047-1" d="M38.4,28.9h4.9l0.1,0.6h-4.9L38.4,28.9z"/>
	<path id="path1047-0" d="M38.4,30.8h4.9l0.1,0.6h-4.9L38.4,30.8z"/>
	<ellipse id="path954-6" cx="41.1" cy="87.1" rx="2.4" ry="2.4"/>
	<ellipse id="path954-1" cx="41" cy="94.3" rx="2.4" ry="2.4"/>
	<path id="path1043" d="M42,47.3l-1,1.1l0.1,2.9c0,0,0.1,0.5,0.9,0.5c0.8,0,10.1,0.3,10.1,0.3l0.1-5.3L42,47.3z"/>
	<path id="path1045" d="M41.7,54.7l-0.8,1.4l0.3,2.7l11.3,0.4v-4.9L41.7,54.7z"/>
	<path id="path1047" d="M38.5,26.8h4.9l0.1,0.6h-4.9L38.5,26.8z"/>
	<ellipse id="path954-8" cx="63.9" cy="65.9" rx="2.4" ry="2.4"/>
	<ellipse id="path954-3" cx="84.3" cy="66.1" rx="2.4" ry="2.4"/>
	<path id="path1136" d="M91.6,61.5l-0.3,8.9l0.5,0.3h0.5l-0.1-0.2l0.2-9L91.6,61.5z"/>
	<path id="path1173" d="M65.6,73.5l9.4,0.1l0.5,9.1L74,84.5h-7.2l-1.4-1.6l-0.1-9.1L65.6,73.5z"/>
</g>
</svg>
