<?xml version="1.0" encoding="utf-8"?>
<!-- Generator: Adobe Illustrator 27.5.0, SVG Export Plug-In . SVG Version: 6.00 Build 0)  -->
<svg version="1.1"
	 id="svg5" xmlns:sodipodi="http://sodipodi.sourceforge.net/DTD/sodipodi-0.dtd" xmlns:inkscape="http://www.inkscape.org/namespaces/inkscape" xmlns:svg="http://www.w3.org/2000/svg" inkscape:version="1.2.2 (732a01da63, 2022-12-09)" sodipodi:docname="GMShield.svg"
	 xmlns="http://www.w3.org/2000/svg" xmlns:xlink="http://www.w3.org/1999/xlink" x="0px" y="0px" viewBox="0 0 128 320"
	 style="enable-background:new 0 0 128 320;" xml:space="preserve">
<style type="text/css">
	.st0{fill:#FFFFFF;stroke:#FFFFFF;stroke-width:0.378;}
</style>
<sodipodi:namedview  bordercolor="#000000" borderopacity="0.25" id="namedview7" inkscape:current-layer="layer1" inkscape:cx="-456.87754" inkscape:cy="32.790254" inkscape:deskcolor="#d1d1d1" inkscape:document-units="mm" inkscape:pagecheckerboard="0" inkscape:pageopacity="0.0" inkscape:showpageshadow="2" inkscape:window-height="1377" inkscape:window-maximized="1" inkscape:window-width="5120" inkscape:window-x="-8" inkscape:window-y="-8" inkscape:zoom="0.914906" pagecolor="#ffffff" showgrid="false" showguides="true">
	</sodipodi:namedview>
<g id="layer1" inkscape:groupmode="layer" inkscape:label="Layer 1">
	<path id="path314" class="st0" d="M33.2,23.5l-3.5,3.5l-6.5,38.4l-12.8,72.1l2.8,152.4l28.7,4.1l0.6-4.1l-0.6-8.4l4.3-59l2.5-73.9
		l0.6-1.9l1.1-0.4h1l1.4,0.1l2.1,1.3l0.5,2.2l-1.3,4.3l-1.1,1.5l-4.7,126.2l-1.3,7.9l-2.6,1.3l-1.9-0.3L42,294l35.4,3.4h12.1
		l22.6-153l-3.5-116.4l-13.3-4.4H82.7l0.9,8.4l1.7,7.8l-1.1,10.6c0,0,0.5,2.5-1.1,2.5c-1.6,0-41.5-0.5-41.5-0.5s-3.3-3.3-3.4-4.4
		C38.2,46.6,38.4,33,39.1,33c0.6,0,44.7,0.6,44.7,0.6l-1.2-10.3L33.2,23.5z"/>
	<path id="path978" class="st0" d="M48.9,149.1c0-0.3,0.7-1.4,0.7-1.4l1.1-1c0,0,0.6,0,1,0s1.4,0.6,1.4,0.6s0.3,1.5,0.3,2
		c0.1,0.5,0.1,2-0.1,3c-0.2,1-0.5,3.2-0.5,3.2l0.1,0.7c0,0,5-4.6,4.8-5c-0.3-0.5-2.1-5.2-2.5-5.3c-0.3-0.1-6.2-2.4-6.4-2
		C48.8,144.3,48.9,149.1,48.9,149.1L48.9,149.1z"/>
	<path id="path980" class="st0" d="M46.6,150l2.3-0.5l-0.4-2.1c0,0-2.6,2.6-2.3,2.6C46.5,150,46.6,150,46.6,150z"/>
	<path id="path982" class="st0" d="M43.7,259.7l-0.5,26.9l0.1,2.3c0,0,0.9,0.6,1.3,0.6s0.3,0,0.7,0c0.4,0,0.6,0.1,0.9-0.3
		c0.3-0.3,1.9-31.5,1.9-31.5l2.3,0.1l-1.2,33.8l-8.6,0.8l-3.8-18.3l6.2-14.2l0.6-0.3L43.7,259.7z"/>
	<path id="path984" class="st0" d="M28.7,16.5c1.2-0.2,5.2-5.1,5.2-5.1l62.4,0.3l20.6,6.2c0,0,4.5,123.6,4.4,124.1
		c-0.1,0.5-21.4,154.2-21.4,154.2l-0.1,11.2l-12.9,4.6l-15.1,0.4l-54.4-5.8l-3.9-3.1l-1.4-4.6l-0.2-5.6l47.8,5
		c0,0,29.7,1.5,30.2,1.4c0.4-0.2,2.5-0.6,2.5-0.6l22-155.7L110,25.4l-13.8-4.2l-63-0.2l-4.8,2.3L28.7,16.5z"/>
	<path id="path986" class="st0" d="M29.7,22.7l-9.4,45.5L8.4,128.7l3.4,160.4c0,0,0.6,3.2,0.1,3.2c-0.5,0-2.6-0.3-2.9-1.2
		c-0.3-0.9-2.1-96.3-2.1-96.3L4.7,132l14.2-76l7.9-33.7l3.4-2.2L29.7,22.7z"/>
</g>
</svg>
