<?xml version="1.0" encoding="UTF-8" standalone="no"?>
<!-- Created with Inkscape (http://www.inkscape.org/) -->

<svg
   width="151.24651mm"
   height="204.3721mm"
   viewBox="0 0 151.24651 204.3721"
   version="1.1"
   id="svg5"
   xml:space="preserve"
   inkscape:version="1.2.1 (9c6d41e410, 2022-07-14)"
   sodipodi:docname="GNFrame.svg"
   xmlns:inkscape="http://www.inkscape.org/namespaces/inkscape"
   xmlns:sodipodi="http://sodipodi.sourceforge.net/DTD/sodipodi-0.dtd"
   xmlns="http://www.w3.org/2000/svg"
   xmlns:svg="http://www.w3.org/2000/svg"><sodipodi:namedview
     id="namedview7"
     pagecolor="#505050"
     bordercolor="#ffffff"
     borderopacity="1"
     inkscape:showpageshadow="0"
     inkscape:pageopacity="0"
     inkscape:pagecheckerboard="1"
     inkscape:deskcolor="#505050"
     inkscape:document-units="mm"
     showgrid="false"
     inkscape:zoom="0.71624579"
     inkscape:cx="46.073569"
     inkscape:cy="214.31191"
     inkscape:window-width="1920"
     inkscape:window-height="991"
     inkscape:window-x="-9"
     inkscape:window-y="-9"
     inkscape:window-maximized="1"
     inkscape:current-layer="layer2" /><defs
     id="defs2" /><g
     inkscape:label="Layer 1"
     inkscape:groupmode="layer"
     id="layer1"
     transform="translate(-26.245858,-43.758585)" /><g
     inkscape:groupmode="layer"
     id="layer2"
     inkscape:label="Layer 2"
     transform="translate(-26.245858,-43.758585)"><path
       style="fill:#ffffff;stroke:#000000;stroke-width:0.264583px;stroke-linecap:butt;stroke-linejoin:miter;stroke-opacity:1"
       d="m 27.705224,126.70522 -1.29291,3.87873 2.585821,0.92351 1.847014,-4.24813 z"
       id="path357" /><path
       style="fill:#ffffff;stroke:#000000;stroke-width:0.264583px;stroke-linecap:butt;stroke-linejoin:miter;stroke-opacity:1"
       d="m 30.244869,131.96921 1.569963,-4.47901 2.631996,0.83116 -1.523787,4.43284 z"
       id="path359" /><path
       style="fill:#ffffff;stroke:#000000;stroke-width:0.264583px;stroke-linecap:butt;stroke-linejoin:miter;stroke-opacity:1"
       d="m 35.83209,128.69076 2.49347,0.83116 -1.29291,4.29431 -2.862874,-0.83116 z"
       id="path361" /><path
       style="fill:#ffffff;stroke:#000000;stroke-width:0.264583px;stroke-linecap:butt;stroke-linejoin:miter;stroke-opacity:1"
       d="m 39.479945,129.7528 2.724346,0.50793 -1.523789,4.24813 -2.58582,-0.46175 z"
       id="path363" /><path
       style="fill:#ffffff;stroke:#000000;stroke-width:0.264583px;stroke-linecap:butt;stroke-linejoin:miter;stroke-opacity:1"
       d="m 37.632928,135.24767 2.724349,0.78498 -1.616139,4.24813 -2.724348,-0.83116 z"
       id="path365" /><path
       style="fill:#ffffff;stroke:#000000;stroke-width:0.264583px;stroke-linecap:butt;stroke-linejoin:miter;stroke-opacity:1"
       d="m 42.204291,120.05597 -2.955224,8.03451 7.341886,1.84702 1.015857,-3.13993 -1.10821,-1.70849 1.01586,-3.83255 z"
       id="path367" /><path
       style="fill:#ffffff;stroke:#000000;stroke-width:0.264583px;stroke-linecap:butt;stroke-linejoin:miter;stroke-opacity:1"
       d="m 48.71502,121.62593 1.29291,0.55411 1.477611,3.60168 -2.447296,1.20055 -1.246735,-2.30876 z"
       id="path369" /><path
       style="fill:#ffffff;stroke:#000000;stroke-width:0.264583px;stroke-linecap:butt;stroke-linejoin:miter;stroke-opacity:1"
       d="m 49.823227,127.95196 2.262595,3.9249 1.893189,-1.47761 -2.124067,-3.83255 z"
       id="path371" /><path
       style="fill:#ffffff;stroke:#000000;stroke-width:0.264583px;stroke-linecap:butt;stroke-linejoin:miter;stroke-opacity:1"
       d="m 40.588152,115.71548 13.667912,3.1861 1.939364,-6.60307 -13.575559,-3.41698 -2.216417,6.46455 z"
       id="path373" /><path
       style="fill:#ffffff;stroke:#000000;stroke-width:0.264583px;stroke-linecap:butt;stroke-linejoin:miter;stroke-opacity:1"
       d="m 42.250466,116.22341 -0.323228,1.24674 8.958024,2.58582 1.800839,-1.52379 z"
       id="path375" /><path
       style="fill:#ffffff;stroke:#000000;stroke-width:0.264583px;stroke-linecap:butt;stroke-linejoin:miter;stroke-opacity:1"
       d="m 44.420708,107.54244 2.539645,-7.618934 -1.200557,-2.862873 3.924906,-11.082089 0.369403,-0.784982 2.862874,0.738807 -0.277053,2.170242 6.095148,1.616138 1.385263,-1.339085 0.554103,-0.969682 2.447296,0.646454 -3.601681,11.77472 -2.077892,2.262594 -2.49347,8.31157 z"
       id="path377" /><path
       style="fill:#ffffff;stroke:#000000;stroke-width:0.264583px;stroke-linecap:butt;stroke-linejoin:miter;stroke-opacity:1"
       d="m 52.824626,88.148786 c 0.184703,-0.138525 1.893192,-6.603077 1.893192,-6.603077 l 1.985541,-0.09235 3.509328,1.015859 0.554103,0.738807 -1.893189,5.633395 -0.369403,0.784981 z"
       id="path379" /><path
       style="fill:#ffffff;stroke:#000000;stroke-width:0.264583px;stroke-linecap:butt;stroke-linejoin:miter;stroke-opacity:1"
       d="m 52.916979,64.137592 c 0.692629,0.323228 3.694028,1.154385 3.694028,1.154385 l 4.017258,6.233676 6.372201,2.49347 -2.862873,10.712686 -2.770521,-0.738807 0.646454,-2.170242 -7.111008,-1.847014 -0.415578,0.369403 -0.554104,1.616139 -2.49347,-0.461754 2.262592,-7.38806 -1.477611,-6.741605 z"
       id="path381" /><path
       style="fill:#ffffff;stroke:#000000;stroke-width:0.264583px;stroke-linecap:butt;stroke-linejoin:miter;stroke-opacity:1"
       d="m 41.059478,43.922488 c 0,0.783622 3.722206,13.778689 3.722206,13.778689 l 9.729973,5.093541 3.460999,1.632548 4.244617,6.660787 9.207561,2.807978 5.681258,-19.91706 -0.261208,-0.979528 -5.746559,-1.306036 -20.89659,-7.248504 z"
       id="path383" /><path
       style="fill:#ffffff;stroke:#000000;stroke-width:0.264583px;stroke-linecap:butt;stroke-linejoin:miter;stroke-opacity:1"
       d="m 77.04079,77.748841 -4.505825,-0.979527 3.069185,-10.709503 3.983413,1.044829 0.914226,-0.326509 0.261207,-0.848923 0.0653,-0.522415 -4.832337,-0.979527 -0.261207,-0.653018 2.546773,-9.860579 h 1.567243 l 2.220262,0.522414 0.848924,0.130604 -0.32651,8.619844 11.558426,3.199789 v 1.110131 l -0.195905,0.522415 -0.195905,0.457112 -2.285564,-0.391811 -0.457113,-0.391811 -0.653018,-0.39181 -0.0653,1.632545 1.306039,0.261207 1.306036,0.522417 0.522415,0.195906 -0.195906,0.848923 -0.522414,1.175433 -0.71832,0.261207 -10.382994,-2.15496 -3.330392,2.285564 -1.436643,5.158846 z"
       id="path387" /><path
       style="fill:#ffffff;stroke:#000000;stroke-width:0.264583px;stroke-linecap:butt;stroke-linejoin:miter;stroke-opacity:1"
       d="m 84.4199,57.701177 -0.97953,4.70173 7.052601,1.959057 c 0,0 1.044829,-0.783622 0.914225,-1.110131 -0.130603,-0.326511 -3.722206,-4.832336 -3.722206,-4.832336 z"
       id="path389" /><path
       style="fill:#ffffff;stroke:#000000;stroke-width:0.264583px;stroke-linecap:butt;stroke-linejoin:miter;stroke-opacity:1"
       d="m 85.007616,50.452672 -0.0653,-1.76315 1.175433,1.044829 3.460996,5.028241 h 0.522414 l 0.718323,0.261208 3.199789,4.440526 -2.612073,1.436639 -3.330395,-4.440525 0.391811,-1.044829 z"
       id="path391" /><path
       style="fill:#ffffff;stroke:#000000;stroke-width:0.264583px;stroke-linecap:butt;stroke-linejoin:miter;stroke-opacity:1"
       d="m 92.125516,61.553984 3.199789,-1.567244 -0.0653,-1.43664 3.003886,-0.783622 0.587717,1.828451 2.938582,0.653018 -0.0653,6.138373 -2.416168,0.0653 -1.959054,-2.612072 -3.656904,0.0653 z"
       id="path393" /><path
       style="fill:#ffffff;stroke:#000000;stroke-width:0.264583px;stroke-linecap:butt;stroke-linejoin:miter;stroke-opacity:1"
       d="m 92.25612,61.619285 -0.653018,1.69785 -1.110131,1.110131 v 0.848923 l 3.722203,1.110131 0.0653,1.371338 -0.391811,0.653018 -2.350865,-0.457112 -1.110131,-0.71832 v 1.632545 l 3.069185,0.97953 -0.522414,1.763149 -0.71832,0.522414 c 0,0 -1.175433,-0.195905 -1.501942,-0.195905 -0.326509,0 -1.567246,0.979527 -1.567246,0.979527 l 1.828453,3.395697 3.134487,2.87328 1.044829,0.71832 0.587717,0.261207 2.938584,-6.791391 2.54677,0.0653 c 0,0 0.71832,-7.379108 0.45711,-7.248504 -0.2612,0.130603 -2.154957,0.195905 -2.154957,0.195905 l -2.220261,-2.54677 h -3.5916 z"
       id="path395" /><path
       style="fill:#ffffff;stroke:#000000;stroke-width:0.264583px;stroke-linecap:butt;stroke-linejoin:miter;stroke-opacity:1"
       d="m 89.578743,72.7859 -6.595486,-1.371338 -1.436639,4.897639 3.656904,2.15496 2.677374,3.395694 5.028242,3.13449 1.175433,-0.653019 1.240734,-3.918111 0.0653,-0.522414 -4.244618,-3.656902 -1.959057,-3.265093 z"
       id="path397" /><path
       style="fill:#ffffff;stroke:#000000;stroke-width:0.264583px;stroke-linecap:butt;stroke-linejoin:miter;stroke-opacity:1"
       d="m 98.721002,73.373617 c -0.326509,0.653018 -3.003886,7.248503 -3.003886,7.248503 l -1.306036,5.615959 2.024356,9.664673 3.722204,0.195906 0.0653,0.0653"
       id="path399" /><path
       style="fill:#ffffff;stroke:#000000;stroke-width:0.264583px;stroke-linecap:butt;stroke-linejoin:miter;stroke-opacity:1"
       d="m 86.705463,85.91157 -3.591602,7.640314 3.003886,1.501942 0.783622,-0.391811 0.914225,-1.893752 3.591602,-1.893753 -0.130603,-3.591602 z"
       id="path401" /><path
       style="fill:#ffffff;stroke:#000000;stroke-width:0.264583px;stroke-linecap:butt;stroke-linejoin:miter;stroke-opacity:1"
       d="m 80.893599,95.510939 -1.893752,3.852809 5.093544,2.024352 1.567243,-3.983406 z"
       id="path403" /><path
       style="fill:#ffffff;stroke:#000000;stroke-width:0.264583px;stroke-linecap:butt;stroke-linejoin:miter;stroke-opacity:1"
       d="m 88.925725,93.355979 4.897638,-1.893752 2.024357,5.877165 3.852809,0.391811 -0.457113,3.852807 -3.656904,-0.19591 -3.069185,3.1998 -7.052598,-2.61208 3.330392,-8.423936 z"
       id="path405" /><path
       style="fill:#ffffff;stroke:#000000;stroke-width:0.264583px;stroke-linecap:butt;stroke-linejoin:miter;stroke-opacity:1"
       d="m 67.046641,103.80224 16.807836,6.1875 2.216418,-2.49347 6.372201,0.27705 -1.108208,19.30131 -7.29571,-3.23228 -1.754664,-4.70989 -17.269589,-11.91324 z"
       id="path407" /><path
       style="fill:#ffffff;stroke:#000000;stroke-width:0.264583px;stroke-linecap:butt;stroke-linejoin:miter;stroke-opacity:1"
       d="m 71.294775,113.77612 3.694031,2.95522 -4.709888,3.50933 -0.738806,-3.69403 z"
       id="path409" /><path
       style="fill:#ffffff;stroke:#000000;stroke-width:0.264583px;stroke-linecap:butt;stroke-linejoin:miter;stroke-opacity:1"
       d="m 71.202425,121.25653 -2.031717,26.78171 3.878731,2.95523 0.923507,-1.47761 11.174442,0.5541 0.369403,1.01586 3.971081,-2.03172 1.10821,-20.31716 -7.849815,-3.78638 -1.47761,-4.34049 -4.617538,-2.86287 z"
       id="path411" /><path
       style="fill:#ffffff;stroke:#000000;stroke-width:0.264583px;stroke-linecap:butt;stroke-linejoin:miter;stroke-opacity:1"
       d="m 73.972946,149.42351 0.09235,2.49347 10.620335,0.83115 0.1847,-2.77052 z"
       id="path413" /><path
       style="fill:#ffffff;stroke:#000000;stroke-width:0.264583px;stroke-linecap:butt;stroke-linejoin:miter;stroke-opacity:1"
       d="m 72.864739,154.31809 11.543842,0.36941 2.30877,6.83395 -1.569963,28.44403 -4.063434,5.4487 -9.142722,-0.36941 -2.862874,-6.1875 2.031717,-28.44403 z"
       id="path415" /><path
       style="fill:#ffffff;stroke:#000000;stroke-width:0.264583px;stroke-linecap:butt;stroke-linejoin:miter;stroke-opacity:1"
       d="m 67.323695,164.10727 1.754663,0.18471 -1.38526,25.3041 4.432834,8.21921 7.849815,0.46176 1.47761,-0.27705 4.802241,-7.01866 1.200557,-26.22761 2.678173,0.3694 1.108208,3.41698 -1.477611,24.10354 -2.40112,5.4487 -2.308768,13.85261 1.847014,12.375 -1.662313,1.66231 -0.277051,2.86288 -2.955224,0.1847 -1.20056,0.7388 -3.047576,0.0924 -8.496268,-0.5541 -1.847014,-0.83116 -3.047574,-0.1847 v -3.13992 l -0.831157,-1.20056 2.770521,-12.375 -0.09235,-12.09795 v -2.12407 l -2.401121,-4.98694 1.477614,-24.9347 1.662313,-3.23227 z"
       id="path417" /><path
       style="fill:#ffffff;stroke:#000000;stroke-width:0.264583px;stroke-linecap:butt;stroke-linejoin:miter;stroke-opacity:1"
       d="m 64.183768,169.27892 -1.20056,20.96361 -1.662314,-4.34048 0.461756,-9.60448 0.646454,-3.04757 z"
       id="path419" /><path
       style="fill:#ffffff;stroke:#000000;stroke-width:0.264583px;stroke-linecap:butt;stroke-linejoin:miter;stroke-opacity:1"
       d="m 91.981342,170.84888 -0.738806,13.20616 -0.09235,7.111 2.30877,-4.80224 0.369404,-5.35634 0.1847,-4.24813 -0.831157,-3.50933 -1.29291,-2.86288 z"
       id="path421" /><path
       style="fill:#ffffff;stroke:#000000;stroke-width:0.264583px;stroke-linecap:butt;stroke-linejoin:miter;stroke-opacity:1"
       d="m 62.613807,225.24347 -2.30877,3.32462 -0.831157,5.54105 1.20056,4.06343 0.923507,1.10821 1.29291,-12.09795 0.09235,-1.10821 z"
       id="path423" /><path
       style="fill:#ffffff;stroke:#000000;stroke-width:0.264583px;stroke-linecap:butt;stroke-linejoin:miter;stroke-opacity:1"
       d="m 64.183768,230.59981 c -0.184701,0.3694 -0.831157,9.32742 -0.831157,9.32742 l 0.831157,6.92631 c 0,0 15.607276,1.38526 16.161382,1.10821 0.554104,-0.27705 3.324624,-4.52519 3.324624,-4.52519 l 1.01586,-2.86287 0.738807,-9.05037 -3.694031,-0.92351 -1.477613,1.10821 -12.005596,-0.64646 -0.554103,-0.83115 z"
       id="path425" /><path
       style="fill:#ffffff;stroke:#000000;stroke-width:0.264583px;stroke-linecap:butt;stroke-linejoin:miter;stroke-opacity:1"
       d="m 86.717351,226.44403 -0.923507,14.22201 0.461754,0.64646 c 0,0 0.738803,0.64645 1.200557,-0.27706 0.461756,-0.9235 2.031717,-6.1875 2.031717,-6.1875 l 0.184703,-2.49347 c 0,0 -0.554106,-2.86287 -0.554106,-3.23227 0,-0.3694 -0.831157,-2.40112 -0.831157,-2.40112 l -0.831157,-1.01586 z"
       id="path429" /><path
       style="fill:#ffffff;stroke:#000000;stroke-width:0.264583px;stroke-linecap:butt;stroke-linejoin:miter;stroke-opacity:1"
       d="m 93.562156,106.22044 1.110131,-1.17543 4.505828,0.1306 -0.326509,13.32158 -0.261208,1.30603 -2.80798,0.0653 -2.024356,-1.30603 -0.130604,-0.39181 c 0,0 -0.587716,0.0653 -0.391811,-0.45712 0.195906,-0.52241 0.326509,-11.49312 0.326509,-11.49312 z"
       id="path1413" /><path
       style="fill:#ffffff;stroke:#000000;stroke-width:0.264583px;stroke-linecap:butt;stroke-linejoin:miter;stroke-opacity:1"
       d="m 93.170345,119.80322 1.306037,0.58772 1.436639,0.65302 h 1.436643 l 1.044829,-0.0653 h 0.587716 l -0.195905,9.33816 -2.350868,0.32651 -1.763149,-0.19591 -0.848924,-0.78362 -1.175432,-1.11013 z"
       id="path1415" /><path
       style="fill:#ffffff;stroke:#000000;stroke-width:0.264583px;stroke-linecap:butt;stroke-linejoin:miter;stroke-opacity:1"
       d="m 176.033,126.68138 1.29291,3.87873 -2.58582,0.92351 -1.84701,-4.24813 z"
       id="path357-2" /><path
       style="fill:#ffffff;stroke:#000000;stroke-width:0.264583px;stroke-linecap:butt;stroke-linejoin:miter;stroke-opacity:1"
       d="m 173.49336,131.94537 -1.56997,-4.47901 -2.63199,0.83116 1.52378,4.43284 z"
       id="path359-8" /><path
       style="fill:#ffffff;stroke:#000000;stroke-width:0.264583px;stroke-linecap:butt;stroke-linejoin:miter;stroke-opacity:1"
       d="m 167.90613,128.66692 -2.49347,0.83116 1.29291,4.29431 2.86288,-0.83116 z"
       id="path361-8" /><path
       style="fill:#ffffff;stroke:#000000;stroke-width:0.264583px;stroke-linecap:butt;stroke-linejoin:miter;stroke-opacity:1"
       d="m 164.25828,129.72896 -2.72435,0.50793 1.52379,4.24813 2.58582,-0.46175 z"
       id="path363-4" /><path
       style="fill:#ffffff;stroke:#000000;stroke-width:0.264583px;stroke-linecap:butt;stroke-linejoin:miter;stroke-opacity:1"
       d="m 166.1053,135.22383 -2.72435,0.78498 1.61614,4.24813 2.72434,-0.83116 z"
       id="path365-2" /><path
       style="fill:#ffffff;stroke:#000000;stroke-width:0.264583px;stroke-linecap:butt;stroke-linejoin:miter;stroke-opacity:1"
       d="m 161.53393,120.03213 2.95523,8.03451 -7.34189,1.84702 -1.01586,-3.13993 1.10821,-1.70849 -1.01586,-3.83255 z"
       id="path367-7" /><path
       style="fill:#ffffff;stroke:#000000;stroke-width:0.264583px;stroke-linecap:butt;stroke-linejoin:miter;stroke-opacity:1"
       d="m 155.0232,121.60209 -1.29291,0.55411 -1.47761,3.60168 2.4473,1.20055 1.24673,-2.30876 z"
       id="path369-2" /><path
       style="fill:#ffffff;stroke:#000000;stroke-width:0.264583px;stroke-linecap:butt;stroke-linejoin:miter;stroke-opacity:1"
       d="m 153.915,127.92812 -2.2626,3.9249 -1.89319,-1.47761 2.12407,-3.83255 z"
       id="path371-9" /><path
       style="fill:#ffffff;stroke:#000000;stroke-width:0.264583px;stroke-linecap:butt;stroke-linejoin:miter;stroke-opacity:1"
       d="m 163.15007,115.69164 -13.66791,3.1861 -1.93936,-6.60307 13.57556,-3.41698 2.21641,6.46455 z"
       id="path373-4" /><path
       style="fill:#ffffff;stroke:#000000;stroke-width:0.264583px;stroke-linecap:butt;stroke-linejoin:miter;stroke-opacity:1"
       d="m 161.48776,116.19957 0.32323,1.24674 -8.95803,2.58582 -1.80084,-1.52379 z"
       id="path375-5" /><path
       style="fill:#ffffff;stroke:#000000;stroke-width:0.264583px;stroke-linecap:butt;stroke-linejoin:miter;stroke-opacity:1"
       d="m 159.31752,107.51861 -2.53965,-7.61894 1.20056,-2.862873 -3.92491,-11.082089 -0.3694,-0.784982 -2.86287,0.738807 0.27705,2.170242 -6.09515,1.616138 -1.38526,-1.339085 -0.55411,-0.969682 -2.44729,0.646454 3.60168,11.77472 2.07789,2.26259 2.49347,8.31157 z"
       id="path377-8" /><path
       style="fill:#ffffff;stroke:#000000;stroke-width:0.264583px;stroke-linecap:butt;stroke-linejoin:miter;stroke-opacity:1"
       d="m 150.9136,88.12495 c -0.1847,-0.138525 -1.89319,-6.603077 -1.89319,-6.603077 l -1.98554,-0.09235 -3.50933,1.015859 -0.55411,0.738807 1.89319,5.633395 0.36941,0.784981 z"
       id="path379-2" /><path
       style="fill:#ffffff;stroke:#000000;stroke-width:0.264583px;stroke-linecap:butt;stroke-linejoin:miter;stroke-opacity:1"
       d="m 150.82125,64.113756 c -0.69263,0.323228 -3.69403,1.154385 -3.69403,1.154385 l -4.01726,6.233676 -6.3722,2.49347 2.86287,10.712686 2.77052,-0.738807 -0.64645,-2.170242 7.11101,-1.847014 0.41557,0.369403 0.55411,1.616139 2.49347,-0.461754 -2.26259,-7.38806 1.47761,-6.741605 z"
       id="path381-5" /><path
       style="fill:#ffffff;stroke:#000000;stroke-width:0.264583px;stroke-linecap:butt;stroke-linejoin:miter;stroke-opacity:1"
       d="m 162.67875,43.898652 c 0,0.783622 -3.72221,13.778689 -3.72221,13.778689 l -9.72997,5.093541 -3.461,1.632548 -4.24462,6.660787 -9.20756,2.807978 -5.68126,-19.91706 0.26121,-0.979528 5.74656,-1.306036 20.89659,-7.248504 z"
       id="path383-7" /><path
       style="fill:#ffffff;stroke:#000000;stroke-width:0.264583px;stroke-linecap:butt;stroke-linejoin:miter;stroke-opacity:1"
       d="m 126.69743,77.725005 4.50583,-0.979527 -3.06919,-10.709503 -3.98341,1.044829 -0.91422,-0.326509 -0.26121,-0.848923 -0.0653,-0.522415 4.83234,-0.979527 0.2612,-0.653018 -2.54677,-9.860579 h -1.56724 l -2.22027,0.522414 -0.84892,0.130604 0.32651,8.619844 -11.55843,3.199789 v 1.110131 l 0.19591,0.522415 0.1959,0.457112 2.28557,-0.391811 0.45711,-0.391811 0.65302,-0.39181 0.0653,1.632545 -1.30604,0.261207 -1.30604,0.522417 -0.52241,0.195906 0.19591,0.848923 0.52241,1.175433 0.71832,0.261207 10.38299,-2.15496 3.3304,2.285564 1.43664,5.158846 z"
       id="path387-5" /><path
       style="fill:#ffffff;stroke:#000000;stroke-width:0.264583px;stroke-linecap:butt;stroke-linejoin:miter;stroke-opacity:1"
       d="m 119.31832,57.677341 0.97953,4.70173 -7.0526,1.959057 c 0,0 -1.04483,-0.783622 -0.91422,-1.110131 0.1306,-0.326511 3.7222,-4.832336 3.7222,-4.832336 z"
       id="path389-2" /><path
       style="fill:#ffffff;stroke:#000000;stroke-width:0.264583px;stroke-linecap:butt;stroke-linejoin:miter;stroke-opacity:1"
       d="m 118.73061,50.428836 0.0653,-1.76315 -1.17543,1.044829 -3.461,5.028241 h -0.52241 l -0.71833,0.261208 -3.19979,4.440526 2.61208,1.436639 3.33039,-4.440525 -0.39181,-1.044829 z"
       id="path391-3" /><path
       style="fill:#ffffff;stroke:#000000;stroke-width:0.264583px;stroke-linecap:butt;stroke-linejoin:miter;stroke-opacity:1"
       d="m 111.61271,61.530148 -3.19979,-1.567244 0.0653,-1.43664 -3.00389,-0.783622 -0.58771,1.828451 -2.93858,0.653018 0.0653,6.138373 2.41616,0.0653 1.95906,-2.612072 3.6569,0.0653 z"
       id="path393-0" /><path
       style="fill:#ffffff;stroke:#000000;stroke-width:0.264583px;stroke-linecap:butt;stroke-linejoin:miter;stroke-opacity:1"
       d="m 111.4821,61.595449 0.65302,1.69785 1.11013,1.110131 v 0.848923 l -3.7222,1.110131 -0.0653,1.371338 0.39181,0.653018 2.35087,-0.457112 1.11013,-0.71832 v 1.632545 l -3.06919,0.97953 0.52242,1.763149 0.71832,0.522414 c 0,0 1.17543,-0.195905 1.50194,-0.195905 0.32651,0 1.56724,0.979527 1.56724,0.979527 l -1.82845,3.395697 -3.13449,2.87328 -1.04482,0.71832 -0.58772,0.261207 -2.93859,-6.791391 -2.54677,0.0653 c 0,0 -0.71832,-7.379108 -0.45711,-7.248504 0.26121,0.130603 2.15496,0.195905 2.15496,0.195905 l 2.22026,-2.54677 h 3.5916 z"
       id="path395-4" /><path
       style="fill:#ffffff;stroke:#000000;stroke-width:0.264583px;stroke-linecap:butt;stroke-linejoin:miter;stroke-opacity:1"
       d="m 114.15948,72.762064 6.59549,-1.371338 1.43664,4.897639 -3.65691,2.15496 -2.67737,3.395694 -5.02824,3.13449 -1.17544,-0.653019 -1.24073,-3.918111 -0.0653,-0.522414 4.24462,-3.656902 1.95905,-3.265093 z"
       id="path397-9" /><path
       style="fill:#ffffff;stroke:#000000;stroke-width:0.264583px;stroke-linecap:butt;stroke-linejoin:miter;stroke-opacity:1"
       d="m 105.01722,73.349781 c 0.32651,0.653018 3.00389,7.248503 3.00389,7.248503 l 1.30603,5.615959 -2.02435,9.664673 -3.72221,0.195906 -0.0653,0.0653"
       id="path399-1" /><path
       style="fill:#ffffff;stroke:#000000;stroke-width:0.264583px;stroke-linecap:butt;stroke-linejoin:miter;stroke-opacity:1"
       d="m 117.03276,85.887734 3.5916,7.640314 -3.00388,1.501942 -0.78362,-0.391811 -0.91423,-1.893752 -3.5916,-1.893753 0.1306,-3.591602 z"
       id="path401-4" /><path
       style="fill:#ffffff;stroke:#000000;stroke-width:0.264583px;stroke-linecap:butt;stroke-linejoin:miter;stroke-opacity:1"
       d="m 122.84463,95.487103 1.89375,3.852809 -5.09355,2.024358 -1.56724,-3.983412 z"
       id="path403-9" /><path
       style="fill:#ffffff;stroke:#000000;stroke-width:0.264583px;stroke-linecap:butt;stroke-linejoin:miter;stroke-opacity:1"
       d="m 114.8125,93.332143 -4.89764,-1.893752 -2.02436,5.877165 -3.8528,0.391811 0.45711,3.852803 3.6569,-0.1959 3.06919,3.19979 7.0526,-2.61208 -3.3304,-8.423932 z"
       id="path405-4" /><path
       style="fill:#ffffff;stroke:#000000;stroke-width:0.264583px;stroke-linecap:butt;stroke-linejoin:miter;stroke-opacity:1"
       d="m 136.69158,103.7784 -16.80783,6.1875 -2.21642,-2.49347 -6.3722,0.27705 1.10821,19.30131 7.29571,-3.23228 1.75466,-4.70989 17.26959,-11.91324 z"
       id="path407-3" /><path
       style="fill:#ffffff;stroke:#000000;stroke-width:0.264583px;stroke-linecap:butt;stroke-linejoin:miter;stroke-opacity:1"
       d="m 132.44345,113.75228 -3.69403,2.95522 4.70989,3.50933 0.7388,-3.69403 z"
       id="path409-8" /><path
       style="fill:#ffffff;stroke:#000000;stroke-width:0.264583px;stroke-linecap:butt;stroke-linejoin:miter;stroke-opacity:1"
       d="m 132.5358,121.23269 2.03172,26.78171 -3.87873,2.95523 -0.92351,-1.47761 -11.17444,0.5541 -0.36941,1.01586 -3.97108,-2.03172 -1.10821,-20.31716 7.84982,-3.78638 1.47761,-4.34049 4.61754,-2.86287 z"
       id="path411-6" /><path
       style="fill:#ffffff;stroke:#000000;stroke-width:0.264583px;stroke-linecap:butt;stroke-linejoin:miter;stroke-opacity:1"
       d="m 129.76528,149.39967 -0.0924,2.49347 -10.62034,0.83115 -0.1847,-2.77052 z"
       id="path413-5" /><path
       style="fill:#ffffff;stroke:#000000;stroke-width:0.264583px;stroke-linecap:butt;stroke-linejoin:miter;stroke-opacity:1"
       d="m 130.87349,154.29425 -11.54385,0.36941 -2.30877,6.83395 1.56997,28.44403 4.06343,5.4487 9.14272,-0.36941 2.86288,-6.1875 -2.03172,-28.44403 z"
       id="path415-5" /><path
       style="fill:#ffffff;stroke:#000000;stroke-width:0.264583px;stroke-linecap:butt;stroke-linejoin:miter;stroke-opacity:1"
       d="m 136.41453,164.08343 -1.75466,0.18471 1.38526,25.3041 -4.43284,8.21921 -7.84981,0.46176 -1.47761,-0.27705 -4.80224,-7.01866 -1.20056,-26.22761 -2.67817,0.3694 -1.10821,3.41698 1.47761,24.10354 2.40112,5.4487 2.30877,13.85261 -1.84702,12.375 1.66232,1.66231 0.27705,2.86288 2.95522,0.1847 1.20056,0.7388 3.04758,0.0924 8.49627,-0.5541 1.84701,-0.83116 3.04757,-0.1847 v -3.13992 l 0.83116,-1.20056 -2.77052,-12.375 0.0924,-12.09795 v -2.12407 l 2.40112,-4.98694 -1.47761,-24.9347 -1.66232,-3.23227 z"
       id="path417-7" /><path
       style="fill:#ffffff;stroke:#000000;stroke-width:0.264583px;stroke-linecap:butt;stroke-linejoin:miter;stroke-opacity:1"
       d="m 139.55446,169.25508 1.20056,20.96361 1.66231,-4.34048 -0.46176,-9.60448 -0.64645,-3.04757 z"
       id="path419-4" /><path
       style="fill:#ffffff;stroke:#000000;stroke-width:0.264583px;stroke-linecap:butt;stroke-linejoin:miter;stroke-opacity:1"
       d="m 111.75688,170.82504 0.73881,13.20616 0.0923,7.111 -2.30877,-4.80224 -0.36941,-5.35634 -0.1847,-4.24813 0.83116,-3.50933 1.29291,-2.86288 z"
       id="path421-2" /><path
       style="fill:#ffffff;stroke:#000000;stroke-width:0.264583px;stroke-linecap:butt;stroke-linejoin:miter;stroke-opacity:1"
       d="m 141.12442,225.21963 2.30877,3.32462 0.83115,5.54105 -1.20056,4.06343 -0.9235,1.10821 -1.29291,-12.09795 -0.0923,-1.10821 z"
       id="path423-0" /><path
       style="fill:#ffffff;stroke:#000000;stroke-width:0.264583px;stroke-linecap:butt;stroke-linejoin:miter;stroke-opacity:1"
       d="m 139.55446,230.57597 c 0.1847,0.3694 0.83115,9.32742 0.83115,9.32742 l -0.83115,6.92631 c 0,0 -15.60728,1.38526 -16.16139,1.10821 -0.5541,-0.27705 -3.32462,-4.52519 -3.32462,-4.52519 l -1.01586,-2.86287 -0.73881,-9.05037 3.69403,-0.92351 1.47762,1.10821 12.00559,-0.64646 0.55411,-0.83115 z"
       id="path425-3" /><path
       style="fill:#ffffff;stroke:#000000;stroke-width:0.264583px;stroke-linecap:butt;stroke-linejoin:miter;stroke-opacity:1"
       d="m 117.02087,226.42019 0.92351,14.22201 -0.46175,0.64646 c 0,0 -0.73881,0.64645 -1.20056,-0.27706 -0.46176,-0.9235 -2.03172,-6.1875 -2.03172,-6.1875 l -0.1847,-2.49347 c 0,0 0.55411,-2.86287 0.55411,-3.23227 0,-0.3694 0.83115,-2.40112 0.83115,-2.40112 l 0.83116,-1.01586 z"
       id="path429-3" /><path
       style="fill:#ffffff;stroke:#000000;stroke-width:0.264583px;stroke-linecap:butt;stroke-linejoin:miter;stroke-opacity:1"
       d="m 110.17607,106.1966 -1.11013,-1.17543 -4.50583,0.13061 0.32651,13.32157 0.26121,1.30603 2.80798,0.0653 2.02435,-1.30603 0.13061,-0.39181 c 0,0 0.58771,0.0653 0.39181,-0.45712 -0.19591,-0.52241 -0.32651,-11.49312 -0.32651,-11.49312 z"
       id="path1413-3" /><path
       style="fill:#ffffff;stroke:#000000;stroke-width:0.264583px;stroke-linecap:butt;stroke-linejoin:miter;stroke-opacity:1"
       d="m 110.56788,119.77938 -1.30604,0.58772 -1.43664,0.65302 h -1.43664 l -1.04483,-0.0653 h -0.58771 l 0.1959,9.33816 2.35087,0.32651 1.76315,-0.19591 0.84892,-0.78362 1.17543,-1.11013 z"
       id="path1415-0" /><path
       style="fill:#00a515;stroke:#000000;stroke-width:0.264583px;stroke-linecap:butt;stroke-linejoin:miter;stroke-opacity:1;fill-opacity:1"
       d="m 92.321422,62.011096 1.567243,1.893755 3.526301,-0.0653 2.154959,2.612072 4.636435,-0.0653 2.28556,-2.481469 3.33039,-0.0653 1.69785,-2.154963 0.78362,2.024359 1.04483,0.653018 v 0.914225 l -3.5263,0.979528 -0.26121,0.261207 0.39182,1.763149 c 0,0 1.95905,-0.261207 2.22026,-0.391811 0.26121,-0.130604 1.11013,-0.848924 1.11013,-0.848924 v 1.959055 l -2.87328,0.718322 0.52241,1.959055 0.71832,0.522414 1.30604,-0.261207 1.63255,1.110131 -1.89376,3.265093 -4.44052,3.5916 -0.19591,0.0653 -2.87328,-6.530183 h -6.595482 l -2.612075,6.595485 -0.653018,-0.195905 -4.440523,-3.85281 -1.632548,-3.003883 1.501944,-0.914225 h 1.501942 l 0.587716,-0.391811 0.71832,-1.828451 -3.265093,-1.175435 0.0653,-1.632546 c 0,0 0.587717,0.71832 1.110131,0.783622 0.522415,0.0653 2.416167,0.391811 2.416167,0.391811 l 0.391811,-0.522415 -0.195905,-1.044828 V 66.25572 l -3.395695,-1.044829 -0.0653,-1.110131 z"
       id="path1751" /><path
       style="fill:#ffffff;stroke:#000000;stroke-width:0.264583px;stroke-linecap:butt;stroke-linejoin:miter;stroke-opacity:1"
       d="m 98.525096,73.536873 6.595484,-0.09795 2.71003,6.693439 1.50194,6.171023 -2.05701,9.566719 -7.281151,0.261207 -3.558953,-0.163253 -2.122308,-9.893228 1.567244,-5.942468 z"
       id="path1753" /><path
       style="fill:#00a515;fill-opacity:1;stroke:#000000;stroke-width:2.6154331;stroke-linejoin:bevel;stroke-dasharray:none;stroke-dashoffset:28.24667791"
       d="m 135.72889,543.85966 -2.57908,-6.74238 0.88129,-18.12087 0.88128,-18.12087 1.19689,-5.6282 1.19688,-5.6282 2.58126,-5.84592 c 1.41969,-3.21526 2.61042,-5.81676 2.64606,-5.78111 0.0959,0.0959 -3.95196,71.10741 -4.09951,71.91786 -0.11927,0.65516 -0.26356,0.33243 -2.70507,-6.05031 z"
       id="path2183"
       transform="matrix(0.26458333,0,0,0.26458333,26.245858,43.758585)" /><path
       style="fill:#00a515;fill-opacity:1;stroke:#000000;stroke-width:0.456448;stroke-linejoin:bevel;stroke-dasharray:none;stroke-dashoffset:28.2467"
       d=""
       id="path2185"
       transform="matrix(0.26458333,0,0,0.26458333,26.245858,43.758585)" /><path
       style="fill:#00a515;fill-opacity:1;stroke:#000000;stroke-width:0.456448;stroke-linejoin:bevel;stroke-dasharray:none;stroke-dashoffset:28.2467"
       d="m 245.97089,548.95611 c 0.0561,-3.02358 0.14543,-8.521 0.1985,-12.21648 0.0738,-5.13876 0.40207,-12.23986 1.39571,-30.19215 0.71456,-12.9102 1.31946,-23.74186 1.34422,-24.07036 0.0383,-0.50758 0.3042,-0.0227 1.77093,3.22864 l 1.7259,3.82591 1.56334,6.54454 1.56335,6.54455 -0.37001,8.55153 c -0.20351,4.70334 -0.67578,12.87093 -1.04949,18.15019 l -0.67947,9.59866 -3.69851,7.67893 c -2.03418,4.22341 -3.7363,7.7182 -3.78249,7.76619 -0.0462,0.048 -0.0381,-2.38658 0.018,-5.41015 z"
       id="path2187"
       transform="matrix(0.26458333,0,0,0.26458333,26.245858,43.758585)" /><path
       style="fill:#00a515;fill-opacity:1;stroke:#000000;stroke-width:1.29103;stroke-linejoin:bevel;stroke-dasharray:none;stroke-dashoffset:28.2467"
       d="m 321.90917,546.13123 -3.5421,-7.46382 -0.71587,-9.93629 c -0.39372,-5.46496 -0.8539,-13.71248 -1.0226,-18.32783 -0.30001,-8.20735 -0.27333,-8.52882 1.21533,-14.64522 0.83714,-3.43952 2.25245,-7.86399 3.14513,-9.83215 l 1.62306,-3.57847 1.35644,25.62799 c 1.04895,19.81842 1.91349,45.62435 1.52834,45.62012 -0.0251,-2.8e-4 -1.63957,-3.35923 -3.58773,-7.46433 z"
       id="path2189"
       transform="matrix(0.26458333,0,0,0.26458333,26.245858,43.758585)" /><path
       style="fill:#00a515;fill-opacity:1;stroke:#000000;stroke-width:1.29103;stroke-linejoin:bevel;stroke-dasharray:none;stroke-dashoffset:28.2467"
       d="m 433.2032,547.09983 c -0.42834,-3.40755 -3.86375,-65.87148 -3.67613,-66.84071 0.0932,-0.48164 1.2153,1.54726 2.49729,4.51556 3.71425,8.59992 4.60494,14.2271 5.54115,35.00739 l 0.77836,17.27671 -2.27404,5.92344 c -1.25072,3.25789 -2.34676,5.99933 -2.43564,6.09209 -0.0889,0.0928 -0.28282,-0.79576 -0.43099,-1.97448 z"
       id="path2191"
       transform="matrix(0.26458333,0,0,0.26458333,26.245858,43.758585)" /></g></svg>
