<?xml version="1.0" encoding="utf-8"?>
<!-- Generator: Adobe Illustrator 27.5.0, SVG Export Plug-In . SVG Version: 6.00 Build 0)  -->
<svg version="1.1"
	 id="svg5" xmlns:sodipodi="http://sodipodi.sourceforge.net/DTD/sodipodi-0.dtd" xmlns:inkscape="http://www.inkscape.org/namespaces/inkscape" xmlns:svg="http://www.w3.org/2000/svg" inkscape:version="1.2.2 (732a01da63, 2022-12-09)"
	 xmlns="http://www.w3.org/2000/svg" xmlns:xlink="http://www.w3.org/1999/xlink" x="0px" y="0px" viewBox="0 0 566.9 354.3"
	 style="enable-background:new 0 0 566.9 354.3;" xml:space="preserve">
<style type="text/css">
	.st0{fill:#FFFFFF;stroke:#000000;stroke-miterlimit:10;}
</style>
<sodipodi:namedview  bordercolor="#000000" borderopacity="0.25" id="namedview7" inkscape:current-layer="layer1" inkscape:cx="1649.3498" inkscape:cy="115.8589" inkscape:deskcolor="#d1d1d1" inkscape:document-units="mm" inkscape:pagecheckerboard="0" inkscape:pageopacity="0.0" inkscape:showpageshadow="2" inkscape:window-height="1377" inkscape:window-maximized="1" inkscape:window-width="5120" inkscape:window-x="-8" inkscape:window-y="-8" inkscape:zoom="0.457453" pagecolor="#ffffff" showgrid="false">
	</sodipodi:namedview>
<g id="layer1" inkscape:groupmode="layer" inkscape:label="Layer 1">
	<path id="path356" class="st0" d="M223.9,185.7l2.7-5.5l7.2-4.9l4.2-2.6l3.1-1.1l2.2-0.4l7.7,0l6.3,2.2l4.4,2.8l2.9,2.8l2.8,3.4
		l5.6,9.1l1.2,7.4l-1,10.5l-1.4,6.6l-2.9,5l-3.8,5.6l-4.3,3.6l-5.6,3.6l-5.2,0.8l-10.4-0.8L232,232l-4.9-4.3l-4.7-6.6l-3.2-7.5
		c0,0-1.6-3.2-1.7-3.8c-0.1-0.7,0.3-7.1,0.3-7.1l0.8-6.9l2.7-5.1L223.9,185.7z"/>
	<path id="path966" class="st0" d="M213.8,178.6l8.8-10.5l7.4-5l7-2.3l8.6-0.8l7.9,2.4l12.8,6.3l7,10.1l5.2,11.1l1.1,17.1l-4.2,19.2
		l-7.1,6.9l-9.1,6L244,241l-9.4-1l-7.2-2.6l-5.6-5.5l-5.8-7.1l-7.3-10.9c0,0-0.7-4.7-0.7-5.5c0.1-0.8-0.1-10.1-0.1-10.1l1.3-10
		l1.8-5.1l2.6-2.1L200.1,171l-2.8,6.3l-0.9,5.5l-1.3,10.3l-0.2,9.3l2.1,12l4.3,10.1c0,0,4.6,10.1,5.1,10.9c0.4,0.8,4.2,7.1,4.2,7.1
		l3.4,4l59.5,2.1l21.6-39.4l0.3-13.7l-0.5-8.8l-3.3-12.1l-1.4-6.5l-8.9-11.8l-9.1-8.3l-5.8-5.1l-14.6-1.8l-13.7,0.8l-7.9,2.8
		l-15.6,8.1l-10.1,11.5l-4.4,6.4l13.4,10.8L213.8,178.6z"/>
	<path id="path968" class="st0" d="M199.7,173.1c0,0,0-3.1,0.6-3c0.7,0.1,12.1,10.5,12.1,10.5l-1.2,2L199.7,173.1z"/>
	<path id="path970" class="st0" d="M269.2,145.2l6.1,0.1c0,0,13.5,9.5,14.3,10.1c0.8,0.6,10,9.6,10.2,10.6c0.2,1,6.6,13,6.6,13
		l3.5,12.9l-0.5,12l-14.1,5.4l-0.7-21.2l-5-20.8L269.2,145.2z"/>
	<path id="path1003" class="st0" d="M170.7,163.2l17.8-50.9l109.6-13.1l3.1-35.9l-125.2,6L163.5,113L170.7,163.2z"/>
	<path id="path1005" class="st0" d="M304.6,63.1l53,23.8l2.4,51.5c0,0-26.4,17.8-28.1,16.3c-1.7-1.5-34.6-43.3-34.6-43.3L304.6,63.1
		z"/>
	<path id="path1007" class="st0" d="M11.3,158.5l168,48.5l34.3,45.7c0,0,57.3,4.4,58.7,1.8c1.5-2.6,26.2-45.4,26.2-45.4
		s276-107.5,274.1-105.7c-1.9,1.8-206.1,160.9-207.7,160.2c-1.6-0.7-16.3-33.4-16.3-33.4l-44.4,24.6l11.4,54.1l-72,46.6
		c0,0-62.9-41.3-62.7-43.2c0.2-1.9,6.5-44.6,6.5-44.6L146.3,240l-6.3,32.9L14,173.5L3.5,155.1L11.3,158.5z"/>
	<path id="path1009" class="st0" d="M308.8,257.9l13.2,65.5l7,7.2l47.4-25.5l0-7.1l-29.4-62L308.8,257.9z"/>
	<path id="path1011" class="st0" d="M147.5,246.9c0.9,0.9,27.8,18.3,27.8,18.3l-2.6,57.5l-30.7-18L147.5,246.9z"/>
	<path id="path1013" class="st0" d="M316.6,195c0.7-3.4,7.3-19.1,7.3-19.1l29.8-16.4l34.7-56.6l37.4,17.6l-38.6,51.2
		c0,0-66.5,27.1-68.2,27C317.3,198.6,315.7,197.3,316.6,195L316.6,195z"/>
	<path id="path1017" class="st0" d="M418,130.3l11.5-6.7l20.1,21.1L384,173.4L418,130.3z"/>
	<path id="path1019" class="st0" d="M355.4,87.8l30.3-30.2c0,0,50.6,33.4,50.4,35.6c-0.2,2.2-1.8,28.3-1.8,28.3s13.4,20.3,13.7,17.1
		c0.3-3.3-12.6-73.9-12.6-73.9L352.4,4.4L221.9,6.7l-44.2,59.7l125-4.5L355.4,87.8z"/>
</g>
</svg>
