<?xml version="1.0" encoding="utf-8"?>
<!-- Generator: Adobe Illustrator 27.9.0, SVG Export Plug-In . SVG Version: 6.00 Build 0)  -->
<svg version="1.1"
	 id="svg982" xmlns:inkscape="http://www.inkscape.org/namespaces/inkscape" xmlns:sodipodi="http://sodipodi.sourceforge.net/DTD/sodipodi-0.dtd" xmlns:svg="http://www.w3.org/2000/svg" inkscape:export-filename="..\Equipment\CommandConsole.svg" inkscape:version="1.2.2 (732a01da63, 2022-12-09)"
	 xmlns="http://www.w3.org/2000/svg" xmlns:xlink="http://www.w3.org/1999/xlink" x="0px" y="0px" viewBox="0 0 137.6 128.6"
	 style="enable-background:new 0 0 137.6 128.6;" xml:space="preserve">
<style type="text/css">
	.st0{fill:#FFFFFF;}
</style>
<sodipodi:namedview  bordercolor="#000000" borderopacity="0.25" id="namedview984" inkscape:current-layer="layer1" inkscape:cx="-351.46431" inkscape:cy="190.12693" inkscape:deskcolor="#d1d1d1" inkscape:document-units="mm" inkscape:pagecheckerboard="0" inkscape:pageopacity="0.0" inkscape:showpageshadow="2" inkscape:window-height="1377" inkscape:window-maximized="1" inkscape:window-width="5120" inkscape:window-x="-8" inkscape:window-y="-8" inkscape:zoom="2.587745" pagecolor="#ffffff" showgrid="false">
	</sodipodi:namedview>
<g id="layer1" transform="translate(-95.404021,-73.221084)" inkscape:groupmode="layer" inkscape:label="Layer 1">
</g>
<g id="layer3" transform="translate(-95.404021,-73.221084)" inkscape:groupmode="layer" inkscape:label="Layer 2">
	<path id="path383" class="st0" d="M137.4,113.1v63.6l54.2,0.5l-0.2-63.8l-0.9-2l-1.4-2l-2.1-2.2l-2.1-1.8l-2.2-0.5l-2.2-1.7
		l-3.9-1.3l-4.3-1.3l-4.1-1.2l-4.3-0.3h-3.4l-2.4,0.5l-8.1,3l-6.5,2.2l-5.7,5.2l-0.3,2.5L137.4,113.1z"/>
	<path id="path385" class="st0" d="M127.5,85l0.9,56.9l-2.1,2.2l-0.3,13.2l5.5-0.2l-0.2-12.9l-2.3-2.6l-0.1-56.3l-0.2-0.4l-0.3-0.4
		l-0.7,0.1L127.5,85z"/>
	<path id="path387" class="st0" d="M123.6,157.6c-0.2,0.3-0.7,6.5-0.7,6.5l3.8,3.7l10.6,0.2l-0.2-2.5l-6.2-0.3v-4.6l6.6-0.1l-0.2-3
		L123.6,157.6z"/>
	<path id="path389" class="st0" d="M147,177.9l-0.2,5.9l6-0.3l-0.3-5.7L147,177.9z"/>
	<path id="path391" class="st0" d="M161.4,178.4v4.9l6.9-0.1v-5L161.4,178.4z"/>
	<path id="path393" class="st0" d="M177,178.3l-0.2,4.7l4,0.1l-0.1-4.8L177,178.3z"/>
	<path id="path395" class="st0" d="M133.5,184.9l0.3,8.2l61.4-0.2l-0.3-7.5L133.5,184.9z"/>
	<path id="path397" class="st0" d="M191.5,127.1c0.3,0,8.3,0.3,8.3,0.3s0.2,2.2,0.6,2.2c0.4,0,3.8-0.1,3.8-0.1l3.3,2.1l2.7,2.8
		l2.5,3.6l1.3,4.3l-0.3,7.8l-0.2,3.4c0,0-1,1.3-1.4,1.7c-0.3,0.3-3.2,2.5-3.2,2.5s-2.2,1.6-2.6,1.8c-0.3,0.2-3.3,1.1-3.3,1.1
		s-2.1,0.9-2.6,1c-0.4,0.1-5,0.5-5,0.5s-2.7,1-3,1c-0.3,0-2.1,0-2.1,0l0.2-4c0,0,2.1-0.5,2.6-0.7c0.5-0.2,3.7-0.4,4.4-0.6
		s4.7-0.8,5.2-1s2.1-0.7,2.6-0.9c0.4-0.3,2.3-1.1,2.7-1.7c0.3-0.6,0.9-1.7,1.3-2.1c0.3-0.4,0.9-0.7,0.9-1.5c0-0.8-0.3-7.3-0.3-7.3
		s0-1.3-0.3-1.7s-1.3-1.9-1.5-2.8c-0.2-0.8-1.2-2.5-1.5-2.8s-1.5-1.3-1.5-1.3l-1.9-1.2l-3.3-0.2l-0.3,8.4h-4.3l-0.6,10.8l-1,1.8
		l-1.5,1.1l-1.3,0.1V127L191.5,127.1z"/>
</g>
<g id="layer2" inkscape:groupmode="layer" inkscape:label="Layer 3">
	<path id="path594-4" d="M54.5,87.9l-1.9,1.7c0,0-0.3,12.5,0.2,12.6c0.4,0.1,3.2,0.2,3.2,0.2l0.2-13.1L54.5,87.9z"/>
	<path id="path594-7" d="M60.7,88.1l-1.9,1.7c0,0-0.3,12.5,0.2,12.6c0.4,0.1,3.2,0.2,3.2,0.2l0.2-13.1L60.7,88.1z"/>
	<path id="path594-8" d="M67,87.9l-1.9,1.7c0,0-0.3,12.5,0.2,12.6c0.4,0.1,3.2,0.2,3.2,0.2l0.2-13.1L67,87.9z"/>
	<ellipse id="path469-5" cx="61.4" cy="76.9" rx="4.2" ry="4.1"/>
	<ellipse id="path469" cx="49.9" cy="76.9" rx="4.2" ry="4.1"/>
	<path id="path594" d="M48.1,88l-1.9,1.7c0,0-0.3,12.5,0.2,12.6c0.4,0.1,3.2,0.2,3.2,0.2l0.2-13.1L48.1,88z"/>
	<rect id="rect696" x="80.7" y="50.4" width="9.8" height="25.1"/>
	<path id="path700" d="M94.6,80.8l-12.7-0.3l-0.5,14.3l13,0.3l0.4-3.9v-1.4l-6.1-0.2l-0.6-1.3l0.3-1.8c0,0,0.9-0.6,1.4-0.6
		s2.6-0.1,2.6-0.1l2.3-0.3L94.6,80.8z"/>
	<rect id="rect710" x="41.6" y="40.6" width="54.5" height="2"/>
</g>
</svg>
