<?xml version="1.0" encoding="utf-8"?>
<!-- Generator: Adobe Illustrator 27.7.0, SVG Export Plug-In . SVG Version: 6.00 Build 0)  -->
<svg version="1.1"
	 id="svg5" xmlns:svg="http://www.w3.org/2000/svg" xmlns:sodipodi="http://sodipodi.sourceforge.net/DTD/sodipodi-0.dtd" xmlns:inkscape="http://www.inkscape.org/namespaces/inkscape" inkscape:export-filename="Heavy_ECarbon.svg" inkscape:export-xdpi="96"
	 xmlns="http://www.w3.org/2000/svg" xmlns:xlink="http://www.w3.org/1999/xlink" x="0px" y="0px" viewBox="0 0 793.7 1122.5"
	 style="enable-background:new 0 0 793.7 1122.5;" xml:space="preserve">
<style type="text/css">
	.st0{fill:#FFFFFF;stroke:#000000;stroke-miterlimit:10;}
</style>
<sodipodi:namedview  bordercolor="#000000" borderopacity="0.27058824" id="namedview7" inkscape:deskcolor="#d1d1d1" inkscape:document-units="mm" inkscape:pagecheckerboard="0" inkscape:pageopacity="0" inkscape:showpageshadow="2" pagecolor="#ffffff" showborder="false" showgrid="false">
	</sodipodi:namedview>
<g id="layer2" inkscape:groupmode="layer" inkscape:label="Layer 2">
	<path id="path357" class="st0" d="M67.6,121.2l21.3,8.7l5.7,17.3l-0.7,7.1l-8.4,3.7l-3.9,17.1l14.1,7l-12.9,23.4l-6.3,1.2
		l-7.7,12.7l-0.7,1.4l14,1.4l-6.8,12.1l-12.2-2.3l-0.2-9.3l-10-3.6l-1.8-4.8l-9.7-5.4l-3.2,2.1l-2.7-1.2L32.7,181l3.9-1.6l0.9-8.7
		l3.6-7l-4.5-4.1L54,128.4L67.6,121.2z"/>
	<path id="path359" class="st0" d="M36.1,214.1l3.6,2l-1.8,1.8l8.6,5l3.4-1.2l8.4,3l0.9,9.8l-23.8,7.9l-14.5-7.7l4.5-9.8L36.1,214.1
		z"/>
	<path id="path361" class="st0" d="M88,233.7l-0.5,5.4l-5.2,1.1l-3.2,8.7L40,252.8l-14.7-2.1l2.9-7.1h12.5l31-5l6.6,0.2l2.9-5.4
		L88,233.7z"/>
	<path id="path363" class="st0" d="M92.1,233.4l-1.6,6.1l-5.9,1.6l-2.7,8.4l16.1-1.2l2.5-7.7l-3.2-7L92.1,233.4z"/>
	<path id="path365" class="st0" d="M88.2,222.1l21.8-6.8l0.2,3.6l-9.1,12.5L81.7,231L88.2,222.1z"/>
	<path id="path367" class="st0" d="M73.5,218.9l5.9-8.6l6.6-1.6l14.3-30l-12.7-5.5l2-11.8l9.1-4.8l0.5-9.3l-1.4-2.9l17-2l5.4,2
		l3.6,8.9l-2.3,21.4l-3.4,14.8l-9.7,23l1.1,0.9l-22.9,6.6L73.5,218.9z"/>
	<path id="path383" class="st0" d="M158,9.4l34-9.2l10,13.9l0.3,26.2l-31.6,8.5l-13.4-17L158,9.4z"/>
	<path id="path391" class="st0" d="M69.3,2.7c2.1,0.2,31.6,8,31.6,8l1.3,5.1L99,17l-6.8,2.2L86.1,24l-9.5,10.5l-0.3,13.2L60.1,41
		l-3.4-17.7l5.5-2.7l-1.1-6.7L69.3,2.7z"/>
	<path id="path1136" class="st0" d="M143.5,123.9l-3.4-13l4.2-5.4l13.2-4.9l10.3,16.8l-4.2,0.9l-2.1-3.1l-14.7,3.8l0.8,3.8
		L143.5,123.9z"/>
	<path id="path1138" class="st0" d="M94.8,105.8l4.7,18.6l10.5-0.9l-5.5-19.7L94.8,105.8z"/>
	<path id="path1140" class="st0" d="M101.4,127.7l1.6,3.1l20.3,0.4l2.1-4.9l-10.5,0.9L101.4,127.7z"/>
	<path id="path1142" class="st0" d="M108.1,56.8l6.9-0.2l7,9.8l0.4,6.2l-2.4,3.6l-9.7,0.2L107,58.8l0.9-1.7L108.1,56.8z"/>
	<path id="path1144" class="st0" d="M119.4,58.1l3.7-3.2l2-2.3l2-2.4l1.1-3.1l0.1-4.1l-1.7-3.4l-1.9-3.6l-0.1-0.3l4.6-2.4l1.7,1.6
		l1.9,4.3l1.5,9.1l2,4.8l1.8,2.8l-2.7,3.6l-2.1,2.3l-3.1,1.6l-3.4,2l-2.5,0.9h-1l-4.6-7.4L119.4,58.1z"/>
	<path id="path1146" class="st0" d="M97.7,48.8l2.5,0.5l2.2,2.6l1.4,2.5l1.4,1.1l1.4,0.8l-0.7,2.5l0.5,3.5l0.6,2.7
		c0,0-0.1,1.1-0.3,1.4c-0.2,0.3-10.5-9.1-10.5-9.1s-0.2-5.5-0.1-5.9C96.2,51.1,97.7,48.8,97.7,48.8L97.7,48.8z"/>
	<path id="path1148" class="st0" d="M96.3,66.7l0.1-4.9l4.6,3.1l2.7,1.4l3.4,1.8l0.5,7.1l-0.7,1.8l-0.6,1.4l-6.5,4L93,81.9l5.4-10
		L96.3,66.7z"/>
	<path id="path1150" class="st0" d="M123.9,68l3.4-1l4.2-1.7l3.7-2.5l2-2.1l1.8-2.6l1.6,5.3l1,2.6l2,1.8l3.2,0.6l3,0.3l-1,2.3
		l-0.1,1.5l1.1,2.1l0.9,2.3l-3.8,1.8l-0.1,1.5l-22.6,2.3l-1.4-6.4l1.5-4.3L123.9,68z"/>
	<path id="path375" class="st0" d="M77.4,80.6L98,84.4l-6.3,8.3l0.3,32.9l-10-6.3L80.9,104L73,92L77.4,80.6z"/>
	<path id="path377" class="st0" d="M98.5,87.5l6.8-7.6l10.3-0.2l2.4,4.7l-5,7.2l0.3,6l-8.2,3.8l-9.7,0.7l-0.3-9.4L98.5,87.5z"/>
	<path id="path379" class="st0" d="M124.1,83.7l30-2.7l1.3,11.6l-14,12.5L133,121l-15.8,5.1l-2.4-0.4l4.2-34.4L124.1,83.7z"/>
	<path id="path381" class="st0" d="M178.6,69.1l6.1-2.2l3.4,6.3l11.6-8l-2.1-8.5l4.2-3.4l15.3,3.1l2.6-1.8l18.7,23.7l3.4,10.1
		l-0.3,15.4l-2.4,3.1l-20-8.9l-13.2,10.1l-8.4-2.9l-11.9-15L178.6,69.1z"/>
	<path id="path385" class="st0" d="M134.3,32.7c1.1-1.1,6.6-7.4,6.6-7.4l10.8,0.7l15,27.7l-7.1,9.6l-14.2,3.1l-11.1-23.3V32.7z"/>
	<path id="path387" class="st0" d="M88.2,24.4l-9.7,10.3l0.3,23.9l5.5,4.5l10.5,2.2L95.3,49l2.4-14.5l-0.8-10.1H88.2z"/>
	<path id="path389" class="st0" d="M104,20.8l-5.5,14.3c0,0,1.1,6.5,2.1,6.9c1.1,0.4,6.1,1.3,7.6,0.9c1.6-0.4,7.1-3.8,7.1-3.8
		s4.7-8.7,5-10.1c0.3-1.3,1.1-8.3,1.1-8.3L104,20.8z"/>
	<path id="path381-6" class="st0" d="M79.3,61.7l-6.1-2.2l-3.4,6.3l-11.6-8l2.1-8.5l-4.2-3.4l-15.3,3.1l-2.6-1.8L19.5,70.8
		l-3.4,10.1l0.3,15.4l2.4,3.1l20-8.9l13.2,10.1l8.4-2.9l11.9-15L79.3,61.7z"/>
	<path id="path1297" class="st0" d="M148.2,129c1.4-0.4,18.9-4.9,18.9-4.9l5.9-0.6l22.6,33.6l-1.2,1.5l-4.4,2.2l7.6,19.5l10.5-1.5
		l10.1,28.6l1.9-0.2l3.7,16.6h-1.7l-4.8-11.8l-9,1.8l-4.7-3l-15,4.4l-1.2,4.1l-8.9,2.4l4.7,12.2l-6.7-4.4l-7.5-11.2l2.7-0.5
		l-12-17.9l-4.7-6.6l3.7-3.4l3,0.7l6.1-3l-8.1-18.9l-8.1,0.2l-8.1-36L148.2,129z"/>
	<path id="path1299" class="st0" d="M139.2,128.5l-0.9,22.2l4.2,5.3l4,14.1l-1.5,3.1l10,20l3.5-3.2l-8.7-19.2l1.8-2l-8.2-36l4.6-3.9
		l15.8-4l3.5-0.9l5.5-0.5l3.3,4.6l7.9,11.7l7.7,11.4l3.8,5.8l0.8,1.1l3.1,0.1l9.2,18.8l-0.5,1.8l10.2,28.6l0.9-0.2l-6.7-21.2
		l1.5-0.5l-11.7-28.8L184.6,129l-10.4-9.5l-3.5-1.7l-30,7.9L139.2,128.5z"/>
	<path id="path1301" class="st0" d="M181.6,223.6l8.1-2.7l2.7,1.5l14.4-3.7l-0.1-2.6l8.6-1.3l6,8.8l-1.2,13.1l-24.3,6l-11.9-9.5
		l-2.2-7.7L181.6,223.6z"/>
	<path id="path1303" class="st0" d="M181.8,235.1l-0.5,10.2l12,7.5l1.3,0.8l26.9-0.1l2.7-6.3l-1-8.9l-6.7,0.1l-0.5,4.4l-20.6,0.5
		l-11.2-9.2l-2.6-0.2L181.8,235.1z"/>
</g>
</svg>
