<?xml version="1.0" encoding="UTF-8"?>
<svg id="svg982" xmlns="http://www.w3.org/2000/svg" width="132.4" height="87.57" viewBox="0 0 132.4 87.57">
  <defs>
    <style>
      .cls-1 {
        fill: #fff;
        stroke-width: 0px;
      }
    </style>
  </defs>
  <g id="layer1">
    <path id="path502-9" class="cls-1" d="m9.93,79.63l13.03-25.6,7.82-7.07-21.6,39.18.74-6.51Z"/>
    <path id="path482" class="cls-1" d="m34.35,76.06l-6.46,1.95s-6.1.8-6.1,1.26-2.39,4.36-2.39,4.36l.96,2.18,17.95.92,9.69-1.49,7.66-5.51s-10.65,1.49-11.13,1.49-12.21-.34-12.21-.34l2.03-4.82Z"/>
    <path id="path484" class="cls-1" d="m46.8,48.5c0,.57-11.73,26.41-11.73,26.41l2.51,5.51h6.7s7.3-.46,7.3-.92.24-5.05.24-5.05l6.22-15.27-4.43-11.14-6.82.46Z"/>
    <path id="path486" class="cls-1" d="m39.85,23.35c-.12.57-3.59,6.43-3.59,6.43l8.62,18.03,8.5-.46,1.68,1.15,3.71,8.5,2.03.23,1.8-.23,2.15-2.18s1.2-1.72,1.2-2.41v-2.76c0-.46,0-1.49-.48-2.99s-.84-4.25-1.08-4.82c-.24-.57-.36-2.87-.36-3.56s.6-1.26,1.56-2.76c.96-1.49,3.95-5.05,4.55-5.97.6-.92,1.68-2.18,2.27-3.22.6-1.03.96-1.84,1.08-2.64.12-.8.72-1.84-.72-1.95-1.44-.11-1.8,0-2.39,0s-.84.23-1.91-.34c-1.08-.57-1.2-4.13-1.2-4.13,0,0,.12,0-.12-1.26-.24-1.26-.72-5.17-.72-5.17,0,0-.12-3.79-.12-4.59s-.48-2.99-.48-2.99c0,0-1.2-.69-1.8-1.03-.6-.34-3.47-1.26-3.95-1.38-.48-.11-1.56-1.03-3.11-.8-1.56.23-7.54,0-7.54,0h-3.11s-5.39,3.9-5.98,4.59c-.6.69-2.99,2.18-3.59,2.99-.6.8-1.44,4.82-1.32,5.63.12.8.24,1.26.48,2.76.24,1.49.36,2.18.36,3.9s-.12,4.13.12,4.71c.24.57,1.2,1.26,1.2,1.26l2.27-2.53Z"/>
    <path id="path488" class="cls-1" d="m68.1,2.1c-.12.69.24,16.88.84,17.11.6.23,7.42.46,10.41.46s4.79.11,6.34.11,3.83-.23,4.91-.23,2.27.11,2.87.11,1.32-.69,1.32-.69c0,0-.36-1.03.48-2.41.84-1.38,1.56-1.84,2.87-3.56s1.56-1.72,3.35-3.56c1.8-1.84,2.75-2.99,3.59-3.56.84-.57,4.91-3.33,4.19-3.45-.72-.11-2.15.23-6.7.34-4.55.11-13.04.23-15.08.34s-3.47-.34-5.86-.57c-2.39-.23-5.98-.8-7.66-.8s-5.86.34-5.86.34h0Z"/>
    <path id="path490" class="cls-1" d="m106.16,7.16c-.48.23-5.74,7.35-5.98,7.81-.24.46-.6-.92-.6,2.3v7.92c0,1.38-.24,5.4-.84,9.53-.6,4.13-1.32,5.4-.96,8.04s.36,2.76.96,3.79c.6,1.03.72,1.61,1.56,2.76.84,1.15,1.44,1.61,2.27,2.3s2.75,1.95,3.95,2.87,3.47,2.3,5.39,1.49c1.91-.8,3.23-1.03,4.91-1.84,1.68-.8,2.39.46,3.35-1.49s1.2-2.99,1.32-3.9c.12-.92.84-2.41.84-2.41,0,0,1.56-2.76,2.15-3.45.6-.69,2.87-1.95,2.15-4.13-.72-2.18-1.8-2.87-1.08-5.63.72-2.76.84-2.53.84-4.94s-.12-3.33-.96-5.17c-.84-1.84-1.44-11.02-1.32-11.48.12-.46,1.08-.23-.36-1.26-1.44-1.03-1.32-.46-1.91-2.3s-1.56-3.67-2.51-4.36c-.96-.69-.12-2.07-2.03-.92-1.91,1.15-3.83,2.64-5.27,3.33-1.44.69-4.55,1.26-5.86,1.15h0Z"/>
    <path id="path492" class="cls-1" d="m127.58,37.13s1.08,4.59.48,5.05.12-.11-.72,1.38c-.84,1.49-.96,1.26-1.91,3.33-.96,2.07-1.2,1.38-2.03,3.22-.84,1.84-.6,1.26-1.44,2.87s-.48,1.95-1.91,2.53c-1.44.57-2.27.46-2.99.57-.72.11-1.44-.46-2.75-.11-1.32.34-1.91-.11-2.51.69-.6.8-1.08,2.07-1.08,2.07v.8s.84-.46,1.8-.8c.96-.34,1.08-.46,1.91-.46s0,.8,3.23,1.38c3.23.57,3.11.92,5.03,1.15,1.91.23,3.35.34,3.35.34,0,0-.48,1.03.6,0,1.08-1.03,1.56-.23,1.68-2.64.12-2.41-.24-2.18.6-4.25.84-2.07.72-1.84,1.68-3.79.96-1.95,1.2-3.79,1.44-4.48.24-.69.48-.34.36-1.72-.12-1.38-.24-2.53-.72-4.02-.48-1.49-.12-1.61-.72-2.07-.6-.46-1.91-1.61-1.91-1.61l-1.44.57Z"/>
    <path id="path502" class="cls-1" d="m73.98,71.09l20.31-20.79,9.65-4.55-32.67,31.34,2.71-6.01Z"/>
    <path id="path502-1" class="cls-1" d="m76.98,80.42l14.31-15.19,6.8-3.32-23.02,22.9,1.91-4.39Z"/>
    <path id="path502-6" class="cls-1" d="m89.08,82.69l16.21-16.91,7.7-3.7-26.06,25.5,2.16-4.89Z"/>
    <path id="path502-7" class="cls-1" d="m.55,81.89l10.12-19.53,6.11-5.41L0,86.85l.55-4.95Z"/>
    <path id="path502-7-6" class="cls-1" d="m17.56,81.24l10.12-19.53,6.11-5.41-16.78,29.89.55-4.95Z"/>
  </g>
</svg>