<?xml version="1.0" encoding="utf-8"?>
<!-- Generator: Adobe Illustrator 27.9.0, SVG Export Plug-In . SVG Version: 6.00 Build 0)  -->
<svg version="1.1"
	 id="svg982" xmlns:sodipodi="http://sodipodi.sourceforge.net/DTD/sodipodi-0.dtd" xmlns:inkscape="http://www.inkscape.org/namespaces/inkscape" xmlns:svg="http://www.w3.org/2000/svg" inkscape:export-filename="..\Equipment\CommandConsole.svg" inkscape:export-ydpi="96" sodipodi:docname="Sensors.svg"
	 xmlns="http://www.w3.org/2000/svg" xmlns:xlink="http://www.w3.org/1999/xlink" x="0px" y="0px" viewBox="0 0 137.6 128.6"
	 style="enable-background:new 0 0 137.6 128.6;" xml:space="preserve">
<style type="text/css">
	.st0{fill:#F2F2F2;}
</style>
<sodipodi:namedview  bordercolor="#000000" borderopacity="0.25" id="namedview984" inkscape:current-layer="layer1" inkscape:cx="-59.227395" inkscape:cy="65.034002" inkscape:deskcolor="#d1d1d1" inkscape:document-units="mm" inkscape:pagecheckerboard="0" inkscape:pageopacity="0.0" inkscape:showpageshadow="2" inkscape:window-height="1377" inkscape:window-maximized="1" inkscape:window-width="5120" inkscape:window-x="-8" inkscape:window-y="-8" inkscape:zoom="7.3192481" pagecolor="#ffffff" showgrid="false">
	</sodipodi:namedview>
<g id="layer1" transform="translate(-95.404021,-73.221084)" inkscape:groupmode="layer" inkscape:label="Layer 1">
	<path id="path616" class="st0" d="M150.9,102.1l-7.7,3.1l-4.6,3.1l-4.6,3.9l-2.5,2.8l-2.4,2.9c0,0-0.9,1.7-1.4,2.3
		c-0.5,0.6-2,4.2-2,4.2s-1.1,3.2-1.4,4c-0.2,0.9-1.6,5.1-1.6,5.6c0,0.5,0.5,5,0.5,5.9s1,10.5,1.2,11.1c0.2,0.6,4.3,7.9,4.6,8.6
		c0.2,0.6,9.4,9.2,9.4,9.2l8.1,4.3l5.5,2.3c0,0,3.8,0.4,4.3,0.4c0.5,0,6.1,0.2,6.1,0.2l5.9-1l6.9-2.1l9.5-5.1l7.7-7.9
		c0,0,3-6,3.3-6.5c0.4-0.5,4-12.2,4-12.2l-0.4-8.1l-3.3-10l-7.2-10.6l-5.1-5.1l-8.4-4.6l-5.8-1.7c0,0-4-0.4-4.8-0.4
		c-0.9,0-4-0.1-4.6,0c-0.6,0.1-3.2,0.2-4.3,0.4C154.9,101,151.5,101.8,150.9,102.1L150.9,102.1z"/>
	<path id="path618" class="st0" d="M136.1,98.8l-6.8,4.2l-3.2,4.3l-5.6,7.6c0,0-2.8,3.9-3,4.9c-0.1,1-1.6,7.3-2.1,8.1
		c-0.5,0.7-0.9,6.1-0.9,7.5s-0.4,6,0.2,7.8c0.6,1.8,2.1,9.9,2.5,10.6c0.4,0.7,2.6,6.6,3.3,7.1c0.7,0.5,4.3,6,5,6.8
		c0.6,0.9,4.1,4.5,4.7,5.1c0.6,0.6,7.6,4.3,8.1,5c0.5,0.7,7.7,4.3,8.3,4.5c0.6,0.2,9.5,1.3,9.5,1.3s11.2,0,11.8,0
		c0.6,0,9.9-2.1,9.9-2.1s8.5-4.4,9-4.6c0.5-0.2,6.3-5.1,6.9-5.5c0.6-0.4,7.9-9.8,7.9-9.8l4.3-8.1c0,0,2.4-8.7,2.4-9.3
		s0.1-9.8,0.1-9.8l-0.9-5.5l-2.6-8.4l-5.9-11.5l-12-9.7l-11.5-6.6l-9.5-1l-9.2-0.1l-14.2,3.4l-5.9,3.1l-7.9-4.9c0,0,5-3.7,5.5-3.7
		c0.5,0,11.9-4.6,11.9-4.6l8.7-1.6c0,0,6.8-0.7,7.3-0.5c0.5,0.2,8.4,0.6,8.4,0.6l5.3,0.9l6.3,1.8l5.9,3.4l6.9,4.2l6.2,6.2l6.1,7
		l3.8,7.5l2.6,6l1.7,6.4l0.9,10.3v9l-3.1,12.7l-4.6,8.6l-8.7,10.1l-6.8,5.5l-7.3,4l-9.5,3.8l-9,1.8c0,0-6.9-0.2-8.1-0.2
		c-1.1,0-11.4-1.1-11.4-1.1l-9-3.2l-10.8-6.4l-7.4-6.2L115,169l-5.7-11.2l-2.5-10.4l-0.7-14.2l2.4-12.2l5.6-11.6l7.9-9.3
		c0,0,7.2-7,7.7-7c0.5,0,7.7,4.5,7.7,4.5L136.1,98.8z"/>
	<path id="path897" d="M155.4,148.2l0.4-4.5l5.1,0.2L155.4,148.2z"/>
	<path id="path897-2" d="M151.1,161.7l0.4-4.5l5.1,0.2L151.1,161.7z"/>
	<path id="path897-4" d="M167,161.3l0.4-4.5l5.1,0.2L167,161.3z"/>
	<path id="path897-24" d="M170.8,145.7l0.4-4.5l5.1,0.2L170.8,145.7z"/>
</g>
<g id="layer3" transform="translate(-95.404021,-73.221084)" inkscape:groupmode="layer" inkscape:label="Layer 2">
	<path id="path620" d="M154.7,101.6c-1.4,1-4,3.7-4,3.7l-5.2,9.5c0,0-2.7,8.8-2.8,9.3c-0.1,0.5-1.1,4.3-1.1,4.3l-2.1-0.2l-4,2.4
		l-3.3,4.8c0,0-0.5,1.1,0.4,0.9c0.9-0.2,2.5,0.1,2.6-0.4c0.1-0.5,1.2-2.6,1.2-2.6l2.8-2.3c0,0,1.5-0.5,1.4,0c-0.1,0.5-0.5,5-0.5,5
		l2.8-0.2v-4.4l2.5,0.4l3.2,2.9c0,0-0.4,1.7,0.1,1.7c0.5,0,0.2,2.3,0.2,2.3l50.2,0.1c0,0,1.1-2.9,0.4-2.9c-0.7,0-7.8-0.1-7.8-0.1
		s0.9-6,0.1-5.9c-0.7,0.1-2.8-0.1-2.8-0.1l0.1,6.5l-5.5,0.2l0.5-6.6h-3.3l-0.4,6.4l-5.5-0.1v-6.2l-2.8-0.1l0.1,6.4h-5.5l0.2-6.1
		l-2.5,0.1l0.4,5.7l-5.8,0.2l0.4-6l-3.6,0.1l0.5,5.7l-4.8,0.2l-0.5-2.8l-2.6-2.4l-2.5-1.8l-1.4-1.1c0,0,3.3-9.7,3.5-10.3
		c0.1-0.6,5.7-9.5,5.7-9.5l3.2-5.6l1.1-1.8L154.7,101.6z"/>
	<path id="path676" d="M123.4,136c1-0.2,11.8-0.1,11.8-0.1l7.7-0.1l6.9,0.5l1.9,2.7l-2.1,4.9l-4.6,3.5l-0.7,1.5c0,0,1.1,4,1.1,4.5
		s2.8,7.6,2.8,7.6s3.7,4.9,3.8,5.4c0.1,0.5,4.6,7.1,4.6,7.1l0.6,1.7l-4.5-1.3l-4-6l-4.7-7.5l-2.5-10.7l0.1-1.8l-7.1-3.7l-2.6-3.8
		v-1.7l2.5,0.1l1.7,4.5l3.7,2.1l0.5-6.5l2.6-0.5l0.1,6.2l2.1-0.6l3.1-2.8l0.5-2c0,0-0.2-0.7-0.7-1c-0.5-0.2-17.1,0.2-17.1,0.2
		l-8.1-0.1L123.4,136z"/>
	<path id="path678" d="M140.1,146.3l1.7,3.6l2.6,10.4l0.9-13.7L140.1,146.3z"/>
	<path id="path680" d="M141.1,130.4c0,0.7-0.9,15.2-0.9,15.2h3.2l-0.7-15.1L141.1,130.4z"/>
	<path id="path682" d="M151.2,133.1l1.1,3.1l-0.7,3.2l-1.8,4.4c0,0-0.8-1.3-0.8-1.7C148.9,141.7,151.2,133.1,151.2,133.1z"/>
	<path id="path684" d="M131.6,137.8l0.5,2.7l2.9,2.2l-0.4-4.2L131.6,137.8z"/>
	<path id="path686" d="M140.1,136l-0.4,10.1l3.1,0.1l-1.3-10.5L140.1,136z"/>
</g>
<g id="layer2" inkscape:groupmode="layer" inkscape:label="Layer 3">
	<ellipse id="path841" cx="64.7" cy="75.8" rx="2" ry="2.1"/>
	<path id="path787" class="st0" d="M68.2,75.5l-1.4,1.7l1.3,1.1l1.7-2L68.2,75.5z"/>
	<ellipse id="path841-3" cx="60.8" cy="89.4" rx="2" ry="2.1"/>
	<ellipse id="path841-1" cx="80.5" cy="73.4" rx="2" ry="2.1"/>
	<ellipse id="path841-6" cx="77.3" cy="89.7" rx="2" ry="2.1"/>
</g>
</svg>
