<?xml version="1.0" encoding="utf-8"?>
<!-- Generator: Adobe Illustrator 27.9.0, SVG Export Plug-In . SVG Version: 6.00 Build 0)  -->
<svg version="1.1"
	 id="svg4841" xmlns:inkscape="http://www.inkscape.org/namespaces/inkscape" xmlns:sodipodi="http://sodipodi.sourceforge.net/DTD/sodipodi-0.dtd" xmlns:svg="http://www.w3.org/2000/svg" inkscape:version="1.2.2 (732a01da63, 2022-12-09)"
	 xmlns="http://www.w3.org/2000/svg" xmlns:xlink="http://www.w3.org/1999/xlink" x="0px" y="0px" viewBox="0 0 309.6 240.1"
	 style="enable-background:new 0 0 309.6 240.1;" xml:space="preserve">
<style type="text/css">
	.st0{fill:#FFFFFF;}
</style>
<sodipodi:namedview  bordercolor="#000000" borderopacity="0.25" id="namedview4843" inkscape:current-layer="svg4841" inkscape:cx="152.0629" inkscape:cy="175.44233" inkscape:deskcolor="#d1d1d1" inkscape:document-units="mm" inkscape:pagecheckerboard="true" inkscape:pageopacity="0.0" inkscape:showpageshadow="2" inkscape:window-height="1377" inkscape:window-maximized="1" inkscape:window-width="5120" inkscape:window-x="-8" inkscape:window-y="-8" inkscape:zoom="2.5877449" pagecolor="#ffffff" showgrid="false">
	</sodipodi:namedview>
<g id="layer8" transform="translate(-30.10828,-60.748256)" inkscape:groupmode="layer" inkscape:label="Layer 2">
</g>
<g id="layer1" transform="translate(-30.10828,-60.748256)" inkscape:groupmode="layer" inkscape:label="Layer 1">
</g>
<g id="layer9" transform="translate(-30.10828,-60.748256)" inkscape:groupmode="layer" inkscape:label="Layer 3">
</g>
<path id="path636" class="st0" d="M215.8,150.1l19.8-35.5l2.7-5.4l3.7-9.8l2.2-11.6l-1.4-16.4l-1.4,6.4l-5.5,4.1l-4.2,1.5
	c0,0-3.5-1.1-4.7-1.6c-1.2-0.5-10.8-4.7-10.8-4.7L202,65.5L192,54.1l-7.1-10.3l-3.3-7.9l-3.4-8.6l-1.3-7.2l0.9-4.2
	c0,0,2.4-2.3,2.9-2.8c0.5-0.5,2.5-2.1,2.5-2.1l5.9-0.1L177.3,9l1.5,1.8l-4.7,3.1c0,0-0.4,2.6-0.9,3.1c-0.5,0.5-0.6,2.9-0.6,2.9
	s-0.4,0.8-0.1,1.8c0.3,1,1,4.3,1,4.3s1.1,1.8,0.5,2c-0.6,0.2-2.8,1.5-2.8,1.5l-0.1,3.2l3.7,7.8l3.2,7.8l8.8,12.4l7.3,7.9l9.8,9.7
	L208,81l2.7-2.9l7,5.2l5.7,3.1l1.6,1l10.6,0.7l1.5,8.7l-5.5-2.3l-18.6-5.7l-2,0.9l-22.8,33.9c0,0-5.9,9.9-6.4,11.2
	c-0.4,1.2,0,5.2,0,5.2s2.1,2.7,2.6,2.6C185,142.5,215.8,150.1,215.8,150.1L215.8,150.1z"/>
<path id="path638" class="st0" d="M191.5,110.6l3-1.8l12.3-22.5l-7.2-5.1l-8.7-8.8l-14.7-19.2l-8-16.4c0,0-0.5-6.2-1.1-6.2
	c-0.6,0-19.8,10.8-19.8,10.8l-2.6,5.4l22.1,40.2l12.7,14.5l11.3,9.2L191.5,110.6z"/>
<path id="path640" class="st0" d="M170.1,5.8c0,0-4.6,15.7-5.4,16.1c-0.8,0.5-40.9,32.6-40.9,32.6l-3.1-5.5l4.2-7.7
	c0,0,30.4-23.8,30.9-24.5c0.4-0.7,3.4-11.4,3.4-11.4L170.1,5.8z"/>
<path id="path642" class="st0" d="M176.6,138l-11.6-5l-9.5-8.4c0,0-5.3-4-5.3-4.7c0-0.7-12.3-17.7-12.3-17.7l-6.3-14.9l-0.9-15.7
	c0,0,2.5-3.2,3.2-3.6c0.7-0.4,0.7-0.9,1.8-0.1c1.1,0.8,3.3,3.3,4.1,3.5c0.8,0.2,3.6,3.3,3.6,3.3s0.2-1.1,0.8,1.3
	c0.6,2.4,1.3,3.8,2.3,6.6c1,2.8,2.3,5.9,3.5,7.5c1.2,1.5,3.6,6.2,4.2,7.6c0.7,1.4,4.5,5.9,6.6,8.3c2,2.5,5.8,6,6.4,6.6
	c0.6,0.7,4.1,3.4,4.5,4.1c0.5,0.7,2.9,9.5,2.9,9.5l3,6.8l1.4,2L176.6,138z"/>
<path id="path644" class="st0" d="M165.7,155.9l-12.2-3l-0.1-4.6l13,2.9L165.7,155.9z"/>
<path id="path646" class="st0" d="M151.6,154l-4.3-0.8l-3.8,0.6c0,0-2.2,2.2-2.7,2.9c-0.6,0.7-0.8,0.8-0.8,0.8l-18.7,22.1l-7-11.4
	l7-6.2l2.6-5.4l0.5-3.8l0.3-1.3l11.8-9l2.7-5.9l6.9,5.6l4.9,4.3L151.6,154z"/>
<path id="path648" class="st0" d="M127.2,150.2l2.8-7.4l-0.5-8l-2.4-5.7l-7.7-7.4l-5-1.1l-2.2,1.5l10,7c0,0,2.8,6.3,2.9,7.2
	c0.1,0.9,0.9,8.1,0.4,9.7c-0.5,1.6-2.4,5.5-2.4,5.5l0,1.1L127.2,150.2z"/>
<path id="path650" class="st0" d="M120.5,154.2c0,0,2.5-5,2.3-5.6c-0.2-0.7-0.8-11.4-0.8-11.4s-4.7-6.5-5.1-7.4
	c-0.4-0.9-3.8-3.5-4.4-4.3c-0.7-0.8-2.7-1.5-2.7-1.5s-3.2,0.6-4,1.1c-0.8,0.5-4.8,4.4-4.8,4.4s-1.4,4-1.7,5.1
	c-0.3,1-0.6,2.9-0.7,4.2c-0.1,1.3,1,6.4,1.8,7.4c0.7,1,3.7,5.5,4,6.2c0.3,0.8,2.3,1.7,3.2,2.8c0.9,1.1,2.9,1.8,3.8,2.2
	c0.9,0.4,3.7,0.1,3.7,0.1L120.5,154.2z"/>
<path id="path652" class="st0" d="M108,172.1c0.3-1.3,2.4-5.5,2.2-6.3c-0.2-0.8-1.1-7.8-1.1-7.8s-0.1-0.9-0.8-1.9
	c-0.7-1-8.7-10.8-8.7-10.8s-3,0-4.4,0.1c-1.3,0.1-4.5,1.8-5.2,2.9c-0.6,1.1-1.6,2.2-2,3.5c-0.4,1.4-0.4,1.9-0.6,3.4
	c-0.2,1.5-0.7,4.2-0.5,5c0.2,0.8,1.4,5,2.4,6.8c0.9,1.8,2.8,3.3,3.7,4.4c0.9,1.1,2.3,2.4,3.5,3c1.2,0.6,4.1,1,4.1,1l2.2,0.1
	L108,172.1z"/>
<path id="path654" class="st0" d="M197.9,148.1l-2.6,4l-6.4,1.2l-9.4-9.3l-2-4.3l1.8-2.3c0,0,1.8,3.5,2.5,3.9
	c0.7,0.5,4.7,2.4,5.8,2.9c1,0.5,3.3,0.4,4,0.9c0.7,0.5,3.1,3.3,3.1,3.3L197.9,148.1z"/>
<path id="path656" class="st0" d="M240.8,58.5l-3.5-9.4L228.8,35l-8.2-9.4c0,0-11.6-8.7-12.4-9.1c-0.7-0.5-9.2-4-9.2-4l-6-0.9
	c0,0-3.1-0.2-4.1,1.3c-1,1.4-2.4,1.8-2.7,4.3c-0.2,2.6-0.1,6.6,0.5,8.5c0.6,1.9,2.3,6.6,3.6,8.8s9,11.9,9.7,12.9s9.7,8.7,9.7,8.7
	l9.7,8.1l6,4.6l6.7,1.4l6.1-1.5l1.8-3l0.2-3.4L240.8,58.5z"/>
<path id="path658" class="st0" d="M111.9,120.2c0.7-0.4,4.9-9.2,4.9-9.2l4.3-11c0,0,2.1-6.6,2.5-7.8c0.4-1.2,1.6-4.8,2.3-7
	c0.6-2.2,2-5.3,2.5-7.8c0.6-2.5,1.4-9.9,1.5-11.2c0.1-1.3,0-3.6,0-3.6l-5.7-7.4l-2.6-3.5c0,0-2.2,3.1-3.1,4.3c-0.9,1.2-2.5,5-3.2,7
	c-0.7,2-2.1,7.8-2.5,10.5c-0.4,2.6-2.5,10.5-2.5,12.5c-0.1,2,1,7.8,0.4,10.4c-0.6,2.5-2.2,13.4-2.7,14.7c-0.6,1.3-2.3,4.7-3.6,6.5
	c-1.4,1.7-3.5,4.1-4.2,5c-0.7,0.9-6.2,9.3-6.9,9.9c-0.6,0.6-1.5,1.1-1.9,2.5c-0.4,1.4-0.2,6.5-0.2,6.5s1.2,2.8,1.9,3.1
	c0.7,0.3,3.7-2.2,4.1-2.9c0.4-0.7,1.3-5.1,1.4-5.8c0.1-0.8,0.6-3.4,1.3-4.5c0.6-1.1,2.9-5.1,4.1-6.1c1.1-0.9,4.3-3.1,5.4-3.7
	C110.4,120.8,111.9,120.2,111.9,120.2L111.9,120.2z"/>
<path id="path660" class="st0" d="M166.5,171.8c-0.2,0.8-14.8,17.9-15.4,17.9c-0.6,0-17.3-2.4-17.3-2.4l16.9-18.8L166.5,171.8z"/>
<path id="path662" class="st0" d="M150.7,202.5c0,0-12.1,2.5-13,2.5c-0.9,0-20.9-5-20.9-5s-14.9-13.7-15.8-14.8
	c-0.9-1.1-11.3-13.6-11.4-14.3c-0.2-0.7-6.9-17.3-6.9-17.3s-2-10-2.4-11.8s2.1-15.9,2.2-16.8c0.1-0.9,5.5-9.9,6.5-11.7
	c1.1-1.8,3.8-2.8,4.9-3.5c1-0.7,3.1-2.9,3.2-1.1c0.1,1.7-5.6,14.8-6.5,16.5c-0.9,1.7-1.4,4.7-1.1,6.4c0.3,1.7,0.7,2.1,1,3.4
	c0.3,1.3,0.6,5.1,0.9,6.4c0.3,1.3,0.8,3.8,1.5,3.6c0.7-0.2,3.7-2,4.4-0.5c0.7,1.5,10.5,27.2,10.5,27.2s6.9,6.6,7.4,7.4
	c0.5,0.7,10.2,9.7,10.2,9.7l13.8,2.8l13.8,1.2c0,0,13.2-13,12.6-12.3c-0.6,0.7-3.6,11.2-3.6,11.2s-7.7,7.7-8.3,7.9
	C153.2,199.7,150.7,202.5,150.7,202.5L150.7,202.5z"/>
<path id="path664" class="st0" d="M134.3,215.8l-4.5,7.8l-9.2,7.2l-13,1.9L95,229.4l-12.1-7.6l-9.5-9.1l-8.1-11.9l-5.2-13.3
	l-0.8-19.1c0,0,1.2-10.6,1.9-11c0.7-0.4,3.1-5.2,4.2-6.5c1.2-1.3,6-6.9,6.2-5.8c0.3,1.1-0.1,6.8,0,8.9c0.1,2.1,1.1,7.6,1.6,10.8
	c0.5,3.2,4.4,13,6.3,16.1s12.2,16.8,12.5,18c0.3,1.1,12.8,9.7,13.3,10.2c0.4,0.6,8,4.1,9.4,4.7c1.4,0.6,11.6,1.9,12.9,2.2
	C128.8,216.3,134.3,215.8,134.3,215.8L134.3,215.8z"/>
<path id="path666" class="st0" d="M120.6,49.9L89.2,99.8l-16.7,26.2l-0.7,19.1l1-0.5l1.2-18.9l47.7-75L120.6,49.9z"/>
<path id="path690" class="st0" d="M209.1,148.2l-29.9,37l-45.5,31.6L131,223c0,0,51.2-35.2,51.6-35.8c0.4-0.6,30.1-38.4,30.1-38.4
	L209.1,148.2z"/>
<path id="path692" class="st0" d="M170.9,154.5c0.1,0.9-0.9,10-0.9,10l10.6,4.3l0.4-10.3L170.9,154.5z"/>
<path id="path694" class="st0" d="M132.8,94.9L121.7,108l3.7,5.9l-7,7.8l2,2.3l8.8-8.8l-5.1-8.2l11.3-12.9l-1.2-1.8L132.8,94.9z"/>
<path id="path696" class="st0" d="M124.9,127.8c0.3-0.5,19.6-17.9,19.6-17.9l1.1,0.8l-19.8,18.2L124.9,127.8z"/>
<path id="path698" class="st0" d="M128.9,133.6l10.5-9.7l6.4,1.3l6.3-5.9l1.7,1.5l-6.3,5.4l-1.1,1.1l-7.1-1.4l-10.8,8.9L128.9,133.6
	z"/>
<path id="path700" class="st0" d="M148.5,125.3l14.1,14.8l-6,9.6l1.7,0.5l6.9-10.3l-15.9-15.8L148.5,125.3z"/>
</svg>
