<?xml version="1.0" encoding="UTF-8"?>
<svg id="svg5" xmlns="http://www.w3.org/2000/svg" width="511.26" height="279.01" viewBox="0 0 511.26 279.01">
  <defs>
    <style>
      .cls-1 {
        fill: #fff;
        stroke-width: 0px;
      }
    </style>
  </defs>
  <g id="layer1">
    <path id="path356" class="cls-1" d="m6.61,204.9c1.53,0,31.02,1.45,31.02,1.45l5.08-2.03-1.27-1.45,19.32-25.29,9.41-4.07-1.02-6.98.51-1.45,3.56-1.74,2.29-2.91v-1.45l-4.07-1.45-2.8-12.5h6.36l.25-4.07-6.36-.58,5.08-17.15,24.41-13.08,18.05.29-8.9-8.72-8.9-9.88-17.29-38.36-1.02-7.85,17.8-1.16,56.18,52.02,22.88-16.57-.76-8.72,3.56-4.94-5.85-11.33.76-52.6,18.81-2.33,28.98,54.93,26.44-5.23,5.85,2.62,9.15-1.45,4.07,3.78,18.81-2.62,10.93,9.88,5.34,11.92-6.86,5.81,10.42-.29,1.53-3.49,93.56-3.78,40.68-1.16,40.17,31.1,28.47,31.68-8.14,35.75-12.46,11.04-5.08.58-6.1,12.79-14.49,16.28-35.08,6.68-10.68-3.49-16.27,1.45-3.31-2.91-25.68.29-1.27,2.33h-42.96l-26.19-.87-68.39-1.74-1.02-2.91.51-3.78-4.32-11.92h-28.47l-9.41-8.14-9.66.29-9.41,6.68-6.86.29-5.85,4.94-35.59-.87-1.78,4.07-15,8.72-4.07-2.33-58.22,36.33-5.59,4.94.51,29.64-24.66,1.16-7.37-21.8-7.37-6.98-1.53-27.9,3.56-2.03-.51-8.14,3.56-7.27Z"/>
  </g>
</svg>