<?xml version="1.0" encoding="UTF-8" standalone="no"?>
<!-- Created with Inkscape (http://www.inkscape.org/) -->

<svg
   width="107.12734"
   height="110.0002"
   viewBox="0 0 28.344109 29.104218"
   version="1.1"
   id="svg1652"
   xml:space="preserve"
   inkscape:version="1.2.1 (9c6d41e410, 2022-07-14)"
   sodipodi:docname="legthruster.svg"
   xmlns:inkscape="http://www.inkscape.org/namespaces/inkscape"
   xmlns:sodipodi="http://sodipodi.sourceforge.net/DTD/sodipodi-0.dtd"
   xmlns="http://www.w3.org/2000/svg"
   xmlns:svg="http://www.w3.org/2000/svg"><sodipodi:namedview
     id="namedview1654"
     pagecolor="#ffffff"
     bordercolor="#000000"
     borderopacity="0.25"
     inkscape:showpageshadow="false"
     inkscape:pageopacity="0.0"
     inkscape:pagecheckerboard="true"
     inkscape:deskcolor="#d1d1d1"
     inkscape:document-units="mm"
     showgrid="false"
     showborder="false"
     inkscape:zoom="5.1754899"
     inkscape:cx="213.60297"
     inkscape:cy="30.142074"
     inkscape:window-width="5120"
     inkscape:window-height="1377"
     inkscape:window-x="-8"
     inkscape:window-y="-8"
     inkscape:window-maximized="1"
     inkscape:current-layer="layer5" /><defs
     id="defs1649" /><g
     inkscape:label="Layer 1"
     inkscape:groupmode="layer"
     id="layer1"
     style="display:inline"
     transform="translate(-146.61272,-104.80716)" /><g
     inkscape:groupmode="layer"
     id="layer5"
     inkscape:label="Layer 2"
     transform="translate(-146.61272,-104.80716)"><path
       id="path1841"
       style="fill:#ffffff;stroke-width:0.110246"
       d="m 168.83182,109.19213 0.64921,0.0819 c 0,0 0.19048,-0.009 0.3046,0.0301 0.11402,0.0397 0.23273,-0.0545 0.23273,-0.0545 l -0.2197,-0.73232 -0.28435,-0.6314 -0.20148,-0.26868 -0.52918,-0.0165 -0.52325,0.009 -0.0313,0.32316 c 0,0 0.15921,0.31365 0.23698,0.42414 0.0778,0.11048 0.0829,0.36272 0.11248,0.49227 0.0296,0.12955 0.25334,0.34232 0.25334,0.34232 z m 0.36943,0.92733 0.31168,0.82779 0.24823,0.0901 0.22451,-0.0138 0.18231,0.0315 0.10904,-0.21268 -0.19107,-0.37641 -0.005,-0.25227 -0.5751,-0.0642 z m 2.34191,5.88169 -0.24963,-0.24959 -0.18879,-0.44323 -0.22658,-0.53183 -0.18403,-0.57689 -0.14797,-0.64773 -0.3703,-0.70098 0.0641,-0.10106 0.49285,0.0874 c 0,0 0.36827,0.15555 0.37783,0.2742 0.01,0.11865 0.4842,1.35278 0.4842,1.35278 0,0 0.16815,1.04459 0.24862,1.08821 0.0799,0.0439 0.14871,0.42139 0.14871,0.42139 l -0.14109,0.14985 z m 0.52567,1.53414 -0.39399,-0.80462 -0.005,-0.25225 0.4069,0.0179 c 0,0 0.2347,0.49095 0.2725,0.57959 0.0377,0.0886 0.0958,0.57413 0.0958,0.57413 l -0.27053,-0.0341 z m -4.15158,-6.88913 -0.37964,-0.8486 0.4571,-0.16765 0.0804,0.89383 z m 1.18121,1.43017 -0.7019,-2.25928 2.56409,0.43644 0.14205,-0.0829 -2.76685,-0.40298 0.6746,2.35666 z m -0.32711,0.30271 0.57659,-0.29491 1.88704,0.29167 0.27776,0.0233 0.0857,-0.11372 -0.13159,-0.0876 -1.85038,-0.23952 -0.56706,0.0114 -0.56302,0.46268 z m 4.6313,7.6983 c 0.10642,-0.14602 0.59163,-0.62984 0.6621,-0.70482 0.0702,-0.0752 0.13526,-0.78811 0.13526,-0.78811 0,0 -0.48716,0.55078 -0.58553,0.65587 -0.0984,0.1051 -0.21153,0.83719 -0.21153,0.83719 z m -0.31396,-0.76096 0.21126,-0.22498 -0.16269,-1.01863 -1.07834,-3.87692 -0.62697,-1.74827 0.17268,-0.47299 -0.57743,-1.60781 -0.031,-0.2891 0.0102,-0.10773 1.47576,1.55347 0.72998,2.1219 1.74469,3.65073 -0.81448,1.80109 -0.90966,1.00074 z m -1.50354,-0.52532 1.27819,0.76526 -1.23559,0.18791 c 0,0 -0.36663,-0.60825 -0.35029,-0.69007 0.0161,-0.0819 0.30771,-0.26307 0.30771,-0.26307 z m -2.23089,-5.54896 2.86636,6.64406 -0.818,-0.51429 c 0,0 -2.87501,-5.37866 -2.81865,-5.43864 0.0564,-0.06 0.77031,-0.69115 0.77031,-0.69115 z m -5.26989,-2.8293 0.084,-0.47587 c 0,0 -0.21161,-0.77321 -0.17897,-0.93683 0.0323,-0.16369 -0.009,-0.73087 -0.009,-0.73087 l 0.007,-0.42681 0.0513,-0.31225 c 0,0 -0.24519,-0.38321 -0.2243,-0.59867 0.0209,-0.21544 -0.0294,-0.7418 -0.0294,-0.7418 l 0.0122,-0.17442 0.37586,-0.27127 0.28807,0.11213 3.75841,1.73263 -0.41363,0.18262 -0.41506,0.0231 -0.33498,0.0668 -0.35587,0.28219 -0.0809,0.18269 0.16293,0.40638 0.28438,0.6314 0.2488,0.47595 c 0,0 0.18373,0.19094 0.22148,0.2796 0.0379,0.0885 0.0703,0.53725 0.0703,0.53725 l 0.1488,0.42139 -0.32834,0.47861 -0.21721,0.19905 -0.44996,0.25351 -0.25137,0.20309 -0.0633,0.26039 -0.20828,-0.0682 -0.23645,-0.0379 c 0,0 -0.17863,0.0614 -0.29867,-0.005 -0.11979,-0.0658 -1.37145,-1.02027 -1.37145,-1.02027 l -0.48527,-0.5142 z m -6.30385,-4.5954 1.18204,0.1912 0.32124,0.94642 0.0133,0.21135 1.12996,0.72979 0.20042,1.10728 0.0456,0.27404 1.476,0.94121 1.43869,-0.37192 -0.19794,-1.78634 -0.0813,-0.20321 -1.29,-0.8171 -0.10005,-0.0545 -0.12854,-1.02272 0.37955,-0.17853 -0.16151,-0.24685 -0.34968,-0.30416 -0.16597,-0.11326 -2.94371,-0.31294 -0.68187,0.0817 z m -2.71443,6.59365 2.6848,-2.89017 0.0753,0.40358 -2.67583,2.62289 -0.23412,-0.1051 z m -0.30376,-0.25643 1.66448,-1.83641 0.0251,0.26319 -1.53779,1.70138 z m 0.22909,-0.14719 2.29713,-2.67072 0.31418,0.1487 -2.76709,2.91333 z m -0.23556,-0.2646 2.13988,-2.43894 0.23414,0.10511 -2.26445,2.50709 z m -0.15328,-0.28775 2.06127,-2.32306 c 0,0 0.26457,0.008 0.15189,0.12819 -0.11284,0.11987 -2.19435,2.43191 -2.19435,2.43191 z m 0.74776,2.19962 c -0.0518,-0.0737 -1.2552,-2.65792 -1.2552,-2.65792 l -0.31015,-2.89084 2.56169,-2.66249 1.69821,-0.61594 -0.0279,1.02812 -2.0924,0.4236 -0.0452,0.11168 2.08199,-0.31585 0.3328,7e-5 0.54238,0.22788 0.12857,0.41049 0.0206,0.39682 0.10741,0.24002 0.86846,0.42834 0.27195,0.19366 0.0129,0.82364 -0.004,0.51952 c 0,0 -1.11411,0.41291 -1.04141,0.2711 0.0725,-0.14184 0.12194,-0.99948 0.12194,-0.99948 l -0.29558,-0.29733 -0.25416,-0.116 -0.1327,0.10907 -0.0794,0.34226 c 0,0 0.13327,0.27683 0.12356,0.38443 -0.0103,0.10768 -0.13953,0.3095 -0.13953,0.3095 l -0.0806,0.1827 -0.59595,0.15124 -0.19638,-0.0163 -1.52584,-0.46942 -1.64091,1.93998 1.19149,2.53245 z m 15.51329,8.41693 -0.60162,-0.48692 -0.48952,-0.99281 -1.70218,-4.30794 -1.65795,-3.80753 0.21124,-0.22497 c 0,0 0.41729,-0.0899 0.52775,-0.14309 0.11043,-0.0532 0.40997,-0.27534 0.40997,-0.27534 l 0.25318,-0.27013 0.0957,-0.42409 -0.14214,-0.62181 0.275,-0.0995 c 0,0 0.2294,0.85095 0.28692,0.95052 0.0578,0.0995 0.31167,0.82778 0.31167,0.82778 l 0.37705,0.50054 0.28885,0.49777 0.40186,1.37594 0.69298,1.80692 0.48952,0.99278 0.70424,1.47286 0.4534,0.45146 0.70556,0.022 0.35037,0.0783 0.39792,0.28506 0.002,0.31907 -2.24813,2.42526 z m -2.85778,3.58966 0.3068,-0.037 3.10745,-3.34005 -0.35987,-0.1967 z m -7.73115,-10.61322 c 0.18602,0.12409 1.55885,1.30397 1.65296,1.33263 0.0941,0.0287 2.59801,4.93268 2.59801,4.93268 l 1.93801,3.9603 1.11221,0.65202 0.4632,-0.0424 3.27506,-3.67955 c 0,0 -0.27562,-0.28642 -0.40034,-0.21804 -0.12455,0.0682 -3.12747,3.32913 -3.12747,3.32913 l -0.33867,-0.026 -0.99145,-2.42331 -1.08415,-2.29244 -0.0777,-0.7227 0.70271,-0.2971 -1.35557,-3.71062 -0.2266,-0.53185 -1.47057,0.30916 -0.91011,0.002 -0.73515,-0.1515 -0.73082,-0.28495 z m -6.69562,6.03228 -0.21957,0.26583 c 0,0 0.0117,0.0518 0.11188,0.10639 0.10007,0.0545 0.30378,0.25644 0.30378,0.25644 l 0.45873,0.0915 c 0,0 0.32459,0.0412 0.42097,0.003 0.0964,-0.0382 0.31808,-0.37082 0.31808,-0.37082 l -0.39564,-0.35189 -0.35642,-0.10375 -0.36095,0.0301 z m 8.21483,-7.58503 0.16879,0.43229 0.28808,0.11214 0.50684,0.0727 0.45729,-0.0681 0.23359,-0.28083 c 0,0 0.0388,-0.1377 -0.0673,-0.21821 -0.10587,-0.0805 -0.39195,-0.25919 -0.39195,-0.25919 l -0.3365,-0.0927 -0.2846,-0.0192 c 0,0 -0.24456,0.003 -0.335,0.0668 -0.0905,0.0641 -0.22316,0.17313 -0.23947,0.25494 z m -0.91725,-0.79519 1.13328,-0.17565 0.99471,-0.0922 0.54101,0.0682 0.54839,0.25376 1.11907,0.4514 c 0,0 0.46038,-0.36125 0.32036,-0.43763 -0.14002,-0.0765 -1.12854,-0.57025 -1.2827,-0.63163 -0.15411,-0.0614 -2.71545,-0.2338 -2.83182,-0.20654 -0.1163,0.0273 -0.7895,0.45387 -0.7895,0.45387 z m 2.1091,0.49277 c 0.0564,-0.06 0.648,-0.68985 0.648,-0.68985 l 0.56247,0.23875 -0.66439,0.77162 z m -2.55528,1.46387 0.43791,0.30691 0.39279,0.0328 0.24982,-0.36269 0.1975,-0.20978 0.34457,0.0521 0.14,0.0764 0.0978,0.12139 -0.23361,0.28084 -0.22572,0.23974 0.4328,0.0547 0.34683,-0.0149 0.24687,-0.0695 0.28674,-0.048 0.59002,-0.17714 0.44997,-0.25351 0.3877,-0.21945 0.25724,-0.17721 0.24542,-0.22901 c 0,0 0.11501,-0.18678 0.13131,-0.26858 0.016,-0.0819 -0.0206,-0.39682 -0.0206,-0.39682 l -0.28295,-0.47187 -0.29189,-0.20463 -0.55649,-0.21287 c 0,0 -0.22602,-0.14597 -0.46238,-0.18421 -0.23651,-0.0379 -0.64329,-0.0561 -0.64329,-0.0561 l -0.65369,0.0519 -0.59593,0.15126 -0.43139,0.10486 -0.20089,0.11724 -0.38317,0.0859 0.18258,-0.58084 0.52092,-1.553 0.72185,-0.06 0.53735,-0.0245 0.41726,-0.0899 c 0,0 0.34092,-0.0411 0.49511,0.0205 0.15409,0.0614 0.49421,0.24693 0.49421,0.24693 0,0 0.41643,0.13651 0.46834,0.21006 0.0519,0.0737 0.49934,0.49919 0.49934,0.49919 l 0.58529,0.56874 0.34152,0.34508 c 0,0 0.0466,0.43362 0.0904,0.54816 0.0436,0.11458 0.0888,0.38864 0.0984,0.50727 0.01,0.11866 0.008,0.34499 0.008,0.34499 l -0.27444,0.48537 -0.40853,0.43488 -0.63087,0.38166 -0.62411,0.1812 -0.95097,0.20702 -0.91238,0.0693 -0.9338,-0.10113 -0.5306,-0.17597 -0.64834,-0.30837 -0.12964,-0.18411 z m -5.29692,-2.02749 1.06213,5.56911 0.49139,-0.0721 -1.06969,-5.14233 z m 0.56762,5.93444 0.44307,-0.66551 -0.13231,-1.11543 -0.16426,-0.56594 1.1237,3.53876 -0.37138,0.13764 z m 7.09264,2.14522 c 0,0 -0.39512,-1.57642 -0.34465,-1.66231 0.0506,-0.0858 -0.61333,-2.76138 -0.61333,-2.76138 l -0.88988,-0.59883 -0.8991,0.28069 -0.13235,1.1072 -0.19657,0.59584 0.10216,0.59999 -0.0594,0.35314 -0.01,0.49362 -0.34709,0.62716 -0.65646,0.73058 -0.52684,-0.0836 -0.23784,-0.19777 -0.215,0.13221 -0.14533,0.2836 0.38972,0.32599 4.16043,0.88595 z m -4.9685,-0.28343 3.05174,10.21529 0.52669,0.69556 0.47365,-0.14992 2.82652,-3.26646 0.9821,-2.14062 0.12253,-0.61358 -1.39111,-3.86608 -0.84703,-0.25792 -0.74842,-0.36288 -4.25704,-0.23554 z m 3.70885,-9.90692 c -0.0928,0.13084 -1.71811,6.04845 -1.71811,6.04845 l -0.12534,0.29449 -0.78162,1.02524 -0.44438,-8.38478 1.73291,-0.23414 1.5856,1.11443 -0.32176,0.2781 z m -3.67476,9.90283 0.43955,-0.14579 0.30544,-0.19631 0.34172,-0.26718 0.38857,-0.44579 c 0,0 0.078,-0.50178 0.0685,-0.62043 -0.01,-0.11865 -0.0539,-0.61908 -0.0539,-0.61908 l -0.1792,-0.32457 -0.1237,-0.1582 0.38488,-0.53853 0.21124,-0.22497 -1.06504,-7.49859 -0.82275,0.23162 -0.31306,0.62309 -1.44286,1.50366 0.29595,1.29545 -0.2854,0.20724 -0.26181,-1.29958 -0.64579,0.623 1.5502,6.40239 0.2399,0.74319 z m -5.00441,2.396 1.12321,0.93024 3.04827,9.51033 0.98992,0.65339 0.28679,-0.0479 3.35318,-2.57093 0.31441,-0.46356 -0.0192,-0.23726 -0.43728,0.079 -0.39137,0.12673 c 0,0 -1.058,0.96516 -1.21071,1.0633 -0.15277,0.0981 -1.34709,1.07964 -1.34709,1.07964 l -0.47817,0.28353 -0.22222,-0.0533 -0.12744,-0.25092 -0.0998,-0.66681 -0.26128,-0.91365 -0.2494,-0.86185 -0.20776,-0.68053 c 0,0 -0.1361,-0.59591 -0.16575,-0.72546 -0.0296,-0.12954 -0.28575,-0.79094 -0.28575,-0.79094 0,0 0.006,-0.35998 0.002,-0.4527 -0.004,-0.0927 0.043,-0.27132 0.13358,-0.3354 0.0905,-0.0641 0.47815,-0.28352 0.47815,-0.28352 0,0 -0.23675,-1.03638 -0.20637,-1.13319 0.0303,-0.0969 -0.37455,-1.17957 -0.37455,-1.17957 l -0.21147,-1.38545 -0.0776,-0.72271 -0.44915,0.0271 -0.95098,0.20702 -0.77376,-0.0138 -0.75149,-0.0698 z m 0.88806,-0.38532 c 0,0 0.19964,0.0609 0.26624,0.081 0.0661,0.0208 0.4449,0.0502 0.4449,0.0502 0,0 0.89043,-0.0596 0.93029,-0.10193 0.0395,-0.0425 0.61744,-0.22451 0.61744,-0.22451 l 0.4676,-0.33834 0.25773,-0.38861 -0.0272,-0.33554 -0.3322,-0.26136 -0.10061,-0.006 c 0,0 0.0726,0.26425 0.0518,0.33262 -0.0217,0.0683 -0.26014,0.59582 -0.30001,0.63822 -0.0395,0.0425 -0.10859,0.22945 -0.26895,0.28631 -0.16038,0.0568 -0.44868,0.20431 -0.54511,0.21587 -0.0966,0.0111 -0.5262,0.0819 -0.6169,0.0642 -0.0905,-0.0175 -0.35845,-0.0512 -0.46903,-0.0474 -0.11065,0.004 -0.23947,-0.0183 -0.23947,-0.0183 z m -1.20031,-0.86323 c 0,0 0.10684,0.25073 0.15337,0.29219 0.0466,0.0415 0.33736,0.39251 0.33736,0.39251 l 0.14407,0.14275 -0.24668,-0.37514 -0.1434,-0.3028 -0.0811,-0.30087 0.24822,-0.37783 0.23905,-0.2545 0.45968,-0.10201 0.42976,-0.0703 c 0,0 0.45229,-0.0258 0.50888,0.005 0.0568,0.0308 0.21954,0.0395 0.3102,0.057 0.0905,0.0175 0.15883,-0.009 0.15883,-0.009 l 0.14369,-0.13011 -0.88563,-0.0821 -0.64519,0.0489 c 0,0 -0.41303,0.14355 -0.48115,0.17056 -0.0681,0.027 -0.5431,0.44148 -0.5431,0.44148 l -0.086,0.27384 z m 1.25097,-0.21594 0.22059,0.15239 0.41994,0.21348 0.27932,-0.0241 0.15783,-0.12239 -0.042,-0.18322 c 0,0 -0.2614,-0.2228 -0.31804,-0.25363 -0.0568,-0.0308 -0.30184,-0.0203 -0.30184,-0.0203 l -0.28093,0.0713 z m 0.93664,-0.29095 c 0,0 0.3361,-0.42609 0.40992,-0.48204 0.074,-0.0559 0.0691,-0.18694 0.0691,-0.18694 l -0.9522,-0.1024 c 0,0 -0.74996,0.0239 -0.8422,0.0537 -0.0923,0.0299 -0.48115,0.17055 -0.48115,0.17055 l -0.24108,0.029 0.41995,-0.49261 2.80478,0.13468 c 0,0 0.74083,0.53241 0.84821,0.62306 0.10733,0.0907 0.30846,0.53714 0.30846,0.53714 l -0.19864,0.0521 -0.12416,-0.16395 c 0,0 -0.20326,-0.23916 -0.25985,-0.27002 -0.0565,-0.0307 -0.52024,-0.38004 -0.58423,-0.33471 -0.0639,0.0453 0.007,-0.0762 -0.19028,0.0887 -0.19762,0.16482 -0.49645,0.48296 -0.49645,0.48296 l -0.19185,0.13592 -0.21798,-0.0869 z m -2.50861,1.05327 0.52443,0.39834 c 0,0 0.27521,-0.0421 0.31501,-0.0847 0.0397,-0.0426 0.32036,-0.38655 0.32036,-0.38655 l 0.19864,-0.0521 0.45297,0.24666 -0.27156,0.22072 -0.1397,0.14832 0.33867,0.0721 0.55548,0.0464 0.77316,-0.1393 c 0,0 0.4911,-0.18117 0.5734,-0.20044 0.0823,-0.0191 0.48116,-0.17056 0.48116,-0.17056 0,0 0.32711,-0.30269 0.37694,-0.3557 0.05,-0.0529 0.15996,-0.32971 0.16733,-0.40588 0.007,-0.0762 -0.0436,-0.29594 -0.0979,-0.37412 -0.055,-0.0781 -0.26977,-0.25945 -0.35306,-0.35299 -0.0834,-0.0935 -0.62665,-0.35785 -0.69321,-0.37811 -0.0662,-0.0208 -0.57644,-0.138 -0.65294,-0.1477 -0.0764,-0.01 -0.76249,-0.0311 -0.76249,-0.0311 l -1.11741,0.0959 -0.45864,0.21492 0.0839,-0.49944 0.3944,-0.8754 1.96509,-0.88468 0.34532,0.15626 c 0,0 0.26719,0.19387 0.31803,0.25364 0.0508,0.0598 0.40387,0.41276 0.40387,0.41276 l 0.33478,0.32693 0.25763,0.47735 0.31961,0.20642 0.53182,0.32217 c 0,0 0.17915,0.24204 0.22576,0.2835 0.0466,0.0415 0.10682,0.25071 0.11773,0.35296 0.0107,0.10222 -0.10918,0.38949 -0.10918,0.38949 0,0 -0.11271,0.21116 -0.17989,0.35093 -0.0671,0.1398 -0.36177,0.47622 -0.36177,0.47622 l -0.50429,0.28625 -0.67243,0.14645 -0.56184,0.14258 -0.88783,0.12516 -0.77665,-0.0387 -0.69437,-0.0581 -0.56802,-0.10141 -0.56588,-0.30864 -0.075,-0.0569 z m -4.60331,-2.76689 1.90629,-2.00502 0.22804,0.13572 -2.06358,1.98726 z m -0.27375,-0.24005 1.74536,-1.866 0.22876,0.11883 -1.85914,1.86632 z m -0.25321,-0.24584 0.12833,-0.12847 0.11723,0.149 -0.0874,0.17352 z m 0.0824,-0.0798 0.15691,0.13091 1.74368,-1.81588 c 0,0 -0.13674,-0.0235 -0.15582,-0.0113 -0.0191,0.0123 -0.28837,0.19426 -0.28837,0.19426 l -1.44323,1.4638 z m -0.10817,-0.16673 1.59612,-1.61854 0.0695,0.055 -1.6486,1.71466 -0.0574,-0.1728 z m 3.73742,-4.93248 c 0,0 0.69189,0.34534 0.74748,0.2634 0.0556,-0.082 0.0469,-0.25502 -0.0265,-0.27914 -0.0736,-0.0244 -0.71928,-0.0315 -0.71928,-0.0315 z m -0.66797,0.0847 0.73696,-0.13515 c 0,0 0.0513,-0.1566 -0.0155,-0.17693 -0.0663,-0.0208 -0.55869,0.048 -0.55869,0.048 0,0 -0.15092,-0.0103 -0.19736,0.0848 -0.0465,0.095 0.0343,0.17938 0.0343,0.17938 z m -0.0811,1.05431 c -0.007,-0.0604 0.17656,-1.17871 0.17656,-1.17871 l -0.32418,0.0718 c 0,0 -0.0912,0.71203 -0.12561,0.80556 -0.0343,0.0935 0.27316,0.30137 0.27316,0.30137 z m 1.52427,-0.70014 -0.0919,-0.0502 -0.0121,-0.135 z m -0.027,0.53023 0.16141,-0.16055 -0.17892,-0.59501 -0.0585,0.4493 z m 0.12382,0.46042 -0.20222,-0.12641 0.004,-1.1768 z m -1.02707,-1.51451 0.25315,0.10637 c 0,0 0.46244,0.1 0.49074,0.11537 0.0283,0.0152 0.15213,0.2594 0.15213,0.2594 l 0.0704,0.41508 -0.0568,0.40205 c 0,0 0.0408,0.15037 0.073,0.1842 0.0325,0.0337 0.16317,0.14517 0.22684,0.17986 0.0639,0.0346 0.4799,0.36605 0.51528,0.38533 0.0356,0.0191 0.20881,0.0738 0.22401,0.11459 0.0155,0.0405 0.0703,0.11861 0.0483,0.21068 -0.0223,0.0921 -0.0897,0.31188 -0.0871,0.37746 0.002,0.0654 8.2e-4,0.32927 -6.1e-4,0.37652 -0.002,0.0473 -0.0296,0.30467 -0.024,0.35579 0.006,0.051 0.0258,0.30275 0.0258,0.30275 l 0.37122,0.24257 0.43774,0.26284 0.45193,0.27057 0.33296,0.23774 1.04378,-0.33674 0.26712,-0.15902 0.11189,-0.18753 -0.0857,-0.37558 c 0,0 -0.0303,-0.21749 -0.0247,-0.26996 0.006,-0.0525 0.10838,-0.58235 0.10838,-0.58235 l -0.0677,-0.26952 -1.00096,-0.72239 -0.76672,-0.61874 -0.78297,-0.63559 -0.23604,-0.19287 0.007,-0.29265 0.51916,-0.87151 -0.0466,-0.23437 -0.12295,-0.0513 -2.20387,-0.29603 z m -2.91348,5.89227 c 0,0 0.31246,-0.20378 0.29431,-0.16833 -0.0184,0.0355 0.0798,1.4611 0.0798,1.4611 0,0 0.21682,-0.0858 0.22202,-0.13974 0.005,-0.054 -0.0805,-1.54086 -0.0805,-1.54086 l 1.6697,-1.58409 0.45076,-0.47987 0.68884,0.21695 -0.18839,7.91488 -0.26035,0.47036 -0.39924,0.36058 -0.35845,-0.14978 -0.92079,0.7225 -0.0904,0.86925 -0.61014,0.47232 -0.19301,-0.11663 -0.99213,-8.25264 z m -0.40116,0.63119 0.76579,7.63471 0.16716,0.0271 0.43355,-0.32485 -0.0714,-1.01725 1.00454,-1.02372 0.0938,-0.0771 0.17116,0.47828 0.26299,0.17553 0.44513,-0.38265 0.13729,-0.21386 0.0242,-8.13398 -0.43753,-0.12649 0.27961,-2.0286 0.81131,-0.13481 -0.0857,0.11373 1.11859,0.72245 -0.16785,1.70466 1.62113,0.91633 -0.4172,0.12525 -0.9233,2.4633 -0.80837,2.04487 -0.7052,2.11722 -0.81685,0.86953 -0.32526,-0.17759 -0.69674,0.5822 -0.20057,0.9651 -0.73339,0.53014 -0.2373,-0.22567 -0.74906,-7.56142 z m -0.71872,-4.38333 -0.002,1.67721 0.0603,1.03088 0.67526,1.72916 0.48347,-0.64349 -0.64305,-0.66829 -0.16293,-0.40638 1.34791,-1.30599 0.26092,-0.0844 1.32495,0.58664 0.47901,-0.50986 0.20385,-2.02077 -0.49199,-0.31378 -0.24008,-0.13094 0.23605,-0.95989 0.50542,-0.0875 0.24953,-1.36082 -1.69005,0.57505 z"
       inkscape:transform-center-x="-2.1452697"
       inkscape:transform-center-y="0.7061282" /></g></svg>
