<?xml version="1.0" encoding="UTF-8" standalone="no"?>
<!-- Created with Inkscape (http://www.inkscape.org/) -->

<svg
   width="152"
   height="114.735"
   viewBox="0 0 40.216666 30.356968"
   version="1.1"
   id="svg1652"
   xml:space="preserve"
   inkscape:version="1.2.1 (9c6d41e410, 2022-07-14)"
   sodipodi:docname="thruster.svg"
   xmlns:inkscape="http://www.inkscape.org/namespaces/inkscape"
   xmlns:sodipodi="http://sodipodi.sourceforge.net/DTD/sodipodi-0.dtd"
   xmlns="http://www.w3.org/2000/svg"
   xmlns:svg="http://www.w3.org/2000/svg"><sodipodi:namedview
     id="namedview1654"
     pagecolor="#ffffff"
     bordercolor="#000000"
     borderopacity="0.25"
     inkscape:showpageshadow="false"
     inkscape:pageopacity="0.0"
     inkscape:pagecheckerboard="true"
     inkscape:deskcolor="#d1d1d1"
     inkscape:document-units="mm"
     showgrid="false"
     showborder="false"
     inkscape:zoom="1.2938725"
     inkscape:cx="207.51659"
     inkscape:cy="54.874032"
     inkscape:window-width="5120"
     inkscape:window-height="1377"
     inkscape:window-x="-8"
     inkscape:window-y="-8"
     inkscape:window-maximized="1"
     inkscape:current-layer="layer5" /><defs
     id="defs1649" /><g
     inkscape:label="Layer 1"
     inkscape:groupmode="layer"
     id="layer1"
     style="display:inline"
     transform="translate(-139.23155,-103.84832)" /><g
     inkscape:groupmode="layer"
     id="layer5"
     inkscape:label="Layer 2"
     transform="translate(-139.23155,-103.84832)"><path
       id="path1841"
       style="fill:#ffffff;stroke-width:0.133565"
       d="m 174.95395,126.07148 0.0166,0.69228 c 0,0 0.0506,0.19512 0.0193,0.32279 -0.0318,0.12768 0.12087,0.22799 0.12087,0.22799 l 0.96013,-0.40386 0.80899,-0.44649 0.32827,-0.27337 -0.0824,-0.5522 -0.1168,-0.53981 -0.44915,0.0454 c 0,0 -0.39831,0.24041 -0.53429,0.34755 -0.13602,0.10716 -0.48075,0.17312 -0.65244,0.23497 -0.17158,0.0621 -0.41891,0.34481 -0.41891,0.34481 z m -1.1977,0.60586 -1.07274,0.52207 -0.0742,0.27882 0.0634,0.2293 -0.007,0.19643 0.3132,0.0618 0.47799,-0.2885 0.34475,-0.066 -0.0262,-0.61124 z m -7.59697,3.84125 0.29256,-0.31869 0.57,-0.30226 0.684,-0.36268 0.75409,-0.32968 0.85846,-0.30914 0.88728,-0.55227 0.15123,0.0421 -0.0219,0.53158 c 0,0 -0.14009,0.41896 -0.30078,0.45743 -0.16073,0.0385 -1.75812,0.82708 -1.75812,0.82708 0,0 -1.39826,0.42593 -1.44222,0.51934 -0.044,0.0934 -0.54805,0.25551 -0.54805,0.25551 l -0.23352,-0.10988 z m -1.99847,0.91364 1.02464,-0.60174 0.34475,-0.066 0.0564,0.42581 c 0,0 -0.62632,0.36131 -0.74032,0.42176 -0.11396,0.0604 -0.76791,0.23739 -0.76791,0.23739 l -0.007,-0.28845 z m 8.61855,-5.9584 1.08778,-0.59745 0.32056,0.43318 -1.20921,0.29829 z m -1.7258,1.5678 2.95741,-1.2707 -0.0891,2.76134 0.1418,0.12719 0.003,-2.96335 -3.09629,1.26586 z m -0.47983,-0.26609 0.5187,0.52639 -0.0251,2.0251 0.0233,0.29332 0.17285,0.0613 0.0941,-0.1574 -0.0391,-1.97458 -0.12823,-0.5847 -0.74598,-0.47197 z m -9.63243,6.65007 c 0.22129,0.0751 0.98077,0.46141 1.09754,0.51636 0.11675,0.0549 1.10712,-0.0495 1.10712,-0.0495 0,0 -0.85167,-0.37218 -1.01513,-0.4491 -0.16346,-0.0769 -1.18953,-0.0177 -1.18953,-0.0177 z m 0.98069,-0.50834 0.35029,0.16477 1.36393,-0.41361 5.09994,-2.04987 2.27181,-1.07023 0.68262,0.0651 2.08914,-0.98507 0.39011,-0.10165 0.14972,-0.0152 -1.83632,1.9026 -2.76354,1.2667 -4.65757,2.68581 -2.63046,-0.41046 -1.55223,-0.70177 z m 0.42155,-1.68404 -0.79516,1.50828 -0.50285,-1.23482 c 0,0 0.76092,-0.52616 0.8763,-0.52892 0.11538,-0.003 0.42171,0.25546 0.42171,0.25546 z m 7.16292,-3.64618 -8.5378,4.56799 0.54248,-0.97119 c 0,0 6.80161,-4.27249 6.89502,-4.22854 0.0934,0.044 1.1003,0.63174 1.1003,0.63174 z m 2.83175,-6.1402 0.66893,-0.0275 c 0,0 1.01783,-0.40527 1.24857,-0.4108 0.23074,-0.006 0.99995,-0.18553 0.99995,-0.18553 l 0.58652,-0.0949 0.43816,-0.022 c 0,0 0.47661,-0.34619 0.77604,-0.37645 0.29945,-0.0302 1.01095,-0.20887 1.01095,-0.20887 l 0.24174,-0.0288 0.44645,0.32412 -0.0965,0.32542 -1.62867,4.31047 -0.33244,-0.38458 -0.11408,-0.42441 -0.15797,-0.33102 -0.45744,-0.30078 -0.2665,-0.0398 -0.52469,0.26653 -0.809,0.44649 -0.60295,0.37231 c 0,0 -0.22526,0.23627 -0.33926,0.29672 -0.11396,0.0604 -0.72249,0.202 -0.72249,0.202 l -0.54805,0.25551 -0.72122,-0.22499 -0.31596,-0.17715 -0.43683,-0.40516 -0.3283,-0.21151 -0.3695,-0.003 0.0521,-0.23215 0.005,-0.2541 c 0,0 -0.11957,-0.1703 -0.0536,-0.31042 0.066,-0.14009 1.12617,-1.66627 1.12617,-1.66627 l 0.60846,-0.62642 z m 5.04723,-7.63624 -0.0274,1.27056 -1.23343,0.56053 -0.28706,0.0646 -0.77597,1.34619 -1.47793,0.47405 -0.36671,0.11277 -0.99705,1.75555 0.79545,1.40097 2.40921,-0.63483 0.26236,-0.13321 0.86384,-1.53301 0.0549,-0.11675 1.3763,-0.37924 0.32007,0.35024 0.3063,-0.22667 0.34747,-0.43545 0.12227,-0.19918 -0.15552,-3.12491 -0.24729,-0.68677 z m -9.57677,-1.22572 4.49456,2.08606 -0.53829,0.1749 -4.12646,-2.14103 0.0976,-0.26785 z m 0.29115,-0.37639 2.84758,1.28267 -0.35575,0.0893 -2.63739,-1.18377 z m 0.24728,0.2019 4.1168,1.7372 -0.14146,0.36126 -4.54265,-2.16572 z m 0.31589,-0.30772 3.7679,1.6301 -0.0976,0.26784 -3.88604,-1.74273 z m 0.36397,-0.22805 3.59345,1.57654 c 0,0 0.0413,0.27608 -0.14557,0.1882 -0.18683,-0.0878 -3.76927,-1.68778 -3.76927,-1.68778 z m -2.86654,1.3038 c 0.0907,-0.0714 3.39395,-1.93982 3.39395,-1.93982 l 3.90088,-1.01682 4.15804,2.01328 1.18145,1.61112 -1.41478,0.21852 -0.99604,-2.06578 -0.16202,-0.0198 0.84633,2.0809 0.066,0.34476 -0.20462,0.61675 -0.53705,0.23215 -0.53982,0.1168 -0.30766,0.16899 -0.41474,1.00276 -0.21149,0.32831 -1.12634,0.21164 -0.71288,0.12091 c 0,0 -0.78717,-1.05483 -0.57838,-1.01365 0.20881,0.0411 1.39419,-0.11415 1.39419,-0.11415 l 0.34885,-0.37775 0.1085,-0.29122 -0.17584,-0.11126 -0.48488,9e-5 c 0,0 -0.353,0.20468 -0.50271,0.21983 -0.14973,0.0151 -0.45191,-0.0701 -0.45191,-0.0701 l -0.26648,-0.0397 -0.32561,-0.581 -0.0166,-0.2074 0.34048,-1.69367 -2.98491,-1.23319 -3.23463,1.84365 z m -8.45684,18.09644 0.54798,-0.74041 1.26364,-0.74599 5.56687,-2.79987 4.88973,-2.63365 0.35029,0.16477 c 0,0 0.20608,0.41067 0.30086,0.51232 0.0948,0.10159 0.45882,0.35847 0.45882,0.35847 l 0.42036,0.19772 0.60025,-0.003 0.82411,-0.29681 0.19094,0.26097 c 0,0 -1.12079,0.44245 -1.24577,0.5262 -0.12502,0.0838 -1.07273,0.52206 -1.07273,0.52206 l -0.6112,0.51104 -0.62494,0.419 -1.80619,0.7474 -2.33912,1.15266 -1.26362,0.74599 -1.87898,1.08392 -0.52878,0.57833 0.10996,0.73623 -0.0377,0.38181 -0.31176,0.48079 -0.43679,0.0797 -3.77066,-1.74548 z m -5.4877,-2.09694 0.11126,0.30905 5.19515,2.41566 0.19771,-0.42035 z m 13.01239,-10.56274 c -0.13318,0.22255 -1.47781,1.92865 -1.49841,2.03305 -0.0206,0.10434 -6.24533,3.87823 -6.24533,3.87823 l -5.04354,2.96054 -0.67293,1.30909 0.15024,0.46961 5.69375,2.50764 c 0,0 0.33787,-0.35442 0.21975,-0.46703 -0.11817,-0.11261 -5.18415,-2.43901 -5.18415,-2.43901 l -0.0316,-0.35712 3.12476,-1.61014 2.92695,-1.67468 0.9752,-0.25423 0.54676,0.65652 4.81695,-2.2971 0.68402,-0.36269 -0.71578,-1.44907 -0.18414,-0.94225 0.0617,-0.79806 0.24546,-0.82566 z m -9.59777,-5.4852 -0.40796,-0.16349 c 0,0 -0.0687,0.0246 -0.12361,0.14152 -0.0549,0.11675 -0.29117,0.37639 -0.29117,0.37639 l -0.0343,0.49725 c 0,0 0.008,0.34616 0.0797,0.43679 0.0715,0.0907 0.57145,0.24031 0.57145,0.24031 l 0.40379,-0.49454 0.0714,-0.39421 -0.11277,-0.36672 z m 12.02776,6.68549 -0.55904,0.27885 -0.0965,0.32543 10e-4,0.54256 0.18413,0.45737 0.43132,0.1744 c 0,0 0.19643,0.007 0.28569,-0.12229 0.0893,-0.1291 0.27743,-0.46842 0.27743,-0.46842 l 0.0603,-0.37088 -0.0302,-0.29945 c 0,0 -0.0522,-0.25273 -0.15797,-0.33103 -0.10574,-0.0783 -0.2816,-0.18954 -0.39698,-0.18678 z m 0.90783,-1.14155 0.46575,1.13178 0.32419,1.00822 0.0138,0.5769 -0.23895,0.62914 -0.39654,1.26794 c 0,0 0.58656,0.39004 0.66347,0.22655 0.0769,-0.16347 0.55755,-1.30634 0.61111,-1.48079 0.0536,-0.17444 -0.21867,-2.8694 -0.27913,-2.9834 -0.0604,-0.11396 -0.77889,-0.7087 -0.77889,-0.7087 z m -0.25667,2.30353 c 0.0934,0.044 1.07419,0.50537 1.07419,0.50537 l -0.21553,0.64014 -1.18958,-0.50262 z m -2.51387,-2.29503 -0.33374,0.52749 0.033,0.41482 0.54673,0.17157 0.32691,0.15383 -0.003,0.3695 -0.0769,0.16346 -0.14694,0.13049 -0.43135,-0.1744 -0.37361,-0.17578 0.011,0.46152 0.0893,0.35575 0.14424,0.23901 0.12229,0.28567 0.35994,0.56864 0.43683,0.40517 0.37777,0.34886 0.29397,0.22387 0.36265,0.19909 c 0,0 0.27884,0.0742 0.39422,0.0714 0.11538,-0.003 0.53981,-0.1168 0.53981,-0.1168 l 0.5906,-0.40664 0.22249,-0.35166 0.1813,-0.62772 c 0,0 0.15522,-0.26924 0.16066,-0.52335 0.005,-0.25411 -0.0509,-0.67992 -0.0509,-0.67992 l -0.20088,-0.66473 -0.32561,-0.58099 -0.22943,-0.42166 -0.20057,-0.17993 -0.19375,-0.37632 0.83239,0.0494 2.2321,0.16602 0.22554,0.73339 0.14015,0.55081 0.20607,0.41067 c 0,0 0.1237,0.34338 0.0701,0.51786 -0.0536,0.17442 -0.2403,0.57143 -0.2403,0.57143 0,0 -0.10439,0.46428 -0.19497,0.53572 -0.0907,0.0715 -0.58509,0.6374 -0.58509,0.6374 l -0.66337,0.74317 -0.40518,0.43685 c 0,0 -0.58513,0.15248 -0.73339,0.22554 -0.14835,0.0728 -0.5151,0.18544 -0.67579,0.22394 -0.16074,0.0385 -0.47115,0.092 -0.47115,0.092 l -0.71977,-0.16754 -0.6772,-0.31862 -0.64838,-0.56174 -0.37231,-0.60296 -0.4726,-0.93537 -0.27617,-0.92851 -0.0468,-0.99173 0.13586,-0.59204 0.29392,-0.74588 0.22663,-0.17858 z m 1.72737,-5.97529 -7.42264,2.44021 0.19647,0.49173 6.83613,-2.34537 z m -8.02157,2.01583 1.00015,0.29888 1.50266,-0.40541 0.74307,-0.30642 -4.62743,2.0155 -0.2624,-0.35162 z m -1.53217,7.86392 c 0,0 2.08228,-0.78863 2.21003,-0.75702 0.12769,0.0318 3.66323,-1.29976 3.66323,-1.29976 l 0.64413,-1.06597 -0.56327,-0.86392 -1.54389,0.12926 -0.85576,-0.0603 -0.8021,0.2502 -0.49587,0.0234 -0.67853,0.10859 -0.92857,-0.20867 -1.13187,-0.50401 0.01,-0.56592 0.22387,-0.29397 -0.22392,-0.19091 -0.41758,-0.0823 -0.36944,0.48216 -0.38832,4.52326 z m -0.59801,-5.21545 -13.39606,5.61924 -0.84883,0.71296 0.29949,0.45465 5.03851,2.14231 3.12911,0.50244 0.86534,-0.0207 5.02299,-2.37129 0.18536,-0.93955 0.34882,-0.86265 -0.52239,-4.46686 z m 14.31567,1.45877 c -0.19776,-0.0647 -8.63167,-0.32471 -8.63167,-0.32471 l -0.42854,-0.059 -1.56046,-0.56307 11.40467,-2.47766 0.66498,1.73891 -1.2127,1.91077 -0.44507,-0.26644 z m -14.3033,-1.42442 0.28711,0.42028 0.3297,0.2692 0.43407,0.28978 0.68819,0.2953 c 0,0 0.70327,-0.0399 0.86398,-0.0784 0.16072,-0.0385 0.83787,-0.20472 0.83787,-0.20472 l 0.4093,-0.26377 0.19229,-0.16622 0.81456,0.26915 0.3503,0.16476 10.06675,-2.90746 -0.48083,-0.79663 -0.91621,-0.17439 -2.34757,-1.13298 -1.7169,0.61828 -0.34069,-0.24583 1.72931,-0.58391 -0.98216,-0.51912 -8.46788,3.14631 -0.97108,0.42728 z m -4.27778,-4.60799 -1.05205,1.38742 -12.43045,5.44606 -0.69904,1.18273 0.12229,0.2857 4.18971,2.85528 0.69781,0.21423 0.3214,-0.077 -0.19506,-0.43404 -0.25141,-0.37496 c 0,0 -1.53301,-0.86384 -1.69786,-0.99844 -0.16483,-0.13465 -1.7473,-1.1358 -1.7473,-1.1358 l -0.48355,-0.42715 0.0291,-0.24309 0.31865,-0.19234 0.89417,-0.26385 1.20046,-0.49048 1.13179,-0.46576 0.89143,-0.3792 c 0,0 0.78978,-0.28438 0.96148,-0.34623 0.17159,-0.0621 1.02739,-0.48635 1.02739,-0.48635 0,0 0.49448,-0.0811 0.62086,-0.10719 0.12636,-0.0262 0.38046,-0.0207 0.48625,0.0577 0.10574,0.0783 0.48355,0.42714 0.48355,0.42714 0,0 1.37354,-0.49459 1.51228,-0.48638 0.1388,0.008 1.54247,-0.67181 1.54247,-0.67181 l 1.85703,-0.55235 0.97522,-0.25423 -0.12641,-0.45877 -0.47261,-0.93537 -0.1347,-0.80492 -0.0536,-0.79531 z m 0.70447,0.8273 c 0,0 -0.0437,0.22145 -0.0582,0.29529 -0.0153,0.0736 0.0195,0.473 0.0195,0.473 0,0 0.25847,0.90812 0.32448,0.9392 0.066,0.031 0.43033,0.58564 0.43033,0.58564 l 0.55659,0.40303 0.58382,0.17351 0.45455,-0.10885 0.29232,-0.407 -0.0107,-0.10585 c 0,0 -0.34771,0.13888 -0.44574,0.13333 -0.098,-0.006 -0.86833,-0.12615 -0.93437,-0.15725 -0.066,-0.031 -0.33605,-0.0573 -0.44582,-0.20981 -0.10979,-0.15246 -0.36913,-0.41566 -0.4041,-0.51278 -0.0347,-0.0973 -0.21667,-0.52543 -0.21083,-0.62353 0.006,-0.098 -9.5e-4,-0.38367 -0.0282,-0.4973 -0.0272,-0.11365 -0.0224,-0.25251 -0.0224,-0.25251 z m 0.9449,-1.45117 c 0,0 -0.32244,0.171 -0.37003,0.22925 -0.0476,0.0583 -0.47102,0.44392 -0.47102,0.44392 l -0.16706,0.18359 0.46522,-0.34582 0.38654,-0.22146 0.39629,-0.15641 0.56715,0.16631 0.39628,0.18647 0.23117,0.45163 0.18164,0.42833 c 0,0 0.12532,0.46233 0.0942,0.52838 -0.0311,0.0661 -0.0106,0.23698 -0.0165,0.33508 -0.006,0.098 0.0445,0.16224 0.0445,0.16224 l 0.20689,0.11751 -0.0632,-0.93728 -0.19519,-0.6566 c 0,0 -0.27879,-0.39334 -0.32931,-0.45743 -0.0506,-0.0641 -0.71295,-0.45643 -0.71295,-0.45643 l -0.39242,-0.0232 z m 0.54405,1.24416 -0.16506,0.26518 -0.20881,0.48662 0.0884,0.28361 0.1991,0.13406 0.2428,-0.0875 c 0,0 0.25347,-0.32442 0.28455,-0.39047 0.0311,-0.0661 -0.0321,-0.3176 -0.0321,-0.3176 l -0.15349,-0.27389 z m 0.58478,0.90032 c 0,0 0.65078,0.24567 0.74208,0.30875 0.0913,0.0631 0.26998,0.0266 0.26998,0.0266 l -0.0487,-1.01109 c 0,0 -0.18172,-0.77117 -0.24095,-0.85956 -0.0592,-0.0884 -0.32931,-0.45744 -0.32931,-0.45744 l -0.0875,-0.24279 0.7586,0.31654 0.37227,2.93808 c 0,0 -0.58268,0.89557 -0.68561,1.02863 -0.10297,0.13306 -0.675,0.4488 -0.675,0.4488 l -0.11074,-0.19328 0.20007,-0.16805 c 0,0 0.28748,-0.2681 0.31855,-0.33414 0.031,-0.066 0.4176,-0.63041 0.34277,-0.68577 -0.0747,-0.0553 0.10587,-0.0106 -0.15933,-0.17578 -0.26517,-0.16506 -0.76054,-0.39815 -0.76054,-0.39815 l -0.22438,-0.16605 0.0758,-0.24672 z m -1.94181,-2.34545 -0.44186,0.63913 c 0,0 0.11272,0.27485 0.17873,0.30594 0.0661,0.0311 0.59345,0.23889 0.59345,0.23889 l 0.11074,0.19329 -0.24858,0.5284 -0.35647,-0.22821 -0.23119,-0.10873 -0.0315,0.36818 0.0467,0.58663 0.34491,0.76727 c 0,0 0.34582,0.46519 0.38856,0.54581 0.0428,0.0806 0.32932,0.45744 0.32932,0.45744 0,0 0.47984,0.26608 0.56239,0.30492 0.0825,0.0389 0.48369,0.0864 0.58957,0.0757 0.10588,-0.0106 0.39712,-0.116 0.49337,-0.19143 0.0962,-0.0758 0.30204,-0.3419 0.41373,-0.45069 0.11163,-0.10884 0.36607,-0.7353 0.38066,-0.80911 0.0153,-0.0736 0.0747,-0.63038 0.0728,-0.71195 -0.002,-0.0815 -0.10887,-0.79742 -0.10887,-0.79742 l -0.35327,-1.13452 -0.38565,-0.42344 0.70127,-0.0331 1.27822,0.19796 1.60276,1.82295 -0.14561,0.39533 c 0,0 -0.21268,0.32345 -0.28454,0.39049 -0.0719,0.0671 -0.48559,0.51772 -0.48559,0.51772 l -0.38166,0.42545 -0.60314,0.38176 -0.21947,0.38077 -0.33601,0.62844 c 0,0 -0.29621,0.24382 -0.34379,0.3021 -0.0476,0.0583 -0.32244,0.171 -0.46037,0.20698 -0.13795,0.0359 -0.55555,-0.0194 -0.55555,-0.0194 0,0 -0.3118,-0.066 -0.51673,-0.10194 -0.20496,-0.0359 -0.72459,-0.2602 -0.72459,-0.2602 l -0.49248,-0.45356 -0.3342,-0.6614 -0.30697,-0.54776 -0.34784,-0.88966 -0.10108,-0.81392 -0.0583,-0.7333 0.0262,-0.61287 0.31074,-0.66049 0.0631,-0.0913 z m 2.87856,-5.43461 3.12677,1.49246 -0.14078,0.26888 -3.13364,-1.65968 z m 0.27469,-0.34136 2.90424,1.35923 -0.11767,0.26548 -2.92726,-1.47702 z m 0.28671,-0.32144 0.20159,0.10198 -0.18097,0.15729 -0.25514,-0.0487 z m 0.12568,0.0663 -0.14831,0.19405 2.83521,1.36954 c 0,0 0.005,-0.14729 -0.0155,-0.16417 -0.0206,-0.0168 -0.32351,-0.25202 -0.32351,-0.25202 l -2.29295,-1.14296 z m 0.20705,-0.15215 2.53542,1.26414 -0.0615,0.0852 -2.67757,-1.29538 0.2256,-0.10064 z m 7.50297,2.68517 c 0,0 -0.33596,0.79988 -0.21265,0.83774 0.12338,0.0379 0.3589,-0.0127 0.37734,-0.0947 0.0189,-0.082 -0.0996,-0.75273 -0.0996,-0.75273 z m -0.24873,-0.67161 0.33183,0.73083 c 0,0 0.22482,0.0154 0.23941,-0.0588 0.0152,-0.0736 -0.17683,-0.5672 -0.17683,-0.5672 0,0 -0.016,-0.15881 -0.15542,-0.18404 -0.13937,-0.0252 -0.23898,0.079 -0.23898,0.079 z m -1.46124,0.16962 c 0.0812,-0.0223 1.65068,-0.10067 1.65068,-0.10067 l -0.16277,-0.31856 c 0,0 -0.99407,0.0768 -1.12909,0.0637 -0.13502,-0.0131 -0.35885,0.35551 -0.35885,0.35551 z m 1.2623,1.41067 0.0505,-0.10732 0.18259,-0.0451 z m -0.73233,0.0991 0.25208,0.12863 0.77989,-0.32886 -0.62744,0.0476 z m -0.60652,0.23903 0.13307,-0.23992 1.61375,-0.27938 z m 1.87199,-1.42842 -0.0955,0.28789 c 0,0 -0.0452,0.50312 -0.0607,0.53614 -0.0153,0.0331 -0.32537,0.22003 -0.32537,0.22003 l -0.55496,0.17278 -0.56236,0.0379 c 0,0 -0.19813,0.0782 -0.23794,0.12002 -0.0398,0.0418 -0.16661,0.20396 -0.2015,0.27828 -0.035,0.0743 -0.40644,0.58523 -0.42586,0.62651 -0.019,0.0415 -0.0597,0.23408 -0.11217,0.25984 -0.0524,0.0258 -0.1486,0.10146 -0.27922,0.10056 -0.13066,-8.8e-4 -0.44534,-0.0179 -0.5347,5.8e-4 -0.0892,0.0185 -0.45113,0.0802 -0.51621,0.0899 -0.0651,0.01 -0.42347,0.0427 -0.49243,0.0608 -0.0688,0.0184 -0.40988,0.0996 -0.40988,0.0996 l -0.25881,0.44291 -0.27335,0.51674 -0.28113,0.53328 -0.25977,0.40214 0.66881,1.00033 0.27101,0.23844 0.27926,0.0708 0.49775,-0.17928 c 0,0 0.29199,-0.0841 0.36518,-0.0904 0.0734,-0.006 0.81976,-0.0278 0.81976,-0.0278 l 0.35595,-0.13507 0.79146,-1.21076 0.69583,-0.94318 0.71575,-0.96405 0.21753,-0.29092 0.4026,-0.0627 1.29765,0.32816 0.31188,-0.10503 0.0459,-0.13977 -0.0318,-2.35436 z m -8.65493,-1.60065 c 0,0 0.34137,0.27468 0.28917,0.2644 -0.0521,-0.0107 -1.98686,0.43423 -1.98686,0.43423 0,0 0.16072,0.20398 0.23559,0.19641 0.0749,-0.008 2.09606,-0.45417 2.09606,-0.45417 l 2.5028,1.34862 0.74725,0.35157 -0.16061,0.76579 -10.88622,1.70909 -0.69642,-0.15654 -0.57349,-0.32687 0.13413,-0.40739 -1.17313,-0.78009 -1.20942,0.1155 -0.76857,-0.51846 0.12157,-0.22801 11.11479,-3.01332 z m -0.94481,-0.26373 -10.31275,2.63019 -0.004,0.17969 0.53133,0.37097 1.38015,-0.31871 1.60266,0.79436 0.12439,0.0786 -0.62159,0.29238 -0.18839,0.3147 0.6129,0.36903 0.32038,0.0908 11.15393,-1.93193 0.0865,-0.48369 2.8361,-0.19841 0.34586,0.80807 -0.17288,-0.0613 -0.76814,1.33265 -2.36988,0.23624 -0.93419,1.8999 -0.25452,-0.40208 -3.55974,-0.36386 -2.96339,-0.34548 -3.04205,-0.22119 -1.35401,-0.63704 0.17869,-0.37976 -0.93635,-0.58172 -1.36268,0.0244 -0.87227,-0.63221 0.26222,-0.30015 10.2156,-2.59523 z m 5.86548,-1.79914 -2.29936,0.4013 -1.40102,0.31055 -2.23608,1.11558 0.97802,0.34607 0.78834,-0.82698 0.52469,-0.26653 2.05774,1.08219 0.16759,0.24999 -0.54104,1.51375 0.79397,0.37354 2.81032,-0.27498 0.33237,-0.58519 0.13181,-0.28023 1.36259,0.0136 0.21982,0.50272 1.91479,-0.0689 -1.12376,-1.61247 z" /></g></svg>
