<?xml version="1.0" encoding="UTF-8"?>
<svg id="svg5" xmlns="http://www.w3.org/2000/svg" width="169.02" height="142.21" viewBox="0 0 169.02 142.21">
  <defs>
    <style>
      .cls-1 {
        fill: #fff;
        stroke: #fff;
        stroke-width: 2.42px;
      }
    </style>
  </defs>
  <g id="layer1">
    <path id="path1126" class="cls-1" d="m52.33,120.03l-4.12-1.86-4.54-3.26s-4.54-6.06-6.18-7.92c-1.65-1.86-4.12-6.06-4.12-6.06l-2.06-7.45v-9.32s.82-7.92.82-7.92l2.89-4.19,2.89-5.59,8.25-7.45,9.89-4.66,8.25-.47s5.77,9.78,6.18,11.65c.41,1.86,5.36,14.44,5.36,17.24s-3.71,20.03-3.71,20.03l-3.71,8.39s-2.89,3.73-4.54,4.66c-1.65.93-5.77,4.19-7.42,4.19h-4.12Z"/>
    <path id="path1128" class="cls-1" d="m73.77,120.5l9.48-13.04,4.95-10.25-1.24-19.57-3.71-10.25-5.77-9.32-8.66-6.99,4.54,12.58,5.36,11.65,1.24,13.51-2.89,18.17-4.12,7.92-2.06,5.59h2.89Z"/>
    <path id="path1130" class="cls-1" d="m50.27,124.69l-9.48-4.66-3.71-2.8-5.77-9.78-3.71-9.78-2.06-17.24,3.3-9.32,7.42-13.04,7.01-6.99,9.48-6.52,16.08-1.4,13.19,13.51s9.07,18.17,9.07,20.03,0,18.63,0,18.63l16.08-.93.41-14.44-5.77-14.91-4.54-9.32-9.48-15.84-12.37-13.04s-14.43-6.99-16.49-7.45c-2.06-.47-11.54-4.19-11.54-4.19l-13.19,5.59-23.5,17.24L1.21,64.59v21.9s6.18,18.17,6.18,18.17l22.26,30.75,16.49,4.66,31.75.93,17.32-7.45,7.01-7.92,4.54-4.66,2.47-13.98-.41-11.65s-17.32-3.26-17.73,0c-.41,3.26-3.3,12.11-3.3,12.11l-5.77,8.39-3.71,7.92s-3.3,2.8-5.77,2.8-22.26-1.86-22.26-1.86Z"/>
    <path id="path1132" class="cls-1" d="m107.99,132.14s38.34-46.59,39.58-48.91c1.24-2.33,19.79-40.53,20.2-44.26.41-3.73-2.47-16.3-4.54-19.57-2.06-3.26-5.77-6.52-12.37-10.71-6.6-4.19-26.39-6.99-30.51-7.45-4.12-.47-43.7,5.59-48.65,5.59s-16.49,5.59-16.49,5.59l25.97,9.78s9.89,5.12,11.54,9.32c1.65,4.19,12.37,23.29,12.37,23.29,0,0,2.06,3.73,3.3,7.45,1.24,3.73,3.71,17.24,3.71,17.24l1.65,13.51s-.82,8.85-.82,11.18-2.89,17.7-2.89,17.7l-2.06,10.25Z"/>
  </g>
</svg>