<?xml version="1.0" encoding="utf-8"?>
<!-- Generator: Adobe Illustrator 27.5.0, SVG Export Plug-In . SVG Version: 6.00 Build 0)  -->
<svg version="1.1"
	 id="svg5" xmlns:sodipodi="http://sodipodi.sourceforge.net/DTD/sodipodi-0.dtd" xmlns:inkscape="http://www.inkscape.org/namespaces/inkscape" xmlns:svg="http://www.w3.org/2000/svg" inkscape:version="1.2.2 (732a01da63, 2022-12-09)" sodipodi:docname="GMBazooka.svg"
	 xmlns="http://www.w3.org/2000/svg" xmlns:xlink="http://www.w3.org/1999/xlink" x="0px" y="0px" viewBox="0 0 195.3 250"
	 style="enable-background:new 0 0 195.3 250;" xml:space="preserve">
<style type="text/css">
	.st0{fill:#FFFFFF;stroke:#FFFFFF;stroke-width:0.1678;}
</style>
<sodipodi:namedview  bordercolor="#000000" borderopacity="0.25" id="namedview7" inkscape:current-layer="layer1" inkscape:cx="455.78453" inkscape:cy="-232.8108" inkscape:deskcolor="#d1d1d1" inkscape:document-units="mm" inkscape:pagecheckerboard="0" inkscape:pageopacity="0.0" inkscape:showpageshadow="2" inkscape:window-height="1377" inkscape:window-maximized="1" inkscape:window-width="5120" inkscape:window-x="-8" inkscape:window-y="-8" inkscape:zoom="0.914906" pagecolor="#ffffff" showgrid="false" showguides="true">
	</sodipodi:namedview>
<g id="layer1" inkscape:groupmode="layer" inkscape:label="Layer 1">
	<path id="path1067" class="st0" d="M1.5,235.4l4.9-4.4l12.3-15.7l-4.6-4.2l-0.3-0.8l1.9-2.9l0.4-0.6L22,211l38.2-53.3l0.8-0.6
		l1.4-1.1c0,0,0.7,0,0.7-0.1c0.1-0.1,1.4,0.5,1.4,0.5l0.8,0.4l1,0.7l1.3,0.7l1,0.8l1.4,1.1l1.5,1.3c0,0,1.8,2.1,1.9,2.2
		c0.1,0.1,0.7,1.3,0.7,1.3l0,1.2l-0.2,0.5L72,169l-52.7,78.7l-0.3-0.9l-0.3-0.9l-1.1-1.4c0,0-1.4-1.4-1.5-1.5
		c-0.1-0.1-2.3-2.4-2.3-2.4l-2.7-1.9l-4.8-2.3l-2.9-0.9L1.5,235.4z"/>
	<path id="path1069" class="st0" d="M1.6,238.2c0,0-0.3-0.7-0.3-0.8c0-0.1,0-1.2,0-1.2l0.1-0.4l0.8,0l2.1,0.5l3.2,1.7l2.6,1.7
		l2.6,1.9c0,0,2,1.3,2.1,1.5c0,0.2,2.1,2.2,2.1,2.2l1.2,1.5l0.7,1.2l0,0.3l-0.2,0.3l-0.4,0.3l-0.7,0.2l-1.9-0.1l-2.8-1.2l-2.6-1.5
		l-2.8-1.8l-1.7-1.2l-2.1-2.2l-1-1.3L1.6,238.2z"/>
	<path id="path1071" class="st0" d="M75.8,137.2c0.2-0.5,47.2-66.6,47.2-66.6s3,2.2,3.6,1.6c0.6-0.6,4.6-6.6,4.6-6.6l-0.8-0.5l1-1.4
		l1.1,0.7l13.3-19.5l2.4,1.6l3,3.3l2,2.7l-1.1,2.3c0,0-23.7,32.6-24.8,34c-1,1.4-29.3,41.5-29.3,41.5l-10.9,14.9l-0.3,0.4l-0.9-1
		c0,0-1.2-1.4-1.2-1.5c-0.1-0.1-1.3-1.4-1.3-1.4l-1.7-1.6l-2.3-1.7l-1.3-0.5l-1.2-0.4L75.8,137.2z"/>
	<path id="path1073" class="st0" d="M90,176.1l5.1,10.2l3.2,0.5l3.8-4.7L99.5,172c0,0-3.2-1.1-3.5-1.2s-2.7-0.4-2.7-0.4L90,176.1z"
		/>
	<path id="path1075" class="st0" d="M96.6,169.7l3.6,1.7l8.6-13.7l5.6-9.1c0,0-1.2-3.1-2-2.2c-0.8,0.9-1.8,3.2-1.8,3.2l-0.9-0.1
		l1.8-3.6l-2.1-0.7l-1.4,2.7l-1.3-0.4l1.9-3.1l-2.3-0.9l-1.2,2.6l-0.9-0.5l1.9-3.3l-0.8-1c0,0-1-0.8-1.4-0.8c-0.5,0-0.8-0.1-1.2-0.2
		c-0.4-0.1-2-1.8-2-1.8s-0.4-0.2-0.7,0.1c-0.2,0.3-5.4,6.8-5.2,7.1c0.2,0.3,3.7,5,3.7,5s4.1,2.8,4.3,3.1c0.2,0.2,2.4,1.9,2.4,1.9
		L96.6,169.7z"/>
	<path id="path1077" class="st0" d="M92.8,148.6c0.3,0.3,2.2,3,2.2,3l0.2,0.9l0.7-0.1l1.1-1.2l0.5-0.7l0.3-0.5l-3.3-3.6L92.8,148.6z
		"/>
	<path id="path1079" class="st0" d="M72.3,169l2.5,2.7c0,0-1.7,1.4-1.3,1.9c0.4,0.5,3.4,4.2,3.7,4c0.3-0.3,3.9-4.6,3.9-4.6
		s-3.2-1.9-2.3-2.7s10.7-15.2,10.7-15.2l-0.6-2.5l11.6-16.6l-2.4-4.9l-10.7,15.2l0.4,3.6l-11,16.5l-1.9,0.9l-1-0.3L72.3,169z"/>
	<path id="path1081" class="st0" d="M52.9,141.3l3.2-0.9c0,0,3.3,1.6,3.5,1.7c0.2,0.2,3.2,2.8,3.2,2.8s2.4,2.4,2.7,2.5
		c0.3,0.2,2,2.7,2,2.7l-0.1,0.6l-0.9,0.6l-2.4,0.2c0,0-3.2-1.2-3.4-1.4c-0.2-0.2-2.5-1.7-2.5-1.7l-1.4-1l-1.6-1.8l-2.2-3.1
		L52.9,141.3z"/>
	<path id="path1083" class="st0" d="M53.5,140.6l1.9-0.8l2.2,0.2l6.5,5l4,4.7l4.8-7.7l-2.7-3.8l-0.5-1c0,0,0.2-0.6,0-0.8
		c-0.2-0.2-2.3-2.8-2.3-2.8l-1.5,0.2l-1.8-0.6l-4.8-0.8L53.5,140.6z"/>
	<path id="path1085" class="st0" d="M63.6,154.7c1.3-1.6,3.4-3,4-3.7c0.6-0.7,4.2-5.3,4.9-6.2c0.7-1,1.6-4.3,1.8-4.6
		s1.2-2.8,1.2-2.8l5.4,3l4.1,3.8c0,0,1.8,2.3,1.3,2.8c-0.4,0.5-10.9,17.3-10.9,17.3l-1.3-2.4l-1.5-1.8l-3.2-2.5c0,0-3.7-1.8-3.9-2
		C65.4,155.4,63.6,154.7,63.6,154.7L63.6,154.7z"/>
	<path id="path1087" class="st0" d="M122,69.9c0.2,0.2,4,1.2,4.2,1.1c0.2-0.1,4.3-4.8,4.3-5c-0.1-0.2-0.5-0.6-0.5-0.9
		c0.1-0.2,1.5-2.1,1.5-2.1l1,0.8L145,45.4l1-1.6c0,0,1.1,0.4,1.2,0.6c0.1,0.1,2.9,2.8,2.9,2.8l4.5,6l1.5,2.2c0,0-3.2,3.8-3.3,3.9
		c-0.1,0.1,9.7,12.8,9.7,12.8l8.8,1.2l8.1-12.1c0,0,0.3-2,0.5-2c0.1-0.1,1-2.2,1.1-2.4c0.2-0.2,1.5-1.6,1.5-1.6l0.3-0.3l-13.5-24
		l-8.9-5.7l-1.6,1.1l-0.9-0.6l-0.8-0.4c0,0-0.4-0.3,0.2-0.7c0.5-0.4,1.5-1.4,1.5-1.4s-0.2-0.9-0.5-1c-0.3-0.1-2.2-1.1-2.2-1.1
		l-3.5-0.4l-13.5,18l0.1,5.8l-12.4,16.5l-0.4-0.4l-0.9,1.2l0.5,0.7c0,0-3,4.1-3.3,4.9C121.8,68.1,122,69.9,122,69.9z"/>
	<path id="path1089" class="st0" d="M157,21.3c0,0-0.4-1.3-0.3-1.6c0.1-0.3,0.8-1.9,0.8-1.9l0.6-0.6l0.6,4.2l-0.8-0.1L157,21.3z"/>
	<path id="path1091" class="st0" d="M161.3,21.8c0,0,3.2,2.2,3.3,2.4c0.2,0.2,2.9,3.6,3.1,3.9c0.2,0.2,1.4,1.9,1.4,1.9l0.8,0.5
		l0.7,0.5l5.9-7.7l0.1-2.3c0,0-0.2-2.1-0.3-2.4c-0.1-0.2-2.9-3.9-2.9-3.9l-3.7-3.1l-3.8-1.8l-3,0.2l-2.5,3.9l0.3,1.2
		c0,0,0.2,1,0.4,1.5c0.1,0.5,0.4,2.8,0.4,2.8l-0.1,1.6L161.3,21.8z"/>
	<path id="path1093" class="st0" d="M157.6,24.7l1.3,0.7l1.1-1.3c0,0,0.3-0.9,0.4-1.4c0.1-0.6,0-2.1,0-2.5c0-0.4-0.3-2.6-0.3-2.9
		c0-0.3-0.2-3.1-0.2-3.1s0.3-1.9,0.7-2.4c0.5-0.5,1.9-2.1,1.9-2.1s0.1-1-0.1-1.1c-0.2-0.2-1.1-1.3-1.4-1.5c-0.3-0.2-2.9-0.5-2.9-0.5
		l-1.2-0.2c0,0-0.9,0.1-1.1,0.3c-0.2,0.2-1.3,1.1-1.3,1.1s-1.9,2.4-1.9,2.9c0,0.5-0.9,9.1-0.9,9.1l2.1,0.5c0,0,0.4-3.3,0.4-3.6
		c0-0.3,0-3.3,0.1-3.5c0.1-0.3,0.2-1.8,0.5-2c0.2-0.2,1-1.4,1.1-1.7c0.1-0.2,0-0.7,0.5-0.8c0.6-0.1,3.4,0.8,3.4,0.8l-1.3,2.9
		c0,0,0,2.4,0.3,3c0.2,0.6,0.4,3.1,0.4,3.1l0.2,2.6c0,0,0.2,1-0.3,1.6C158.4,23.2,157.6,24.7,157.6,24.7L157.6,24.7z"/>
</g>
</svg>
