<?xml version="1.0" encoding="utf-8"?>
<!-- Generator: Adobe Illustrator 27.5.0, SVG Export Plug-In . SVG Version: 6.00 Build 0)  -->
<svg version="1.1"
	 id="svg5" xmlns:sodipodi="http://sodipodi.sourceforge.net/DTD/sodipodi-0.dtd" xmlns:inkscape="http://www.inkscape.org/namespaces/inkscape" xmlns:svg="http://www.w3.org/2000/svg" inkscape:version="1.2.2 (732a01da63, 2022-12-09)" sodipodi:docname="GMSpray.svg"
	 xmlns="http://www.w3.org/2000/svg" xmlns:xlink="http://www.w3.org/1999/xlink" x="0px" y="0px" viewBox="0 0 195.3 250"
	 style="enable-background:new 0 0 195.3 250;" xml:space="preserve">
<style type="text/css">
	.st0{fill:#FFFFFF;stroke:#FFFFFF;stroke-width:0.1681;}
</style>
<sodipodi:namedview  bordercolor="#000000" borderopacity="0.25" id="namedview7" inkscape:current-layer="layer1" inkscape:cx="-456.87754" inkscape:cy="32.790254" inkscape:deskcolor="#d1d1d1" inkscape:document-units="mm" inkscape:pagecheckerboard="0" inkscape:pageopacity="0.0" inkscape:showpageshadow="2" inkscape:window-height="1377" inkscape:window-maximized="1" inkscape:window-width="5120" inkscape:window-x="-8" inkscape:window-y="-8" inkscape:zoom="0.914906" pagecolor="#ffffff" showgrid="false" showguides="true">
	</sodipodi:namedview>
<g id="layer1" inkscape:groupmode="layer" inkscape:label="Layer 1">
	<path id="path1155" class="st0" d="M3.7,198.6c0.2-0.5,3.8,1.5,4.7,0.5c0.9-0.9,27.6-35.8,27.6-35.8l1.6-1.7c0,0,0.9-0.8,1.2-0.5
		c0.3,0.3,2.8,2.2,2.8,2.2l1,1.6c0,0-0.6,1.8-1,2.3s-26.6,35.3-26.6,35.3l0,1.9l1.1,1.7l7,7.9l1.2,0.5c0,0,2.3,0,2.6-0.2
		c0.2-0.3,18.4-16,18.4-16l9.2-9l3.3-3.5l1.1-1.3c0,0,0.8-0.2,1-0.4c0.3-0.2,1.1,0.5,1.1,0.5s0.9,0,0.6,0.4c-0.3,0.4,0,1.6,0,1.6
		s0.2,1.5-0.1,1.8c-0.3,0.3-10.7,10.4-10.7,10.4L63,188.3l19.8-17.6c0,0,4.3-4.4,4.4-4.7s0.2-6.8,0.2-6.8l-2.3-5.4l-5.2-6l-0.5-0.5
		l-9.2,10.2l-1.8-1.8l9.6-10.2l-5.7-6.2l-5.8-4.4l-8.9-6l-7.9-1.2l-6.9,10.1l-0.8-0.1l6.9-9.9l-1.8,0.6L3,195.3L3.7,198.6z"/>
	<path id="path1157" class="st0" d="M6.4,200.5l0.8,3.1l8.1,8.6l3-2.4l-3-3.9l-1.3-1.8c0,0-0.1-1.8,0.3-2.3
		c0.4-0.6,18.4-23.4,18.4-23.4s0-1.5-0.3-1.8c-0.3-0.3-2.2-2.5-2.2-2.5s-0.5-0.6-0.8-0.8c-0.2-0.3-20.3,26.4-20.3,26.4L6.4,200.5z"
		/>
	<path id="path1159" class="st0" d="M20.1,216c0.3-0.6,1.8-2,1.8-2l3.3,1.4l9.5-7.2L50.5,194l5.1-5c0,0,1,2.5,0.7,3
		c-0.3,0.5-5.2,6.8-5.2,6.8l-20,18.1c0,0-2.9,2.6-3.5,2.7c-0.6,0.1-3.5-0.3-4.4-0.6c-0.9-0.3-2.8-1.5-2.8-1.5l-1-1.3L20.1,216z"/>
	<path id="path1161" class="st0" d="M48.8,125.3l7.6,0.6l8.8,4.8L78.9,143l7.9,11.9l2.1,9.2l-0.1,0.6c0,0,0.9-1.3,1-2
		c0.2-0.7,1.5-5.4,1.4-6.1c-0.1-0.6,0.1-6.6,0.1-6.6s1-3.7,0.6-4.6c-0.4-1-2.9-7.2-2.9-7.2l-3.6-4.7l-6.6-6.3l-7.6-4.9l-4.4-1.4
		l-3.4,0.6l-1.9-0.1l-11.1,2.1L48.8,125.3z"/>
	<path id="path1163" class="st0" d="M71,122.6c0,0,4.5-4.2,6.2-6c1.7-1.9,18.5-21.7,18.5-21.7l8.5,5.9l7.9,9c0,0,2.6,4.6,2.7,5.7
		c0.2,1.1,0.7,5.2,0.7,5.2l-18.4,21.8l-3.8,5.1l-3.2-0.1L71,122.6z"/>
	<path id="path1165" class="st0" d="M92,161.6c0,0,2.2-12.7,2.5-13.5c0.3-0.7,22.3-27.1,22.3-27.1l3.7,5.2l16.6,24.8l0.8,2.4
		l-11.4,22.8l-22.3,0.2L92,161.6z"/>
	<path id="path1167" class="st0" d="M61.1,120.2c-0.3-1.5-3.4-4.8-3.4-4.8L59,69.6l47.2-45.1l2.5-1.6l28.2,11.2l4,4.1l-10.2,12.3
		l-10.8,4.3l-10.4-9l-26,26.8l-0.2,2.1l9.7,13.4l2.1,4.7l-22.8,27.3l-5.9-0.6L61.1,120.2z"/>
	<path id="path1169" class="st0" d="M92.8,86.6l5.6,3.3l10.2,7l7.9,9.2l3.4,8.3l0.6,1.9c0,0,14.7-15.5,14.3-16
		c-0.4-0.4-0.9-6.5-0.9-6.5s2.3-4.2,4-6c1.6-1.8,4-5.4,4.6-5.1c0.7,0.4,2.7,3,2.7,3l0.3,4.5l18.6-22.1l1.2-5c0,0-0.4-1.6,0.5-2.6
		c0.9-1,2.1-2.1,2.5-2.8s3.2-4.5,3.2-4.5l4.3-7.4l4.5-9.6l1.1-3.2l-2.5-6.2c0,0-2.3-3.3-2.8-3.8c-0.5-0.5-7.3-4.4-7.3-4.4l-4.7,1
		l-21.9,16.8l-5.9,9.2l-5.4,6l-14,5.1c0,0-26.2,26.8-26.1,27.6C91,85.4,92.8,86.6,92.8,86.6L92.8,86.6z"/>
	<path id="path1171" class="st0" d="M130,137.5c0.2-0.5,0.8-4.5,0.3-5.6c-0.5-1.1-2.3-5.1-3.1-6.3c-0.8-1.2-3.1-2.8-2.9-3.2
		c0.2-0.4,6-5.2,6-5.2l5.6,6.1c0,0,0.9,3.6,1.2,4.5c0.3,0.9,1.3,3.1,0,4.5c-1.3,1.4-2.6,2.7-3.3,3.6c-0.6,0.9-2.8,3.6-2.8,3.6
		L130,137.5z"/>
	<path id="path1173" class="st0" d="M130.1,142.7c0.5-0.5,14.5-15.1,14.5-15.1l6.8-0.7c0,0-1.5,3.8-2.2,4.5
		c-0.7,0.7-15,18.6-15,18.6L130.1,142.7z"/>
	<path id="path1175" class="st0" d="M149.1,132.4l20.6,14.2l1.9,1.7c0,0,2.2,0.3,2.9,0.5s4.7-1.3,5.5-1.8s11.6-12.9,11.6-12.9
		s2.8-6.7,2.9-7.2c0.2-0.5-0.4-0.8-0.5-2.2c0-1.4,0.1-2,0.1-2.9c0-0.9,0.2-1.9-2-3c-2.3-1.2-31.8-21-31.8-21l-4.4-3.1l-2.2-4.3
		c0,0-0.8-2.2-0.7-3.2c0.1-1,0.2-4.4,0-3.7c-0.2,0.7-25.3,31.5-25.3,31.5s2.7,2,3.8,2c1.2,0,4.2,1.2,5.2,1.6c0.9,0.4,3,3.5,3,3.5
		s0.9,3.2,1.2,3.8c0.3,0.5,1.5,2.5,1.5,2.5L149.1,132.4z"/>
</g>
</svg>
