<?xml version="1.0" encoding="UTF-8" standalone="no"?>
<!-- Created with Inkscape (http://www.inkscape.org/) -->

<svg
   width="29.244791mm"
   height="35.717773mm"
   viewBox="0 0 29.244791 35.717773"
   version="1.1"
   id="svg21695"
   inkscape:version="1.2.1 (9c6d41e410, 2022-07-14)"
   sodipodi:docname="GN_Extended.svg"
   xmlns:inkscape="http://www.inkscape.org/namespaces/inkscape"
   xmlns:sodipodi="http://sodipodi.sourceforge.net/DTD/sodipodi-0.dtd"
   xmlns="http://www.w3.org/2000/svg"
   xmlns:svg="http://www.w3.org/2000/svg">
  <sodipodi:namedview
     id="namedview21697"
     pagecolor="#505050"
     bordercolor="#ffffff"
     borderopacity="1"
     inkscape:showpageshadow="0"
     inkscape:pageopacity="0"
     inkscape:pagecheckerboard="1"
     inkscape:deskcolor="#505050"
     inkscape:document-units="mm"
     showgrid="false"
     inkscape:zoom="3.0787879"
     inkscape:cx="200.40354"
     inkscape:cy="53.105315"
     inkscape:window-width="1920"
     inkscape:window-height="991"
     inkscape:window-x="-9"
     inkscape:window-y="-9"
     inkscape:window-maximized="1"
     inkscape:current-layer="layer1" />
  <defs
     id="defs21692">
    <pattern
       id="EMFhbasepattern"
       patternUnits="userSpaceOnUse"
       width="6"
       height="6"
       x="0"
       y="0" />
  </defs>
  <g
     inkscape:label="Layer 1"
     inkscape:groupmode="layer"
     id="layer1"
     transform="translate(-78.254813,-129.42233)">
    <path
       style="display:inline;fill:#ffffff;stroke:#000000;stroke-width:0.144061px;stroke-linecap:butt;stroke-linejoin:miter;stroke-opacity:1"
       d="m 78.454153,162.23164 1.058402,0.33285 1.367524,2.41596 -1.355048,-0.43546 z"
       id="path22194" />
    <path
       style="fill:#ffffff;stroke:#000000;stroke-width:0.144061px;stroke-linecap:butt;stroke-linejoin:miter;stroke-opacity:1"
       d="m 78.378467,162.19439 3.969204,-5.17014 0.369438,-0.78005 5.860942,-7.29468 1.579778,-1.89476 0.740164,-0.20344 -0.07085,0.26887 -0.44623,0.10584 -1.364579,1.7367 0.821868,0.32855 1.547101,-1.78428 1.446889,-0.30221 0.0892,2.08576 -1.568664,1.96645 -1.090093,0.0848 -0.864571,1.35667 0.09705,0.42107 -0.950658,1.20948 -0.539111,0.0876 -3.444579,4.27539 -2.927592,3.75905 -0.378427,-0.18625 -0.774776,0.9277 c 0,0 -0.39196,0.42905 -0.42735,0.33932 -0.0354,-0.0898 -0.5144,-1.04146 -0.5144,-1.04146 z"
       id="path22198" />
    <path
       style="fill:#ffffff;stroke:#000000;stroke-width:0.144061px;stroke-linecap:butt;stroke-linejoin:miter;stroke-opacity:1"
       d="m 80.0661,163.51892 0.865155,1.5048 1.760047,-1.71628 9.643184,-10.92805 0.297032,-0.4061 -0.274894,-0.31428 0.442972,-0.69225 0.465254,0.2392 0.713188,-0.79451 1.483366,-1.66323 3.026719,-1.41947 4.470577,-5.52242 0.044,-4.74446 2.07311,-2.50827 0.43529,-1.25856 1.89354,-2.35118 -1.28514,-1.39957 -1.75728,3.13419 -2.35806,2.87942 -0.33834,-0.28925 -0.41974,1.12303 0.56966,0.52581 0.0252,4.00121 -1.13954,0.21651 c 0,0 -0.30481,0.47387 -0.50595,0.46692 -0.20114,-0.007 -0.935766,-0.0105 -0.935766,-0.0105 l -1.531732,1.80308 -2.581259,0.6729 -2.712914,3.22638 0.483444,-0.13029 -0.01936,2.13829 -1.485996,1.89718 -1.128292,0.0481 -0.895544,1.44207 0.0988,0.48255 -0.987857,1.19167 -0.537492,0.12963 -2.463251,3.07272 -3.868129,4.86189 -0.362254,-0.15297 z"
       id="path22200" />
    <path
       style="fill:#ffffff;stroke:#000000;stroke-width:0.144061px;stroke-linecap:butt;stroke-linejoin:miter;stroke-opacity:1"
       d="m 92.505487,152.35052 0.504145,0.3349 0.297834,0.29122 0.145532,0.29943 -0.03885,0.51244 -0.199028,0.19133 c 0,0 0.227986,0.0291 0.316198,-0.0179 0.08821,-0.047 0.61664,-0.69453 0.61664,-0.69453 l 0.13037,-0.26491 -0.186941,-0.88391 0.54612,-0.60269 -0.0048,-0.30613 -0.09762,-0.29393 -0.176684,-0.17735 -0.380544,-0.29215 -0.646862,0.73391 -0.510577,-0.20427 -0.478987,0.66465 0.280732,0.34066 -0.221629,0.2887 z"
       id="path22202" />
    <path
       style="fill:none;stroke:#000000;stroke-width:0.144061px;stroke-linecap:butt;stroke-linejoin:miter;stroke-opacity:1"
       d="m 91.616253,153.30506 0.25813,0.43802 0.297238,0.1969 c 0,0 0.306719,0.0895 0.387905,0.0788 0.08118,-0.0107 0.475524,-0.0625 0.475524,-0.0625 l 0.205719,-0.0506 c 0,0 0.151704,-0.10254 0.157208,-0.15045 0.0055,-0.0479 0.08677,-0.50693 0.08677,-0.50693 l -0.357012,-0.47222 -0.531914,-0.36665 -0.177613,-0.0946 -0.715857,0.83736 z"
       id="path22204" />
    <path
       style="fill:#ffffff;stroke:#000000;stroke-width:0.144061px;stroke-linecap:butt;stroke-linejoin:miter;stroke-opacity:1"
       d="m 92.174299,152.6841 0.482497,0.37043 0.310694,0.45974 0.08238,0.37293 -0.52056,0.10179 -0.5408,-0.17922 -0.289141,-0.29572 -0.06945,-0.27452 z"
       id="path22206" />
    <path
       style="fill:#ffffff;stroke:#000000;stroke-width:0.144061px;stroke-linecap:butt;stroke-linejoin:miter;stroke-opacity:1"
       d="m 90.948002,145.34634 c 0.0519,-0.054 0.66386,-1.95138 0.66386,-1.95138 l 5.181224,-7.16996 c 0,0 0.977295,-0.10482 1.094206,-0.20279 0.116905,-0.098 2.107193,-2.01125 2.107193,-2.01125 l 1.134685,0.46441 0.78124,0.55806 -0.25584,0.38756 -0.42869,1.04741 -1.394306,0.70234 -0.459177,0.81544 -0.573812,0.1226 -3.002606,3.36775 0.04185,1.5755 -0.868235,1.29393 -0.76987,0.78547 -2.234803,0.41164 0.584455,-1.65778 -0.07992,-0.24907 -0.653735,-0.12647 -0.69315,1.90804 -0.236195,-0.18131 z"
       id="path22208" />
    <path
       style="fill:#ffffff;stroke:#000000;stroke-width:0.144061px;stroke-linecap:butt;stroke-linejoin:miter;stroke-opacity:1"
       d="m 99.483023,137.95818 -0.223342,3.63342 0.919369,0.0127 0.12756,-3.85442 -0.553252,-0.52798 z"
       id="path22210" />
    <path
       style="fill:#ffffff;stroke:#000000;stroke-width:0.144061px;stroke-linecap:butt;stroke-linejoin:miter;stroke-opacity:1"
       d="m 99.794778,137.28317 0.406952,0.4304 1.66967,-0.75334 -0.56966,-0.52581 z"
       id="path22212" />
    <path
       style="fill:#ffffff;stroke:#000000;stroke-width:0.144061px;stroke-linecap:butt;stroke-linejoin:miter;stroke-opacity:1"
       d="m 100.2859,137.7192 -0.0861,3.91572 0.50595,-0.46693 1.16372,-0.2864 -0.0572,-3.86352 z"
       id="path22214" />
    <path
       style="fill:#ffffff;stroke:#000000;stroke-width:0.144061px;stroke-linecap:butt;stroke-linejoin:miter;stroke-opacity:1"
       d="m 104.29755,139.67819 -1.22231,-2.82608 1.32664,-1.4591 1.40096,3.16968 -0.13648,0.48514 -0.89445,0.68483 z"
       id="path22216" />
    <path
       style="fill:#ffffff;stroke:#000000;stroke-width:0.144061px;stroke-linecap:butt;stroke-linejoin:miter;stroke-opacity:1"
       d="m 101.01378,134.36989 1.56368,-1.94077 1.67425,0.29725 -2.19404,2.85787 -0.33188,-0.24005 0.17874,-0.29044 z"
       id="path22218" />
    <path
       style="fill:#000000;stroke:#000000;stroke-width:0.144061px;stroke-linecap:butt;stroke-linejoin:miter;stroke-opacity:1"
       d="m 95.168061,144.03974 0.635305,-0.94279 -0.0094,-1.65896 2.994562,-3.30512 0.666687,-0.19606 -0.204792,3.64767 -1.51856,1.77631 z"
       id="path22220" />
    <path
       style="fill:#ffffff;stroke:#000000;stroke-width:0.144061px;stroke-linecap:butt;stroke-linejoin:miter;stroke-opacity:1"
       d="m 89.570576,148.48778 0.868479,-0.2476 0.246875,0.10104 -0.40885,0.57098 z"
       id="path22222" />
    <path
       style="fill:#ffffff;stroke:#000000;stroke-width:0.144061px;stroke-linecap:butt;stroke-linejoin:miter;stroke-opacity:1"
       d="m 89.405711,148.37596 0.834252,0.50774 c 0,0 -0.319058,0.49244 -0.384667,0.50107 -0.06561,0.009 -0.854124,-0.40503 -0.854124,-0.40503 z"
       id="path22224" />
    <path
       style="fill:#000000;stroke:#000000;stroke-width:0.144061px;stroke-linecap:butt;stroke-linejoin:miter;stroke-opacity:1"
       d="m 91.218656,145.28452 0.16702,0.12823 -0.519942,1.50327 -0.02119,0.21969 0.819639,0.14258 0.635231,-1.7687 -0.295239,0.0388 0.547593,-1.67376 -0.0052,-0.16618 -0.67633,-0.19478 z"
       id="path22226" />
    <path
       style="fill:#ffffff;stroke:#000000;stroke-width:0.144061px;stroke-linecap:butt;stroke-linejoin:miter;stroke-opacity:1"
       d="m 89.322386,148.50372 1.0793,-1.30981 0.623286,-0.0819 0.629277,0.21764 0.800571,-1.90722 1.81419,-0.28842 -1.833073,2.17639 -1.043283,0.18712 -0.700257,0.89292 -0.201977,-0.14031 -1.008317,0.19926 -0.213229,0.028 z"
       id="path22228" />
    <path
       style="fill:#000000;stroke:#000000;stroke-width:0.144061px;stroke-linecap:butt;stroke-linejoin:miter;stroke-opacity:1"
       d="m 78.437343,162.29799 c 0.410896,0.0795 1.146368,0.21644 1.146368,0.21644 l 1.294027,2.48296 -1.396239,-0.46727 z"
       id="path22230" />
  </g>
</svg>
