<?xml version="1.0" encoding="UTF-8" standalone="no"?>
<!-- Created with Inkscape (http://www.inkscape.org/) -->

<svg
   width="210mm"
   height="297mm"
   viewBox="0 0 210 297"
   version="1.1"
   id="svg5"
   xml:space="preserve"
   inkscape:export-filename="bitmap.svg"
   inkscape:export-xdpi="96"
   inkscape:export-ydpi="96"
   xmlns:inkscape="http://www.inkscape.org/namespaces/inkscape"
   xmlns:sodipodi="http://sodipodi.sourceforge.net/DTD/sodipodi-0.dtd"
   xmlns="http://www.w3.org/2000/svg"
   xmlns:svg="http://www.w3.org/2000/svg"><sodipodi:namedview
     id="namedview7"
     pagecolor="#505050"
     bordercolor="#ffffff"
     borderopacity="1"
     inkscape:showpageshadow="0"
     inkscape:pageopacity="0"
     inkscape:pagecheckerboard="1"
     inkscape:deskcolor="#505050"
     inkscape:document-units="mm"
     showgrid="false" /><defs
     id="defs2" /><g
     inkscape:groupmode="layer"
     id="layer2"
     inkscape:label="Layer 2"><path
       style="fill:#ffffff;fill-opacity:1;stroke:#000000;stroke-width:0.348567px;stroke-linecap:butt;stroke-linejoin:miter;stroke-opacity:1"
       d="m 55.163506,23.565432 -18.663744,69.612903 33.19764,-0.65234 7.703762,-14.07168 42.092706,-1.211478 0.71478,13.792108 26.84401,0.46596 14.53389,5.87096 24.14375,-71.942635 z"
       id="path357" /><path
       style="fill:#ffffff;fill-opacity:1;stroke:#000000;stroke-width:0.348567px;stroke-linecap:butt;stroke-linejoin:miter;stroke-opacity:1"
       d="m 49.127572,25.801988 4.288691,-0.186378 -18.425487,67.842265 -3.971008,-0.7455 z"
       id="path1639" /><path
       style="fill:#ffffff;fill-opacity:1;stroke:#000000;stroke-width:0.329356;stroke-linejoin:bevel;stroke-dashoffset:28.2467"
       d="m 30.860928,94.203425 -3.335649,14.351235 115.476971,-2.42294 c 0,0 4.60636,-14.724005 3.33564,-14.724005 -1.27072,0 -115.476962,2.79571 -115.476962,2.79571 z"
       id="path3093" /><path
       style="fill:#ffffff;fill-opacity:1;stroke:none;stroke-width:0.329356;stroke-linejoin:bevel;stroke-dashoffset:28.2467"
       d="m 145.5437,108.92744 3.81218,-15.283175 20.17272,12.301085 12.86606,37.08959 -13.97794,45.10395 -8.5774,9.13261 -7.14782,-47.34049 8.89505,-7.26883 2.70031,-4.10035 -2.70031,-16.21505 -15.08983,-13.23297 z"
       id="path5273" /><path
       style="fill:#ffffff;fill-opacity:1;stroke:none;stroke-width:0.329356;stroke-linejoin:bevel;stroke-dashoffset:28.2467"
       d="m 163.57276,97.045245 23.02501,-71.166879 22.12646,0.790744 0.44928,26.358094 -2.13401,33.738361 -14.37661,50.739345 -9.20999,4.87624 -12.35489,-37.69208 -8.64842,-5.403395 z"
       id="path5329" /><path
       style="fill:#ffffff;fill-opacity:1;stroke:none;stroke-width:0.329356;stroke-linejoin:bevel;stroke-dashoffset:28.2467"
       d="m 19.900941,130.73389 10.642307,-13.41937 110.552912,-1.49105 14.93098,14.35127 3.49449,10.81003 -7.62432,5.40504 -2.85913,-6.70971 -10.48347,-8.38709 -107.534942,1.30468 -6.830137,9.319 2.223765,30.37991 -2.859126,7.08243 -3.335648,-40.8172 z"
       id="path5331" /><path
       style="fill:#ffffff;fill-opacity:1;stroke:none;stroke-width:0.329356;stroke-linejoin:bevel;stroke-dashoffset:28.2467"
       d="m 16.882974,122.34678 10.165783,-11.18279 112.617843,-2.42295 18.10779,14.53765 5.08289,14.91036 c 0,0 -2.22375,3.16848 -2.70027,1.49105 -0.47652,-1.67741 -3.97101,-12.67384 -3.97101,-12.67384 l -16.04289,-14.16484 -109.917544,2.42293 -11.118828,14.91039 0.794203,10.43728 -1.588404,-3.35484 -1.111883,-16.02868 z"
       id="path5333" /><path
       style="fill:#ffffff;fill-opacity:1;stroke:none;stroke-width:0.329356;stroke-linejoin:bevel;stroke-dashoffset:28.2467"
       d="m 36.738024,151.79481 -32.0857592,65.60571 9.2127442,-6.70967 7.306657,-2.60932 2.620866,-0.27956 h 2.303183 l 2.223764,0.27956 1.906087,0.27958 2.779707,0.55913 3.971011,1.30467 5.638831,3.26164 7.147818,6.4301 8.180279,14.81721 2.779709,12.9534 25.255618,-63.92831 0.635359,-4.4731 v -6.70969 l -1.350143,-4.19355 -1.667822,-6.15053 -2.93855,-5.40503 -2.144341,-3.07526 -6.194775,-5.31182 -9.053901,-4.65949 -13.024913,-0.18638 -6.274195,2.23654 z"
       id="path5335" /><path
       style="fill:#ffffff;fill-opacity:1;stroke:none;stroke-width:0.329356;stroke-linejoin:bevel;stroke-dashoffset:28.2467"
       d="m 14.023847,223.73744 c 0,0 -0.3971,2.14338 -0.3971,3.16847 0,1.02507 -0.158839,4.47311 -0.158839,4.47311 0,0 0.397101,3.91399 0.397101,4.28673 0,0.37277 0.63536,3.91399 0.63536,3.91399 l 2.303185,4.37991 2.620865,3.16846 3.09739,2.60932 4.924049,3.16848 5.241735,1.67741 4.050431,-0.18637 6.035932,-0.9319 4.765213,-3.44805 3.415066,-5.21861 0.953042,5.77777 -4.60637,16.58782 -6.512455,3.91397 -3.812168,1.02507 -2.93855,0.55914 H 31.73455 c 0,0 -5.082893,-0.65233 -5.400574,-0.65233 -0.317679,0 -3.732748,-0.8387 -3.732748,-0.8387 l -2.144347,-0.65232 -5.003469,-2.7957 -3.891591,-3.26165 -4.1298502,-5.03226 -2.859126,-4.19356 -2.382606,-7.45517 0.079417,-3.54123 0.714781,-6.89607 0.7147831,-2.70249 4.0504279,-6.61648 3.9710092,-3.44804 z"
       id="path5337" /><path
       style="fill:#ffffff;fill-opacity:1;stroke:none;stroke-width:0.329356;stroke-linejoin:bevel;stroke-dashoffset:28.2467"
       d="m 14.022526,223.86062 2.723692,-1.54854 3.116799,-1.08726 4.436526,-0.62601 4.099574,0.32948 3.509908,0.88959 2.836009,1.3838 3.81878,2.20749 3.425675,2.63582 2.105945,2.0098 1.93747,2.60284 1.151251,2.37224 1.937469,4.18435 0.70198,1.94391 1.067013,3.55835 0.617744,5.8976 -4.23997,16.50678 1.460123,-0.88958 3.790701,-3.78899 2.976404,-4.18435 3.425674,-6.35888 0.928004,-4.0254 -1.508984,-8.38712 -2.620866,-6.70968 -3.176807,-5.59139 -3.89159,-6.15053 -5.003473,-3.63442 -6.194772,-4.47311 -4.924053,-2.23656 -5.956515,-0.27957 -6.512457,0.55915 -8.021438,3.54121 -7.5449182,6.5233 -3.57390907,8.20072 -0.39709996,11.64874 1.98550503,8.10752 c 0,0 0.8736209,-11.46237 1.429563,-12.11471 0.555941,-0.6523 10.0850432,-13.01659 10.0850432,-13.01659 z"
       id="path5339" /><path
       style="fill:#ffffff;fill-opacity:1;stroke:none;stroke-width:0.3403;stroke-linejoin:bevel;stroke-dashoffset:28.2467"
       d="m 83.441876,223.04791 c 0,0 -0.415143,2.18877 -0.415143,3.23553 0,1.04681 -0.166054,4.56782 -0.166054,4.56782 0,0 0.415133,3.99685 0.415133,4.37749 0,0.38067 0.664238,3.99684 0.664238,3.99684 l 2.407824,4.47266 2.739951,3.23554 3.238118,2.66456 5.147792,3.23554 5.479895,1.71294 4.23448,-0.19032 6.31018,-0.95163 4.98173,-3.52104 3.57022,-5.32911 0.99636,5.90009 -4.81566,16.93898 -6.80836,3.99686 -3.98538,1.0468 -3.07208,0.57096 h -2.40782 c 0,0 -5.313852,-0.66613 -5.645973,-0.66613 -0.33211,0 -3.902343,-0.85646 -3.902343,-0.85646 l -2.241776,-0.66617 -5.230817,-2.85487 -4.068411,-3.3307 -4.317499,-5.13878 -2.989032,-4.28236 -2.490864,-7.61301 0.08303,-3.6162 0.747258,-7.04205 0.74726,-2.75971 4.234464,-6.75657 4.151435,-3.52102 z"
       id="path5337-8" /><path
       style="fill:#ffffff;fill-opacity:1;stroke:none;stroke-width:0.3403;stroke-linejoin:bevel;stroke-dashoffset:28.2467"
       d="m 83.440491,223.1737 2.847447,-1.58133 3.258414,-1.11028 4.638103,-0.63925 4.285854,0.33646 3.669401,0.90841 2.96485,1.4131 3.9923,2.25422 3.58132,2.69161 2.20163,2.05236 2.0255,2.65795 1.20358,2.42248 2.02549,4.2729 0.73387,1.98508 1.11549,3.6337 0.64582,6.02246 -4.43262,16.85622 1.52647,-0.9084 3.96293,-3.86922 3.11164,-4.27292 3.58133,-6.49355 0.97017,-4.11059 -1.57755,-8.56467 -2.73995,-6.85174 -3.32114,-5.70977 -4.06842,-6.28073 -5.23081,-3.71136 -6.47623,-4.56781 -5.14779,-2.28392 -6.227169,-0.28548 -6.808357,0.57097 -8.38591,3.61619 -7.887732,6.66141 -3.736298,8.37431 -0.415144,11.89537 2.07572,8.27918 c 0,0 0.913316,-11.70505 1.494519,-12.37118 0.581203,-0.66614 10.543272,-13.29218 10.543272,-13.29218 z"
       id="path5339-4" /><path
       style="fill:#ffffff;fill-opacity:1;stroke:none;stroke-width:0.326954;stroke-linejoin:bevel;stroke-dashoffset:28.2467"
       d="m 102.14721,152.62095 -28.253048,66.52216 8.884259,-7.34548 7.218795,-3.19689 2.631129,-0.5105 2.327843,-0.2105 2.265369,0.0678 1.944292,0.0967 2.845061,0.28791 4.0966,0.90166 5.90682,2.64609 7.63368,5.57931 9.21107,13.61428 3.63406,12.30132 21.45654,-64.27204 0.35742,-4.39373 -0.42712,-6.50352 -1.63155,-3.9413 -2.07721,-5.80912 -3.31406,-4.97037 -2.36307,-2.78481 -6.59924,-4.58245 -9.44743,-3.68887 -13.17626,1.00969 -6.19899,2.74123 z"
       id="path5335-7" /><path
       style="fill:#ffffff;fill-opacity:1;stroke:none;stroke-width:0.329356;stroke-linejoin:bevel;stroke-dashoffset:28.2467"
       d="m 18.1221,117.47275 c 0,0 1.347806,-9.22533 2.470977,-9.75247 1.12317,-0.52717 8.311466,-11.334005 8.311466,-11.334005 l -4.26805,13.442635 z"
       id="path5390" /><path
       style="fill:#ffffff;fill-opacity:1;stroke:none;stroke-width:0.329356;stroke-linejoin:bevel;stroke-dashoffset:28.2467"
       d="m 30.420824,161.42489 2.583293,-12.25652 2.302503,-4.67855 2.695611,-2.8994 2.302498,-2.6358 5.05427,-2.7676 4.773479,-1.97685 3.874938,-0.59307 5.559699,0.32948 4.324207,0.98842 6.121282,1.97685 3.650309,1.97686 6.402077,4.61267 3.481829,2.8335 4.324204,5.93057 3.9311,9.29122 v 9.68662 l -2.470977,6.98488 c 0,0 -2.695602,2.63582 -1.909384,0 0.786218,-2.63581 -0.224634,-10.14786 -0.224634,-10.14786 l -2.807935,-8.43461 -4.492682,-8.82995 -6.065123,-5.66699 -10.10854,-5.00803 H 52.37882 l -12.242566,5.53519 -5.278903,5.93057 -3.481831,10.41146 z"
       id="path5392" /><path
       style="fill:#ffffff;fill-opacity:1;stroke:none;stroke-width:0.329356;stroke-linejoin:bevel;stroke-dashoffset:28.2467"
       d="m 97.129434,162.75032 1.57002,-12.49064 1.909666,-4.91604 2.4463,-3.18926 2.07654,-2.88265 4.80488,-3.3234 4.58998,-2.50472 3.80866,-1.02623 5.561,-0.29742 4.38505,0.49746 6.2546,1.27919 3.795,1.55713 6.74945,3.87128 3.69728,2.42877 4.78882,5.41684 4.67211,8.80622 0.79142,9.64199 -1.88894,7.23069 c 0,0 -2.46783,2.92689 -1.90059,0.2148 0.56725,-2.71213 -1.05268,-10.07589 -1.05268,-10.07589 l -3.48412,-8.0799 -5.1934,-8.28391 -6.5002,-4.95863 -10.47116,-3.84788 -11.29176,1.27605 -11.73394,6.88684 -4.77007,6.49709 -2.615173,10.75515 z"
       id="path5392-6" /></g></svg>
