<?xml version="1.0" encoding="UTF-8"?>
<svg id="svg1282" xmlns="http://www.w3.org/2000/svg" width="81.91" height="94.22" viewBox="0 0 81.91 94.22">
  <defs>
    <style>
      .cls-1 {
        fill: #fff;
        stroke: #000;
        stroke-width: .84px;
      }
    </style>
  </defs>
  <g id="layer1">
    <g id="g1941">
      <path id="path2049" class="cls-1" d="m42.56,7.56c-.14.47-3.26,4.78-3.26,4.78l-7.02-.3-6.78,11.68,3.16,5.44-5.57,9.37,7.04,5.97,8.6-13.72,13.22-21.61-9.38-1.62Z"/>
      <path id="path2051" class="cls-1" d="m51.59,9.02l3.11.81,3.36,3.18,2.19-4.53-2.95-5.77-3.08-1.23-12.72-1.04-7.85,11.61,5.52.34,3.23-5.01,9.18,1.63Z"/>
      <path id="path2053" class="cls-1" d="m52.77,9.68l-2.94,5.04.37,4.88-6.69,10.44-4.87,2.64-2.04.86,15.64-24.64.55.79Z"/>
      <path id="path2055" class="cls-1" d="m25.89,24.35l-12.81,20.94-.73,3.3L.56,65.93l3.74,3.25,12.41-20.6.29.67-2.11,3.93,3.94,3.56,2.62-.8,8.31-11.5-6.69-5.81,5.66-9.65-2.81-4.63Z"/>
      <path id="path2057" class="cls-1" d="m15.11,53.08l-10.53,16.13,5.8,6.46s.89,1.27,1.38.97c.49-.31,2.11-4.89,2.11-4.89l8.2-14.34-3.08.05-3.88-4.38Z"/>
      <path id="path2059" class="cls-1" d="m32.13,44.38c-.12.37-8.72,14.73-8.72,14.73l4.42,5.5-.39,7.3-9.54,5.9-3.73-3.57-2.42,3.03,5.56,12.66,6.93,3.78,13.51-9.17,2.21-13.51,8.72-14.09-.25-5.57-6.09-4.57-10.21-2.44Z"/>
      <path id="path2061" class="cls-1" d="m51.69,17.62l4.83,4.19,21.02,7.72,3.91,4.61-1.85,6.3s.11,3.47-2.02,2.69c-2.13-.78-23.35-7.21-23.35-7.21l-8.48,13.35-6.12-3.83,9.32-12.53-3.91-.76-6.28,2.08-6.29,10.42-8.34,13.2-2.62-.16,15.41-24.22,6.62-3.52,8.17-12.32Z"/>
      <path id="path2063" class="cls-1" d="m40.38,33.38l5.2,4.26,3.55-4.75s-3.77-1.23-3.97-.9c-.2.33-4.78,1.39-4.78,1.39Z"/>
      <path id="path2065" class="cls-1" d="m23.33,59.07l-2.47.02-7.16,12.9,3.62,4.58,9.85-5.33.76-6.27-4.59-5.9Z"/>
    </g>
  </g>
</svg>