<?xml version="1.0" encoding="UTF-8" standalone="no"?>
<!-- Generator: Adobe Illustrator 27.5.0, SVG Export Plug-In . SVG Version: 6.00 Build 0)  -->

<svg
   version="1.1"
   id="svg5"
   inkscape:version="1.2.2 (732a01da63, 2022-12-09)"
   x="0px"
   y="0px"
   viewBox="0 0 195.31248 250.00001"
   xml:space="preserve"
   sodipodi:docname="headvulcan.svg"
   width="195.3125"
   height="250"
   xmlns:inkscape="http://www.inkscape.org/namespaces/inkscape"
   xmlns:sodipodi="http://sodipodi.sourceforge.net/DTD/sodipodi-0.dtd"
   xmlns="http://www.w3.org/2000/svg"
   xmlns:svg="http://www.w3.org/2000/svg"><defs
   id="defs19" />
<style
   type="text/css"
   id="style2">
	.st0{fill:#FFFFFF;stroke:#000000;stroke-miterlimit:10;}
</style>
<sodipodi:namedview
   bordercolor="#000000"
   borderopacity="0.25"
   id="namedview7"
   inkscape:current-layer="layer1"
   inkscape:cx="270.11936"
   inkscape:cy="49.07748"
   inkscape:deskcolor="#d1d1d1"
   inkscape:document-units="mm"
   inkscape:pagecheckerboard="0"
   inkscape:pageopacity="0.0"
   inkscape:showpageshadow="2"
   inkscape:window-height="1377"
   inkscape:window-maximized="1"
   inkscape:window-width="5120"
   inkscape:window-x="-8"
   inkscape:window-y="-8"
   inkscape:zoom="2.5877449"
   pagecolor="#ffffff"
   showgrid="false"
   showguides="true">
	</sodipodi:namedview>
<g
   id="layer1"
   inkscape:groupmode="layer"
   inkscape:label="Layer 1">
	
	
	
	
	
	
	
	
	
	
	
	
<path
   style="font-variation-settings:'wght' 700;fill:#ffffff;stroke:#ffffff;stroke-width:2.42468;stroke-opacity:1"
   d="m 45.434078,100.69226 1.863409,-4.122774 3.260981,-4.535046 c 0,0 6.05613,-4.535087 7.919538,-6.184189 1.863478,-1.649102 6.05613,-4.122783 6.05613,-4.122783 l 7.453702,-2.06135 h 9.317116 l 7.919526,0.824509 4.19273,2.885943 5.59028,2.885943 7.45371,8.245553 4.65857,9.894714 0.46575,8.24555 c 0,0 -9.78294,5.77189 -11.64642,6.18413 -1.86341,0.41221 -14.441504,5.35962 -17.236646,5.35962 -2.795142,0 -20.031795,-3.71051 -20.031795,-3.71051 l -8.385373,-3.71046 c 0,0 -3.726885,-2.88594 -4.658556,-4.5351 -0.931738,-1.6491 -4.19272,-5.77187 -4.19272,-7.42097 0,-1.6491 0,-4.12278 0,-4.12278 z"
   id="path1126" /><path
   style="font-variation-settings:'wght' 700;fill:#ffffff;stroke:#ffffff;stroke-width:2.42468;stroke-opacity:1"
   d="m 44.968242,122.13072 13.04393,9.48239 10.248849,4.94731 19.565963,-1.23684 10.248776,-3.71047 9.31712,-5.77193 6.98787,-8.6578 -12.5781,4.53502 -11.64642,5.35962 -13.509841,1.23684 -18.168383,-2.88594 -7.919538,-4.12278 -5.590226,-2.06135 z"
   id="path1128" /><path
   style="font-variation-settings:'wght' 700;fill:#ffffff;stroke:#ffffff;stroke-width:2.42468;stroke-opacity:1"
   d="m 40.775523,98.630835 4.658555,-9.482393 2.795147,-3.710452 9.782947,-5.771872 9.783014,-3.710522 17.236642,-2.06142 9.317112,3.298261 13.04394,7.420974 6.98787,7.008712 6.52196,9.482397 1.39757,16.07886 -13.50983,13.19289 c 0,0 -18.16839,9.07008 -20.0318,9.07008 -1.863413,0 -18.634221,0 -18.634221,0 l 0.931733,16.07885 14.441504,0.4122 14.907414,-5.77193 9.3171,-4.53505 15.83908,-9.48239 13.044,-12.36834 c 0,0 6.9878,-14.42973 7.45364,-16.4911 0.46577,-2.06142 4.19271,-11.54381 4.19271,-11.54381 L 144.66138,82.551935 127.42467,59.052046 100.8709,49.569653 H 78.975706 l -18.168388,6.184189 -30.74648,22.262992 -4.658555,16.491106 -0.93174,31.74543 7.453704,17.31563 7.919538,7.00879 4.658555,4.53503 13.975666,2.47368 11.646423,-0.41219 c 0,0 3.26098,-17.31563 0,-17.72796 -3.260981,-0.4122 -12.112257,-3.29819 -12.112257,-3.29819 l -8.385373,-5.77189 -7.919538,-3.71051 c 0,0 -2.795147,-3.2982 -2.795147,-5.77188 0,-2.47366 1.863409,-22.263045 1.863409,-22.263045 z"
   id="path1130" /><path
   style="font-variation-settings:'wght' 700;fill:#ffffff;stroke:#ffffff;stroke-width:2.42468;stroke-opacity:1"
   d="m 33.321821,156.34978 c 0,0 46.585548,38.34184 48.914865,39.57868 2.329247,1.23684 40.529434,19.78931 44.256314,20.20163 3.72682,0.4122 16.30492,-2.47368 19.5659,-4.5351 3.26105,-2.06135 6.52203,-5.77187 10.71468,-12.36832 4.19272,-6.59647 6.98787,-26.38578 7.4537,-30.50855 0.46576,-4.12278 -5.59023,-43.70146 -5.59023,-48.64882 0,-4.94729 -5.59028,-16.4911 -5.59028,-16.4911 l -9.78296,25.97349 c 0,0 -5.12446,9.89466 -9.31711,11.54381 -4.19272,1.64911 -23.29284,12.36834 -23.29284,12.36834 0,0 -3.72682,2.06136 -7.45364,3.29821 -3.72689,1.23684 -17.236716,3.7105 -17.236716,3.7105 l -13.509757,1.64911 c 0,0 -8.851282,-0.82458 -11.180594,-0.82458 -2.329243,0 -17.702484,-2.88593 -17.702484,-2.88593 z"
   id="path1132" /></g>
</svg>
