<?xml version="1.0" encoding="utf-8"?>
<!-- Generator: Adobe Illustrator 27.4.1, SVG Export Plug-In . SVG Version: 6.00 Build 0)  -->
<svg version="1.1"
	 id="svg3263" xmlns:sodipodi="http://sodipodi.sourceforge.net/DTD/sodipodi-0.dtd" xmlns:svg="http://www.w3.org/2000/svg" xmlns:inkscape="http://www.inkscape.org/namespaces/inkscape"
	 xmlns="http://www.w3.org/2000/svg" xmlns:xlink="http://www.w3.org/1999/xlink" x="0px" y="0px" viewBox="0 0 77.5 70.6"
	 style="enable-background:new 0 0 77.5 70.6;" xml:space="preserve">
<style type="text/css">
	.st0{fill:#FFFFFF;stroke:#000000;stroke-width:0.5334;stroke-miterlimit:11.3386;}
</style>
<sodipodi:namedview  bordercolor="#ffffff" borderopacity="1" id="namedview3265" inkscape:current-layer="layer1" inkscape:cx="-82.897521" inkscape:cy="-18.673757" inkscape:deskcolor="#505050" inkscape:document-units="mm" inkscape:pagecheckerboard="1" inkscape:pageopacity="0" inkscape:showpageshadow="0" inkscape:window-height="991" inkscape:window-maximized="1" inkscape:window-width="1920" inkscape:window-x="-9" inkscape:window-y="-9" inkscape:zoom="2.8649832" pagecolor="#505050" showgrid="false">
	</sodipodi:namedview>
<g id="layer1" transform="translate(-31.815209,-11.077858)" inkscape:groupmode="layer" inkscape:label="Layer 1">
	<path id="path973" class="st0" d="M41.9,26.4c0.4-1.1,2.2-5,2.2-5l2.6-1.6l13-4.8l8.1,2.8L80.1,10l6.4,3.1l2.1,3.9l-3.7,9.7
		l4.1,2.1l3.3,7.9l0.9,3.2l-0.4,7l-7.4-1.2l-2.1-3.7l-6-2.3l-3.9,2.1l-10.7-5.7L46.8,49l-2-0.8l-0.3-4.6l0.7-0.8l-0.4-11.9l0.2-1.3
		l-0.5-1.9l-2.2-1.4L41.9,26.4z"/>
	<path id="path975" class="st0" d="M49.5,51.1l11.8-9.4l4.5,10.7l-5.2,22.3l-1.3,0.2l-0.6-3l-0.5-3.6l-6.6-15.9L49.5,51.1z"/>
	<path id="path981" class="st0" d="M61.1,42l1.2-0.6l9.4,4.4l2.3,6l1.3,4l-0.8,4l1.2,0.3l0.7,0.6l1.4,4.6l1.8,6.8l-0.2,2l-3.1-2
		l-4.1-1.1l-0.7,3.3l-1,2.1l-0.8,0.6c0,0-0.4,0-0.5-0.2c-0.1-0.2-0.8-3.4-0.8-3.4L64.2,72l-3.2,1.5l0.5-1.8l1.5-0.7l5.9,1.3l0.6-1.2
		l0.4-0.6l2.1-1.9l0.5-1.1l0.8-6.1l-0.5-2.2l-1.6-3.4l-2.6-1.1l-3.5,0.3l0.7-2.9L61.1,42z"/>
	<path id="path983" class="st0" d="M75.8,60.4l1-3.2l6.3-6.8l7.2-0.7l1.4,1.8l1.2,10.1l-0.4,1.1c0,0-0.4,0.5-0.4,0.1
		c0-0.3-0.2-3.1-0.2-3.1l-6.7-0.2l-2,4.7l0.3,6.2l1.7,3.1l2.2,1.2l2.9,0.3l0.4,2.1l-0.8,2l-1-1.2l-0.5-1.5l-4.6-0.1l-1.6,2.2
		l-2.7-4.4l0.4-2l-3.1-11.5L75.8,60.4z"/>
	<path id="path987" class="st0" d="M88,74.7c-0.2-0.2-0.9-1.3-0.9-1.3l0.3-3.9l0.9-2.2l2.1-1.7l2.9-0.2l-1.1-2.3l-2.1-0.8l-2.2,1.5
		l-1.4,1.9l-0.9,2.3L85,70.1l0.2,2.8l0.4,1.1l1.8,0.8L88,74.7z"/>
	<path id="path989" class="st0" d="M87.5,73.7l1.1-0.3c0,0,1.4-0.6,1.4-0.8c0.1-0.1,1.1-2.2,1.1-2.2l0.4-3V67L91,65.6l2.4-0.2
		l0.6,1.2l0.2,2l-0.3,1.9l-1.3,2.3l-1.2,1.3l-0.9,0.3l-2.8,0.1L87.5,73.7z"/>
	<path id="path993" class="st0" d="M69.3,70.9l-2.4-0.2c0,0-2.5-1.2-2.5-1.5c0-0.3-0.9-3.2-0.9-3.2l0.5-3.1l1.1-1.7l1.6-0.7
		c0,0,1.3-0.2,1.5-0.1c0.1,0.1,1.6,0.4,1.6,0.4l1,0.7l0.9,1.5l0.3,1.8l-0.6,2.1L71,67.4l0.4,0.8l0.5,0.5c0,0,0.7-0.7,0.7-1
		s0.7-5.8,0.7-5.8L73,59.3l-1.3-0.5l-1.2-0.5l-1.3-0.1l-1.9,0.1c0,0-1.6,0.5-1.7,0.6C65.3,59,64,59.5,64,59.5l-2.1,9.2l0.6,0.9
		l1.3,0.7l2,0.7l2.3,0.6H69l0.3-0.3L69.3,70.9z"/>
	<path id="path995" class="st0" d="M68.3,70.9l2.9-3.4l0.8,1l-2.4,2.6L68.3,70.9z"/>
</g>
</svg>
