<?xml version="1.0" encoding="UTF-8" standalone="no"?>
<!-- Created with Inkscape (http://www.inkscape.org/) -->

<svg
   width="201.83148mm"
   height="227.82544mm"
   viewBox="0 0 201.83148 227.82544"
   version="1.1"
   id="svg3220"
   xml:space="preserve"
   inkscape:version="1.2.1 (9c6d41e410, 2022-07-14)"
   sodipodi:docname="CATEquipUpgrades.svg"
   xmlns:inkscape="http://www.inkscape.org/namespaces/inkscape"
   xmlns:sodipodi="http://sodipodi.sourceforge.net/DTD/sodipodi-0.dtd"
   xmlns="http://www.w3.org/2000/svg"
   xmlns:svg="http://www.w3.org/2000/svg"><sodipodi:namedview
     id="namedview3222"
     pagecolor="#505050"
     bordercolor="#ffffff"
     borderopacity="1"
     inkscape:showpageshadow="0"
     inkscape:pageopacity="0"
     inkscape:pagecheckerboard="1"
     inkscape:deskcolor="#505050"
     inkscape:document-units="mm"
     showgrid="false"
     inkscape:zoom="0.3581229"
     inkscape:cx="282.02609"
     inkscape:cy="367.19238"
     inkscape:window-width="1920"
     inkscape:window-height="991"
     inkscape:window-x="-9"
     inkscape:window-y="-9"
     inkscape:window-maximized="1"
     inkscape:current-layer="layer5" /><defs
     id="defs3217" /><g
     inkscape:groupmode="layer"
     id="layer5"
     inkscape:label="Layer 2"
     transform="translate(-7.1993812,-12.793032)"><rect
       style="fill:#00ff00;stroke:#000000;stroke-width:0.691999;stroke-linejoin:bevel;stroke-dashoffset:28.2467"
       id="rect3863"
       width="25.488806"
       height="91.242538"
       x="146.65298"
       y="130.39925" /></g><g
     inkscape:label="Layer 1"
     inkscape:groupmode="layer"
     id="layer1"
     transform="translate(-7.1993812,-12.793032)"><path
       style="fill:#ffffff;stroke:#000000;stroke-width:0.773283;stroke-linejoin:bevel;stroke-dashoffset:28.2467"
       d="m 55.986463,239.17501 c 9.325075,-3.56295 16.847756,-9.20263 21.9694,-16.47022 4.123353,-5.85105 5.32419,-9.90959 4.591553,-15.51829 -0.414411,-3.17247 -0.8021,-4.40336 -3.167974,-10.05788 -1.219396,-2.9144 -1.630487,-4.21139 -1.985896,-6.26542 -0.215771,-1.247 -0.323141,-2.62049 -0.238613,-3.05222 0.301185,-1.53824 67.330007,-96.261074 71.429447,-100.941663 2.48416,-2.836308 3.42334,-3.194746 8.2992,-3.167396 10.97233,0.06153 14.13952,-0.454642 18.65235,-3.039894 4.97768,-2.851552 9.91561,-8.549628 12.69883,-14.653668 1.71641,-3.764398 2.57912,-7.056712 3.08292,-11.765239 0.27111,-2.533701 0.21322,-3.223947 -0.75488,-9.002275 -1.00114,-5.975401 -1.10541,-6.376842 -2.31481,-8.883721 -3.18848,-6.611013 -5.41472,-9.545338 -7.02789,-9.26321 -0.76612,0.134088 -2.17022,1.35356 -2.91735,2.533966 -0.77148,1.21888 -3.15421,6.601773 -3.97888,8.988806 -2.109,6.104622 -4.90095,10.775811 -7.6068,12.726937 -1.34592,0.970493 -1.85528,1.161006 -4.04271,1.512033 -6.47334,1.038792 -15.32129,-2.460091 -18.92326,-7.483206 -2.83371,-3.951701 -2.50692,-7.964416 1.41961,-17.431949 0.91979,-2.217794 2.21932,-5.204975 2.88782,-6.638176 1.87124,-4.011765 2.63368,-6.356798 2.30263,-7.082232 -1.62906,-3.569793 -15.87832,2.578836 -24.23297,10.456646 -3.79746,3.580716 -7.79389,9.623419 -9.073,13.718564 -0.17228,0.551586 -0.46933,2.06872 -0.66009,3.371404 -0.44998,3.072715 0.19537,7.126804 1.71662,10.783649 2.66587,6.408514 3.11958,7.690418 3.50863,9.913465 0.22943,1.308279 0.34733,2.730977 0.26309,3.161372 -0.18396,0.93956 -9.9298,14.899657 -45.225262,64.781387 l -26.612568,37.61052 -2.218015,0.86472 c -2.119329,0.82624 -2.3783,0.86419 -5.819388,0.85296 -11.242305,-0.0368 -14.126435,0.46546 -18.917364,3.29407 -6.88076,4.0626 -12.679874,12.56722 -14.5861929,21.3912 -1.2290057,5.68881 -1.2304134,6.82 -0.01739,13.92692 0.97572,5.71646 1.124519,6.28551 2.3228129,8.88069 1.625334,3.52007 4.373956,7.82244 5.504355,8.61588 2.065144,1.44958 3.938628,-0.26569 6.512491,-5.96256 0.500058,-1.10679 0.896182,-2.08756 0.880279,-2.17946 -0.01595,-0.092 0.194362,-0.70837 0.467261,-1.36989 0.272898,-0.66153 0.793591,-2.06274 1.157101,-3.1138 1.827764,-5.28475 4.290312,-9.17133 7.028657,-11.09319 2.802119,-1.9666 8.230248,-2.24613 13.037318,-0.67139 6.187612,2.027 10.37903,5.54713 11.375872,9.55396 1.050194,4.22125 -0.321052,9.38056 -5.4325,20.43971 -3.35936,7.26831 -3.494045,8.04808 -1.498314,8.67472 1.014375,0.3185 4.06149,-0.15101 6.143918,-0.94665 z"
       id="path3422-3" /><path
       style="fill:#00ff00;stroke:#000000;stroke-width:0.264583px;stroke-linecap:butt;stroke-linejoin:miter;stroke-opacity:1"
       d="m 111.5597,133.35448 51.34701,-45.805972 45.80597,46.544772 z"
       id="path3446" /></g></svg>
