<?xml version="1.0" encoding="UTF-8" standalone="no"?>
<!-- Created with Inkscape (http://www.inkscape.org/) -->

<svg
   width="62.736736"
   height="61.961311"
   viewBox="0 0 16.599094 16.39393"
   version="1.1"
   id="svg920"
   xml:space="preserve"
   inkscape:version="1.2.1 (9c6d41e410, 2022-07-14)"
   sodipodi:docname="CATHeatsink.svg"
   xmlns:inkscape="http://www.inkscape.org/namespaces/inkscape"
   xmlns:sodipodi="http://sodipodi.sourceforge.net/DTD/sodipodi-0.dtd"
   xmlns="http://www.w3.org/2000/svg"
   xmlns:svg="http://www.w3.org/2000/svg"><sodipodi:namedview
     id="namedview922"
     pagecolor="#ffffff"
     bordercolor="#000000"
     borderopacity="0.25"
     inkscape:showpageshadow="2"
     inkscape:pageopacity="0.0"
     inkscape:pagecheckerboard="true"
     inkscape:deskcolor="#d1d1d1"
     inkscape:document-units="mm"
     showgrid="false"
     inkscape:zoom="3.659624"
     inkscape:cx="44.130216"
     inkscape:cy="72.685062"
     inkscape:window-width="5120"
     inkscape:window-height="1377"
     inkscape:window-x="-8"
     inkscape:window-y="-8"
     inkscape:window-maximized="1"
     inkscape:current-layer="layer2" /><defs
     id="defs917" /><g
     inkscape:label="Layer 1"
     inkscape:groupmode="layer"
     id="layer1"
     transform="translate(-37.045117,-63.833226)" /><g
     inkscape:groupmode="layer"
     id="layer2"
     inkscape:label="Layer 2"
     transform="translate(-37.045117,-63.833226)"><path
       style="fill:#ffffff;stroke:#ffffff;stroke-width:0.22330833;stroke-linejoin:bevel;stroke-dasharray:none;stroke-opacity:1"
       d="m 39.516304,69.606971 -2.222674,0.454044 -0.144957,0.147828 -0.08456,0.147828 0.01208,0.147829 0.08456,0.158387 0.181196,0.137269 c 0,0 0.108718,0.02112 0.157037,0.02112 0.04832,0 0.398631,-0.0528 0.398631,-0.0528 l 2.838741,-0.601872 3.672243,1.847855 -3.660164,1.858415 -3.225292,-0.665228 -0.157036,0.03168 -0.144957,0.06336 -0.108718,0.105592 -0.04832,0.168946 v 0.158387 l 0.08456,0.147829 0.217436,0.168947 2.198513,0.411808 -2.258912,1.14039 -0.157037,0.211184 -0.01208,0.200624 0.0604,0.126711 0.181196,0.137269 0.205356,0.07391 0.229515,-0.04224 2.174354,-1.129832 -0.628146,1.890092 0.03624,0.221743 0.144957,0.168947 0.241595,0.08447 0.229515,-0.03168 0.241595,-0.179506 0.0604,-0.168946 0.918061,-2.629235 3.611844,-1.784499 0.02416,3.685151 -2.283072,2.101275 -0.02416,0.190066 0.02416,0.168947 0.229515,0.211183 c 0,0 0.181197,0.06336 0.229516,0.06336 0.04832,0 0.507349,-0.232301 0.519429,-0.285098 0.01208,-0.05279 1.268373,-1.224864 1.268373,-1.224864 l 0.03624,2.291341 0.181197,0.200624 0.350312,0.05279 0.338233,-0.158387 0.07248,-0.190065 -0.01208,-2.206868 1.582447,1.425489 0.265754,0.06336 0.314074,-0.08447 0.169116,-0.242861 -0.0604,-0.179506 v -0.105592 l -0.314073,-0.337893 -1.94484,-1.763382 0.02416,-3.695711 3.648083,1.868974 0.966381,2.745385 0.241594,0.190065 c 0,0 0.169117,0.03168 0.229516,0 0.0604,-0.03168 0.241595,-0.126711 0.241595,-0.126711 0,0 0.132877,-0.08447 0.144956,-0.147827 0.01208,-0.06336 0.03624,-0.09503 0.03624,-0.147829 0,-0.0528 -0.712705,-1.942888 -0.712705,-1.942888 l 2.270992,1.172069 0.193275,-0.01056 0.253676,-0.105592 0.108718,-0.09503 0.0604,-0.200624 V 75.76297 l -0.181196,-0.179505 -2.222673,-1.129831 2.234753,-0.432927 0.169116,-0.137269 0.07248,-0.168947 0.02416,-0.126709 -0.157036,-0.253421 -0.144958,-0.08447 -0.144957,-0.06336 -3.152813,0.696905 -3.79304,-1.847855 3.768879,-1.858415 3.068257,0.65467 0.169117,-0.01056 0.120797,-0.02112 0.09664,-0.09503 0.08456,-0.0528 0.07248,-0.13727 0.02416,-0.147828 -0.09664,-0.200624 -0.157037,-0.168948 -2.210593,-0.390688 2.198514,-1.15095 0.157036,-0.179506 v -0.211184 l -0.0604,-0.137269 -0.07248,-0.147828 -0.277834,-0.07391 h -0.157037 l -2.331391,1.15095 0.688545,-1.921769 -0.04832,-0.12671 -0.144956,-0.179506 -0.217436,-0.105592 -0.253675,0.01056 -0.193275,0.179506 -0.966381,2.755943 -3.648083,1.879534 -0.03624,-3.737947 2.234754,-2.111835 0.04832,-0.116151 v -0.158387 l -0.0604,-0.147829 -0.181196,-0.116151 -0.314073,-0.07391 -0.217436,0.116151 -1.437489,1.372692 -0.08456,-2.217426 -0.169116,-0.242861 -0.277834,-0.06336 c 0,0 -0.0604,0 -0.132878,0.04224 -0.07248,0.04224 -0.241595,0.116151 -0.241595,0.116151 l -0.120797,0.200624 0.02416,2.227985 -1.594526,-1.478284 -0.144957,-0.05279 -0.169117,-0.01056 -0.120797,0.03168 -0.144957,0.08447 -0.144957,0.200625 -0.04832,0.105591 2.36763,2.291341 0.02416,3.70627 -3.720562,-1.868974 -0.96638,-2.755944 -0.132877,-0.13727 -0.169117,-0.06335 -0.157036,0.01056 -0.144958,0.0528 -0.08456,0.0528 -0.09664,0.137269 -0.03624,0.126711 0.640227,1.953447 -2.246833,-1.077036 h -0.241595 l -0.181196,0.01056 -0.120798,0.116151 -0.09664,0.158388 v 0.147828 c 0,0 0.0604,0.158388 0.108718,0.190065 0.04832,0.03168 2.270993,1.235424 2.270993,1.235424 z"
       id="path1108" /><rect
       style="fill:#00ffff;stroke:#000000;stroke-width:0.27119792;stroke-linejoin:bevel;stroke-dasharray:none"
       id="rect1214"
       width="1.9807347"
       height="11.586522"
       x="39.756809"
       y="64.467041" /><path
       style="fill:#00ffff;stroke:#000000;stroke-width:0.25691042;stroke-linejoin:bevel;stroke-dasharray:none"
       d="m 37.515166,74.128517 6.407966,0.05269 -3.169531,5.637174 z"
       id="path1272" /><g
       inkscape:groupmode="layer"
       id="layer3"
       inkscape:label="Layer 3" /></g></svg>
