<?xml version="1.0" encoding="UTF-8" standalone="no"?>
<!-- Created with Inkscape (http://www.inkscape.org/) -->

<svg
   width="137.63283"
   height="128.56793"
   viewBox="0 0 36.415352 34.016932"
   version="1.1"
   id="svg982"
   xml:space="preserve"
   inkscape:version="1.2.1 (9c6d41e410, 2022-07-14)"
   sodipodi:docname="CATStructure.svg"
   xmlns:inkscape="http://www.inkscape.org/namespaces/inkscape"
   xmlns:sodipodi="http://sodipodi.sourceforge.net/DTD/sodipodi-0.dtd"
   xmlns="http://www.w3.org/2000/svg"
   xmlns:svg="http://www.w3.org/2000/svg"><sodipodi:namedview
     id="namedview984"
     pagecolor="#ffffff"
     bordercolor="#000000"
     borderopacity="0.25"
     inkscape:showpageshadow="2"
     inkscape:pageopacity="0.0"
     inkscape:pagecheckerboard="0"
     inkscape:deskcolor="#d1d1d1"
     inkscape:document-units="mm"
     showgrid="false"
     inkscape:zoom="1.2938725"
     inkscape:cx="56.033343"
     inkscape:cy="138.34439"
     inkscape:window-width="5120"
     inkscape:window-height="1377"
     inkscape:window-x="-8"
     inkscape:window-y="-8"
     inkscape:window-maximized="1"
     inkscape:current-layer="layer1" /><defs
     id="defs979" /><g
     inkscape:label="Layer 1"
     inkscape:groupmode="layer"
     id="layer1"
     style="display:inline"
     transform="translate(-95.404021,-73.221084)"><path
       style="display:inline;fill:#ffffff;stroke:#000000;stroke-width:0.185208;stroke-linejoin:bevel"
       d="m 100.63875,73.310125 3.5426,1.373661 3.97639,2.53043 2.38583,2.241235 1.01217,1.735151 v 1.156768 l 1.01217,1.229064 2.67503,2.096643 1.44596,1.518256 0.72298,1.807448 0.21689,1.084469 1.59056,0.144597 1.95204,0.795277 c 0,0 2.31354,2.024343 2.74732,2.313535 0.43379,0.289192 1.73515,1.156766 1.73515,1.156766 l 4.77167,2.89192 1.30136,4.337875 -0.14459,3.10881 v 1.95205 l -6.21763,0.36149 -3.97638,-1.22907 -0.1446,-3.6149 c 0,0 -0.72298,-1.01217 -1.08447,-1.22906 -0.36149,-0.21689 -3.97639,-2.530429 -4.26558,-2.602726 -0.28919,-0.0723 -1.44596,-1.952046 -1.44596,-1.952046 l -4.12098,1.518259 -3.03652,-2.024343 -1.51825,-1.229066 -2.53043,1.445958 -3.10881,0.216895 V 73.454722 Z"
       id="path1209" /></g><g
     inkscape:groupmode="layer"
     id="layer3"
     inkscape:label="Layer 2"
     transform="translate(-95.404021,-73.221084)" /><path
     style="fill:#1a1a1a;stroke:#575757;stroke-width:0.185208;stroke-linejoin:bevel;stroke-opacity:1"
     d="m 4.693589,5.7118618 2.09602,-0.61347 2.24938,0.255614 1.73816,0.920202 1.22694,1.226936 0.81795,1.073571 0.92021,1.4825482 -0.10225,0.869079 -0.71571,0.664591 c 0,0 -0.71571,0.102246 -0.71571,0.357857 0,0.255614 0.35785,1.175816 0.35785,1.175816 l 0.46011,0.408977 0.81795,0.357857 -1.3803,1.891528 -0.4601,1.329182 -0.20449,0.766836 -0.30674,0.306734 -0.76683,-0.306734 -0.97133,-0.357857 -1.17581,0.357857 -1.73816,0.664591 -2.658365,0.153366 -0.971325,-0.562346 -1.840405,-1.635916 -0.46010305,-0.664591 -0.306734,-0.817956 -0.511225,-1.891528 0.05112,-1.94265 0.255614,-1.2780592 0.86907905,-1.635916 0.766834,-0.81796 0.971325,-0.817956 1.226939,-0.715714 z"
     id="path1629" /><path
     style="fill:#1a1a1a;stroke:#575757;stroke-width:0.185208;stroke-linejoin:bevel;stroke-opacity:1"
     d="m 11.262809,18.057913 1.45699,2.326069 2.40275,-0.204489 3.06735,0.817957 3.83417,2.786171 c 0,0 2.78617,2.40275 2.83729,2.504995 0.0511,0.102246 2.60725,1.76372 2.60725,1.76372 0,0 -0.40898,0.7924 -0.43455,0.94577 -0.0255,0.15336 -0.0511,1.09913 -0.0511,1.09913 l 0.86908,0.84352 0.58791,0.28117 0.99689,0.3323 1.07357,0.10224 1.048,0.0256 1.22694,-0.20449 c 0,0 0.58791,-0.30673 0.71571,-0.38342 0.12781,-0.0767 0.86909,-0.76683 1.02245,-0.89464 0.15337,-0.1278 0.61347,-1.12469 0.63903,-1.2525 0.0256,-0.1278 0.17893,-1.61035 0.17893,-1.7126 0,-0.10224 -0.0256,-1.226932 -0.0256,-1.226932 0,0 -0.66459,-0.996887 -0.74127,-1.099132 -0.0767,-0.102243 -0.69015,-0.613469 -0.84352,-0.690153 -0.15337,-0.07668 -1.53367,-0.562345 -1.53367,-0.562345 0,0 -1.78929,-0.153366 -1.89153,-0.102243 -0.10224,0.05112 -1.17581,0.178927 -1.17581,0.178927 0,0 -1.15026,-0.460102 -1.15026,-0.63903 0,-0.178929 -0.0511,-0.920202 -0.0256,-1.099132 0.0256,-0.178927 -0.40898,-0.460099 -0.51122,-0.536784 -0.10225,-0.07668 -2.27495,-1.456989 -2.27495,-1.456989 l -1.43142,-0.690149 c 0,0 -0.74128,-0.81796 -0.7924,-1.04801 -0.0511,-0.23005 -1.09913,-0.971325 -1.09913,-0.971325 0,0 -1.02245,-0.511225 -1.38031,-0.869079 -0.35785,-0.357857 -1.7126,-1.175816 -1.7126,-1.175816 l -0.71571,-1.380305 -1.20138,-0.63903 c 0,0 -1.50811,-0.511222 -1.73816,-0.485661 -0.23005,0.02556 -1.07357,0.613468 -1.07357,0.613468 l -0.35785,0.766837 -0.7924,1.175813 -0.38342,0.562346 -0.76683,2.172702 z"
     id="path3422" /></svg>
