<?xml version="1.0" encoding="utf-8"?>
<!-- Generator: Adobe Illustrator 27.3.1, SVG Export Plug-In . SVG Version: 6.00 Build 0)  -->
<svg version="1.1"
	 id="svg5" xmlns:svg="http://www.w3.org/2000/svg" xmlns:sodipodi="http://sodipodi.sourceforge.net/DTD/sodipodi-0.dtd" xmlns:inkscape="http://www.inkscape.org/namespaces/inkscape" inkscape:version="1.2.2 (732a01da63, 2022-12-09)"
	 xmlns="http://www.w3.org/2000/svg" xmlns:xlink="http://www.w3.org/1999/xlink" x="0px" y="0px" viewBox="0 0 708.7 708.7"
	 style="enable-background:new 0 0 708.7 708.7;" xml:space="preserve">
<style type="text/css">
	.st0{fill:#020202;}
	.st1{fill:#FFFFFF;}
</style>
<sodipodi:namedview  bordercolor="#ffffff" borderlayer="false" borderopacity="1" id="namedview7" inkscape:current-layer="layer2" inkscape:cx="-857.24762" inkscape:cy="2.7923375" inkscape:deskcolor="#505050" inkscape:document-units="mm" inkscape:pagecheckerboard="true" inkscape:pageopacity="0" inkscape:showpageshadow="0" inkscape:window-height="1377" inkscape:window-maximized="1" inkscape:window-width="5120" inkscape:window-x="-8" inkscape:window-y="-8" inkscape:zoom="0.71624579" pagecolor="#505050" shape-rendering="crispEdges" showborder="true" showgrid="false">
	</sodipodi:namedview>
<g id="layer1" transform="translate(-64.744396,-89.693766)" inkscape:groupmode="layer" inkscape:label="Layer 1">
</g>
<path id="path2185" class="st0" d="M-99.2-123.5"/>
<path id="path762" class="st1" d="M232.3,448.6l38.5,39.1l15.8,37.1l-3.2,38.5c0,0-87.2-28.5-85.3-31.2
	C199.8,529.5,232.3,448.6,232.3,448.6L232.3,448.6z"/>
<path id="path530" class="st1" d="M195.5,145.8l-3.7,4.2v4.2l19.6,69.8l23.3,64.2l7.3,17.7c0,0,8.2,9.8,9,9.8
	c0.8,0,45.9,3.4,45.9,3.4l41-2c0,0,4.3-4.8,5.9-6.2c1.6-1.4,19.6-49.6,19.6-49.6l137.1-34.5c0,0,3.3-12.1,3.5-13.7
	c0.2-1.7,5.3-32.3,5.3-32.3s6.7-17.7,7.8-19.4c1-1.7,22.4-22.7,25.1-24.7c2.7-2,20.2-11.5,20.2-11.5l10.2-8.1l-19.2-68.7L367.1,78.8
	l-122.2,40.4L195.5,145.8z"/>
<path id="path532" class="st1" d="M136.2,434.9c0.7,3.3,17.9,85.4,17.9,85.4l-3.3,74.7c0,0,2.7,6.6,6,6.6c3.3,0,2.7,0.8,10.6-0.8
	c8-1.6,25.2-3.3,25.2-3.3s37.2,14.8,41.1,13.1c4-1.6,17.2-10.7,17.2-10.7s14.6-4.9,17.9-5.7c3.3-0.8,11.9-6.6,11.9-6.6l2.7-27.1
	l-19.9-9l-8.6-14.8c0,0-7.3-4.1-10.6-4.1s-27.2-7.4-27.2-7.4l-4.6-3.3l-13.3-26.3l-12.6,28.7L153.5,462l12.6-29.6l30.5,59.1l10-14.8
	l-22.6-60l-26.5-20.5L136.2,434.9z"/>
<path id="path534" class="st1" d="M188.6,473.4l4.6,17.2l3.3,18.9l7.3,12.3l10,4.1l-8.6-50.1L188.6,473.4z"/>
<path id="path536" class="st1" d="M154.1,450.5l10,28.7l15.3,34.5l-31.8-50.9L154.1,450.5z"/>
<path id="path538" class="st1" d="M175.1,444.7l1.3,13.1l16.6,32.8v14.8l-8,17.2l0.7,8.2l12.6-18.9c0,0,2-31.2-0.7-31.2
	C195,480.8,175.1,444.7,175.1,444.7L175.1,444.7z"/>
<path id="path540" class="st1" d="M164.7,432.4l14.3,24.8c0,0-1-12.1-2.7-15.6C174.7,438.1,164.7,432.4,164.7,432.4z"/>
<path id="path542" class="st1" d="M161.6,434c2-0.6,8-0.2,8-0.2s1.5-6.4-0.5-6.4C167.1,427.5,161.6,434,161.6,434L161.6,434z"/>
<path id="path544" class="st1" d="M183.7,521.1l7.8-24.6l-4.1-16.6l-2-8l13.8,25.7L188,523.5l-6.8,1.2L183.7,521.1z"/>
<path id="path546" class="st1" d="M79.2,209.8l-58.4,32.8L2.9,290.3l13.3,116.6l62.4,153.6l70.3-27.1l-28.5-41.1L70.6,386.4l-8-96.1
	l27.9-66.5l41.1,16.4l43.1,103.5l13.3,69l18.6,48.5l-1.3-101l-64.4-173.3L79.2,209.8z"/>
<path id="path548" class="st1" d="M79.8,557.2c0,0,11.9,17.2,15.3,16.4c3.3-0.8,45.1,12.3,47.1,16.4c2,4.1,9.3,13.1,13.3,13.1
	c4,0,15.3-2.5,15.3-2.5l-2.7-50.1l-17.9-17.2l-19.2-4.1L79.8,557.2z"/>
<path id="path550" class="st1" d="M203.8,361.8l39.8,36.1l-16.6,85.4c0,0-8,32-12.6,37c-4.6,4.9-10-44.3-10-44.3L203.8,361.8z"/>
<path id="path555" class="st1" d="M617.2,149.1l-25.2,3.3L572.8,163l-3.3,9.9l-6,32.8l0.7,15.6l4,26.3l4,44.3l26.5,23.8l38.5,1.6
	c0,0,22.6-11.5,24.5-14.8c2-3.3,5.3-14,8-14c2.7,0,38.5-5.7,38.5-5.7l2.7-32.8c0,0,1.3-22.2,0.7-25.5c-0.7-3.3-4-10.7-4-10.7
	s-9.3,1.6-10.6-3.3c-1.3-4.9-6-18.9-8-25.5c-2-6.6-4.6-15.6-4.6-15.6l4.6-1.6l2-5.7L617.2,149.1z"/>
<path id="path563" class="st1" d="M298,402.4h41.4l1-13.8l-33.8,4.5l-21,3.7c0,0-5.6,21.1-5.9,24c-0.3,2.8-3.6,20.7-2.6,23.6
	c1,2.8,2.6,15.4,3.9,16.3c1.3,0.8,17.7,7.7,20,7.7s24.9,0.8,27.2,0.8c2.3,0,28.9-1.2,31.2-1.6c2.3-0.4,16.7-3.3,16.7-3.3
	s1.3-7.7,2.6-7.7c1.3,0,39.1,1.2,39.1,1.2s24,2,27.9,2.4c3.9,0.4,26.6,6.9,32.8,8.9c6.2,2,30.9,10.2,34.8,10.2
	c3.9,0,18.1,7.3,18.1,7.3s3.3,8.1,6.6,5.7c3.3-2.4,5.9-3.7,7.9-9.3c2-5.7,3.3-18.7,3.3-18.7l-115.2-26.8H320.6l-31.2-1.2l-5.9-2.8
	c0,0,1.6-13,2-14.6c0.3-1.6,3.6-14.6,3.6-14.6l2.3-4.5L298,402.4z"/>
<path id="path565" class="st1" d="M296.4,401.6c-1.3,0.4-7,14.8-6.3,17.2c0.7,2.5-4.3,8.6,1.3,8.6c5.6,0,18.6-0.4,23.2-0.4
	c4.6,0,14.3,1.2,14.3,1.2l16.6,3.3c0,0,44.4,1.2,46.4,0.8c2-0.4,19.6-3.3,21.9-3.7c2.3-0.4,6-0.8,6-0.8s22.2-2.1,23.6-2.5
	c1.3-0.4-9.3,7.4-9.3,7.4l-26.2,3.7l-60.7-2.5l-57.1-1.2l-7.3-1.2l6.3-24.2l2.7-6.2L296.4,401.6z"/>
<path id="path567" class="st1" d="M408.9,403.2c0,0,14.6-0.4,16.9-0.4c2.3,0,8,1.6,8.3,3.3c0.3,1.6,0.7,3.7,0.3,7.8
	c-0.3,4.1,0,9-1,11.1c-1,2.1-1.3,6.2-1.3,6.2s2.7,1.6,4.3,0.4c1.7-1.2,6-5.3,7.3-7.4c1.3-2.1,3-4.1,3-7.8c0-3.7-0.7-15.6-0.7-15.6
	s-1.7-0.8-4-1.2c-2.3-0.4-17.2-1.2-19.9-1.2c-2.7,0-9.6-2.9-10.9-2.9c-1.3,0-3,0.4-3,0.4L408.9,403.2z"/>
<path id="path571" class="st1" d="M377.7,371.2c-2.3-0.4-11.6-0.8-13.3-0.8c-1.7,0-8.6,0.8-10.9,2.5c-2.3,1.6-3.6,3.7-4,7.4
	c-0.3,3.7-6,5.3,1.7,7c7.6,1.6,9,1.6,12.9,1.6c4,0,8-1.2,10,0c2,1.2,3,2.9,5,1.6c2-1.2,2-1.6,2.7-3.7c0.7-2.1,0.7-9.4-0.3-11.5
	c-1-2.1-0.7-3.3-2-3.7C378,371.2,377.7,371.2,377.7,371.2L377.7,371.2z"/>
<path id="path573" class="st1" d="M353.5,394.5c0,0-2.3,7.8-2.3,10.3c0,2.5,3.6,6.6,5.6,6.6c2,0-2.3-0.4,4,0.4
	c6.3,0.8,8.3,0.4,10.9,0.8c2.7,0.4,13.3,1.6,13.3,1.6s0.7,0.8,2.3-2.5c1.7-3.3,2.3-4.1,2.7-8.2c0.3-4.1,2.3-12.7,0.3-12.7
	c-2,0-4-0.8-5,2.1c-1,2.9,0,0.4-1.7,3.7c-1.7,3.3-1,3.7-3.3,4.9c-2.3,1.2-10.6,2.9-12.9,2.5c-2.3-0.4-4.3,0.4-5.3-2.1
	c-1-2.5-1.3-3.3-1.3-4.9c0-1.6,2.7-2.1,0-2.1c-2.7,0-5,0-5,0L353.5,394.5z"/>
<path id="path575" class="st1" d="M339.6,389.3c0,4.5,0,7.8,2.3,10.7c2.3,2.9,0.3,5.3-0.3,8.2c-0.7,2.9-7.3,12.3-7.3,12.3
	s-7.6,3.3-0.7,4.1c7,0.8,6.6,1.2,13.6,0.4c7-0.8,8.6-1.6,15.3-0.8c6.6,0.8,11.6,0.8,21.6,0.8c10,0,23.2,3.3,24.9,2.5
	c1.7-0.8,13.9-4.5,13.9-4.5s1-2.1-3.3-2.9c-4.3-0.8-6.6-1.2-3.6-4.1c3-2.9,1-2.9,4.3-5.3c3.3-2.5,5-3.3,5-3.3s-0.3-3.7-7-3.7
	c-6.6,0-10.3,0.4-11.9,0.4c-1.7,0-1.3,0-3-1.6c-1.7-1.6-2-2.1-3.3-2.9c-1.3-0.8-1.3-0.8-4.6-2.5c-3.3-1.6-5.3-2.5-5.3-2.5
	s-1.3,18.5-2.7,18.5c-1.3,0-30.2-3.7-30.2-3.7l-4-9.4l-0.3-5.7l-4.6-3.7L339.6,389.3z"/>
<path id="path577" class="st1" d="M444.7,402.8c0,0,9,6.6,15.6,8.2c6.6,1.6,27.9,6.6,30.2,7c2.3,0.4,18.9,4.5,22.9,4.9
	c4,0.4,24.9,3.3,30.2,3.3s14.3-1.2,14.9,0.4c0.7,1.6-1,9.4-2.3,13.6c-1.3,4.1-3.6,16-6,18.5c-2.3,2.5-42.1-3.7-44.1-3.7
	c-2,0-25.5-8.2-25.5-8.2s-3.3-1.2-3.3-5.7c0-4.5,0.7-15.2,0.7-15.2s-12.3-2.1-15.3-4.5c-3-2.5-14.9-4.1-16.3-4.9
	c-1.3-0.8-3.6-2.9-3.6-4.5C442.7,410.2,444.7,402.8,444.7,402.8L444.7,402.8z"/>
<path id="path579" class="st1" d="M437.4,428.1l-2.7,7.8c0,0,2.7,2.9,5.3,4.5c2.7,1.6,5,4.5,11.6,5.7c6.6,1.2,26.2,4.9,26.2,4.9h3.3
	c0,0,10.6-1.2,4.6-2.1c-6-0.8-16.6-7-19.6-8.6c-3-1.6-11.3-0.4-12.3-4.1c-1-3.7-0.3-4.5-1.3-7.4c-1-2.9-1.7-6.2-1.7-6.2l-6-2.9
	L437.4,428.1z"/>
<path id="path581" class="st1" d="M433.4,442.7l2-11.1l7.6,7.8c0,0-5.6,5.7-7,5.3C434.8,444.3,433.4,442.7,433.4,442.7L433.4,442.7z
	"/>
<path id="path583" class="st1" d="M483.9,443.1c-1,2.9-8.6,11.9-1.7,12.7c7,0.8,7.6,0,13.6,1.2c6,1.2,8,2.9,10.6,2.5
	c2.7-0.4,2.3-7,1.7-9c-0.7-2.1-21.9-8.6-21.9-8.6L483.9,443.1z"/>
<path id="path585" class="st1" d="M506.7,451.7c0,0-1.3,4.9,2,5.7c3.3,0.8,4,2.1,10.3,3.3c6.3,1.2,7,2.1,10,2.5c3,0.4,7,1.2,7,1.2
	l-3.3-9.4c0,0-1.3-3.3-6.6-4.1C520.7,450,506.7,451.7,506.7,451.7L506.7,451.7z"/>
<path id="path587" class="st1" d="M610.7,325.8l-17.8,25.6c0,0-4.7,5.8-7.5,20.9c-2.8,15.1-2.8,44.1-5.6,58.1
	c-2.8,13.9-1.9,11.6-8.4,34.8c-6.6,23.2-12.2,40.1-15,49.4c-2.8,9.3,0,16.8-10.3,19.7c-10.3,2.9-23.9,23.8-23.9,23.8
	s-2.3,23.8-0.5,33.1c1.9,9.3-0.5,20.3,2.3,23.8c2.8,3.5,9.4,4.1,15,3.5c5.6-0.6,19.7,0,19.7,0s36.6,7,38,4.1
	c1.4-2.9,9.4-28.5,10.3-32.5c0.9-4.1,2.3-9.3,2.8-13.4c0.5-4.1-7.5-12.2-6.6-15.7c0.9-3.5,2.3-7,4.7-11.6c2.3-4.6,6.6-9.9,8-7.5
	c1.4,2.3,3.3,5.8,7.5,5.8c4.2,0,11.7-0.6,15.5-2.3s25.3-16.3,25.3-16.3s-2.3-4.1-2.3-13.4c0-9.3-2.8-31.9-2.8-38.3
	c0-6.4-0.9-17.4-3.8-18.6c-2.8-1.2-13.6-2.9-17.4-5.8c-3.8-2.9-14.1-9.3-18.8-13.4c-4.7-4.1-9.4-13.4-9.4-13.4l-3.3-13.4
	c0,0-0.9-12.2-0.9-16.3c0-4.1,2.8-13.4,3.8-16.3c0.9-2.9,4.7-9.9,6.6-11.6c1.9-1.7,12.7-8.1,14.1-10.5c1.4-2.3,9.4-8.1,9.4-8.1
	s0.9-7.5,0-9.9c-0.9-2.3-1.4-4.6-1.9-8.1c-0.5-3.5-1.4-4.1-1.4-6.4c0-2.3,1.9-2.3-0.5-2.9c-2.3-0.6-22.5-0.6-22.5-0.6L610.7,325.8z"
	/>
<path id="path595" class="st1" d="M351.2,506.3c0,0-8,0-10-3.3c-2-3.3-10-1.6-2.7-9.9c7.3-8.2,0-5.7,8-8.2c8-2.5,14.6-2.5,14.6-2.5
	s2.7,0.8,5.3,4.1c2.7,3.3,5.3,9.9,4.6,18.1c-0.7,8.2-2,18.9-2,23c0,4.1-0.7,8.2-0.7,14c0,5.7-2.7,1.6,0,9.9c2.7,8.2,4.6,9.9,6,14.8
	c1.3,4.9,3.3,9.9-3.3,9c-6.6-0.8-18.6-1.6-22.6-3.3c-4-1.6-12.6-8.2-12.6-8.2s0-4.9,2.7-12.3c2.7-7.4,1.3-4.1,4-9.9
	c2.7-5.7,3.3-7.4,4.6-12.3c1.3-4.9,1.3-4.9,2-11.5C349.8,511.2,351.2,506.3,351.2,506.3L351.2,506.3z"/>
<path id="path597" class="st1" d="M326.8,569.6h4.7c0,0,0.7,9.2,4.7,10.8c4,1.7,0,2.5,8.7,3.3c8.7,0.8,10.1,2.5,14.1,0.8
	c4-1.7,4.7-1.7,10.8-3.3c6-1.7,12.8-6.7,12.8-6.7s0.7-5.8,3.4-5.8c2.7,0,9.4,2.5,13.4,3.3c4,0.8,12.1,4.2,12.1,4.2l7.4,3.3
	c0,0,6,7.5,2,7.5c-4,0-2.7-6.7-6,0c-3.4,6.7-6,14.1-4,18.3c2,4.2,2.7,5,4,8.3c1.3,3.3,7.4,7.5,1.3,8.3c-6,0.8-6.7,6.7-11.4,0.8
	c-4.7-5.8-10.8-4.2-13.4-4.2c-2.7,0-22.2,1.7-28.2,1.7c-6,0-18.1,0.8-18.1,0.8l-11.4-1.7h-16.1c0,0-7.4,1.7-8.7-2.5
	c-1.3-4.2-4-6.7-3.4-13.3c0.7-6.7,2-20,2-20L326.8,569.6z"/>
<path id="path599" class="st1" d="M393,563.8l114.1,6.6l10,0.8l-2.7,39.4l-51.7-10.7l-19.9-20.5l-33.8-5.7L393,563.8z"/>
<path id="path605" class="st1" d="M404.9,637.5l22.6-3.3l18.6,10.7c0,0,22.6,14.8,25.9,14.8c3.3,0,25.9,5.7,30.5,5.7
	c4.6,0,34.5,6.6,37.8,5.7c3.3-0.8,26.5-1.6,30.5-2.5c4-0.8,47.1-0.8,47.1-0.8l7.3,1.6l-17.2,36.1h-56.4l-12.6-18.1l-40.5-4.9
	l-61.7-27.9L404.9,637.5z"/>
<path id="path609" class="st1" d="M616.5,626.2l1.3,28.7c0,0,0.7,5.7-2.7,5.7c-3.3,0-70.3,0.8-70.3,0.8l-45.8-8.2l-48.4-13.1l6-5.7
	l29.9,7.4l-0.7-23l-34.5-16.4c0,0,64.4,20.5,67.7,20.5S616.5,626.2,616.5,626.2L616.5,626.2z"/>
<path id="path611" class="st1" d="M254.8,634.9c-3.3,1.6-10.5,8.1-10.5,8.1l1.3,13l15.8,14.7h23c0,0,6.7,6.7,14.8,8.3
	c8.1,1.7,74.6,17.5,74.6,17.5l18.1-5.8l-0.7-26.6l7.4-21.6c0,0,8.7-9.2,5.4-9.2C400.6,633.3,254.8,634.9,254.8,634.9L254.8,634.9z"
	/>
<path id="path637" class="st1" d="M383.2,515.7l-0.9,42.4l128.1,2.9l-7-35.4l-0.9-5.2L383.2,515.7z"/>
<path id="path639" class="st1" d="M512.7,523.2l26.3-23.8l12.2,23.2l-30.5,29.6L512.7,523.2z"/>
<path id="path641" class="st1" d="M576,306.6l11.3,11l-0.9,34.3l-5.2,17.4l-2.3,40.1l-5.2,44.1l-15.5,44.7l-8.9-9.3l8-33.1l8-38.9
	l6.1-77.2l1.4-33.7L576,306.6z"/>
<path id="path643" class="st1" d="M207.8,316.5l21.1,27.3l126.7,15.7l-15.5,18h-91l-35.2-19.7l-11.3-33.1L207.8,316.5z"/>
<path id="path645" class="st1" d="M365,350.8c4.2-4.6,38.5-65.6,38.5-65.6l155.3-44.7v21.5l-142.1,34.3l-34.2,61l-17.8-1.7l2.3-8.7
	L365,350.8z"/>
<path id="path647" class="st1" d="M400.1,468.7l11.3,18.6l110.7-1.2l11.3,12.2l-17.8,7.5l-108.4,3.5l-18.3-17.4L400.1,468.7z"/>
<path id="path662" class="st1" d="M136.4,188.8c0,0,20.6-46.5,16.9-46.5s-84.4,41.8-84.4,41.8l-15,47.6L136.4,188.8z"/>
<path id="path664" class="st1" d="M20.3,242.8l48.8-58.9L63.3,232L20.3,242.8z"/>
<path id="path668" class="st1" d="M151.5,144l13.9-9.9l22.3-12.3L242,91.5c0,0,41.8-16.4,44.6-16.4c2.8,0,22.3-12.3,22.3-12.3
	l44.6-7.4l79.4-16.4l52-14l47.4-6.6l66.4-4.1l110-0.8L707.7,6L645,11.8l-95.2,2.5l-71,7.4l-44.1,11.5l-66.4,14.8l-65.9,10.7
	l-38.1,17.2l-52.5,25.5l-50.1,29.6L151.5,144z"/>
<path id="path670" class="st1" d="M148.8,144l8.3-5.2l-2.4,2.9l-1,2.1L148.8,144z"/>
<path id="path672" class="st1" d="M153.4,144.3c0.1-0.2,0.8-1.6,0.8-1.6s0.4-0.8,0.7-1.1c0.3-0.2,1.9-1.3,1.7-1.2
	c-0.3,0.1-2.3,1.1-2.4,1.2C154.2,141.9,153.4,144.3,153.4,144.3L153.4,144.3z"/>
<path id="path674" class="st1" d="M148,144.4l15.1-11.7l-2.2,4l-9.2,6.8L148,144.4z"/>
</svg>
