<?xml version="1.0" encoding="UTF-8" standalone="no"?>
<!-- Created with Inkscape (http://www.inkscape.org/) -->

<svg
   width="256"
   height="256"
   viewBox="0 0 67.733332 67.733333"
   version="1.1"
   id="svg358"
   xml:space="preserve"
   sodipodi:docname="GBallista.svg"
   inkscape:version="1.2.1 (9c6d41e410, 2022-07-14)"
   xmlns:inkscape="http://www.inkscape.org/namespaces/inkscape"
   xmlns:sodipodi="http://sodipodi.sourceforge.net/DTD/sodipodi-0.dtd"
   xmlns="http://www.w3.org/2000/svg"
   xmlns:svg="http://www.w3.org/2000/svg"><sodipodi:namedview
     id="namedview360"
     pagecolor="#ffffff"
     bordercolor="#000000"
     borderopacity="0.25"
     inkscape:showpageshadow="2"
     inkscape:pageopacity="0.0"
     inkscape:pagecheckerboard="0"
     inkscape:deskcolor="#d1d1d1"
     inkscape:document-units="mm"
     showgrid="false"
     inkscape:zoom="2.587745"
     inkscape:cx="-43.474144"
     inkscape:cy="154.57474"
     inkscape:current-layer="layer2"
     inkscape:window-width="5120"
     inkscape:window-height="1377"
     inkscape:window-x="-8"
     inkscape:window-y="-8"
     inkscape:window-maximized="1" /><defs
     id="defs355" /><g
     inkscape:label="Layer 1"
     inkscape:groupmode="layer"
     id="layer1" /><g
     inkscape:groupmode="layer"
     id="layer2"
     inkscape:label="Layer 2"><path
       style="font-variation-settings:'wght' 700;fill:#ffffff;stroke-width:0.00000000751798;stroke-linejoin:bevel"
       d="m 54.535525,41.939901 c 0.549791,-0.249862 -3.257536,0.329056 -3.257536,0.329056 l -0.273776,-0.191142 -0.07953,-0.586463 0.151486,-0.887608 -0.102019,-0.516537 -1.097355,-0.132412 -0.349524,0.252664 -0.2475,0.769198 -0.128982,0.817684 0.07953,0.586458 -3.65807,0.323456 -0.384046,-0.473651 -0.02027,-0.562217 0.09824,-0.513734 -0.25128,-0.261073 -0.333034,-0.215386 -0.905328,0.104401 -0.349524,0.252663 -0.01872,1.100193 -0.02473,0.702072 -0.02251,0.06992 -1.269106,0.192974 -5.66593,-23.446357 -0.80417,-3.336024 0.441758,-1.164518 0.960805,-1.110429 0.625537,-0.693669 13.660136,-3.274184 2.560033,1.838684 4.057091,25.32038 -0.861015,2.259106 -0.515266,0.976178 -0.135001,0.419565 -0.06149,0.607901 -0.126753,0.185539 z"
       id="path615" /><path
       style="font-variation-settings:'wght' 700;fill:#ffffff;stroke-width:0.00000000751798;stroke-linejoin:bevel"
       d="m 53.944511,43.359884 -9.172808,18.087727 -5.765008,0.411052 -3.551583,-0.424304 -1.044105,-0.506299 3.921879,-7.812221 -0.712621,-1.953323 -5.582417,11.722533 -0.09824,0.513729 c 0,0 0.01201,0.796245 0.449317,0.896016 0.437292,0.09977 6.941884,0.307831 6.941884,0.307831 l 4.789944,0.535281 3.547803,-0.605965 2.01539,-1.470299 5.392984,-0.08845 3.162206,-2.742025 7.74227,2.61359 0.546015,-1.280127 -0.345059,-1.011627 -8.673556,-18.26712 -1.185121,-0.484856 -1.982412,0.534203 z"
       id="path639" /><path
       style="font-variation-settings:'wght' 700;fill:#ffffff;stroke-width:0.00000000751798;stroke-linejoin:bevel"
       d="m 40.129108,46.491411 1.388306,-2.439042 0.231014,-0.301149 0.927828,-0.174333 0.576075,0.710477 0.449315,0.896013 c 0,0 0.36155,0.543579 0.657829,0.664793 0.296278,0.12122 -1.636669,-0.748728 -1.636669,-0.748728 l -0.533304,-0.218185 -0.486758,1.304371 -1.17155,1.973793 z"
       id="path641" /><path
       style="font-variation-settings:'wght' 700;fill:#ffffff;stroke-width:0.00000000751798;stroke-linejoin:bevel"
       d="m 43.707653,45.581498 1.755181,0.797214 0.349523,-0.252666 c 0,0 0.498782,-0.50813 0.27,-0.839125 -0.228781,-0.330995 -0.359315,-1.17572 -0.359315,-1.17572 l 0.02473,-0.702075 c 0,0 3.451791,-0.724378 3.31679,-0.304813 -0.135,0.419563 0.06081,1.686653 0.06081,1.686653 0,0 0.06526,0.422361 0.302291,0.519333 0.237025,0.09697 1.334376,0.22939 1.334376,0.22939 l 0.462024,-0.602298 -0.373572,-1.339817 -0.07128,-0.820485 3.799079,-0.344897 -0.687021,1.301572 -2.321463,-0.07931 0.02628,0.960341 -0.151485,0.887609 -0.572294,0.31979 -0.549793,0.249863 c 0,0 -0.392292,-0.239629 -0.792829,-0.245226 -0.400536,-0.0056 -1.109378,-0.928662 -1.109378,-0.928662 l -0.198035,-0.634944 -0.04277,-0.492292 -2.084441,0.01768 0.336817,1.245649 -0.368243,1.352855 c 0,0 -0.225,0.699271 -0.484525,0.672226 -0.259526,-0.02705 -1.4364,-0.745929 -1.4364,-0.745929 l -2.57051,-0.972511 0.450001,-1.398542 z"
       id="path643" /><path
       style="font-variation-settings:'wght' 700;fill:#ffffff;stroke-width:0.00000000751798;stroke-linejoin:bevel"
       d="m 43.235405,42.776926 -0.700162,0.821401 1.164164,2.217194 0.929724,0.340793 -0.658601,-1.495997 c 0,0 -0.394185,-0.75476 -0.397191,-0.95382 -0.0031,-0.199061 -0.09077,-0.551497 -0.09077,-0.551497 z"
       id="path645" /><path
       style="font-variation-settings:'wght' 700;fill:#ffffff;stroke-width:0.00000000751798;stroke-linejoin:bevel"
       d="m 45.306704,42.279086 c -0.01537,0.151983 0.197694,1.782223 0.197694,1.782223 0,0 0.11328,0.481574 0.216414,0.682034 0.10314,0.200466 0.382932,0.789722 0.382932,0.789722 l 0.129769,0.01354 -0.38826,-3.482399 z"
       id="path647" /><path
       style="font-variation-settings:'wght' 700;fill:#ffffff;stroke-width:0.00000000751798;stroke-linejoin:bevel"
       d="m 45.819147,42.447397 3.328645,-0.176946 c 0,0 -0.03285,1.133634 0.02204,1.184071 0.05488,0.05043 0.290146,1.013986 0.290146,1.013986 l 0.323544,0.468097 0.07214,0.365245 -0.105541,0.180639 -1.133982,-1.191346 c 0,0 -0.40364,-0.80862 -0.508391,-0.851476 -0.104754,-0.04286 -2.355406,0.0995 -2.355406,0.0995 z"
       id="path649" /><path
       style="font-variation-settings:'wght' 700;fill:#ffffff;stroke-width:0.00000000751798;stroke-linejoin:bevel"
       d="m 50.982051,40.474933 c -0.152473,0.105484 -0.414987,0.921342 -0.446807,1.020231 -0.03182,0.0989 -0.03419,0.769384 -0.07687,0.975738 -0.04269,0.206353 0.09151,0.82081 0.09867,1.019585 0.0072,0.198769 0.175316,0.855091 0.175316,0.855091 l 0.34158,0.559411 0.208711,0.309209 -0.135299,-1.789956 5.217561,-1.110782 -0.184606,-1.194624 z"
       id="path651" /><path
       style="font-variation-settings:'wght' 700;fill:#ffffff;stroke-width:0.00000000751798;stroke-linejoin:bevel"
       d="m 49.056098,44.471136 0.678908,0.837304 0.03317,0.265363 c 0,0 -0.579438,-0.04122 -0.741211,-0.275271 -0.161771,-0.234049 0.02915,-0.827399 0.02915,-0.827397 z"
       id="path653" /><path
       style="font-variation-settings:'wght' 700;fill:#ffffff;stroke-width:0.00000000751798;stroke-linejoin:bevel"
       d="m 49.641126,45.158121 c 0,0 0.359062,0.06299 0.479727,0.05638 0.12067,-0.0066 0.346073,0.02968 0.498551,-0.0758 0.152486,-0.105485 0.470439,-0.283153 0.470439,-0.283153 l 0.173431,-0.09691 0.0504,0.580168 -0.405461,0.449625 c 0,0 -0.482643,0.02636 -0.566443,-0.008 -0.0838,-0.03428 -0.700647,-0.622379 -0.700647,-0.622379 z"
       id="path655" /><path
       style="font-variation-settings:'wght' 700;fill:#ffffff;stroke-width:0.00000000751798;stroke-linejoin:bevel"
       d="m 42.090867,42.908487 c -0.03977,0.123612 -0.552353,1.200872 -0.552353,1.200872 l 0.696397,0.340856 0.747283,-0.701461 0.447362,-0.432478 -0.115374,-0.746642 z"
       id="path657" /><path
       style="font-variation-settings:'wght' 700;fill:#ffffff;stroke-width:0.00000000751798;stroke-linejoin:bevel"
       d="m 3.9294152,6.7044645 0.7976795,-0.1212953 0.9737898,0.5103069 0.8030293,1.3357229 9.0623872,12.212753 -0.08696,0.859703 -0.07846,1.422731 -0.45398,0.821457 -0.948283,1.178779 -0.34686,0.193821 -0.566444,-0.008 L 2.9886632,11.691205 2.4805146,10.028486 2.0211837,9.3929244 2.4030216,8.2062235 3.1518834,7.057769 Z"
       id="path659" /><path
       style="font-variation-settings:'wght' 700;fill:#ffffff;stroke-width:0.00000000751798;stroke-linejoin:bevel"
       d="M 11.458133,25.451996 Z"
       id="path661" /><path
       style="font-variation-settings:'wght' 700;fill:#ffffff;stroke-width:0.00000000751798;stroke-linejoin:bevel"
       d="m 11.091109,25.413749 0.449856,3.317523 c 0,0 0.43285,2.191466 0.577134,2.921957 0.144284,0.730489 0.360709,1.826222 0.684252,2.294317 0.323545,0.468099 1.753503,2.507952 1.753503,2.507952 0,0 1.649538,2.241597 1.88928,2.675411 0.239742,0.433814 2.016561,2.279844 2.288126,2.614765 0.271564,0.33492 2.496046,3.147469 2.496046,3.147469 l 2.048384,2.180952 1.201872,1.27508 1.266481,-2.167696 c 0,0 0.450822,0.07252 0.898489,1.039051 0.447666,0.966516 1.921103,2.57652 2.224484,2.812547 0.303383,0.236029 1.852118,1.317288 2.617983,1.294889 0.765863,-0.0224 1.551891,0.18727 2.242457,0.693613 0.690566,0.506344 1.381134,1.012687 1.381134,1.012687 l 0.665061,-1.182739 c 0,0 -0.779715,-1.997645 -1.175401,-2.830984 -0.395684,-0.833345 -1.990087,-3.835753 -2.553373,-4.737665 -0.563288,-0.901912 -2.045224,-3.074941 -2.305128,-3.74082 -0.259907,-0.665882 -1.302677,-2.435421 -1.542422,-2.869234 -0.239743,-0.433815 -0.958972,-1.735253 -1.218876,-2.401133 -0.259905,-0.665883 -0.716074,-2.19543 -0.349051,-2.157185 0.367024,0.03824 1.479748,-0.177972 1.982552,0.02774 0.502805,0.205708 0.589764,-0.653998 0.04664,-1.32384 C 28.117465,31.148563 26.895433,29.641414 25.71372,28.598405 24.532009,27.555395 21.920341,24.47253 21.449354,24.16793 20.978371,23.863334 18.96181,21.583489 18.96181,21.583489 L 17.7048,21.069221 c 0,0 -0.613082,1.315915 -1.023582,1.707521 -0.410501,0.391605 -0.520777,1.913229 -1.309957,2.597548 -0.789183,0.684319 -1.61869,0.904503 -2.121494,0.698795 -0.502803,-0.205705 -2.158656,-0.65933 -2.158656,-0.65933 z"
       id="path663" /><path
       style="font-variation-settings:'wght' 700;fill:#ffffff;stroke-width:0.00000000751798;stroke-linejoin:bevel"
       d="m 38.448517,43.544619 -2.037689,0.733078 -1.54655,1.269747 c 0,0 0.695916,1.963359 1.2592,2.865268 0.563287,0.901912 6.186687,12.60299 6.186687,12.60299 0,0 0.889991,0.476021 1.38429,0.118692 0.494302,-0.357319 0.705383,-0.718601 1.263323,-1.273706 0.557942,-0.555106 0.656556,-1.745768 0.656556,-1.745768 l -0.343706,-0.700169 -5.548101,-12.22982 z"
       id="path671" /><path
       style="font-variation-settings:'wght' 700;fill:#ffffff;stroke-width:0.00000000751798;stroke-linejoin:bevel"
       d="m 34.864278,45.547444 0.549441,-1.118132 0.453981,-0.821461 0.641741,-0.520817 0.881487,-0.08701 0.586602,0.23999 0.574949,0.570951 z"
       id="path673" /></g></svg>
