<?xml version="1.0" encoding="UTF-8" standalone="no"?>
<!-- Created with Inkscape (http://www.inkscape.org/) -->

<svg
   width="150"
   height="150"
   viewBox="0 0 39.687499 39.6875"
   version="1.1"
   id="svg539"
   xml:space="preserve"
   inkscape:version="1.2.1 (9c6d41e410, 2022-07-14)"
   sodipodi:docname="GNBallista2.svg"
   xmlns:inkscape="http://www.inkscape.org/namespaces/inkscape"
   xmlns:sodipodi="http://sodipodi.sourceforge.net/DTD/sodipodi-0.dtd"
   xmlns="http://www.w3.org/2000/svg"
   xmlns:svg="http://www.w3.org/2000/svg"><sodipodi:namedview
     id="namedview541"
     pagecolor="#ffffff"
     bordercolor="#000000"
     borderopacity="0.25"
     inkscape:showpageshadow="false"
     inkscape:pageopacity="0.0"
     inkscape:pagecheckerboard="true"
     inkscape:deskcolor="#d1d1d1"
     inkscape:document-units="px"
     showgrid="false"
     showborder="false"
     inkscape:zoom="3.659624"
     inkscape:cx="-14.20911"
     inkscape:cy="92.905719"
     inkscape:window-width="5120"
     inkscape:window-height="1377"
     inkscape:window-x="-8"
     inkscape:window-y="-8"
     inkscape:window-maximized="1"
     inkscape:current-layer="layer1"
     shape-rendering="auto" /><defs
     id="defs536" /><g
     inkscape:label="Layer 1"
     inkscape:groupmode="layer"
     id="layer1"><g
       id="g829"
       transform="matrix(0.94616381,0,0,0.95393116,1.2074704,3.0227701)"
       style="image-rendering:optimizeQuality"><path
         style="font-variation-settings:'wght' 700;fill:#ffffff;stroke:#000000;stroke-width:0;stroke-linejoin:bevel;stroke-dasharray:none;stroke-opacity:1"
         d="m 29.366854,20.844916 c 0.297592,-0.127236 -1.763243,0.167564 -1.763243,0.167564 l -0.148191,-0.09733 -0.04305,-0.298643 0.082,-0.451992 -0.05522,-0.263034 -0.593978,-0.06743 -0.189191,0.128663 -0.133967,0.391695 -0.06982,0.416387 0.04305,0.298638 -1.980046,0.164712 -0.207878,-0.241195 -0.01097,-0.286295 0.05318,-0.261606 -0.136014,-0.132946 -0.180265,-0.10968 -0.490037,0.05317 -0.189191,0.128663 -0.01013,0.560247 -0.01339,0.357512 -0.01218,0.03561 -0.686943,0.09827 L 19.5645,9.496394 19.129218,7.7976045 19.368334,7.2046024 19.8884,6.6391437 l 0.338592,-0.3532342 7.393979,-1.667299 1.385699,0.9363052 2.196028,12.8937883 -0.466052,1.150395 -0.278903,0.497095 -0.07307,0.213654 -0.03329,0.309558 -0.06861,0.09448 z"
         id="path615" /><path
         style="font-variation-settings:'wght' 700;fill:#ffffff;stroke:#000000;stroke-width:0;stroke-linejoin:bevel;stroke-dasharray:none;stroke-opacity:1"
         d="m 29.046949,21.568008 -4.965072,9.210736 -3.120492,0.209319 -1.922406,-0.216067 -0.565156,-0.257821 2.122842,-3.978183 -0.385728,-0.994683 -3.02166,5.969416 -0.05317,0.261603 c 0,0 0.0065,0.40547 0.243207,0.456274 0.236699,0.05081 3.757515,0.156756 3.757515,0.156756 l 2.592708,0.272579 1.920359,-0.308572 1.090894,-0.748715 2.919123,-0.04504 1.711644,-1.396309 4.190748,1.330907 0.295547,-0.651873 -0.186774,-0.515148 -4.694835,-9.302086 -0.641485,-0.246902 -1.073042,0.27203 z"
         id="path639" /><path
         style="font-variation-settings:'wght' 700;fill:#ffffff;stroke:#000000;stroke-width:0;stroke-linejoin:bevel;stroke-dasharray:none;stroke-opacity:1"
         d="m 21.568927,23.162662 0.751464,-1.242023 0.125043,-0.153353 0.502217,-0.08877 0.311818,0.361793 0.243207,0.456272 c 0,0 0.195699,0.276805 0.35607,0.33853 0.16037,0.06173 -0.885899,-0.381271 -0.885899,-0.381271 l -0.288667,-0.111105 -0.263473,0.664219 -0.634139,1.005106 z"
         id="path641" /><path
         style="font-variation-settings:'wght' 700;fill:#ffffff;stroke:#000000;stroke-width:0;stroke-linejoin:bevel;stroke-dasharray:none;stroke-opacity:1"
         d="m 23.505927,22.699312 0.950047,0.405961 0.189191,-0.128664 c 0,0 0.269982,-0.258753 0.146146,-0.427305 -0.123835,-0.16855 -0.194491,-0.598706 -0.194491,-0.598706 l 0.01339,-0.357515 c 0,0 1.86839,-0.368872 1.795316,-0.155218 -0.07307,0.213652 0.03291,0.858887 0.03291,0.858887 0,0 0.03533,0.215076 0.163625,0.264458 0.128297,0.04938 0.722273,0.116811 0.722273,0.116811 l 0.250085,-0.306705 -0.202208,-0.68227 -0.03858,-0.417812 2.056372,-0.17563 -0.371873,0.662794 -1.256565,-0.04039 0.01422,0.48903 -0.082,0.451993 -0.309772,0.162845 -0.297593,0.127237 c 0,0 -0.21234,-0.122025 -0.429143,-0.124876 -0.216803,-0.0028 -0.600486,-0.472898 -0.600486,-0.472898 l -0.107193,-0.32333 -0.02316,-0.250688 -1.12827,0.009 0.182313,0.634317 -0.199324,0.688908 c 0,0 -0.121787,0.356087 -0.262264,0.342315 -0.140476,-0.01378 -0.777497,-0.379846 -0.777497,-0.379846 l -1.39137,-0.495227 0.243578,-0.712174 z"
         id="path643" /><path
         style="font-variation-settings:'wght' 700;fill:#ffffff;stroke:#000000;stroke-width:0;stroke-linejoin:bevel;stroke-dasharray:none;stroke-opacity:1"
         d="m 24.371464,21.017638 c -0.0084,0.0774 0.107008,0.907554 0.107008,0.907554 0,0 0.06132,0.245229 0.117141,0.347309 0.05583,0.102083 0.207274,0.402147 0.207274,0.402147 l 0.07024,0.0069 -0.210157,-1.773328 z"
         id="path647" /><path
         style="font-variation-settings:'wght' 700;fill:#ffffff;stroke:#000000;stroke-width:0;stroke-linejoin:bevel;stroke-dasharray:none;stroke-opacity:1"
         d="m 24.648839,21.103346 1.801734,-0.0901 c 0,0 -0.01778,0.577275 0.01193,0.602959 0.0297,0.02568 0.15705,0.516348 0.15705,0.516348 l 0.175129,0.238367 0.03905,0.185992 -0.05712,0.09199 -0.613804,-0.606665 c 0,0 -0.218483,-0.41177 -0.275182,-0.433593 -0.0567,-0.02182 -1.274938,0.05066 -1.274938,0.05066 z"
         id="path649" /><path
         style="font-variation-settings:'wght' 700;fill:#ffffff;stroke:#000000;stroke-width:0;stroke-linejoin:bevel;stroke-dasharray:none;stroke-opacity:1"
         d="m 27.443425,20.098916 c -0.08253,0.05372 -0.224625,0.469172 -0.241849,0.519529 -0.01722,0.05036 -0.0185,0.39179 -0.04161,0.496871 -0.02311,0.10508 0.04953,0.417978 0.0534,0.519199 0.0039,0.101218 0.0949,0.435435 0.0949,0.435435 l 0.184891,0.284865 0.11297,0.157458 -0.07324,-0.911493 2.824168,-0.565638 -0.09992,-0.608333 z"
         id="path651" /><path
         style="font-variation-settings:'wght' 700;fill:#ffffff;stroke:#000000;stroke-width:0;stroke-linejoin:bevel;stroke-dasharray:none;stroke-opacity:1"
         d="m 26.400941,22.133886 0.367481,0.426377 0.01795,0.13513 c 0,0 -0.31364,-0.02099 -0.401204,-0.140175 -0.08756,-0.119184 0.01578,-0.421334 0.01578,-0.421333 z"
         id="path653" /><path
         style="font-variation-settings:'wght' 700;fill:#ffffff;stroke:#000000;stroke-width:0;stroke-linejoin:bevel;stroke-dasharray:none;stroke-opacity:1"
         d="m 26.717607,22.483717 c 0,0 0.194353,0.03207 0.259667,0.02871 0.06531,-0.0034 0.187323,0.01511 0.269856,-0.03861 0.08254,-0.05372 0.25464,-0.144189 0.25464,-0.144189 l 0.09388,-0.04935 0.02728,0.295437 -0.219469,0.22896 c 0,0 -0.261246,0.01342 -0.306605,-0.0041 -0.04536,-0.01745 -0.379247,-0.316932 -0.379247,-0.316932 z"
         id="path655" /><path
         style="font-variation-settings:'wght' 700;fill:#ffffff;stroke:#000000;stroke-width:0;stroke-linejoin:bevel;stroke-dasharray:none;stroke-opacity:1"
         d="m 22.630791,21.338145 c -0.02152,0.06295 -0.298978,0.611515 -0.298978,0.611515 l 0.376946,0.173573 0.404491,-0.357202 0.242149,-0.220228 -0.06246,-0.38021 z"
         id="path657" /><path
         style="font-variation-settings:'wght' 700;fill:#ffffff;stroke:#000000;stroke-width:0;stroke-linejoin:bevel;stroke-dasharray:none;stroke-opacity:1"
         d="m 1.9747016,2.9021259 0.4317687,-0.061767 0.5270942,0.2598613 0.4346649,0.6801844 4.9053035,6.2190478 -0.047069,0.4377836 -0.042469,0.724491 -0.2457309,0.418307 -0.5132876,0.600265 -0.1877493,0.0987 -0.3066059,-0.0041 L 1.4654837,5.4414678 1.1904324,4.5947685 0.94180533,4.2711241 1.1484871,3.6668256 1.5538324,3.082003 Z"
         id="path659" /><path
         style="font-variation-settings:'wght' 700;fill:#ffffff;stroke:#000000;stroke-width:0;stroke-linejoin:bevel;stroke-dasharray:none;stroke-opacity:1"
         d="M 6.0498569,12.448851 Z"
         id="path661" /><path
         style="font-variation-settings:'wght' 700;fill:#ffffff;stroke:#000000;stroke-width:0;stroke-linejoin:bevel;stroke-dasharray:none;stroke-opacity:1"
         d="m 5.8511942,12.429375 0.2434986,1.689368 c 0,0 0.2342933,1.115951 0.3123917,1.487936 0.078097,0.371983 0.195245,0.929958 0.3703732,1.168325 0.175129,0.238368 0.9491387,1.277113 0.9491387,1.277113 0,0 0.8928642,1.141479 1.0226321,1.362389 0.1297679,0.220908 1.0915266,1.160955 1.2385207,1.331506 0.1469928,0.170549 1.3510638,1.60277 1.3510638,1.60277 l 1.108752,1.110598 0.650551,0.649304 0.685523,-1.103847 c 0,0 0.244022,0.03692 0.486336,0.529112 0.242313,0.492174 1.039857,1.312029 1.204071,1.43222 0.164216,0.120194 1.002517,0.670798 1.417066,0.659391 0.414548,-0.01141 0.840011,0.09536 1.213801,0.353206 0.373791,0.257843 0.747583,0.515686 0.747583,0.515686 l 0.359985,-0.602281 c 0,0 -0.422046,-1.017252 -0.636223,-1.441609 -0.214176,-0.424361 -1.077198,-1.953265 -1.382094,-2.412542 -0.304898,-0.459277 -1.107042,-1.565839 -1.247723,-1.904921 -0.140684,-0.339084 -0.705115,-1.24018 -0.834885,-1.461089 -0.129769,-0.220909 -0.519073,-0.883635 -0.659755,-1.222718 -0.140682,-0.339084 -0.387597,-1.117969 -0.188934,-1.098493 0.198662,0.01947 0.80096,-0.09063 1.073118,0.01413 0.272159,0.104752 0.319228,-0.333032 0.02524,-0.674133 -0.29398,-0.341104 -0.955442,-1.108583 -1.595082,-1.63971 C 13.126505,13.519959 11.712857,11.950084 11.457921,11.794974 11.202986,11.639866 10.111459,10.47891 10.111459,10.47891 L 9.4310628,10.217032 c 0,0 -0.3318498,0.670098 -0.5540461,0.869513 C 8.6548203,11.285961 8.59513,12.060811 8.1679617,12.409284 7.7407906,12.757754 7.2917938,12.869877 7.0196359,12.765126 6.747478,12.660376 5.8511951,12.429378 5.8511951,12.429378 Z"
         id="path663" /><path
         style="font-variation-settings:'wght' 700;fill:#ffffff;stroke:#000000;stroke-width:0;stroke-linejoin:bevel;stroke-dasharray:none;stroke-opacity:1"
         d="m 20.659254,21.66208 -1.102964,0.373302 -0.837119,0.646588 c 0,0 0.376687,0.999792 0.681582,1.459069 0.304897,0.459276 3.34874,6.417766 3.34874,6.417766 0,0 0.481735,0.242402 0.74929,0.06045 0.267557,-0.181955 0.381811,-0.365929 0.683814,-0.648603 0.302003,-0.282674 0.355382,-0.88899 0.355382,-0.88899 l -0.186042,-0.356544 -3.003085,-6.22774 z"
         id="path671" /><path
         style="font-variation-settings:'wght' 700;fill:#ffffff;stroke:#000000;stroke-width:0;stroke-linejoin:bevel;stroke-dasharray:none;stroke-opacity:1"
         d="m 18.719171,22.68197 0.297402,-0.569382 0.245732,-0.418309 0.347363,-0.265213 0.477132,-0.04431 0.317517,0.122208 0.311209,0.290744 z"
         id="path673" /></g></g></svg>
