<?xml version="1.0" encoding="UTF-8" standalone="no"?>
<!-- Created with Inkscape (http://www.inkscape.org/) -->

<svg
   width="210mm"
   height="297mm"
   viewBox="0 0 210 297"
   version="1.1"
   id="svg5"
   inkscape:version="1.2.1 (9c6d41e410, 2022-07-14)"
   sodipodi:docname="GNFieldTau.svg"
   xml:space="preserve"
   xmlns:inkscape="http://www.inkscape.org/namespaces/inkscape"
   xmlns:sodipodi="http://sodipodi.sourceforge.net/DTD/sodipodi-0.dtd"
   xmlns="http://www.w3.org/2000/svg"
   xmlns:svg="http://www.w3.org/2000/svg"><sodipodi:namedview
     id="namedview7"
     pagecolor="#505050"
     bordercolor="#ffffff"
     borderopacity="1"
     inkscape:showpageshadow="0"
     inkscape:pageopacity="0"
     inkscape:pagecheckerboard="1"
     inkscape:deskcolor="#505050"
     inkscape:document-units="mm"
     showgrid="false"
     inkscape:zoom="1.4324916"
     inkscape:cx="-623.7384"
     inkscape:cy="466.32037"
     inkscape:window-width="5120"
     inkscape:window-height="1377"
     inkscape:window-x="-8"
     inkscape:window-y="-8"
     inkscape:window-maximized="1"
     inkscape:current-layer="svg5" /><defs
     id="defs2"><pattern
       id="EMFhbasepattern"
       patternUnits="userSpaceOnUse"
       width="6"
       height="6"
       x="0"
       y="0" /><pattern
       id="EMFhbasepattern-7"
       patternUnits="userSpaceOnUse"
       width="6"
       height="6"
       x="0"
       y="0" /><pattern
       id="EMFhbasepattern-74"
       patternUnits="userSpaceOnUse"
       width="6"
       height="6"
       x="0"
       y="0" /></defs><g
     inkscape:label="Layer 1"
     inkscape:groupmode="layer"
     id="layer1"><ellipse
       style="fill:#1a1a1a;fill-opacity:1;stroke:#ff3a0d;stroke-width:2.94375417;stroke-linecap:butt;stroke-linejoin:bevel;stroke-dasharray:0.29437542, 0.29437542;stroke-dashoffset:29.43754006;stroke-opacity:0.97866666;paint-order:normal"
       id="path14596"
       cx="123.01117"
       cy="139.63503"
       rx="47.168373"
       ry="44.581665" /></g><g
     inkscape:groupmode="layer"
     id="layer2"
     inkscape:label="Layer 2" /><path
     style="fill:none;stroke:#000000;stroke-width:0.264583px;stroke-linecap:butt;stroke-linejoin:miter;stroke-opacity:1"
     d="m 92.812499,135.68634 -0.346316,-0.66955 -0.20779,-0.78498 v -0.3694 l 0.346316,-0.3694 0.392491,-0.16162 0.138527,-0.0462 0.09235,0.3694 0.138525,0.57719 c 0,0 -0.230876,0.50793 -0.277053,0.60028 -0.04617,0.0924 -0.138525,0.39249 -0.138525,0.48484 0,0.0924 -0.0231,0.32323 -0.0231,0.32323 z"
     id="path1726" /><path
     style="fill:#ffffff;stroke:#000000;stroke-width:0.194245px;stroke-linecap:butt;stroke-linejoin:miter;stroke-opacity:1"
     d="m 92.681087,135.8181 0.118647,-0.74579 1.118701,-1.57635 5.508748,-0.7458 0.576297,-0.2712 4.0002,-0.017 0.6102,-0.6102 0.38985,-0.0509 0.6441,0.20341 0.1695,0.0509 0.0339,-0.5763 0.9153,-1.37295 -0.59325,-0.83055 -0.017,-0.62715 v -2.35605 c 0,0 0.1017,-0.25424 0.1695,-0.30509 0.0678,-0.0509 5.00024,-3.42391 5.00024,-3.42391 l 0.3051,-0.76274 1.5933,-1.23735 -0.0678,-1.1187 0.3051,-0.7458 -1.017,0.017 -0.6441,-0.96615 -3.59339,0.4068 -2.72895,0.0847 c 0,0 0.49154,-3.13575 0.6441,-3.13575 0.15254,0 7.01729,-0.5424 7.01729,-0.5424 l 7.93259,-1.84754 0.77971,-1.03396 3.23744,-0.35595 1.9662,1.81365 -0.1356,0.678 0.339,0.72885 -0.45765,1.40686 3.06795,-1.28821 0.9153,-0.35595 4.72905,-1.2543 0.27119,0.18645 0.0509,0.62715 0.6441,0.49155 0.66105,-0.1017 0.1356,0.2373 -0.2034,0.42375 0.66105,1.01701 c 0,0 0.0339,1.00005 0.0339,1.06785 0,0.0678 -0.339,0.5424 -0.339,0.5424 l -0.15255,0.1695 0.25425,1.3899 -1.64415,2.44079 -3.54255,1.64416 -0.7119,0.0339 0.52545,0.69495 -0.35594,0.38985 -0.72886,-0.22035 0.0339,1.7967 -0.16951,0.11865 -2.18654,1.2882 0.339,0.27119 c 0,0 -0.0509,1.44075 0.017,1.44075 0.0678,0 1.13565,-0.38984 1.13565,-0.38984 l 1.2882,0.5763 0.9153,0.25425 0.8136,0.6441 0.52545,0.54239 0.4407,0.35596 0.25425,0.79665 c 0,0 0.3729,0.62714 0.3729,0.69494 0,0.0678 0.1017,0.7119 0.1017,0.7119 l 0.28815,0.11865 0.3729,0.15255 0.3729,0.59326 0.2373,1.11869 -0.339,0.4407 -0.0678,0.1695 0.017,0.2034 -0.0339,0.2373 1.1865,0.0847 0.4407,0.15255 0.25424,0.49155 0.32205,0.5085 c 0,0 0.4746,0.4407 0.55936,0.4407 0.0847,0 0.61019,0 0.61019,0 l 0.11865,0.38985 0.1017,1.03395 0.16951,0.32205 0.13559,0.27119 0.23731,2.44081 -0.33901,0.45765 0.11866,0.49154 c 0,0 0.0509,4.42395 0.0509,4.49175 0,0.0678 -0.32205,0.49155 -0.32205,0.49155 l 0.22035,3.1866 0.9153,1.3221 0.15255,0.52545 0.15255,4.3392 -0.3729,0.9153 v 0.45764 l -0.0678,2.2035 3.23744,0.18646 1.695,1.71195 -3.16964,5.49179 -3.79681,-0.0509 -0.16949,-1.55939 -2.9493,-0.49156 -2.5764,1.40685 -3.16965,-0.5085 -0.52544,-1.16955 1.61024,-1.5594 0.017,-0.7458 0.4746,-0.72885 0.66105,-0.23729 v -0.38985 l 0.49155,-0.76276 0.89835,-0.72885 -0.59325,-6.69524 -0.2712,-6.0342 -1.1187,-3.40694 -0.0509,-0.83055 -0.5763,-0.4407 -0.0847,-2.22045 0.6441,-0.66105 -0.1356,-1.0509 -1.2204,0.1356 -0.32205,-0.22035 -0.45765,0.62715 -0.9153,0.1017 -0.79664,0.4746 -0.50851,-0.1695 -1.55939,0.11865 -4.41178,1.32419 -1.96562,4.02711 -2.06149,3.30799 -0.76707,0.62324 -1.29444,2.39709 0.52736,1.48619 -3.2121,4.89007 -0.19176,1.1506 3.59563,0.43148 0.81502,0.43148 1.39031,0.0959 0.47942,1.00678 -0.76707,0.52736 c 0,0 -0.0479,0.28765 -0.28765,0.33559 -0.23971,0.0479 -6.28038,2.58886 -6.28038,2.58886 h -0.43148 l -0.38353,0.62324 -1.53414,0.38354 -1.53414,-0.19177 -1.39031,-0.0959 -0.2397,-0.52736 0.19176,-0.9109 -0.86295,-0.19176 -1.19855,0.5753 -3.02033,0.38353 -1.198554,-0.0479 -0.958831,-0.38353 -0.335591,-0.67119 2.780626,-1.77385 0.23971,-0.86295 1.82179,-0.33559 0.81501,-0.9109 c 0,0 -0.19177,-0.28765 0.28765,-0.28765 0.47942,0 1.29442,-0.28765 1.29442,-0.28765 0,0 -0.14382,-0.52736 -0.14382,-0.71913 0,-0.19176 -0.19177,-1.10266 -0.19177,-1.10266 l 1.53414,-3.69152 1.72591,-3.54769 2.54091,-3.93123 0.47942,-3.30798 0.62324,-0.57531 -0.62324,-0.71913 c 0,0 0.23971,-0.5753 0.47942,-0.81501 0.2397,-0.23971 0.0959,-1.24648 0.0959,-1.24648 l -1.15061,-0.71913 0.048,-2.25327 -0.81501,-2.49297 v 1.1506 l -0.23971,1.00678 -0.47942,0.52736 -0.19177,0.23971 0.048,0.5753 v 0.33559 l -0.38354,0.67119 -0.28765,0.14383 -0.38353,0.33559 -0.38354,0.19177 -0.0959,0.43147 -0.19177,0.23971 -0.62324,0.28765 -0.71913,-0.0959 -0.23971,0.19177 h -0.5753 l -1.05472,-0.28766 h -0.52736 l -1.19854,0.14383 -0.67119,0.52736 -0.86295,0.28765 -3.451814,0.43148 h -3.164181 l -1.1506,-0.67119 -0.09588,-1.43825 c 0,0 0.04794,-0.81501 0.143821,-1.00678 0.09589,-0.19177 0.335598,-0.76707 0.335598,-0.76707 l 0.09588,-0.23971 -0.28765,-0.38354 c 0,0 -0.28765,0.0959 -0.28765,-0.0959 0,-0.19177 -0.04794,-0.95883 -0.04794,-0.95883 z"
     id="path3186" /><path
     style="fill:#ff000c;stroke:#000000;stroke-width:0.108148px;stroke-linecap:butt;stroke-linejoin:miter;stroke-opacity:1;fill-opacity:1"
     d="m 89.051192,122.0755 c -0.0927,-0.0404 -1.0857,-0.40359 -1.0857,-0.40359 l 1.65502,-0.0135 -0.23833,-0.1749 0.62229,-0.0269 c 0,0 -1.54909,-0.99552 -1.35049,-0.90135 0.1986,0.0942 1.972782,0.73991 1.972782,0.73991 0,0 0.23832,-0.0538 0.30452,-0.0942 0.0662,-0.0403 0.23833,-0.41704 0.31777,-0.4574 0.0794,-0.0403 0.331,-0.14798 0.331,-0.14798 0,0 0.0794,-0.0134 0.0794,-0.0942 0,-0.0807 0.29128,-5.4619 0.29128,-5.4619 0,0 0.13241,2.44843 0.13241,2.34082 0,-0.10763 0.0927,-2.31391 0.0927,-2.31391 l 0.0927,0.44394 0.17212,1.3722 v 2.87894 l 0.23832,1.06278 0.14565,0.16144 0.70172,0.30942 c 0,0 2.17139,-1.03588 2.09195,-0.92826 -0.0794,0.10763 -1.80066,1.1435 -1.80066,1.1435 0,0 0.0662,0.0942 0.23832,0.0403 0.17213,-0.0538 1.04598,-0.33633 1.04598,-0.33633 l -1.00626,0.48431 2.09194,-0.10763 -0.83413,0.37669 5.852136,0.2556 1.61529,0.1749 -1.45641,0.13452 -5.680006,0.24216 0.48988,0.33633 -1.8139,-0.0404 -0.13239,0.0538 -0.0133,0.2018 c 0,0 -0.0397,0.0942 0.0662,0.13453 0.10593,0.0403 0.42369,0.29597 0.42369,0.29597 l 0.55609,0.32287 0.0529,0.18834 -1.37697,-0.69956 -0.38396,-0.0673 -0.0794,0.18834 -0.29128,-0.0673 -0.34425,-0.10762 -0.0265,0.26906 -0.15888,0.29597 -0.4634,6.16146 -0.67525,-6.21528 -0.43693,-0.30942 -0.42368,-0.0269 -0.198602,-0.0942 c 0,0 -0.63553,0.2018 -0.70173,0.2287 -0.0662,0.0269 -0.84736,0.40359 -0.84736,0.40359 l 0.35748,-0.34978 1.27105,-0.67264 -0.38397,-0.18835 -0.15888,-0.0135 -1.76093,0.13453 0.72821,-0.26906 -1.88011,-0.26906 -4.09119,-0.0538 z"
     id="path4778-0" /><path
     style="fill:#ff000c;fill-opacity:1;stroke:#000000;stroke-width:0.108148px;stroke-linecap:butt;stroke-linejoin:miter;stroke-opacity:1"
     d="m 119.43621,102.87183 c -0.0927,-0.0404 -1.0857,-0.40359 -1.0857,-0.40359 l 1.65502,-0.0135 -0.23833,-0.1749 0.62229,-0.0269 c 0,0 -1.54909,-0.99552 -1.35049,-0.90135 0.1986,0.0942 1.97279,0.73991 1.97279,0.73991 0,0 0.23832,-0.0538 0.30452,-0.0942 0.0662,-0.0403 0.23833,-0.41704 0.31777,-0.4574 0.0794,-0.0403 0.331,-0.14798 0.331,-0.14798 0,0 0.0794,-0.0134 0.0794,-0.0942 0,-0.0807 0.29128,-5.461905 0.29128,-5.461905 0,0 0.13241,2.448431 0.13241,2.340821 0,-0.10763 0.0927,-2.313911 0.0927,-2.313911 l 0.0927,0.44394 0.17212,1.372201 v 2.878944 l 0.23832,1.06278 0.14565,0.16144 0.70172,0.30942 c 0,0 2.17139,-1.03588 2.09195,-0.92826 -0.0794,0.10763 -1.80066,1.1435 -1.80066,1.1435 0,0 0.0662,0.0942 0.23832,0.0403 0.17213,-0.0538 1.04598,-0.33633 1.04598,-0.33633 l -1.00626,0.48431 2.09194,-0.10763 -0.83413,0.37669 5.85213,0.2556 1.61529,0.1749 -1.45641,0.13452 -5.68,0.24216 0.48988,0.33633 -1.8139,-0.0404 -0.13239,0.0538 -0.0133,0.2018 c 0,0 -0.0397,0.0942 0.0662,0.13453 0.10593,0.0403 0.42369,0.29597 0.42369,0.29597 l 0.55609,0.32287 0.0529,0.18834 -1.37697,-0.69956 -0.38396,-0.0673 -0.0794,0.18834 -0.29128,-0.0673 -0.34425,-0.10762 -0.0265,0.26906 -0.15888,0.29597 -0.4634,6.16146 -0.67525,-6.21528 -0.43693,-0.30942 -0.42368,-0.0269 -0.19861,-0.0942 c 0,0 -0.63553,0.2018 -0.70173,0.2287 -0.0662,0.0269 -0.84736,0.40359 -0.84736,0.40359 l 0.35748,-0.34978 1.27105,-0.67264 -0.38397,-0.18835 -0.15888,-0.0135 -1.76093,0.13453 0.72821,-0.26906 -1.88011,-0.26906 -4.09119,-0.0538 z"
     id="path4778-0-9" /><path
     style="fill:#ff000c;fill-opacity:1;stroke:#000000;stroke-width:0.108148px;stroke-linecap:butt;stroke-linejoin:miter;stroke-opacity:1"
     d="m 142.94487,126.11928 c -0.0927,-0.0404 -1.0857,-0.40359 -1.0857,-0.40359 l 1.65502,-0.0135 -0.23833,-0.1749 0.62229,-0.0269 c 0,0 -1.54909,-0.99552 -1.35049,-0.90135 0.1986,0.0942 1.97279,0.73991 1.97279,0.73991 0,0 0.23832,-0.0538 0.30452,-0.0942 0.0662,-0.0403 0.23833,-0.41704 0.31777,-0.4574 0.0794,-0.0403 0.331,-0.14798 0.331,-0.14798 0,0 0.0794,-0.0134 0.0794,-0.0942 0,-0.0807 0.29128,-5.4619 0.29128,-5.4619 0,0 0.13241,2.44843 0.13241,2.34082 0,-0.10763 0.0927,-2.31391 0.0927,-2.31391 l 0.0927,0.44394 0.17212,1.3722 v 2.87894 l 0.23832,1.06278 0.14565,0.16144 0.70172,0.30942 c 0,0 2.17139,-1.03588 2.09195,-0.92826 -0.0794,0.10763 -1.80066,1.1435 -1.80066,1.1435 0,0 0.0662,0.0942 0.23832,0.0403 0.17213,-0.0538 1.04598,-0.33633 1.04598,-0.33633 l -1.00626,0.48431 2.09194,-0.10763 -0.83413,0.37669 5.85213,0.2556 1.61529,0.1749 -1.45641,0.13452 -5.68,0.24216 0.48988,0.33633 -1.8139,-0.0404 -0.13239,0.0538 -0.0133,0.2018 c 0,0 -0.0397,0.0942 0.0662,0.13453 0.10593,0.0403 0.42369,0.29597 0.42369,0.29597 l 0.55609,0.32287 0.0529,0.18834 -1.37697,-0.69956 -0.38396,-0.0673 -0.0794,0.18834 -0.29128,-0.0673 -0.34425,-0.10762 -0.0265,0.26906 -0.15888,0.29597 -0.4634,6.16146 -0.67525,-6.21528 -0.43693,-0.30942 -0.42368,-0.0269 -0.19861,-0.0942 c 0,0 -0.63553,0.2018 -0.70173,0.2287 -0.0662,0.0269 -0.84736,0.40359 -0.84736,0.40359 l 0.35748,-0.34978 1.27105,-0.67264 -0.38397,-0.18835 -0.15888,-0.0135 -1.76093,0.13453 0.72821,-0.26906 -1.88011,-0.26906 -4.09119,-0.0538 z"
     id="path4778-0-6" /><path
     style="fill:#ff000c;fill-opacity:1;stroke:#000000;stroke-width:0.108148px;stroke-linecap:butt;stroke-linejoin:miter;stroke-opacity:1"
     d="m 148.16902,149.36674 c -0.0927,-0.0404 -1.0857,-0.40359 -1.0857,-0.40359 l 1.65502,-0.0135 -0.23833,-0.1749 0.62229,-0.0269 c 0,0 -1.54909,-0.99552 -1.35049,-0.90135 0.1986,0.0942 1.97278,0.73991 1.97278,0.73991 0,0 0.23832,-0.0538 0.30452,-0.0942 0.0662,-0.0403 0.23833,-0.41704 0.31777,-0.4574 0.0794,-0.0403 0.331,-0.14798 0.331,-0.14798 0,0 0.0794,-0.0134 0.0794,-0.0942 0,-0.0807 0.29128,-5.4619 0.29128,-5.4619 0,0 0.13241,2.44843 0.13241,2.34082 0,-0.10763 0.0927,-2.31391 0.0927,-2.31391 l 0.0927,0.44394 0.17212,1.3722 v 2.87894 l 0.23832,1.06278 0.14565,0.16144 0.70172,0.30942 c 0,0 2.17139,-1.03588 2.09195,-0.92826 -0.0794,0.10763 -1.80066,1.1435 -1.80066,1.1435 0,0 0.0662,0.0942 0.23832,0.0403 0.17213,-0.0538 1.04598,-0.33633 1.04598,-0.33633 l -1.00626,0.48431 2.09194,-0.10763 -0.83413,0.37669 5.85214,0.2556 1.61529,0.1749 -1.45641,0.13452 -5.68001,0.24216 0.48988,0.33633 -1.8139,-0.0404 -0.13239,0.0538 -0.0133,0.2018 c 0,0 -0.0397,0.0942 0.0662,0.13453 0.10593,0.0403 0.42369,0.29597 0.42369,0.29597 l 0.55609,0.32287 0.0529,0.18834 -1.37697,-0.69956 -0.38396,-0.0673 -0.0794,0.18834 -0.29128,-0.0673 -0.34425,-0.10762 -0.0265,0.26906 -0.15888,0.29597 -0.4634,6.16146 -0.67525,-6.21528 -0.43693,-0.30942 -0.42368,-0.0269 -0.1986,-0.0942 c 0,0 -0.63553,0.2018 -0.70173,0.2287 -0.0662,0.0269 -0.84736,0.40359 -0.84736,0.40359 l 0.35748,-0.34978 1.27105,-0.67264 -0.38397,-0.18835 -0.15888,-0.0135 -1.76093,0.13453 0.72821,-0.26906 -1.88011,-0.26906 -4.09119,-0.0538 z"
     id="path4778-0-1" /><path
     style="fill:#ff000c;fill-opacity:1;stroke:#000000;stroke-width:0.108148px;stroke-linecap:butt;stroke-linejoin:miter;stroke-opacity:1"
     d="m 118.39139,171.04694 c -0.0927,-0.0404 -1.0857,-0.40359 -1.0857,-0.40359 l 1.65502,-0.0135 -0.23833,-0.1749 0.62229,-0.0269 c 0,0 -1.54909,-0.99552 -1.35049,-0.90135 0.1986,0.0942 1.97278,0.73991 1.97278,0.73991 0,0 0.23832,-0.0538 0.30452,-0.0942 0.0662,-0.0403 0.23833,-0.41704 0.31777,-0.4574 0.0794,-0.0403 0.331,-0.14798 0.331,-0.14798 0,0 0.0794,-0.0134 0.0794,-0.0942 0,-0.0807 0.29128,-5.4619 0.29128,-5.4619 0,0 0.13241,2.44843 0.13241,2.34082 0,-0.10763 0.0927,-2.31391 0.0927,-2.31391 l 0.0927,0.44394 0.17212,1.3722 v 2.87894 l 0.23832,1.06278 0.14565,0.16144 0.70172,0.30942 c 0,0 2.17139,-1.03588 2.09195,-0.92826 -0.0794,0.10763 -1.80066,1.1435 -1.80066,1.1435 0,0 0.0662,0.0942 0.23832,0.0403 0.17213,-0.0538 1.04598,-0.33633 1.04598,-0.33633 l -1.00626,0.48431 2.09194,-0.10763 -0.83413,0.37669 5.85214,0.2556 1.61529,0.1749 -1.45641,0.13452 -5.68001,0.24216 0.48988,0.33633 -1.8139,-0.0404 -0.13239,0.0538 -0.0133,0.2018 c 0,0 -0.0397,0.0942 0.0662,0.13453 0.10593,0.0403 0.42369,0.29597 0.42369,0.29597 l 0.55609,0.32287 0.0529,0.18834 -1.37697,-0.69956 -0.38396,-0.0673 -0.0794,0.18834 -0.29128,-0.0673 -0.34425,-0.10762 -0.0265,0.26906 -0.15888,0.29597 -0.4634,6.16146 -0.67525,-6.21528 -0.43693,-0.30942 -0.42368,-0.0269 -0.1986,-0.0942 c 0,0 -0.63553,0.2018 -0.70173,0.2287 -0.0662,0.0269 -0.84736,0.40359 -0.84736,0.40359 l 0.35748,-0.34978 1.27105,-0.67264 -0.38397,-0.18835 -0.15888,-0.0135 -1.76093,0.13453 0.72821,-0.26906 -1.88011,-0.26906 -4.09119,-0.0538 z"
     id="path4778-0-5" /><path
     style="fill:#ff000c;fill-opacity:1;stroke:#000000;stroke-width:0.108148px;stroke-linecap:butt;stroke-linejoin:miter;stroke-opacity:1"
     d="m 90.964613,151.4564 c -0.0927,-0.0404 -1.0857,-0.40359 -1.0857,-0.40359 l 1.65502,-0.0135 -0.23833,-0.1749 0.62229,-0.0269 c 0,0 -1.54909,-0.99552 -1.35049,-0.90135 0.1986,0.0942 1.972782,0.73991 1.972782,0.73991 0,0 0.23832,-0.0538 0.30452,-0.0942 0.0662,-0.0403 0.23833,-0.41704 0.31777,-0.4574 0.0794,-0.0403 0.331,-0.14798 0.331,-0.14798 0,0 0.0794,-0.0134 0.0794,-0.0942 0,-0.0807 0.29128,-5.4619 0.29128,-5.4619 0,0 0.13241,2.44843 0.13241,2.34082 0,-0.10763 0.0927,-2.31391 0.0927,-2.31391 l 0.0927,0.44394 0.17212,1.3722 v 2.87894 l 0.23832,1.06278 0.14565,0.16144 0.70172,0.30942 c 0,0 2.17139,-1.03588 2.09195,-0.92826 -0.0794,0.10763 -1.80066,1.1435 -1.80066,1.1435 0,0 0.0662,0.0942 0.23832,0.0403 0.17213,-0.0538 1.04598,-0.33633 1.04598,-0.33633 l -1.00626,0.48431 2.09194,-0.10763 -0.83413,0.37669 5.852135,0.2556 1.61529,0.1749 -1.45641,0.13452 -5.680005,0.24216 0.48988,0.33633 -1.8139,-0.0404 -0.13239,0.0538 -0.0133,0.2018 c 0,0 -0.0397,0.0942 0.0662,0.13453 0.10593,0.0403 0.42369,0.29597 0.42369,0.29597 l 0.55609,0.32287 0.0529,0.18834 -1.37697,-0.69956 -0.38396,-0.0673 -0.0794,0.18834 -0.29128,-0.0673 -0.34425,-0.10762 -0.0265,0.26906 -0.15888,0.29597 -0.4634,6.16146 -0.67525,-6.21528 -0.43693,-0.30942 -0.42368,-0.0269 -0.198602,-0.0942 c 0,0 -0.63553,0.2018 -0.70173,0.2287 -0.0662,0.0269 -0.84736,0.40359 -0.84736,0.40359 l 0.35748,-0.34978 1.27105,-0.67264 -0.38397,-0.18835 -0.15888,-0.0135 -1.76093,0.13453 0.72821,-0.26906 -1.88011,-0.26906 -4.09119,-0.0538 z"
     id="path4778-0-2" /></svg>
