<?xml version="1.0" encoding="UTF-8" standalone="no"?>
<!-- Created with Inkscape (http://www.inkscape.org/) -->

<svg
   width="151.24651mm"
   height="204.3721mm"
   viewBox="0 0 151.24651 204.3721"
   version="1.1"
   id="svg5"
   xml:space="preserve"
   inkscape:version="1.2.1 (9c6d41e410, 2022-07-14)"
   sodipodi:docname="GNFrameH.svg"
   xmlns:inkscape="http://www.inkscape.org/namespaces/inkscape"
   xmlns:sodipodi="http://sodipodi.sourceforge.net/DTD/sodipodi-0.dtd"
   xmlns="http://www.w3.org/2000/svg"
   xmlns:svg="http://www.w3.org/2000/svg"><sodipodi:namedview
     id="namedview7"
     pagecolor="#505050"
     bordercolor="#ffffff"
     borderopacity="1"
     inkscape:showpageshadow="0"
     inkscape:pageopacity="0"
     inkscape:pagecheckerboard="1"
     inkscape:deskcolor="#505050"
     inkscape:document-units="mm"
     showgrid="false"
     inkscape:zoom="1.0129245"
     inkscape:cx="476.83711"
     inkscape:cy="325.29571"
     inkscape:window-width="1920"
     inkscape:window-height="991"
     inkscape:window-x="-9"
     inkscape:window-y="-9"
     inkscape:window-maximized="1"
     inkscape:current-layer="svg5" /><defs
     id="defs2" /><path
     style="fill:#ffffff;stroke:#000000;stroke-width:0.45045px;stroke-linecap:butt;stroke-linejoin:miter;stroke-opacity:1"
     d="m 71.566004,15.9604 1.402428,52.094288 6.903116,0.311537 5.474855,3.323174 c 0,0 4.403711,0.31156 4.87978,0.10391 0.47609,-0.2077 2.856477,-1.557732 2.856477,-2.492378 0,-0.934658 -0.47609,-7.788712 -0.47609,-7.788712 l -3.451542,-0.830787 -0.714114,-2.180837 -0.238056,-1.038496 6.189013,-11.734975 c 0,0 0,-30.635545 -0.476091,-30.635545 -0.476068,0 -22.494593,-0.10385 -22.494593,-0.10385 z"
     id="path435" /><path
     style="fill:#ffffff;stroke:#000000;stroke-width:0.532444px;stroke-linecap:butt;stroke-linejoin:miter;stroke-opacity:1"
     d="m 96.650212,30.322041 0.127101,20.515485 6.101167,-0.271721 3.94034,-2.445568 7.49933,2.173827 7.37222,-6.929065 -0.25421,-6.249754 -11.82098,-6.521475 z"
     id="path993" /><path
     style="fill:#ffffff;stroke:#000000;stroke-width:0.532444px;stroke-linecap:butt;stroke-linejoin:miter;stroke-opacity:1"
     d="m 119.14823,57.63073 8.26199,-9.374613 4.83007,-0.543462 0.38131,10.325677 4.57587,11.412587 -5.08428,0.135855 0.50841,2.173805 -2.41502,8.559448 v 3.396611 l -9.91439,-0.135855 c 0,0 0.88976,-1.63036 0.76266,-2.717274 -0.1271,-1.086915 -3.3048,-9.510484 -3.3048,-9.510484 l 1.27108,-2.853154 z"
     id="path995" /><path
     style="fill:#ffffff;stroke:#000000;stroke-width:0.620709px;stroke-linecap:butt;stroke-linejoin:miter;stroke-opacity:1"
     d="m 93.517735,88.684396 c 0,-1.497529 -1.003025,-16.659792 -0.250746,-16.659792 0.752268,0 6.018166,0.561547 6.018166,0.561547 l 0.125372,47.358759 -2.131452,2.24625 -4.137502,-0.18717 z"
     id="path997" /><path
     style="fill:#ffffff;stroke:#000000;stroke-width:0.532444px;stroke-linecap:butt;stroke-linejoin:miter;stroke-opacity:1"
     d="m 90.825484,125.43745 4.830091,-2.98901 5.338515,2.30971 0.76264,4.75524 6.8638,1.90208 0.50844,24.18383 -7.88065,1.22278 -1.398202,-2.71729 -8.389094,-0.40757 -0.381304,3.39658 -7.880671,-1.90208 c 0,0 -0.635539,-23.36865 -0.127101,-23.50451 0.508426,-0.13586 7.499334,-2.44557 7.499334,-2.44557 z"
     id="path999" /><path
     style="fill:#ffffff;stroke:#000000;stroke-width:0.532444px;stroke-linecap:butt;stroke-linejoin:miter;stroke-opacity:1"
     d="m 72.508053,173.53336 -1.779505,-6.52146 11.948086,-5.70631 26.946776,-0.27173 10.42279,4.61939 0.76265,7.33667 -8.38908,0.54344 h -11.94809 l -1.271075,-2.71727 -7.626457,-0.27174 -0.762641,3.80419 z"
     id="path1001" /><path
     style="fill:#ffffff;stroke:#000000;stroke-width:0.495443px;stroke-linecap:butt;stroke-linejoin:miter;stroke-opacity:1"
     d="m 98.014638,4.2922146 c -2.749652,3.1105243 -1.749783,21.0558624 -1.749783,21.5344044 0,0.478548 20.747385,1.914175 23.247065,0 2.49969,-1.914169 0.49994,-20.5773205 0.49994,-20.5773205 0,0 -0.99987,-0.9570839 -2.74965,-0.9570839 -1.74978,0 -19.247572,0 -19.247572,0 z"
     id="path1003" /><g
     inkscape:label="Layer 1"
     inkscape:groupmode="layer"
     id="layer1"
     transform="translate(-26.245858,-43.758585)" /><g
     inkscape:groupmode="layer"
     id="layer2"
     inkscape:label="Layer 2"
     transform="translate(-26.245858,-43.758585)"><path
       style="fill:#ffffff;stroke:#000000;stroke-width:0.264583px;stroke-linecap:butt;stroke-linejoin:miter;stroke-opacity:1"
       d="m 27.705224,126.70522 -1.29291,3.87873 2.585821,0.92351 1.847014,-4.24813 z"
       id="path357" /><path
       style="fill:#ffffff;stroke:#000000;stroke-width:0.264583px;stroke-linecap:butt;stroke-linejoin:miter;stroke-opacity:1"
       d="m 30.244869,131.96921 1.569963,-4.47901 2.631996,0.83116 -1.523787,4.43284 z"
       id="path359" /><path
       style="fill:#ffffff;stroke:#000000;stroke-width:0.264583px;stroke-linecap:butt;stroke-linejoin:miter;stroke-opacity:1"
       d="m 35.83209,128.69076 2.49347,0.83116 -1.29291,4.29431 -2.862874,-0.83116 z"
       id="path361" /><path
       style="fill:#ffffff;stroke:#000000;stroke-width:0.264583px;stroke-linecap:butt;stroke-linejoin:miter;stroke-opacity:1"
       d="m 39.479945,129.7528 2.724346,0.50793 -1.523789,4.24813 -2.58582,-0.46175 z"
       id="path363" /><path
       style="fill:#ffffff;stroke:#000000;stroke-width:0.264583px;stroke-linecap:butt;stroke-linejoin:miter;stroke-opacity:1"
       d="m 37.632928,135.24767 2.724349,0.78498 -1.616139,4.24813 -2.724348,-0.83116 z"
       id="path365" /><path
       style="fill:#ffffff;stroke:#000000;stroke-width:0.264583px;stroke-linecap:butt;stroke-linejoin:miter;stroke-opacity:1"
       d="m 42.204291,120.05597 -2.955224,8.03451 7.341886,1.84702 1.015857,-3.13993 -1.10821,-1.70849 1.01586,-3.83255 z"
       id="path367" /><path
       style="fill:#ffffff;stroke:#000000;stroke-width:0.264583px;stroke-linecap:butt;stroke-linejoin:miter;stroke-opacity:1"
       d="m 48.71502,121.62593 1.29291,0.55411 1.477611,3.60168 -2.447296,1.20055 -1.246735,-2.30876 z"
       id="path369" /><path
       style="fill:#ffffff;stroke:#000000;stroke-width:0.264583px;stroke-linecap:butt;stroke-linejoin:miter;stroke-opacity:1"
       d="m 49.823227,127.95196 2.262595,3.9249 1.893189,-1.47761 -2.124067,-3.83255 z"
       id="path371" /><path
       style="fill:#ffffff;stroke:#000000;stroke-width:0.264583px;stroke-linecap:butt;stroke-linejoin:miter;stroke-opacity:1"
       d="m 40.588152,115.71548 13.667912,3.1861 1.939364,-6.60307 -13.575559,-3.41698 -2.216417,6.46455 z"
       id="path373" /><path
       style="fill:#ffffff;stroke:#000000;stroke-width:0.264583px;stroke-linecap:butt;stroke-linejoin:miter;stroke-opacity:1"
       d="m 42.250466,116.22341 -0.323228,1.24674 8.958024,2.58582 1.800839,-1.52379 z"
       id="path375" /><path
       style="fill:#ffffff;stroke:#000000;stroke-width:0.264583px;stroke-linecap:butt;stroke-linejoin:miter;stroke-opacity:1"
       d="m 44.420708,107.54244 2.539645,-7.618934 -1.200557,-2.862873 3.924906,-11.082089 0.369403,-0.784982 2.862874,0.738807 -0.277053,2.170242 6.095148,1.616138 1.385263,-1.339085 0.554103,-0.969682 2.447296,0.646454 -3.601681,11.77472 -2.077892,2.262594 -2.49347,8.31157 z"
       id="path377" /><path
       style="fill:#ffffff;stroke:#000000;stroke-width:0.264583px;stroke-linecap:butt;stroke-linejoin:miter;stroke-opacity:1"
       d="m 52.824626,88.148786 c 0.184703,-0.138525 1.893192,-6.603077 1.893192,-6.603077 l 1.985541,-0.09235 3.509328,1.015859 0.554103,0.738807 -1.893189,5.633395 -0.369403,0.784981 z"
       id="path379" /><path
       style="fill:#ffffff;stroke:#000000;stroke-width:0.264583px;stroke-linecap:butt;stroke-linejoin:miter;stroke-opacity:1"
       d="m 52.916979,64.137592 c 0.692629,0.323228 3.694028,1.154385 3.694028,1.154385 l 4.017258,6.233676 6.372201,2.49347 -2.862873,10.712686 -2.770521,-0.738807 0.646454,-2.170242 -7.111008,-1.847014 -0.415578,0.369403 -0.554104,1.616139 -2.49347,-0.461754 2.262592,-7.38806 -1.477611,-6.741605 z"
       id="path381" /><path
       style="fill:#ffffff;stroke:#000000;stroke-width:0.264583px;stroke-linecap:butt;stroke-linejoin:miter;stroke-opacity:1"
       d="m 41.059478,43.922488 c 0,0.783622 3.722206,13.778689 3.722206,13.778689 l 9.729973,5.093541 3.460999,1.632548 4.244617,6.660787 9.207561,2.807978 5.681258,-19.91706 -0.261208,-0.979528 -5.746559,-1.306036 -20.89659,-7.248504 z"
       id="path383" /><path
       style="fill:#ffffff;stroke:#000000;stroke-width:0.264583px;stroke-linecap:butt;stroke-linejoin:miter;stroke-opacity:1"
       d="m 77.04079,77.748841 -4.505825,-0.979527 3.069185,-10.709503 3.983413,1.044829 0.914226,-0.326509 0.261207,-0.848923 0.0653,-0.522415 -4.832337,-0.979527 -0.261207,-0.653018 2.546773,-9.860579 h 1.567243 l 2.220262,0.522414 0.848924,0.130604 -0.32651,8.619844 11.558426,3.199789 v 1.110131 l -0.195905,0.522415 -0.195905,0.457112 -2.285564,-0.391811 -0.457113,-0.391811 -0.653018,-0.39181 -0.0653,1.632545 1.306039,0.261207 1.306036,0.522417 0.522415,0.195906 -0.195906,0.848923 -0.522414,1.175433 -0.71832,0.261207 -10.382994,-2.15496 -3.330392,2.285564 -1.436643,5.158846 z"
       id="path387" /><path
       style="fill:#ffffff;stroke:#000000;stroke-width:0.264583px;stroke-linecap:butt;stroke-linejoin:miter;stroke-opacity:1"
       d="m 84.4199,57.701177 -0.97953,4.70173 7.052601,1.959057 c 0,0 1.044829,-0.783622 0.914225,-1.110131 -0.130603,-0.326511 -3.722206,-4.832336 -3.722206,-4.832336 z"
       id="path389" /><path
       style="fill:#ffffff;stroke:#000000;stroke-width:0.264583px;stroke-linecap:butt;stroke-linejoin:miter;stroke-opacity:1"
       d="m 85.007616,50.452672 -0.0653,-1.76315 1.175433,1.044829 3.460996,5.028241 h 0.522414 l 0.718323,0.261208 3.199789,4.440526 -2.612073,1.436639 -3.330395,-4.440525 0.391811,-1.044829 z"
       id="path391" /><path
       style="fill:#ffffff;stroke:#000000;stroke-width:0.264583px;stroke-linecap:butt;stroke-linejoin:miter;stroke-opacity:1"
       d="m 92.125516,61.553984 3.199789,-1.567244 -0.0653,-1.43664 3.003886,-0.783622 0.587717,1.828451 2.938582,0.653018 -0.0653,6.138373 -2.416168,0.0653 -1.959054,-2.612072 -3.656904,0.0653 z"
       id="path393" /><path
       style="fill:#ffffff;stroke:#000000;stroke-width:0.264583px;stroke-linecap:butt;stroke-linejoin:miter;stroke-opacity:1"
       d="m 92.25612,61.619285 -0.653018,1.69785 -1.110131,1.110131 v 0.848923 l 3.722203,1.110131 0.0653,1.371338 -0.391811,0.653018 -2.350865,-0.457112 -1.110131,-0.71832 v 1.632545 l 3.069185,0.97953 -0.522414,1.763149 -0.71832,0.522414 c 0,0 -1.175433,-0.195905 -1.501942,-0.195905 -0.326509,0 -1.567246,0.979527 -1.567246,0.979527 l 1.828453,3.395697 3.134487,2.87328 1.044829,0.71832 0.587717,0.261207 2.938584,-6.791391 2.54677,0.0653 c 0,0 0.71832,-7.379108 0.45711,-7.248504 -0.2612,0.130603 -2.154957,0.195905 -2.154957,0.195905 l -2.220261,-2.54677 h -3.5916 z"
       id="path395" /><path
       style="fill:#ffffff;stroke:#000000;stroke-width:0.264583px;stroke-linecap:butt;stroke-linejoin:miter;stroke-opacity:1"
       d="m 89.578743,72.7859 -6.595486,-1.371338 -1.436639,4.897639 3.656904,2.15496 2.677374,3.395694 5.028242,3.13449 1.175433,-0.653019 1.240734,-3.918111 0.0653,-0.522414 -4.244618,-3.656902 -1.959057,-3.265093 z"
       id="path397" /><path
       style="fill:#ffffff;stroke:#000000;stroke-width:0.264583px;stroke-linecap:butt;stroke-linejoin:miter;stroke-opacity:1"
       d="m 98.721002,73.373617 c -0.326509,0.653018 -3.003886,7.248503 -3.003886,7.248503 l -1.306036,5.615959 2.024356,9.664673 3.722204,0.195906 0.0653,0.0653"
       id="path399" /><path
       style="fill:#ffffff;stroke:#000000;stroke-width:0.264583px;stroke-linecap:butt;stroke-linejoin:miter;stroke-opacity:1"
       d="m 86.705463,85.91157 -3.591602,7.640314 3.003886,1.501942 0.783622,-0.391811 0.914225,-1.893752 3.591602,-1.893753 -0.130603,-3.591602 z"
       id="path401" /><path
       style="fill:#ffffff;stroke:#000000;stroke-width:0.264583px;stroke-linecap:butt;stroke-linejoin:miter;stroke-opacity:1"
       d="m 80.893599,95.510939 -1.893752,3.852809 5.093544,2.024352 1.567243,-3.983406 z"
       id="path403" /><path
       style="fill:#ffffff;stroke:#000000;stroke-width:0.264583px;stroke-linecap:butt;stroke-linejoin:miter;stroke-opacity:1"
       d="m 88.925725,93.355979 4.897638,-1.893752 2.024357,5.877165 3.852809,0.391811 -0.457113,3.852807 -3.656904,-0.19591 -3.069185,3.1998 -7.052598,-2.61208 3.330392,-8.423936 z"
       id="path405" /><path
       style="fill:#ffffff;stroke:#000000;stroke-width:0.264583px;stroke-linecap:butt;stroke-linejoin:miter;stroke-opacity:1"
       d="m 67.046641,103.80224 16.807836,6.1875 2.216418,-2.49347 6.372201,0.27705 -1.108208,19.30131 -7.29571,-3.23228 -1.754664,-4.70989 -17.269589,-11.91324 z"
       id="path407" /><path
       style="fill:#ffffff;stroke:#000000;stroke-width:0.264583px;stroke-linecap:butt;stroke-linejoin:miter;stroke-opacity:1"
       d="m 71.294775,113.77612 3.694031,2.95522 -4.709888,3.50933 -0.738806,-3.69403 z"
       id="path409" /><path
       style="fill:#ffffff;stroke:#000000;stroke-width:0.183158px;stroke-linecap:butt;stroke-linejoin:miter;stroke-opacity:1"
       d="m 73.397497,120.93076 -1.395693,18.6827 2.664503,2.06154 0.634406,-1.03077 7.676309,0.38654 0.253762,0.70865 2.727944,-1.41731 0.761287,-14.17308 -5.392449,-2.64135 -1.015047,-3.02789 -3.172029,-1.99711 z"
       id="path411" /><path
       style="fill:#ffffff;stroke:#000000;stroke-width:0.264583px;stroke-linecap:butt;stroke-linejoin:miter;stroke-opacity:1"
       d="m 73.189324,142.37091 0.09235,2.49347 10.620335,0.83115 0.1847,-2.77052 z"
       id="path413" /><path
       style="fill:#ffffff;stroke:#000000;stroke-width:0.206189px;stroke-linecap:butt;stroke-linejoin:miter;stroke-opacity:1"
       d="m 73.636568,146.45198 8.857263,0.29239 1.771454,5.40914 -1.204588,22.51372 -3.117758,4.3127 -7.014952,-0.29239 -2.196602,-4.89747 1.558879,-22.51372 z"
       id="path415" /><path
       style="fill:#ffffff;stroke:#000000;stroke-width:0.206189px;stroke-linecap:butt;stroke-linejoin:miter;stroke-opacity:1"
       d="m 69.385082,154.20021 1.346303,0.1462 -1.06287,20.02844 3.401188,6.50558 6.02294,0.36549 1.133728,-0.21929 3.684624,-5.55534 0.921153,-20.7594 2.054886,0.29238 0.850297,2.70458 -1.133729,19.07818 -1.842311,4.3127 -1.771453,10.96447 1.417162,9.79493 -1.275446,1.31574 -0.212573,2.26599 -2.26746,0.1462 -0.921155,0.58476 -2.338319,0.0731 -6.518946,-0.43858 -1.417161,-0.65787 -2.338317,-0.14619 V 202.517 l -0.637724,-0.95025 2.125743,-9.79493 -0.07086,-9.57565 v -1.68122 l -1.842312,-3.94721 1.133731,-19.73605 1.275446,-2.55838 z"
       id="path417" /><path
       style="fill:#ffffff;stroke:#000000;stroke-width:0.206189px;stroke-linecap:butt;stroke-linejoin:miter;stroke-opacity:1"
       d="m 66.975905,158.29362 -0.921155,16.5929 -1.275447,-3.43553 0.354293,-7.60204 0.496005,-2.41218 z"
       id="path419" /><path
       style="fill:#ffffff;stroke:#000000;stroke-width:0.206189px;stroke-linecap:butt;stroke-linejoin:miter;stroke-opacity:1"
       d="m 88.304196,159.53626 -0.566865,10.4528 -0.07086,5.62843 1.771454,-3.80102 0.283433,-4.2396 0.141715,-3.36243 -0.637723,-2.77767 -0.992013,-2.266 z"
       id="path421" /><path
       style="fill:#ffffff;stroke:#000000;stroke-width:0.206189px;stroke-linecap:butt;stroke-linejoin:miter;stroke-opacity:1"
       d="m 65.771319,202.5901 -1.771454,2.63147 -0.637723,4.38579 0.921155,3.21625 0.708581,0.87716 0.992013,-9.57565 0.07086,-0.87716 z"
       id="path423" /><path
       style="fill:#ffffff;stroke:#000000;stroke-width:0.206189px;stroke-linecap:butt;stroke-linejoin:miter;stroke-opacity:1"
       d="m 66.975905,206.82969 c -0.141716,0.29239 -0.637723,7.38275 -0.637723,7.38275 l 0.637723,5.48224 c 0,0 11.975021,1.09645 12.400171,0.87716 0.425148,-0.21929 2.550889,-3.58173 2.550889,-3.58173 l 0.779441,-2.26599 0.566866,-7.16346 -2.834326,-0.73097 -1.13373,0.87716 -9.211554,-0.51168 -0.425147,-0.65786 z"
       id="path425" /><path
       style="fill:#ffffff;stroke:#000000;stroke-width:0.206189px;stroke-linecap:butt;stroke-linejoin:miter;stroke-opacity:1"
       d="m 84.265285,203.54035 -0.708581,11.25686 0.354291,0.51168 c 0,0 0.566862,0.51167 0.921153,-0.21929 0.354292,-0.73096 1.558879,-4.89747 1.558879,-4.89747 l 0.141717,-1.9736 c 0,0 -0.42515,-2.26599 -0.42515,-2.55838 0,-0.29238 -0.637723,-1.90051 -0.637723,-1.90051 l -0.637723,-0.80406 z"
       id="path429" /><path
       style="fill:#ffffff;stroke:#000000;stroke-width:0.264583px;stroke-linecap:butt;stroke-linejoin:miter;stroke-opacity:1"
       d="m 93.562156,106.22044 1.110131,-1.17543 4.505828,0.1306 -0.326509,13.32158 -0.261208,1.30603 -2.80798,0.0653 -2.024356,-1.30603 -0.130604,-0.39181 c 0,0 -0.587716,0.0653 -0.391811,-0.45712 0.195906,-0.52241 0.326509,-11.49312 0.326509,-11.49312 z"
       id="path1413" /><path
       style="fill:#ffffff;stroke:#000000;stroke-width:0.264583px;stroke-linecap:butt;stroke-linejoin:miter;stroke-opacity:1"
       d="m 93.170345,119.80322 1.306037,0.58772 1.436639,0.65302 h 1.436643 l 1.044829,-0.0653 h 0.587716 l -0.195905,9.33816 -2.350868,0.32651 -1.763149,-0.19591 -0.848924,-0.78362 -1.175432,-1.11013 z"
       id="path1415" /><path
       style="fill:#00a515;fill-opacity:1;stroke:#000000;stroke-width:0.539273;stroke-linejoin:bevel;stroke-dasharray:none;stroke-dashoffset:28.2467"
       d="m 65.421176,172.83829 -0.523572,-1.41199 0.178909,-3.79487 0.178906,-3.79488 0.242977,-1.17866 0.242976,-1.17866 0.524014,-1.22425 c 0.288208,-0.67334 0.529935,-1.21815 0.53717,-1.21068 0.01947,0.0201 -0.802277,14.89133 -0.832231,15.06105 -0.02421,0.13721 -0.0535,0.0696 -0.549149,-1.26706 z"
       id="path2183" /><path
       style="fill:#00a515;fill-opacity:1;stroke:#000000;stroke-width:0.456448;stroke-linejoin:bevel;stroke-dasharray:none;stroke-dashoffset:28.2467"
       d=""
       id="path2185"
       transform="matrix(0.26458333,0,0,0.26458333,26.245858,43.758585)" /><path
       style="fill:#00a515;fill-opacity:1;stroke:#000000;stroke-width:0.0941145;stroke-linejoin:bevel;stroke-dasharray:none;stroke-dashoffset:28.2467"
       d="m 87.801106,173.90559 c 0.01139,-0.63319 0.02952,-1.78447 0.0403,-2.55837 0.01498,-1.07616 0.08162,-2.56328 0.283339,-6.32285 0.145061,-2.70366 0.26786,-4.97203 0.272887,-5.04082 0.0078,-0.1063 0.06175,-0.005 0.359511,0.67614 l 0.350371,0.80122 0.317369,1.37056 0.317371,1.37056 -0.07511,1.79087 c -0.04131,0.98497 -0.137189,2.69543 -0.213054,3.80101 l -0.137938,2.01016 -0.750824,1.60812 c -0.412954,0.88447 -0.758496,1.61635 -0.767873,1.6264 -0.0094,0.0101 -0.0077,-0.4998 0.0037,-1.133 z"
       id="path2187" /></g></svg>
