<?xml version="1.0" encoding="UTF-8" standalone="no"?>
<!-- Created with Inkscape (http://www.inkscape.org/) -->

<svg
   width="256"
   height="256"
   viewBox="0 0 67.733332 67.733333"
   version="1.1"
   id="svg5"
   xml:space="preserve"
   inkscape:version="1.2.1 (9c6d41e410, 2022-07-14)"
   sodipodi:docname="GNVulcan.svg"
   xmlns:inkscape="http://www.inkscape.org/namespaces/inkscape"
   xmlns:sodipodi="http://sodipodi.sourceforge.net/DTD/sodipodi-0.dtd"
   xmlns="http://www.w3.org/2000/svg"
   xmlns:svg="http://www.w3.org/2000/svg"><sodipodi:namedview
     id="namedview7"
     pagecolor="#ffffff"
     bordercolor="#000000"
     borderopacity="0.25"
     inkscape:showpageshadow="2"
     inkscape:pageopacity="0.0"
     inkscape:pagecheckerboard="0"
     inkscape:deskcolor="#d1d1d1"
     inkscape:document-units="mm"
     showgrid="false"
     showguides="true"
     inkscape:zoom="1.829812"
     inkscape:cx="54.103919"
     inkscape:cy="180.07314"
     inkscape:window-width="1920"
     inkscape:window-height="991"
     inkscape:window-x="-9"
     inkscape:window-y="-9"
     inkscape:window-maximized="1"
     inkscape:current-layer="layer3"><sodipodi:guide
       position="73.671615,68.817802"
       orientation="0,-1"
       id="guide2129"
       inkscape:locked="false" /></sodipodi:namedview><defs
     id="defs2" /><g
     inkscape:groupmode="layer"
     id="layer3"
     inkscape:label="Layer 3"><path
       style="fill:#ffffff;fill-opacity:1;stroke:#000000;stroke-width:0.0428235px;stroke-linecap:butt;stroke-linejoin:miter;stroke-opacity:1"
       d="m 33.299391,21.305442 -7.662,4.437111 -6.159522,7.17612 8.900332,-5.737548 z"
       id="path1920-8" /><path
       style="fill:#ffffff;fill-opacity:1;stroke:#000000;stroke-width:0.0655926px;stroke-linecap:butt;stroke-linejoin:miter;stroke-opacity:1"
       d="M 24.195396,34.00847 12.051034,39.996135 1.8321546,50.376571 16.012982,42.521441 Z"
       id="path1920" /><path
       style="fill:#ffffff;fill-opacity:1;stroke:#000000;stroke-width:0.0655926px;stroke-linecap:butt;stroke-linejoin:miter;stroke-opacity:1"
       d="M 26.855592,22.353537 14.774925,28.468693 4.6658691,38.956111 18.763232,30.952159 Z"
       id="path1920-6" /></g><g
     inkscape:groupmode="layer"
     id="layer2"
     inkscape:label="Layer 2" /><g
     inkscape:groupmode="layer"
     id="layer4"
     inkscape:label="Layer 4" /><g
     inkscape:groupmode="layer"
     id="layer5"
     inkscape:label="Layer 5"><g
       id="g1077"
       transform="rotate(-25.96587,0.03951904,5.4924899)"><path
         style="fill:#ffffff;fill-opacity:1;stroke:#000000;stroke-width:0.264583px;stroke-linecap:butt;stroke-linejoin:miter;stroke-opacity:1"
         d="m 22.376217,42.547346 -1.012171,-2.385832 3.18111,-9.326436 10.91699,-2.711174 4.843963,0.722979 15.399466,-3.217258 1.012169,0.867575 0.722982,2.747322 -0.759129,3.144962 -12.79674,8.675754 -1.373661,9.18184 -5.422344,2.313536 -1.626706,0.108447 -4.120983,-11.061589 -4.910896,-0.862941 -2.81173,2.044896 z"
         id="path478" /><path
         style="fill:#ffffff;fill-opacity:1;stroke:#000000;stroke-width:0.264583px;stroke-linecap:butt;stroke-linejoin:miter;stroke-opacity:1"
         d="m 24.255964,37.920276 2.421981,-7.121348 5.241602,0.108448 -1.301363,8.278116 -6.542965,-1.012171 z"
         id="path481" /><path
         style="fill:#ffffff;fill-opacity:1;stroke:#000000;stroke-width:0.264583px;stroke-linecap:butt;stroke-linejoin:miter;stroke-opacity:1"
         d="m 31.84924,30.775669 c 0,0 1.175813,0.562345 1.584793,0.562345 0.408979,0 9.150905,-1.53367 9.150905,-1.53367 l 2.504996,3.374077 12.064881,-5.112239 0.255611,1.431428 -0.715714,3.016221 -12.678349,8.435191 -1.482547,9.150906 -5.367851,2.556118 -1.776116,-0.05025 -3.976389,-11.034474 0.976024,-0.578385 1.192917,-9.290288 z"
         id="path485" /><path
         style="fill:#ffffff;fill-opacity:1;stroke:#000000;stroke-width:0.264583px;stroke-linecap:butt;stroke-linejoin:miter;stroke-opacity:1"
         d="m 21.255599,42.366602 c 0,0 -8.531159,3.036514 -8.386563,3.542598 0.144596,0.506087 -0.36149,1.879748 -0.36149,1.879748 l 1.373661,1.084469 0.790914,-0.409405 5.265605,0.664591 1.687038,0.613468 4.805503,-1.329182 0.511224,2.453873 c 0,0 0.562346,0.408979 1.022448,0.613468 0.4601,0.204491 3.016218,-0.920202 3.016218,-0.920202 l -0.05112,2.044895 -0.204491,1.380305 c 0,0 -0.204488,0 0,0.153366 0.204491,0.153368 2.76061,0.204488 2.76061,0.204488 l 1.993773,-1.635913 c 0,0 -3.744714,-11.080776 -4.013108,-11.093556 -0.268393,-0.01278 -5.035554,-0.920202 -5.035554,-0.920202 l -2.773388,2.057675 -1.239718,-0.191709 z"
         id="path487" /><path
         style="fill:#ffffff;fill-opacity:1;stroke:#000000;stroke-width:0.264583px;stroke-linecap:butt;stroke-linejoin:miter;stroke-opacity:1"
         d="m 13.881207,48.837267 -0.397638,4.193284 0.831426,3.144959 c 0,0 3.072663,1.156769 3.217259,1.265216 0.144596,0.108445 2.096641,0.650679 2.096641,0.650679 0,0 2.241236,-0.144595 2.566577,-0.216892 0.325341,-0.0723 2.602727,-1.192916 2.602727,-1.192916 L 24.617453,55.88632 c 0,0 -0.108446,-0.144597 0.469937,-0.144597 0.578384,0 1.590555,-1.518256 1.590555,-1.518256 l 0.253042,-1.084469 1.229067,-0.722982 c 0,0 1.590556,-1.084469 1.012171,-1.048319 -0.578384,0.03615 -0.903724,0.03615 -1.120619,0.03615 -0.216895,0 -1.192916,-0.68683 -1.192916,-0.68683 l -0.433788,-2.277385 -4.771664,1.229064 -1.952045,-0.650682 -5.133155,-0.506084 z"
         id="path497" /><path
         style="fill:#ffffff;stroke:#000000;stroke-width:0.264583px;stroke-linecap:butt;stroke-linejoin:miter;stroke-opacity:1"
         d="m 18.887841,58.109482 -0.379564,0.361489 4.536696,1.012172 1.283289,-0.560311 2.440057,-0.632606 3.163035,-2.114716 0.813351,-1.644777 v -0.343416 l 0.234968,-3.70527 -1.753224,0.741053 -0.01807,0.415713 -2.259309,1.464035 -0.289192,1.174843 -1.319438,1.391734 -0.668757,0.126521 0.09037,0.994098 -2.476205,1.030245 -2.476205,0.216895 -0.849501,-0.144597 z"
         id="path1065" /><path
         style="fill:#000000;fill-opacity:1;stroke:#000000;stroke-width:0.264583px;stroke-linecap:butt;stroke-linejoin:miter;stroke-opacity:1"
         d="m 21.829254,49.742071 c 0,0 -0.817958,-0.460103 -0.817958,0.817957 0,1.278059 0,2.096018 0,2.096018 l 0.664591,2.40275 c 0,0 0.255611,0.357857 1.635915,-0.204488 1.380305,-0.562346 2.607242,-1.431428 2.607242,-1.431428 L 25.20333,51.071253 24.947719,49.690948 c 0,0 0.153367,-0.664591 -0.40898,-0.766837 -0.562346,-0.102245 -2.709485,0.81796 -2.709485,0.81796 z"
         id="path1067" /></g></g></svg>
