<?xml version="1.0" encoding="UTF-8" standalone="no"?>
<!-- Created with Inkscape (http://www.inkscape.org/) -->

<svg
   width="109.23344mm"
   height="84.686958mm"
   viewBox="0 0 109.23345 84.686959"
   version="1.1"
   id="svg4841"
   xml:space="preserve"
   inkscape:version="1.2.1 (9c6d41e410, 2022-07-14)"
   sodipodi:docname="Heatsinkkit.svg"
   xmlns:inkscape="http://www.inkscape.org/namespaces/inkscape"
   xmlns:sodipodi="http://sodipodi.sourceforge.net/DTD/sodipodi-0.dtd"
   xmlns="http://www.w3.org/2000/svg"
   xmlns:svg="http://www.w3.org/2000/svg"><sodipodi:namedview
     id="namedview4843"
     pagecolor="#ffffff"
     bordercolor="#000000"
     borderopacity="0.25"
     inkscape:showpageshadow="2"
     inkscape:pageopacity="0.0"
     inkscape:pagecheckerboard="true"
     inkscape:deskcolor="#d1d1d1"
     inkscape:document-units="mm"
     showgrid="false"
     inkscape:zoom="0.64693624"
     inkscape:cx="544.10308"
     inkscape:cy="292.91913"
     inkscape:window-width="1920"
     inkscape:window-height="991"
     inkscape:window-x="-9"
     inkscape:window-y="-9"
     inkscape:window-maximized="1"
     inkscape:current-layer="svg4841" /><defs
     id="defs4838" /><g
     inkscape:groupmode="layer"
     id="layer8"
     inkscape:label="Layer 2"
     style="display:inline"
     transform="translate(-30.10828,-60.748256)" /><g
     inkscape:label="Layer 1"
     inkscape:groupmode="layer"
     id="layer1"
     style="display:inline;opacity:1"
     transform="translate(-30.10828,-60.748256)" /><g
     inkscape:groupmode="layer"
     id="layer9"
     inkscape:label="Layer 3"
     style="display:inline"
     transform="translate(-30.10828,-60.748256)" /><g
     id="g5774"
     transform="matrix(0.78418887,0.00415498,5.3308464e-4,0.99359046,1.5566647,-0.28347339)"><path
       style="display:inline;opacity:1;fill:#000000;stroke:#000000;stroke-width:0.343958;stroke-linejoin:bevel"
       d="m 30.36669,126.579 10.019985,-1.73816 0.715714,-1.22694 2.249384,-0.10224 0.613468,1.22693 3.783055,-0.20449 1.94265,-0.9202 2.862855,-0.9202 -6.952644,-0.30674 -3.374078,-1.32918 -2.147138,-2.86285 -1.738162,-4.70326 1.738162,-4.70326 2.35163,-2.45387 -0.306735,-1.22694 -0.204491,-1.73816 0.613468,-1.22694 0.715714,-0.30673 0.920203,-0.30674 0.817959,-0.81795 0.613468,-0.817961 -1.226936,-0.920203 -10.122231,-0.306734 c 0,0 -3.271832,-1.226939 -3.271832,-1.635916 0,-0.408979 0.102246,-15.643447 0.102246,-15.643447 0,0 3.271832,-3.169586 3.680809,-3.169586 0.408979,0 2.760609,0 2.760609,0 l 0.102246,-1.840408 7.157132,-0.408977 2.862853,-1.94265 6.441419,0.408977 0.920202,1.124694 1.431427,-1.431428 7.97509,-0.102243 1.635916,0.715711 1.329182,1.840408 2.556118,0.306734 0.306734,-1.022448 0.920203,-0.817957 0.817959,-0.102246 1.53367,-0.102245 h 1.226937 l 0.817959,-0.306734 -0.306734,-1.329182 -2.965098,-1.840405 0.102243,2.044896 h -2.351627 l -0.920205,-2.044896 0.306737,-1.94265 -1.329182,-1.329182 V 66.76582 l 0.920202,-0.102246 0.613468,0.102246 -0.102245,-5.521216 2.249384,0.102245 0.204491,5.214483 5.009991,0.204488 0.102246,-5.316728 h 2.35163 l 0.306734,5.214482 h 4.294277 l 2.35163,-1.53367 5.725708,-0.715714 1.431425,1.022448 1.840404,-0.204488 0.102246,-3.885301 2.35163,-0.102245 0.204488,4.089788 2.351638,-0.715711 5.00999,-0.102245 0.61347,0.613468 4.29428,0.511225 1.22694,0.613468 h 0.71571 l 0.40898,-5.316728 h 1.94265 l 0.51122,5.214483 h 4.39652 l -0.20448,-4.907748 1.94265,-0.204489 0.51122,3.987543 0.30673,1.329182 h 1.94265 l -0.10224,1.635916 -1.22694,2.35163 -1.12469,3.067344 -2.24938,-0.511225 v -1.533671 l -6.44143,2.760607 1.02245,1.431428 0.92021,0.920202 1.32918,1.840405 1.73816,1.840407 2.04489,-1.635916 h 2.65837 l 0.71571,-0.81796 0.10225,-2.351627 0.9202,-0.511225 v -1.022448 l -0.9202,-0.102243 -0.71572,-0.204491 1.02245,-1.738159 0.40898,-1.635916 0.51122,-0.306734 17.17712,0.102243 c 0,0 0.81796,1.635916 0.81796,2.044895 0,0.40898 0.40898,2.147139 0.40898,2.147139 l -0.40898,1.022448 -3.27183,0.102246 -0.81796,0.204488 0.81796,0.511225 1.12469,0.408977 1.12469,0.613471 1.43143,-1.533673 14.62099,-0.102243 1.73817,2.862853 7.15713,1.738159 0.10224,2.35163 -0.61347,0.920202 -0.61346,11.860392 -22.59609,3.783055 7.56611,0.102245 1.53367,1.533674 v 1.53367 l -0.9202,1.53367 1.8404,1.84041 1.94265,4.08978 -0.61347,4.70326 -6.23693,5.62346 -4.8055,0.81796 h -3.68081 l 1.73816,1.84041 5.21448,0.30673 c 0,0 0.40898,0.9202 0.81796,0.9202 0.40898,0 2.76061,-1.22693 2.76061,-1.22693 l 2.55612,0.61347 5.11223,0.9202 4.49877,0.30673 0.71572,19.83548 c 0,0 -63.289507,0.40898 -63.80073,0.40898 -0.511223,0 -0.715714,-1.73816 -1.635916,-1.73816 -0.920202,0 -23.414048,0.61347 -23.414048,0.61347 l -2.147139,1.73816 -5.316728,0.40898 -35.581171,0.10225 -0.715714,-1.63592 z"
       id="path4991"
       transform="translate(-30.092467,-60.765891)" /><path
       style="display:inline;opacity:1;fill:#ffffff;stroke:#000000;stroke-width:0.343958;stroke-linejoin:bevel"
       d="m 42.258154,106.42259 4.735515,0.0362 1.265216,-0.36149 12.3268,-0.28919 19.84579,1.15676 -0.289192,2.20509 0.361489,1.19292 0.216895,2.81962 0.28919,2.85577 -0.144595,1.4821 0.289192,1.44596 1.048319,1.95205 0.578384,0.68683 -1.012171,0.57838 c 0,0 -1.735151,0.46994 -1.879745,0.46994 -0.144598,0 -13.555867,0.21689 -13.555867,0.21689 0,0 -10.880843,0.10845 -11.025438,0.0723 -0.144598,-0.0362 -2.81962,-0.28919 -3.072665,-0.28919 -0.253042,0 -7.193645,-0.43379 -7.193645,-0.43379 l -3.144962,-1.5544 -1.988192,-2.96422 -1.156769,-3.50645 -0.397637,-0.93987 1.73515,-4.30173 c 0,0 1.301364,-1.55441 1.482109,-1.73515 0.180745,-0.18075 0.686829,-0.79528 0.686829,-0.79528 z"
       id="path5458"
       transform="translate(-30.092467,-60.765891)" /><path
       style="display:inline;opacity:1;fill:#ffffff;stroke:#000000;stroke-width:0.343958;stroke-linejoin:bevel"
       d="m 83.612584,99.554283 6.506816,7.157497 c 0,0 2.49428,4.62707 2.566577,4.98856 0.0723,0.36149 3.614899,4.01254 3.614899,4.01254 l 5.350044,1.33751 4.01254,0.18074 1.55441,0.0362 4.22943,0.2169 c 0,0 1.08447,-0.97603 1.19291,-1.12062 0.10845,-0.1446 0,-2.45813 0,-2.45813 0,0 -1.26521,-0.68683 -1.40981,-0.65068 -0.14459,0.0361 -3.5426,0.32534 -4.26558,0.39763 -0.72298,0.0723 -6.9406,0.0723 -7.157495,0.0723 -0.216892,0 -4.663218,-2.53043 -4.663218,-2.53043 l -1.554406,-3.21726 -0.397637,-1.19291 4.337876,2.42198 c 0,0 4.98856,0.57838 5.20545,0.61453 0.2169,0.0362 4.30173,-0.0723 4.30173,-0.0723 l 3.86794,0.25305 1.95205,-0.0723 0.21689,-1.26521 -0.86758,-1.7713 c 0,0 -0.61453,-0.86758 -0.75912,-0.86758 -0.1446,0 -3.6149,0.43379 -3.8318,0.43379 -0.21689,0 -7.15749,1.15676 -7.30209,1.15676 -0.1446,0 -4.880111,-1.4098 -4.880111,-1.4098 l -1.590555,-2.0605 -4.120984,-4.15713 -2.566577,-1.988193 -4.157131,-3.904089 -0.433789,-1.843598 -0.108445,-0.867576 -3.651049,-0.216893 0.542237,3.976386 -0.650682,2.132791 -6.68756,1.699 c 0,0 -4.229431,0.180748 -4.663221,0.216895 -0.433787,0.03615 -1.915895,0 -1.915895,0 l -0.0723,1.590557 7.229795,0.61453 6.832158,0.79528 2.45813,-1.66285 z"
       id="path5461"
       transform="translate(-30.092467,-60.765891)" /><path
       style="display:inline;opacity:1;fill:#ffffff;stroke:#000000;stroke-width:0.343958;stroke-linejoin:bevel"
       d="m 111.34453,104.54526 13.59855,-0.6646 17.79059,0.56235 7.05489,-0.81796 1.43142,-0.15336 0.71571,-1.43143 0.15337,-1.32918 -1.53367,-1.789286 c 0,0 -7.36162,0 -7.7706,0 -0.40898,0 -20.55119,-0.664591 -20.55119,-0.664591 l -0.30674,2.402757 -2.70949,2.19826 -8.38406,-0.35786 -0.76684,0.25561 c 0,0 -0.35785,0.51122 -0.20449,0.76684 0.15337,0.25561 0.97133,1.32918 0.97133,1.32918 z"
       id="path5466"
       transform="translate(-30.092467,-60.765891)" /><rect
       style="display:inline;opacity:1;fill:#ffffff;stroke:#000000;stroke-width:0.354532;stroke-linejoin:bevel"
       id="rect5552-2"
       width="31.439035"
       height="1.8691733"
       x="68.724495"
       y="140.19101"
       transform="translate(-30.092467,-60.765891)" /><path
       style="display:inline;opacity:1;fill:#ffffff;stroke:#000000;stroke-width:0.343958;stroke-linejoin:bevel"
       d="m 37.847979,76.238192 6.759858,-0.397637 c 0,0 2.566577,-1.518259 2.53043,-1.373661 -0.03615,0.144594 -0.903724,1.337511 -0.903724,1.337511 l 0.542234,1.012171 -1.445958,3.904091 -0.325343,13.808908 0.144598,2.060493 2.494277,2.38583 c 0,0 -12.724439,-0.180745 -12.869034,-0.216892 -0.144598,-0.03615 -3.542602,-1.626703 -3.542602,-1.626703 V 81.407496 c 0,0 3.434154,-3.253406 3.614899,-3.253406 0.180745,0 2.81962,0 2.81962,0 z"
       id="path5486"
       transform="translate(-30.092467,-60.765891)" /><path
       style="display:inline;opacity:1;fill:#ffffff;stroke:#000000;stroke-width:0.343958;stroke-linejoin:bevel"
       d="m 100.40434,82.971612 -21.113539,13.700797 1.07357,3.271833 1.27806,0.715718 22.953949,-14.160904 -1.02245,-1.687039 -2.14714,-1.891527 z"
       id="path5445"
       transform="translate(-30.092467,-60.765891)" /><path
       style="display:inline;opacity:1;fill:#ffffff;stroke:#000000;stroke-width:0.343958;stroke-linejoin:bevel"
       d="m 109.70862,103.31832 -0.71572,2.65836 -1.07357,16.35916 0.20449,1.48255 c 0,0 13.39406,0.4601 13.59855,0.0511 0.20449,-0.40898 2.81173,-3.06734 3.06734,-3.11846 0.25562,-0.0511 15.7457,0 15.7457,0 l 7.66835,-0.92021 5.72571,-5.16336 0.51122,-0.61346 0.61347,-4.75438 -2.45387,-4.44765 -1.48255,-1.43143 -6.90152,0.71572 -10.58233,0.0511 -20.96018,0.35786 -1.99377,0.25561 z"
       id="path5469"
       transform="translate(-30.092467,-60.765891)" /><path
       style="display:inline;opacity:1;fill:#ffffff;stroke:#000000;stroke-width:0.343958;stroke-linejoin:bevel"
       d="m 123.20492,77.961621 c 0.35786,0 17.99508,1.022446 17.99508,1.022446 l 7.15713,2.658364 -0.25561,13.291817 -8.79305,3.936423 -17.27936,-0.562346 0.30673,-14.058653 -3.98754,0.102245 -0.35786,-4.345403 2.19826,-1.431424 2.24938,0.102242 z"
       id="path5489"
       transform="translate(-30.092467,-60.765891)" /><path
       style="display:inline;opacity:1;fill:#ffffff;stroke:#000000;stroke-width:0.343958;stroke-linejoin:bevel"
       d="m 139.92194,78.319476 c 0.51122,0.255614 20.8068,1.635916 20.8068,1.635916 l -0.4601,10.837944 -7.87284,3.783055 -0.51123,2.709487 -9.25315,1.584793 h -3.22071 c 0,0 8.74193,-3.680812 8.79305,-3.936423 0.0511,-0.255612 0.25561,-13.240695 0.25561,-13.240695 l -7.46386,-2.913975 -1.27806,0.204489 z"
       id="path5491"
       transform="translate(-30.092467,-60.765891)" /><path
       style="display:inline;opacity:1;fill:#ffffff;stroke:#000000;stroke-width:0.343958;stroke-linejoin:bevel"
       d="m 140.79102,78.16611 0.30673,-1.226937 0.76684,0.204489 18.91528,1.94265 v 0.86908 z"
       id="path5493"
       transform="translate(-30.092467,-60.765891)" /><path
       style="display:inline;opacity:1;fill:#ffffff;stroke:#000000;stroke-width:0.343958;stroke-linejoin:bevel"
       d="m 72.951627,71.366834 5.981319,-0.460102 c 0,0 10.122228,1.738161 10.32672,1.789284 0.204488,0.05112 2.504995,2.504996 2.504995,2.504996 0,0 1.329182,1.687039 1.533671,1.687039 0.204491,0 3.834177,1.07357 4.396525,0.869079 0.562346,-0.204488 4.549893,-2.300507 4.805503,-2.40275 0.25561,-0.102245 4.14091,-0.613471 4.95887,-0.766836 0.81796,-0.153369 4.95887,-0.357857 5.16336,-0.40898 0.20449,-0.05112 6.54366,-2.658364 6.54366,-2.658364 l 0.4601,1.175816 2.14714,0.613468 2.35163,-5.470093 0.15337,-1.073571 c 0,0 -0.10224,-0.357857 -0.30673,-0.357857 -0.20449,0 -11.86039,-0.204488 -11.86039,-0.204488 l -5.77683,-1.124694 -0.51123,-0.408977 h -5.981314 l -1.380305,0.664588 -3.374075,-0.102242 -1.278059,0.255611 -1.533673,-1.124694 -6.083562,1.124694 -2.35163,1.380305 -14.87661,-0.204492 h -0.562346 l -0.102245,1.584794 1.380304,1.226939 -0.408979,1.840404 1.07357,2.249385 2.147139,-0.102246 z"
       id="path5495"
       transform="translate(-30.092467,-60.765891)" /><rect
       style="display:inline;opacity:1;fill:#ffffff;stroke:#000000;stroke-width:0.397581;stroke-linejoin:bevel"
       id="rect5579"
       width="31.395987"
       height="4.2842541"
       x="68.999062"
       y="133.63344"
       transform="translate(-30.092467,-60.765891)" /><path
       style="display:inline;opacity:1;fill:#ffffff;stroke:#000000;stroke-width:0.343958;stroke-linejoin:bevel"
       d="m 36.040531,78.624024 -2.783473,1.988196 c 0,0 -0.831426,0.939874 -0.867574,1.120619 -0.03615,0.180744 0.03615,14.42344 0.03615,14.42344 l 1.373661,1.373661 0.361489,-0.0723 -0.397637,-1.337511 0.0723,-14.604187 0.0723,-0.36149 3.253409,-2.53043 z"
       id="path5008"
       transform="translate(-30.092467,-60.765891)" /><path
       style="display:inline;opacity:1;fill:#ffffff;stroke:#000000;stroke-width:0.343958;stroke-linejoin:bevel"
       d="m 42.330451,76.671981 0.03615,2.385833 -2.675025,1.988193 0.108447,15.507911 3.361854,1.915896 0.578385,-0.216895 -3.25341,-1.915895 -0.180744,-14.387293 2.819622,-2.81962 -0.03615,-2.675025 -0.831427,0.0723 v 0.39764 z"
       id="path5429"
       transform="translate(-30.092467,-60.765891)" /><rect
       style="display:inline;fill:#ffffff;stroke:#000000;stroke-width:0.331216;stroke-linejoin:bevel"
       id="rect5581-0-2"
       width="0.88031727"
       height="3.6999376"
       x="83.280869"
       y="133.85329"
       transform="translate(-30.092467,-60.765891)" /><rect
       style="display:inline;fill:#ffffff;stroke:#000000;stroke-width:0.331216;stroke-linejoin:bevel"
       id="rect5581-3"
       width="0.88031727"
       height="3.6999376"
       x="72.146988"
       y="133.85329"
       transform="translate(-30.092467,-60.765891)" /><path
       style="display:inline;opacity:1;fill:#ffffff;stroke:#000000;stroke-width:0.343958;stroke-linejoin:bevel"
       d="m 46.981461,76.734682 c 0,0 -0.715713,1.073571 -0.869079,1.431428 -0.153369,0.357857 -0.460103,1.738161 -0.766837,2.862852 -0.306734,1.124694 -0.255611,3.936423 -0.255611,6.236931 0,2.300507 -0.153368,8.895291 -0.05112,9.150905 0.102246,0.255611 2.658364,2.504996 2.658364,2.504996 l 15.28559,-0.153369 -2.658364,-3.067341 -0.357857,-17.177117 6.032439,-0.971325 -1.687036,-3.118467 -1.584793,-0.357854 -6.23693,0.153366 -1.124694,1.226936 -1.738159,-1.073568 -5.879073,-0.511225 -1.789285,2.096018 z"
       id="path5439"
       transform="translate(-30.092467,-60.765891)" /><path
       style="display:inline;opacity:1;fill:#ffffff;stroke:#000000;stroke-width:0.343958;stroke-linejoin:bevel"
       d="m 65.845618,77.552642 c 0,0 0.306734,1.278059 0.664591,1.431425 0.357857,0.153368 3.834177,1.226939 3.680812,1.584793 -0.153369,0.357857 2.862852,0.869082 2.862852,0.869082 l 0.255611,9.815496 1.993773,0.920203 c 0,0 -4.601014,6.390296 -4.958871,6.543664 -0.357857,0.153366 -7.566112,0 -7.566112,0 L 60.171033,95.598839 59.762056,78.523967 Z"
       id="path5441"
       transform="translate(-30.092467,-60.765891)" /><rect
       style="display:inline;fill:#ffffff;stroke:#000000;stroke-width:0.331216;stroke-linejoin:bevel"
       id="rect5581-4"
       width="0.88031727"
       height="3.6999376"
       x="80.533554"
       y="133.8533"
       transform="translate(-30.092467,-60.765891)" /><path
       style="display:inline;opacity:1;fill:#ffffff;stroke:#000000;stroke-width:0.343958;stroke-linejoin:bevel"
       d="m 73.053873,83.942938 3.783055,0.408979 1.94265,1.993773 37.114842,0.408977 2.70949,-2.147138 3.68081,-0.255612 -0.20449,8.486315 -48.872991,-1.738162 z"
       id="path5443"
       transform="translate(-30.092467,-60.765891)" /><rect
       style="display:inline;fill:#ffffff;stroke:#000000;stroke-width:0.331216;stroke-linejoin:bevel"
       id="rect5581-0"
       width="0.88031727"
       height="3.6999376"
       x="81.907211"
       y="133.87636"
       transform="translate(-30.092467,-60.765891)" /><path
       style="display:inline;opacity:1;fill:#ffffff;stroke:#000000;stroke-width:0.343958;stroke-linejoin:bevel"
       d="m 74.177701,83.829479 1.120619,-3.361857 c 0,0 1.301364,-1.229063 1.590553,-1.445958 0.289193,-0.216895 0.867577,-1.084469 1.012172,-1.192916 0.144597,-0.108448 -0.32534,-1.229064 -0.433787,-1.409809 -0.108447,-0.180747 -0.867574,-1.590556 -0.867574,-1.590556 L 75.29832,73.057082 72.659445,71.430379 72.550998,73.20168 h -2.45813 l -0.939874,-2.205088 0.433787,-1.626706 -1.373661,-1.409808 0.108447,-1.156769 1.409809,-0.03615 h 14.387295 l 2.277385,-1.482108 5.241602,-0.722979 0.65068,-0.0723 1.482108,0.903724 1.445959,-0.216894 3.217259,0.03615 2.385836,-0.578385 4.73551,0.03615 0.68683,0.542235 4.41018,0.506084 1.26521,0.542234 11.96532,0.180745 0.28919,0.614535 -2.49428,6.145326 -2.34968,-0.43379 -0.10845,-1.265213 -6.21763,2.49428 4.95241,5.856133 0.68683,4.699368 -2.81962,2.277385 -37.052698,-0.506087 -2.168938,-2.06049 z"
       id="path5448"
       transform="translate(-30.092467,-60.765891)" /><path
       style="display:inline;opacity:1;fill:#ffffff;stroke:#000000;stroke-width:0.343958;stroke-linejoin:bevel"
       d="m 61.923199,100.6749 c 0.795277,0.18075 7.988922,0.32534 7.988922,0.32534 l 0.253044,0.57839 -0.686831,1.37366 c 0,0 -0.180745,0.90372 -0.0723,1.19291 0.108448,0.2892 0.542235,1.01217 0.542235,1.01217 0,0 0.325342,0.2892 0.542234,0.36149 0.216895,0.0723 0.433787,0.2169 0.614532,0.25305 0.180747,0.0361 -1.662851,4.01253 -1.662851,4.01253 l -0.795279,-0.0723 c 0,0 -0.506084,-0.72297 -0.722979,-1.04831 -0.216892,-0.32535 -0.506085,-1.40982 -0.506085,-1.40982 0,0 -0.216895,-0.25304 -0.506087,-0.25304 -0.289192,0 -2.783469,0.0362 -2.783469,0.0362 0,0 -0.686832,0.0361 -0.79528,0.18075 -0.108447,0.14459 -0.180744,1.40981 -0.325339,1.5544 -0.144598,0.1446 -1.084469,0.54224 -1.084469,0.54224 0,0 -0.43379,-0.39764 -0.542234,-0.57839 -0.108448,-0.18074 -0.578385,-1.91589 -0.542238,-2.20508 0.03615,-0.2892 -0.253042,-2.56658 -0.253042,-2.56658 0,0 0.542235,-1.73515 0.722979,-1.95205 0.180745,-0.21689 0.831427,-1.26521 0.831427,-1.26521 z"
       id="path5450"
       transform="translate(-30.092467,-60.765891)" /><path
       style="display:inline;opacity:1;fill:#ffffff;stroke:#000000;stroke-width:0.343958;stroke-linejoin:bevel"
       d="m 49.198757,101.54248 c 0,0 -1.048319,0.65068 -1.120616,0.83142 -0.0723,0.18075 -0.686832,1.62671 -0.506087,1.9159 0.180744,0.28919 0.433787,1.08447 0.542234,1.30136 0.108447,0.2169 -0.180745,0.72298 -0.433787,0.72298 -0.253042,0 -4.084833,0.28919 -4.084833,0.28919 l 0.216892,-3.36185 2.313535,-2.16894 1.807448,-0.0723 1.518259,0.61454 z"
       id="path5452"
       transform="translate(-30.092467,-60.765891)" /><path
       style="display:inline;opacity:1;fill:#ffffff;stroke:#000000;stroke-width:0.343958;stroke-linejoin:bevel"
       d="m 49.054162,101.75937 c 0.867577,0.1446 12.471397,-0.46994 12.471397,-0.46994 l -0.795276,2.20509 0.108444,1.80745 -0.542234,0.72298 -12.109908,0.0723 -0.397637,-1.22907 c 0,0 -0.361489,-0.75912 -0.253042,-0.93987 0.108445,-0.18075 0.722979,-1.66285 0.722979,-1.66285 l 1.120617,-0.54224 z"
       id="path5454"
       transform="translate(-30.092467,-60.765891)" /><path
       style="display:inline;opacity:1;fill:#ffffff;stroke:#000000;stroke-width:0.343958;stroke-linejoin:bevel"
       d="m 69.875973,101.07254 8.567306,0.86758 3.21726,1.12061 2.349685,2.38584 c 0,0 0.759126,1.59055 0.759126,1.7713 0,0.18074 0.39764,2.63887 0.43379,2.96421 0.03615,0.32534 1.229064,6.25378 1.229064,6.25378 0,0 0.759129,2.60272 0.867576,3.00036 0.108448,0.39764 0.72298,1.55441 0.903724,1.80745 0.180745,0.25304 1.879746,0.57838 1.879746,0.57838 0,0 1.012171,0.61454 1.012171,0.25305 0,-0.3615 -0.03615,-5.42235 -0.03615,-5.42235 l 0.180745,-0.65068 4.843962,0.36149 -0.253042,8.67575 -4.771665,-0.14459 v -1.04832 h -4.482473 l -1.988195,-0.72298 -1.915896,-1.51826 -1.265214,-1.699 -0.542234,-2.38584 0.0723,-3.398 -0.506084,-4.37403 -0.831427,-1.7713 -1.337513,-1.08446 -2.494278,-0.46994 -3.108812,0.25304 -1.7713,-0.0361 0.144595,-0.61453 -0.0723,-0.21689 -1.048321,-0.72298 -0.506085,-1.15677 -0.03615,-0.97602 0.650682,-0.90373 0.0723,-0.75913 z"
       id="path5456"
       transform="translate(-30.092467,-60.765891)" /><path
       style="display:inline;opacity:1;fill:#ffffff;stroke:#000000;stroke-width:0.343958;stroke-linejoin:bevel"
       d="m 109.40188,92.480375 -5.2656,-0.357857 c 0,0 0.9202,9.662132 0.71571,9.662132 -0.20449,0 3.22071,0.61346 3.22071,0.61346 0,0 10.88906,0.46011 11.1958,0.40898 0.30673,-0.0511 2.76061,-2.50499 2.76061,-2.50499 0,0 0.30673,-7.617237 0.10224,-7.566114 -0.20449,0.05112 -13.0362,-0.306734 -13.0362,-0.306734 z"
       id="path5464"
       transform="translate(-30.092467,-60.765891)" /><path
       style="display:inline;opacity:1;fill:#ffffff;stroke:#000000;stroke-width:0.343958;stroke-linejoin:bevel"
       d="m 30.654334,126.73831 4.265578,-0.21689 0.506087,18.86977 -4.048686,0.43378 -1.012172,-1.59055 z"
       id="path5471"
       transform="translate(-30.092467,-60.765891)" /><path
       style="display:inline;opacity:1;fill:#ffffff;stroke:#000000;stroke-width:0.343958;stroke-linejoin:bevel"
       d="m 35.787488,126.37683 0.216892,19.30355 10.555502,-0.0723 1.445959,-1.44596 0.506087,-16.48393 -1.807448,-1.80745 -10.844694,0.21689 z"
       id="path5473"
       transform="translate(-30.092467,-60.765891)" /><path
       style="display:inline;opacity:1;fill:#ffffff;stroke:#000000;stroke-width:0.343958;stroke-linejoin:bevel"
       d="m 48.80112,126.37683 0.144595,17.3515 c 0,0 0.433787,1.80745 0.795276,1.87975 0.361493,0.0723 19.014363,0.0723 19.014363,0.0723 l 0.650682,-1.80745 -0.361489,-16.41164 -1.229067,-1.15676 z"
       id="path5475"
       transform="translate(-30.092467,-60.765891)" /><path
       style="display:inline;opacity:1;fill:#ffffff;stroke:#000000;stroke-width:0.343958;stroke-linejoin:bevel"
       d="m 99.915772,125.07546 -1.662853,1.01217 0.578385,17.42381 1.301366,1.01217 25.73807,0.0723 0.65068,-1.80745 0.14459,-16.55623 -1.80744,-1.73515 z"
       id="path5477"
       transform="translate(-30.092467,-60.765891)" /><path
       style="display:inline;opacity:1;fill:#ffffff;stroke:#000000;stroke-width:0.343958;stroke-linejoin:bevel"
       d="m 129.19644,124.85857 -1.15676,1.59055 -0.1446,17.27921 1.22907,0.72298 17.27921,-0.14459 -0.50609,-19.23126 -1.08447,-0.43379 z"
       id="path5479"
       transform="translate(-30.092467,-60.765891)" /><path
       style="display:inline;opacity:1;fill:#ffffff;stroke:#000000;stroke-width:0.343958;stroke-linejoin:bevel"
       d="m 148.28311,124.42478 -0.93988,1.37366 0.1446,16.99002 0.72298,1.22906 10.6278,0.43379 -1.30137,-19.44815 -0.93987,-0.43379 z"
       id="path5481"
       transform="translate(-30.092467,-60.765891)" /><path
       style="display:inline;opacity:1;fill:#ffffff;stroke:#000000;stroke-width:0.343958;stroke-linejoin:bevel"
       d="m 159.0555,124.49708 -0.86757,1.08447 1.15676,18.43597 3.83179,0.1446 -0.93987,-19.52045 z"
       id="path5483"
       transform="translate(-30.092467,-60.765891)" /><rect
       style="display:inline;opacity:1;fill:#ffffff;stroke:#000000;stroke-width:0.331216;stroke-linejoin:bevel"
       id="rect5581"
       width="0.88031727"
       height="3.6999376"
       x="69.833458"
       y="133.88945"
       transform="translate(-30.092467,-60.765891)" /><rect
       style="opacity:1;fill:#ffffff;stroke:#000000;stroke-width:0.343958;stroke-linejoin:bevel"
       id="rect5552"
       width="29.425266"
       height="1.8797469"
       x="38.879784"
       y="68.792046" /></g><path
     style="display:inline;fill:#ffffff;stroke:#000000;stroke-width:0.544777;stroke-linecap:butt;stroke-linejoin:miter;stroke-dasharray:none;stroke-opacity:1"
     d="m 84.453025,10.845859 0.271489,-2.9026604 0.597277,-1.451329 0.760171,-1.109842 1.574639,-1.536701 1.031659,-0.5976075 h 1.031661 l 0.814468,-0.085375 1.466042,0.3414892 1.628939,0.8537263 0.868764,1.451328 1.140256,3.756383 0.162895,43.4545334 1.140256,1.024465 1.466044,2.305056 1.085953,2.30505 1.194552,3.841756 0.54298,4.012504 -0.54298,6.915162 -2.117615,5.293086 -3.203572,3.585642 -2.986387,1.878188 -3.746553,-0.170742 -5.646983,-3.244159 -1.791829,-3.244141 -2.009022,-5.890695 c 0,0 -0.05429,-4.097871 -0.05429,-4.439365 0,-0.341489 0.868764,-6.488294 0.868764,-6.488294 0,0 1.248853,-2.731919 1.574638,-3.329528 0.32579,-0.597602 2.823492,-4.268617 2.823492,-4.268617 z"
     id="path9754" /><g
     inkscape:groupmode="layer"
     id="layer10"
     inkscape:label="Layer 4"><path
       style="fill:#000000;stroke:#000000;stroke-width:0.0155728px;stroke-linecap:butt;stroke-linejoin:miter;stroke-opacity:1"
       d="m 85.383885,15.64014 -0.0384,1.871386 3.109949,0.06036 0.0384,-1.931754 z"
       id="path10120" /><path
       style="fill:#000000;stroke:#000000;stroke-width:0.0155728px;stroke-linecap:butt;stroke-linejoin:miter;stroke-opacity:1"
       d="m 85.422282,20.710936 -0.0384,1.871392 3.109949,0.06034 0.0384,-1.931759 z"
       id="path10120-7" /><path
       style="fill:#000000;stroke:#000000;stroke-width:0.0155728px;stroke-linecap:butt;stroke-linejoin:miter;stroke-opacity:1"
       d="m 85.422282,25.781798 -0.0384,1.871386 3.109946,0.06041 0.0384,-1.931758 z"
       id="path10120-74" /><path
       style="fill:#000000;stroke:#000000;stroke-width:0.0155728px;stroke-linecap:butt;stroke-linejoin:miter;stroke-opacity:1"
       d="m 86.535719,43.8317 7.371728,-0.06034 0.153575,15.212579 -7.486909,-0.241471 z"
       id="path10196" /><ellipse
       style="fill:#ff8e55;stroke:#000000;stroke-width:0.0234554;stroke-linejoin:bevel;stroke-dashoffset:28.2467;stroke-opacity:1;fill-opacity:1"
       id="path10198"
       cx="90.183189"
       cy="67.978638"
       rx="7.1774421"
       ry="10.983229" /><path
       style="fill:#000000;stroke:#000000;stroke-width:0.0155728px;stroke-linecap:butt;stroke-linejoin:miter;stroke-opacity:1"
       d="m 85.401988,35.639418 -0.0384,1.871393 3.109946,0.06034 0.0384,-1.931759 z"
       id="path10120-3" /><path
       style="fill:#000000;stroke:#000000;stroke-width:0.0155728px;stroke-linecap:butt;stroke-linejoin:miter;stroke-opacity:1"
       d="m 85.460676,30.792293 -0.0384,1.871386 3.109948,0.06034 0.0384,-1.931752 z"
       id="path10120-4" /><path
       style="fill:#000000;stroke:#000000;stroke-width:0.0155728px;stroke-linecap:butt;stroke-linejoin:miter;stroke-opacity:1"
       d="m 85.433565,40.752905 -0.0384,1.871393 3.109946,0.06034 0.0384,-1.931758 z"
       id="path10120-6" /><path
       style="fill:#ff8e55;fill-opacity:1;stroke:#000000;stroke-width:3.18269;stroke-linejoin:bevel;stroke-dasharray:none;stroke-dashoffset:28.2467;stroke-opacity:1"
       d="m 354.36596,182.39819 c 0.0172,-3.40064 0.33371,-4.60981 0.70344,-2.68703 0.36973,1.92277 0.35569,4.70512 -0.0312,6.18299 -0.38688,1.47787 -0.68939,-0.0953 -0.67224,-3.49596 z"
       id="path10690"
       transform="scale(0.26458333)" /><path
       style="fill:#ff8e55;fill-opacity:1;stroke:#000000;stroke-width:0;stroke-linejoin:bevel;stroke-dasharray:none;stroke-dashoffset:28.2467;stroke-opacity:1"
       d="m 327.69845,192.61093 v -26.44309 h 13.13885 13.13885 l 0.26064,6.56943 c 0.284,7.15839 -0.45177,45.01596 -0.88488,45.52991 -0.14684,0.17424 -2.96916,-0.61217 -6.27183,-1.74757 -5.64701,-1.94135 -9.09842,-1.64433 -16.67658,1.43516 -2.51366,1.02147 -2.70505,-0.77169 -2.70505,-25.34384 z"
       id="path10692"
       transform="scale(0.26458333)" /></g></svg>
