<?xml version="1.0" encoding="utf-8"?>
<!-- Generator: Adobe Illustrator 27.4.1, SVG Export Plug-In . SVG Version: 6.00 Build 0)  -->
<svg version="1.1"
	 id="svg250" xmlns:svg="http://www.w3.org/2000/svg" xmlns:inkscape="http://www.inkscape.org/namespaces/inkscape" xmlns:sodipodi="http://sodipodi.sourceforge.net/DTD/sodipodi-0.dtd" inkscape:version="1.2.2 (732a01da63, 2022-12-09)"
	 xmlns="http://www.w3.org/2000/svg" xmlns:xlink="http://www.w3.org/1999/xlink" x="0px" y="0px" viewBox="0 0 52.6 51.4"
	 style="enable-background:new 0 0 52.6 51.4;" xml:space="preserve">
<style type="text/css">
	.st0{fill:#FFFFFF;stroke:#FFFFFF;stroke-width:7.104110e-02;}
	.st1{fill:#FFFFFF;stroke:#FFFFFF;stroke-width:5.327110e-02;}
</style>
<sodipodi:namedview  bordercolor="#000000" borderopacity="0.25" id="namedview252" inkscape:current-layer="svg250" inkscape:cx="-21.19934" inkscape:cy="55.34678" inkscape:deskcolor="#d1d1d1" inkscape:pagecheckerboard="0" inkscape:pageopacity="0.0" inkscape:showpageshadow="2" inkscape:window-height="1377" inkscape:window-maximized="1" inkscape:window-width="5120" inkscape:window-x="-8" inkscape:window-y="-8" inkscape:zoom="3.9388019" pagecolor="#ffffff" showgrid="false">
	</sodipodi:namedview>
<path id="path357" class="st0" d="M14.6,17.9l-4.3,17.5l1.6,6.7l4.6-1.9l6.8-9.1l7.9-2.3l4.4-11.2l-5.6-5.4l-6.8,9.9l-2.2,4.9
	L18,33.6l-1.8,3.2l-1.5,0.9l-0.9,0c0,0-0.5-0.7-0.7-1.1c-0.2-0.4-0.5-1.3-0.5-1.3s-0.2-1.8-0.2-2.2c0-0.4,0.5-4.3,0.7-4.8
	c0.2-0.5,1.4-5.3,1.6-5.7c0.2-0.4,1.2-4,1.2-4L14.6,17.9z"/>
<path id="path359" class="st1" d="M37,18.5l-2.9,7.8L51,11.6l1-1.1l0.3-1.2l-0.3-1L51.3,8L37,18.5z"/>
<path id="path361" class="st0" d="M12.7,22.6l-1.9,6.9c0,0-5.6-3.3-5.7-3.3c-0.2,0-4.3-1.1-4.3-1.1l1.4-2.3L12.7,22.6z"/>
</svg>
