<?xml version="1.0" encoding="utf-8"?>
<!-- Generator: Adobe Illustrator 27.4.1, SVG Export Plug-In . SVG Version: 6.00 Build 0)  -->
<svg version="1.1"
	 id="svg250" xmlns:svg="http://www.w3.org/2000/svg" xmlns:inkscape="http://www.inkscape.org/namespaces/inkscape" xmlns:sodipodi="http://sodipodi.sourceforge.net/DTD/sodipodi-0.dtd" inkscape:version="1.2.2 (732a01da63, 2022-12-09)"
	 xmlns="http://www.w3.org/2000/svg" xmlns:xlink="http://www.w3.org/1999/xlink" x="0px" y="0px" viewBox="0 0 52.6 51.4"
	 style="enable-background:new 0 0 52.6 51.4;" xml:space="preserve">
<style type="text/css">
	.st0{fill:#FFFFFF;stroke:#FFFFFF;stroke-width:7.048410e-02;}
</style>
<sodipodi:namedview  bordercolor="#000000" borderopacity="0.25" id="namedview252" inkscape:current-layer="svg250" inkscape:cx="107.90083" inkscape:cy="-117.80232" inkscape:deskcolor="#d1d1d1" inkscape:pagecheckerboard="0" inkscape:pageopacity="0.0" inkscape:showpageshadow="2" inkscape:window-height="1377" inkscape:window-maximized="1" inkscape:window-width="5120" inkscape:window-x="-8" inkscape:window-y="-8" inkscape:zoom="1.9694009" pagecolor="#ffffff" showgrid="false">
	</sodipodi:namedview>
<path id="path761" class="st0" d="M12.7,31.9l0-3.6l5-7.7l2.3,0.4l2.1,2.1l-7,9.2L12.7,31.9z"/>
<path id="path763" class="st0" d="M8.2,42.4c0-0.2,1.6-6.2,1.6-6.2L13,34l-0.4-1.4l-1.2-0.5l-5.4,4.2l-1.3,5.7l-4-0.4l1.9-6.1
	l5.1-3.8l1.7-0.6l2.9,0.8l2.9,0.8l7-1l3.1,4.3l-9.7,5l-6.5,1.9l-1.4-0.4L8.2,42.4z"/>
<path id="path765" class="st0" d="M11.3,32.3c0,0,0.4,0.2,0.5,0.4c0,0.2,0.3,0.8,0.3,0.9c0,0.2-0.4,0.6-0.7,0.8
	c-0.3,0.2-1.1,0.7-1.6,1.1c-0.5,0.4-0.9,0.8-1,0.9c-0.1,0.1-0.5,1.8-0.5,2c-0.1,0.2-0.6,1.6-0.7,1.8c-0.1,0.2-0.7,1.9-0.7,1.9
	L8,42.7l6.6-8.4c0,0-0.6-1.5-0.8-1.6c-0.2-0.1-2-0.8-2-0.8L11.3,32.3z"/>
<path id="path767" class="st0" d="M10.6,32.6l1.8,1c0,0,0.2-0.7,0-1c-0.2-0.3-1.6-0.6-1.6-0.6L10.6,32.6z"/>
<path id="path769" class="st0" d="M15.7,32.1c0.2-0.1,6.7-8.4,6.7-8.4l2.9,0.6l11.6-3.8l2.1-3.8l-0.4-3.1l3.3-2.3l3.2,5.8l2.7-0.6
	l1.7,8.6l-6.7,3.4l-3.3-1l-0.2-2.7L34.1,27l-5.4,8.1L26,35.8l-3.5-4.5l-1.5-0.5L15.7,32.1z"/>
<path id="path771" class="st0" d="M35.6,9.8l4.6-0.7l1.4,0.5l0,1.3l-3.9,2.2c0,0-4.6,2.7-4.8,2.7c-0.2,0-4.8,0.6-4.8,0.6l-4.8-2.6
	l2-0.4l2,1.1l1.2,0.4l2.1-0.1c0,0,1.4-0.4,1.6-0.5c0.2-0.1,1.8-0.9,1.8-0.9l1.4-1.2l0.8-0.9l0.5-0.8L36,10.1L35.6,9.8z"/>
<path id="path773" class="st0" d="M14.4,23.9c0-0.1,0-4.9,0-5c0-0.1,2.6-5.4,2.6-5.4l3-0.6l6.8,4.2l3,0l5.4-1.4l2.8-1.9l0.2,3
	L36.5,20l-10.3,3L24,22.5l-2.8-2l-4-0.3l-2.4,4.1L14.4,23.9z"/>
<path id="path775" class="st0" d="M9.7,30.7c0-0.1,4.5-6.3,4.5-6.3l0.6,0.4l-2.5,3.7l-0.2,3.1l-2.5-1L9.7,30.7z"/>
</svg>
