<?xml version="1.0" encoding="utf-8"?>
<!-- Generator: Adobe Illustrator 27.4.1, SVG Export Plug-In . SVG Version: 6.00 Build 0)  -->
<svg version="1.1"
	 id="svg250" xmlns:svg="http://www.w3.org/2000/svg" xmlns:inkscape="http://www.inkscape.org/namespaces/inkscape" xmlns:sodipodi="http://sodipodi.sourceforge.net/DTD/sodipodi-0.dtd" inkscape:version="1.2.2 (732a01da63, 2022-12-09)"
	 xmlns="http://www.w3.org/2000/svg" xmlns:xlink="http://www.w3.org/1999/xlink" x="0px" y="0px" viewBox="0 0 52.6 51.4"
	 style="enable-background:new 0 0 52.6 51.4;" xml:space="preserve">
<style type="text/css">
	.st0{fill:#FFFFFF;stroke:#FFFFFF;stroke-width:5.064010e-02;}
</style>
<sodipodi:namedview  bordercolor="#000000" borderopacity="0.25" id="namedview252" inkscape:current-layer="svg250" inkscape:cx="-389.20465" inkscape:cy="25.388431" inkscape:deskcolor="#d1d1d1" inkscape:pagecheckerboard="0" inkscape:pageopacity="0.0" inkscape:showpageshadow="2" inkscape:window-height="1377" inkscape:window-maximized="1" inkscape:window-width="5120" inkscape:window-x="-8" inkscape:window-y="-8" inkscape:zoom="1.9694009" pagecolor="#ffffff" showgrid="false">
	</sodipodi:namedview>
<path id="path540" class="st0" d="M16,20.5L15.4,19l-0.3-0.5l2-1.1l0.2,2l0.9,1c0,0,0.7,0.2,0.9,0.1c0.1-0.1,1-0.9,1-0.9l0.8-1.6
	l0.5-2.4l8.5-4.2l1.2,0l0.4,0l0.3,0.7l0.2,1.6l0.1,2l-0.4,3.1l-0.7,2.2l-1.1,2l-1.7,1.4l-2.2,1.5l-2.4,0.7L22,26.8l-2.7,0l-2.1-0.2
	l-1.4-0.5l-1.8-1.2l-2.5-3.1l0-0.8l3.2-1.6L16,20.5z"/>
<path id="path542" class="st0" d="M17,14.9c0-0.1,0.8-2.5,0.8-2.5l0.5-0.9c0,0,0.6-0.1,0.8,0c0.1,0,1,0.5,1.2,0.6
	c0.1,0.1,0.8,1,0.8,1l0.4,0.3l1.6-0.7l5-2l1.6-0.4l0.5-0.4l0.1-0.9L27.5,6l-2-1.4l-1.6-0.4l-1.5-0.3l-1.3-0.1l-1.2-0.1l-2,0.3
	l-2.1,0.9l-1.4,0.9l-1.7,1.4L11.5,8L10.8,9l-0.9,2.3l-0.6,3.4l0,1.9l0.8,2.2c0,0,0.2,1.2,0.3,1.2c0.2,0,1-0.6,1-0.6s0.7-0.9,0.8-1
	c0.2-0.1,1.3-0.8,1.3-0.8l0.4-0.3l0.5-1l2.3-1l0.4-0.1L17,14.9z"/>
<path id="path544" class="st0" d="M40.7,1.6c-0.1,0-0.7,0.2-0.7,0.2l-1.8,1.6l-2,2.1l-1.3,2.8c0,0-1,2-1,2.2c0,0.1-0.6,3.4-0.6,3.4
	l-0.4,5l0.8,6.5l1.7,3.8l2,3.1l1.5,0.7l0.5,9.4c0,0,1,5.7,1,5.9c0.1,0.1,2.5,2.5,2.5,2.5l1.3,0.5c0,0,1.4-0.7,1.6-0.9
	c0.2-0.2,1.4-1.8,1.4-1.9c0-0.1,0.6-6.3,0.6-6.3L47,36.7l0.4-3.6l4-7.6l-1.3-0.7L49.5,26l-0.2,1l-0.6,1.3L47.8,29l-1.5,0.2l-1.4-0.5
	l-1.7-1.7l-1.7-2.6l-0.8-3.4l-0.4-4.4l1.2-8.1l2.3-2.6c0,0,2-1.3,2.3-1.3c0.3,0,1.3,0,1.4,0c0.1,0,1.2,0.6,1.2,0.6l0.6,0.3l-1.8-1.8
	l-1.3-0.8c0,0-1.1-0.3-1.2-0.3c-0.2,0-1.2-0.3-1.2-0.3L40.7,1.6z"/>
<path id="path546" class="st0" d="M48.5,5c0,0,1.2,2,1.2,2.1c0.1,0.1,0.7,1.2,0.8,1.4c0,0.2,0.5,1.6,0.5,1.6s0.4,2.1,0.4,2.3
	c0,0.1,0.1,2.6,0.1,2.8c0,0.1-0.5,5.3-0.5,5.3L50.4,24l-0.3,1l1.3,0.6c0,0,0.5-0.9,0.6-1c0-0.1,0.4-1.7,0.4-1.8
	c0-0.1,0.5-6.4,0.5-6.6c0-0.2,0-3.4,0-3.4l-1.1-3.1L50,5.5l-2.4-2L48.5,5z"/>
<path id="path548" class="st0" d="M46.2,2.6L48,3.8L46.9,4L46.2,2.6z"/>
<path id="path550" class="st0" d="M45.7,8.8l-0.1,3.8c0,0-0.4,0.1-0.5,0.2c-0.1,0.2-0.6,0.7-0.6,0.7l-0.5,1l-0.4,1.1
	c0,0-0.2,0.9-0.2,1.2c0,0.3,0,1.9,0,1.9l0.7,1l0.8,0.3l-0.9,6.4l-0.9-0.3l-0.6-1.1c0,0-0.7-1.2-0.8-1.3c-0.1-0.2-0.6-3.1-0.6-3.3
	c0-0.2-0.4-3.8-0.3-3.9c0-0.2,0.6-3.3,0.6-3.3l0.4-2.6l0.9-1.3l1.6-1.2l1.3-0.3L45.7,8.8z"/>
<path id="path552" class="st0" d="M45.9,20.3c0,0,0.7-0.4,0.7-0.6c0.1-0.2,0.4-1.3,0.4-1.7c0.1-0.4,0.3-2.4,0.3-2.4s0.1-1.1,0-1.3
	c-0.1-0.2-0.5-0.7-0.5-0.7s-0.3-0.5-0.3-0.7c0-0.2,0.3-4.6,0.3-4.6l0.1-0.6l1.1,1.9l0.5,2.8l0.2,1.7c0,0,0.2,0.7,0.3,1.1
	c0.1,0.3,0.1,1.6,0.1,1.6s0.1,1.6,0.1,1.9c0,0.3-0.1,1.8-0.3,2c-0.1,0.2-0.7,1.5-0.7,1.5l-0.7,1.5c0,0-0.5,1-0.5,1.2
	c0,0.2-0.1,0.6-0.1,0.6l-1.2,0.5l-1.2,0.5l1-6.2L45.9,20.3z"/>
<path id="path554" class="st0" d="M15.5,1.7l-2.4,0.7c0,0-1.5,0.9-1.8,1C11,3.6,9.5,4.6,9.5,4.6L8.1,5.6c0,0-1.2,1.2-1.3,1.5
	c0,0.2-0.8,1.1-1,1.5c-0.2,0.5-1.2,2-1.2,2.5c-0.1,0.5-1.1,3.3-1.1,3.3l0,2.7l0.9,3.7l1.9,3.4c0,0,1.5,1.7,1.5,2
	c0,0.2,1.1,1.2,1.1,1.2L10.2,38l3.8,1.4l0-3.5l-0.7-8.4l-0.1-1.1l-2.5-3.8c0,0-1.6-2-1.7-2.3c0-0.3-1-4.4-0.9-4.6
	c0-0.2,0.5-3.6,0.5-3.6s0.5-3,0.8-3.4c0.3-0.3,1.4-1.7,1.6-2.2c0.3-0.4,2.6-2.9,2.6-2.9l1.9-1.3l1.1-0.6L15.5,1.7z"/>
<path id="path556" class="st0" d="M11.8,7.2c0-0.1,1.3-1.5,1.4-1.5c0.1-0.1,1.1-1.3,1.2-1.3c0.1,0,1.8-1.3,1.8-1.3l1.9-1l5.5-1.4
	l2.6-0.5l2,0.1l1.8,0.2l3.1,0.8l1.3,0.4l1.3,0.6L37.5,3c0,0-1.8,1.5-1.9,1.5c-0.1,0-0.5,0.4-0.5,0.5C35.1,5,34.7,6,34.7,6l-0.5,1.7
	l-0.5,1.3l-0.3,1l-0.6-1.3c0,0-1.4-1-1.5-1.1c-0.1-0.1-1.8-1.5-1.9-1.6c-0.1-0.1-1.7-1.3-1.7-1.3L25,3.8c0,0-2.6-0.5-2.7-0.5
	c-0.1,0-1.7-0.1-1.7-0.1l-2.1,0L17,3.9l-2.1,1l-1.7,1.3L11.8,7.2z"/>
<path id="path558" class="st0" d="M15.9,26.7l2.1,1.2c0,0,1.9,0.7,2.2,0.8c0.2,0.1,1.9,0.4,2.1,0.4c0.1,0,2.8,0.3,3.1,0.3
	c0.3,0,4.1-0.1,4.3-0.1c0.2-0.1,2.2-0.4,2.5-0.5c0.3-0.1,1.4-0.5,1.4-0.5l-0.3-2.4l-0.9-6.7l-0.6,1.3l-0.7,1.5L30.3,23l-1.3,1.3
	l-1.6,1.2l-1.2,0.7l-2.9,0.7l-2.2,0.3c0,0-2.5-0.2-2.7-0.2c-0.2,0-2.2-0.4-2.2-0.4L15.9,26.7z"/>
</svg>
