<?xml version="1.0" encoding="utf-8"?>
<!-- Generator: Adobe Illustrator 27.4.1, SVG Export Plug-In . SVG Version: 6.00 Build 0)  -->
<svg version="1.1"
	 id="svg250" xmlns:svg="http://www.w3.org/2000/svg" xmlns:inkscape="http://www.inkscape.org/namespaces/inkscape" xmlns:sodipodi="http://sodipodi.sourceforge.net/DTD/sodipodi-0.dtd" inkscape:version="1.2.2 (732a01da63, 2022-12-09)"
	 xmlns="http://www.w3.org/2000/svg" xmlns:xlink="http://www.w3.org/1999/xlink" x="0px" y="0px" viewBox="0 0 52.6 51.4"
	 style="enable-background:new 0 0 52.6 51.4;" xml:space="preserve">
<style type="text/css">
	.st0{fill:#FFFFFF;stroke:#000000;stroke-width:1.010480e-02;}
	.st1{fill:#FFFFFF;stroke:#000000;stroke-width:7.061330e-03;}
	.st2{fill:#FFFFFF;stroke:#000000;stroke-width:2.386250e-02;}
	.st3{fill:#FFFFFF;stroke:#000000;stroke-width:8.366960e-03;}
	.st4{fill:#FFFFFF;stroke:#000000;stroke-width:5.323090e-03;}
</style>
<sodipodi:namedview  bordercolor="#000000" borderopacity="0.25" id="namedview252" inkscape:current-layer="svg250" inkscape:cx="846.4503" inkscape:cy="-202.09191" inkscape:deskcolor="#d1d1d1" inkscape:pagecheckerboard="0" inkscape:pageopacity="0.0" inkscape:showpageshadow="2" inkscape:window-height="1377" inkscape:window-maximized="1" inkscape:window-width="5120" inkscape:window-x="-8" inkscape:window-y="-8" inkscape:zoom="0.98470047" pagecolor="#ffffff" showgrid="false">
	</sodipodi:namedview>
<path id="path440" class="st0" d="M11.2,26.9l0.1-0.6l0.1-0.3l0.1-0.3l0.2-0.3l0.5-0.6l0.4-0.4l0.3-0.2l0.3-0.1h0.5h0.5h0.6l0.3,0.1
	l0.7,0.4l0.2,0.2l0.3,0.4l0.2,0.4l0.1,0.3l0.1,0.4v0.5v0.9l-0.1,0.8L16.5,29l-0.2,0.4L15.9,30l-0.4,0.3l-0.7,0.3h-0.3H14
	c0,0-0.5-0.1-0.6-0.1h-0.1L13,31.4l-0.8-0.8l-0.4-0.4L11.4,29l-0.2-0.8v-0.7V26.9z"/>
<path id="path442" class="st0" d="M13.6,30.7l0.4,0.1h0.4l0.6-0.1l0.8-0.4l0.4-0.4l0.4-0.8l0.2-0.9v-1.3l0.4-0.1l0.1,0.7v0.9V29
	L17,30l-0.5,0.7l-0.6,0.5l-0.6,0.3L15,31.7h-0.4c0,0-0.3,0-0.4,0l-0.5-0.1l-0.4-0.1l-0.1-0.1l0.3-0.8L13.6,30.7z"/>
<path id="path440-0" class="st1" d="M19.9,26.8l0.2-0.3l0.1-0.2l0.1-0.2l0.2-0.1l0.4-0.2l0.3-0.2h0.2h0.2l0.3,0.1l0.3,0.2l0.4,0.2
	l0.2,0.2l0.4,0.5l0.1,0.2l0.1,0.3v0.3v0.2v0.3l-0.1,0.4l-0.2,0.6L23,29.6l-0.2,0.3L22.7,30l-0.4,0.3L22,30.4h-0.5l-0.2-0.1L21,30.1
	l-0.3-0.3h-0.1l-0.4,0.5l-0.4-0.8l-0.2-0.4v-0.9v-0.6l0.1-0.5L19.9,26.8z"/>
<path id="path442-8" class="st1" d="M20.6,30l0.3,0.2c0,0,0.2,0.1,0.3,0.1l0.4,0.1h0.6l0.3-0.1l0.4-0.4l0.4-0.5l0.3-0.8l0.3,0.1
	l-0.1,0.5l-0.2,0.6l-0.2,0.4L23,30.7L22.6,31L22,31.2h-0.4l-0.3-0.1L21,31l-0.2-0.1l-0.3-0.2l-0.2-0.2l-0.1-0.1
	C20.2,30.3,20.5,29.9,20.6,30L20.6,30z"/>
<path id="path440-6" class="st2" d="M27.2,16.7l0.9-1l0.5-0.6l0.5-0.5l0.6-0.3l1.6-0.6l1.2-0.4l0.8,0.1l0.8,0.1l1.1,0.6l1,0.7
	l1.3,0.9l0.6,0.7l1.1,1.8l0.2,0.7l0.2,1.1l0.1,1l-0.1,0.8L39.3,23l-0.5,1.1l-0.7,1.8l-1,1.4l-0.7,0.8l-0.7,0.5l-1.6,0.8H33l-1.7-0.2
	l-0.7-0.4l-1-0.6l-1-1c-0.1-0.1-0.3-0.1-0.3-0.1l-1.6,1.4l-1-2.8l-0.5-1.4l0.2-3.1l0.3-1.9l0.6-1.5L27.2,16.7z"/>
<path id="path442-4" class="st2" d="M28.6,27.6l0.9,0.7c0,0,0.8,0.5,0.9,0.6s1.2,0.6,1.2,0.6s2.1,0.2,2.2,0.3
	c0.1,0.1,1.2-0.3,1.2-0.3l1.6-1.1l1.4-1.5l1.2-2.6l0.9,0.5l-0.5,1.6l-0.9,1.9L38,29.6l-1.6,1.6L34.8,32l-1.7,0.3L31.6,32l-1.1-0.4
	l-0.8-0.5L29,30.6c-0.1,0-1-0.9-1-0.9l-0.7-0.8c0,0-0.2-0.3-0.2-0.4c0.1-0.1,1.3-1.1,1.3-1.1L28.6,27.6z"/>
<path id="path440-0-6" class="st3" d="M40.6,16.9l0.3-0.4l0.2-0.2l0.2-0.2l0.2-0.1l0.5-0.3l0.4-0.2h0.3H43l0.4,0.2l0.4,0.2l0.5,0.3
	l0.2,0.2L45,17l0.1,0.2l0.1,0.4l0.1,0.3v0.3v0.4L44.9,19l-0.2,0.7l-0.3,0.5l-0.2,0.3L44,20.7l-0.5,0.4H43h-0.6L42.2,21l-0.4-0.2
	l-0.4-0.3h-0.1l-0.5,0.6l-0.4-0.9l-0.2-0.5v-1.1v-0.7l0.2-0.6L40.6,16.9z"/>
<path id="path442-8-3" class="st3" d="M41.4,20.7l0.3,0.2l0.3,0.2l0.5,0.2c0,0,0.7,0,0.8,0l0.4-0.2l0.5-0.5l0.4-0.6l0.3-1l0.3,0.1
	l-0.1,0.6l-0.3,0.7l-0.2,0.5l-0.5,0.6l-0.5,0.4L43,22.1h-0.5L42.2,22l-0.3-0.1c0,0-0.2-0.1-0.3-0.1l-0.4-0.3L41,21.2l-0.1-0.1
	C40.9,21,41.3,20.6,41.4,20.7L41.4,20.7z"/>
<path id="path440-0-1" class="st4" d="M40.5,22.7l0.2-0.3l0.1-0.1l0.1-0.1l0.1-0.1l0.3-0.2l0.3-0.1h0.2H42l0.2,0.1l0.2,0.1l0.3,0.2
	l0.1,0.1l0.3,0.4l0.1,0.2l0.1,0.2v0.2v0.2v0.2L43.2,24l-0.1,0.4l-0.2,0.3l-0.1,0.2L42.7,25l-0.3,0.2h-0.2h-0.4l-0.2-0.1L41.4,25
	l-0.2-0.2h-0.1l-0.3,0.4l-0.3-0.6l-0.1-0.3v-0.7v-0.4L40.5,22.7L40.5,22.7z"/>
<path id="path442-8-6" class="st4" d="M41,25.1l0.2,0.1l0.2,0.1l0.3,0.1h0.5l0.3-0.1l0.3-0.3l0.3-0.4l0.2-0.6l0.2,0.1l-0.1,0.4
	l-0.2,0.4l-0.1,0.3l-0.3,0.4l-0.3,0.2L42.1,26h-0.3l-0.3-0.1l-0.2-0.1l-0.2-0.1l-0.2-0.2l-0.2-0.2c0,0-0.1-0.1,0-0.1
	C40.7,25.3,41,25,41,25.1L41,25.1z"/>
<path id="path595" class="st0" d="M7,23.4l15.6-8.9l7.9-4l9.4-3.6l-0.2,0.6l-12.8,5.3L8,23.4l-0.6,0.4l-0.3,0.3L0.6,34.5l-0.4-0.6
	L7,23.4z"/>
<path id="path597" class="st0" d="M39.8,7l1,0.7l6.8,5.1l4.2,4l0.8,0.8l-0.3,0.3L39.6,7.4L39.8,7z"/>
<path id="path599" class="st0" d="M51.9,17.1L39.8,33.9h0.7l12.1-16.4L51.9,17.1z"/>
<path id="path601" class="st0" d="M40.5,33.9L5.7,37.7l-5.5-3.5l0.1-0.4l5.3,3.5L40,33.7L40.5,33.9z"/>
<path id="path603" class="st0" d="M7.2,32.4c0-0.1,3.3-5.5,3.3-5.5l-0.1-0.8l1.8-3.2l3.1-1.8l1.9,1.9l-0.8,1.6L15,23.8l-2,0.1
	l-1,0.8L11.3,26l-0.5,2l0.6,2l1.1,1.3l-0.9,2.2l-3.3,0.3L7.2,32.4z"/>
<path id="path605" class="st0" d="M15.5,20.9l2,2.3l-0.9,1.6l0.4,1l0.3,1.1v2.2l-0.7,1.6l-1,0.7H13l-0.9,2.5l7-0.6l0.7-1.8h-0.5
	l-0.7,0.1l-0.4-0.4l-0.6-0.9l-0.1-0.9l0.3-0.7l0.6-0.8l0.3-0.1l0.5,0.1l0.2,0.1c0,0,0.1-0.3,0.1-0.4s0.2-0.7,0.2-0.7l0.2-0.6
	l0.3-0.5l0.5-0.3l0.3-0.2v-0.1h-0.5l-0.1-0.3v-0.3l0.2-0.3l0.7-0.4l1.1-0.1l1-0.1h0.5l0.2-0.5v-0.5l-0.3-0.4v-0.5l0.3-0.1h0.4
	l0.9,0.1l0.1-2l0.8-2l1-1.6c0,0,1-1.2,1.1-1.3s0.7-0.9,0.7-0.9l-2.9,1.2l-0.3,0.5c0,0,0,0.3,0,0.5C25.5,16.3,15.5,20.9,15.5,20.9
	L15.5,20.9z"/>
<path id="path607" class="st0" d="M23.6,22.1l0.2-0.5c0,0,0.3-0.3,0.1-0.3c-0.3,0-0.4,0-0.5,0.2C23.2,21.7,23.6,22.1,23.6,22.1z"/>
<path id="path609" class="st0" d="M23.7,21.6l0.5,0.1l0.3,0.3v0.4c0,0,0.1,0.1-0.2,0.3c-0.3,0.1-0.6,0.1-0.6,0.1l-0.2,0.7l0.8,0.1
	v1.2l-3.6,0.3c0,0-0.3,0.4-0.2,0.4c0.1,0,0.4-0.3,0.4-0.3l0.9-0.1l0.5,0.1l0.7,0.4l0.5,0.6l0.4,1v1.3l-0.4,1.2l-0.7,1L22.6,31
	l0.5-0.1l1.7,2.3l3.5-0.1l0.3-0.7l1.2-0.1l0.4,0.7l7.2-0.4l2.9-4.7l-0.8-0.6l-1,1.9L38,29.9l-0.7,0.7l-1,0.9l-0.7,0.4l-0.9,0.4
	l-1.8,0.1L31.4,32l-2.3-0.9l-1.7-1.4l-1.2-1.8l-1.1-3.5L25,21.6l-1.4-0.3L23.7,21.6z"/>
<path id="path611" class="st0" d="M23.7,22.5c0,0,0-0.1,0-0.2c0,0,0-0.1,0.1-0.1c0,0,0-0.1,0.1-0.1C24,22,24.1,22,24.1,22h0.1
	l0.1,0.1v0.1v0.2v0.1c0,0-0.1,0.1-0.1,0.2h-0.3h-0.1l-0.1-0.1L23.7,22.5v0.4l1-0.1l-0.1-1.2l-1.2-0.1c0,0,0,0.7,0,0.8
	C23.4,22.3,23.7,22.5,23.7,22.5L23.7,22.5z"/>
<path id="path613" class="st0" d="M23.7,22.2c0,0-0.1,0.1,0,0.1l0.1,0.1c0,0,0,0,0.1,0.1l0.1,0.1h0.1h-0.2l-0.2-0.2
	C23.6,22.4,23.7,22.2,23.7,22.2L23.7,22.2L23.7,22.2z"/>
<path id="path615" class="st0" d="M19.3,31.5c0,0,0.3-0.2,0.4-0.2s0.2-0.1,0.3-0.2c0.1,0,0.2-0.3,0.2-0.3l0.1-0.2l0.8,0.5
	c0,0,0.2,0,0.3,0l0.1,0.1l-1.7,0.3L19.3,31.5L19.3,31.5z"/>
<path id="path617" class="st0" d="M28.6,14.2l9-3.5l11.8,8l-6.3,8.8l-0.3-1.2c0,0,0.5-0.4,0.6-0.5s0.4-0.5,0.4-0.6s0.3-0.6,0.3-0.8
	c0-0.2,0-1.2,0-1.2l0.2-0.3c0,0,0.5-0.5,0.6-0.6s0.5-0.6,0.6-0.8c0-0.1,0.3-1,0.3-1.1s0.2-0.8,0.2-0.9s-0.1-0.6-0.1-0.6l-0.6-0.4
	c0,0-0.2-0.5-0.2-0.6S45,17.1,44.9,17c0-0.1-0.6-0.8-0.6-0.8l-0.9-0.7l-1.2-0.4l-1,0.2c0,0-0.5,0.5-0.6,0.7c0,0.1-0.5,0.9-0.6,1
	c0,0.1-0.2,1-0.2,1v1.5l0.5,1.4l0.6,0.7v0.1l-0.5,0.4L40,22.5c0,0-0.1,0.4-0.1,0.6c0,0.1,0,1.2,0,1.2s0,0.3,0.1,0.4
	c0,0.1,0.3,0.6,0.3,0.6l0.6,0.6l1.2,0.5l0.5-0.2l0.2,1.1L40,27.5l-0.5-0.4l0.6-2.3c0,0-0.1-0.3-0.1-0.5s-0.1-2-0.1-2L39.7,20
	l-0.3-1.2l-1-2.1l-0.9-1.3l-1.3-1.3l-1.3-0.7l-1.3-0.6l-5.4,2L28.6,14.2z"/>
</svg>
