<?xml version="1.0" encoding="utf-8"?>
<!-- Generator: Adobe Illustrator 27.4.1, SVG Export Plug-In . SVG Version: 6.00 Build 0)  -->
<svg version="1.1"
	 id="svg250" xmlns:svg="http://www.w3.org/2000/svg" xmlns:inkscape="http://www.inkscape.org/namespaces/inkscape" xmlns:sodipodi="http://sodipodi.sourceforge.net/DTD/sodipodi-0.dtd" inkscape:version="1.2.2 (732a01da63, 2022-12-09)"
	 xmlns="http://www.w3.org/2000/svg" xmlns:xlink="http://www.w3.org/1999/xlink" x="0px" y="0px" viewBox="0 0 52.6 51.4"
	 style="enable-background:new 0 0 52.6 51.4;" xml:space="preserve">
<style type="text/css">
	.st0{fill:#FFFFFF;stroke:#FFFFFF;stroke-width:4.920090e-02;}
</style>
<sodipodi:namedview  bordercolor="#000000" borderopacity="0.25" id="namedview252" inkscape:current-layer="svg250" inkscape:cx="-22.754581" inkscape:cy="23.158508" inkscape:deskcolor="#d1d1d1" inkscape:pagecheckerboard="0" inkscape:pageopacity="0.0" inkscape:showpageshadow="2" inkscape:window-height="1377" inkscape:window-maximized="1" inkscape:window-width="5120" inkscape:window-x="-8" inkscape:window-y="-8" inkscape:zoom="11.140614" pagecolor="#ffffff" showgrid="false">
	</sodipodi:namedview>
<path id="path645" class="st0" d="M24.1,27.3l0.6,0.1l0.3,0.1l0.7,0.5l1,1.2l0.3,0.9l0,3.5L27,38.4l4.2,3.2l1.3,5l-0.8-0.4l-1.4-0.3
	L30,46.2l-10.9-0.4l-0.7,2.2l-1,0.2l0.1-2l0.9-1.4l1-2.5l-0.3-1.3l3.4-2.5l0.8-10.2L24.1,27.3z"/>
<path id="path647" class="st0" d="M11,2.7c0.1-0.3,2.8-2.5,2.8-2.5l16.9,0.3l0.5,1.2l-4,0.7l0.1,1.9L32,3.9L33.3,2l2.1,14.1l2.1,2.4
	l-3.5,2.3l1.1,15l4.7,10.8l-0.5,4.3c0,0-1.7-0.2-1.6-0.6s0.1-1,0.1-1l-3.1-0.6l-1.1-1.2L32,40.8l-4.2-3.3l0-8.5l-3.1-2.8l-2.3,1.9
	l-0.9,10.2l-2.3,1.8c0,0-0.3-3.4-0.3-3.7c0.1-0.3,0.1-4.5,0.1-4.7c0-0.2-0.8-4.1-0.8-4.1l-2.2-4.5l-3.1-3.9l-1.5-2.4L11,2.7z"/>
</svg>
