<?xml version="1.0" encoding="utf-8"?>
<!-- Generator: Adobe Illustrator 27.4.1, SVG Export Plug-In . SVG Version: 6.00 Build 0)  -->
<svg version="1.1"
	 id="svg250" xmlns:inkscape="http://www.inkscape.org/namespaces/inkscape" xmlns:sodipodi="http://sodipodi.sourceforge.net/DTD/sodipodi-0.dtd" xmlns:svg="http://www.w3.org/2000/svg" inkscape:version="1.2.2 (732a01da63, 2022-12-09)"
	 xmlns="http://www.w3.org/2000/svg" xmlns:xlink="http://www.w3.org/1999/xlink" x="0px" y="0px" viewBox="0 0 52.6 51.4"
	 style="enable-background:new 0 0 52.6 51.4;" xml:space="preserve">
<style type="text/css">
	.st0{fill:#FFFFFF;stroke:#FFFFFF;stroke-width:4.411040e-02;}
</style>
<sodipodi:namedview  bordercolor="#000000" borderopacity="0.25" id="namedview252" inkscape:current-layer="svg250" inkscape:cx="-588.47744" inkscape:cy="151.51768" inkscape:deskcolor="#d1d1d1" inkscape:pagecheckerboard="0" inkscape:pageopacity="0.0" inkscape:showpageshadow="2" inkscape:window-height="1377" inkscape:window-maximized="1" inkscape:window-width="5120" inkscape:window-x="-8" inkscape:window-y="-8" inkscape:zoom="1.3925768" pagecolor="#ffffff" showgrid="false">
	</sodipodi:namedview>
<path id="path400" class="st0" d="M6.3,2.9L11,2.8l1.3,5.3l16.7,0.3l6.6-6.8l13.6-0.1l1.2,1L50.5,29l-1.5,3l-0.1,4.4l-4.1-3.7
	l0.4-29.6h-2.5l0.2,28.5L37,37.5l-3.9,0.8l-2.5-4.6l-19.1-0.8L10.3,37L7,36.8l-2.7-5.5L4.1,7.2L6.3,2.9z"/>
<path id="path402" class="st0" d="M10.5,37.5l1.1,7.4l2.1,5.2l-5.5-0.6l-0.9-1.2L7.2,37.8L10.5,37.5z"/>
<path id="path404" class="st0" d="M33.2,39.2l-0.3,9.9l0.8,1.2l4.5,1.2V38.4L33.2,39.2z"/>
<path id="path406" class="st0" d="M39,37.9l4.1-4.8l5.3,4.9l0.2,9.5L45,48.8l-3.3,0.8h-1.9l-1.3-0.4l-0.1-10.4L39,37.9z"/>
</svg>
