<?xml version="1.0" encoding="UTF-8" standalone="no"?>
<!-- Created with Inkscape (http://www.inkscape.org/) -->

<svg
   width="50mm"
   height="15mm"
   viewBox="0 0 50 15"
   version="1.1"
   id="svg4028"
   xml:space="preserve"
   inkscape:version="1.2.1 (9c6d41e410, 2022-07-14)"
   sodipodi:docname="railgun.svg"
   xmlns:inkscape="http://www.inkscape.org/namespaces/inkscape"
   xmlns:sodipodi="http://sodipodi.sourceforge.net/DTD/sodipodi-0.dtd"
   xmlns="http://www.w3.org/2000/svg"
   xmlns:svg="http://www.w3.org/2000/svg"><sodipodi:namedview
     id="namedview4030"
     pagecolor="#ffffff"
     bordercolor="#000000"
     borderopacity="0.25"
     inkscape:showpageshadow="2"
     inkscape:pageopacity="0.0"
     inkscape:pagecheckerboard="true"
     inkscape:deskcolor="#d1d1d1"
     inkscape:document-units="mm"
     showgrid="false"
     showborder="false"
     inkscape:zoom="2.587745"
     inkscape:cx="122.30726"
     inkscape:cy="41.155524"
     inkscape:window-width="1350"
     inkscape:window-height="1230"
     inkscape:window-x="2178"
     inkscape:window-y="102"
     inkscape:window-maximized="0"
     inkscape:current-layer="layer10" /><defs
     id="defs4025" /><g
     inkscape:groupmode="layer"
     id="layer10"
     inkscape:label="Layer 4"><path
       style="fill:#000000;stroke:none;stroke-width:0.195877"
       d="M -0.37786167,6.615397 V 7.1081457 L 13.326293,3.9052824 13.170563,10.064634 4.6054672,8.3400142 v 0.246376 L 15.817957,10.803757 V 10.55738 C 14.007139,10.340007 15.461492,8.0245083 16.156512,6.8840189 17.743079,4.2800666 19.294607,3.2295268 21.424201,2.427038 19.755254,4.7336908 18.104993,9.5558953 15.973686,10.55738 v 0.246377 l 2.647393,0.492748 v -0.246376 h -0.778645 c 2.414423,-3.3370117 3.91129,-8.8694658 7.474993,-8.8694658 -1.035442,1.4349812 -2.055001,2.9351032 -2.88488,4.6811071 -0.955865,2.0114221 -1.585165,4.4037157 -3.34428,4.4347347 v 0.246373 l 2.803121,0.246374 c 0.213038,-1.322882 1.029682,-2.6381486 1.572085,-3.6956105 1.503565,-2.9316541 3.416383,-6.689746 6.058639,-6.4057258 -1.621918,1.6304298 -2.833024,3.7751403 -3.994606,6.1593521 -0.910548,1.8688459 -1.70897,3.9118042 -3.324659,3.9419842 v 0.246375 c 5.591918,0 11.19458,1.724619 16.818735,1.724619 1.77827,0 4.818723,1.145467 5.450517,-2.217368 0.910234,0.212719 2.475779,0.235189 3.253489,-0.641212 C 48.783456,9.7094847 48.926882,5.2156964 47.95233,3.8075701 47.267902,2.8186 45.350099,3.1661603 44.472099,3.1661603 44.382558,1.8949676 43.924088,0.614094 43.072873,0.29407899 41.947731,-0.12889629 40.618894,0.31154794 39.488769,0.43399488 37.575482,0.6412695 35.636656,0.45670634 33.726795,0.74425411 28.191407,1.5776381 22.613037,1.8758005 17.06379,2.7152458 11.208689,3.6009365 5.4415128,5.4264696 -0.37786167,6.615397 M 44.004911,2.427038 c -2.655803,-0.4646129 -2.396514,10.60463 0.155729,9.11584 -0.67929,3.085146 -4.743662,2.102335 -6.38489,1.794957 -0.651104,-0.121934 -1.307034,0.02521 -1.852398,-0.669914 C 34.157698,10.417416 34.71801,6.1576828 34.972627,3.1661603 H 34.816898 C 34.100077,7.0861437 34.40048,9.4688011 35.595543,13.021121 33.292155,12.26818 33.023835,2.7223171 35.284085,1.6879157 l -0.311458,1.4782446 c 0.352259,-0.755605 0.668234,-1.673422 1.248168,-2.0344834 0.64067,-0.39873196 1.502008,-0.18246411 2.177871,-0.18288254 1.627056,-0.00102 4.840836,-1.46425074 5.606245,1.47824424 M 33.882524,1.1951674 V 1.4415412 C 30.555218,3.6697979 29.390209,13.628335 25.161699,12.035627 27.72967,7.5890429 29.631433,1.1951674 33.882524,1.1951674 m 8.409368,0 c -1.405922,3.3249407 -1.433019,8.7833089 0,12.0723306 h 0.155729 C 41.736407,10.560758 41.365148,8.0920889 41.605905,5.137153 41.715072,3.7980844 42.36088,2.5187134 42.291892,1.1951674 M 17.06379,3.1661603 14.104937,7.6008924 C 14.123159,4.1795461 15.120446,3.5546913 17.06379,3.1661603 M 45.717931,3.4125339 C 45.396505,6.3674946 45.059195,8.1618869 45.87366,11.050129 43.020702,11.604595 42.852205,3.6687383 45.717931,3.4125339 M 14.416396,3.6589076 C 13.914948,5.8940378 13.760621,7.7030393 13.949209,10.064634 12.630184,8.9413417 12.994433,4.2796978 14.416396,3.6589076 m 32.703095,0 C 46.601536,6.1784521 46.435841,8.4020026 47.27522,10.803757 45.368164,10.189546 45.278152,4.4967531 47.119491,3.6589076 M 33.882524,3.9052824 c -0.296041,1.8101845 0.07366,4.0244219 -0.277509,5.6666032 -0.672282,3.1448414 -2.70548,3.2941444 -4.394362,2.9564904 1.107079,-2.382315 3.016628,-7.3916167 4.671871,-8.6230936 m 12.146865,0 -0.155729,0.2463731 0.155729,-0.2463731 m 1.868747,0.2463731 c -0.02305,1.0230929 1.092751,7.0817025 -0.778645,5.9129785 0.663406,-2.0882926 0.38979,-3.7266791 0.155729,-5.9129785 h 0.622916 M 43.537724,4.6444042 43.381995,9.5718856 H 43.226266 C 43.040015,7.9840057 42.849246,5.9749474 43.537724,4.6444042 M 45.717931,4.8907775 45.562202,5.137153 45.717931,4.8907775 M 2.3733555,7.6830099 2.477163,7.765142 2.3733555,7.6830099 m 0.674821,0.1642636 V 8.0936473 H 3.5153627 L 3.0481765,7.8472735 M 3.8268213,8.0936473 V 8.3400142 H 4.4497375 L 3.8268213,8.0936415 M 42.86295,8.7506454 42.810937,8.9148887 42.86295,8.7506454 m -8.201781,4.2704756 h -0.934374 c 0.375463,-0.600485 0.600647,-0.704555 0.934374,0 z"
       id="path4328" /><path
       style="fill:#000000;stroke-width:0.195877"
       d="M 4.6112096,8.5757023 -0.39411993,7.0904057 -0.383524,6.5770743 3.0473342,7.8477815 4.6856352,8.3695295 Z"
       id="path4336" /><path
       style="fill:#ffffff;stroke-width:0.107047"
       d="M 8.6112182,9.0898299 C 4.8099222,8.3079902 3.7313542,8.0228422 1.5626622,7.2263648 L 0.72688584,6.9194182 6.6690563,5.5362889 C 9.9372503,4.7755689 12.760488,4.1175514 12.942917,4.07403 l 0.331688,-0.079132 -0.06877,1.2658424 c -0.03782,0.696212 -0.05945,2.0383642 -0.04806,2.9825596 l 0.02071,1.7167176 -0.24107,-0.014909 c -0.13259,-0.00826 -2.079374,-0.3930839 -4.3261877,-0.855203 z"
       id="path4342" /><path
       style="fill:#ffffff;stroke-width:0.0535237"
       d="M 13.667093,9.6402369 C 13.489847,9.3498196 13.363455,9.0061167 13.277172,8.579911 c -0.03411,-0.1685123 -0.03674,-0.61553 -0.0092,-1.5694928 0.03833,-1.3281626 0.03913,-1.3359696 0.186334,-1.8263791 0.08131,-0.2708824 0.221695,-0.6224507 0.31196,-0.7812613 0.147956,-0.2603071 0.497619,-0.6700686 0.571795,-0.6700686 0.01612,0 -0.02651,0.280229 -0.09474,0.6227308 -0.06822,0.3425014 -0.175709,1.0014182 -0.238852,1.4642583 -0.106706,0.7821834 -0.114868,0.95666 -0.115722,2.4741008 -4.98e-4,0.8979167 -0.01128,1.6325716 -0.02397,1.6325648 -0.01269,-3.9e-6 -0.101633,-0.128771 -0.197677,-0.286127 z"
       id="path4344" /><path
       style="fill:#ffffff;stroke-width:0.0535237"
       d="m 39.611286,13.621487 c -0.245745,-0.0309 -0.772344,-0.117231 -1.170217,-0.191842 -0.397872,-0.07461 -0.963596,-0.165444 -1.257162,-0.201827 -0.753068,-0.09334 -1.055561,-0.280812 -1.453934,-0.901072 C 34.766986,10.82738 34.522226,8.6384948 34.866857,4.6078883 L 34.98486,3.2277925 35.201208,2.722876 c 0.118991,-0.2777043 0.34364,-0.7057727 0.499221,-0.9512629 0.470402,-0.7422493 0.875893,-0.893948 2.205277,-0.82502112 0.679318,0.0352207 0.952508,0.0151666 1.939621,-0.14239461 2.11698,-0.33790599 3.092831,-0.15708481 3.682304,0.68231633 0.177932,0.253376 0.424088,0.7369818 0.424088,0.8331792 0,0.026329 -0.113524,0.064158 -0.252276,0.084061 -0.504616,0.072392 -0.897855,0.5863724 -1.196558,1.563953 -0.252417,0.8260973 -0.342008,1.4991553 -0.368839,2.7709257 -0.01779,0.8430944 -0.0068,1.2401227 0.04902,1.7680538 0.214671,2.0311016 0.762757,3.1835096 1.51408,3.1835096 0.135205,0 0.287344,-0.02084 0.338085,-0.04633 l 0.09226,-0.04633 -0.084,0.258388 c -0.222077,0.683098 -0.830609,1.306156 -1.523878,1.560253 -0.741477,0.271768 -1.790614,0.345825 -2.908322,0.205289 z m 2.851069,-0.350992 c 0,-0.01202 -0.09334,-0.413495 -0.207414,-0.892019 -0.534413,-2.241719 -0.714057,-3.8268021 -0.674299,-5.9496725 0.02635,-1.4068591 0.06395,-1.6989272 0.381674,-2.9653829 0.106835,-0.4258134 0.22419,-0.9408283 0.260803,-1.144478 0.08045,-0.4474963 0.106305,-1.0308327 0.04775,-1.0771559 -0.06468,-0.051162 -0.541136,1.4954323 -0.695054,2.2561423 -0.627782,3.1027054 -0.419645,6.861362 0.516942,9.335176 0.134266,0.354638 0.19622,0.459361 0.271758,0.459361 0.05381,0 0.09784,-0.01 0.09784,-0.02198 z"
       id="path4346" /><path
       style="fill:#ffffff;stroke-width:0.0535237"
       d="M 35.228298,12.75348 C 34.672824,12.278958 34.202713,11.107146 33.94362,9.5512623 33.816814,8.7897823 33.80898,8.6698145 33.792244,7.2334654 c -0.01575,-1.3515547 -0.0079,-1.5903467 0.07321,-2.2164191 0.204707,-1.5809586 0.615738,-2.6660023 1.185951,-3.1306845 0.07824,-0.063758 0.14956,-0.1043657 0.158489,-0.090235 0.009,0.014131 -0.04489,0.3193129 -0.119613,0.6781866 -0.103149,0.4954307 -0.153821,0.6524968 -0.210494,0.6524968 -0.08353,0 -0.149029,0.3002763 -0.286323,1.3127844 -0.19702,1.4529539 -0.222517,3.0932472 -0.0675,4.3422827 0.108421,0.8735809 0.378969,2.0842557 0.705377,3.1564697 0.162158,0.532673 0.294833,0.979525 0.294833,0.993005 0,0.05675 -0.07716,0.01077 -0.297872,-0.177877 z"
       id="path4348" /><path
       style="fill:#ffffff;stroke-width:0.0535237"
       d="m 39.611286,13.621487 c -0.245745,-0.0309 -0.772344,-0.116504 -1.170217,-0.190246 -0.397872,-0.07374 -0.964043,-0.164802 -1.258157,-0.202367 -0.755076,-0.09645 -1.055156,-0.28276 -1.452939,-0.902108 -0.703114,-1.094746 -1.013211,-2.5298288 -1.011559,-4.6813453 7.66e-4,-1.0620767 0.028,-1.5765809 0.176052,-3.3340304 l 0.09588,-1.1380452 0.321103,-0.6781269 c 0.393131,-0.830241 0.669642,-1.1967696 1.054337,-1.3975745 0.269508,-0.14067908 0.353766,-0.14947038 1.309323,-0.136616 0.830161,0.0111708 1.236287,-0.0192897 2.170216,-0.16273487 2.13174,-0.32742971 3.095556,-0.14728862 3.682304,0.68823297 0.185453,0.2640851 0.424089,0.7381773 0.424089,0.8425293 0,0.031471 -0.07588,0.05722 -0.168617,0.05722 -0.677882,0 -1.276444,1.058769 -1.541423,2.7265521 -0.08471,0.5331704 -0.09611,0.7715564 -0.09492,1.9860041 0.0012,1.2801845 0.0095,1.4282215 0.114771,2.0446384 0.211513,1.2391443 0.574086,2.1147263 0.999225,2.4130393 0.183141,0.128503 0.600499,0.174727 0.777074,0.08606 l 0.08967,-0.04503 -0.084,0.258389 c -0.222075,0.683097 -0.830608,1.306156 -1.523877,1.560254 -0.741477,0.271766 -1.790614,0.345824 -2.908322,0.205288 z m 2.851069,-0.350992 c 0,-0.01202 -0.09334,-0.413495 -0.207414,-0.892019 -0.488655,-2.049776 -0.686205,-3.6278666 -0.686205,-5.4816214 0,-1.650456 0.04917,-2.0305364 0.506817,-3.9186213 0.175916,-0.7257425 0.276311,-1.4899587 0.21805,-1.6598193 -0.04409,-0.1285479 -0.174434,0.1763787 -0.406044,0.9499004 -0.513433,1.7147573 -0.727959,3.6388244 -0.651174,5.8403394 0.05108,1.4648325 0.287859,2.9612262 0.649783,4.1066582 0.260669,0.824975 0.373047,1.076899 0.480442,1.077034 0.05266,6.7e-5 0.09574,-0.0098 0.09574,-0.02185 z"
       id="path4350" /><path
       style="fill:#ffffff;stroke-width:0.0535237"
       d="m 43.171855,8.7987084 c -0.135838,-1.4760725 -0.12485,-2.3141694 0.04067,-3.1019097 0.06405,-0.3048499 0.267511,-0.9202248 0.289422,-0.8753878 0.0076,0.015747 -0.117974,4.0834192 -0.143682,4.6505187 -0.0012,0.027759 -0.02873,0.050487 -0.06104,0.050487 -0.04221,0 -0.07752,-0.2039213 -0.125359,-0.7237134 z"
       id="path4352" /><path
       style="fill:#ffffff;stroke-width:0.0535237"
       d="m 45.278786,10.995575 c -0.725601,-0.190992 -1.321215,-1.1811682 -1.524204,-2.5339294 -0.08967,-0.5975645 -0.08901,-1.6080553 0.0015,-2.2043518 0.166506,-1.0977223 0.600281,-2.0321836 1.136872,-2.4491054 0.253662,-0.1970919 0.736165,-0.409413 0.775773,-0.3413708 0.0097,0.016637 -0.03686,0.5149839 -0.10345,1.1074202 -0.182695,1.6254952 -0.223643,2.3192126 -0.196697,3.3324507 0.02593,0.9753106 0.135622,1.8099468 0.344494,2.6213435 0.146767,0.570142 0.109209,0.61058 -0.434233,0.467543 z"
       id="path4354" /><path
       style="fill:#ffffff;stroke-width:0.0378468"
       d="m 47.302329,10.132045 c -0.05792,-0.02586 -0.11573,-0.06291 -0.128461,-0.08231 -0.01272,-0.01947 0.01767,-0.177648 0.06753,-0.3516791 0.334253,-1.1662751 0.38175,-2.4253632 0.167879,-4.4504483 -0.05882,-0.5570019 -0.106954,-1.0229251 -0.106954,-1.0353858 0,-0.012433 0.127804,-0.022646 0.284008,-0.022646 h 0.284008 l 0.01945,0.2261179 c 0.0107,0.1243584 0.04485,0.4724706 0.07589,0.7735661 0.193383,1.8758178 0.251248,2.8666343 0.208836,3.5758576 -0.02865,0.4790137 -0.110044,0.900839 -0.214293,1.1105143 -0.135286,0.2720953 -0.395627,0.3735663 -0.657901,0.2564253 z"
       id="path4356" /><path
       style="fill:#ffffff;stroke-width:0.0378468"
       d="m 47.121789,10.7144 c -0.04138,-0.01989 -0.136156,-0.08484 -0.210627,-0.144146 -0.49132,-0.391221 -0.833401,-1.1444701 -1.01432,-2.23348 -0.06491,-0.3907657 -0.07615,-0.5625838 -0.07665,-1.1719563 -4.69e-4,-0.6173474 0.0099,-0.7767362 0.07685,-1.1768129 0.177689,-1.0619088 0.52946,-1.8179461 1.008528,-2.1675597 0.08794,-0.064181 0.164078,-0.1091359 0.169186,-0.099903 0.0051,0.00922 -0.0359,0.2589547 -0.09112,0.5549374 -0.446402,2.3927937 -0.399585,4.405963 0.142195,6.1145085 0.06434,0.202906 0.106683,0.367092 0.09409,0.36484 -0.0126,-0.0022 -0.05675,-0.02051 -0.09813,-0.04042 z"
       id="path4358" /><path
       style="fill:#ffffff;stroke-width:0.195877"
       d="m 40.249585,13.828682 c -0.245746,-0.03132 -1.193619,-0.08851 -2.106388,-0.127071 -2.39989,-0.101402 -3.301356,-0.202161 -7.638313,-0.853739 -1.369153,-0.205703 -2.910646,-0.428763 -3.425541,-0.495702 -0.514895,-0.06692 -0.857852,-0.125104 -0.762127,-0.129268 0.277877,-0.01202 0.818962,-0.25674 1.18766,-0.536995 0.461744,-0.35098 0.941211,-0.933767 1.425536,-1.7327298 C 29.44121,9.1105425 29.642463,8.7134041 30.547445,6.7622278 30.951028,5.8920861 31.426565,4.8923523 31.604194,4.5405933 32.261649,3.2386342 33.071102,2.1024772 33.650879,1.6678402 33.85529,1.514603 33.90529,1.44588 33.90701,1.3158126 l 0.0021,-0.1616182 -0.436171,0.040528 c -0.811579,0.075385 -1.453635,0.340271 -2.223452,0.9172708 -1.374389,1.030142 -2.382801,2.5499424 -4.447902,6.7035458 -0.773114,1.554985 -1.478222,2.910274 -1.591481,3.058981 -0.08716,0.114434 -0.08482,0.187553 0.0075,0.232769 0.04095,0.0201 -0.107451,0.02205 -0.329787,0.0043 -0.222343,-0.01761 -0.916492,-0.05189 -1.542557,-0.07604 -0.838696,-0.03234 -1.138301,-0.06508 -1.138301,-0.124337 0,-0.04952 0.102164,-0.09572 0.265959,-0.120256 0.363595,-0.05442 0.765891,-0.263182 1.092604,-0.566941 0.385791,-0.35866 0.953493,-1.2363349 1.416137,-2.1893445 1.575273,-3.2449322 2.506683,-4.8585656 3.587336,-6.2149296 0.234222,-0.2939786 0.545226,-0.6556861 0.691119,-0.8037952 0.145895,-0.1481092 0.265431,-0.2962358 0.265636,-0.329171 6.47e-4,-0.1084291 -0.941332,0.00882 -1.317663,0.1640156 -1.446076,0.5963247 -2.616483,2.0940823 -4.600755,5.8875451 -0.522937,0.9997356 -1.054522,2.0449135 -1.181299,2.3226166 -0.222339,0.487035 -0.51695,1.356538 -0.51695,1.525709 0,0.04514 -0.01897,0.100618 -0.04213,0.12328 -0.07467,0.07301 -2.766379,-0.186557 -2.766379,-0.266767 0,-0.04016 0.178411,-0.121044 0.396471,-0.179721 0.925278,-0.249038 1.44412,-0.927296 2.410583,-3.1512535 0.826496,-1.9018764 1.649639,-3.3693774 2.862389,-5.1030731 0.298835,-0.4272019 0.543336,-0.7956319 0.543336,-0.8187328 0,-0.023101 -0.188382,-0.021979 -0.418627,0.00249 -1.338057,0.142233 -2.559339,1.1797457 -3.828207,3.2521732 -0.228162,0.3726524 -0.767923,1.3288918 -1.199473,2.1249779 -0.431549,0.7960856 -1.071259,1.9094268 -1.421578,2.4740903 l -0.636942,1.026666 h 0.390704 c 0.321102,0 0.390703,0.01823 0.390703,0.102274 0,0.07078 -0.02949,0.09228 -0.09574,0.06987 -0.05262,-0.01778 -0.637331,-0.130404 -1.299323,-0.250239 -0.928801,-0.168138 -1.200852,-0.238407 -1.191492,-0.307717 0.0067,-0.04939 0.165321,-0.194784 0.352556,-0.323079 0.961171,-0.658593 1.692468,-1.7356616 3.47254,-5.1144255 0.429165,-0.8145991 0.966668,-1.7829295 1.194452,-2.1518445 0.227784,-0.3689149 0.409096,-0.6787542 0.402916,-0.6885319 -0.0062,-0.00978 -0.25901,0.085867 -0.561845,0.2125468 -2.032791,0.8503356 -3.299268,1.9801694 -4.678276,4.1735217 -0.848247,1.3491591 -1.199611,2.1285665 -1.244666,2.7609461 -0.03833,0.5379293 0.139408,0.8187933 0.621694,0.9824283 0.202618,0.06875 0.302895,0.197704 0.153738,0.197704 -0.03574,0 -2.520317,-0.48553 -5.521287,-1.0789593 L 4.73887,8.5763159 2.2069496,7.827145 C 0.81439301,7.4151029 -0.34176092,7.0545922 -0.36228133,7.0260097 -0.38280283,6.9974375 -0.38820892,6.9023142 -0.37430447,6.8146356 -0.34959866,6.658908 -0.31232912,6.647015 1.2374775,6.2998103 2.1100488,6.104322 3.7335458,5.7209659 4.8452509,5.4478914 5.9569528,5.1748168 7.6803607,4.7512836 8.6750439,4.5067047 14.543926,3.0636307 17.20947,2.6103644 23.909124,1.9161945 c 5.308409,-0.5500188 7.128833,-0.7567906 9.170232,-1.04159458 1.611415,-0.22481487 1.747019,-0.23494023 4.127668,-0.30820807 1.170216,-0.0360153 2.30958,-0.094307 2.531921,-0.12953411 0.222342,-0.0352295 0.701065,-0.11389914 1.063833,-0.17482272 0.766315,-0.12869492 1.889493,-0.10104728 2.234046,0.0549932 0.758982,0.34372535 1.196591,1.18236328 1.400581,2.68410168 l 0.02408,0.1772697 1.160009,-0.00657 c 0.972374,-0.00551 1.214676,0.012971 1.497928,0.1142287 0.616303,0.2203056 0.896406,0.5354537 1.13633,1.2785093 0.554137,1.7161846 0.372976,4.7585453 -0.358074,6.0132734 -0.219501,0.37674 -0.559009,0.652915 -1.042393,0.847952 -0.334188,0.134841 -0.475546,0.149905 -1.402449,0.14945 l -1.030807,-4.7e-4 -0.02531,0.182353 c -0.03824,0.275439 -0.326089,0.942572 -0.513192,1.189392 -0.230311,0.303815 -0.701542,0.647258 -1.080742,0.787661 -0.36995,0.136975 -1.80369,0.190059 -2.553198,0.09453 z m 1.957452,-0.228162 c 0.735932,-0.214665 1.205031,-0.533616 1.555018,-1.057282 0.220494,-0.329912 0.446296,-0.886871 0.393453,-0.970471 -0.01523,-0.02411 -0.119979,-0.01285 -0.232766,0.02492 C 43.544077,11.724636 43.119029,11.4702 42.845871,10.953079 42.655215,10.592139 42.400181,9.717591 42.291241,9.051163 42.150321,8.1891 42.12644,6.4388836 42.242889,5.5073749 42.479141,3.6175101 43.006996,2.5659324 43.767892,2.4693037 L 44.032531,2.4356966 43.930648,2.1176165 C 43.804468,1.7236681 43.467433,1.2358135 43.165166,1.0095844 42.531831,0.53557335 41.590721,0.45827108 39.845327,0.736894 38.861446,0.89395394 38.581974,0.91461124 37.89996,0.88068104 36.361757,0.8041556 35.94272,1.0304788 35.360907,2.2520321 c -0.143147,0.3005492 -0.260269,0.5196 -0.260269,0.4867792 0,-0.03282 0.04783,-0.2821596 0.106294,-0.5540867 0.05846,-0.271927 0.0974,-0.5084917 0.08652,-0.5256995 -0.04896,-0.077445 -0.494356,0.3530981 -0.694379,0.6712101 -0.301939,0.4802005 -0.621799,1.4999348 -0.746106,2.378646 -0.01273,0.090089 -0.02059,0.067815 -0.02375,-0.067318 -0.0026,-0.1110774 0.01574,-0.3184129 0.04072,-0.4607371 0.02498,-0.1423242 0.03531,-0.274759 0.02296,-0.2942991 -0.07117,-0.112606 -0.819557,0.7692727 -1.293668,1.5244317 -0.713169,1.1359271 -1.265594,2.2513957 -2.535957,5.1206443 l -0.879014,1.985349 0.117765,0.05226 c 0.06478,0.02874 0.395425,0.07103 0.734787,0.09398 0.95757,0.06477 1.611595,-0.107741 2.251033,-0.593729 0.718953,-0.546423 1.282716,-1.753091 1.419387,-3.0380267 l 0.05581,-0.5246568 0.07091,0.5919814 c 0.192992,1.6109631 0.649557,2.9716341 1.196065,3.5645591 0.194144,0.210634 0.517702,0.415561 0.557276,0.352954 0.0099,-0.01574 -0.104403,-0.421933 -0.254015,-0.902808 -0.149611,-0.480872 -0.272734,-0.91607 -0.273601,-0.967106 -9.41e-4,-0.05103 0.09127,0.130741 0.204774,0.403935 0.259886,0.625578 0.65894,1.227042 0.957664,1.443406 0.127075,0.09203 0.380663,0.196193 0.565159,0.2321 0.500573,0.09744 2.411658,0.409616 2.892545,0.472478 0.634001,0.08288 2.102728,0.02606 2.527228,-0.09776 z m -7.591006,-0.721675 c -0.08616,-0.194618 -0.282902,-0.393257 -0.390043,-0.3938 -0.09049,-4.69e-4 -0.4549,0.334033 -0.505762,0.46423 -0.02033,0.05202 0.11738,0.07391 0.465418,0.07391 H 34.67993 Z M 45.742047,11.096884 45.894068,11.0571 45.75195,10.458498 C 45.470276,9.2720993 45.420882,8.8176087 45.423405,7.4354386 c 0.002,-1.1261287 0.01712,-1.3774189 0.157188,-2.6226889 0.08519,-0.7574736 0.145519,-1.3920868 0.134037,-1.4102508 -0.04872,-0.077089 -0.604707,0.135694 -0.846385,0.3239231 -0.520325,0.4052555 -0.978201,1.3851421 -1.151164,2.463556 -0.09781,0.6098387 -0.100012,1.7249963 -0.0045,2.3226164 0.253005,1.5844816 0.852771,2.4396706 1.834965,2.6164266 0.0234,0.0042 0.110967,-0.01021 0.194579,-0.03214 z m 1.457127,-0.601794 c -0.05954,-0.168554 -0.09842,-0.322018 -0.0864,-0.341037 0.01203,-0.01907 0.102542,-2e-4 0.201158,0.04181 0.406702,0.173257 0.70981,-0.114206 0.834201,-0.7911717 0.105808,-0.5758236 0.05955,-2.2539892 -0.107159,-3.8879362 -0.07178,-0.7035176 -0.130801,-1.3018445 -0.131153,-1.3296148 -4.67e-4,-0.027764 -0.144261,-0.050493 -0.319792,-0.050493 -0.373424,0 -0.35373,-0.078294 -0.237082,0.9425107 0.243949,2.1348922 0.198685,3.3547038 -0.173928,4.6873714 l -0.0916,0.3276136 -0.07884,-0.2936944 c -0.377559,-1.4064554 -0.380864,-3.3097985 -0.0093,-5.3539331 0.08008,-0.4405246 0.139368,-0.8107916 0.131769,-0.8228165 -0.0075,-0.012017 -0.12765,0.063857 -0.266782,0.1686297 -0.674683,0.5080667 -1.081275,1.7767291 -1.081275,3.3738223 0,1.1616292 0.217897,2.1809191 0.615962,2.88137 0.200661,0.353091 0.632373,0.754032 0.811895,0.754032 h 0.0966 z M 13.332003,9.0319937 c 0.08102,0.3118758 0.474005,1.0290073 0.563892,1.0290073 0.0319,0 0.03902,-0.3956049 0.02347,-1.3028427 -0.03048,-1.7769837 0.07261,-2.9418766 0.398529,-4.5038231 0.05989,-0.2870292 0.10238,-0.5528051 0.09441,-0.5906142 -0.02675,-0.1269482 -0.456163,0.2769482 -0.641868,0.6037233 -0.100716,0.1772138 -0.246025,0.5005144 -0.322917,0.7184358 L 13.30771,5.382105 13.3329,4.6159689 13.358089,3.8498325 13.239976,3.8854068 C 13.175017,3.904965 10.287819,4.5806897 6.8239817,5.3869989 3.3601443,6.19331 0.51249566,6.8707647 0.49587407,6.8924538 0.45936134,6.9400879 2.8182124,7.8134142 3.8878052,8.1482571 4.3705491,8.2993857 6.2271824,8.7045387 8.9090919,9.2440068 L 13.16442,10.09997 13.20698,9.4072401 13.24954,8.7145088 Z m 30.084298,0.00223 c 0.01398,-0.3054732 0.04443,-1.2218985 0.06767,-2.0364974 0.02324,-0.814599 0.05343,-1.6925581 0.06706,-1.9510213 0.02432,-0.4608739 0.02321,-0.4676658 -0.05726,-0.3524572 -0.115391,0.1652173 -0.296205,0.7735579 -0.37863,1.273892 -0.09496,0.5764472 -0.09294,1.830009 0.0045,2.8304559 0.07241,0.7429148 0.08301,0.7910371 0.174136,0.7910371 0.09112,0 0.09858,-0.033878 0.122451,-0.5554091 z M 15.646458,5.3535949 c 0.799459,-1.2005511 1.445938,-2.19488 1.436623,-2.2096186 -0.03614,-0.05719 -1.126847,0.2715796 -1.429293,0.4308333 -1.030782,0.5427603 -1.458333,1.4918142 -1.555273,3.4523146 -0.02685,0.543093 -0.0226,0.6194941 0.03168,0.5683645 0.03449,-0.032487 0.716806,-1.0413426 1.516263,-2.2418938 z"
       id="path4360" /><path
       style="fill:#ffffff;stroke-width:0.0267617"
       d="M 34.945336,10.785917 C 34.809516,10.243178 34.733325,9.872848 34.643836,9.3204548 34.497357,8.4162515 34.452037,7.8474289 34.45208,6.9136851 c 4.5e-5,-0.9925172 0.06818,-1.8129342 0.245188,-2.9523042 0.123404,-0.7943356 0.120757,-0.7840798 0.202406,-0.7840798 0.06076,0 0.06509,0.00742 0.05411,0.092566 -0.02573,0.1995907 -0.161633,1.8090969 -0.202509,2.3983548 -0.15275,2.2019172 -0.07594,3.7829442 0.24415,5.0254901 0.05344,0.207415 0.101592,0.392811 0.10703,0.411985 0.0054,0.01927 -0.0076,0.03487 -0.02924,0.03487 -0.02988,0 -0.06007,-0.08373 -0.127872,-0.354644 z"
       id="path4362" /><path
       style="fill:#ffffff;stroke-width:0.0267617"
       d="m 42.276871,13.18307 c -0.04435,-0.08039 -0.121079,-0.278543 -0.245707,-0.634593 -0.372774,-1.064989 -0.62322,-2.358768 -0.742159,-3.8339228 -0.04673,-0.5796253 -0.05355,-2.1555515 -0.01181,-2.7265494 0.10211,-1.3964291 0.307548,-2.5855347 0.638422,-3.6952767 0.12332,-0.4136162 0.325076,-0.9657756 0.353108,-0.9663775 0.03339,-7.169e-4 -0.0056,0.5749066 -0.06105,0.9001771 -0.02918,0.1713356 -0.148373,0.6939238 -0.264859,1.1613084 -0.323548,1.2981874 -0.358955,1.5456692 -0.408233,2.8534416 -0.07497,1.9896177 0.185887,4.1896023 0.775203,6.5378563 l 0.116155,0.462841 h -0.05828 c -0.03206,0 -0.07291,-0.02651 -0.09079,-0.05891 z"
       id="path4364" /></g><g
     inkscape:groupmode="layer"
     id="layer11"
     inkscape:label="Layer 5" /></svg>
