<?xml version="1.0" encoding="utf-8"?>
<!-- Generator: Adobe Illustrator 27.4.1, SVG Export Plug-In . SVG Version: 6.00 Build 0)  -->
<svg version="1.1"
	 id="svg1652" xmlns:sodipodi="http://sodipodi.sourceforge.net/DTD/sodipodi-0.dtd" xmlns:inkscape="http://www.inkscape.org/namespaces/inkscape" xmlns:svg="http://www.w3.org/2000/svg" inkscape:version="1.2.1 (9c6d41e410, 2022-07-14)" sodipodi:docname="thrusterR.svg"
	 xmlns="http://www.w3.org/2000/svg" xmlns:xlink="http://www.w3.org/1999/xlink" x="0px" y="0px" viewBox="0 0 152 114.7"
	 style="enable-background:new 0 0 152 114.7;" xml:space="preserve">
<style type="text/css">
	.st0{fill:#FFFFFF;stroke:#000000;stroke-width:1.3507;stroke-miterlimit:15.1181;}
</style>
<sodipodi:namedview  bordercolor="#000000" borderopacity="0.25" id="namedview1654" inkscape:current-layer="layer5" inkscape:cx="527.37657" inkscape:cy="31.150741" inkscape:deskcolor="#d1d1d1" inkscape:document-units="mm" inkscape:pagecheckerboard="true" inkscape:pageopacity="0.0" inkscape:showpageshadow="false" inkscape:window-height="991" inkscape:window-maximized="1" inkscape:window-width="1920" inkscape:window-x="-9" inkscape:window-y="-9" inkscape:zoom="0.91490602" pagecolor="#ffffff" showborder="false" showgrid="false">
	</sodipodi:namedview>
<g id="layer1" transform="translate(-139.23155,-103.84832)" inkscape:groupmode="layer" inkscape:label="Layer 1">
</g>
<g id="layer5" transform="translate(-139.23155,-103.84832)" inkscape:groupmode="layer" inkscape:label="Layer 2">
	<path id="path1649" class="st0" d="M149.7,168.6l26.2,19.7l2.7,2l-4-11.4l-3.6-9.2l-0.1-10.1l2.4-13.4l4.1-12.2c0,0,3.6-5.2,5-6.8
		c1.4-1.7,12.5-11.6,12.5-11.6l11.9-5l-40.2,4.5l-2.6,1l-3.7,1.7l-4.2,4.7l-9.4,11.8l-2,10.6l0.7,14.1l3.1,7.5L149.7,168.6z"/>
	<path id="path1651" class="st0" d="M251,205.5l-13.8,6.1l-8.2,1.8l-9-1.3l-4.7-2.1l-10.4-9.1l-5.9-16.5l-1-17.9
		c0,0,0.6-9.8,1.1-10.4c0.5-0.6,4.7-12.9,4.7-12.9l8.2-12.7l15.1-13.8l14-3.7l10.3,1.3l14.3,9.7l10,26.2l-1.6,20.1
		c0,0-4.9,16.9-5.7,18.2c-0.8,1.2-12.9,14.1-12.9,14.1l-4.3,2.8l1,2.6l0.7,0.3l5.7-4.4l7.8-9.1l4.4-6.3l5.9-16.2l1.7-19l-1.1-10.6
		l-3.7-10l-6-10.9l-6-7l-8.8-5.1l-8.6-3.2l-9.2,0.1l-14.6,4.2l-9,7.7l-13.3,15l-5.1,11.9l-3.7,23.8l4.8,26.3l5,6.9l5.4,6.1l8.9,6.6
		l7.2,1.6l14.7,0.3l8.4-3.2l9-4.8l-1.5-3.7L251,205.5z"/>
	<path id="path1653" class="st0" d="M181.2,192.8l15.7,10.4l-4.3-7.1l-4.8-23.5l-0.2-6.5l3.8-21.9l6.7-14l22.1-21.1l-9,1.5l-2.5,0.5
		l-8.2,4.7l-8.6,8.2l-10.9,15.8l-3.1,27.8L181.2,192.8z"/>
	<path id="path1655" class="st0" d="M221.5,196.8l12.1,0c0,0,8-2.4,8.8-3.1c0.8-0.7,9.6-9,10.5-10.1c0.9-1.1,6.9-15,6.9-15
		s1.7-8.8,1.7-9.9c0-1.1-0.6-11.9-1.3-12.8c-0.7-1-6.4-9.2-6.9-10c-0.5-0.8-17.4-9.3-17.4-9.3l7.9-2.6l6.2,0.6l5,2.6l6.7,8.5
		l4.8,11.9l0.9,11.6l-2.6,11l-3.4,9.6l-6,9.4l-6.9,7.6l-11.6,5.3l-10.6,2c0,0-6.4-4.1-7.1-4.8c-0.6-0.7-2.6-4.2-2.6-4.2L221.5,196.8
		z"/>
	<path id="path1657" class="st0" d="M225.1,203.9l-14.4-6.2l-5.2-8.8l-3.7-12.3l-1-14.4l4.5-14.1l13.8-17.3l7.1-8.4l13.7-3.7
		l15.2,7.2l-4.7-1.5l-7.4-0.6l-6.6,2.3l-7.3,2.8L218,139.9l-5.9,12l-2.5,21.2c0,0-0.4,7.5,0.4,8.1c0.8,0.6,7.2,14.7,7.2,14.7
		l5.4,5.6L225.1,203.9z"/>
	<path id="path1659" class="st0" d="M214.2,167.8c0,0,11.9,4.1,12.9,4.8c1,0.7,5.9,2,5.9,2l4.5,2.4l4.6-0.2c0,0,2.4-2.2,3.2-2.5
		c0.8-0.3,3.3-4.2,3.3-4.2l1.9-5.7l-0.5-5.6c0,0-2.1-2.9-2.5-3.3c-0.4-0.3-3.5-2.3-3.5-2.3l-3.9,0.3l-2.2-0.5l-17.7-5.5l-4.6,3.7
		l-1.6,2.8c0,0-0.9,5.4-0.9,6.5c0,1.1-0.1,6.7-0.1,6.7L214.2,167.8z"/>
</g>
</svg>
