<?xml version="1.0" encoding="utf-8"?>
<!-- Generator: Adobe Illustrator 27.7.0, SVG Export Plug-In . SVG Version: 6.00 Build 0)  -->
<svg version="1.1"
	 id="svg5" xmlns:svg="http://www.w3.org/2000/svg" xmlns:sodipodi="http://sodipodi.sourceforge.net/DTD/sodipodi-0.dtd" xmlns:inkscape="http://www.inkscape.org/namespaces/inkscape"
	 xmlns="http://www.w3.org/2000/svg" xmlns:xlink="http://www.w3.org/1999/xlink" x="0px" y="0px" viewBox="0 0 793.7 1122.5"
	 style="enable-background:new 0 0 793.7 1122.5;" xml:space="preserve">
<style type="text/css">
	.st0{fill:#FFFFFF;stroke:#020202;stroke-width:1.5875;}
	.st1{fill:#FFFFFF;stroke:#020202;stroke-miterlimit:10;}
</style>
<sodipodi:namedview  bordercolor="#000000" borderopacity="0.25" id="namedview7" inkscape:deskcolor="#d1d1d1" inkscape:document-units="mm" inkscape:pagecheckerboard="0" inkscape:pageopacity="0.0" inkscape:showpageshadow="2" pagecolor="#ffffff" showgrid="false">
	</sodipodi:namedview>
<g id="layer2" inkscape:groupmode="layer" inkscape:label="Layer 2">
	<g id="g983" transform="matrix(0.47834659,0,0,0.59670881,-133.46569,-50.204083)">
		<path id="path356" class="st0" d="M313.7,334l207.1-207.1l189.6,1.1v41l-89.1,86.9l-98.4-0.5L398.9,379.3l-87.4-1.1v-41.5
			L313.7,334z"/>
		<path id="path420" class="st0" d="M524.6,255.8L344.3,432.3l3.8,42.1H623l176-176l0.5-43.2L524.6,255.8z"/>
		<path id="path412" class="st1" d="M364.5,342.2v-7.7l63.9-1.1l-5.5,9.8L364.5,342.2z"/>
		<path id="path416" class="st1" d="M573.8,245.4l80.3-83.6l6,8.2l-73.8,76L573.8,245.4z"/>
		<path id="path418" class="st1" d="M398.9,429.6c6.6,0,205.5,0.5,205.5,0.5l136.1-138.3l8.7,8.2L609.3,439.4l-209.9-0.5
			L398.9,429.6z"/>
	</g>
</g>
</svg>
