<?xml version="1.0" encoding="UTF-8" standalone="no"?>
<!-- Created with Inkscape (http://www.inkscape.org/) -->

<svg
   width="255"
   height="255"
   viewBox="0 0 67.468748 67.46875"
   version="1.1"
   id="svg5"
   xml:space="preserve"
   xmlns="http://www.w3.org/2000/svg"
   xmlns:svg="http://www.w3.org/2000/svg"><defs
     id="defs2" /><g
     id="layer1"><ellipse
       style="fill:#1a1a1a;fill-opacity:1;stroke:#67ff4c;stroke-width:1.89697;stroke-linecap:butt;stroke-linejoin:bevel;stroke-dasharray:0.189697, 0.189697;stroke-dashoffset:18.9697;stroke-opacity:1;paint-order:normal"
       id="path14596"
       cx="33.59507"
       cy="33.749203"
       rx="29.537689"
       ry="29.563202" /><path
       style="fill:#00ff00;stroke:#000000;stroke-width:0.140877px;stroke-linecap:butt;stroke-linejoin:miter;stroke-opacity:1"
       d="m 32.897807,20.858453 c -0.08784,-0.07234 -1.028752,-0.722747 -1.028752,-0.722747 l 1.568207,-0.02421 -0.225827,-0.313207 0.589647,-0.04815 c 0,0 -1.467836,-1.78277 -1.279652,-1.614129 0.188185,0.168691 1.869298,1.325019 1.869298,1.325019 0,0 0.22582,-0.09634 0.288547,-0.168692 0.06273,-0.07217 0.225827,-0.746829 0.3011,-0.819103 0.07524,-0.07217 0.313641,-0.265004 0.313641,-0.265004 0,0 0.07523,-0.02401 0.07523,-0.168693 0,-0.144514 0.275999,-9.7811244 0.275999,-9.7811244 0,0 0.125469,4.3846274 0.125469,4.1919244 0,-0.192744 0.08783,-4.1437352 0.08783,-4.1437352 l 0.08784,0.7950069 0.163093,2.4573213 v 5.155584 l 0.22582,1.903215 0.138006,0.289107 0.664912,0.554107 c 0,0 2.057496,-1.855042 1.982218,-1.662319 -0.07523,0.192745 -1.706206,2.047767 -1.706206,2.047767 0,0 0.06273,0.168692 0.22582,0.07217 0.163099,-0.09635 0.991115,-0.602296 0.991115,-0.602296 l -0.953479,0.867301 1.982212,-0.192744 -0.790381,0.67457 5.545168,0.457728 1.530559,0.313207 -1.380016,0.2409 -5.382063,0.433658 0.464183,0.602296 -1.718749,-0.07234 -0.12545,0.09634 -0.01259,0.361384 c 0,0 -0.03763,0.168692 0.06273,0.240913 0.100371,0.07217 0.401463,0.530022 0.401463,0.530022 l 0.526925,0.578192 0.0501,0.337278 -1.304744,-1.252768 -0.36382,-0.120523 -0.07523,0.337279 -0.275999,-0.120517 -0.326191,-0.192724 -0.02511,0.481826 -0.15055,0.530023 -0.439091,11.03389 -0.639832,-11.130268 -0.414011,-0.554107 -0.401456,-0.04815 -0.188177,-0.168692 c 0,0 -0.602197,0.361382 -0.664924,0.409553 -0.06273,0.04821 -0.802913,0.722745 -0.802913,0.722745 l 0.338728,-0.626381 1.204378,-1.204559 -0.363824,-0.337292 -0.150549,-0.0242 -1.668564,0.240913 0.690016,-0.481826 -1.78149,-0.481833 -3.87659,-0.09634 z"
       id="path4778-0-6-2" /><path
       style="fill:#00ff00;stroke:#000000;stroke-width:0.140877px;stroke-linecap:butt;stroke-linejoin:miter;stroke-opacity:1"
       d="m 34.616335,42.941611 c -0.08784,-0.07234 -1.02875,-0.722746 -1.02875,-0.722746 l 1.568206,-0.02421 -0.225827,-0.313207 0.589646,-0.04815 c 0,0 -1.467834,-1.782772 -1.279651,-1.614132 0.188185,0.168692 1.869298,1.325022 1.869298,1.325022 0,0 0.225821,-0.09635 0.288549,-0.168693 0.06273,-0.07217 0.225827,-0.74683 0.301099,-0.819104 0.07524,-0.07217 0.313641,-0.265005 0.313641,-0.265005 0,0 0.07523,-0.02401 0.07523,-0.168692 0,-0.144514 0.276,-9.781121 0.276,-9.781121 0,0 0.125469,4.384626 0.125469,4.191922 0,-0.192744 0.08783,-4.143733 0.08783,-4.143733 l 0.08784,0.795006 0.163092,2.457321 v 5.155582 l 0.22582,1.903215 0.138006,0.289109 0.664912,0.554107 c 0,0 2.057496,-1.855044 1.982219,-1.662321 -0.07523,0.192744 -1.706207,2.047768 -1.706207,2.047768 0,0 0.06273,0.168693 0.22582,0.07217 0.163099,-0.09634 0.991116,-0.602296 0.991116,-0.602296 l -0.953479,0.867302 1.982212,-0.192744 -0.790381,0.67457 5.545168,0.457728 1.530558,0.313207 -1.380016,0.2409 -5.382063,0.433657 0.464184,0.602297 -1.718749,-0.07234 -0.125451,0.09634 -0.01259,0.361383 c 0,0 -0.03764,0.168692 0.06273,0.240914 0.100371,0.07217 0.401463,0.530021 0.401463,0.530021 l 0.526924,0.578192 0.0501,0.337279 -1.304745,-1.252768 -0.36382,-0.120523 -0.07523,0.337278 -0.276,-0.120516 -0.32619,-0.192724 -0.02511,0.481826 -0.150549,0.530022 -0.439092,11.033891 -0.639832,-11.130269 -0.41401,-0.554107 -0.401457,-0.04815 -0.188179,-0.168692 c 0,0 -0.602196,0.361382 -0.664924,0.409553 -0.06273,0.04821 -0.802912,0.722745 -0.802912,0.722745 l 0.338728,-0.626381 1.20438,-1.204559 -0.363827,-0.337292 -0.150548,-0.0242 -1.668563,0.240913 0.690015,-0.481826 -1.781488,-0.481834 -3.876591,-0.09634 z"
       id="path4778-0-6" /></g><path
     style="fill:none;stroke:#000000;stroke-width:0.170499px;stroke-linecap:butt;stroke-linejoin:miter;stroke-opacity:1"
     d="m 14.684114,31.130731 -0.21687,-0.443995 -0.130122,-0.520539 v -0.244959 l 0.21687,-0.244957 0.245785,-0.107175 0.08675,-0.03064 0.05783,0.244958 0.08674,0.382749 c 0,0 -0.144579,0.336821 -0.173495,0.39806 -0.02891,0.06128 -0.08675,0.26027 -0.08675,0.32151 0,0.06128 -0.01446,0.214342 -0.01446,0.214342 z"
     id="path1726" /><path
     style="fill:#00ff00;stroke:#000000;stroke-width:0.0696913px;stroke-linecap:butt;stroke-linejoin:miter;stroke-opacity:1"
     d="m 48.002819,25.175056 c -0.05805,-0.02679 -0.679886,-0.26763 -0.679886,-0.26763 l 1.036403,-0.009 -0.149246,-0.115982 0.389689,-0.01784 c 0,0 -0.970068,-0.660153 -0.845701,-0.597707 0.124368,0.06247 1.23539,0.490653 1.23539,0.490653 0,0 0.149241,-0.03568 0.190697,-0.06247 0.04145,-0.02673 0.149246,-0.27655 0.198993,-0.303314 0.04972,-0.02672 0.207278,-0.09813 0.207278,-0.09813 0,0 0.04972,-0.0089 0.04972,-0.06247 0,-0.05351 0.182405,-3.621921 0.182405,-3.621921 0,0 0.08292,1.623615 0.08292,1.552256 0,-0.07137 0.05805,-1.534411 0.05805,-1.534411 l 0.05805,0.294388 0.107785,0.90994 v 1.909096 l 0.149241,0.704755 0.09121,0.107055 0.43943,0.205184 c 0,0 1.359764,-0.686917 1.310017,-0.615552 -0.04972,0.07137 -1.127606,0.758283 -1.127606,0.758283 0,0 0.04145,0.06247 0.149241,0.02672 0.10779,-0.03568 0.655011,-0.223029 0.655011,-0.223029 l -0.630138,0.321158 1.310011,-0.07137 -0.522348,0.249792 3.664717,0.169495 1.011524,0.11598 -0.912031,0.0892 -3.556925,0.160582 0.306772,0.223029 -1.135898,-0.02679 -0.0829,0.03568 -0.0083,0.133819 c 0,0 -0.02486,0.06247 0.04145,0.08921 0.06633,0.02672 0.265323,0.196266 0.265323,0.196266 l 0.348234,0.214103 0.03313,0.124893 -0.862284,-0.463896 -0.240443,-0.04463 -0.04972,0.124893 -0.182404,-0.04463 -0.215576,-0.07136 -0.01659,0.17842 -0.09949,0.196266 -0.29019,4.085815 -0.422853,-4.121505 -0.273614,-0.205184 -0.265316,-0.01784 -0.124367,-0.06247 c 0,0 -0.397981,0.133819 -0.439436,0.151657 -0.04145,0.01784 -0.530632,0.26763 -0.530632,0.26763 l 0.22386,-0.231947 0.795955,-0.446044 -0.24045,-0.1249 -0.09949,-0.009 -1.102725,0.08921 0.456018,-0.178421 -1.17736,-0.178421 -2.561977,-0.03568 z"
     id="path4778" /><path
     style="fill:#00ff00;stroke:#000000;stroke-width:0.0696913px;stroke-linecap:butt;stroke-linejoin:miter;stroke-opacity:1"
     d="m 30.025224,56.366411 c -0.05805,-0.02679 -0.679884,-0.26763 -0.679884,-0.26763 l 1.036404,-0.009 -0.149247,-0.11598 0.389689,-0.01784 c 0,0 -0.970068,-0.660154 -0.845701,-0.597707 0.124366,0.06247 1.23539,0.490652 1.23539,0.490652 0,0 0.14924,-0.03568 0.190696,-0.06247 0.04145,-0.02672 0.149247,-0.276549 0.198993,-0.303312 0.04972,-0.02672 0.207279,-0.09813 0.207279,-0.09813 0,0 0.04972,-0.0089 0.04972,-0.06247 0,-0.05351 0.182406,-3.621921 0.182406,-3.621921 0,0 0.08292,1.623614 0.08292,1.552255 0,-0.07137 0.05805,-1.534411 0.05805,-1.534411 l 0.05805,0.294387 0.107784,0.90994 v 1.909097 l 0.14924,0.704755 0.09121,0.107055 0.439429,0.205183 c 0,0 1.359765,-0.686917 1.310017,-0.615551 -0.04972,0.07137 -1.127605,0.758283 -1.127605,0.758283 0,0 0.04145,0.06247 0.14924,0.02672 0.107791,-0.03568 0.655012,-0.223029 0.655012,-0.223029 l -0.630138,0.321158 1.310008,-0.07137 -0.522344,0.249794 3.664713,0.169495 1.011524,0.11598 -0.91203,0.0892 -3.556924,0.160583 0.30677,0.223028 -1.135895,-0.02679 -0.08291,0.03568 -0.0083,0.133819 c 0,0 -0.02486,0.06247 0.04145,0.08921 0.06633,0.02672 0.265321,0.196265 0.265321,0.196265 l 0.348234,0.214103 0.03313,0.124893 -0.862283,-0.463896 -0.240443,-0.04463 -0.04972,0.124894 -0.182405,-0.04463 -0.215575,-0.07136 -0.01659,0.17842 -0.09949,0.196266 -0.290189,4.085815 -0.422854,-4.121504 -0.273613,-0.205185 -0.265316,-0.01784 -0.124367,-0.06247 c 0,0 -0.39798,0.133818 -0.439436,0.151656 -0.04146,0.01784 -0.530632,0.26763 -0.530632,0.26763 l 0.22386,-0.231947 0.795954,-0.446044 -0.240448,-0.1249 -0.09949,-0.009 -1.102726,0.08921 0.456019,-0.17842 -1.17736,-0.17842 -2.561978,-0.03568 z"
     id="path4778-2" /><path
     style="fill:#00ff00;stroke:#000000;stroke-width:0.0696913px;stroke-linecap:butt;stroke-linejoin:miter;stroke-opacity:1"
     d="m 12.328715,22.105047 c -0.05805,-0.02679 -0.679887,-0.26763 -0.679887,-0.26763 l 1.036405,-0.009 -0.149247,-0.115981 0.38969,-0.01784 c 0,0 -0.970069,-0.660153 -0.845702,-0.597707 0.124366,0.06247 1.235392,0.490652 1.235392,0.490652 0,0 0.149241,-0.03568 0.190697,-0.06247 0.04145,-0.02672 0.149246,-0.276549 0.198993,-0.303313 0.04972,-0.02672 0.207278,-0.09813 0.207278,-0.09813 0,0 0.04972,-0.0089 0.04972,-0.06247 0,-0.05351 0.182404,-3.621918 0.182404,-3.621918 0,0 0.08292,1.623612 0.08292,1.552252 0,-0.07137 0.05805,-1.534408 0.05805,-1.534408 l 0.05805,0.294387 0.107785,0.90994 v 1.909093 l 0.149241,0.704756 0.09121,0.107056 0.43943,0.205184 c 0,0 1.359765,-0.686917 1.310017,-0.615552 -0.04972,0.07137 -1.127605,0.758282 -1.127605,0.758282 0,0 0.04145,0.06247 0.14924,0.02673 0.10779,-0.03568 0.655011,-0.223029 0.655011,-0.223029 l -0.630138,0.321158 1.310011,-0.07137 -0.522348,0.249792 3.664715,0.169495 1.011523,0.115981 -0.91203,0.0892 -3.556923,0.160582 0.306772,0.223029 -1.135897,-0.02679 -0.08291,0.03568 -0.0083,0.133818 c 0,0 -0.02486,0.06247 0.04145,0.08921 0.06633,0.02672 0.265323,0.196266 0.265323,0.196266 l 0.348234,0.214102 0.03313,0.124893 -0.862283,-0.463895 -0.240443,-0.04463 -0.04972,0.124892 -0.182404,-0.04463 -0.215577,-0.07136 -0.01659,0.17842 -0.09949,0.196265 -0.29019,4.085816 -0.422854,-4.121505 -0.273613,-0.205184 -0.265317,-0.01784 -0.124367,-0.06247 c 0,0 -0.397981,0.13382 -0.439436,0.151658 -0.04144,0.01788 -0.530616,0.267667 -0.530616,0.267667 l 0.223861,-0.231948 0.795955,-0.446044 -0.240449,-0.1249 -0.09949,-0.009 -1.102727,0.08921 0.456019,-0.17842 -1.17736,-0.17842 -2.5619775,-0.03568 z"
     id="path4778-0" /><path
     style="fill:#00ff00;stroke:#000000;stroke-width:0.0696913px;stroke-linecap:butt;stroke-linejoin:miter;stroke-opacity:1"
     d="M 30.7192,9.3671183 C 30.66115,9.3403283 30.039315,9.0994878 30.039315,9.0994878 l 1.036403,-0.00895 -0.149247,-0.1159804 0.38969,-0.017838 c 0,0 -0.970069,-0.6601539 -0.845701,-0.5977074 0.124366,0.062466 1.23539,0.4906525 1.23539,0.4906525 0,0 0.149241,-0.035676 0.190696,-0.062466 0.04146,-0.026723 0.149246,-0.2765494 0.198993,-0.3033132 0.04972,-0.026723 0.207279,-0.098129 0.207279,-0.098129 0,0 0.04972,-0.00889 0.04972,-0.062466 0,-0.053514 0.182405,-3.6219231 0.182405,-3.6219231 0,0 0.08292,1.6236143 0.08292,1.5522555 0,-0.071372 0.05805,-1.5344109 0.05805,-1.5344109 l 0.05805,0.2943876 0.107784,0.9099397 v 1.9090976 l 0.149241,0.7047556 0.09121,0.1070549 0.43943,0.205184 c 0,0 1.359762,-0.6869176 1.310015,-0.615552 -0.04972,0.071372 -1.127604,0.758283 -1.127604,0.758283 0,0 0.04146,0.062466 0.14924,0.026723 0.107791,-0.035676 0.65501,-0.2230287 0.65501,-0.2230287 l -0.630136,0.3211579 1.310009,-0.071372 -0.522348,0.2497923 3.664717,0.1694884 1.011523,0.1159802 -0.91203,0.0892 -3.556925,0.160582 0.306772,0.2230297 -1.135896,-0.02679 -0.0829,0.03567 -0.0083,0.133818 c 0,0 -0.02486,0.06246 0.04145,0.08921 0.06633,0.02673 0.26532,0.196265 0.26532,0.196265 l 0.348234,0.214104 0.03313,0.124893 -0.862281,-0.463896 -0.240444,-0.04463 -0.04972,0.124893 -0.182404,-0.04463 -0.215576,-0.07137 -0.01659,0.17842 -0.09948,0.196265 -0.290189,4.085819 -0.422854,-4.121508 -0.273614,-0.205185 -0.265316,-0.01784 -0.124366,-0.06246 c 0,0 -0.397981,0.133819 -0.439436,0.151657 -0.04145,0.01784 -0.530633,0.267631 -0.530633,0.267631 l 0.223861,-0.23194 0.795954,-0.446044 -0.240449,-0.1248997 -0.09949,-0.009 -1.102726,0.08921 0.456018,-0.1784185 -1.177359,-0.17842 -2.561978,-0.03567 z"
     id="path4778-6" /><path
     style="fill:#00ff00;stroke:#000000;stroke-width:0.0696913px;stroke-linecap:butt;stroke-linejoin:miter;stroke-opacity:1"
     d="m 13.485347,43.049144 c -0.05805,-0.02679 -0.679885,-0.267631 -0.679885,-0.267631 l 1.036403,-0.009 -0.149246,-0.115981 0.389689,-0.01784 c 0,0 -0.970068,-0.660153 -0.845701,-0.597707 0.124366,0.06247 1.23539,0.490652 1.23539,0.490652 0,0 0.14924,-0.03568 0.190696,-0.06247 0.04146,-0.02672 0.149247,-0.276549 0.198993,-0.303313 0.04972,-0.02672 0.207279,-0.09813 0.207279,-0.09813 0,0 0.04972,-0.0089 0.04972,-0.06247 0,-0.05351 0.182406,-3.621921 0.182406,-3.621921 0,0 0.08292,1.623615 0.08292,1.552256 0,-0.07137 0.05805,-1.53441 0.05805,-1.53441 l 0.05805,0.294387 0.107784,0.909939 v 1.909096 l 0.14924,0.704756 0.09121,0.107055 0.43943,0.205185 c 0,0 1.359764,-0.686918 1.310017,-0.615553 -0.04972,0.07137 -1.127606,0.758283 -1.127606,0.758283 0,0 0.04145,0.06247 0.14924,0.02672 0.107791,-0.03568 0.655012,-0.22303 0.655012,-0.22303 l -0.630138,0.321159 1.31001,-0.07137 -0.522346,0.249792 3.664713,0.169494 1.011523,0.115981 -0.912029,0.0892 -3.556924,0.160582 0.306772,0.223029 -1.135897,-0.02679 -0.08291,0.03568 -0.0083,0.133818 c 0,0 -0.02486,0.06247 0.04145,0.08921 0.06633,0.02672 0.265321,0.196266 0.265321,0.196266 l 0.348234,0.214102 0.03313,0.124893 -0.862284,-0.463895 -0.240443,-0.04463 -0.04972,0.124892 -0.182405,-0.04463 -0.215575,-0.07136 -0.01659,0.17842 -0.0995,0.196264 -0.290188,4.085817 -0.422854,-4.121506 -0.273614,-0.205183 -0.265315,-0.01784 -0.124368,-0.06247 c 0,0 -0.39798,0.133819 -0.439436,0.151657 -0.04145,0.01784 -0.530632,0.26763 -0.530632,0.26763 l 0.22386,-0.231948 0.795956,-0.446044 -0.240449,-0.124899 -0.09949,-0.009 -1.102727,0.08921 0.456019,-0.178421 -1.17736,-0.17842 -2.5619763,-0.03568 z"
     id="path4778-9" /><path
     style="fill:#00ff00;stroke:#000000;stroke-width:0.0696913px;stroke-linecap:butt;stroke-linejoin:miter;stroke-opacity:1"
     d="m 49.687996,41.089465 c -0.05805,-0.02679 -0.679885,-0.267624 -0.679885,-0.267624 l 1.036404,-0.009 -0.149247,-0.11598 0.389689,-0.01784 c 0,0 -0.970068,-0.660153 -0.845701,-0.597707 0.124367,0.06247 1.235391,0.490653 1.235391,0.490653 0,0 0.14924,-0.03568 0.190696,-0.06247 0.04145,-0.02672 0.149246,-0.27655 0.198993,-0.303314 0.04972,-0.02672 0.207278,-0.09814 0.207278,-0.09814 0,0 0.04972,-0.0089 0.04972,-0.06247 0,-0.05351 0.182405,-3.621913 0.182405,-3.621913 0,0 0.08292,1.623614 0.08292,1.552249 0,-0.07137 0.05805,-1.534411 0.05805,-1.534411 l 0.05805,0.294387 0.107785,0.909946 v 1.909096 l 0.14924,0.704757 0.09121,0.107054 0.43943,0.205184 c 0,0 1.359763,-0.686917 1.310017,-0.615552 -0.04972,0.07137 -1.127606,0.758283 -1.127606,0.758283 0,0 0.04146,0.06247 0.14924,0.02672 0.107791,-0.03568 0.655012,-0.223028 0.655012,-0.223028 l -0.630139,0.321157 1.310011,-0.07137 -0.522348,0.249793 3.664717,0.169495 1.011524,0.11598 -0.912031,0.0892 -3.556925,0.160582 0.306772,0.223029 -1.135897,-0.02679 -0.0829,0.03568 -0.0083,0.133818 c 0,0 -0.02486,0.06247 0.04146,0.08921 0.06633,0.02672 0.265323,0.196266 0.265323,0.196266 l 0.348234,0.214104 0.03312,0.124892 -0.862283,-0.463896 -0.240443,-0.04463 -0.04972,0.124893 -0.182406,-0.04463 -0.215575,-0.07136 -0.01659,0.178421 -0.09949,0.196265 -0.29019,4.085816 -0.422854,-4.121506 -0.273613,-0.205183 -0.265316,-0.01784 -0.124367,-0.06247 c 0,0 -0.39798,0.133819 -0.439436,0.151657 -0.04145,0.01784 -0.530632,0.26763 -0.530632,0.26763 l 0.22386,-0.231947 0.795955,-0.446046 -0.240449,-0.124899 -0.09949,-0.009 -1.102727,0.08921 0.456018,-0.178421 -1.177358,-0.178421 -2.561978,-0.03568 z"
     id="path4778-8" /><path
     style="fill:#00ff00;stroke:#000000;stroke-width:0.107148px;stroke-linecap:butt;stroke-linejoin:miter;stroke-opacity:1"
     d="m 18.058476,29.924011 c -0.08479,-0.04337 -0.993088,-0.433101 -0.993088,-0.433101 l 1.513851,-0.01451 -0.218006,-0.187691 0.569215,-0.02885 c 0,0 -1.416958,-1.068307 -1.235297,-0.967254 0.181659,0.101087 1.804506,0.794012 1.804506,0.794012 0,0 0.217992,-0.05776 0.278541,-0.101087 0.06055,-0.04324 0.218005,-0.447536 0.290665,-0.490844 0.07263,-0.04323 0.302771,-0.158798 0.302771,-0.158798 0,0 0.07262,-0.01439 0.07262,-0.101094 0,-0.0866 0.266438,-5.86126 0.266438,-5.86126 0,0 0.121116,2.627453 0.121116,2.511977 0,-0.115497 0.08479,-2.483098 0.08479,-2.483098 l 0.08479,0.476403 0.157437,1.472527 v 3.089445 l 0.217992,1.140488 0.133222,0.173242 0.641868,0.332046 c 0,0 1.986169,-1.111622 1.913509,-0.996133 -0.07263,0.115497 -1.647066,1.227106 -1.647066,1.227106 0,0 0.06055,0.101094 0.217992,0.04324 0.157444,-0.05776 0.956755,-0.360919 0.956755,-0.360919 l -0.920421,0.519718 1.913497,-0.115497 -0.762978,0.404234 5.352956,0.274288 1.477512,0.187685 -1.332185,0.144355 -5.195513,0.259865 0.448097,0.360927 -1.659178,-0.04337 -0.121098,0.05776 -0.01215,0.216557 c 0,0 -0.03633,0.101086 0.06055,0.144369 0.09689,0.04324 0.387553,0.31761 0.387553,0.31761 l 0.508652,0.346476 0.04841,0.202114 -1.259513,-0.750711 -0.351207,-0.07222 -0.07263,0.202107 -0.266437,-0.07222 -0.314881,-0.11549 -0.02424,0.288737 -0.145327,0.31761 -0.423874,6.61197 -0.617652,-6.669727 -0.399658,-0.332047 -0.387542,-0.02885 -0.181659,-0.101086 c 0,0 -0.581326,0.216556 -0.641876,0.245422 -0.06056,0.02885 -0.775082,0.433101 -0.775082,0.433101 l 0.326985,-0.375356 1.162633,-0.721824 -0.351217,-0.202121 -0.145332,-0.01446 -1.610722,0.144362 0.666097,-0.288732 -1.719739,-0.28873 -3.742218,-0.05776 z"
     id="path4778-0-2" /><path
     style="fill:#00ff00;stroke:#000000;stroke-width:0.0884533px;stroke-linecap:butt;stroke-linejoin:miter;stroke-opacity:1"
     d="M 8.6869859,34.194414 C 8.6266309,34.152903 7.9801566,33.779715 7.9801566,33.779715 l 1.0774765,-0.01386 -0.1551599,-0.179714 0.4051318,-0.02765 c 0,0 -1.0085149,-1.022909 -0.8792178,-0.926146 0.1292972,0.09679 1.2843496,0.760259 1.2843496,0.760259 0,0 0.1551562,-0.0553 0.1982552,-0.09679 0.043101,-0.04138 0.155159,-0.428511 0.206878,-0.469983 0.05169,-0.04138 0.215495,-0.152054 0.215495,-0.152054 0,0 0.05169,-0.01379 0.05169,-0.09679 0,-0.08292 0.189633,-5.612164 0.189633,-5.612164 0,0 0.08621,2.51579 0.08621,2.40522 0,-0.11059 0.06035,-2.377567 0.06035,-2.377567 l 0.06035,0.45615 0.112056,1.409956 v 2.958139 l 0.155156,1.092021 0.09482,0.16588 0.456845,0.317935 c 0,0 1.413657,-1.064382 1.361935,-0.953799 -0.05169,0.110591 -1.172294,1.174958 -1.172294,1.174958 0,0 0.04309,0.09679 0.155156,0.04145 0.11206,-0.0553 0.680971,-0.345588 0.680971,-0.345588 l -0.655113,0.497634 1.361932,-0.110588 -0.543052,0.387052 3.809951,0.262631 1.051609,0.179713 -0.948175,0.138222 -3.697885,0.248817 0.31893,0.345587 -1.180914,-0.04151 -0.08619,0.0553 -0.0086,0.207353 c 0,0 -0.02586,0.0968 0.0431,0.138235 0.06896,0.04138 0.275835,0.304108 0.275835,0.304108 l 0.362039,0.331755 0.03442,0.19352 -0.896463,-0.718804 -0.249973,-0.06915 -0.05169,0.19352 -0.189675,-0.06915 -0.224116,-0.11058 -0.01725,0.276456 -0.103439,0.304116 -0.301689,6.33097 -0.439618,-6.386268 -0.284457,-0.317935 -0.2758309,-0.02765 -0.1292927,-0.09679 c 0,0 -0.4137542,0.207352 -0.4568537,0.234991 -0.043096,0.02766 -0.5516613,0.414692 -0.5516613,0.414692 L 8.8248541,36.046421 9.652355,35.355272 9.402378,35.161746 9.2989401,35.147886 8.1525099,35.286116 8.6266034,35.009652 7.402585,34.733189 4.7390738,34.677889 Z"
     id="path4778-0-6-3" /><path
     style="fill:#00ff00;stroke:#000000;stroke-width:0.0884533px;stroke-linecap:butt;stroke-linejoin:miter;stroke-opacity:1"
     d="m 43.855413,16.786293 c -0.06037,-0.04151 -0.706832,-0.414699 -0.706832,-0.414699 l 1.077478,-0.01386 -0.155158,-0.179713 0.405131,-0.02765 c 0,0 -1.008517,-1.022909 -0.879216,-0.926146 0.129295,0.09679 1.284348,0.760259 1.284348,0.760259 0,0 0.155153,-0.0553 0.198255,-0.09679 0.04309,-0.04138 0.155158,-0.428512 0.206878,-0.469983 0.05166,-0.04138 0.215493,-0.152054 0.215493,-0.152054 0,0 0.05166,-0.01379 0.05166,-0.09679 0,-0.08292 0.189631,-5.6121667 0.189631,-5.6121667 0,0 0.08621,2.5157897 0.08621,2.4052207 0,-0.11059 0.06037,-2.3775677 0.06037,-2.3775677 l 0.06037,0.4561497 0.112061,1.409956 v 2.95814 l 0.155153,1.092022 0.09482,0.165881 0.456845,0.317935 c 0,0 1.413656,-1.064382 1.361936,-0.953799 -0.05166,0.11059 -1.172292,1.174958 -1.172292,1.174958 0,0 0.04309,0.09679 0.155151,0.04144 0.112062,-0.0553 0.680976,-0.345587 0.680976,-0.345587 l -0.655112,0.497635 1.361923,-0.110588 -0.54305,0.387052 3.809949,0.262631 1.051614,0.179713 -0.948175,0.138222 -3.697887,0.248817 0.318933,0.345588 -1.180916,-0.04151 -0.08619,0.0553 -0.0086,0.207352 c 0,0 -0.02587,0.0968 0.04309,0.138235 0.06896,0.04138 0.275837,0.304109 0.275837,0.304109 l 0.362035,0.331752 0.03444,0.19352 -0.896456,-0.718805 -0.249975,-0.06915 -0.05166,0.19352 -0.189631,-0.06915 -0.224116,-0.110575 -0.01728,0.276456 -0.10344,0.304114 -0.301693,6.33097 -0.439611,-6.386268 -0.284453,-0.317933 -0.275837,-0.02765 -0.129289,-0.09679 c 0,0 -0.413754,0.207352 -0.456857,0.23499 -0.04309,0.02765 -0.551661,0.41469 -0.551661,0.41469 l 0.232735,-0.359397 0.827502,-0.69115 -0.24998,-0.193526 -0.103438,-0.01386 -1.14643,0.138229 0.474097,-0.276464 -1.224019,-0.276463 -2.663512,-0.0553 z"
     id="path4778-0-6-3-5" /><path
     style="fill:#00ff00;stroke:#000000;stroke-width:0.0884533px;stroke-linecap:butt;stroke-linejoin:miter;stroke-opacity:1"
     d="m 44.018987,32.721893 c -0.06037,-0.04151 -0.70683,-0.414699 -0.70683,-0.414699 l 1.077477,-0.01386 -0.155158,-0.179713 0.405131,-0.02765 c 0,0 -1.008518,-1.02291 -0.879223,-0.926146 0.129302,0.09679 1.284355,0.760258 1.284355,0.760258 0,0 0.155152,-0.0553 0.198255,-0.09679 0.04309,-0.04138 0.155158,-0.428511 0.206876,-0.469982 0.05166,-0.04138 0.215495,-0.152055 0.215495,-0.152055 0,0 0.05166,-0.01379 0.05166,-0.09679 0,-0.08292 0.189631,-5.612163 0.189631,-5.612163 0,0 0.08621,2.515789 0.08621,2.405219 0,-0.110589 0.06037,-2.377567 0.06037,-2.377567 l 0.06037,0.456151 0.112062,1.409955 v 2.95814 l 0.155151,1.09202 0.09482,0.16588 0.456845,0.317936 c 0,0 1.413655,-1.064381 1.36193,-0.953799 -0.05166,0.110589 -1.172293,1.174958 -1.172293,1.174958 0,0 0.04309,0.09679 0.155158,0.04144 0.112062,-0.0553 0.680968,-0.345587 0.680968,-0.345587 l -0.655112,0.497636 1.361931,-0.11059 -0.54305,0.387053 3.809949,0.26263 1.051614,0.179713 -0.948176,0.138222 -3.697886,0.248818 0.318926,0.345588 -1.180909,-0.04151 -0.08619,0.0553 -0.0086,0.207352 c 0,0 -0.02587,0.0968 0.04309,0.138235 0.06896,0.04138 0.275837,0.304109 0.275837,0.304109 l 0.362035,0.331754 0.03444,0.19352 -0.896456,-0.718808 -0.249974,-0.06915 -0.05166,0.19352 -0.189631,-0.06915 -0.224117,-0.110575 -0.01722,0.276456 -0.103439,0.304115 -0.301693,6.330971 -0.439612,-6.386268 -0.284459,-0.317935 -0.27583,-0.02765 -0.129289,-0.09679 c 0,0 -0.413756,0.207353 -0.456858,0.234991 -0.04309,0.02766 -0.55166,0.414692 -0.55166,0.414692 l 0.232733,-0.3594 0.827497,-0.691148 -0.249973,-0.193527 -0.10344,-0.01386 -1.146429,0.138228 0.47409,-0.276464 -1.224018,-0.276462 -2.663505,-0.0553 z"
     id="path4778-0-6-3-3" /><path
     style="fill:#00ff00;stroke:#000000;stroke-width:0.0884533px;stroke-linecap:butt;stroke-linejoin:miter;stroke-opacity:1"
     d="m 44.673273,51.255682 c -0.06037,-0.04151 -0.706825,-0.414697 -0.706825,-0.414697 l 1.077476,-0.01386 -0.155163,-0.179714 0.405131,-0.02765 c 0,0 -1.008511,-1.02291 -0.879216,-0.926147 0.129302,0.09679 1.284348,0.760259 1.284348,0.760259 0,0 0.155158,-0.0553 0.198261,-0.09679 0.04309,-0.04138 0.155158,-0.42851 0.206871,-0.469983 0.05172,-0.04138 0.215501,-0.152054 0.215501,-0.152054 0,0 0.05166,-0.01379 0.05166,-0.09679 0,-0.08292 0.189633,-5.612163 0.189633,-5.612163 0,0 0.08621,2.515789 0.08621,2.405219 0,-0.110589 0.06037,-2.377567 0.06037,-2.377567 l 0.06037,0.45615 0.112056,1.409955 v 2.95814 l 0.155158,1.092021 0.09482,0.16588 0.456844,0.317935 c 0,0 1.413657,-1.064381 1.361931,-0.953798 -0.05166,0.110589 -1.172293,1.174957 -1.172293,1.174957 0,0 0.04309,0.09679 0.155159,0.04144 0.112061,-0.0553 0.680968,-0.345588 0.680968,-0.345588 l -0.655112,0.497636 1.36193,-0.11059 -0.543051,0.387053 3.80995,0.262631 1.051607,0.179713 -0.948175,0.138222 -3.697881,0.248817 0.318927,0.345588 -1.18091,-0.04151 -0.08619,0.0553 -0.0086,0.207353 c 0,0 -0.02587,0.0968 0.04309,0.138235 0.06896,0.04138 0.27583,0.304108 0.27583,0.304108 l 0.362042,0.331755 0.03444,0.19352 -0.896462,-0.718808 -0.249968,-0.06915 -0.05166,0.193519 -0.189638,-0.06915 -0.224116,-0.110576 -0.01722,0.276457 -0.103439,0.304116 -0.301687,6.33097 -0.439611,-6.386269 -0.28446,-0.317934 -0.275831,-0.02765 -0.129294,-0.09679 c 0,0 -0.41375,0.207353 -0.456852,0.234993 -0.04309,0.02765 -0.55166,0.41469 -0.55166,0.41469 l 0.232734,-0.3594 0.827496,-0.691148 -0.249973,-0.193526 -0.103438,-0.01386 -1.14643,0.138228 0.474091,-0.276463 -1.224019,-0.276463 -2.663512,-0.0553 z"
     id="path4778-0-6-3-57" /><path
     style="fill:#00ff00;stroke:#000000;stroke-width:0.0884533px;stroke-linecap:butt;stroke-linejoin:miter;stroke-opacity:1"
     d="m 21.282368,50.216408 c -0.06037,-0.04151 -0.706831,-0.414699 -0.706831,-0.414699 l 1.077477,-0.01386 -0.155159,-0.179714 0.405133,-0.02765 c 0,0 -1.008512,-1.022909 -0.879217,-0.926146 0.129295,0.09679 1.284349,0.76026 1.284349,0.76026 0,0 0.155158,-0.0553 0.198255,-0.09679 0.04309,-0.04138 0.155157,-0.428512 0.206877,-0.469983 0.05166,-0.04138 0.215494,-0.152055 0.215494,-0.152055 0,0 0.05166,-0.01379 0.05166,-0.09679 0,-0.08292 0.189638,-5.612163 0.189638,-5.612163 0,0 0.08621,2.515788 0.08621,2.40522 0,-0.11059 0.06037,-2.377567 0.06037,-2.377567 l 0.06037,0.45615 0.112056,1.409956 v 2.958139 l 0.155151,1.09202 0.09482,0.165881 0.456844,0.317935 c 0,0 1.413657,-1.064382 1.361938,-0.953799 -0.05166,0.110589 -1.172294,1.174958 -1.172294,1.174958 0,0 0.04309,0.09679 0.155153,0.04144 0.112062,-0.0553 0.680974,-0.345588 0.680974,-0.345588 l -0.655112,0.497635 1.361931,-0.110588 -0.543057,0.387052 3.809956,0.26263 1.051608,0.179713 -0.948176,0.138223 -3.697887,0.248817 0.318932,0.345587 -1.180915,-0.04151 -0.08619,0.0553 -0.0086,0.207352 c 0,0 -0.02587,0.0968 0.04309,0.138235 0.06896,0.04138 0.275837,0.304109 0.275837,0.304109 l 0.362035,0.331755 0.03444,0.193519 -0.896456,-0.718807 -0.249974,-0.06915 -0.05166,0.19352 -0.189631,-0.06915 -0.224118,-0.110576 -0.01722,0.276456 -0.103438,0.304116 -0.301687,6.33097 -0.439618,-6.386268 -0.284453,-0.317935 -0.27583,-0.02765 -0.129296,-0.09679 c 0,0 -0.413755,0.207352 -0.456851,0.234991 -0.04309,0.02765 -0.551661,0.414692 -0.551661,0.414692 l 0.232729,-0.3594 0.827503,-0.691149 -0.249981,-0.193526 -0.103438,-0.01386 -1.14643,0.138229 0.474097,-0.276464 -1.224018,-0.276463 -2.66351,-0.0553 z"
     id="path4778-0-6-3-4" /><path
     style="fill:#00ff00;stroke:#000000;stroke-width:0.0884533px;stroke-linecap:butt;stroke-linejoin:miter;stroke-opacity:1"
     d="m 26.680274,38.611135 c -0.06037,-0.04151 -0.706831,-0.414698 -0.706831,-0.414698 l 1.077478,-0.01386 -0.155159,-0.179713 0.405132,-0.02765 c 0,0 -1.008518,-1.02291 -0.879223,-0.926146 0.129301,0.09679 1.284355,0.760259 1.284355,0.760259 0,0 0.155152,-0.0553 0.198254,-0.09679 0.04309,-0.04138 0.155158,-0.428511 0.206878,-0.469983 0.05166,-0.04138 0.215494,-0.152054 0.215494,-0.152054 0,0 0.05166,-0.01379 0.05166,-0.09679 0,-0.08292 0.189631,-5.612163 0.189631,-5.612163 0,0 0.08621,2.515789 0.08621,2.405219 0,-0.110588 0.06037,-2.377567 0.06037,-2.377567 l 0.06037,0.45615 0.112056,1.409955 v 2.95814 l 0.155158,1.09202 0.09482,0.165881 0.456844,0.317935 c 0,0 1.413657,-1.064381 1.361931,-0.953799 -0.05166,0.11059 -1.172293,1.174958 -1.172293,1.174958 0,0 0.04309,0.09679 0.155158,0.04144 0.112061,-0.0553 0.680968,-0.345588 0.680968,-0.345588 l -0.655112,0.497636 1.361931,-0.110589 -0.54305,0.387052 3.809946,0.262631 1.051609,0.179714 -0.94817,0.138221 -3.697884,0.248818 0.318926,0.345587 -1.180909,-0.04151 -0.08619,0.0553 -0.0086,0.207353 c 0,0 -0.02587,0.0968 0.04309,0.138234 0.06896,0.04138 0.27583,0.30411 0.27583,0.30411 l 0.362042,0.331754 0.03444,0.19352 -0.896462,-0.718808 -0.249968,-0.06915 -0.05166,0.193519 -0.189631,-0.06915 -0.224124,-0.110577 -0.01722,0.276457 -0.10344,0.304116 -0.301686,6.33097 -0.439612,-6.386269 -0.284459,-0.317934 -0.27583,-0.02766 -0.129289,-0.09679 c 0,0 -0.413755,0.207353 -0.456858,0.234992 -0.04309,0.02765 -0.55166,0.414692 -0.55166,0.414692 l 0.232733,-0.359401 0.827498,-0.691148 -0.249974,-0.193527 -0.103439,-0.01386 -1.14643,0.138229 0.47409,-0.276464 -1.224018,-0.276463 -2.663512,-0.0553 z"
     id="path4778-0-6-3-6" /><path
     style="fill:#00ff00;stroke:#000000;stroke-width:0.0884533px;stroke-linecap:butt;stroke-linejoin:miter;stroke-opacity:1"
     d="m 22.754525,17.132722 c -0.06037,-0.04151 -0.70683,-0.414698 -0.70683,-0.414698 l 1.077476,-0.01386 -0.155157,-0.179714 0.405132,-0.02765 c 0,0 -1.008519,-1.02291 -0.879218,-0.926147 0.129296,0.09679 1.284349,0.760259 1.284349,0.760259 0,0 0.155158,-0.0553 0.198255,-0.09679 0.04309,-0.04138 0.155158,-0.42851 0.206877,-0.469983 0.05166,-0.04138 0.215494,-0.152054 0.215494,-0.152054 0,0 0.05166,-0.01379 0.05166,-0.09679 0,-0.08292 0.189631,-5.6121657 0.189631,-5.6121657 0,0 0.08621,2.5157897 0.08621,2.4052207 0,-0.11059 0.06037,-2.3775687 0.06037,-2.3775687 l 0.06037,0.4561507 0.112055,1.409956 v 2.958141 l 0.155158,1.092021 0.09482,0.16588 0.456845,0.317935 c 0,0 1.413657,-1.064381 1.361937,-0.953799 -0.05166,0.110591 -1.172293,1.174959 -1.172293,1.174959 0,0 0.04309,0.09679 0.155152,0.04144 0.112061,-0.0553 0.680974,-0.345588 0.680974,-0.345588 l -0.655111,0.497635 1.36193,-0.110589 -0.543057,0.387052 3.809956,0.262631 1.051607,0.179713 -0.948175,0.138222 -3.697887,0.248817 0.318933,0.345588 -1.180916,-0.04151 -0.08619,0.0553 -0.0086,0.207352 c 0,0 -0.02587,0.0968 0.04309,0.138235 0.06896,0.04138 0.275837,0.304107 0.275837,0.304107 l 0.362035,0.331755 0.03444,0.193519 -0.896456,-0.718805 -0.249974,-0.06915 -0.05166,0.193518 -0.189632,-0.06915 -0.224117,-0.110576 -0.01722,0.276454 -0.103438,0.304116 -0.301688,6.33097 -0.439616,-6.386268 -0.284454,-0.317935 -0.275831,-0.02765 -0.129295,-0.09679 c 0,0 -0.413755,0.207351 -0.456851,0.23499 -0.04309,0.02765 -0.551661,0.414691 -0.551661,0.414691 l 0.232728,-0.3594 0.827504,-0.691146 -0.24998,-0.193526 -0.103438,-0.01386 -1.146431,0.138228 0.474097,-0.276463 -1.224018,-0.276463 -2.663512,-0.0553 z"
     id="path4778-0-6-3-1" /><path
     style="fill:#00ff00;stroke:#000000;stroke-width:0.0884533px;stroke-linecap:butt;stroke-linejoin:miter;stroke-opacity:1"
     d="m 54.160496,33.24153 c -0.06037,-0.04151 -0.706825,-0.414698 -0.706825,-0.414698 l 1.077471,-0.01386 -0.155158,-0.179714 0.405132,-0.02765 c 0,0 -1.008512,-1.022909 -0.879217,-0.926146 0.129296,0.09679 1.284349,0.760259 1.284349,0.760259 0,0 0.155158,-0.0553 0.198254,-0.09679 0.04309,-0.04138 0.155165,-0.428512 0.206877,-0.469984 0.05166,-0.04138 0.215501,-0.152054 0.215501,-0.152054 0,0 0.05166,-0.01379 0.05166,-0.09679 0,-0.08292 0.189637,-5.612163 0.189637,-5.612163 0,0 0.08621,2.515789 0.08621,2.40522 0,-0.11059 0.06037,-2.377568 0.06037,-2.377568 l 0.06037,0.456151 0.112056,1.409955 v 2.958139 l 0.155158,1.092021 0.09482,0.165881 0.456839,0.317934 c 0,0 1.413655,-1.064381 1.361937,-0.953798 -0.05166,0.110589 -1.172294,1.174957 -1.172294,1.174957 0,0 0.04309,0.09679 0.155158,0.04144 0.112062,-0.0553 0.680969,-0.345587 0.680969,-0.345587 l -0.655112,0.497635 1.36193,-0.110589 -0.54305,0.387053 3.809949,0.262629 1.051608,0.179715 -0.948176,0.138222 -3.697887,0.248817 0.318933,0.345587 -1.18091,-0.04151 -0.0862,0.0553 -0.0086,0.207352 c 0,0 -0.02587,0.0968 0.04309,0.138235 0.06896,0.04138 0.275837,0.304109 0.275837,0.304109 l 0.362035,0.331754 0.03444,0.19352 -0.896456,-0.718807 -0.249975,-0.06915 -0.05166,0.19352 -0.189632,-0.06915 -0.224118,-0.110575 -0.01728,0.276456 -0.103439,0.304115 -0.301687,6.330971 -0.439611,-6.386268 -0.28446,-0.317935 -0.275831,-0.02766 -0.129294,-0.09679 c 0,0 -0.413756,0.207354 -0.456852,0.234992 -0.04309,0.02765 -0.551661,0.414692 -0.551661,0.414692 l 0.232728,-0.3594 0.827503,-0.691149 -0.249979,-0.193526 -0.103432,-0.01386 -1.146431,0.138228 0.474092,-0.276464 -1.224019,-0.276462 -2.663513,-0.0553 z"
     id="path4778-0-6-3-2" /></svg>
