<?xml version="1.0" encoding="utf-8"?>
<!-- Generator: Adobe Illustrator 27.5.0, SVG Export Plug-In . SVG Version: 6.00 Build 0)  -->
<svg version="1.1"
	 id="svg1282" xmlns:inkscape="http://www.inkscape.org/namespaces/inkscape" xmlns:svg="http://www.w3.org/2000/svg" xmlns:sodipodi="http://sodipodi.sourceforge.net/DTD/sodipodi-0.dtd"
	 xmlns="http://www.w3.org/2000/svg" xmlns:xlink="http://www.w3.org/1999/xlink" x="0px" y="0px" viewBox="0 0 82.8 108.9"
	 style="enable-background:new 0 0 82.8 108.9;" xml:space="preserve">
<style type="text/css">
	.st0{fill:#FFFFFF;stroke:#231F20;stroke-width:1.125;stroke-miterlimit:11.3386;}
</style>
<sodipodi:namedview  bordercolor="#000000" borderopacity="0.25" id="namedview1284" inkscape:current-layer="layer1" inkscape:cx="-247.31958" inkscape:cy="-101.24645" inkscape:deskcolor="#d1d1d1" inkscape:document-units="mm" inkscape:pagecheckerboard="true" inkscape:pageopacity="0.0" inkscape:showpageshadow="2" inkscape:window-height="1377" inkscape:window-maximized="1" inkscape:window-width="5120" inkscape:window-x="-8" inkscape:window-y="-8" inkscape:zoom="1.2938725" pagecolor="#ffffff" showgrid="false">
	</sodipodi:namedview>
<g id="layer1" transform="translate(-67.778922,-82.540345)" inkscape:groupmode="layer" inkscape:label="Layer 1">
	<path id="path2141" class="st0" d="M142.4,84.3c-1.6,1-5.5,5.5-5.5,5.5L124,105.2l-12,15.9l4.9,7.6l32-39l-5.3-6.4L142.4,84.3z"/>
	<path id="path2143" class="st0" d="M116.4,128.9l11.6,4.6l16.8-29.6l5.1-13.2l-0.8-0.6l-32.2,38L116.4,128.9z"/>
	<path id="path2145" class="st0" d="M76.5,190.8c0.9-1.1,13.4-22.1,13.4-22.1l5.5-5.8l7.4-16.4L90.7,154l-18.4,35.5L76.5,190.8z"/>
	<path id="path2147" class="st0" d="M91.7,154c-0.6-1.3-2-4-2-4l-10.9,14.1l-10.4,17.7l3.7,7.5L91.7,154z"/>
	<path id="path2149" class="st0" d="M89.5,150.2l11.7-7.7l1.9,3.9l-11.7,7.4L89.5,150.2z"/>
	<path id="path2151" class="st0" d="M95.4,146.5l15.6-24.3l1.1-1l5,7.5l-21.6,34.2l7-15.9l-1.1-4.5L95.4,146.5z"/>
	<path id="path2153" class="st0" d="M81.9,181.2l2.5,2.5l10.2,3l33.8-53l-11.1-4.5l-21.2,33.7l-6.5,6.4L81.9,181.2z"/>
	<path id="path2155" class="st0" d="M94.8,187.1L93,189l-12.2-5.4l1-2.6l3,3.2L94.8,187.1z"/>
	<path id="path2157" class="st0" d="M81,183.9l0.1,1.9l2.1,1.7l1.7,0.6l2.1,0.4l1.3-0.6"/>
</g>
</svg>
