<?xml version="1.0" encoding="UTF-8" standalone="no"?>
<!-- Created with Inkscape (http://www.inkscape.org/) -->

<svg
   width="177.78108"
   height="143.12921"
   viewBox="0 0 39.687459 31.951852"
   version="1.1"
   id="svg5"
   xml:space="preserve"
   sodipodi:docname="beamrifle2.svg"
   inkscape:version="1.2.1 (9c6d41e410, 2022-07-14)"
   xmlns:inkscape="http://www.inkscape.org/namespaces/inkscape"
   xmlns:sodipodi="http://sodipodi.sourceforge.net/DTD/sodipodi-0.dtd"
   xmlns="http://www.w3.org/2000/svg"
   xmlns:svg="http://www.w3.org/2000/svg"><sodipodi:namedview
     id="namedview7"
     pagecolor="#ffffff"
     bordercolor="#000000"
     borderopacity="0.25"
     inkscape:showpageshadow="false"
     inkscape:pageopacity="0.0"
     inkscape:pagecheckerboard="true"
     inkscape:deskcolor="#d1d1d1"
     inkscape:document-units="px"
     showgrid="false"
     inkscape:zoom="2.8284271"
     inkscape:cx="-327.21366"
     inkscape:cy="100.40916"
     inkscape:window-width="5120"
     inkscape:window-height="1377"
     inkscape:window-x="-8"
     inkscape:window-y="-8"
     inkscape:window-maximized="1"
     inkscape:current-layer="svg5"
     showborder="false"
     shape-rendering="crispEdges"
     borderlayer="false" /><defs
     id="defs2" /><g
     inkscape:groupmode="layer"
     id="layer3"
     inkscape:label="Layer 2"
     transform="translate(0.7410455,-3.1479883)" /><g
     inkscape:label="Layer 1"
     inkscape:groupmode="layer"
     id="layer1"
     transform="translate(0.7410455,-3.1479883)" /><path
     id="path564"
     style="fill:#ffffff;stroke-width:0.126532"
     d="m 36.501819,0.19941856 c -1.044498,0.1961174 -2.439322,0.4656719 -2.458092,0.469206 -0.02802,0.00526 -0.153661,0.37400954 -0.17113,0.42551494 -7.7e-5,-1.43e-5 -0.0038,-4.782e-4 -0.0038,-4.782e-4 l -0.217351,0.3643062 -1.266397,2.7882973 c 0,0 -0.93361,1.979328 -0.948584,2.0319 -0.01497,0.05257 -0.385205,0.992897 -0.385205,0.992897 l -0.02114,0.09728 -0.484624,0.177476 -1.218679,0.440622 -0.642775,0.450167 -0.03022,-0.0069 -0.386224,0.565335 -1.221051,0.867567 -0.05753,-0.09051 c 0,0 -0.01033,0.03735 -0.01215,0.04381 -0.110624,-0.144617 -0.669886,-0.874267 -0.691626,-0.870173 -0.02401,0.0043 -0.630499,-0.739751 -0.649298,-0.773528 -0.01875,-0.03381 -0.437715,-0.309405 -0.437715,-0.309405 0,0 -0.03596,-0.04534 -0.07429,-0.08208 l 0.01105,-0.0081 -0.822254,-0.443223 -2.739374,0.586037 -1.452031,1.258329 -1.980586,-1.738056 -1.73926,0.292146 -6.052669,3.9185562 -1.916013,5.708457 2.182083,-0.0064 0.400815,0.216261 -2.9099871,2.085748 -0.05586,0.69452 2.8531511,2.535442 9.460295,-7.166724 9.55e-4,-0.0033 0.126531,0.09639 0.06084,0.463582 c 0,0 -2.727509,2.144834 -2.75484,2.163164 -0.02736,0.01832 -0.134137,0.548559 -0.134137,0.548559 0,0 0.01536,0.242376 0.03165,0.487431 l -0.286112,0.41849 c -5.26e-4,9.1e-5 -0.0012,-1.9e-5 -0.0017,8.1e-5 -0.101936,0.01918 -1.266225,1.029716 -1.266225,1.029716 0,0 -1.319451,0.934428 -1.425585,1.024766 -0.106133,0.09034 -2.035532,1.614601 -2.035532,1.614601 l -1.962568,1.442447 -3.7595761,2.924134 -0.90416,0.803647 -0.623604,0.161905 -0.262236,-0.878825 5.1929541,-4.157327 -1.868417,-2.076021 -0.8170521,-0.602637 -1.504098,0.79335 -2.091175,1.41384 -0.970746,0.670331 c -0.02163,0.0055 -0.04208,0.01133 -0.06612,0.01746 l -0.253514,-0.370227 -0.850508,-0.10169 c -0.0022,-0.0024 -0.0052,-0.005 -0.0082,-0.0077 0.204045,-0.15124 0.98952,-0.732825 1.073872,-0.779764 0.09554,-0.05317 1.760266,-0.929421 1.924762,-1.083516 0.164497,-0.1541 1.035817,-0.757818 1.107971,-0.841757 0.07215,-0.08395 0.175046,-0.472831 0.162256,-0.540783 -0.01279,-0.06796 0.05785,-0.626496 0.05785,-0.626496 0,0 0.848023,-0.634726 0.947761,-0.759037 0.09974,-0.124326 0.03263,-0.480937 -0.05551,-0.481937 -0.08814,-9.56e-4 -0.807148,0.0111 -0.807148,0.0111 0,0 -1.012403,0.788616 -1.067569,0.86936 -0.05516,0.08075 -0.413916,0.605827 -0.54763,0.736537 -0.133717,0.130715 -1.449591,1.363492 -1.449591,1.363492 0,0 -0.649697,0.473897 -0.738839,0.56104 -0.08914,0.08715 -0.454136,0.296718 -0.454136,0.296718 L 1.5635479,22.166531 0.9070554,21.762264 c 0,0 -0.217843,0.05862 -0.2560115,0.136205 -0.038177,0.07755 -0.3934261,0.619241 -0.3934261,0.619241 L 0,23.111643 l 0.056556,0.393976 0.320772,1.610655 0.1117566,0.313169 0.3409705,0.129457 c 0,0 0.089854,0.06827 0.1938267,0.141303 -0.1010668,-0.01798 -0.1916732,-0.03635 -0.1916732,-0.03635 l 0.4542307,1.198771 0.2704676,0.969315 0.910807,1.007205 c 0,0 0.004,0.0014 0.0043,9.57e-4 l 0.58456,1.609278 -0.0037,0.0033 0.0084,0.01 0.0047,0.01291 c 0,0 0.0053,-9.57e-4 0.0056,-9.57e-4 l 1.035337,1.219903 0.103483,0.140959 0.04082,-0.0062 0.41637,0.122556 2.113309,-0.314298 c 0,0 0.231376,-0.28986 0.249164,-0.288813 0.01527,9.57e-4 1.281967,-1.096419 1.6823551,-1.441505 l 0.05875,0.01688 -0.04925,-0.02516 c 0.0033,-0.0024 0.01076,-0.0092 0.01385,-0.01191 L 9.38309,29.672156 c 0,0 0.379127,-0.0341 0.436221,0.0049 0.0571,0.03902 0.278641,0.15904 0.278641,0.15904 0,0 0.16905,0.104866 0.255404,0.10105 0.08636,-0.0038 0.321445,-0.01062 0.386742,-0.06024 0.06529,-0.04961 0.376744,-0.245184 0.43681,-0.256489 0.06007,-0.01129 0.326528,-0.248072 0.370058,-0.281147 0.04353,-0.03305 0.344382,-0.350743 0.344382,-0.350743 l 0.490885,-0.366 c 0,0 0.529798,-0.423367 0.589865,-0.434673 0.06007,-0.01129 0.354987,-0.228512 0.415053,-0.239822 0.06007,-0.01129 0.234477,0.05556 0.340334,0.02319 0.105853,-0.03238 0.700381,-0.243888 0.753664,-0.291238 0.05328,-0.04734 0.17107,-0.08181 0.321163,-0.209575 0.150094,-0.127759 0.545649,-0.339261 0.618434,-0.415156 0.07278,-0.07589 0.663508,-0.572666 0.704778,-0.617749 0.04127,-0.0451 0.401476,-0.311954 0.401476,-0.311954 l 0.343773,-0.288517 c 0,0 0.274695,-0.12631 0.395535,-0.211253 0.007,-0.0048 0.01356,-0.0099 0.02033,-0.01487 l 0.713459,-0.12675 0.06118,0.03247 0.179217,-0.07524 0.0949,-0.01688 -0.01545,-0.01645 0.197873,-0.08304 0.482783,-0.42508 0.662234,-0.687446 0.596391,-0.569687 0.179188,-0.07675 0.0024,0.02544 c 0,0 0.24451,0.936586 0.260693,0.989511 0.01621,0.05293 0.605526,0.837592 0.605526,0.837592 l 0.688866,0.784689 0.483993,0.126425 0.217136,-0.0033 -3.3e-4,-0.0043 0.0065,0.0014 0.844451,-0.02267 0.34941,0.120825 c 9.56e-4,0.0081 0.0024,0.01966 0.0024,0.01966 0,0 0.460091,0.388213 0.478178,0.437581 0.01812,0.04937 0.03697,0.476882 0.03697,0.476882 0,0 -0.06195,0.09086 0.171106,0.02061 0.233056,-0.07024 0.925256,-0.270984 0.983117,-0.290668 0.05786,-0.0197 0.370336,-0.227929 0.452582,-0.304982 0.08225,-0.07705 0.400743,-0.348056 0.426725,-0.396921 0.02597,-0.04888 0.2233,-0.262099 0.274767,-0.315761 0.05146,-0.05368 0.220522,-0.463769 0.229517,-0.509435 0.009,-0.04567 -0.04596,-0.430957 -0.05393,-0.473429 -0.0059,-0.03118 0.01263,-0.109677 0.0094,-0.146616 0.04514,-0.03099 0.09143,-0.06599 0.09143,-0.06599 0,0 -0.0024,-0.0066 -0.0029,-0.0073 l 0.04514,-4.79e-4 0.387075,-0.512682 0.640632,-1.316586 -0.257111,-0.804848 c 0,0 -0.0033,-0.0057 -0.009,-0.01315 0.05203,-0.02458 0.113474,-0.05377 0.172124,-0.08219 l 0.309559,0.129582 0.519377,-0.04495 0.569443,-0.292017 1.540642,-1.020017 0.08349,-0.112279 9.56e-4,-4.16e-4 -9e-5,-4.73e-4 0.638834,-0.858567 1.265469,-1.407795 c 0,0 1.515865,-2.132405 1.55035,-2.182887 0.03448,-0.05048 1.384179,-1.852616 1.384179,-1.852616 l 0.646395,-0.957311 0.443478,-0.822298 0.252759,-0.759994 0.05101,-0.475839 0.05025,-0.387668 -0.106258,-0.05016 -9.56e-4,0.0142 -0.0019,-0.07534 -0.871183,-0.552213 0.0095,-0.0068 0.44782,-0.6121352 1.179822,-1.48874 0.79843,-1.926883 0.950803,-1.023412 L 38.886658,2.4231986 38.467345,1.3591795 38.420385,1.2312194 37.910501,0.63589926 c 2.4e-5,-1.148e-4 4.78e-4,-0.00383 4.78e-4,-0.00383 0,0 -0.142436,-0.2355714 -0.228565,-0.3819673 -0.01583,-0.076215 -0.0484,-0.2305213 -0.05197,-0.24948310211 C 37.628544,-0.00842114 37.128163,0.08270186 36.501457,0.20032776 Z m -1.042016,0.2275754 0.168304,-0.031659 0.154215,0.027068 0.07798,0.5451011 0.04352,0.16582644 0.218551,-0.1281466 c 0,0 0.544279,-0.44453894 0.562643,-0.47909104 0.01836,-0.034528 0.332279,-0.3173727 0.344627,-0.3507914 0.01081,-0.02922 0.250913,-0.018747 0.313676,-0.015543 l -0.372044,0.4990394 c 0,0 -0.36906,0.41765284 -0.434353,0.46726444 -0.0653,0.049616 -0.484982,0.2655899 -0.600595,0.3122126 -0.115617,0.046627 -0.509037,0.07095 -0.629174,0.093561 -0.120131,0.02262 -0.434122,-0.1920573 -0.481476,-0.2453417 -0.03965,-0.044571 -0.654544,-0.1447746 -0.863602,-0.1779399 -0.0058,-0.058478 0.08977,-0.22713074 0.08977,-0.22713074 0,0 0.375043,0.13990634 0.404468,0.14215404 0.02941,0.00239 0.487604,0.1710007 0.487604,0.1710007 l 0.229659,0.080496 0.313571,0.023959 c 0,0 0.0705,-0.088009 0.06295,-0.161221 -0.0076,-0.073208 -0.07575,-0.40243074 -0.07575,-0.40243074 z m 2.388933,0.4566429 0.437647,0.60564994 -0.825119,1.6764601 -1.323612,2.6700649 -0.613168,0.01961 c 0.109438,-0.231564 0.239675,-0.55359 0.291534,-0.563351 0.0841,-0.01583 -0.03128,-0.429412 -0.03128,-0.429412 l 0.02917,-0.24187 c 0,0 1.429387,-2.5826491 1.487898,-2.6683001 0.05852,-0.085642 0.502429,-0.96544634 0.52943,-1.02028984 0.005,-0.010186 0.01124,-0.028072 0.0175,-0.048555 z m -4.920654,3.67077594 0.510023,0.06569 c 0,0 1.256957,0.136587 1.305009,0.127544 0.04806,-0.009 0.727005,0.161656 0.727005,0.161656 0,0 0.174497,0.265705 0.188064,0.337788 0.01358,0.07208 -0.41639,0.563499 -0.443391,0.618338 l -0.07724,0.0024 -0.143268,0.0418 0.0083,-0.0121 -0.01875,0.01511 -0.01712,0.0052 -0.0132,0.01932 -0.18025,0.144578 c 0,0 -0.691287,1.466995 -0.678499,1.534947 0.0121,0.0644 -0.839758,0.911531 -0.930095,1.001161 l -0.443286,0.207413 -2.061335,-0.298014 0.789587,-1.214614 0.02831,-0.02214 0.02496,-0.05977 0.03023,-0.04644 -0.01267,0.0048 0.206298,-0.492486 0.392785,-1.019467 c 0,0 0.579261,-0.755743 0.616004,-0.824852 0.03673,-0.06911 0.192698,-0.297545 0.192698,-0.297545 z m 1.99444,1.460328 0.120356,-0.01927 c 0,0 0.04725,0.01736 0.05286,0.04715 0.0056,0.02975 0.01339,0.164708 0.01339,0.164708 0,0 0.01373,0.07225 -0.0033,0.09749 -0.01726,0.02525 -0.04846,0.07062 -0.0572,0.09425 -0.0088,0.02362 -0.04309,0.144545 -0.04333,0.166582 -2.29e-4,0.02205 -0.143865,0.286488 -0.152607,0.310122 -0.0088,0.02363 -0.06991,0.167089 -0.089,0.205864 -0.01908,0.03879 -0.05518,0.173091 -0.05518,0.173091 0,0 -0.0132,0.116788 -0.0177,0.139629 -0.0024,0.01315 -3.82e-4,0.05898 0.0019,0.09667 l -0.0051,0.05553 -0.251932,0.199311 c 0,0 -0.114918,-0.330217 -0.05654,-0.39398 0.05836,-0.06376 0.361274,-1.070619 0.361274,-1.070619 z m -19.421415,5.1544372 1.577448,2.025176 2.554809,-0.445658 0.708561,0.219948 -0.01396,0.265164 c -0.59421,0.412521 -4.473356,3.241559 -4.473356,3.241559 l -1.979921,1.442443 -0.940653,-0.205185 c 0.09232,-0.0848 0.494003,-0.453573 0.640025,-0.58368 l 0.915553,-0.491951 -1.097273,-1.904322 0.287018,-2.587359 z m 7.611994,-1.05181 0.767138,-0.103422 c 0,0 0.910211,-0.02209 0.9365,-0.01459 0.02625,0.0075 0.520247,0.219455 0.536784,0.241219 0.01655,0.02176 0.208561,0.414664 0.213085,0.438695 0.0043,0.02401 0.127276,0.08166 0.127276,0.08166 l 0.237958,-0.0571 0.403072,0.291026 c 0,0 0.184353,0.251392 0.171632,0.315982 -0.01272,0.06459 -0.01148,0.26964 -0.05422,0.339887 -0.04275,0.07024 -0.234873,0.404817 -0.234873,0.404817 l -0.16498,0.379347 -0.0175,1.757314 -0.419346,0.613813 -0.370131,0.411671 -0.225227,0.191516 -0.06857,0.06723 c -0.04882,0.02166 -0.423879,0.18717 -0.502644,0.201995 -0.08409,0.01583 -0.54369,-0.04677 -0.54369,-0.04677 l -0.56038,-0.267712 -0.506584,-0.377415 c 0,0 -0.424573,-0.604148 -0.486197,-0.667179 -0.06162,-0.06303 -0.235294,-0.391001 -0.235294,-0.391001 0,0 -0.180456,-0.364153 -0.189499,-0.412206 l -0.122107,-0.6487 -0.06412,-0.473022 c 0,0 0.0086,-0.349825 0.02133,-0.414415 0.01272,-0.06459 0.161269,-0.465901 0.161269,-0.465901 l 0.505394,-0.816607 0.677891,-0.562896 z m 0.125468,0.253759 -0.446714,0.270673 0.05485,0.02693 c 0,0 -0.627883,0.827295 -0.631565,0.939928 -0.0038,0.112642 -0.214166,0.711936 -0.21035,0.79829 0.0038,0.08635 0.05052,0.400987 0.08511,0.518861 0.03462,0.117864 0.534986,1.45415 0.534986,1.45415 0,0 0.502582,0.490109 0.571686,0.526856 0.06911,0.03673 0.643712,0.314059 0.715083,0.362814 0.07137,0.04876 0.394516,0.112337 0.478608,0.09651 0.0841,-0.01583 0.517225,-0.15949 0.560754,-0.192559 0.04352,-0.03305 0.442406,-0.754858 0.53173,-0.808989 0.08248,-0.04997 0.163985,-0.629815 0.176476,-0.721745 l 0.04457,0.04567 -0.03128,-0.827486 -0.332767,-1.305626 -0.388629,-0.611107 -0.604148,-0.433482 c 0,0 -0.3906,-0.225112 -0.476954,-0.221296 -0.08636,0.0038 -0.631421,0.08162 -0.631421,0.08162 z m 5.45181,-0.9985452 3.769626,0.6803352 0.01181,0.01062 -5.03925,6.177644 -1.199808,-0.654822 0.26624,-1.174696 c 0,0 0.74855,-0.835741 0.817004,-0.892607 0.06845,-0.05688 0.41914,-0.624392 0.438728,-0.707235 0.01961,-0.08285 -0.03042,-0.768096 -0.03152,-0.820663 -9.56e-4,-0.05257 -0.08761,-0.792781 -0.09721,-0.843751 -0.0096,-0.05096 -0.140556,-0.466178 -0.140556,-0.466178 l -0.01406,-0.02927 z m 6.620145,-1.046683 0.25768,0.297526 -2.253989,2.0424832 -5.219519,6.101682 -0.612776,-0.237475 c 0.418347,-0.419446 5.453771,-6.285337 5.453771,-6.285337 l -0.0043,-0.0024 1.104889,-0.9716922 0.0362,0.0038 z m 0.493562,0.162593 0.804532,1.082537 -0.06441,0.08531 -0.94779,-0.943165 z m -0.301299,0.32579 -0.01497,0.03529 0.858868,1.069294 -0.364249,0.4829892 -0.04443,-9.57e-4 0.331399,1.573449 0.880159,-0.4355 -0.02683,0.389299 -0.376965,0.941797 -0.646849,1.141981 -1.632185,2.124863 -0.998439,-5.122654 z m -11.52913,2.4882172 c 0.06007,-0.01129 0.543619,0.04682 0.612728,0.08359 0.0691,0.03673 0.388366,0.411986 0.388366,0.411986 0,0 0.17617,0.340199 0.163449,0.404788 -0.01272,0.06458 0.219111,0.767273 0.228159,0.81533 0.0043,0.02181 -0.0088,0.07737 -0.02372,0.13171 l -0.0019,-0.0024 -0.344125,0.947939 c 0,0 -0.294179,0.353871 -0.354244,0.365176 -0.06007,0.01129 -0.590705,0.09888 -0.590705,0.09888 L 23.59604,13.923782 23.455025,13.04226 23.420875,12.663177 c 0,0 -0.01535,-0.544604 0.01167,-0.599438 0.02702,-0.05484 0.251281,-0.582178 0.251281,-0.582178 0,0 0.229675,-0.167462 0.289745,-0.178767 z m 9.398926,-0.184864 c 0.04912,0.26306 0.929904,5.028203 0.960607,5.194149 l -1.429603,1.938616 -1.76673,2.17961 -0.163287,0.217327 -1.001586,-5.852834 z m -10.496497,5.001699 c 0.0296,-0.0029 0.06616,-0.0064 0.102436,-0.01023 l 0.0091,0.02496 c 0.006,0.03974 0.05417,0.352159 0.05952,0.381594 -0.02506,0.108525 -0.05259,0.230775 -0.07705,0.336134 l -0.07443,0.267239 c -0.01009,0.02147 -0.02195,0.04841 -0.03372,0.07601 l -0.0014,4.79e-4 c -0.0071,-0.04802 -0.06468,0.01023 -0.09339,0.0075 -0.02449,-0.0024 -0.106086,-0.03921 -0.140662,-0.05525 0.01841,-0.17958 0.09148,-0.73426 0.103235,-0.751467 0.01377,-0.02013 0.126588,-0.239354 0.136133,-0.258742 0.0014,-0.0033 0.0054,-0.0099 0.01014,-0.01827 z m 6.936848,-1.145017 0.986393,5.880343 -0.266671,0.221196 -1.584482,0.970176 -0.885486,-5.06772 0.07677,0.02707 z m -3.905228,1.04413 c 0.112575,0.04591 0.410011,0.16629 0.75447,0.295551 l -1.370306,0.189527 -0.522208,0.358568 0.713318,-0.605775 -0.01066,-0.0073 0.05888,-0.0091 0.168806,0.0057 z m -0.524929,0.547181 1.025665,-0.158117 0.124846,-0.03281 c 0.03658,0.02716 0.172536,0.136803 0.103762,0.218619 -0.07905,0.09404 -0.79984,0.704543 -0.79984,0.704543 l -0.437581,0.478182 c 0,0 -0.253882,0.707422 -0.281467,0.747799 -0.02759,0.04036 -0.160059,0.645979 -0.160059,0.645979 l -0.187059,0.50119 c 0,0 -0.0029,0.09483 0.0064,0.152948 l -0.02009,0.0081 0.748751,2.902383 -0.574584,0.125765 -0.0038,0.02334 -0.688943,-1.038912 c 1.67e-4,-4.78e-4 9.56e-4,-0.0067 9.56e-4,-0.0067 0,0 -0.0053,4.78e-4 -0.0058,1.15e-4 l -0.0048,-0.0077 -0.0077,0.0083 c -0.0024,1.39e-4 -0.0077,4.79e-4 -0.01124,4.79e-4 -0.06312,-0.246681 -0.181355,-1.017014 -0.181355,-1.017014 L 23.8801,20.406009 c 0.0061,-0.02453 0.0098,-0.04156 0.0098,-0.04156 l -0.07676,-0.407772 0.309468,-0.08468 -0.01282,-0.20857 c 0,0 -0.314446,-0.222229 -0.354823,-0.249813 -0.04036,-0.02759 -0.09689,-0.281013 -0.09689,-0.281013 l 0.278708,-0.949464 0.487384,-0.681191 0.330567,-0.440187 z m 1.321345,-0.235868 c 0.0057,0.0024 0.01138,0.0043 0.01712,0.0066 l -0.10788,0.01741 z m -2.386039,0.916103 -0.507101,0.68867 c 0,0 -0.403196,1.175352 -0.420675,1.222629 -0.01746,0.0473 -0.164353,1.182946 -0.156357,1.225432 l -0.07668,0.07227 c -0.02171,0.0014 -0.227288,0.01865 -0.267167,0.02616 l -0.160777,0.03027 c -0.0024,-0.0019 -0.0055,-0.0033 -0.0087,-0.0048 -0.06685,-0.02473 -1.253843,0.211091 -1.253843,0.211091 l -0.173411,-0.129056 -0.448819,0.0029 c 0.0029,-0.03979 0.0054,-0.07472 0.0074,-0.104996 l 0.238187,-0.184147 c 0,0 2.135216,-2.020432 2.173389,-2.097982 0.03816,-0.07755 0.702634,-0.659847 0.702634,-0.659847 z m 2.270666,-0.389447 0.246924,-0.0014 c 0,0 0.07132,0.285595 0.06235,0.331275 -0.0089,0.04567 0.174114,0.644439 0.174114,0.644439 l 0.02893,0.434372 c 0,0 -0.193707,0.185912 -0.335923,0.318224 -0.142207,0.132317 -0.32217,0.157443 -0.330166,0.114957 -0.0066,-0.0352 -0.185467,-0.3717 -0.249377,-0.491209 l -0.105402,-0.646812 c 0,0 -0.04978,-0.098 -0.09826,-0.178662 0.06214,-0.07418 0.128013,-0.151269 0.168424,-0.195409 0.05088,-0.05556 0.266063,-0.20958 0.438365,-0.329711 z m 0.933964,-0.06817 0.371394,0.130767 0.937781,5.16777 c -0.0418,0.0132 -0.06076,0.0187 -0.09154,0.02802 -0.03812,-0.16465 -0.428394,-1.346118 -0.427414,-1.430392 9.57e-4,-0.08815 -0.291773,-1.035732 -0.299769,-1.078217 -0.008,-0.04247 -0.221325,-0.9434 -0.241023,-1.001266 -0.0197,-0.05786 -0.07961,-1.216522 -0.094,-1.292977 -0.01047,-0.05566 -0.09269,-0.343513 -0.155415,-0.523734 z m -1.73246,0.850666 0.04242,0.05565 c 0,0 0.120767,0.267513 0.133555,0.335474 0.01277,0.06795 0.161809,0.391871 0.21606,0.539975 0.05426,0.148107 0.01023,0.288363 0.0088,0.420574 -0.0014,0.132217 -0.157993,0.328588 -0.207265,0.487389 -0.04927,0.158796 -0.180747,0.394673 -0.245514,0.424429 -0.06476,0.02975 -0.537306,-0.611322 -0.582986,-0.620289 l -0.01119,-0.01019 c 0.04581,-0.163507 0.0933,-0.310912 0.111739,-0.34292 0.03979,-0.06906 0.280362,-0.800399 0.280362,-0.800399 0,0 0.174884,-0.342078 0.254108,-0.48967 z m -6.52164,2.531947 -0.0083,0.03625 c 0.07116,0.0043 0.662138,0.526178 0.730095,0.51339 0.05301,-0.01 0.230488,0.09255 0.307851,0.139203 0.0029,0.01033 0.119849,0.449795 0.152431,0.530587 0.033,0.08174 0.399672,0.628385 0.399672,0.628385 0,0 -0.06211,0.697771 -0.148056,0.801906 -0.08595,0.104125 -0.368223,0.473926 -0.368223,0.473926 0,0 -0.496627,0.445337 -0.568788,0.529286 -0.07215,0.08394 -0.535866,0.610901 -0.59103,0.691645 -0.05517,0.08075 -0.433023,0.50373 -0.433023,0.50373 l -0.557559,0.244261 -0.20627,-0.219432 -0.374677,-0.999243 -0.264316,-1.007439 -0.431554,-0.839151 -0.02715,-0.178973 0.789603,-0.545192 0.773841,-0.655649 -0.0014,-0.008 z m -3.505177,1.635734 c 0.03477,-0.0075 0.06535,-0.0059 0.08806,0.0096 0.106273,0.0726 0.644564,0.266436 0.781296,0.315139 l 0.09391,0.100773 0.03389,0.379126 c 0,0 0.300794,0.341375 0.34814,0.39466 0.04734,0.05328 0.260784,0.460956 0.27435,0.533035 0.01357,0.07208 0.0057,0.558659 0.01403,0.669039 0.0083,0.110381 0.03038,0.491879 -0.04453,0.754753 -0.03163,0.110997 -0.06699,0.24614 -0.09775,0.366439 -0.134145,0.01325 -0.321852,0.04827 -0.321852,0.04827 0,0 -0.342843,0.42539 -0.426935,0.44122 -0.08409,0.01583 -0.398384,0.261582 -0.398384,0.261582 l -0.45555,0.421459 -0.503591,0.430762 -0.372906,0.33147 -0.290551,0.241282 -0.333307,0.211861 -0.292812,0.03022 -0.06615,-0.08688 -0.345423,0.01521 -0.259151,0.01133 -0.16887,0.09415 -0.853325,0.620814 -0.184518,0.208748 -0.602617,0.499186 -0.297101,0.40421 -0.429481,0.229961 c 0,0 -0.184529,0.0098 -0.237104,-0.0052 -0.05257,-0.01497 -0.470384,-0.18506 -0.470384,-0.18506 l -0.11486,-0.214764 -0.227687,-0.01927 -0.449798,-0.07703 -0.05597,0.02865 -0.105686,-0.446586 c 0,0 -0.480912,0.248733 -0.6751891,0.338076 -0.194276,0.08934 -0.312175,0.02353 -0.312175,0.02353 l -0.126558,-0.204769 0.0051,-0.440771 0.20501,-0.126601 0.4147801,-0.412283 0.298217,-0.284719 0.06025,-0.521582 -0.06815,-0.268569 0.696391,-0.412478 c 0,0 0.903224,-0.715485 0.998763,-0.768645 0.09554,-0.05316 0.910758,-0.488029 0.910758,-0.488029 l 0.709496,0.218259 1.053011,-0.761003 0.284219,-0.546129 c 0,0 0.122801,-0.374971 0.11001,-0.442932 -0.01279,-0.06796 0.498873,-0.621489 0.498873,-0.621489 l 1.330982,-1.059763 c 0,0 0.228259,-0.205591 0.378876,-0.238297 z m 5.049675,-0.803632 1.60418,-0.249646 -0.08522,0.299449 -1.519414,0.297822 c -0.01851,-0.06603 -0.02874,-0.114144 -0.02439,-0.129447 0.0064,-0.02243 0.01545,-0.110127 0.02482,-0.218174 z m 1.863797,-0.285183 0.443137,-0.0065 0.276489,0.246456 0.08912,0.27569 0.03898,0.272543 0.04901,0.230933 c -0.0048,9.56e-4 -0.0086,0.0019 -0.011,0.0043 -0.02664,0.02372 -0.361992,0.223797 -0.361992,0.223797 l -0.112757,0.09566 -0.512074,-0.705805 -0.008,-0.471267 z m 1.132319,-0.116569 0.162574,0.337301 0.116636,0.90824 c -0.115636,0.0079 -0.264873,0.02104 -0.327239,0.03969 l 0.0132,-0.110366 c 0,0 -0.0054,-0.0019 -0.0065,-0.0024 l -0.154726,-0.788664 -0.112083,-0.19869 0.01119,9.56e-4 c 0,0 0.240889,-0.168566 0.283375,-0.176562 0.0043,-9.57e-4 0.0089,-0.0048 0.01349,-0.0099 z m -2.915913,1.005532 0.03051,0.05914 1.489524,-0.316331 0.545144,0.837391 -1.433662,0.292481 -0.199322,0.03123 -0.189345,-0.113484 0.04094,0.06396 -0.045,-0.02774 c -0.0099,-0.07861 -0.01999,-0.14508 -0.02683,-0.181297 -0.01483,-0.07868 -0.125201,-0.385343 -0.212,-0.645352 z m 6.121772,-0.387821 0.150035,0.169169 -0.161134,0.800586 c 0,0 -0.737498,1.309404 -0.875984,1.469023 -0.05678,-0.0757 -0.13852,-0.19969 -0.189475,-0.294518 l 0.02195,-0.03706 c 0,0 -0.0603,-0.366889 -0.100673,-0.394473 -0.04036,-0.02759 0.02855,-0.269167 0.02855,-0.269167 l 0.300821,-0.364426 c 0,0 0.265729,-0.410642 0.300219,-0.461129 0.03448,-0.05048 0.263112,-0.330921 0.263112,-0.330921 z m -2.918533,0.963533 -0.0019,0.0061 c 0,0 0.204261,0.160556 0.250903,0.276168 0.04663,0.115607 0.291491,0.293418 0.332896,0.447322 0.0143,0.05272 0.03539,0.09531 0.06012,0.135043 l -0.206169,0.07905 c 0,0 -1.017536,0.278573 -1.116606,0.346979 -0.09908,0.0684 -0.799505,0.312184 -0.95568,0.341581 -0.02841,0.0054 -0.08567,0.01224 -0.159935,0.02004 -0.0038,-0.04304 -0.0285,-0.09649 -0.0285,-0.09649 0,0 -0.102413,-0.279449 -0.151312,-0.407069 -0.04889,-0.127626 -0.06772,-0.161245 -0.104589,-0.291132 -0.0099,-0.0341 -0.01755,-0.06409 -0.02425,-0.08999 0.07722,-0.01014 0.137644,-0.01836 0.152675,-0.02119 0.07208,-0.01358 0.26337,-0.186395 0.366965,-0.23077 0.103599,-0.04438 0.724432,-0.248397 0.782236,-0.27172 0.05096,-0.02056 0.634272,-0.189777 0.803053,-0.243946 z m -21.1595171,4.178212 0.128588,0.02582 0.199798,0.127611 0.536669,0.53722 c 0.0082,0.03883 0.01506,0.08646 0.01877,0.139801 l -0.413241,0.742428 c -0.0025,-0.0019 -0.01022,-0.0073 -0.01394,-0.0099 2.05e-4,-5.2e-5 0.0029,-9.56e-4 0.0029,-9.56e-4 l -0.755292,-0.684673 -0.04259,-0.247728 z M 21.148336,23.057763 c 0.011,-0.0014 0.07248,-0.0093 0.09849,-0.01253 l 0.170896,0.849241 c -0.102255,0.0024 -0.174224,-3.01e-4 -0.188189,-0.0099 l -0.102943,-0.01784 -0.06484,0.298129 -0.0033,4.78e-4 c 0,0 0.0014,0.0066 0.0014,0.0075 l -0.0067,0.03094 0.01277,9.56e-4 c 0.01516,0.07816 0.05112,0.258651 0.06775,0.294547 0.02109,0.04581 0.14058,0.284609 0.14058,0.284609 l 0.214951,0.28293 0.226834,0.08153 0.234524,0.113025 0.216576,0.498641 0.139495,0.316249 -0.240789,-0.0608 -0.358654,-0.386395 c 0,0 -0.641249,-0.762491 -0.651775,-0.785388 -0.01052,-0.02286 -0.250788,-0.605923 -0.258345,-0.67913 -0.0076,-0.07321 -0.01368,-0.370609 -0.01368,-0.370609 0,0 0.144493,-0.0582 0.178978,-0.139304 0.03448,-0.08113 0.03754,-0.36147 0.02587,-0.390375 -0.0038,-0.0092 -0.01889,-0.02147 -0.03754,-0.03367 0.08776,-0.06767 0.164315,-0.132063 0.19749,-0.17322 z m 0.23362,-0.02936 c 0.137567,-0.01731 0.225088,-0.02841 0.387543,-0.0493 l -0.023,0.14893 0.147343,0.320553 0.123269,0.411594 c -0.145478,0.01152 -0.302988,0.0219 -0.439264,0.02836 z m 6.06535,-0.592709 c 0.03941,0.09863 0.09914,0.251486 0.106669,0.291495 0.01119,0.05946 0.0077,0.508536 0.0077,0.508536 l -0.291276,0.741094 -0.421608,0.522954 c -0.008,-0.01286 -0.01535,-0.02214 -0.02157,-0.02635 -0.05049,-0.03448 -0.283629,-0.245447 -0.35698,-0.35478 -0.02142,-0.03195 -0.05188,-0.07706 -0.08437,-0.124938 0.05097,-0.02974 0.125306,-0.08485 0.177433,-0.174224 0.08645,-0.148203 0.420163,-0.712405 0.43387,-0.873305 0.01373,-0.160896 0.257216,-0.409026 0.257216,-0.409026 z M 3.8225589,27.225552 c 1.5e-5,3.3e-4 1.35e-4,4.59e-4 1.77e-4,9.56e-4 -1.16e-4,1.29e-4 -3.26e-4,2.06e-4 -4.25e-4,3.3e-4 z M 25.187597,23.281496 c 0.159035,-0.01999 0.575669,-0.06787 0.575669,-0.06787 l 0.28942,0.649145 -9.56e-4,0.229005 -0.318224,0.03678 z m -0.268766,0.05107 c 0.07971,0.163058 0.190843,0.411025 0.212406,0.464467 0.02037,0.05056 0.218661,0.373603 0.270506,0.457815 l -0.804474,0.339275 c 0,0 -0.581753,0.345885 -0.834029,0.393373 -0.186892,0.0352 -0.358486,0.074 -0.435323,0.09201 -0.06518,-0.05214 0.02429,-0.09396 2.82e-4,-0.221598 -0.02712,-0.144162 -0.05192,-0.276446 -0.07296,-0.322236 -0.02109,-0.04581 -0.166028,-0.155162 -0.208145,-0.246748 -0.04209,-0.09158 -0.04582,-0.177968 -0.04582,-0.177968 l -0.03128,-0.02578 0.493548,-0.160795 z m -3.751285,0.881374 0.163497,0.01224 0.431981,-0.01894 0.515121,0.02726 0.04809,-0.009 c 0,0 -0.01856,0.364249 0.0483,0.388988 0.06685,0.02472 0.191517,0.225232 0.191517,0.225232 0,0 0.0075,-0.02635 0.04438,0.103546 0.02152,0.07579 0.02501,0.167433 0.0241,0.230842 -0.146209,-0.04701 -0.34917,-0.10754 -0.34917,-0.10754 0,0 -0.376951,-0.152722 -0.439283,-0.153445 -0.04668,-4.78e-4 -0.205625,0.0043 -0.299143,0.0073 -0.03324,-0.02879 -0.05763,-0.05228 -0.05763,-0.05228 l -0.158634,-0.380542 z m 1.387222,-0.03152 0.199881,-0.03764 c 0.0055,0.01616 0.01129,0.03921 0.01731,0.07142 0.01583,0.08409 0.03242,0.10598 0.05574,0.163779 0.02334,0.0578 0.01583,0.08397 0.03161,0.168065 0.01583,0.08409 0.07293,0.123149 0.199135,0.1989 0.126209,0.07576 0.04223,0.09157 0.04605,0.177926 0.0038,0.08636 -0.01047,0.07664 0.0144,0.208781 4.78e-4,0.0038 0.0014,0.0072 0.0024,0.01062 -0.06226,0.01989 -0.132144,0.04137 -0.193898,0.05737 0.01712,-0.01769 0.02692,-0.03816 0.01879,-0.06038 -0.02558,-0.06981 -0.06692,-0.223702 -0.114249,-0.276991 -0.04734,-0.05328 -0.0473,-0.0534 -0.08714,-0.132972 -0.03984,-0.07957 0.023,-0.141245 -0.08821,-0.269568 -0.06617,-0.07635 -0.09182,-0.19531 -0.101868,-0.279325 z m -19.1299851,3.763505 0.01281,-0.0014 c -8.61e-4,4.78e-4 -0.0076,0.0053 -0.0076,0.0053 0,0 -0.005,-0.0033 -0.0052,-0.0033 z m 22.7944521,-3.665903 0.178518,0.38862 0.146257,0.262668 -0.18936,0.114861 -0.0024,0.04194 -0.469885,-0.728837 0.03357,0.03945 z m -0.625148,0.216495 c 0.01186,0.01698 0.02085,0.03176 0.02501,0.04208 0.02334,0.0578 0.269832,0.309875 0.307425,0.377434 0.03759,0.06756 0.178203,0.352217 0.178203,0.352217 l 0.155162,0.09754 -0.77963,0.41783 c 0,0 -0.770768,0.331792 -0.893157,0.342394 -0.07305,0.0063 -0.297545,0.03448 -0.494246,0.0596 l -0.0043,-0.06529 c 0,0 -0.148151,-0.258072 -0.157199,-0.30613 -0.009,-0.04805 -0.119414,-0.238756 -0.18782,-0.337831 -0.0684,-0.09908 -0.08145,-0.23363 -0.08145,-0.23363 l 0.392685,-0.160919 1.07366,-0.376114 z m -3.571327,0.703176 0.295107,-0.02736 0.38387,0.189025 0.63738,0.01683 0.09644,0.181015 0.14136,0.42101 0.0079,0.235652 -0.600265,-0.012 -0.301744,-0.03199 -0.173755,-0.044 -0.107506,-0.311959 c 0,0 -0.223286,-0.393321 -0.248871,-0.463142 -0.02559,-0.06981 -0.06306,-0.137252 -0.06306,-0.137252 l -0.04185,0.01129 c -0.0081,-0.0089 -0.0165,-0.01789 -0.02496,-0.02721 z" /><path
     style="fill:#ffffff;stroke-width:0.264583"
     d="m 6.5817663,19.475185 3.9288617,-2.549084 c 0,0 -1.73057,-0.163702 -1.870886,-0.09354 -0.140317,0.07016 -2.5256974,1.824115 -2.5256974,1.824115 z"
     id="path1409" /><path
     style="fill:#ffffff;stroke-width:0.264583"
     d="m 2.3750739,23.142629 1.6040364,0.545703 c 0,0 -0.7441406,0.661458 -0.8102864,0.661458 -0.066146,0 -1.405599,-0.446484 -1.4386719,-0.545703 -0.033073,-0.09922 0.6449219,-0.661458 0.6449219,-0.661458 z"
     id="path1411" /><path
     style="fill:#ffffff;stroke-width:0.264583"
     d="m 5.880803,22.051222 -2.8442708,1.686719 c 0,0 1.0914062,0.06615 1.190625,0.01654 0.099219,-0.04961 2.0174479,-1.157552 2.0174479,-1.223698 0,-0.06615 -0.3638021,-0.479558 -0.3638021,-0.479558 z"
     id="path1415" /><path
     style="fill:#ffffff;stroke-width:0.264583"
     d="m 3.0572028,22.768492 c -0.010335,0.01447 -0.5643068,0.473355 -0.5932456,0.463021 -0.028939,-0.01034 -0.1591633,-0.09302 -0.1488281,-0.126093 0.010335,-0.03307 0.5043619,-0.320392 0.5891114,-0.378269 0.084749,-0.05788 0.1529623,0.04134 0.1529623,0.04134 z"
     id="path1417" /><path
     style="fill:#ffffff;stroke-width:0.223238"
     d="m 8.7690602,27.18618 c 0.1185951,-0.05581 2.8811628,-2.050998 2.8811628,-2.050998 l -2.811401,1.548712 -0.2232378,0.481357 0.2790473,-0.02791 z"
     id="path2339" /><path
     style="fill:#ffffff;stroke-width:0.223238"
     d="m 8.7830126,27.723346 -0.034881,0.885975 0.8371418,0.23719 0.8720226,-0.627857 1.109213,1.088285 -0.572047,0.523213 -0.648785,0.118595 -1.6324263,-0.05581 -1.1022367,-0.38369 c 0,0 -0.5511184,-0.885975 -0.4883327,-0.885975 0.062786,0 1.0254987,-0.934808 1.1859508,-0.976665 0.1604522,-0.04186 0.4743804,0.07674 0.4743804,0.07674 z"
     id="path2341" /><path
     style="fill:#ffffff;stroke-width:0.223238"
     d="m 6.7599199,31.657912 c 0.1046428,-0.02791 2.2044734,-1.883569 2.2044734,-1.883569 H 8.3016561 l -1.5068553,1.541736 -0.1395236,0.286023 z"
     id="path2343" /><path
     style="fill:#ffffff;stroke-width:0.223238"
     d="m 10.987486,29.844105 2.755592,-1.911474 h -0.509262 c 0,0 -1.492902,1.088284 -1.576617,1.15107 -0.08371,0.06279 -0.732499,0.690642 -0.732499,0.690642 z"
     id="path2345" /><path
     style="fill:#ffffff;stroke-width:0.223238"
     d="m 10.429391,28.28144 6.494825,-5.211208 0.244167,-0.167428 0.313928,0.885975 -0.01395,1.478951 -2.664902,2.09983 -0.579023,0.355786 -2.811401,1.513831 z"
     id="path2347" /><path
     style="fill:#ffffff;stroke-width:0.223238"
     d="m 10.666582,29.913867 0.265095,-0.02092 3.216019,-2.092854 c 0,0 -0.885975,0.125571 -0.927832,0.139523 -0.04186,0.01393 -2.553282,1.974249 -2.553282,1.974249 z"
     id="path2349" /><path
     style="fill:#ffffff;stroke-width:0.223238"
     d="m 14.384886,27.716369 0.390667,-0.202309 2.616068,-1.932402 0.94876,-0.139524 0.474381,-0.320904 c 0,0 -0.06279,-0.132548 -0.111619,-0.132548 -0.04883,0 -0.488333,0.181381 -0.488333,0.181381 l -0.286023,-0.348809 -3.795043,2.783496 z"
     id="path2351" /><path
     style="fill:#ffffff;stroke-width:0.223238"
     d="m 16.526574,22.072638 c 0,0.03488 0.139524,0.627857 0.139524,0.627857 l 0.306952,0.425547 c 0,0 0.216261,-0.09069 0.223238,-0.139524 0.007,-0.04883 -0.432524,-1.00457 -0.432524,-1.00457 z"
     id="path2353" /><path
     style="fill:#ffffff;stroke-width:0.223238"
     d="m 10.349235,26.035873 c 0.0296,-0.01973 1.322019,-0.922452 1.322019,-0.922452 0,0 -0.710338,-0.06906 -0.774466,0 -0.06413,0.06906 -0.863259,0.754733 -0.84846,0.774465 0.0148,0.01973 0.300907,0.147987 0.300907,0.147987 z"
     id="path2357" /><path
     style="fill:#ffffff;stroke-width:0.223238"
     d="m 13.165924,24.703989 0.394633,-0.345302 0.03453,-0.739937 -0.661009,0.690606 z"
     id="path2359" /><path
     style="fill:#ffffff;stroke-width:0.223238"
     d="m 13.56549,23.717408 c 0.02466,-0.0049 2.205008,-1.820241 2.205008,-1.820241 l 0.73007,0.246645 0.128256,0.601815 -0.147988,0.744868 0.680741,-0.498224 -0.552485,-1.34175 c 0,0 -1.169098,0.09866 -1.18883,0.09866 -0.01973,0 -2.096485,1.815309 -2.096485,1.815309 z"
     id="path2361" /><path
     style="fill:#ffffff;stroke-width:0.223238"
     d="m 12.105419,25.475272 0.651074,0.106774 -0.0099,0.878057 0.947118,-0.808996 -0.956984,-0.779399 -0.73007,0.562352 z"
     id="path2369" /><path
     style="fill:#ffffff;stroke-width:0.223238"
     d="m 17.607882,24.277112 c 0,0 0.558095,0.348809 0.613904,0.362761 0.05581,0.01395 0.572047,-0.01395 0.572047,-0.01395 l 0.279047,-0.06976 h 0.08371 c 0,0 -0.586,0.711571 -0.641809,0.711571 -0.05581,0 -0.627856,0.0279 -0.697618,-0.05581 -0.06976,-0.08371 -0.348809,-0.823189 -0.348809,-0.823189 z"
     id="path2371" /><path
     style="fill:#ffffff;stroke-width:0.223238"
     d="m 19.979784,20.677402 c 0.02791,0.06976 0.516237,1.032475 0.516237,1.032475 0,0 0.209286,0.544142 0.153476,0.655761 -0.05581,0.111619 -0.348809,0.627856 -0.376713,0.739475 -0.02791,0.111619 -0.279048,0.488333 -0.320905,0.544142 -0.04186,0.05581 0.167429,0.04186 0.23719,0 0.06976,-0.04186 0.683666,-0.697618 0.683666,-0.753427 0,-0.05581 0.08371,-1.046427 0.08371,-1.046427 l -0.47438,-1.171999 z"
     id="path2373" /><path
     style="fill:#ffffff;stroke-width:0.223238"
     d="M 6.0134685,20.914592 6.3762299,20.593688 6.725039,19.65888 10.603796,17.231168 c 0,0 -1.0464273,-0.23719 -1.1161891,-0.209285 -0.069762,0.02791 -3.7810904,2.762568 -3.8089951,2.818377 -0.027905,0.05581 0.055809,1.185951 0.055809,1.185951 z"
     id="path2375" /><path
     style="fill:#ffffff;stroke-width:0.223238"
     d="m 5.60885,22.184257 1.3533792,-1.199903 0.7115705,0.111619 0.3348567,0.334857 -2.0509973,1.144094 z"
     id="path2377" /></svg>
