<?xml version="1.0" encoding="UTF-8" standalone="no"?>
<!-- Created with Inkscape (http://www.inkscape.org/) -->

<svg
   width="210mm"
   height="297mm"
   viewBox="0 0 210 297"
   version="1.1"
   id="svg5"
   inkscape:version="1.2.1 (9c6d41e410, 2022-07-14)"
   sodipodi:docname="CbCockpit.svg"
   xmlns:inkscape="http://www.inkscape.org/namespaces/inkscape"
   xmlns:sodipodi="http://sodipodi.sourceforge.net/DTD/sodipodi-0.dtd"
   xmlns="http://www.w3.org/2000/svg"
   xmlns:svg="http://www.w3.org/2000/svg">
  <sodipodi:namedview
     id="namedview7"
     pagecolor="#505050"
     bordercolor="#ffffff"
     borderopacity="1"
     inkscape:showpageshadow="0"
     inkscape:pageopacity="0"
     inkscape:pagecheckerboard="1"
     inkscape:deskcolor="#505050"
     inkscape:document-units="mm"
     showgrid="false"
     inkscape:zoom="1"
     inkscape:cx="128.5"
     inkscape:cy="466"
     inkscape:window-width="1920"
     inkscape:window-height="991"
     inkscape:window-x="-9"
     inkscape:window-y="-9"
     inkscape:window-maximized="1"
     inkscape:current-layer="layer3" />
  <defs
     id="defs2">
    <pattern
       id="EMFhbasepattern"
       patternUnits="userSpaceOnUse"
       width="6"
       height="6"
       x="0"
       y="0" />
  </defs>
  <g
     inkscape:groupmode="layer"
     id="layer3"
     inkscape:label="Layer 2"
     style="display:inline">
    <path
       style="fill:none;fill-opacity:1;stroke:#f4f4f4;stroke-width:0.132292;stroke-dasharray:none;stroke-opacity:1"
       d="m 143.51992,169.61445 c 0.0661,0.0331 0.64492,0.33073 0.64492,0.33073 l -0.0661,0.21497 -0.57878,-0.24804 z"
       id="path3072"
       inkscape:label="path3072" />
    <path
       style="fill:none;fill-opacity:1;stroke:#f4f4f4;stroke-width:0.132292;stroke-dasharray:none;stroke-opacity:1"
       d="m 142.56081,172.29336 c 0,0 0.0496,-0.26459 0.11575,-0.23151 0.0661,0.0331 0.56224,0.26458 0.56224,0.26458 l -0.1819,0.19844 z"
       id="path3074" />
    <path
       style="fill:none;fill-opacity:1;stroke:#f4f4f4;stroke-width:0.132292;stroke-dasharray:none;stroke-opacity:1"
       d="m 141.51901,175.13763 0.21497,-0.26459 0.42995,0.26459 -0.1819,0.26458 z"
       id="path3076" />
    <path
       style="fill:none;fill-opacity:1;stroke:#f4f4f4;stroke-width:0.132292;stroke-dasharray:none;stroke-opacity:1"
       d="m 140.51028,177.75039 0.16537,-0.28112 0.57878,0.33073 -0.16537,0.21497 z"
       id="path3078" />
    <path
       style="fill:none;fill-opacity:1;stroke:#f4f4f4;stroke-width:0.132292;stroke-dasharray:none;stroke-opacity:1"
       d="m 131.86243,155.55253 1.09915,0.59635 c 0,0 0.38587,0.0234 0.46772,0.0117 0.0818,-0.0117 0.5028,-0.3274 0.54957,-0.36248 0.0468,-0.0351 0.10524,-0.44434 0.10524,-0.44434 0,0 0,-0.28063 -0.0234,-0.33909 -0.0234,-0.0585 -0.23386,-0.38588 -0.26894,-0.44434 -0.0351,-0.0585 -0.38587,-0.23386 -0.44433,-0.25725 -0.0585,-0.0234 -0.43265,-0.18709 -0.49111,-0.21047 -0.0585,-0.0234 -0.24556,-0.0819 -0.24556,-0.0819 l -0.12862,-0.0351 -0.1637,0.0819 -0.16371,0.28063 -0.26893,0.46772 c 0,0 -0.10524,0.19879 -0.14032,0.29233 -0.0351,0.0935 -0.11693,0.25725 -0.11693,0.25725 z"
       id="path3080" />
    <path
       style="fill:none;fill-opacity:1;stroke:#f4f4f4;stroke-width:0.132292;stroke-dasharray:none;stroke-opacity:1"
       d="m 131.5701,156.25411 c 0.0935,0.0234 0.97053,0.45604 0.97053,0.45604 l 0.31571,0.1637 c 0,0 0.18709,0.12862 0.21047,0.17539 0.0234,0.0468 0.10524,0.23386 0.10524,0.29233 0,0.0585 0,0.38587 0,0.38587 l -0.0585,0.31571 -0.25725,0.31571 c 0,0 -0.0351,0.0468 -0.11693,0.0585 -0.0819,0.0117 -0.31571,0.0585 -0.31571,0.0585 0,0 -0.3508,-0.0351 -0.40926,-0.0351 -0.0585,0 -0.3391,-0.14031 -0.39756,-0.17539 -0.0585,-0.0351 -0.19878,-0.1754 -0.31571,-0.23386 -0.11693,-0.0585 -0.25725,-0.11693 -0.25725,-0.11693 l -0.15201,-0.0702 0.65481,-1.62533 z"
       id="path3082" />
    <path
       style="fill:none;fill-opacity:1;stroke:#f4f4f4;stroke-width:0.132292;stroke-dasharray:none;stroke-opacity:1"
       d="m 131.17254,157.24802 0.39756,0.0935 0.10524,-0.24556 -0.38587,-0.14031 z"
       id="path3084" />
    <path
       style="fill:none;fill-opacity:1;stroke:#f4f4f4;stroke-width:0.132292;stroke-dasharray:none;stroke-opacity:1"
       d="m 132.01444,154.85095 0.46772,0.14032 0.0935,-0.15201 -0.44434,-0.15201 z"
       id="path3086" />
    <path
       style="fill:none;fill-opacity:1;stroke:#f4f4f4;stroke-width:0.132292;stroke-dasharray:none;stroke-opacity:1"
       d="m 130.66974,158.35886 -0.58465,1.44994 0.0117,0.10524 c 0,0 0.22217,0.14031 0.28064,0.19878 0.0585,0.0585 0.90036,0.61973 0.94713,0.61973 0.0468,0 0.58465,0.0585 0.63142,0 0.0468,-0.0585 0.45603,-0.80682 0.45603,-0.80682 l 0.0234,-0.47941 c 0,0 -0.51449,-0.56127 -0.57296,-0.58466 -0.0585,-0.0234 -1.06406,-0.51449 -1.06406,-0.51449 z"
       id="path3088" />
    <path
       style="fill:none;fill-opacity:1;stroke:#f4f4f4;stroke-width:0.132292;stroke-dasharray:none;stroke-opacity:1"
       d="m 130.44757,159.09553 0.40926,0.12862 -0.11693,0.25725 -0.37418,-0.18709 z"
       id="path3090" />
    <path
       style="fill:none;fill-opacity:1;stroke:#f4f4f4;stroke-width:0.132292;stroke-dasharray:none;stroke-opacity:1"
       d="m 128.14101,174.11237 0.0661,-1.24024 9.87227,6.79649 -1.33946,1.24023"
       id="path3092" />
    <path
       style="fill:none;fill-opacity:1;stroke:#f4f4f4;stroke-width:0.132292;stroke-dasharray:none;stroke-opacity:1"
       d="m 132.39088,175.81562 -0.85989,0.64492"
       id="path3094" />
    <path
       style="fill:none;fill-opacity:1;stroke:#f4f4f4;stroke-width:0.132292;stroke-dasharray:none;stroke-opacity:1"
       d="m 132.52318,175.98099 -0.82683,0.57877"
       id="path3096" />
    <path
       style="fill:none;fill-opacity:1;stroke:#f4f4f4;stroke-width:0.132292;stroke-dasharray:none;stroke-opacity:1"
       d="m 132.45703,175.79909 -0.77721,0.71106"
       id="path3098" />
    <path
       style="fill:none;fill-opacity:1;stroke:#f4f4f4;stroke-width:0.132292;stroke-dasharray:none;stroke-opacity:1"
       d="m 132.4901,175.91484 -0.5457,0.34727"
       id="path3100" />
    <path
       style="fill:none;fill-opacity:1;stroke:#f4f4f4;stroke-width:0.132292;stroke-dasharray:none;stroke-opacity:1"
       d="m 130.01493,160.72086 0.68989,0.3391 c 0,0 0.43264,0.21047 0.47942,0.25724 0.0468,0.0468 0.19878,0.19878 0.22216,0.24556 0.0234,0.0468 0.0936,0.26894 0.0936,0.3274 0,0.0585 0,0.3391 -0.0234,0.40926 -0.0234,0.0702 -0.18709,0.3391 -0.21048,0.38587 -0.0234,0.0468 -0.0818,0.14032 -0.0818,0.19878 0,0.0585 -0.22217,0.12862 -0.29232,0.12862 -0.0702,0 -0.35079,0 -0.40926,0 -0.0585,0 -0.49111,-0.18708 -0.54957,-0.21047 -0.0585,-0.0234 -0.3391,-0.18709 -0.39757,-0.19878 -0.0585,-0.0117 -0.1637,-0.0468 -0.1637,-0.0468 l -0.11693,-0.0701 0.68989,-1.78904 z"
       id="path3102" />
    <path
       style="fill:none;fill-opacity:1;stroke:#f4f4f4;stroke-width:0.132292;stroke-dasharray:none;stroke-opacity:1"
       d="m 129.13795,162.84899 c 0,0.0585 -0.49111,1.14592 -0.49111,1.14592 0,0 -0.0234,0.29232 -0.0234,0.37418 0,0.0819 -0.0117,0.18709 0.0351,0.21047 0.0468,0.0234 0.3391,0.19878 0.43265,0.25725 0.0935,0.0585 0.37417,0.22217 0.44433,0.25725 0.0702,0.0351 0.31572,0.11693 0.44434,0.11693 0.12862,0 0.5028,-0.0936 0.53788,-0.16371 0.0351,-0.0702 0.0935,-0.14031 0.17539,-0.28063 0.0819,-0.14032 0.11693,-0.28063 0.11693,-0.42095 0,-0.14032 -0.0234,-0.37418 -0.0468,-0.49111 -0.0234,-0.11693 -0.0585,-0.19878 -0.14032,-0.25725 -0.0818,-0.0585 -0.50279,-0.33909 -0.56126,-0.37417 -0.0585,-0.0351 -0.5028,-0.28063 -0.5028,-0.28063 l -0.3391,-0.16371 z"
       id="path3104" />
    <path
       style="fill:none;fill-opacity:1;stroke:#f4f4f4;stroke-width:0.132292;stroke-dasharray:none;stroke-opacity:1"
       d="m 128.92748,163.56227 0.28063,0.10523 -0.1637,0.19879 -0.24556,-0.16371 z"
       id="path3106" />
    <path
       style="fill:none;fill-opacity:1;stroke:#f4f4f4;stroke-width:0.132292;stroke-dasharray:none;stroke-opacity:1"
       d="m 129.72851,161.34622 0.26459,0.16537 -0.14883,0.23151 -0.29766,-0.13229 z"
       id="path3112" />
    <path
       style="fill:none;fill-opacity:1;stroke:#f4f4f4;stroke-width:0.132292;stroke-dasharray:none;stroke-opacity:1"
       d="m 119.97061,159.81465 c -0.0351,-0.0117 -1.14007,-1.04653 -1.14007,-1.04653 l -0.44604,-1.91981 4.53099,-2.74506 3.53881,1.85209"
       id="path3114" />
    <path
       style="fill:none;fill-opacity:1;stroke:#f4f4f4;stroke-width:0.132292;stroke-dasharray:none;stroke-opacity:1"
       d="m 125.9582,157.24518 -3.9026,2.41432 -3.57188,-2.39778"
       id="path3116" />
    <path
       style="fill:none;fill-opacity:1;stroke:#f4f4f4;stroke-width:0.132292;stroke-dasharray:none;stroke-opacity:1"
       d="m 122.07213,159.72565 0.46302,1.52135"
       id="path3118" />
    <path
       style="fill:none;fill-opacity:1;stroke:#f4f4f4;stroke-width:0.132292;stroke-dasharray:none;stroke-opacity:1"
       d="m 124.9164,160.13906 -2.21588,1.33945"
       id="path3120" />
    <path
       style="fill:none;fill-opacity:1;stroke:#f4f4f4;stroke-width:0.132292;stroke-dasharray:none;stroke-opacity:1"
       d="m 122.93203,154.11979 -0.46302,-0.8599 1.32292,-3.70416 -1.24885,-10.68917 -2.02537,-1.08479 6.74687,-18.78542 2.38125,0.0661 -2.97656,7.93755 -1.19062,-0.33073 -0.19844,0.8599 1.19062,0.26458 -3.83646,10.98021 1.38907,0 6.74687,-18.91771 -0.0421,-0.003"
       id="path3122" />
    <path
       style="fill:none;fill-opacity:1;stroke:#f4f4f4;stroke-width:0.132292;stroke-dasharray:none;stroke-opacity:1"
       d="m 126.68581,127.04961 -0.24805,0.79375"
       id="path3124" />
    <path
       style="fill:none;fill-opacity:1;stroke:#f4f4f4;stroke-width:0.132292;stroke-dasharray:none;stroke-opacity:1"
       d="m 141.1584,107.06149 -10.33665,12.81557"
       id="path3132" />
    <path
       style="fill:none;fill-opacity:1;stroke:#f4f4f4;stroke-width:0.132292;stroke-dasharray:none;stroke-opacity:1"
       d="m 135.87314,143.1696 19.8314,7.43678"
       id="path3134" />
    <path
       style="fill:none;fill-opacity:1;stroke:#f4f4f4;stroke-width:0.132292;stroke-dasharray:none;stroke-opacity:1"
       d="m 141.29871,107.15503 15.809,0.28064 6.50133,2.66601 19.55077,8.04481 -0.37418,25.53761 -5.70621,13.18975 -18.33469,8.32544 -2.89987,-14.59291"
       id="path3136" />
    <path
       style="fill:none;fill-opacity:1;stroke:#f4f4f4;stroke-width:0.132292;stroke-dasharray:none;stroke-opacity:1"
       d="m 135.9433,143.12283 c -0.25725,0.0702 -7.46016,7.0626 -7.46016,7.0626 l -3.20389,-12.114 4.3732,-12.79218 1.94104,-5.2151 9.14396,-11.01484 14.63969,0.51449 27.66574,12.30108"
       id="path3138" />
    <path
       style="fill:none;fill-opacity:1;stroke:#f4f4f4;stroke-width:0.132292;stroke-dasharray:none;stroke-opacity:1"
       d="m 118.30182,116.81354 c 0.16537,0 2.87735,-0.0662 2.87735,-0.0662 l 8.6651,1.68672 10.84792,-12.86536"
       id="path3142" />
    <path
       style="fill:none;fill-opacity:1;stroke:#f4f4f4;stroke-width:0.132292;stroke-dasharray:none;stroke-opacity:1"
       d="m 118.2026,116.74739 -24.804685,-11.1125 28.045835,10.91407"
       id="path3144" />
    <path
       style="fill:none;fill-opacity:1;stroke:#f4f4f4;stroke-width:0.132292;stroke-dasharray:none;stroke-opacity:1"
       d="m 83.145311,105.56875 c 1.190625,0.0661 10.120313,-0.0661 10.120313,-0.0661 v 0 l 2.248958,0.92604"
       id="path3146" />
    <path
       style="fill:none;fill-opacity:1;stroke:#f4f4f4;stroke-width:0.132292;stroke-dasharray:none;stroke-opacity:1"
       d="m 93.067186,105.5026 h 18.256254 l 29.3026,0"
       id="path3148" />
    <path
       style="fill:none;fill-opacity:1;stroke:#f4f4f4;stroke-width:0.132292;stroke-dasharray:none;stroke-opacity:1"
       d="m 140.55989,105.73411 c 0.23151,0 11.93933,0.29766 11.93933,0.29766"
       id="path3152" />
    <path
       style="fill:none;fill-opacity:1;stroke:#f4f4f4;stroke-width:0.132292;stroke-dasharray:none;stroke-opacity:1"
       d="m 151.50703,105.56875 c 0.7276,0.19844 5.19245,1.81901 5.19245,1.81901"
       id="path3154" />
    <path
       style="fill:none;fill-opacity:1;stroke:#f4f4f4;stroke-width:0.132292;stroke-dasharray:none;stroke-opacity:1"
       d="m 152.43307,106.06484 0.59531,0.0331"
       id="path3156" />
    <path
       style="fill:none;fill-opacity:1;stroke:#f4f4f4;stroke-width:0.132292;stroke-dasharray:none;stroke-opacity:1"
       d="m 77.126041,150.21719 c 0.463021,-0.39688 1.852083,-3.10886 1.852083,-3.10886 l 34.792706,-4.89479 1.85209,-2.84427 5.29166,-21.96042 -2.57969,-0.19843 v -0.33073 l -5.15937,21.69583 -1.52135,2.91042 -33.271358,4.49791"
       id="path3158" />
    <path
       style="fill:none;fill-opacity:1;stroke:#f4f4f4;stroke-width:0.132292;stroke-dasharray:none;stroke-opacity:1"
       d="m 120.91458,122.50208 4.43177,0.99219"
       id="path3160" />
    <path
       style="fill:none;fill-opacity:1;stroke:#f4f4f4;stroke-width:0.132292;stroke-dasharray:none;stroke-opacity:1"
       d="m 122.63437,138.84006 -6.2177,-0.0661 5.09322,-20.96823 5.75469,1.19062"
       id="path3162" />
    <path
       style="fill:none;fill-opacity:1;stroke:#f4f4f4;stroke-width:0.132292;stroke-dasharray:none;stroke-opacity:1"
       d="m 115.95364,140.03073 c 0.79375,0 6.61459,0.79375 6.61459,0.79375"
       id="path3164" />
    <path
       style="fill:none;fill-opacity:1;stroke:#f4f4f4;stroke-width:0.132292;stroke-dasharray:none;stroke-opacity:1"
       d="m 123.09739,144.99166 -8.33437,-2.38125 1.52135,29.23646"
       id="path3166" />
    <path
       style="fill:none;fill-opacity:1;stroke:#f4f4f4;stroke-width:0.132292;stroke-dasharray:none;stroke-opacity:1"
       d="m 103.31979,144.4625 3.175,21.82812 0.13229,0.26459"
       id="path3168" />
    <path
       style="fill:none;fill-opacity:1;stroke:#f4f4f4;stroke-width:0.132292;stroke-dasharray:none;stroke-opacity:1"
       d="m 107.02396,170.45781 0.52916,3.70417"
       id="path3170" />
    <path
       style="fill:none;fill-opacity:1;stroke:#f4f4f4;stroke-width:0.132292;stroke-dasharray:none;stroke-opacity:1"
       d="m 109.40521,173.83125 -5.55625,1.19062"
       id="path3172" />
    <path
       style="fill:none;fill-opacity:1;stroke:#f4f4f4;stroke-width:0.132292;stroke-dasharray:none;stroke-opacity:1"
       d="m 110.92656,173.56666 5.22552,-1.4552"
       id="path3174" />
    <path
       style="fill:none;fill-opacity:1;stroke:#f4f4f4;stroke-width:0.132292;stroke-dasharray:none;stroke-opacity:1"
       d="m 77.985937,150.34948 c 0.264583,-0.26459 1.587499,-2.4474 1.587499,-2.4474 l 35.255734,-5.29167"
       id="path3176" />
    <path
       style="fill:none;fill-opacity:1;stroke:#f4f4f4;stroke-width:0.132292;stroke-dasharray:none;stroke-opacity:1"
       d="m 116.28437,139.43541 c -0.0661,0.26459 -1.5875,3.175 -1.5875,3.175"
       id="path3178" />
    <path
       style="fill:none;fill-opacity:1;stroke:#f4f4f4;stroke-width:0.132292;stroke-dasharray:none;stroke-opacity:1"
       d="m 88.701561,146.71146 1.785938,7.60677 0.06615,-0.19844"
       id="path3180" />
    <path
       style="fill:none;fill-opacity:1;stroke:#f4f4f4;stroke-width:0.132292;stroke-dasharray:none;stroke-opacity:1"
       d="m 90.884374,156.43489 1.455208,4.69636"
       id="path3182" />
    <path
       style="fill:none;fill-opacity:1;stroke:#f4f4f4;stroke-width:0.132292;stroke-dasharray:none;stroke-opacity:1"
       d="m 83.476041,147.43906 1.521354,5.35781"
       id="path3184" />
    <path
       style="fill:none;fill-opacity:1;stroke:#f4f4f4;stroke-width:0.132292;stroke-dasharray:none;stroke-opacity:1"
       d="m 79.374999,148.16666 0.926042,3.57188"
       id="path3186" />
    <path
       style="fill:none;fill-opacity:1;stroke:#f4f4f4;stroke-width:0.132292;stroke-dasharray:none;stroke-opacity:1"
       d="m 92.339582,161.19739 1.157552,1.28985 1.091406,-0.0662 4.134115,4.56406 -1.422135,2.41433 0.529166,0.76067 -0.661458,0.23151 h 0.132292"
       id="path3188" />
    <path
       style="fill:none;fill-opacity:1;stroke:#f4f4f4;stroke-width:0.132292;stroke-dasharray:none;stroke-opacity:1"
       d="m 88.767707,162.71875 c 0.198438,0.29765 4.564063,4.86172 4.564063,4.86172 l 4.299479,-0.59532 0.694531,0.72761"
       id="path3190" />
    <path
       style="fill:none;fill-opacity:1;stroke:#f4f4f4;stroke-width:0.132292;stroke-dasharray:none;stroke-opacity:1"
       d="m 93.199478,162.68568 4.398698,4.36562"
       id="path3192" />
    <path
       style="fill:none;fill-opacity:1;stroke:#f4f4f4;stroke-width:0.132292;stroke-dasharray:none;stroke-opacity:1"
       d="m 95.547655,163.54557 -0.926042,0.0661 0.198438,0.29765 0.959114,-0.0661 z"
       id="path3194" />
    <path
       style="fill:none;fill-opacity:1;stroke:#f4f4f4;stroke-width:0.132292;stroke-dasharray:none;stroke-opacity:1"
       d="m 91.611978,168.30807 0.826823,-1.5875"
       id="path3196" />
    <path
       style="fill:none;fill-opacity:1;stroke:#f4f4f4;stroke-width:0.132292;stroke-dasharray:none;stroke-opacity:1"
       d="m 150.68021,185.93594 4.36562,-0.33073 1.32292,-1.5875 2.77812,-6.81302 -3.43958,-3.3073 -5.15938,11.84011"
       id="path3198" />
    <path
       style="fill:none;fill-opacity:1;stroke:#f4f4f4;stroke-width:0.132292;stroke-dasharray:none;stroke-opacity:1"
       d="m 158.02239,176.14635 -3.83645,9.525"
       id="path3200" />
    <path
       style="fill:none;fill-opacity:1;stroke:#f4f4f4;stroke-width:0.132292;stroke-dasharray:none;stroke-opacity:1"
       d="m 153.9875,171.38385 2.3151,1.19063 22.42344,-12.17084 1.19062,-3.77031"
       id="path3202" />
    <path
       style="fill:none;fill-opacity:1;stroke:#f4f4f4;stroke-width:0.132292;stroke-dasharray:none;stroke-opacity:1"
       d="m 154.58281,169.92864 2.38125,1.19063 21.43125,-11.57552 4.71772,-10.9018"
       id="path3204" />
    <path
       style="fill:none;fill-opacity:1;stroke:#f4f4f4;stroke-width:0.132292;stroke-dasharray:none;stroke-opacity:1"
       d="m 179.88575,156.73353 0.32741,-1.40317"
       id="path3206" />
    <path
       style="fill:none;fill-opacity:1;stroke:#f4f4f4;stroke-width:0.132292;stroke-dasharray:none;stroke-opacity:1"
       d="m 183.06626,155.98518 -2.47892,5.61266 -23.71349,12.72202 -1.02899,-1.96443"
       id="path3208" />
    <path
       style="fill:none;fill-opacity:1;stroke:#f4f4f4;stroke-width:0.132292;stroke-dasharray:none;stroke-opacity:1"
       d="m 157.48188,174.13277 2.24507,2.10475 1.87089,3.83532"
       id="path3210" />
    <path
       style="fill:none;fill-opacity:1;stroke:#f4f4f4;stroke-width:0.132292;stroke-dasharray:none;stroke-opacity:1"
       d="m 158.1367,173.7586 1.4967,2.38538"
       id="path3212" />
    <path
       style="fill:none;fill-opacity:1;stroke:#f4f4f4;stroke-width:0.132292;stroke-dasharray:none;stroke-opacity:1"
       d="m 158.93182,177.03265 2.66602,2.99342 c 0.46772,0 9.68184,-4.49013 9.68184,-4.49013 l -1.6838,3.92887 0.74835,1.26284 1.96443,0.74836 1.6838,-3.74177 4.34981,2.24506 -1.40316,3.695 2.57247,2.15152 3.1805,1.1693 -9.35443,6.78197 -0.74835,-2.94665 7.06259,-5.00462"
       id="path3214" />
    <path
       style="fill:none;fill-opacity:1;stroke:#f4f4f4;stroke-width:0.132292;stroke-dasharray:none;stroke-opacity:1"
       d="m 171.04581,192.46745 -5.56588,-3.69501 -6.50133,8.18513 8.93348,0.0468 3.08696,-4.49013 2.33861,1.35639 -0.74836,-2.99342 -9.12057,-5.51911 1.21608,3.13373 0.93544,0.37418"
       id="path3216" />
    <path
       style="fill:none;fill-opacity:1;stroke:#f4f4f4;stroke-width:0.132292;stroke-dasharray:none;stroke-opacity:1"
       d="m 159.21246,184.70329 9.26088,-7.01583 1.40317,0.5145"
       id="path3218" />
    <path
       style="fill:none;fill-opacity:1;stroke:#f4f4f4;stroke-width:0.132292;stroke-dasharray:none;stroke-opacity:1"
       d="m 169.82974,179.79221 -1.54348,2.10475 -4.95785,3.41436"
       id="path3220" />
    <path
       style="fill:none;fill-opacity:1;stroke:#f4f4f4;stroke-width:0.132292;stroke-dasharray:none;stroke-opacity:1"
       d="m 172.44898,181.38246 4.5369,2.47893"
       id="path3222" />
    <path
       style="fill:none;fill-opacity:1;stroke:#f4f4f4;stroke-width:0.132292;stroke-dasharray:none;stroke-opacity:1"
       d="m 158.79151,184.60974 4.81753,3.27405 0.51449,-0.65481"
       id="path3224" />
    <path
       style="fill:none;fill-opacity:1;stroke:#f4f4f4;stroke-width:0.132292;stroke-dasharray:none;stroke-opacity:1"
       d="m 155.98518,184.56297 7.85772,5.3788 0.79513,-0.8419"
       id="path3226" />
    <path
       style="fill:none;fill-opacity:1;stroke:#f4f4f4;stroke-width:0.132292;stroke-dasharray:none;stroke-opacity:1"
       d="m 154.95619,185.59196 c -0.23386,0.3274 -5.14494,5.19171 -5.14494,5.19171 l 2.5257,5.98683"
       id="path3228" />
    <path
       style="fill:none;fill-opacity:1;stroke:#f4f4f4;stroke-width:0.132292;stroke-dasharray:none;stroke-opacity:1"
       d="m 149.95157,191.67234 7.39,5.19171 6.64165,-6.92228"
       id="path3230" />
    <path
       style="fill:none;fill-opacity:1;stroke:#f4f4f4;stroke-width:0.132292;stroke-dasharray:none;stroke-opacity:1"
       d="m 174.17955,175.02145 0.14031,-0.98222 8.27868,-3.83532 -3.18051,7.53032 z"
       id="path3232" />
    <path
       style="fill:none;fill-opacity:1;stroke:#f4f4f4;stroke-width:0.132292;stroke-dasharray:none;stroke-opacity:1"
       d="m 161.69138,173.80537 c 0.28063,0 20.34589,-10.33665 20.34589,-10.33665 l 0.88867,0.37418 v 3.41437 l -20.06526,9.82215 z"
       id="path3234" />
    <path
       style="fill:none;fill-opacity:1;stroke:#f4f4f4;stroke-width:0.132292;stroke-dasharray:none;stroke-opacity:1"
       d="m 161.69138,179.41803 21.18779,-10.61728"
       id="path3236" />
    <path
       style="fill:none;fill-opacity:1;stroke:#f4f4f4;stroke-width:0.132292;stroke-dasharray:none;stroke-opacity:1"
       d="m 128.16743,165.31622 -0.29233,0.1754 c 0,0 -0.1637,0.29233 -0.1637,0.3391 0,0.0468 -0.1637,0.26894 -0.1637,0.3274 0,0.0585 -0.0234,0.32741 -0.0234,0.38587 0,0.0585 0.21047,0.35079 0.25725,0.36249 0.0468,0.0117 0.99391,0.60803 0.99391,0.60803 0,0 0.33909,-0.0117 0.40925,-0.0117 0.0702,0 0.24556,0 0.30402,-0.0468 0.0585,-0.0468 0.15201,-0.29233 0.19878,-0.35079 0.0468,-0.0585 0.21048,-0.3391 0.21048,-0.3391 l 0.0234,-0.35079 -0.3391,-0.37418 c 0,0 -0.65481,-0.44434 -0.71327,-0.46772 -0.0585,-0.0234 -0.45603,-0.21048 -0.45603,-0.21048 z"
       id="path3238" />
    <path
       style="fill:none;fill-opacity:1;stroke:#f4f4f4;stroke-width:0.132292;stroke-dasharray:none;stroke-opacity:1"
       d="m 127.91018,165.91257 0.38587,0.1637 -0.0702,0.30402 -0.45602,-0.25725 z"
       id="path3240" />
    <path
       style="fill:none;fill-opacity:1;stroke:#f4f4f4;stroke-width:0.132292;stroke-dasharray:none;stroke-opacity:1"
       d="m 127.39569,167.64314 1.26285,0.52619 c 0,0 0.23386,0.30402 0.24555,0.37417 0.0117,0.0702 0.0351,0.58465 0,0.66651 -0.0351,0.0819 -0.19878,0.64311 -0.19878,0.64311 l -0.79513,-0.0234 c 0,0 -0.67819,-0.43264 -0.72497,-0.45602 -0.0468,-0.0234 -0.3274,-0.1754 -0.3274,-0.1754 0,0 -0.0585,-0.30402 -0.0117,-0.38587 0.0468,-0.0819 0.19879,-0.47941 0.23386,-0.57296 0.0351,-0.0935 0.14032,-0.31571 0.16371,-0.36248 0.0234,-0.0468 0.11693,-0.23386 0.15201,-0.23386 z"
       id="path3242" />
    <path
       style="fill:none;fill-opacity:1;stroke:#f4f4f4;stroke-width:0.132292;stroke-dasharray:none;stroke-opacity:1"
       d="m 127.13844,168.27456 c 0.0468,0 0.3391,0.0468 0.3391,0.0468 l -0.11693,0.26895 -0.3391,-0.0468 z"
       id="path3244" />
    <path
       style="fill:none;fill-opacity:1;stroke:#f4f4f4;stroke-width:0.132292;stroke-dasharray:none;stroke-opacity:1"
       d="m 182.76094,143.63568 0.26458,5.1263 0.0331,7.20989 -0.16536,8.49974 -0.0331,4.36563 -0.4487,18.25143"
       id="path3246" />
    <path
       style="fill:none;fill-opacity:1;stroke:#f4f4f4;stroke-width:0.132292;stroke-dasharray:none;stroke-opacity:1"
       d="m 88.399394,156.92062 -0.865285,0.88867 0.07016,0.18709 0.116931,0.28063 0.07016,0.18709 0.163702,0.21048 0.233861,0.0234 h 0.467722 l 0.327405,-0.18709 0.584652,-0.37417 0.09354,-0.16371 -0.140316,-0.25724 -0.09354,-0.32741 -0.116931,-0.23386 -0.233861,-0.14031 -0.420949,-0.0468 z"
       id="path3248" />
    <path
       style="fill:none;fill-opacity:1;stroke:#f4f4f4;stroke-width:0.132292;stroke-dasharray:none;stroke-opacity:1"
       d="m 88.49294,159.07214 0.327403,-0.14032 0.210476,-0.14031 0.18709,-0.16371 0.11693,-0.0935 h 0.163703 l 0.11693,0.0702 c 0,0 0.09354,0.11693 0.140316,0.21047 0.04677,0.0936 0.09354,0.30402 0.09354,0.30402 0,0 0.02339,0.21048 0.04677,0.30402 0.02339,0.0935 0.11693,0.3274 0.11693,0.3274 l -0.02339,0.30402 -0.397563,0.3508 -0.257247,0.11693 -0.210476,-0.11693 -0.280633,-0.30402 c 0,0 -0.140316,-0.14032 -0.257246,-0.30402 -0.11693,-0.16371 -0.163703,-0.21048 -0.210476,-0.37418 -0.04677,-0.1637 0,-0.35079 0,-0.35079 h 0.02339 z"
       id="path3250" />
    <path
       style="fill:none;fill-opacity:1;stroke:#f4f4f4;stroke-width:0.132292;stroke-dasharray:none;stroke-opacity:1"
       d="m 90.059808,159.72695 0.444333,0.44433 0.116933,0.37418 0.07016,0.18709 -0.935443,0.72497 -0.187089,-0.0468 -0.280633,-0.23386 -0.23386,-0.28064 0.04677,-0.23386 0.280632,-0.18705"
       id="path3252" />
    <path
       style="fill:none;fill-opacity:1;stroke:#f4f4f4;stroke-width:0.132292;stroke-dasharray:none;stroke-opacity:1"
       d="m 87.758983,154.08672 -0.463021,0.19843 c 0,0 -0.214974,0.18191 -0.281119,0.23151 -0.06615,0.0496 -0.28112,0.26459 -0.28112,0.26459 l -0.132292,0.23151 c 0,0 -0.03307,0.14883 0.01654,0.23151 0.04961,0.0827 0.09922,0.23151 0.181901,0.28112 0.08268,0.0496 0.396875,0.0992 0.396875,0.0992 0,0 0.463021,0.0165 0.545703,0.0165 0.08268,0 0.463021,0 0.463021,0 l 0.347265,-0.0661 h -0.01654"
       id="path3254" />
    <path
       style="fill:none;fill-opacity:1;stroke:#f4f4f4;stroke-width:0.132292;stroke-dasharray:none;stroke-opacity:1"
       d="m 80.062257,156.96739 0.432641,-0.3391 0.643118,-0.24555 0.420949,-0.0935 0.222168,0.0351 c 0,0 0.128625,0.15201 0.128625,0.26894 0,0.11694 -0.0117,0.3508 -0.04677,0.47942 -0.03508,0.12862 -0.198782,0.65481 -0.222168,0.71327 -0.02339,0.0585 -0.08185,0.23386 -0.140317,0.32741 -0.05846,0.0935 -0.163703,0.22217 -0.210473,0.37418 -0.04677,0.15201 -0.116933,0.40925 -0.116933,0.53788 0,0.12862 0.02339,0.39756 0.02339,0.51449 0,0.11693 0.02339,0.57296 0.03508,0.63142 0.01169,0.0585 0.03508,0.11693 0.03508,0.1754 0,0.0585 0,0.25725 0,0.25725 l 0.01169,0.0234"
       id="path3256" />
    <path
       style="fill:none;fill-opacity:1;stroke:#f4f4f4;stroke-width:0.132292;stroke-dasharray:none;stroke-opacity:1"
       d="m 80.132414,156.92062 -0.549572,0.47941"
       id="path3258" />
  </g>
  <g
     inkscape:label="Layer 1"
     inkscape:groupmode="layer"
     id="layer1">
    <path
       style="display:inline;fill:#ffffff;fill-opacity:0;stroke:#ffffff;stroke-width:0.079375;stroke-linecap:butt;stroke-linejoin:miter;stroke-dasharray:none;stroke-opacity:1"
       d="m 64.159055,149.96567 c 0,0.0653 0.326509,0.66935 0.326509,0.66935 l 0.571392,0.48976 0.457112,0.16325 2.710027,-0.16325 1.43664,-0.14693 0.47344,-0.40814 0.865248,0.96321 -0.114279,1.14278 -6.579158,0.39181 -1.224409,-1.6652 0.08163,-1.55092 1.044829,-0.0163 -0.04898,0.22855 z"
       id="path232" />
    <path
       style="fill:none;fill-opacity:0;stroke:#f4f4f4;stroke-width:0.15875;stroke-dasharray:none;stroke-opacity:1"
       d="m 64.27612,149.88526 0.115438,-0.30014 -0.09235,-0.25397 -0.06927,-0.27705 -0.0231,-0.23087 0.04617,-0.25397 0.161616,-0.16161 0.161612,-0.20779 -0.01153,-2.23951 0.30014,-0.38095 0.282824,-0.28282 0.455983,-0.23665 0.525243,-0.28282 0.421351,-0.0404 0.363631,-0.0115 0.38672,0.0173 0.36363,0.0173 0.288597,0.0519 0.196244,0.052 c 0,0 0.972918,-0.35072 1.03822,-0.35072 0.0653,0 0.848923,0.0816 0.848923,0.0816 l 0.489765,-0.049 1.077481,-0.37549 0.816272,-0.34283 1.044829,-0.17958 0.799949,-0.35916 0.457112,-0.24488 0.555065,-0.19591 h 0.293859 l 0.359159,0.22856 0.277534,0.27753 0.146929,0.21223 0.21223,0.22856 0.424463,0.0816 0.277532,0.0163 0.244883,0.11427 0.21223,0.27754 0.195905,0.16325 c 0,0 0.163256,0.22856 0.195906,0.29386 0.03265,0.0653 0.09795,0.19591 0.09795,0.27753 0,0.0816 0,0.35916 0,0.35916 v 0.22856 c 0,0 0.114279,0.57139 0.0653,0.66934 -0.04898,0.098 -0.261208,0.27754 -0.261208,0.27754 l -0.244882,0.31018 c 0,0 -0.163256,0.16325 -0.21223,0.22856 -0.04898,0.0653 -0.212233,0.3265 -0.212233,0.3265 l 0.17958,0.27754 -0.261207,0.27753 c 0,0 -0.865248,0.57139 -0.946877,0.63669 -0.08163,0.0653 -2.138635,1.01218 -2.220262,1.04483 -0.08163,0.0327 -1.093806,0.42446 -1.175433,0.44079 -0.08163,0.0163 -0.326509,-0.049 -0.440788,-0.0816 -0.114278,-0.0326 -0.832598,-0.31018 -0.914225,-0.31018 -0.08163,0 -0.620368,-0.1959 -0.71832,-0.21223 -0.09795,-0.0163 -0.489765,-0.0816 -0.489765,-0.0816 l -0.489762,-0.0816 h -0.538742 l -0.359159,0.0326 c 0,0 -0.01632,0.11428 0.04898,0.17958 0.0653,0.0653 0.09795,0.19591 0.228555,0.26121 0.130604,0.0653 -0.293856,0.13061 -0.293856,0.13061 0,0 -1.028505,0.11427 -1.126459,0.1306 -0.09795,0.0163 -0.8979,0.0163 -0.8979,0.0163 0,0 -0.522415,0 -0.669343,0 -0.146929,0 -0.816274,0 -0.93055,0 -0.114279,0 -0.930553,-0.049 -0.930553,-0.049 l -0.21223,-0.0653 z"
       id="path1639" />
    <path
       style="fill:none;fill-opacity:0;stroke:#f4f4f4;stroke-width:0.13229167;stroke-dasharray:none;stroke-opacity:1"
       d="m 69.263058,149.94298 0.230878,-0.26551 0.196244,0.0115 0.346316,0.42712 0.173159,0.23088 -0.01154,0.2655 -0.09235,0.0231 0.0231,-0.28859 -0.484841,-0.5772 -0.138526,-0.0115 -0.138525,0.28859 z"
       id="path1641" />
    <path
       style="fill:none;fill-opacity:0;stroke:#f4f4f4;stroke-width:0.132292;stroke-dasharray:none;stroke-opacity:1"
       d="m 63.006297,151.06273 -8.10378,0.64646 -3.647852,1.10821 -0.138528,0.62336 1.085122,-0.32323 0.761894,1.63923 -2.539645,0.9466 -0.761894,2.07789 0.253963,4.29431 6.09515,-0.32323 -0.323228,-6.16441 -0.600279,-1.20056 -0.369403,0.0462 c 0,0 0.715719,1.10821 0.715719,1.22365 0,0.11544 0.300138,5.79501 0.300138,5.79501 l -5.656482,0.39249 -0.230878,-4.04035 0.831157,-2.00862 2.655086,-1.03895 0.946594,-0.20779 0.969682,-0.23088 0.531016,-0.41557 8.588621,-0.64646 -0.04618,-0.20779 -8.588621,0.73881 -0.761894,-1.89319 8.10378,-0.62337 z"
       id="path1643" />
    <path
       style="fill:none;fill-opacity:0;stroke:#f4f4f4;stroke-width:0.132292;stroke-dasharray:none;stroke-opacity:1"
       d="m 52.963153,152.26329 0.923507,2.28568 0.461754,-0.0924 -1.038948,-2.28568 z"
       id="path1647" />
    <path
       style="fill:none;fill-opacity:0;stroke:#f4f4f4;stroke-width:0.132292;stroke-dasharray:none;stroke-opacity:1"
       d="m 54.002098,151.98624 0.99277,2.30877 0.277053,-0.0231 0.438666,-0.39249 -0.946595,-2.14716 z"
       id="path1649" />
    <path
       style="fill:none;fill-opacity:0;stroke:#f4f4f4;stroke-width:0.132292;stroke-dasharray:none;stroke-opacity:1"
       d="m 51.069962,153.48694 -0.761894,2.03172 0.11544,0.16161 2.49347,-0.90042 -0.715719,-1.66232 z"
       id="path1651" />
    <path
       style="fill:none;fill-opacity:0;stroke:#f4f4f4;stroke-width:0.132292;stroke-dasharray:none;stroke-opacity:1"
       d="m 55.604515,155.41838 c 0.359161,0 6.562836,-0.45712 6.562836,-0.45712 l 18.023305,-1.50194 h 0.163256 l 1.828451,0.52242 -0.0653,0.29385 -1.926405,-0.48976 -24.586141,2.02436 z"
       id="path1653" />
    <path
       style="fill:none;fill-opacity:0;stroke:#f4f4f4;stroke-width:0.132292;stroke-dasharray:none;stroke-opacity:1"
       d="m 81.33344,154.50415 -25.663623,1.76315 0.0653,0.81627 25.663622,-2.25291 z"
       id="path1655" />
    <path
       style="fill:none;fill-opacity:0;stroke:#f4f4f4;stroke-width:0.132292;stroke-dasharray:none;stroke-opacity:1"
       d="m 55.833073,158.68347 25.108556,-2.90594 -0.326509,0.42447 -24.782047,2.97123 z"
       id="path1659" />
    <path
       style="fill:none;fill-opacity:0;stroke:#f4f4f4;stroke-width:0.132292;stroke-dasharray:none;stroke-opacity:1"
       d="m 55.931024,160.25071 23.704568,-3.00388 -0.09795,0.32651 -23.639263,3.10183 z"
       id="path1661" />
    <path
       style="fill:none;fill-opacity:0;stroke:#f4f4f4;stroke-width:0.132292;stroke-dasharray:none;stroke-opacity:1"
       d="m 56.12693,161.6547 c 0.228557,0 23.084199,-3.55895 23.084199,-3.55895 v 0.58772 L 56.8126,161.81796 h -0.68567 z"
       id="path1663" />
    <path
       style="fill:none;fill-opacity:0;stroke:#f4f4f4;stroke-width:0.132292;stroke-dasharray:none;stroke-opacity:1"
       d="m 71.374909,147.68011 v -1.11013 l 3.787508,-1.56725 1.403988,-1.27338 0.261207,0.1959 -0.163253,0.39181 -1.43664,0.97953 -3.428347,1.43664 -0.09795,0.0327 -0.0653,0.94688 z"
       id="path1667" />
    <path
       style="fill:none;fill-opacity:0;stroke:#f4f4f4;stroke-width:0.132292;stroke-dasharray:none;stroke-opacity:1"
       d="m 72.223833,147.97397 0.09795,-0.26121 0.391811,-0.16326 h 0.163253 l 0.195905,0.0327"
       id="path1669" />
    <path
       style="fill:none;fill-opacity:0;stroke:#f4f4f4;stroke-width:0.132292;stroke-dasharray:none;stroke-opacity:1"
       d="m 73.040107,147.5495 0.326509,0.26121 0.0653,0.35916 -0.03265,0.39181 -0.457112,0.26121 h -0.522415 l -0.163253,-0.26121 -0.09795,-0.2612 0.163256,-0.58772 z"
       id="path1671" />
    <path
       style="fill:none;fill-opacity:0;stroke:#f4f4f4;stroke-width:0.132292;stroke-dasharray:none;stroke-opacity:1"
       d="m 18.5625,125.18144 19.85541,0.9235 2.170242,0.73881 2.539645,2.07789 7.203358,6.5569 1.20056,1.24674 1.985542,5.72574 -0.138525,3.92491 -0.92351,3.87873 -1.246732,2.58582 -1.847017,5.6334 -1.154385,3.0014 0.646456,17.68517 0.369404,2.26259 -1.708489,0.23088 -1.800841,-0.0462 -7.018655,0.96968 -2.539646,0.41558 -0.323228,0.87733 -2.724346,-3.41697 -11.220616,1.70848 -3.0014,8.08069 -1.200559,0.0924 v -65.19963 h 0.738806 z"
       id="path1677" />
    <path
       style="fill:none;fill-opacity:0;stroke:#f4f4f4;stroke-width:0.132292;stroke-dasharray:none;stroke-opacity:1"
       d="m 17.958006,127.7957 19.459948,0.65302 2.416167,0.39181 2.024356,1.63254 5.68126,4.96294 2.285566,2.28557 0.848924,0.97952 0.391811,1.04483 0.457113,1.43665 0.457112,1.95905 0.130604,1.82845 -0.914225,4.44053 -1.43664,4.50582 -2.742679,7.44441 -0.130604,1.30604 0.653018,16.91318 0.195906,2.02435 1.501944,-0.1959 -0.457115,-2.22026 -0.587716,-17.76211 3.265093,-9.20756 1.175432,-2.22026 0.783622,-3.5916 0.195906,-4.04871 -2.220262,-5.68126 -10.774804,-9.86058 -2.220262,-0.84893 -20.570079,-0.84892 z"
       id="path1679" />
    <path
       style="fill:none;fill-opacity:0;stroke:#f4f4f4;stroke-width:0.132292;stroke-dasharray:none;stroke-opacity:1"
       d="m 38.397481,125.77134 c 0.522415,0.0653 6.726089,0.1959 6.726089,0.1959 l 1.893753,4.37523 0.326509,1.30604 0.261207,0.97952 -0.0653,0.32651 -6.856692,-6.07307 -2.15496,-0.84892 z"
       id="path1681" />
    <path
       style="fill:none;fill-opacity:0;stroke:#f4f4f4;stroke-width:0.132292;stroke-dasharray:none;stroke-opacity:1"
       d="m 47.409134,131.97501 23.378059,1.37134 0.848924,0.91423 1.501941,0.39181 3.722206,6.26898 27.949186,-3.461 0.52241,-0.19591 0.65302,-1.17543 4.24462,-17.56619 -33.947784,-13.7971 7.203357,0.92351 32.322767,12.74441 0.46175,0.1847 -4.70989,19.3013 -0.92351,1.93937 -32.322758,4.24813 -5.07929,-8.49627 -24.472948,-1.47761 -1.754663,-1.66231 z"
       id="path1683" />
    <path
       style="fill:none;fill-opacity:0;stroke:#f4f4f4;stroke-width:0.132292;stroke-dasharray:none;stroke-opacity:1"
       d="m 113.40671,121.16418 1.10821,0.1847 v 0.92351 l -1.38526,-0.1847 z"
       id="path1685" />
    <path
       style="fill:none;fill-opacity:0;stroke:#f4f4f4;stroke-width:0.132292;stroke-dasharray:none;stroke-opacity:1"
       d="m 109.71268,135.7556 1.29291,0.3694 -0.3694,1.01586 -1.01586,-0.1847 z"
       id="path1687" />
    <path
       style="fill:none;fill-opacity:0;stroke:#f4f4f4;stroke-width:0.132292;stroke-dasharray:none;stroke-opacity:1"
       d="m 76.281716,108.23507 -3.971081,6.09515 -3.50933,12.375 1.385263,3.78638 -1.01586,0.0923 -0.923507,-3.69403 3.416977,-13.02145 3.878731,-5.91045 z"
       id="path1689" />
    <path
       style="fill:none;fill-opacity:0;stroke:#f4f4f4;stroke-width:0.132292;stroke-dasharray:none;stroke-opacity:1"
       d="m 46.360074,128.82929 c 1.847014,0.3694 25.488805,1.84701 25.488805,1.84701 l 4.617537,7.38807 27.612874,-2.95523 3.69403,-15.05317 0.0923,-0.3694 -20.594216,-8.21922 -12.374999,-3.69403 -10.805038,-3.13993 12.467352,0.18471 33.615671,13.76026 -4.06343,17.08489 -0.64646,1.75466 -28.444028,3.50933 -3.78638,-6.27985 -1.385263,-0.46176 -1.200558,-0.83115 -23.27239,-1.47762 -0.461753,-1.66231 z"
       id="path1691" />
    <path
       style="fill:none;fill-opacity:0;stroke:#f4f4f4;stroke-width:0.132292;stroke-dasharray:none;stroke-opacity:1"
       d="m 69.632461,113.40671 c -0.461753,0.92351 -3.324627,13.02146 -3.324627,13.02146 l 2.031717,0.27705 3.324627,-12.83675 z"
       id="path1693" />
    <path
       style="fill:none;fill-opacity:0;stroke:#f4f4f4;stroke-width:0.132292;stroke-dasharray:none;stroke-opacity:1"
       d="m 17.916045,107.21921 10.250933,-1.75466 3.971081,0.1847 0.646456,7.94217 0.646454,4.24813 -3.139924,1.75467 0.738806,1.29291 -0.831156,0.9235 -12.005598,0.46176 z"
       id="path1695" />
    <path
       style="fill:none;fill-opacity:0;stroke:#f4f4f4;stroke-width:0.132292;stroke-dasharray:none;stroke-opacity:1"
       d="m 18.285448,116.36194 7.665111,0.0923 -0.738806,-9.23508 -7.295708,1.10821 z"
       id="path1697" />
    <path
       style="fill:none;fill-opacity:0;stroke:#f4f4f4;stroke-width:0.132292;stroke-dasharray:none;stroke-opacity:1"
       d="m 25.027052,107.12686 6.833956,-1.47761 1.477611,12.09795 -0.554104,0.27705 -6.833956,-1.75466 z"
       id="path1699" />
    <path
       style="fill:none;fill-opacity:0;stroke:#f4f4f4;stroke-width:0.132292;stroke-dasharray:none;stroke-opacity:1"
       d="m 41.834887,105.7416 1.385263,14.40672 0.461753,-0.0923 -1.29291,-14.31437 z"
       id="path1701" />
    <path
       style="fill:none;fill-opacity:0;stroke:#f4f4f4;stroke-width:0.132292;stroke-dasharray:none;stroke-opacity:1"
       d="m 48.391791,110.82089 h 1.939364 v 1.01586 l -1.847014,0.0924 z"
       id="path1703" />
    <path
       style="fill:none;fill-opacity:0;stroke:#f4f4f4;stroke-width:0.132292;stroke-dasharray:none;stroke-opacity:1"
       d="m 55.872202,105.46455 1.38526,4.06343 0.09235,3.04758 -0.461754,2.67817 -1.754664,3.87873 -2.124067,2.95523 -1.939366,1.20055 -2.493471,1.56997 -3.509327,0.64645 -4.063434,0.1847 -2.308767,-0.5541 -5.171641,-2.40112 -2.40112,-1.84701 -0.877332,-1.33909 1.916276,-0.96968 1.339086,1.5007 1.5007,1.26982 2.354945,1.29291 2.909049,1.03894 2.28568,0.18471 3.070662,-0.20779 2.747435,-0.87734 2.401118,-1.40834 1.985542,-1.8701 1.062035,-1.70849 0.923507,-1.96246 0.507928,-2.37803 0.06926,-1.54687 -0.277051,-2.2626 -0.415578,-1.6854 -0.784982,-1.8701 -0.531019,-0.62337 -0.04617,-0.13852 z"
       id="path1705" />
    <path
       style="fill:none;fill-opacity:0;stroke:#f4f4f4;stroke-width:0.132292;stroke-dasharray:none;stroke-opacity:1"
       d="m 34.723879,105.46455 -0.969682,1.33909 -0.230875,0.41557 -0.461756,1.84702 -0.04617,2.77052 0.738806,2.86288 1.662314,2.44729 3.139924,2.4473 3.093752,0.83115 1.662313,0.1847 v -0.7388 l -2.124067,-0.3694 -2.49347,-1.06204 -1.939367,-1.70849 -1.20056,-1.43143 -1.062032,-1.93937 -0.277053,-2.17024 -0.04617,-1.75467 0.369403,-1.52378 1.10821,-1.61614 0.738804,-0.78498 z"
       id="path1707" />
    <path
       style="fill:none;fill-opacity:0;stroke:#f4f4f4;stroke-width:0.132292;stroke-dasharray:none;stroke-opacity:1"
       d="m 43.589551,119.77892 1.985541,-0.46176 2.031717,-0.7388 1.800839,-1.61614 1.20056,-1.98554 0.415579,-2.632 0.04617,-2.35494 -1.292911,-3.27845 -1.10821,-1.10821 0.784982,-0.13853 1.01586,1.20056 0.969682,2.26259 0.554104,1.66232 0.09235,2.21642 -0.692631,2.58582 -0.923507,1.75466 -2.124067,1.61614 -2.631998,1.52378 -2.493468,0.32323 0.04618,-0.60028 h 0.461754 z"
       id="path1709" />
    <path
       style="fill:none;fill-opacity:0;stroke:#f4f4f4;stroke-width:0.132292;stroke-dasharray:none;stroke-opacity:1"
       d="m 49.760002,162.14446 -1.501945,0.58772 0.130604,5.22415 32.585617,-3.78751 0.391811,-3.5263 -32.846824,4.11402 -0.0653,-0.91423 31.540788,-3.6569 c 0,0 -0.326509,-1.50194 -0.848923,-1.50194 -0.522415,0 -22.594435,3.13449 -22.594435,3.13449 H 54.65764 Z"
       id="path1711" />
    <path
       style="fill:none;fill-opacity:0;stroke:#f4f4f4;stroke-width:0.132292;stroke-dasharray:none;stroke-opacity:1"
       d="m 89.920632,155.02656 -1.763149,0.13061 0.0653,0.32651 1.240734,0.1959 0.391811,0.26121 1.567243,3.85281 -0.587716,0.91422 -1.371338,0.91423 -0.457113,0.19591 -0.326509,0.91422 -0.457112,0.58772 -0.326512,0.65302 -0.653018,1.17543 -0.522415,0.71832 -0.848923,0.26121 -1.306036,-0.19591 -2.024357,0.39181 -1.044829,-0.0653 -0.26121,-1.04483 0.26121,-0.58772 0.522415,-0.97952 0.261207,-0.65302 0.261207,-0.91423 0.587717,-0.65302 1.697847,-1.11013 1.175432,-0.84892 2.154963,3.98341 0.391811,-0.52241 -2.154963,-4.11402 -3.852807,2.93858 -0.391811,0.91423 -0.39181,0.97953 -0.326512,0.52241 -0.457113,0.0653 0.326509,-3.7875 h -0.457112 l -0.587717,-0.32651 h -0.261207 l -0.653018,-1.30604 -0.130604,-0.78362 0.457113,-0.84893 0.783622,-0.97952 0.326509,-0.0653 1.110133,-0.91423 1.501942,-0.97953 1.567243,-0.52241 1.697847,-0.13061 2.612076,0.84893 z"
       id="path1713" />
    <path
       style="fill:none;fill-opacity:0;stroke:#f4f4f4;stroke-width:0.132292;stroke-dasharray:none;stroke-opacity:1"
       d="m 70.228409,150.44267 c 0.210473,0 5.378799,-0.0935 5.378799,-0.0935 0,0 1.613638,-0.11693 1.730568,-0.0935 0.116933,0.0234 1.145918,0.18709 1.145918,0.18709 l 0.912059,0.39757 0.561266,0.51449 0.771742,0.79513 0.257246,0.25724 4.232881,0.49111 5.863923,1.61845 4.134115,1.78594 3.935677,2.74505 3.968747,3.43959 3.80339,4.66328 2.77812,4.29948 1.2237,2.08359 0.49609,0.4961 0.36381,0.23151 0.26458,0.16536 0.73587,0.19844 c 0,0 0.3142,0 0.38861,0 0.0744,0 0.37207,-0.0661 0.37207,-0.0661 0,0 0.13229,-0.0744 0.19844,-0.091 0.0661,-0.0165 0.47955,-0.25631 0.47955,-0.25631 l 0.42168,-0.36381 0.75241,-0.80201 0.90951,-1.37253 1.07487,-2.34818 1.74466,-5.29507 0.8419,-4.2095 2.57247,1.40317 0.3274,0.79512 -0.56126,3.13374 -2.99342,3.32082 1.21607,1.73057 -0.79512,2.71279 -1.63703,2.5257 -2.24506,1.1693 -3.44945,-0.88867 -1.20438,-0.24555 -0.37418,-0.29233 -0.95883,-1.03483 -1.0173,-1.11669 -2.3386,-3.29744 -2.72448,-4.38489 -1.70788,-2.21914 -2.282035,-2.14974 -1.967839,-1.47174 -2.960026,-1.67019 -3.819922,-1.50481 -0.859895,0.44648 -0.33073,-0.84336 -0.562239,-0.29766 -1.07487,-0.13229 -0.115755,-0.3638 1.785937,-0.0992 -0.677994,-0.64492 -2.546615,-0.77721 -1.686719,0.0992 -1.570963,0.4961 -1.488281,1.02526 -1.064231,0.81691"
       id="path2321" />
    <path
       style="fill:none;fill-opacity:0;stroke:#f4f4f4;stroke-width:0.132292;stroke-dasharray:none;stroke-opacity:1"
       d="m 70.87526,152.68939 c 0.03307,0 8.30957,-0.53744 8.30957,-0.53744 l -1.802473,-1.87689"
       id="path2323" />
    <path
       style="fill:none;fill-opacity:0;stroke:#f4f4f4;stroke-width:0.132292;stroke-dasharray:none;stroke-opacity:1"
       d="m 71.00015,152.14981 1.19269,-0.0935 -0.608039,-1.12253 -1.099145,0.0234"
       id="path2325" />
    <path
       style="fill:none;fill-opacity:0;stroke:#f4f4f4;stroke-width:0.132292;stroke-dasharray:none;stroke-opacity:1"
       d="m 73.221828,150.95717 1.660411,-0.0702 0.561266,0.91206 -1.613641,0.0702 -0.491106,-0.88868"
       id="path2327" />
    <path
       style="fill:none;fill-opacity:0;stroke:#f4f4f4;stroke-width:0.132292;stroke-dasharray:none;stroke-opacity:1"
       d="m 75.116099,150.86362 1.286235,-0.0234 0.467722,0.81852 -1.239461,0.14031 z"
       id="path2329" />
    <path
       style="fill:none;fill-opacity:0;stroke:#f4f4f4;stroke-width:0.132292;stroke-dasharray:none;stroke-opacity:1"
       d="m 71.514644,150.93378 1.870884,0.0234 v 0"
       id="path2331" />
    <path
       style="fill:none;fill-opacity:0;stroke:#f4f4f4;stroke-width:0.132292;stroke-dasharray:none;stroke-opacity:1"
       d="m 72.00575,152.0797 1.941044,-0.14032"
       id="path2333" />
    <path
       style="fill:none;fill-opacity:0;stroke:#f4f4f4;stroke-width:0.132292;stroke-dasharray:none;stroke-opacity:1"
       d="m 115.78828,176.64245 c 0.95911,-0.23151 9.26042,-4.69636 9.26042,-4.69636 l 2.54661,2.34818 0.69453,-0.16536 6.38308,4.59713 -7.17683,4.23333"
       id="path2335" />
    <path
       style="fill:none;fill-opacity:0;stroke:#f4f4f4;stroke-width:0.132292;stroke-dasharray:none;stroke-opacity:1"
       d="m 126.86771,182.09948 0.33073,-0.36381 1.15755,-0.29765 0.16536,-0.42995 1.65365,-0.56224 -0.0662,-0.39687 3.10886,-1.75287 0.7276,0.0662"
       id="path2337" />
    <path
       style="fill:none;fill-opacity:0;stroke:#f4f4f4;stroke-width:0.132292;stroke-dasharray:none;stroke-opacity:1"
       d="m 125.97474,181.76875 2.34818,-1.02526 h 0.82682"
       id="path2339" />
    <path
       style="fill:none;fill-opacity:0;stroke:#f4f4f4;stroke-width:0.132292;stroke-dasharray:none;stroke-opacity:1"
       d="m 126.96693,182.00026 -0.26459,0.26458"
       id="path2341" />
    <path
       style="fill:none;fill-opacity:0;stroke:#f4f4f4;stroke-width:0.132292;stroke-dasharray:none;stroke-opacity:1"
       d="m 123.72578,180.31354 c 0,0 0.92604,-0.33073 1.09141,-0.33073 0.16536,0 1.48828,1.15755 1.48828,1.15755 l -0.29766,0.59531"
       id="path2343" />
    <path
       style="fill:none;fill-opacity:0;stroke:#f4f4f4;stroke-width:0.132292;stroke-dasharray:none;stroke-opacity:1"
       d="m 122.2375,174.625 -0.89297,3.00963 0.8599,0.0331 0.76067,-2.94351 z"
       id="path2345" />
    <path
       style="fill:none;fill-opacity:0;stroke:#f4f4f4;stroke-width:0.132292;stroke-dasharray:none;stroke-opacity:1"
       d="m 119.95547,178.36224 0.82682,-2.94349 0.72761,0.0331 -0.8599,3.1419"
       id="path2347" />
    <path
       style="fill:none;fill-opacity:0;stroke:#f4f4f4;stroke-width:0.132292;stroke-dasharray:none;stroke-opacity:1"
       d="m 119.62474,178.1638 0.56224,-1.98438 -0.62839,-0.13229 -0.82682,1.75287"
       id="path2349" />
    <path
       style="fill:none;fill-opacity:0;stroke:#f4f4f4;stroke-width:0.132292;stroke-dasharray:none;stroke-opacity:1"
       d="m 118.43411,177.70078 0.42995,-0.8599 -0.79375,-0.16536 -0.39687,0.79375"
       id="path2351" />
    <path
       style="fill:none;fill-opacity:0;stroke:#f4f4f4;stroke-width:0.132292;stroke-dasharray:none;stroke-opacity:1"
       d="m 125.24713,176.87396 3.04271,-1.5875 2.97657,2.18281 -3.24115,1.85208 -2.94349,-2.3151 z"
       id="path2353" />
    <path
       style="fill:none;fill-opacity:0;stroke:#f4f4f4;stroke-width:0.132292;stroke-dasharray:none;stroke-opacity:1"
       d="m 125.61094,177.50234 3.20807,-1.75286"
       id="path2355" />
    <path
       style="fill:none;fill-opacity:0;stroke:#f4f4f4;stroke-width:0.132292;stroke-dasharray:none;stroke-opacity:1"
       d="m 129.6789,176.2125 -3.10885,1.81901"
       id="path2357" />
    <path
       style="fill:none;fill-opacity:0;stroke:#f4f4f4;stroke-width:0.132292;stroke-dasharray:none;stroke-opacity:1"
       d="m 130.43958,176.90703 -3.175,1.71979"
       id="path2359" />
    <path
       style="fill:none;fill-opacity:0;stroke:#f4f4f4;stroke-width:0.132292;stroke-dasharray:none;stroke-opacity:1"
       d="m 122.27057,177.70078 1.05833,1.15755 -0.89296,0.52917 -1.35599,-0.89297 0.0661,-0.69453 z"
       id="path2361" />
    <path
       style="fill:none;fill-opacity:0;stroke:#f4f4f4;stroke-width:0.132292;stroke-dasharray:none;stroke-opacity:1"
       d="m 116.54896,180.54505 1.28984,1.28984 1.2237,-0.62838"
       id="path2363" />
    <path
       style="fill:none;fill-opacity:0;stroke:#f4f4f4;stroke-width:0.132292;stroke-dasharray:none;stroke-opacity:1"
       d="m 121.27838,182.00026 -0.56224,0.29765 1.19063,1.2237 0.99219,-0.19843 0.0661,-0.69453"
       id="path2365" />
    <path
       style="fill:none;fill-opacity:0;stroke:#f4f4f4;stroke-width:0.132292;stroke-dasharray:none;stroke-opacity:1"
       d="m 119.29401,183.05859 c 0.13229,-0.0661 0.95911,-0.59531 0.95911,-0.59531 l 1.32292,1.05833 -0.0331,0.76068 -1.02526,0.19844 -1.38907,-1.12448 z"
       id="path2367" />
    <path
       style="fill:none;fill-opacity:0;stroke:#f4f4f4;stroke-width:0.132292;stroke-dasharray:none;stroke-opacity:1"
       d="m 116.05286,180.90885 c 0.19844,0.19844 4.3987,3.93568 4.3987,3.93568 l -0.95911,0.56224 -4.56406,-4.00182 z"
       id="path2369" />
    <path
       style="fill:none;fill-opacity:0;stroke:#f4f4f4;stroke-width:0.132292;stroke-dasharray:none;stroke-opacity:1"
       d="m 116.44974,181.27265 -1.02526,0.62839"
       id="path2371" />
    <path
       style="fill:none;fill-opacity:0;stroke:#f4f4f4;stroke-width:0.132292;stroke-dasharray:none;stroke-opacity:1"
       d="m 118.07031,182.66172 -0.95911,0.69453"
       id="path2373" />
    <path
       style="fill:none;fill-opacity:0;stroke:#f4f4f4;stroke-width:0.132292;stroke-dasharray:none;stroke-opacity:1"
       d="m 119.75703,184.34844 -0.79375,0.46302"
       id="path2375" />
    <path
       style="fill:none;fill-opacity:0;stroke:#f4f4f4;stroke-width:0.132292;stroke-dasharray:none;stroke-opacity:1"
       d="m 114.33307,181.96719 1.19063,1.22369 -0.33073,0.26459 1.42213,1.05833 0.26459,-0.16536 1.48828,1.55442 0.69453,-0.3638 -0.13229,-0.39687 -3.80339,-3.43959 z"
       id="path2377" />
    <path
       style="fill:none;fill-opacity:0;stroke:#f4f4f4;stroke-width:0.132292;stroke-dasharray:none;stroke-opacity:1"
       d="m 134.63984,178.79219 0.92604,3.30729 2.51355,2.48047 0.23151,0.56224 -4.79558,2.77812"
       id="path2379" />
    <path
       style="fill:none;fill-opacity:0;stroke:#f4f4f4;stroke-width:0.132292;stroke-dasharray:none;stroke-opacity:1"
       d="m 131.66328,188.9125 -3.50573,2.08359"
       id="path2381" />
    <path
       style="fill:none;fill-opacity:0;stroke:#f4f4f4;stroke-width:0.132292;stroke-dasharray:none;stroke-opacity:1"
       d="m 128.0914,191.09531 -3.9026,1.19063 c -0.13229,0 -5.45703,-5.49011 -5.45703,-5.49011 l 2.18281,-1.25677 3.90261,-1.2237 0.89297,-0.33073"
       id="path2383" />
    <path
       style="fill:none;fill-opacity:0;stroke:#f4f4f4;stroke-width:0.132292;stroke-dasharray:none;stroke-opacity:1"
       d="m 124.78411,184.21614 1.28985,3.24115 -4.00182,1.2237 -1.02527,0.52917"
       id="path2385" />
    <path
       style="fill:none;fill-opacity:0;stroke:#f4f4f4;stroke-width:0.132292;stroke-dasharray:none;stroke-opacity:1"
       d="m 126.00781,187.45729 c 0.16537,-0.0331 2.74505,-1.38906 2.74505,-1.38906"
       id="path2389" />
    <path
       style="fill:none;fill-opacity:0;stroke:#f4f4f4;stroke-width:0.132292;stroke-dasharray:none;stroke-opacity:1"
       d="m 130.43958,185.00989 5.15938,-2.87734"
       id="path2391" />
    <path
       style="fill:none;fill-opacity:0;stroke:#f4f4f4;stroke-width:0.132292;stroke-dasharray:none;stroke-opacity:1"
       d="m 134.5737,182.76094 0.76067,1.02526 -0.76067,0.56224 -0.16537,0.0992 -0.76068,-1.19062"
       id="path2393" />
    <path
       style="fill:none;fill-opacity:0;stroke:#f4f4f4;stroke-width:0.132292;stroke-dasharray:none;stroke-opacity:1"
       d="m 126.60312,187.29192 c 0,0 0.62839,1.12448 0.76068,1.12448 0.13229,0 0.79375,-0.49609 0.79375,-0.49609 l -0.59531,-1.09141 z"
       id="path2395" />
    <path
       style="fill:none;fill-opacity:0;stroke:#f4f4f4;stroke-width:0.132292;stroke-dasharray:none;stroke-opacity:1"
       d="m 126.10703,187.49036 2.11667,3.40651 -0.26459,0.29766"
       id="path2397" />
    <path
       style="fill:none;fill-opacity:0;stroke:#f4f4f4;stroke-width:0.132292;stroke-dasharray:none;stroke-opacity:1"
       d="m 106.73408,180.63411 11.03824,12.81557 6.5481,-1.02898"
       id="path2426" />
    <path
       style="fill:none;fill-opacity:0;stroke:#f4f4f4;stroke-width:0.132292;stroke-dasharray:none;stroke-opacity:1"
       d="m 112.15966,196.81728 4.77076,-0.93545 0.93544,-2.43215 -14.49937,3.55469"
       id="path2428" />
    <path
       style="fill:none;fill-opacity:0;stroke:#f4f4f4;stroke-width:0.132292;stroke-dasharray:none;stroke-opacity:1"
       d="m 59.77483,193.16905 55.09761,-10.00924 -3.08696,-3.08697"
       id="path2430" />
    <path
       style="fill:none;fill-opacity:0;stroke:#f4f4f4;stroke-width:0.132292;stroke-dasharray:none;stroke-opacity:1"
       d="m 105.89219,181.19537 5.98683,-1.12253"
       id="path2432" />
    <path
       style="fill:none;fill-opacity:0;stroke:#f4f4f4;stroke-width:0.132292;stroke-dasharray:none;stroke-opacity:1"
       d="m 114.87244,183.15981 4.58367,4.39658"
       id="path2434" />
    <path
       style="fill:none;fill-opacity:0;stroke:#f4f4f4;stroke-width:0.132292;stroke-dasharray:none;stroke-opacity:1"
       d="m 122.46901,165.03385 c 0.16536,-0.0992 1.05833,-1.0914 1.05833,-1.0914 l 3.50573,-9.49193 7.73906,-7.37526 0.66146,-0.29766 15.875,6.8461 1.15755,0.62838 2.05052,13.72526 0.19844,1.35599 -5.55625,14.68438 -1.32291,-0.39688 v 0.46302 l -6.41615,0.19844 0.13229,2.18281 -0.13229,-2.18281 h -1.52135 l -4.82865,-3.9026"
       id="path2436" />
    <path
       style="fill:none;fill-opacity:0;stroke:#f4f4f4;stroke-width:0.132292;stroke-dasharray:none;stroke-opacity:1"
       d="m 136.78958,183.35625 4.49792,3.30729 9.59115,-0.79375"
       id="path2438" />
    <path
       style="fill:none;fill-opacity:0;stroke:#f4f4f4;stroke-width:0.132292;stroke-dasharray:none;stroke-opacity:1"
       d="m 149.02656,184.01771 h 0.52917 l 1.12448,2.05052"
       id="path2440" />
    <path
       style="fill:none;fill-opacity:0;stroke:#f4f4f4;stroke-width:0.132292;stroke-dasharray:none;stroke-opacity:1"
       d="m 135.46666,155.04583 9.45886,4.7625 0.26458,0.8599 -6.41614,16.20573 -0.66146,-0.0662 -8.66511,-5.75469 -0.0661,-0.46302 4.89479,-14.08906 0.66146,-1.19063 z"
       id="path2442" />
    <path
       style="fill:none;fill-opacity:0;stroke:#f4f4f4;stroke-width:0.132292;stroke-dasharray:none;stroke-opacity:1"
       d="m 145.34451,160.84948 0.70158,-0.0234 1.56687,0.79513 0.0468,0.4911 -0.56126,1.37978 -1.87089,-0.98221 -0.28064,-0.30402 -0.0468,-0.39756 z"
       id="path2444" />
    <path
       style="fill:none;fill-opacity:0;stroke:#f4f4f4;stroke-width:0.132292;stroke-dasharray:none;stroke-opacity:1"
       d="m 146.5372,162.06556 0.56127,0.25724 -0.0935,0.25725 -0.60804,-0.30402 z"
       id="path2446" />
    <path
       style="fill:none;fill-opacity:0;stroke:#f4f4f4;stroke-width:0.132292;stroke-dasharray:none;stroke-opacity:1"
       d="m 144.50261,163.44534 2.03459,0.77174 0.0468,0.65481 -0.51449,1.09914 -0.42095,-0.11693 -1.56687,-0.8419 -0.0935,-0.30402 v -0.44433 l 0.23386,-0.51449 z"
       id="path2448" />
    <path
       style="fill:none;fill-opacity:0;stroke:#f4f4f4;stroke-width:0.132292;stroke-dasharray:none;stroke-opacity:1"
       d="m 143.40346,165.90088 c 0.21048,0 0.56127,0 0.56127,0 l 1.73057,0.81851 0.0702,0.25724 -0.23386,0.6782 -0.32741,0.88867 -0.39756,-0.0702 -0.95883,-0.56126 -0.56127,-0.42095 -0.23386,-0.28064 0.0702,-0.51449 0.11693,-0.51449 z"
       id="path2450" />
    <path
       style="fill:none;fill-opacity:0;stroke:#f4f4f4;stroke-width:0.132292;stroke-dasharray:none;stroke-opacity:1"
       d="m 145.34451,164.87189 0.1637,-0.23386 0.65481,0.35079 -0.14032,0.21047 z"
       id="path2452" />
    <path
       style="fill:none;fill-opacity:0;stroke:#f4f4f4;stroke-width:0.132292;stroke-dasharray:none;stroke-opacity:1"
       d="m 144.50261,167.3742 0.1637,-0.25725 0.51449,0.30402 -0.18708,0.23386 z"
       id="path2454" />
    <path
       style="fill:none;fill-opacity:0;stroke:#f4f4f4;stroke-width:0.132292;stroke-dasharray:none;stroke-opacity:1"
       d="M 126.56548,154.62878 Z"
       id="path2456" />
    <path
       style="fill:none;fill-opacity:0;stroke:#f4f4f4;stroke-width:0.132292;stroke-dasharray:none;stroke-opacity:1"
       d="m 142.37448,168.47334 0.46772,-0.0935 1.91766,0.93544 -0.65481,1.87089 -1.87089,-1.07576 -0.18709,-0.42095 0.14032,-0.37418 0.0935,-0.37417 z"
       id="path2464" />
    <path
       style="fill:none;fill-opacity:0;stroke:#f4f4f4;stroke-width:0.132292;stroke-dasharray:none;stroke-opacity:1"
       d="m 141.85998,170.81195 -0.42095,0.37418 -0.14032,0.42095 -0.0468,0.56126 1.87089,1.30963 0.79513,-1.63703 z"
       id="path2466" />
    <path
       style="fill:none;fill-opacity:0;stroke:#f4f4f4;stroke-width:0.132292;stroke-dasharray:none;stroke-opacity:1"
       d="m 140.87776,173.57151 -0.51449,0.28063 -0.0935,0.46772 c 0,0 -0.32741,0.5145 -0.14032,0.65482 0.18709,0.14031 2.01121,1.30962 2.01121,1.30962 l 0.79512,-1.73058 z"
       id="path2468" />
    <path
       style="fill:none;fill-opacity:0;stroke:#f4f4f4;stroke-width:0.132292;stroke-dasharray:none;stroke-opacity:1"
       d="m 139.9891,176.05044 c 0.14031,0.18708 1.63702,1.02898 1.63702,1.02898 l -0.0468,1.07576 -0.28064,0.70158 -2.0112,-1.26284 -0.0468,-0.79513"
       id="path2470" />
    <path
       style="fill:none;fill-opacity:0;stroke:#f4f4f4;stroke-width:0.132292;stroke-dasharray:none;stroke-opacity:1"
       d="m 139.24074,176.82218 c 0,-0.0234 0.18124,-0.36833 0.18124,-0.36833 0,0 0.18124,-0.20463 0.20463,-0.22217 0.0234,-0.0175 0.15786,-0.11693 0.15786,-0.11693 l 0.23386,-0.0292 -0.0175,0.0175"
       id="path2472" />
    <path
       style="fill:none;fill-opacity:0;stroke:#f4f4f4;stroke-width:0.132292;stroke-dasharray:none;stroke-opacity:1"
       d="m 135.46666,153.25989 10.98021,5.35782 -0.79375,2.14974 0.0331,0.0992"
       id="path2474" />
    <path
       style="fill:none;fill-opacity:0;stroke:#f4f4f4;stroke-width:0.132292;stroke-dasharray:none;stroke-opacity:1"
       d="m 145.09088,162.52031 -0.39687,0.92604"
       id="path2476" />
    <path
       style="fill:none;fill-opacity:0;stroke:#f4f4f4;stroke-width:0.132292;stroke-dasharray:none;stroke-opacity:1"
       d="m 143.99948,165.23229 -0.3638,0.62838"
       id="path2478" />
    <path
       style="fill:none;fill-opacity:0;stroke:#f4f4f4;stroke-width:0.132292;stroke-dasharray:none;stroke-opacity:1"
       d="m 143.13958,167.48125 -0.42995,0.92604"
       id="path2480" />
    <path
       style="fill:none;fill-opacity:0;stroke:#f4f4f4;stroke-width:0.132292;stroke-dasharray:none;stroke-opacity:1"
       d="m 142.08125,170.02786 -0.23151,0.76068"
       id="path2482" />
    <path
       style="fill:none;fill-opacity:0;stroke:#f4f4f4;stroke-width:0.132292;stroke-dasharray:none;stroke-opacity:1"
       d="m 141.38672,172.24375 -0.66146,1.32291"
       id="path2484" />
    <path
       style="fill:none;fill-opacity:0;stroke:#f4f4f4;stroke-width:0.132292;stroke-dasharray:none;stroke-opacity:1"
       d="m 140.22296,175.06822 -0.37418,0.8419"
       id="path2486" />
    <path
       style="fill:none;fill-opacity:0;stroke:#f4f4f4;stroke-width:0.132292;stroke-dasharray:none;stroke-opacity:1"
       d="m 139.33428,177.73423 -0.74835,1.49671 -10.2431,-7.29645"
       id="path2488" />
    <path
       style="fill:none;fill-opacity:0;stroke:#f4f4f4;stroke-width:0.132292;stroke-dasharray:none;stroke-opacity:1"
       d="m 135.59251,153.31913 0.14032,0.0468 -0.60804,-0.14031 -6.68842,18.61532"
       id="path2490" />
    <path
       style="fill:none;fill-opacity:0;stroke:#f4f4f4;stroke-width:0.132292;stroke-dasharray:none;stroke-opacity:1"
       d="m 135.12479,152.66435 1.35639,-3.64823 11.5995,5.09817 -1.35639,3.74177 z"
       id="path2492" />
    <path
       style="fill:none;fill-opacity:0;stroke:#f4f4f4;stroke-width:0.132292;stroke-dasharray:none;stroke-opacity:1"
       d="m 134.75061,148.12745 -2.15152,5.94007"
       id="path2494" />
    <path
       style="fill:none;fill-opacity:0;stroke:#f4f4f4;stroke-width:0.132292;stroke-dasharray:none;stroke-opacity:1"
       d="m 131.85074,155.611 c -0.0935,0.18709 -0.28064,0.65481 -0.28064,0.65481"
       id="path2496" />
    <path
       style="fill:none;fill-opacity:0;stroke:#f4f4f4;stroke-width:0.132292;stroke-dasharray:none;stroke-opacity:1"
       d="m 131.05561,157.85606 -0.3274,0.56127"
       id="path2498" />
    <path
       style="fill:none;fill-opacity:0;stroke:#f4f4f4;stroke-width:0.132292;stroke-dasharray:none;stroke-opacity:1"
       d="m 130.26048,160.05435 -0.28063,0.70159"
       id="path2500" />
    <path
       style="fill:none;fill-opacity:0;stroke:#f4f4f4;stroke-width:0.132292;stroke-dasharray:none;stroke-opacity:1"
       d="m 129.51213,162.11233 -0.37418,0.79513"
       id="path2502" />
    <path
       style="fill:none;fill-opacity:0;stroke:#f4f4f4;stroke-width:0.132292;stroke-dasharray:none;stroke-opacity:1"
       d="m 128.76377,164.59125 -0.42095,0.79513"
       id="path2504" />
    <path
       style="fill:none;fill-opacity:0;stroke:#f4f4f4;stroke-width:0.132292;stroke-dasharray:none;stroke-opacity:1"
       d="m 127.8751,166.92986 -0.37417,0.70158"
       id="path2506" />
    <path
       style="fill:none;fill-opacity:0;stroke:#f4f4f4;stroke-width:0.132292;stroke-dasharray:none;stroke-opacity:1"
       d="m 127.0332,169.17493 -1.35639,3.27405"
       id="path2508" />
    <path
       style="fill:none;fill-opacity:0;stroke:#f4f4f4;stroke-width:0.132292;stroke-dasharray:none;stroke-opacity:1"
       d="m 134.75061,148.31454 0.42095,-0.56127 15.57513,6.82874 -2.57247,7.39 -6.78196,17.86697 -1.30962,3.32083 h -0.46772 l -4.77076,-3.55469"
       id="path2510" />
    <path
       style="fill:none;fill-opacity:0;stroke:#f4f4f4;stroke-width:0.132292;stroke-dasharray:none;stroke-opacity:1"
       d="m 133.20713,149.99834 c -0.0935,0.18709 -7.62386,20.81361 -7.62386,20.81361 l -2.29184,-5.47234 0.42095,-1.6838"
       id="path2512" />
    <path
       style="fill:none;fill-opacity:0;stroke:#f4f4f4;stroke-width:0.132292;stroke-dasharray:none;stroke-opacity:1"
       d="m 126.14453,156.4529 1.30962,-1.26285 3.83532,-3.74177 1.91766,-1.54349"
       id="path2514" />
    <path
       style="fill:none;fill-opacity:0;stroke:#f4f4f4;stroke-width:0.132292;stroke-dasharray:none;stroke-opacity:1"
       d="m 150.46606,157.66897 c -0.0935,0.18709 -9.49475,24.64894 -9.49475,24.64894 l 6.36102,-0.46773 4.91107,-12.44139 -1.49671,-11.41241 z"
       id="path2516" />
    <path
       style="fill:none;fill-opacity:0;stroke:#f4f4f4;stroke-width:0.132292;stroke-dasharray:none;stroke-opacity:1"
       d="m 118.50026,194.20416 2.34818,2.57969 -2.21589,0.0992 -0.79375,-0.99219 z"
       id="path2518" />
    <path
       style="fill:none;fill-opacity:0;stroke:#f4f4f4;stroke-width:0.132292;stroke-dasharray:none;stroke-opacity:1"
       d="m 119.02943,193.84036 2.71197,3.04271 z"
       id="path2520" />
    <path
       style="fill:none;fill-opacity:0;stroke:#f4f4f4;stroke-width:0.132292;stroke-dasharray:none;stroke-opacity:1"
       d="m 119.09557,193.87344 4.72943,-0.89297"
       id="path2522" />
    <path
       style="fill:none;fill-opacity:0;stroke:#f4f4f4;stroke-width:0.132292;stroke-dasharray:none;stroke-opacity:1"
       d="m 123.92422,193.11276 3.96875,3.80338"
       id="path2524" />
    <path
       style="fill:none;fill-opacity:0;stroke:#f4f4f4;stroke-width:0.132292;stroke-dasharray:none;stroke-opacity:1"
       d="m 124.1888,192.21979 4.63021,4.69635"
       id="path2526" />
  </g>
  <path
     style="fill:#ffffff;fill-opacity:0;stroke:#f4f4f4;stroke-width:0.132292;stroke-dasharray:none;stroke-opacity:1"
     d="m 80.060053,167.62982 0.432625,-0.20815 c 0,0 0.828517,-0.46936 0.844844,-0.46528 0.01632,0.004 0.563227,-0.27345 0.563227,-0.27345 l 0.555066,-0.22855 0.26937,-0.11428 1.891871,-0.38022 1.322917,0.14883 0.810286,-0.24805 0.496094,-0.64492 1.488281,1.65365 0.926042,1.35599 0.01654,0.29765 -1.901692,0.21498 v 0.7276 l 0.264583,1.25677 0.595313,1.12448 -0.06615,0.99219 -0.463021,0.46302 -0.859896,0.46302 v -1.25677 l -0.463021,-1.38906 -0.330729,-0.52917 c 0,0 -0.198437,-0.33073 -0.529167,-0.33073 -0.330729,0 -1.322916,-0.0661 -1.5875,0.13229 -0.264583,0.19844 -0.595312,0.46303 -0.595312,0.46303 l -0.198438,1.38906 -0.132291,1.32291 v 0.46303"
     id="path2176" />
  <path
     style="fill:#ffffff;fill-opacity:0;stroke:#f4f4f4;stroke-width:0.132292;stroke-dasharray:none;stroke-opacity:1"
     d="m 83.394774,173.94569 v 0.23386 l -0.561266,-0.0468 c 0,0 -0.935445,-0.23387 -1.028988,-0.23387 -0.09354,0 -0.795126,-0.11692 -0.795126,-0.11692 l -0.537882,-0.0468 -0.140317,-0.3274 v -0.44434 l -0.140316,-1.0056 c 0,0 0.163703,-0.35079 0.233862,-0.44434 0.07016,-0.0935 0.210474,-0.23386 0.210474,-0.37417 0,-0.14032 0.02339,-0.37418 -0.02339,-0.49111 -0.04677,-0.11693 -0.11693,-0.28063 -0.11693,-0.39756 0,-0.11693 -0.11693,-0.53788 -0.187087,-0.65481 -0.07016,-0.11694 -0.07016,-0.49111 -0.09355,-0.63143 -0.02339,-0.14031 -0.09354,-0.91206 -0.09354,-0.91206 l -0.09355,-0.35079 0.140319,-0.1637"
     id="path2178" />
  <path
     style="fill:#ffffff;fill-opacity:0;stroke:#f4f4f4;stroke-width:0.132292;stroke-dasharray:none;stroke-opacity:1"
     d="m 51.262295,172.21512 28.764881,-4.02241 0.140316,0.0468"
     id="path2180" />
  <path
     style="fill:#ffffff;fill-opacity:0;stroke:#f4f4f4;stroke-width:0.132292;stroke-dasharray:none;stroke-opacity:1"
     d="m 53.834765,174.13277 c 0.46772,0 16.557347,-2.66601 16.557347,-2.66601 l 10.056016,-1.59025"
     id="path2182" />
  <path
     style="fill:#ffffff;fill-opacity:0;stroke:#f4f4f4;stroke-width:0.132292;stroke-dasharray:none;stroke-opacity:1"
     d="m 48.409193,169.87651 5.612659,4.44335 3.554685,2.66602 0.514493,0.88867 0.187089,0.65481 c 0,0 0.09355,0.28063 -0.09354,0.42095 -0.18709,0.14031 -1.403165,0.56126 -1.403165,0.56126 l -1.028988,0.65482 -1.356392,0.51449 -1.075762,0.3274 -0.841899,0.28064 -3.180505,0.14031 -0.467723,-2.19829 z"
     id="path2184" />
  <path
     style="fill:#ffffff;fill-opacity:0;stroke:#f4f4f4;stroke-width:0.132292;stroke-dasharray:none;stroke-opacity:1"
     d="m 58.278119,179.04385 0.795129,-0.42095 3.788544,-1.26284 2.291837,-0.60804 -0.982215,-2.1983 -5.051396,3.46115 -0.888669,0.28063 z"
     id="path2186" />
  <path
     style="fill:#ffffff;fill-opacity:0;stroke:#f4f4f4;stroke-width:0.132292;stroke-dasharray:none;stroke-opacity:1"
     d="m 64.077868,174.6005 0.795128,-0.37418 15.341269,-1.91766"
     id="path2188" />
  <path
     style="fill:#ffffff;fill-opacity:0;stroke:#f4f4f4;stroke-width:0.132292;stroke-dasharray:none;stroke-opacity:1"
     d="m 65.106856,176.47138 1.216075,-0.37417 1.917661,4.49013 12.628485,-1.59026 -1.403165,-3.27405 0.467722,-0.14031 0.748354,-0.14032 -0.09354,-1.21608 -1.543481,0.0936 0.09354,1.26285 0.467722,0.18708"
     id="path2190" />
  <path
     style="fill:#ffffff;fill-opacity:0;stroke:#f4f4f4;stroke-width:0.132292;stroke-dasharray:none;stroke-opacity:1"
     d="m 79.185277,175.48917 -1.075759,-0.88867 v -1.49671 l 2.011204,-0.32741"
     id="path2192" />
  <path
     style="fill:#ffffff;fill-opacity:0;stroke:#f4f4f4;stroke-width:0.132292;stroke-dasharray:none;stroke-opacity:1"
     d="M 80.073949,172.9167 Z"
     id="path2194" />
  <path
     style="fill:#ffffff;fill-opacity:0;stroke:#f4f4f4;stroke-width:0.132292;stroke-dasharray:none;stroke-opacity:1"
     d="m 80.728761,175.30208 h 0.280633 l 0.841899,0.56127 6.501331,-0.88867 0.327403,-0.0935 0.04677,-0.88867 -0.420949,-0.88867 -0.888672,0.65481 c 0,0 0.04677,-0.42095 -0.140317,-0.42095 -0.187087,0 -3.928861,0.79512 -3.928861,0.79512"
     id="path2196" />
  <path
     style="fill:#ffffff;fill-opacity:0;stroke:#f4f4f4;stroke-width:0.132292;stroke-dasharray:none;stroke-opacity:1"
     d="m 80.775531,178.90354 9.9157,-1.3564 -0.09354,-1.96443 -1.169305,-1.6838 -0.608039,0.0935 h -0.140316"
     id="path2198" />
  <path
     style="fill:#ffffff;fill-opacity:0;stroke:#f4f4f4;stroke-width:0.132292;stroke-dasharray:none;stroke-opacity:1"
     d="m 90.504141,175.72303 c -0.374176,0 -9.447977,1.1693 -9.447977,1.1693 l -1.169305,-1.35639"
     id="path2200" />
  <path
     style="fill:#ffffff;fill-opacity:0;stroke:#f4f4f4;stroke-width:0.132292;stroke-dasharray:none;stroke-opacity:1"
     d="m 81.009394,176.93911 -0.09355,2.0112"
     id="path2202" />
  <path
     style="fill:#ffffff;fill-opacity:0;stroke:#f4f4f4;stroke-width:0.132292;stroke-dasharray:none;stroke-opacity:1"
     d="m 89.334839,173.85214 c 0.374176,0 7.764179,-0.74835 7.764179,-0.74835 l 1.917658,2.15152 -2.245064,0.28063 -1.590254,-1.82411"
     id="path2204" />
  <path
     style="fill:#ffffff;fill-opacity:0;stroke:#f4f4f4;stroke-width:0.132292;stroke-dasharray:none;stroke-opacity:1"
     d="m 96.771612,175.53594 -2.291836,0.42095 -1.403165,-1.91766"
     id="path2206" />
  <path
     style="fill:#ffffff;fill-opacity:0;stroke:#f4f4f4;stroke-width:0.132292;stroke-dasharray:none;stroke-opacity:1"
     d="m 94.713638,175.95689 -2.712786,0.28063 -1.356394,-1.91766"
     id="path2208" />
  <path
     style="fill:#ffffff;fill-opacity:0;stroke:#f4f4f4;stroke-width:0.132292;stroke-dasharray:none;stroke-opacity:1"
     d="m 92.047625,176.2843 -1.449938,0.14031 v 0.0468"
     id="path2210" />
  <path
     style="fill:#ffffff;fill-opacity:0;stroke:#f4f4f4;stroke-width:0.132292;stroke-dasharray:none;stroke-opacity:1"
     d="m 90.831547,177.50037 11.225323,-1.44993 -0.0468,-0.60804 -4.770764,-4.95785 -3.180508,0.0468 -2.198292,-2.29183 -2.245064,0.23386"
     id="path2212" />
  <path
     style="fill:#ffffff;fill-opacity:0;stroke:#f4f4f4;stroke-width:0.132292;stroke-dasharray:none;stroke-opacity:1"
     d="m 17.679879,189.98854 c 0,0 -0.65481,6.73519 0.374177,6.73519 1.028988,0 33.114693,0.18709 33.488872,0.18709 0.374177,0 7.764179,-3.27405 7.764179,-3.27405 0,0 6.173925,-2.99342 6.828737,-2.99342 0.65481,0 36.669376,-7.10937 36.669376,-7.10937 l 2.99342,-2.15152 0.46772,-2.33861 c 0,0 -1.40316,-2.61924 -1.77734,-2.61924 -0.37418,0 -2.61924,-1.12253 -2.61924,-1.12253"
     id="path2214" />
  <path
     style="fill:#ffffff;fill-opacity:0;stroke:#f4f4f4;stroke-width:0.132292;stroke-dasharray:none;stroke-opacity:1"
     d="m 65.668122,181.94373 0.09354,8.69962 v 0 z"
     id="path2216" />
  <path
     style="fill:#ffffff;fill-opacity:0;stroke:#f4f4f4;stroke-width:0.132292;stroke-dasharray:none;stroke-opacity:1"
     d="m 67.539009,182.08404 0.42095,8.18513"
     id="path2218" />
  <path
     style="fill:#ffffff;fill-opacity:0;stroke:#f4f4f4;stroke-width:0.132292;stroke-dasharray:none;stroke-opacity:1"
     d="m 104.39548,178.2955 c -0.93545,0 -36.201661,5.98684 -36.201661,5.98684"
     id="path2220" />
  <path
     style="fill:#ffffff;fill-opacity:0;stroke:#f4f4f4;stroke-width:0.132292;stroke-dasharray:none;stroke-opacity:1"
     d="m 67.726096,186.62094 37.324194,-6.36101"
     id="path2222" />
  <path
     style="fill:#ffffff;fill-opacity:0;stroke:#f4f4f4;stroke-width:0.132292;stroke-dasharray:none;stroke-opacity:1"
     d="m 67.726096,188.86601 c 0.467723,0 36.762924,-6.92228 36.762924,-6.92228"
     id="path2224" />
  <path
     style="fill:#ffffff;fill-opacity:0;stroke:#f4f4f4;stroke-width:0.132292;stroke-dasharray:none;stroke-opacity:1"
     d="m 67.632553,181.94373 34.330767,-4.95785 3.18051,0.46772"
     id="path2226" />
  <path
     style="fill:#ffffff;fill-opacity:0;stroke:#f4f4f4;stroke-width:0.132292;stroke-dasharray:none;stroke-opacity:1"
     d="m 64.077868,176.79879 1.777344,5.33203"
     id="path2228" />
  <path
     style="fill:#ffffff;fill-opacity:0;stroke:#f4f4f4;stroke-width:0.132292;stroke-dasharray:none;stroke-opacity:1"
     d="m 62.300527,177.54714 1.96443,4.86431"
     id="path2230" />
  <path
     style="fill:#ffffff;fill-opacity:0;stroke:#f4f4f4;stroke-width:0.132292;stroke-dasharray:none;stroke-opacity:1"
     d="m 65.855212,182.03727 -12.534943,4.77076 -3.180506,0.74836 -1.028988,-6.26747"
     id="path2232" />
  <path
     style="fill:#ffffff;fill-opacity:0;stroke:#f4f4f4;stroke-width:0.132292;stroke-dasharray:none;stroke-opacity:1"
     d="m 50.32685,187.3693 0.841899,9.44798"
     id="path2234" />
  <path
     style="fill:#ffffff;fill-opacity:0;stroke:#f4f4f4;stroke-width:0.132292;stroke-dasharray:none;stroke-opacity:1"
     d="m 45.789453,182.62864 1.521354,-0.1819 0.826823,4.56407 -1.570963,0.21497 z"
     id="path2273" />
  <path
     style="fill:#ffffff;fill-opacity:0;stroke:#f4f4f4;stroke-width:0.132292;stroke-dasharray:none;stroke-opacity:1"
     d="m 44.846874,182.69479 0.79375,4.87825 -1.868619,0.14883 -0.51263,-4.87825 z"
     id="path2275" />
  <path
     style="fill:#ffffff;fill-opacity:0;stroke:#f4f4f4;stroke-width:0.132292;stroke-dasharray:none;stroke-opacity:1"
     d="m 40.481249,183.37278 c 0.06615,0.0165 1.719792,-0.1819 1.719792,-0.1819 l 0.56224,4.74597 c -0.08268,0 -1.86862,0.21497 -1.86862,0.21497 z"
     id="path2277" />
  <path
     style="fill:#ffffff;fill-opacity:0;stroke:#f4f4f4;stroke-width:0.132292;stroke-dasharray:none;stroke-opacity:1"
     d="m 38.149609,183.90195 1.422135,-0.16536 0.363803,4.7625 -1.5875,0.11575 z"
     id="path2279" />
  <path
     style="fill:#ffffff;fill-opacity:0;stroke:#f4f4f4;stroke-width:0.132292;stroke-dasharray:none;stroke-opacity:1"
     d="m 21.468424,196.67696 c 0,0 -0.327405,-7.39 -0.327405,-7.71741 l -3.086962,7.71741"
     id="path2281" />
  <path
     style="fill:#ffffff;fill-opacity:0;stroke:#f4f4f4;stroke-width:0.132292;stroke-dasharray:none;stroke-opacity:1"
     d="m 20.953931,185.07746 0.140316,3.92886"
     id="path2283" />
  <path
     style="fill:#ffffff;fill-opacity:0;stroke:#f4f4f4;stroke-width:0.132292;stroke-dasharray:none;stroke-opacity:1"
     d="m 20.907159,186.24677 4.256267,-0.5145 0.140316,-3.74177 7.483547,-1.02899 2.478925,3.41437 -1.449937,0.74836 0.09354,-0.0468"
     id="path2285" />
  <path
     style="fill:#ffffff;fill-opacity:0;stroke:#f4f4f4;stroke-width:0.132292;stroke-dasharray:none;stroke-opacity:1"
     d="m 35.359758,184.46942 -0.18709,2.61925 -2.151518,-2.57247 -7.904496,1.1693"
     id="path2287" />
  <path
     style="fill:#ffffff;fill-opacity:0;stroke:#f4f4f4;stroke-width:0.132292;stroke-dasharray:none;stroke-opacity:1"
     d="m 24.976337,185.54519 0.04677,1.44993 0.233861,3.60146 0.280633,1.87089"
     id="path2289" />
  <path
     style="fill:#ffffff;fill-opacity:0;stroke:#f4f4f4;stroke-width:0.132292;stroke-dasharray:none;stroke-opacity:1"
     d="m 21.234564,191.34493 4.817533,-0.84189 9.073801,-1.44994 -0.09355,-0.0468"
     id="path2291" />
  <path
     style="fill:#ffffff;fill-opacity:0;stroke:#f4f4f4;stroke-width:0.132292;stroke-dasharray:none;stroke-opacity:1"
     d="m 21.37488,192.98196 14.592917,-2.47892"
     id="path2293" />
  <path
     style="fill:#ffffff;fill-opacity:0;stroke:#f4f4f4;stroke-width:0.132292;stroke-dasharray:none;stroke-opacity:1"
     d="m 35.87425,183.72107 c 0,0.23386 0.233863,6.64165 0.233863,6.64165 l 0.748355,6.40779"
     id="path2295" />
  <path
     style="fill:none;fill-opacity:0;stroke:#f4f4f4;stroke-width:0.132292;stroke-dasharray:none;stroke-opacity:1"
     d="m 97.262721,170.46116 2.034588,0.42095 3.905481,4.02241 7.95528,0.81188 h 1.35599 l 3.27422,0.95912 5.47357,2.19935 3.15846,1.81901 3.42305,2.39778 3.75377,3.07579 1.91823,1.80247 3.05937,3.14115 3.22728,4.72399 0.42095,0.98222 -3.27406,0.23386 -0.98221,-1.49671 -2.33861,-4.06918 -2.24506,-3.08696 -4.02241,-3.60146 -4.58367,-2.24506 -5.0514,-1.87089 -10.05601,-1.30962 -1.59026,0.0468"
     id="path2297" />
</svg>
