<?xml version="1.0" encoding="UTF-8" standalone="no"?>
<!-- Created with Inkscape (http://www.inkscape.org/) -->

<svg
   width="75mm"
   height="75mm"
   viewBox="0 0 75 75"
   version="1.1"
   id="svg5"
   xml:space="preserve"
   inkscape:version="1.2.1 (9c6d41e410, 2022-07-14)"
   sodipodi:docname="Charlemagne.svg"
   xmlns:inkscape="http://www.inkscape.org/namespaces/inkscape"
   xmlns:sodipodi="http://sodipodi.sourceforge.net/DTD/sodipodi-0.dtd"
   xmlns="http://www.w3.org/2000/svg"
   xmlns:svg="http://www.w3.org/2000/svg"><sodipodi:namedview
     id="namedview7"
     pagecolor="#ffffff"
     bordercolor="#000000"
     borderopacity="0.25"
     inkscape:showpageshadow="2"
     inkscape:pageopacity="0"
     inkscape:pagecheckerboard="true"
     inkscape:deskcolor="#d1d1d1"
     inkscape:document-units="mm"
     showgrid="false"
     showborder="false"
     inkscape:zoom="3.659624"
     inkscape:cx="71.04555"
     inkscape:cy="150.28866"
     inkscape:window-width="5120"
     inkscape:window-height="1377"
     inkscape:window-x="-8"
     inkscape:window-y="-8"
     inkscape:window-maximized="1"
     inkscape:current-layer="layer1" /><defs
     id="defs2" /><g
     inkscape:label="Layer 1"
     inkscape:groupmode="layer"
     id="layer1"><path
       style="fill:#ffffff;stroke-width:0.168672"
       d="m 16.687281,60.048292 c -0.510873,-0.231814 -1.102867,-0.334146 -1.939726,-0.335286 -0.935588,-0.0013 -1.41136,-0.09796 -2.131357,-0.433092 C 12.106399,59.042617 11.300464,58.54849 10.825233,58.181851 10.35,57.815212 9.6199192,57.080302 9.202831,56.548711 8.7857421,56.017125 8.2090348,55.115068 7.9212584,54.544143 7.4566247,53.622337 7.2133445,53.375988 5.7488177,52.344264 4.1600023,51.224986 4.0956801,51.154906 3.9924508,50.430559 c -0.058935,-0.41354 -0.1353142,-1.424967 -0.169734,-2.247622 -0.06258,-1.495735 -0.06258,-1.495735 1.9489725,-2.647984 1.9091194,-1.093574 2.0268452,-1.192533 2.3118198,-1.943272 0.165145,-0.435062 0.4743848,-0.981068 0.6871963,-1.213347 0.2128116,-0.23228 0.9941488,-0.81528 1.7363046,-1.295547 0.742156,-0.480273 7.080001,-4.103874 14.0841,-8.052441 7.0041,-3.948567 15.619013,-8.809664 19.144254,-10.802444 3.52524,-1.992781 7.889628,-4.476334 9.698631,-5.519014 1.809008,-1.042679 4.130304,-2.343358 5.158439,-2.890398 1.716316,-0.913198 1.957061,-0.994618 2.940998,-0.994618 0.589413,0 1.64577,0.159415 2.34746,0.354255 0.70169,0.19484 1.617363,0.531863 2.034823,0.748938 0.417461,0.217078 1.159039,0.561032 1.647944,0.764344 0.580782,0.241518 1.17003,0.67724 1.699869,1.256968 0.446026,0.488022 1.117314,1.474262 1.49175,2.191649 0.680799,1.304341 0.680799,1.304341 2.095245,1.831374 1.414447,0.527041 1.414447,0.527041 1.45948,1.454737 0.02473,0.51023 -0.05113,1.496965 -0.16867,2.192732 -0.213702,1.265043 -0.213702,1.265043 -1.77561,2.329279 -1.119583,0.762845 -1.654975,1.246663 -1.89055,1.708424 -0.28349,0.555683 -1.273904,1.262995 -7.209029,5.148373 -3.784212,2.477306 -9.022843,5.900183 -11.641394,7.606401 -2.61855,1.706218 -9.943124,6.417394 -16.276831,10.469282 -6.333708,4.051886 -11.819442,7.573749 -12.190519,7.82637 -0.371079,0.252616 -1.214851,0.73449 -1.875052,1.070822 -1.082441,0.551444 -1.330991,0.611152 -2.530077,0.607812 -0.958282,-0.0025 -1.535101,-0.0969 -2.06499,-0.33734 z m 3.493192,-0.18147 c 0.292151,-0.101847 0.531184,-0.258131 0.531184,-0.347298 0,-0.08917 0.078,-0.113915 0.173341,-0.05501 0.09534,0.05891 0.412615,-0.145331 0.70506,-0.453894 0.292447,-0.308563 0.475623,-0.466146 0.407057,-0.350179 -0.06856,0.115961 -0.07795,0.210834 -0.02086,0.210834 0.05709,0 2.509419,-1.544222 5.449623,-3.431605 2.940204,-1.887389 5.516604,-3.521958 5.725335,-3.632379 0.208732,-0.110428 0.379512,-0.320076 0.379512,-0.465891 0,-0.170309 0.09361,-0.229194 0.261769,-0.164667 0.143972,0.05527 0.227604,0.04437 0.185846,-0.0241 -0.04176,-0.06852 0.147947,-0.390233 0.421561,-0.714925 0.301874,-0.35823 0.450843,-0.457712 0.378866,-0.253011 -0.06524,0.185545 -0.201956,0.45492 -0.303816,0.598619 -0.101862,0.143699 -0.02223,0.09162 0.176961,-0.115738 0.19919,-0.207359 0.400465,-0.338717 0.447276,-0.291899 0.04681,0.04679 2.122959,-1.220335 4.613658,-2.815883 2.490693,-1.595548 7.811318,-5.023436 11.823597,-7.617532 4.012284,-2.594096 7.295058,-4.789831 7.295058,-4.879413 0,-0.08957 0.08763,-0.108706 0.194731,-0.04252 0.12446,0.07692 0.148787,0.04603 0.06741,-0.08566 -0.08233,-0.133224 -0.03583,-0.187131 0.131555,-0.152566 0.142379,0.02939 0.260667,-0.0051 0.26286,-0.07723 0.0019,-0.07187 0.136482,-0.35496 0.298407,-0.629078 0.170659,-0.288902 0.341012,-0.423007 0.405279,-0.319024 0.06887,0.111435 0.15138,0.07379 0.217833,-0.0994 0.083,-0.216291 0.02212,-0.265818 -0.271702,-0.220977 -0.208271,0.03181 -0.357823,0.156513 -0.332329,0.277166 0.0255,0.120653 -0.02843,0.17317 -0.119793,0.116695 -0.09138,-0.05648 -0.700478,0.252628 -1.353553,0.686899 -0.65308,0.434265 -1.187413,0.820871 -1.187413,0.859121 0,0.03825 0.09487,0.0139 0.21084,-0.05412 0.115961,-0.06802 0.653125,-0.420858 1.1937,-0.784087 0.540574,-0.363235 1.024169,-0.619121 1.074659,-0.568637 0.05049,0.05049 -0.903694,0.740412 -2.120395,1.533162 -1.216701,0.79275 -2.326493,1.441362 -2.466201,1.441362 -0.141563,0 -0.254012,-0.149334 -0.254012,-0.33734 0,-0.238157 0.111588,-0.336587 0.379511,-0.334764 0.306892,0.0019 0.331098,0.03386 0.126505,0.166088 -0.139153,0.08993 -0.200417,0.164673 -0.136144,0.166095 0.06427,0.0013 0.38686,-0.156723 0.716856,-0.351423 0.329995,-0.194705 0.599989,-0.387134 0.599989,-0.427615 0,-0.04049 -0.158304,0.01109 -0.351785,0.114661 -0.193488,0.103548 -0.389054,0.151011 -0.434591,0.105474 -0.04552,-0.04552 0.435349,-0.398227 1.068642,-0.783743 0.633299,-0.385515 1.606863,-0.997579 2.163477,-1.360138 0.55662,-0.362553 1.23974,-0.786771 1.518047,-0.942703 0.490059,-0.274577 0.49804,-0.273583 0.253011,0.03156 -0.221665,0.276044 -0.174656,0.269529 0.37951,-0.0526 0.347884,-0.202208 0.632521,-0.299427 0.632521,-0.216036 0,0.08338 -0.151891,0.199818 -0.337524,0.258743 -0.18564,0.0589 -0.419494,0.260284 -0.519684,0.447487 -0.100183,0.187201 -0.146452,0.376074 -0.102816,0.41971 0.04366,0.0436 1.283198,-0.70837 2.754587,-1.671123 1.471382,-0.962752 3.441212,-2.254054 4.377393,-2.869547 0.936189,-0.6155 1.792752,-1.228252 1.90348,-1.361668 0.110727,-0.133416 0.179679,-0.321109 0.153236,-0.417097 -0.02645,-0.09598 0.103715,-0.300263 0.289253,-0.453945 0.185544,-0.153675 0.03372,-0.107463 -0.33734,0.102702 -0.371082,0.210171 -0.824409,0.482358 -1.007397,0.604866 -0.182988,0.122502 -0.275196,0.222736 -0.204905,0.222736 0.07029,0 0.317258,-0.124134 0.548811,-0.275859 0.231553,-0.151719 0.456514,-0.24035 0.499902,-0.196962 0.04341,0.04341 -0.281564,0.3108 -0.722122,0.594239 -0.440556,0.283446 -2.082858,1.32229 -3.64956,2.308554 -1.5667,0.986256 -2.743188,1.663696 -2.614413,1.505424 0.208699,-0.256518 0.197492,-0.274947 -0.103211,-0.169639 -0.269401,0.09434 -0.252418,0.05043 0.08434,-0.218012 0.231923,-0.184875 0.877092,-0.617578 1.433706,-0.961554 0.55662,-0.343976 1.61925,-1.015283 2.361408,-1.491789 0.742159,-0.476511 1.569736,-1.01256 1.839073,-1.191232 0.269331,-0.178666 0.762699,-0.498174 1.096367,-0.710009 0.333667,-0.211842 0.797359,-0.477494 1.030422,-0.590351 0.233058,-0.112856 1.012319,-0.584708 1.73168,-1.048553 0.859516,-0.554217 1.349919,-0.987934 1.430404,-1.265036 0.06735,-0.231929 0.123018,-1.104807 0.1237,-1.939728 6.38e-4,-0.934638 -0.06585,-1.518047 -0.173336,-1.518047 -0.09602,0 -0.475531,0.255663 -0.843356,0.56814 -0.522054,0.443496 -0.585518,0.548729 -0.289272,0.479642 0.208731,-0.0487 0.379517,-0.07027 0.379517,-0.048 0,0.02224 -0.398489,0.309315 -0.885532,0.637857 -0.487037,0.328549 -1.492744,0.975025 -2.234903,1.436626 -0.742152,0.461594 -2.677666,1.659081 -4.301129,2.661078 -1.623471,1.001997 -3.74873,2.329941 -4.722811,2.950988 -0.974081,0.621045 -2.566989,1.630661 -3.539801,2.243592 -1.465212,0.923176 -1.793499,1.070171 -1.913017,0.856602 -0.07936,-0.141793 -0.108381,-0.293703 -0.06451,-0.337575 0.04386,-0.04386 1.047699,-0.683349 2.230734,-1.421064 1.183028,-0.737709 2.197743,-1.343812 2.254926,-1.346898 0.05719,-0.0032 0.281138,-0.153261 0.497684,-0.333712 0.321198,-0.26768 0.37362,-0.429726 0.284625,-0.879916 -0.05999,-0.303501 -0.190811,-0.779522 -0.2907,-1.057835 -0.09989,-0.278307 -0.375781,-0.923477 -0.613078,-1.433706 -0.237303,-0.510236 -0.792559,-1.463152 -1.2339,-2.117597 -0.441335,-0.654444 -1.242316,-1.608992 -1.779945,-2.121217 -0.583912,-0.556314 -1.510065,-1.194229 -2.300119,-1.584277 -1.111902,-0.548944 -1.545995,-0.667819 -2.724822,-0.746206 -0.771222,-0.05126 -1.367029,-0.03634 -1.324023,0.03328 0.04303,0.06958 -0.02117,0.138063 -0.142596,0.152197 -0.121437,0.01415 -0.296699,0.03544 -0.389468,0.0473 -0.09277,0.01192 -0.889746,0.43028 -1.771058,0.929755 -0.881306,0.499481 -4.069205,2.287898 -7.084211,3.974271 -3.015011,1.686372 -7.831213,4.38739 -10.702673,6.002266 -5.220838,2.936134 -5.220838,2.936134 -4.216796,3.042424 0.552221,0.05846 1.383551,0.278148 1.847398,0.488192 0.463848,0.210049 1.298774,0.707331 1.855391,1.105074 0.556618,0.397736 1.367256,1.088875 1.801419,1.535865 0.434165,0.446989 1.059824,1.192214 1.390359,1.656066 0.330532,0.463845 0.948555,1.516924 1.373383,2.340166 0.424827,0.823249 0.980436,2.135051 1.234686,2.915116 0.350142,1.074277 0.413736,1.45858 0.262179,1.584359 -0.110048,0.09134 -0.306685,0.125154 -0.436971,0.07516 -0.130286,-0.04998 -0.33624,-0.525695 -0.457676,-1.057108 -0.121435,-0.53142 -0.495049,-1.535477 -0.830252,-2.23125 -0.335204,-0.695774 -0.989213,-1.832481 -1.453354,-2.526017 -0.464143,-0.693543 -1.151062,-1.593961 -1.526491,-2.000934 -0.375426,-0.40698 -0.979027,-0.959394 -1.341334,-1.227596 -0.658739,-0.487636 -0.658739,-0.487636 -1.433711,-0.03181 -0.426234,0.250709 -1.562307,0.896178 -2.52461,1.434375 -0.962302,0.53819 -1.887625,0.97853 -2.056275,0.97853 -0.168651,0 -0.348102,-0.06709 -0.398777,-0.149086 -0.05068,-0.08199 -0.434669,-0.310093 -0.853314,-0.506876 -0.418646,-0.19679 -0.760583,-0.452287 -0.759859,-0.56777 7.01e-4,-0.11549 0.171504,-0.294525 0.379511,-0.39787 0.208008,-0.103339 1.318082,-0.725558 2.466831,-1.382706 1.894424,-1.083712 2.046618,-1.20536 1.636761,-1.308227 -0.248532,-0.06235 -0.846856,-0.06936 -1.329612,-0.01549 -0.482754,0.05387 -1.067492,0.130681 -1.299416,0.170742 -0.231924,0.0401 -2.05358,1.000192 -4.048125,2.133629 -1.994545,1.133431 -4.562604,2.602728 -5.706798,3.265103 -1.144194,0.662376 -2.510436,1.452792 -3.036093,1.756485 -0.525658,0.303686 -1.1632273,0.792693 -1.4168216,1.086682 -0.253595,0.293984 -0.5796966,0.891633 -0.7246705,1.328111 -0.1799994,0.541926 -0.4082078,0.86647 -0.7196215,1.023404 -0.2508186,0.126397 -1.1201787,0.603904 -1.9319118,1.061125 -0.811733,0.457221 -1.475879,0.890568 -1.475879,0.962988 0,0.07243 0.3984877,0.385828 0.8855272,0.696462 0.4870404,0.310629 1.3788927,0.813004 1.9818944,1.116384 0.6030023,0.303387 1.1684744,0.620829 1.2566056,0.70544 0.088131,0.08461 0.2389522,0.153835 0.335158,0.153835 0.096207,0 -0.2415584,-0.299467 -0.75059,-0.665481 -0.5090297,-0.366015 -1.0773138,-0.694225 -1.2628531,-0.729345 -0.3373433,-0.06386 -0.3373433,-0.06386 0,-0.211083 0.1855393,-0.08096 0.4756815,-0.322026 0.6447618,-0.535691 0.1690803,-0.213664 0.4726896,-0.393286 0.6746873,-0.39917 0.3672694,-0.01071 0.3672694,-0.01071 0.00879,-0.155455 -0.3247489,-0.13114 -0.3410007,-0.200614 -0.1727045,-0.738307 0.1021759,-0.326451 0.2199107,-0.559413 0.26163,-0.517689 0.041718,0.04169 0.2677787,-0.09562 0.5023487,-0.305196 0.4264951,-0.381054 0.4264951,-0.381054 0.1398292,0.0406 -0.1576677,0.231922 -0.3937059,0.612758 -0.5245273,0.846294 -0.2367885,0.4227 -0.2350781,0.424351 0.3787018,0.36595 0.3511158,-0.03341 1.0223405,0.09322 1.5590763,0.294123 0.65243,0.244214 1.280517,0.676675 2.04072,1.405108 0.604014,0.578773 1.324656,1.355926 1.601428,1.727002 0.276772,0.371076 0.560369,0.788542 0.630216,0.927696 0.06985,0.139153 -0.0882,0.01676 -0.351207,-0.271932 -0.263014,-0.288716 -0.846867,-0.952864 -1.297454,-1.475883 -0.450587,-0.523018 -0.891505,-0.950939 -0.979816,-0.950939 -0.08831,0 -0.10299,0.09487 -0.03261,0.21084 0.07037,0.115961 -0.133877,0.01333 -0.453895,-0.228014 -0.320016,-0.241365 -0.83657,-0.57006 -1.1479,-0.730422 -0.3113268,-0.16037 -0.8978716,-0.304426 -1.3034313,-0.320121 -0.5880427,-0.02276 -0.8243889,0.05846 -1.167012,0.401096 -0.4296329,0.429637 -0.4296329,0.429637 0.5444085,1.098393 0.9740413,0.668763 0.9740413,0.668763 0.9884304,1.931716 0.010557,0.927097 -0.00274,1.009723 -0.050063,0.310704 -0.05225,-0.771993 -0.1268148,-0.968566 -0.3939011,-1.038411 -0.300622,-0.07862 -0.331813,0.01211 -0.356446,1.036588 -0.014841,0.617515 -0.05355,0.857087 -0.086001,0.532396 -0.032454,-0.324692 -0.097947,-0.827972 -0.145543,-1.118399 -0.074395,-0.453976 -0.3403542,-0.69256 -1.8958938,-1.700787 -0.9951454,-0.64501 -1.9164724,-1.235379 -2.0473931,-1.311943 -0.2010113,-0.117542 -0.220914,0.107654 -0.127953,1.447781 0.060548,0.872841 0.1528807,1.738783 0.205188,1.924321 0.052305,0.185545 0.7880235,0.792763 1.6349249,1.349377 0.8469029,0.55662 1.5827577,1.018585 1.6352328,1.026598 0.052473,0.008 0.2282384,0.07306 0.3905854,0.144554 0.1623464,0.07149 0.2951759,0.20043 0.2951759,0.286536 0,0.0882 -0.1657219,0.07626 -0.379512,-0.02735 -0.3644371,-0.176606 -0.3665052,-0.173489 -0.052096,0.0784 0.1800778,0.144273 0.3976578,0.262319 0.4835118,0.262319 0.085852,0 0.1198227,-0.189759 0.075487,-0.421681 -0.044338,-0.231929 -0.01523,-0.421681 0.064673,-0.421681 0.079905,0 0.1452818,0.151802 0.1452818,0.337346 0,0.204312 0.1164005,0.342019 0.2951759,0.349197 0.2524073,0.01014 0.2462981,0.03283 -0.042171,0.156819 -0.3245838,0.139472 -0.3232935,0.145407 0.034119,0.156812 0.338376,0.01077 0.3767976,-0.08205 0.4313478,-1.042344 0.059887,-1.054196 0.059887,-1.054196 0.092385,0.08963 0.026322,0.926319 -0.020343,1.164107 -0.2453807,1.250463 -0.152835,0.05865 -0.4958412,0.02435 -0.7622365,-0.07619 -0.4843565,-0.182823 -0.4843565,-0.182823 -0.017295,0.688965 0.2568838,0.479483 1.0363283,1.450459 1.7320993,2.157727 0.6972,0.708716 1.645485,1.477541 2.112602,1.712791 0.720942,0.363082 1.054825,0.423 2.234921,0.401083 0.763048,-0.01415 1.406327,0.01217 1.429507,0.05858 0.02318,0.04641 0.329359,0.217165 0.680392,0.379511 0.351033,0.162351 0.753999,0.295175 0.895481,0.295175 0.146986,0 0.214132,-0.09037 0.156664,-0.210834 -0.05532,-0.115968 -0.0033,-0.07801 0.115685,0.08433 0.151729,0.207093 0.448094,0.295176 0.993148,0.295176 0.427287,0 1.015918,-0.08333 1.308071,-0.185175 z m -1.94267,-0.09595 c 0.06184,-0.06184 0.16305,-0.06184 0.224897,0 0.06184,0.06184 0.01125,0.112449 -0.112449,0.112449 -0.123692,0 -0.174294,-0.05062 -0.112448,-0.112449 z m 0.534128,-0.188419 c 0.09277,-0.09542 0.889356,-0.637194 1.770191,-1.203938 0.880835,-0.56675 1.627366,-0.952909 1.658957,-0.858139 0.03159,0.09477 0.13443,0.124734 0.228531,0.06658 0.100218,-0.06197 0.09179,0.04246 -0.02034,0.251953 -0.105289,0.196739 -0.272786,0.357701 -0.372217,0.357701 -0.09943,0 -0.135581,-0.117797 -0.08033,-0.26177 0.06821,-0.177748 0.0334,-0.221576 -0.108458,-0.136553 -0.114899,0.06887 -0.702274,0.439576 -1.305276,0.82379 -0.603001,0.384222 -1.286122,0.796525 -1.518046,0.916228 -0.231924,0.119704 -0.345777,0.139574 -0.253008,0.04417 z M 17.043045,59.34012 c -0.208732,-0.100668 -0.379512,-0.250009 -0.379512,-0.331864 0,-0.08186 0.147578,-0.06985 0.32795,0.02672 0.180373,0.09653 0.374607,0.25101 0.431633,0.343281 0.05703,0.09227 0.08023,0.162627 0.05156,0.156348 -0.02867,-0.0064 -0.222904,-0.09378 -0.431635,-0.194445 z m -1.897559,-0.553165 c 0,-0.04641 0.03795,-0.08434 0.08434,-0.08434 0.04638,0 0.08434,0.03793 0.08434,0.08434 0,0.04641 -0.03795,0.08433 -0.08434,0.08433 -0.04638,0 -0.08434,-0.03793 -0.08434,-0.08433 z m 0.759023,-0.253005 c -0.05734,-0.09277 -0.02834,-0.168676 0.06443,-0.168676 0.09277,0 0.215582,0.07591 0.272917,0.168676 0.05734,0.09277 0.02834,0.16867 -0.06443,0.16867 -0.09277,0 -0.215582,-0.0759 -0.272917,-0.16867 z m -1.771054,-1.265043 c 0,-0.04641 0.03795,-0.08433 0.08434,-0.08433 0.04639,0 0.08434,0.03793 0.08434,0.08433 0,0.04641 -0.03795,0.08434 -0.08434,0.08434 -0.04639,0 -0.08434,-0.03794 -0.08434,-0.08434 z m 3.033926,-1.832182 c -0.418655,-0.307326 -0.839937,-0.590082 -0.936181,-0.628338 -0.09624,-0.03825 -0.835191,-0.487019 -1.642105,-0.997248 -1.133667,-0.71685 -1.467177,-1.013957 -1.467393,-1.307213 -1.69e-4,-0.274087 0.09887,-0.37951 0.356635,-0.37951 0.196303,0 0.718814,0.265659 1.161133,0.59035 0.442321,0.324698 0.883364,0.590357 0.980093,0.590357 0.09673,0 0.200416,0.09983 0.230411,0.221856 0.04381,0.178265 0.303151,0.16241 1.319574,-0.08068 1.114402,-0.266519 1.164614,-0.293747 0.42168,-0.22862 -0.843359,0.07393 -0.843359,0.07393 -0.02789,-0.158488 0.448508,-0.127826 0.857212,-0.274158 0.908231,-0.325176 0.05102,-0.051 -0.0022,-0.321938 -0.118189,-0.602043 -0.116024,-0.280104 -0.277175,-0.468352 -0.358116,-0.418327 -0.08094,0.05004 -0.111169,-0.0078 -0.06718,-0.128648 0.04399,-0.12078 -0.245611,-0.826818 -0.643561,-1.568976 C 16.88657,49.27386 16.47652,48.666642 16.3733,48.666642 c -0.103222,0 -0.250926,-0.06909 -0.328236,-0.153542 -0.08335,-0.09105 -0.04308,-0.09696 0.09894,-0.01454 0.183989,0.10682 0.212797,0.06422 0.124284,-0.183798 -0.08574,-0.240241 -0.0271,-0.214952 0.229171,0.09884 0.189414,0.231923 0.657198,0.947759 1.03952,1.590743 0.382322,0.642989 0.812101,1.534839 0.955064,1.981898 0.142963,0.447053 0.321347,0.812825 0.396409,0.812825 0.07506,0 0.141813,0.13283 0.148334,0.295175 0.01014,0.252412 0.03286,0.246299 0.156816,-0.04214 0.119308,-0.27765 0.147059,-0.286536 0.156816,-0.05024 0.0096,0.231751 0.215157,0.298676 1.066055,0.347011 0.802407,0.04558 0.663903,0.06764 -0.579886,0.09239 -0.898746,0.01785 -2.138452,0.149468 -2.754902,0.292434 -0.616452,0.142955 -1.27636,0.210562 -1.466463,0.150229 -0.242616,-0.077 -0.283878,-0.147881 -0.138431,-0.237769 0.136767,-0.08453 0.02697,-0.190899 -0.322976,-0.312891 -0.291603,-0.101655 -0.726619,-0.339335 -0.966697,-0.528181 -0.240081,-0.18884 -0.502175,-0.343352 -0.582434,-0.343352 -0.08026,0 -0.145925,0.06437 -0.145925,0.143055 0,0.07868 0.315581,0.285358 0.70129,0.459294 0.38571,0.173929 0.898051,0.520041 1.138535,0.769137 0.240486,0.249097 0.956312,0.796473 1.590726,1.216395 0.695915,0.460632 1.258892,0.723046 1.419213,0.661527 0.175677,-0.06742 0.2244,-0.03506 0.143771,0.09536 -0.06708,0.108534 -0.212359,0.195457 -0.322846,0.193156 -0.110487,-0.0025 -0.543421,-0.255631 -0.962076,-0.562963 z m 8.435761,0.145465 c 0,-0.04641 0.03795,-0.08433 0.08433,-0.08433 0.04639,0 0.08434,0.03794 0.08434,0.08433 0,0.04641 -0.03795,0.08434 -0.08434,0.08434 -0.04639,0 -0.08433,-0.03793 -0.08433,-0.08434 z m -7.337226,-0.253004 c 0.05734,-0.09278 0.142195,-0.168677 0.18858,-0.168677 0.04638,0 0.03743,0.0759 -0.01991,0.168677 -0.05734,0.09277 -0.142195,0.16867 -0.18858,0.16867 -0.04638,0 -0.03743,-0.0759 0.01991,-0.16867 z m 1.096366,-0.253011 c 0,-0.04641 0.03795,-0.08433 0.08434,-0.08433 0.04638,0 0.08434,0.03793 0.08434,0.08433 0,0.04641 -0.03795,0.08433 -0.08434,0.08433 -0.04638,0 -0.08434,-0.03793 -0.08434,-0.08433 z M 19.109275,54.82317 c 0.05734,-0.09277 0.142195,-0.168676 0.18858,-0.168676 0.04638,0 0.03743,0.0759 -0.01991,0.168676 -0.05734,0.09277 -0.142196,0.16867 -0.188581,0.16867 -0.04638,0 -0.03743,-0.0759 0.01991,-0.16867 z m 7.674569,0.104983 c 0,-0.035 0.13283,-0.167853 0.295176,-0.295175 0.267524,-0.209807 0.27349,-0.20384 0.06368,0.06368 -0.127323,0.162345 -0.260151,0.295175 -0.295176,0.295175 -0.03503,0 -0.06368,-0.02869 -0.06368,-0.06369 z M 13.121423,54.654494 c 0,-0.123694 0.0506,-0.174292 0.112449,-0.112449 0.06184,0.06184 0.06184,0.163054 0,0.224897 -0.06184,0.06184 -0.112449,0.01122 -0.112449,-0.112448 z m 6.746875,0.09027 c 0,-0.0431 0.170781,-0.169396 0.379512,-0.280621 0.344128,-0.183364 0.357928,-0.176058 0.148019,0.0784 -0.127321,0.154346 -0.298102,0.280628 -0.379511,0.280628 -0.08141,0 -0.14802,-0.03532 -0.14802,-0.07841 z m -6.409531,-0.174605 c 0,-0.04641 0.03795,-0.08433 0.08434,-0.08433 0.04638,0 0.08434,0.03793 0.08434,0.08433 0,0.04641 -0.03795,0.08434 -0.08434,0.08434 -0.04639,0 -0.08434,-0.03793 -0.08434,-0.08434 z m 6.156523,-0.08433 c 0.05734,-0.09277 0.142196,-0.168669 0.18858,-0.168669 0.04639,0 0.03743,0.0759 -0.01991,0.168669 -0.05734,0.09277 -0.142195,0.16867 -0.18858,0.16867 -0.04639,0 -0.03743,-0.0759 0.01991,-0.16867 z m 7.927578,-0.168669 c 0.05734,-0.09278 0.137717,-0.168677 0.178627,-0.168677 0.04091,0 0.07438,0.0759 0.07438,0.168677 0,0.09277 -0.08038,0.168669 -0.178626,0.168669 -0.09824,0 -0.131716,-0.0759 -0.07438,-0.168669 z M 13.13474,54.050086 c 0.0081,-0.19649 0.04806,-0.236461 0.101905,-0.101904 0.04872,0.121756 0.04273,0.26724 -0.01331,0.323289 -0.05605,0.05604 -0.09591,-0.0436 -0.08859,-0.221385 z m 0.35691,-0.154612 c 0.0034,-0.278314 0.04124,-0.371746 0.084,-0.207634 0.04276,0.164111 0.03995,0.39182 -0.0062,0.506015 -0.04621,0.114196 -0.08119,-0.02009 -0.07776,-0.298381 z m 6.669012,0.232075 c 0.114417,-0.115272 0.250518,-0.167101 0.302451,-0.115164 0.05193,0.05195 -0.04168,0.146242 -0.208028,0.209584 -0.240391,0.09154 -0.259765,0.07216 -0.09442,-0.09442 z m 0.550995,0.105264 c 0,-0.04641 0.03795,-0.08434 0.08434,-0.08434 0.04639,0 0.08434,0.03793 0.08434,0.08434 0,0.04641 -0.03795,0.08434 -0.08434,0.08434 -0.04639,0 -0.08434,-0.03793 -0.08434,-0.08434 z m 0.42168,-0.253005 c 0.05734,-0.09277 0.142196,-0.168669 0.18858,-0.168669 0.04639,0 0.03742,0.0759 -0.01991,0.168669 -0.05734,0.09277 -0.142195,0.16867 -0.18858,0.16867 -0.04639,0 -0.03742,-0.0759 0.01991,-0.16867 z m 6.999882,0.104991 c 0,-0.03499 0.13283,-0.167854 0.295176,-0.295182 0.267524,-0.209802 0.27349,-0.203835 0.06368,0.06368 -0.127321,0.162346 -0.260151,0.295175 -0.295175,0.295175 -0.03502,0 -0.06369,-0.02869 -0.06369,-0.06369 z m -7.25289,-0.358002 c 0,-0.04641 0.03795,-0.08433 0.08434,-0.08433 0.04639,0 0.08434,0.03793 0.08434,0.08433 0,0.04641 -0.03795,0.08434 -0.08434,0.08434 -0.04639,0 -0.08434,-0.03793 -0.08434,-0.08434 z m 0.84336,-0.242568 c 0,-0.08305 0.09488,-0.18928 0.21084,-0.236073 0.115962,-0.04679 -0.124396,-0.09107 -0.534129,-0.09839 -0.409731,-0.0074 -0.692242,-0.06604 -0.627803,-0.130484 0.06444,-0.06444 0.358165,-0.133843 0.652721,-0.154237 0.294557,-0.0204 0.67164,0.05827 0.837962,0.174732 0.282553,0.197906 0.274767,0.224407 -0.118593,0.403634 -0.23155,0.105506 -0.420998,0.123872 -0.420998,0.0408 z m 7.084218,0.0739 c 0,-0.04641 0.03795,-0.08433 0.08434,-0.08433 0.04639,0 0.08434,0.03793 0.08434,0.08433 0,0.04641 -0.03795,0.08433 -0.08434,0.08433 -0.04639,0 -0.08434,-0.03793 -0.08434,-0.08433 z M 16.115349,53.362084 c 0.115962,-0.04679 0.305718,-0.04679 0.42168,0 0.115962,0.04679 0.02108,0.08507 -0.21084,0.08507 -0.231924,0 -0.326802,-0.03832 -0.21084,-0.08507 z m 13.704589,-0.478641 c 0,-0.04641 0.03795,-0.08434 0.08434,-0.08434 0.04639,0 0.08434,0.03793 0.08434,0.08434 0,0.04641 -0.03795,0.08433 -0.08434,0.08433 -0.04639,0 -0.08434,-0.03793 -0.08434,-0.08433 z m -6.240859,-0.506016 c 0,-0.04641 0.03795,-0.08433 0.08434,-0.08433 0.04639,0 0.08433,0.03793 0.08433,0.08433 0,0.04641 -0.03795,0.08434 -0.08433,0.08434 -0.04639,0 -0.08434,-0.03793 -0.08434,-0.08434 z m 6.97177,-0.02811 c 0.06184,-0.06184 0.16305,-0.06184 0.224897,0 0.06185,0.06184 0.01124,0.112449 -0.112449,0.112449 -0.123692,0 -0.174294,-0.05062 -0.112448,-0.112449 z M 21.380466,51.596572 C 21.27227,51.194762 20.871702,50.29525 20.490314,49.597653 20.108927,48.900061 19.451357,47.787955 19.029044,47.126312 18.606732,46.46467 17.925232,45.55884 17.5146,45.113362 17.103967,44.667877 16.270101,43.92612 15.661564,43.465016 15.053029,43.003906 14.02596,42.372717 13.37919,42.062363 c -0.646769,-0.310348 -1.052332,-0.564277 -0.901251,-0.564277 0.151083,0 0.775135,0.224534 1.386785,0.498965 0.611649,0.274425 1.11209,0.466606 1.11209,0.427061 0,-0.03952 -0.208731,-0.18513 -0.463847,-0.323531 -0.255116,-0.138401 -0.383478,-0.254681 -0.285246,-0.258398 0.09823,-0.0038 0.325938,0.10098 0.506015,0.232662 0.180077,0.131676 0.327414,0.334082 0.327414,0.449788 0,0.115713 0.105443,0.245527 0.234319,0.288488 0.162038,0.054 0.191073,0.0064 0.09413,-0.154613 -0.118671,-0.196993 -0.09666,-0.197421 0.143335,-0.0025 0.155941,0.126474 0.241935,0.297254 0.191095,0.379511 -0.05084,0.08226 -0.02219,0.149557 0.06367,0.149557 0.08586,0 0.682616,0.512339 1.326135,1.138537 0.643517,0.626191 1.553979,1.707805 2.02325,2.403572 0.469269,0.695774 1.120838,1.796482 1.447931,2.446024 0.327091,0.649544 0.716847,1.592254 0.866121,2.094916 0.149277,0.502662 0.238705,0.946636 0.198733,0.986607 -0.03998,0.03997 -0.161202,-0.256077 -0.269399,-0.657887 z m -5.728965,-8.664774 c 0,-0.04641 -0.03795,-0.08434 -0.08434,-0.08434 -0.04638,0 -0.08434,0.03794 -0.08434,0.08434 0,0.04641 0.03795,0.08434 0.08434,0.08434 0.04638,0 0.08434,-0.03794 0.08434,-0.08434 z m 8.792453,8.908032 c 0.20272,-0.249219 0.194805,-0.270843 -0.06369,-0.173968 -0.162347,0.06082 -0.295176,0.08094 -0.295176,0.04463 0,-0.03627 0.626195,-0.455405 1.391543,-0.931381 0.765349,-0.47597 1.581299,-0.993301 1.813223,-1.149623 0.398966,-0.268912 0.40921,-0.268427 0.190187,0.009 -0.127321,0.161262 -0.179259,0.293199 -0.115415,0.293199 0.06384,0 0.262892,-0.07857 0.442332,-0.174604 0.17944,-0.09603 0.326255,-0.141296 0.326255,-0.100579 0,0.04074 -0.626194,0.468506 -1.391543,0.950647 -0.765349,0.482134 -1.597201,1.020758 -1.848561,1.196944 -0.251359,0.17618 -0.507336,0.320325 -0.568836,0.320325 -0.0615,0 -0.0076,-0.128061 0.119675,-0.284586 z m 0.821844,-0.572673 c 0.421679,-0.343746 0.421679,-0.343746 -0.126504,-0.07626 -0.301501,0.147122 -0.548184,0.303495 -0.548184,0.347501 0,0.04399 0.05693,0.07831 0.126504,0.07625 0.06958,-0.0019 0.31626,-0.158438 0.548184,-0.347495 z m 1.931292,-1.193796 c 0.08813,-0.07792 0.10548,-0.141678 0.03855,-0.141678 -0.06693,0 -0.423668,0.199844 -0.792757,0.444096 -0.36909,0.244251 -0.671072,0.47815 -0.671072,0.519773 0,0.04162 0.284634,-0.09446 0.63252,-0.302417 0.347886,-0.207953 0.704626,-0.441852 0.792758,-0.519774 z m 3.972223,1.96672 c 0,-0.04641 0.03795,-0.08434 0.08434,-0.08434 0.04639,0 0.08434,0.03793 0.08434,0.08434 0,0.04641 -0.03795,0.08433 -0.08434,0.08433 -0.04639,0 -0.08434,-0.03793 -0.08434,-0.08433 z m -0.253008,-0.253005 c 0.05734,-0.09277 0.142196,-0.168676 0.18858,-0.168676 0.04639,0 0.03742,0.0759 -0.01991,0.168676 -0.05734,0.09277 -0.142196,0.16867 -0.18858,0.16867 -0.04639,0 -0.03743,-0.0759 0.01991,-0.16867 z m 0.759023,-0.08882 c 0.229242,-0.282407 0.225282,-0.301296 -0.04217,-0.201062 -0.162347,0.06082 -0.295175,0.08255 -0.295175,0.04826 0,-0.0343 0.284633,-0.223431 0.632518,-0.420279 0.558098,-0.315779 0.587756,-0.319431 0.252068,-0.03105 -0.209249,0.179775 -0.303378,0.352557 -0.209176,0.383961 0.0942,0.03142 -1.69e-4,0.163907 -0.209899,0.294474 -0.360511,0.224508 -0.36746,0.220485 -0.128168,-0.07431 z m 0.759024,-0.417193 c 0.05734,-0.09278 0.142195,-0.168677 0.18858,-0.168677 0.04639,0 0.03742,0.0759 -0.01991,0.168677 -0.05734,0.09277 -0.142195,0.16867 -0.18858,0.16867 -0.04639,0 -0.03742,-0.0759 0.01991,-0.16867 z m 0.494642,-0.318948 c 0.06297,-0.101891 0.262074,-0.264237 0.442447,-0.360767 0.180372,-0.09654 0.32795,-0.143623 0.32795,-0.104646 0,0.03896 -0.199102,0.201329 -0.442447,0.360774 -0.243346,0.159445 -0.390924,0.206537 -0.32795,0.104639 z m -0.157298,-0.355744 c 0.05734,-0.09277 0.142195,-0.16867 0.18858,-0.16867 0.04639,0 0.03742,0.0759 -0.01991,0.16867 -0.05734,0.09277 -0.142195,0.168676 -0.18858,0.168676 -0.04639,0 -0.03743,-0.07591 0.0199,-0.168676 z m 1.265039,-0.421681 c 0,-0.04641 0.03795,-0.08434 0.08433,-0.08434 0.04639,0 0.08434,0.03794 0.08434,0.08434 0,0.04641 -0.03795,0.08434 -0.08434,0.08434 -0.04639,0 -0.08433,-0.03793 -0.08433,-0.08434 z m 1.078321,-0.168669 c 0.05631,-0.139154 0.148783,-0.367723 0.205497,-0.507929 0.07806,-0.192973 0.02682,-0.226288 -0.21084,-0.137094 -0.273961,0.102822 -0.285218,0.08249 -0.08837,-0.159638 0.177641,-0.218497 0.272295,-0.234167 0.445369,-0.07375 0.180369,0.167185 0.176948,0.286902 -0.01907,0.667566 -0.131374,0.255115 -0.282984,0.463852 -0.336911,0.463852 -0.05392,0 -0.05197,-0.113857 0.0043,-0.253011 z M 16.56309,49.399607 c -0.07457,-0.120655 -0.04627,-0.148947 0.07438,-0.07439 0.107104,0.0662 0.194734,0.153824 0.194734,0.194738 0,0.04093 -0.03347,0.07438 -0.07438,0.07438 -0.04091,0 -0.128539,-0.08763 -0.194733,-0.194731 z m 11.738801,0.13791 c 0,-0.04641 0.263949,-0.247466 0.58655,-0.446844 0.322602,-0.199378 0.569284,-0.449176 0.548184,-0.555109 -0.0211,-0.105927 0.129724,-0.20416 0.335165,-0.21828 0.205445,-0.01415 0.565981,-0.151783 0.801192,-0.305898 0.235213,-0.154122 0.427659,-0.244163 0.427659,-0.200093 0,0.04406 -0.322585,0.297674 -0.716855,0.56357 -0.394271,0.265901 -1.00149,0.655248 -1.349375,0.865221 -0.347886,0.209975 -0.63252,0.343818 -0.63252,0.297433 z m 1.461824,-1.067661 c -0.06184,-0.06184 -0.163051,-0.06184 -0.224897,0 -0.06185,0.06184 -0.01124,0.112449 0.112448,0.112449 0.123692,0 0.174294,-0.05062 0.112449,-0.112449 z m -1.630496,0.7028 c 0,-0.04641 0.03795,-0.08434 0.08434,-0.08434 0.04639,0 0.08434,0.03793 0.08434,0.08434 0,0.04641 -0.03795,0.08434 -0.08434,0.08434 -0.04639,0 -0.08434,-0.03793 -0.08434,-0.08434 z m -11.80703,-0.16867 c 0,-0.04641 0.03795,-0.08433 0.08434,-0.08433 0.04638,0 0.08434,0.03793 0.08434,0.08433 0,0.04641 -0.03795,0.08433 -0.08434,0.08433 -0.04638,0 -0.08434,-0.03793 -0.08434,-0.08433 z m 12.313046,-0.16867 c 0,-0.04641 0.03795,-0.08433 0.08434,-0.08433 0.04639,0 0.08434,0.03793 0.08434,0.08433 0,0.04641 -0.03795,0.08434 -0.08434,0.08434 -0.04639,0 -0.08434,-0.03794 -0.08434,-0.08434 z m 0.337344,-0.168676 c 0,-0.04641 0.03795,-0.08434 0.08434,-0.08434 0.04639,0 0.08434,0.03794 0.08434,0.08434 0,0.04641 -0.03795,0.08434 -0.08434,0.08434 -0.04639,0 -0.08434,-0.03794 -0.08434,-0.08434 z M 15.55114,47.865449 c -0.321318,-0.37951 -0.321318,-0.37951 0.05819,-0.0582 0.208732,0.176721 0.379513,0.347502 0.379513,0.37951 0,0.032 -0.02619,0.0582 -0.05819,0.0582 -0.03201,0 -0.202788,-0.170779 -0.379512,-0.379516 z m 14.774814,-0.04213 c 0,-0.04641 0.03795,-0.08434 0.08433,-0.08434 0.04639,0 0.08434,0.03793 0.08434,0.08434 0,0.04641 -0.03795,0.08433 -0.08434,0.08433 -0.04639,0 -0.08433,-0.03793 -0.08433,-0.08433 z M 5.6998622,47.654634 c 0,-0.04641 0.03795,-0.08434 0.084336,-0.08434 0.046384,0 0.084336,0.03793 0.084336,0.08434 0,0.04641 -0.037951,0.08434 -0.084336,0.08434 -0.046385,0 -0.084336,-0.03793 -0.084336,-0.08434 z M 7.1335729,47.23296 c 0.1679111,-0.185545 0.3811951,-0.337346 0.4739647,-0.337346 0.092769,0 0.031289,0.151801 -0.1366214,0.337346 -0.1679111,0.185538 -0.381195,0.337339 -0.473964,0.337339 -0.09277,0 -0.031288,-0.151801 0.1366207,-0.337339 z m 31.1864461,0.0877 c 0.02014,-0.137298 0.449871,-0.537699 0.954942,-0.889777 0.50506,-0.352073 1.288956,-0.856093 1.741982,-1.120031 0.453033,-0.263937 0.775143,-0.401337 0.71581,-0.30533 -0.05935,0.09601 -0.01492,0.205556 0.09876,0.243442 0.113653,0.03787 -0.436165,0.487381 -1.22182,0.998886 -0.785655,0.511504 -1.594254,1.018311 -1.796889,1.126233 -0.20263,0.107916 -0.404647,0.196216 -0.448921,0.196216 -0.04424,0 -0.06401,-0.112334 -0.04386,-0.249639 z m 1.808988,-1.03732 c 0.82388,-0.522285 1.49796,-0.983892 1.49796,-1.025789 0,-0.04188 -0.284631,0.09777 -0.632521,0.310361 -0.347884,0.212593 -1.080722,0.6742 -1.628532,1.025788 -0.547804,0.351594 -0.937253,0.63926 -0.865438,0.63926 0.07181,0 0.804652,-0.427329 1.628531,-0.94962 z m -8.453679,1.033954 c 0,-0.04641 0.03795,-0.08433 0.08434,-0.08433 0.04639,0 0.08434,0.03794 0.08434,0.08433 0,0.04641 -0.03795,0.08434 -0.08434,0.08434 -0.04639,0 -0.08434,-0.03793 -0.08434,-0.08434 z M 13.964783,46.380316 c -0.510232,-0.460912 -0.912461,-0.90182 -0.893839,-0.979786 0.01862,-0.07797 -0.341916,-0.317762 -0.801192,-0.532874 -0.459277,-0.215112 -0.835047,-0.455322 -0.835047,-0.533791 0,-0.07848 0.380362,0.05004 0.84525,0.285638 0.464887,0.235575 1.175795,0.673289 1.579794,0.972704 0.404,0.299408 0.832806,0.696188 0.952904,0.881726 0.197496,0.305114 0.191597,0.315231 -0.06175,0.10585 -0.154061,-0.127321 -0.280107,-0.171245 -0.280107,-0.09761 0,0.07363 0.125617,0.272679 0.27915,0.44233 0.153532,0.169652 0.24841,0.305171 0.21084,0.301155 -0.03757,-0.0038 -0.485773,-0.384419 -0.996005,-0.845338 z m 0.370965,-0.201558 c -0.097,-0.115962 -0.428875,-0.349797 -0.737509,-0.519639 -0.561151,-0.308799 -0.561151,-0.308799 0.0292,0.206301 0.324693,0.283305 0.656572,0.517146 0.737507,0.519639 0.08094,0.0025 0.0678,-0.09034 -0.0292,-0.206301 z M 7.7239241,45.883582 c 0,-0.123693 0.050598,-0.174292 0.1124486,-0.112448 0.061844,0.06184 0.061844,0.163047 0,0.224897 -0.061843,0.06184 -0.1124486,0.01122 -0.1124486,-0.112449 z m 4.7228119,-0.59035 c 0,-0.04641 0.03795,-0.08434 0.08434,-0.08434 0.04639,0 0.08434,0.03793 0.08434,0.08434 0,0.04641 -0.03795,0.08433 -0.08434,0.08433 -0.04638,0 -0.08434,-0.03793 -0.08434,-0.08433 z M 8.4829475,45.040195 c 0.057337,-0.09277 0.1421956,-0.168669 0.1885801,-0.168669 0.046384,0 0.037428,0.0759 -0.01991,0.168669 -0.057337,0.09277 -0.1421956,0.168677 -0.1885801,0.168677 -0.046385,0 -0.037428,-0.07591 0.01991,-0.168677 z m 0.9276957,-0.253004 c 0,-0.04641 0.037951,-0.08434 0.084335,-0.08434 0.046385,0 0.084336,0.03794 0.084336,0.08434 0,0.04641 -0.037951,0.08434 -0.084336,0.08434 -0.046385,0 -0.084335,-0.03794 -0.084335,-0.08434 z M 36.060795,44.618515 c 0,-0.04641 0.03794,-0.08434 0.08433,-0.08434 0.04641,0 0.08434,0.03793 0.08434,0.08434 0,0.04641 -0.03793,0.08434 -0.08434,0.08434 -0.04641,0 -0.08433,-0.03793 -0.08433,-0.08434 z m 0.590351,-0.336524 c 0.185544,-0.147683 0.489153,-0.383329 0.674691,-0.523661 0.275528,-0.208393 0.283254,-0.238922 0.04214,-0.166617 -0.162345,0.0487 -0.295175,0.05559 -0.295175,0.01543 0,-0.04022 0.160963,-0.159254 0.357701,-0.264543 0.27804,-0.148806 0.329154,-0.145254 0.229526,0.01594 -0.08353,0.135163 -0.04654,0.177735 0.10615,0.122247 0.128877,-0.04685 0.216253,-0.167796 0.194176,-0.268821 -0.02206,-0.101024 0.07376,-0.139975 0.212989,-0.08655 0.139224,0.05342 0.365179,0.0044 0.502133,-0.109522 0.136948,-0.11366 0.207946,-0.273086 0.157762,-0.354278 -0.05017,-0.0812 0.02659,-0.102427 0.170531,-0.04718 0.143973,0.05528 0.26177,0.127946 0.26177,0.161555 0,0.0336 -0.409255,0.322907 -0.90945,0.642874 -0.500196,0.319974 -1.164343,0.705496 -1.475883,0.856711 -0.502484,0.243901 -0.528347,0.244628 -0.229086,0.0064 z M 9.7479862,44.281354 c 0,-0.04641 0.03795,-0.08434 0.08434,-0.08434 0.04639,0 0.08434,0.03794 0.08434,0.08434 0,0.04641 -0.03795,0.08434 -0.08434,0.08434 -0.04638,0 -0.08434,-0.03794 -0.08434,-0.08434 z M 36.735487,43.775338 c 0,-0.04641 0.03793,-0.08433 0.08434,-0.08433 0.04641,0 0.08433,0.03793 0.08433,0.08433 0,0.04641 -0.03793,0.08434 -0.08433,0.08434 -0.04641,0 -0.08434,-0.03793 -0.08434,-0.08434 z m 1.602382,-0.927696 c 0.05731,-0.09277 0.142194,-0.16867 0.188579,-0.16867 0.04641,0 0.03742,0.0759 -0.01989,0.16867 -0.05732,0.09277 -0.142195,0.168669 -0.188579,0.168669 -0.04641,0 -0.03742,-0.0759 0.01989,-0.168669 z m 1.265035,-0.421681 c 0,-0.04641 0.03793,-0.08434 0.08433,-0.08434 0.04641,0 0.08434,0.03793 0.08434,0.08434 0,0.04641 -0.03793,0.08433 -0.08434,0.08433 -0.04641,0 -0.08433,-0.03793 -0.08433,-0.08433 z M 13.796111,41.751276 c 0,-0.04641 0.03795,-0.08433 0.08434,-0.08433 0.04638,0 0.08434,0.03793 0.08434,0.08433 0,0.04641 -0.03795,0.08433 -0.08434,0.08433 -0.04639,0 -0.08434,-0.03794 -0.08434,-0.08433 z m 41.571867,-5.692678 c -0.04373,-0.115961 -0.01039,-0.666251 0.07402,-1.222871 0.153523,-1.012031 0.153523,-1.012031 0.126958,0.209623 -0.0146,0.671905 -0.04794,1.222195 -0.07403,1.222871 -0.02608,6.37e-4 -0.08324,-0.09366 -0.126958,-0.209623 z m -0.389302,-0.295175 c 0,-0.231923 0.03832,-0.326801 0.08507,-0.21084 0.04679,0.115961 0.04679,0.305719 0,0.421681 -0.04679,0.115961 -0.08507,0.0211 -0.08507,-0.210841 z M 55.1536,34.667057 c 0.0032,-0.278307 0.04124,-0.371746 0.084,-0.207628 0.04277,0.164112 0.03997,0.391815 -0.0064,0.50601 -0.04622,0.114201 -0.08119,-0.02009 -0.07776,-0.298382 z m 4.183912,0 c 0,-0.04641 0.03794,-0.08434 0.08434,-0.08434 0.04641,0 0.08433,0.03794 0.08433,0.08434 0,0.04641 -0.03793,0.08434 -0.08433,0.08434 -0.04641,0 -0.08434,-0.03794 -0.08434,-0.08434 z M 55.289387,33.14901 c 0,-0.04641 0.03794,-0.08433 0.08434,-0.08433 0.04641,0 0.08433,0.03793 0.08433,0.08433 0,0.04641 -0.03793,0.08434 -0.08433,0.08434 -0.04641,0 -0.08434,-0.03793 -0.08434,-0.08434 z m -0.337346,-0.16867 c 0,-0.04641 0.03793,-0.08434 0.08434,-0.08434 0.04641,0 0.08434,0.03793 0.08434,0.08434 0,0.04641 -0.03793,0.08434 -0.08434,0.08434 -0.04641,0 -0.08434,-0.03794 -0.08434,-0.08434 z m 6.072188,-0.337345 c 0,-0.04641 0.03793,-0.08434 0.08434,-0.08434 0.04641,0 0.08434,0.03793 0.08434,0.08434 0,0.04641 -0.03793,0.08433 -0.08434,0.08433 -0.04641,0 -0.08434,-0.03793 -0.08434,-0.08433 z m 0.843361,-0.16867 c 0,-0.04641 0.03793,-0.08434 0.08433,-0.08434 0.04641,0 0.08434,0.03793 0.08434,0.08434 0,0.04641 -0.03793,0.08433 -0.08434,0.08433 -0.04641,0 -0.08433,-0.03793 -0.08433,-0.08433 z m 0.337346,-0.168677 c 0,-0.04641 0.03793,-0.08433 0.08434,-0.08433 0.04641,0 0.08434,0.03793 0.08434,0.08433 0,0.04641 -0.03794,0.08434 -0.08434,0.08434 -0.04641,0 -0.08434,-0.03793 -0.08434,-0.08434 z M 73.252939,21.426316 c 0.05731,-0.09277 0.142201,-0.16867 0.188585,-0.16867 0.04641,0 0.03742,0.0759 -0.01989,0.16867 -0.05731,0.09277 -0.142195,0.168669 -0.188585,0.168669 -0.04641,0 -0.03742,-0.0759 0.01989,-0.168669 z M 14.583247,59.265034 c -0.06184,-0.06184 -0.16305,-0.06184 -0.224897,0 -0.06184,0.06184 -0.01125,0.112449 0.112449,0.112449 0.123692,0 0.174293,-0.05062 0.112448,-0.112449 z M 11.595734,47.982921 c -0.119691,-0.144215 -0.375667,-0.337983 -0.568837,-0.430593 -0.21825,-0.104633 -0.159644,-0.0057 0.1548,0.261382 0.278309,0.236365 0.534285,0.430134 0.568836,0.430593 0.03455,5.03e-4 -0.03511,-0.11716 -0.154799,-0.261382 z m -1.004388,-0.665474 c 0,-0.04641 -0.03795,-0.08433 -0.08434,-0.08433 -0.04638,0 -0.08434,0.03793 -0.08434,0.08433 0,0.04641 0.03795,0.08434 0.08434,0.08434 0.04639,0 0.08434,-0.03793 0.08434,-0.08434 z m -0.42168,-0.253011 c -0.05734,-0.09277 -0.2705458,-0.161102 -0.4738021,-0.151858 -0.3440218,0.01568 -0.3404205,0.02614 0.052122,0.151858 0.231924,0.07427 0.4451351,0.142616 0.4738021,0.15186 0.02867,0.0092 0.0052,-0.05909 -0.05212,-0.15186 z M 9.1154673,46.784058 c -0.1159618,-0.04679 -0.3057182,-0.04679 -0.4216801,0 -0.1159619,0.04679 -0.021083,0.08507 0.2108404,0.08507 0.2319238,0 0.3268016,-0.03825 0.2108397,-0.08507 z M 35.038863,43.396281 c -0.206279,-0.626446 -0.665911,-1.721492 -1.021404,-2.43344 -0.355493,-0.711954 -0.712288,-1.335205 -0.792876,-1.385013 -0.08059,-0.04979 0.178547,0.532695 0.575859,1.29445 0.39731,0.761755 0.895064,1.980999 1.10612,2.709426 0.211057,0.728433 0.411552,1.240976 0.445546,1.138996 0.034,-0.101987 -0.106964,-0.697973 -0.313245,-1.324419 z m -2.12343,-4.301589 c -0.07105,-0.115961 -0.295574,-0.456826 -0.498943,-0.757471 -0.20337,-0.300645 -0.700011,-0.910528 -1.103646,-1.355293 -0.403635,-0.444765 -1.056439,-1.065358 -1.450672,-1.379104 -0.394235,-0.313745 -0.773747,-0.50942 -0.843359,-0.434839 -0.06961,0.07459 -0.01272,0.175052 0.126438,0.223265 0.139154,0.04819 0.811431,0.62607 1.493946,1.284117 0.682518,0.658053 1.464164,1.519041 1.73699,1.91331 0.272828,0.394268 0.534835,0.716856 0.582238,0.716856 0.04741,0 0.02806,-0.09488 -0.04299,-0.210841 z M 23.74775,38.208988 c 0,-0.04641 -0.03795,-0.08433 -0.08433,-0.08433 -0.04639,0 -0.08434,0.03793 -0.08434,0.08433 0,0.04641 0.03795,0.08434 0.08434,0.08434 0.04639,0 0.08433,-0.03793 0.08433,-0.08434 z m 1.127798,-0.515521 c 0.404666,-0.23715 0.694731,-0.497562 0.644588,-0.578697 -0.05014,-0.08113 -0.0023,-0.202438 0.106316,-0.269567 0.123336,-0.07623 0.152297,-0.04896 0.07713,0.07268 -0.0662,0.107107 -0.07415,0.194737 -0.01769,0.194737 0.05647,0 0.333658,-0.119454 0.615982,-0.265449 0.282323,-0.145993 0.467043,-0.311712 0.410491,-0.368264 -0.05655,-0.05655 -0.192638,-0.013 -0.302417,0.09677 -0.109777,0.109777 -0.279292,0.198153 -0.3767,0.196388 -0.09741,-0.0019 0.183207,-0.229469 0.623589,-0.506016 0.440382,-0.276541 0.857844,-0.501119 0.927695,-0.499054 0.06985,0.002 -0.06275,0.158432 -0.294678,0.347495 -0.42168,0.343746 -0.42168,0.343746 0.115808,0.08178 0.295618,-0.144082 0.582733,-0.335172 0.638033,-0.424652 0.05531,-0.08948 -0.113845,-0.273551 -0.37588,-0.409058 -0.450639,-0.233032 -0.539954,-0.212001 -1.650065,0.388537 -0.645501,0.349204 -1.577778,0.863851 -2.071725,1.143669 -0.898085,0.508756 -0.898085,0.508756 -0.42168,0.863971 0.262023,0.195369 0.507689,0.357625 0.545924,0.360564 0.03823,0.0032 0.400607,-0.188694 0.805273,-0.425844 z m -0.87479,0.09384 c 0.05734,-0.09277 0.142196,-0.16867 0.18858,-0.16867 0.04639,0 0.03742,0.0759 -0.01991,0.16867 -0.05734,0.09277 -0.142195,0.16867 -0.18858,0.16867 -0.04639,0 -0.03743,-0.0759 0.01991,-0.16867 z m 0.759024,-0.421681 c 0,-0.04641 0.03795,-0.08433 0.08434,-0.08433 0.04639,0 0.08434,0.03793 0.08434,0.08433 0,0.04641 -0.03795,0.08434 -0.08434,0.08434 -0.04639,0 -0.08434,-0.03793 -0.08434,-0.08434 z m -1.749168,0.277192 c -0.22563,-0.24932 -0.239556,-0.347534 -0.06831,-0.481784 0.118304,-0.09275 0.884639,-0.540072 1.702971,-0.994048 0.818332,-0.453983 1.691208,-0.932082 1.939726,-1.062451 0.248518,-0.130369 0.480015,-0.309742 0.514438,-0.398597 0.03703,-0.09558 0.105913,-0.09879 0.168672,-0.0078 0.05834,0.08455 0.346583,0.321606 0.640525,0.526799 0.500609,0.349471 0.552381,0.355138 0.817944,0.08957 0.265566,-0.265563 0.258428,-0.3028 -0.112757,-0.588298 -0.217947,-0.167637 -0.511244,-0.306478 -0.651772,-0.308537 -0.140528,-0.0019 -0.546452,-0.159694 -0.902055,-0.350281 -0.355601,-0.190593 -0.771939,-0.313248 -0.925197,-0.272576 -0.201375,0.05342 -0.17913,0.07938 0.08021,0.09352 0.197371,0.01077 0.447201,0.126014 0.555176,0.256115 0.15951,0.1922 0.02897,0.329875 -0.696202,0.734272 -0.490887,0.27375 -1.433036,0.801319 -2.093665,1.172382 -0.660626,0.371057 -1.375832,0.797009 -1.589343,0.94656 -0.370257,0.259335 -0.373211,0.277587 -0.0639,0.394855 0.178369,0.06763 0.424605,0.222073 0.547194,0.34323 0.122587,0.121151 0.267181,0.220275 0.321318,0.220275 0.05414,0 -0.0291,-0.140919 -0.184976,-0.313159 z m 5.291277,-2.301254 c 0,-0.04641 0.03795,-0.08433 0.08434,-0.08433 0.04639,0 0.08434,0.03793 0.08434,0.08433 0,0.04641 -0.03795,0.08434 -0.08434,0.08434 -0.04639,0 -0.08434,-0.03794 -0.08434,-0.08434 z m -0.337344,-0.506016 c 0,-0.04641 0.03795,-0.08434 0.08434,-0.08434 0.04639,0 0.08434,0.03793 0.08434,0.08434 0,0.04641 -0.03795,0.08433 -0.08434,0.08433 -0.04639,0 -0.08434,-0.03793 -0.08434,-0.08433 z m -0.337343,-0.168669 c 0,-0.04641 0.03795,-0.08434 0.08433,-0.08434 0.04639,0 0.08434,0.03793 0.08434,0.08434 0,0.04641 -0.03795,0.08433 -0.08434,0.08433 -0.04639,0 -0.08433,-0.03793 -0.08433,-0.08433 z m 29.264565,0.927696 c 0.05732,-0.09277 0.06629,-0.168676 0.01989,-0.168676 -0.04641,0 -0.131242,0.07591 -0.188579,0.168676 -0.05731,0.09277 -0.06629,0.168669 -0.01989,0.168669 0.04641,0 0.131242,-0.0759 0.188579,-0.168669 z m 3.289105,-1.433712 c 0,-0.04641 -0.03793,-0.08433 -0.08434,-0.08433 -0.04641,0 -0.08434,0.03793 -0.08434,0.08433 0,0.04641 0.03793,0.08434 0.08434,0.08434 0.04641,0 0.08434,-0.03793 0.08434,-0.08434 z M 24.253766,33.823517 c 0,-0.04641 -0.03795,-0.08434 -0.08433,-0.08434 -0.04639,0 -0.08434,0.03793 -0.08434,0.08434 0,0.04641 0.03795,0.08433 0.08434,0.08433 0.04639,0 0.08433,-0.03793 0.08433,-0.08433 z m 0.969864,-0.200602 c -0.162347,-0.04246 -0.428005,-0.04246 -0.590352,0 -0.162347,0.0424 -0.02952,0.07714 0.295176,0.07714 0.324693,0 0.457523,-0.03474 0.295176,-0.07714 z m 30.234427,-1.148769 c 0,-0.04641 -0.03793,-0.08434 -0.08433,-0.08434 -0.04641,0 -0.08434,0.03793 -0.08434,0.08434 0,0.04641 0.03794,0.08434 0.08434,0.08434 0.04641,0 0.08433,-0.03793 0.08433,-0.08434 z m 0.421681,-0.253011 c 0.05731,-0.09277 0.06629,-0.168669 0.01989,-0.168669 -0.04641,0 -0.131243,0.0759 -0.188579,0.168669 -0.05731,0.09277 -0.06629,0.16867 -0.01989,0.16867 0.04641,0 0.131242,-0.0759 0.188579,-0.16867 z m 0.927696,-0.60222 c 0,-0.04641 -0.151802,-0.0032 -0.337346,0.0962 -0.185538,0.0993 -0.337339,0.218491 -0.337339,0.264876 0,0.04641 0.151801,0.0032 0.337339,-0.09621 0.185544,-0.0993 0.337346,-0.21849 0.337346,-0.264874 z m 9.319122,-1.913884 c 1.368349,-0.861154 2.487907,-1.598774 2.487907,-1.639153 0,-0.04036 -0.157163,0.01071 -0.349248,0.113507 -0.192091,0.102804 -1.425501,0.875109 -2.740918,1.716246 -1.315418,0.84113 -2.467571,1.60854 -2.56034,1.70535 -0.09277,0.09681 0.0211,0.06209 0.253011,-0.07709 0.231922,-0.139211 1.541238,-0.957698 2.909588,-1.818858 z m -8.897441,1.672743 c 0.05731,-0.09277 0.06629,-0.16867 0.01989,-0.16867 -0.04641,0 -0.131249,0.0759 -0.188579,0.16867 -0.05731,0.09277 -0.06629,0.168676 -0.01989,0.168676 0.04641,0 0.131242,-0.0759 0.188579,-0.168676 z m 1.180701,-0.755967 c 0.337346,-0.274673 0.337346,-0.274673 0,-0.109057 -0.185538,0.09109 -0.489147,0.289221 -0.674685,0.440289 -0.337347,0.274673 -0.337347,0.274673 0,0.109058 0.185538,-0.09109 0.489147,-0.289221 0.674685,-0.44029 z m 2.019428,-1.21403 c 0.182988,-0.122502 0.279001,-0.222735 0.213371,-0.222735 -0.06563,0 -0.499985,0.234217 -0.965226,0.52048 -0.465241,0.286269 -0.845893,0.558119 -0.845893,0.604114 0,0.04597 0.284631,-0.08799 0.632522,-0.297744 0.347884,-0.209757 0.782238,-0.481606 0.965226,-0.604115 z m 0.426315,-1.403436 c -0.113679,-0.473861 -0.23766,-0.830599 -0.275515,-0.792744 -0.03787,0.03787 0.01606,0.464654 0.119819,0.94844 0.103752,0.483786 0.227733,0.840518 0.275514,0.792738 0.04781,-0.04775 -0.0064,-0.474575 -0.119818,-0.948434 z m 2.627629,-0.521475 c 1.053915,-0.657894 1.899546,-1.27245 1.87919,-1.365685 -0.02034,-0.09323 1.101523,-0.876346 2.493065,-1.740241 1.391541,-0.863902 2.660561,-1.672513 2.820045,-1.796915 0.26418,-0.206072 0.269293,-0.312419 0.0575,-1.195574 -0.134864,-0.562358 -0.16809,-1.009175 -0.07913,-1.064153 0.08434,-0.05215 0.153351,-0.315926 0.153351,-0.586226 0,-0.270293 -0.193411,-0.899933 -0.429796,-1.399189 -0.236391,-0.499259 -0.813545,-1.3383 -1.282574,-1.864536 -0.469027,-0.526236 -1.160874,-1.105651 -1.537439,-1.287587 -0.684662,-0.330792 -0.684662,-0.330792 -0.297419,0.08141 0.212982,0.22671 0.472043,0.396583 0.575688,0.377494 0.103651,-0.01909 0.167592,0.06582 0.142105,0.188673 -0.02773,0.133769 0.03347,0.174061 0.152566,0.100443 0.13311,-0.08227 0.153772,-0.04989 0.06247,0.09786 -0.08391,0.135782 -0.07015,0.179819 0.0357,0.114374 0.09471,-0.05853 0.315167,0.06126 0.489913,0.266209 0.312496,0.366501 0.312349,0.368515 -0.0091,0.122526 -0.300721,-0.230173 -0.316812,-0.22363 -0.201928,0.0821 0.06866,0.182711 0.06389,0.27016 -0.01058,0.194331 -0.07448,-0.07583 -0.568923,-0.52194 -1.098769,-0.991356 -0.529852,-0.469415 -0.91617,-0.936375 -0.858489,-1.03769 0.05769,-0.101313 0.04666,-0.13185 -0.02448,-0.06786 -0.07113,0.06399 -0.289228,-0.03261 -0.484653,-0.214684 -0.195426,-0.182067 -1.087613,-0.557008 -1.982638,-0.833203 -0.895012,-0.276193 -1.982185,-0.50217 -2.415934,-0.50217 -0.646253,0 -1.190984,0.2092 -3.017396,1.158816 -1.225823,0.637349 -3.367306,1.81967 -4.758848,2.62738 -1.391541,0.807709 -2.586937,1.523382 -2.656424,1.590381 -0.0695,0.067 0.133824,0.09145 0.451821,0.05432 0.317992,-0.03712 0.844108,0.02027 1.169144,0.127539 0.524872,0.173224 0.662987,0.149732 1.234894,-0.210044 0.354157,-0.222795 1.267485,-0.758304 2.029616,-1.19002 0.762131,-0.431714 1.597058,-0.783774 1.855393,-0.782354 0.360888,0.002 0.411276,0.03952 0.217515,0.162012 -0.216215,0.136687 -0.204211,0.19451 0.08413,0.405351 0.326056,0.238419 0.321173,0.249722 -0.159993,0.370488 -0.272971,0.06851 -1.21241,0.53011 -2.087647,1.025778 -0.875243,0.495664 -1.714441,0.895874 -1.864898,0.889353 -0.233095,-0.01013 -0.236136,-0.02881 -0.02053,-0.126506 0.139153,-0.06305 0.993053,-0.555511 1.897557,-1.094347 0.904504,-0.538837 1.644552,-1.053126 1.644552,-1.142866 0,-0.08974 -0.208737,-0.05448 -0.463851,0.07835 -0.255115,0.132834 -1.163119,0.655522 -2.017783,1.161527 -1.553945,0.92001 -1.553945,0.92001 -1.180708,1.240188 0.205282,0.176097 0.721217,0.500814 1.146525,0.721599 0.425308,0.220779 1.223356,0.827322 1.773442,1.347873 0.55008,0.520557 1.212703,1.212123 1.472497,1.536815 0.337659,0.422018 0.312936,0.356305 -0.08672,-0.230476 -0.307486,-0.451458 -1.036238,-1.267407 -1.619442,-1.813222 -0.583204,-0.545814 -0.984498,-0.992396 -0.891767,-0.992396 0.09273,0 0.534212,0.322588 0.981062,0.716856 0.446856,0.394274 1.170947,1.134317 1.609095,1.644552 0.438147,0.51023 1.136292,1.58165 1.551432,2.380929 0.41514,0.799278 0.869181,1.892374 1.008978,2.429105 0.139803,0.53673 0.292287,1.013975 0.33885,1.060538 0.04654,0.04654 0.67392,-0.280653 1.394124,-0.727158 0.720202,-0.446505 1.559382,-0.960917 1.86484,-1.14314 0.305465,-0.182223 0.584912,-0.301792 0.620995,-0.26571 0.03608,0.03608 -0.820316,0.614761 -1.903109,1.285953 -1.082794,0.671185 -1.904264,1.22034 -1.825494,1.22034 0.07878,0 1.005516,-0.538272 2.059424,-1.19616 z m -6.132546,-8.614181 c 1.604338,-0.921907 1.775526,-1.063936 1.518046,-1.259511 -0.15961,-0.121238 -0.204618,-0.222846 -0.100011,-0.225798 0.104601,-0.0029 0.286199,0.110323 0.403544,0.251721 0.117351,0.141396 0.183575,0.285026 0.147161,0.319181 -0.03641,0.03415 -0.805596,0.487734 -1.709291,1.007954 -0.903701,0.520225 -1.738622,0.945782 -1.855392,0.945693 -0.116765,-8.9e-5 0.60141,-0.467747 1.595943,-1.03924 z m 12.950544,0.449055 c 0,-0.04641 0.03793,-0.08433 0.08434,-0.08433 0.04641,0 0.08433,0.03794 0.08433,0.08433 0,0.04641 -0.03793,0.08433 -0.08433,0.08433 -0.04641,0 -0.08434,-0.03793 -0.08434,-0.08433 z M 57.14478,18.643051 c 0,-0.04639 0.03793,-0.08434 0.08434,-0.08434 0.04641,0 0.08433,0.03795 0.08433,0.08434 0,0.04639 -0.03793,0.08434 -0.08433,0.08434 -0.04641,0 -0.08434,-0.03795 -0.08434,-0.08434 z m 0.843355,-0.506016 c 0,-0.04639 0.03793,-0.08433 0.08434,-0.08433 0.04641,0 0.08433,0.03795 0.08433,0.08433 0,0.04639 -0.03793,0.08434 -0.08433,0.08434 -0.04641,0 -0.08434,-0.03795 -0.08434,-0.08434 z m 2.473857,8.574156 c -0.06184,-0.06184 -0.112448,-0.01122 -0.112448,0.112449 0,0.123687 0.05062,0.174292 0.112448,0.112442 0.06184,-0.06184 0.06184,-0.163047 0,-0.224891 z m -0.687773,-1.544439 c -0.328338,-0.651991 -0.661126,-1.225084 -0.739532,-1.273541 -0.07841,-0.04845 0.165297,0.509924 0.541569,1.24085 0.376265,0.730925 0.709053,1.304019 0.739532,1.273539 0.03047,-0.03047 -0.213231,-0.588852 -0.541569,-1.240848 z m 6.478842,0.548645 c 0,-0.04641 -0.151808,-0.0032 -0.337346,0.09621 -0.185538,0.0993 -0.337345,0.21849 -0.337345,0.264875 0,0.04641 0.151807,0.0032 0.337345,-0.09621 0.185538,-0.0993 0.337346,-0.218491 0.337346,-0.264881 z m 1.096366,-0.659762 c 0.33734,-0.274673 0.33734,-0.274673 0,-0.10905 -0.185538,0.09109 -0.489147,0.289214 -0.674692,0.440289 -0.337339,0.274667 -0.337339,0.274667 0,0.10905 0.185545,-0.09109 0.489154,-0.289221 0.674692,-0.440289 z m 0.674686,-0.424734 c 0.05731,-0.09277 0.06629,-0.16867 0.01989,-0.16867 -0.04641,0 -0.131249,0.0759 -0.188579,0.16867 -0.05732,0.09277 -0.06629,0.168676 -0.01989,0.168676 0.04641,0 0.131242,-0.07591 0.188579,-0.168676 z m 0.927696,-0.602221 c 0,-0.04641 -0.151808,-0.0032 -0.337346,0.0962 -0.185538,0.0993 -0.337339,0.218497 -0.337339,0.264882 0,0.04641 0.151801,0.0032 0.337339,-0.09621 0.185538,-0.0993 0.337346,-0.218497 0.337346,-0.264881 z m 0.421681,-0.241134 c 0.05731,-0.09278 0.06629,-0.168677 0.01989,-0.168677 -0.04641,0 -0.131249,0.0759 -0.188586,0.168677 -0.05731,0.09277 -0.06629,0.16867 -0.01989,0.16867 0.04641,0 0.131243,-0.0759 0.18858,-0.16867 z m 1.686717,-1.058295 c 0.09277,-0.08852 -0.05903,-0.04424 -0.337347,0.09847 -0.278307,0.142685 -0.657816,0.385592 -0.843354,0.539797 -0.185538,0.154205 -0.03373,0.109892 0.337339,-0.09847 0.371082,-0.208368 0.750593,-0.451274 0.843362,-0.539791 z m 1.239076,-1.325381 c 0.292587,-0.336939 0.531981,-0.690343 0.531981,-0.785337 0,-0.09499 -0.355087,-0.293703 -0.789072,-0.441577 -0.43399,-0.147881 -0.821623,-0.268865 -0.861409,-0.268865 -0.03978,0 -0.02863,0.11385 0.02474,0.253004 0.05342,0.13916 0.02359,0.253011 -0.06629,0.253011 -0.08986,0 -0.163378,0.124019 -0.163378,0.275604 0,0.151585 0.08716,0.566521 0.193685,0.92208 0.127972,0.427125 0.262235,0.605453 0.395715,0.52558 0.111116,-0.06649 0.441418,-0.396563 0.734012,-0.7335 z M 49.891885,19.31774 c 0,-0.04641 -0.03794,-0.08433 -0.08434,-0.08433 -0.04641,0 -0.08434,0.03794 -0.08434,0.08433 0,0.04641 0.03794,0.08433 0.08434,0.08433 0.04641,0 0.08434,-0.03793 0.08434,-0.08433 z m 3.120435,-0.253011 c -0.185544,-0.07973 -0.413246,-0.14913 -0.506015,-0.15423 -0.09278,-0.0051 -0.05483,0.0643 0.08433,0.15423 0.139154,0.08993 0.366863,0.159337 0.506016,0.154237 0.166827,-0.0064 0.138095,-0.05865 -0.08434,-0.154237 z M 50.946087,18.95302 c -0.115961,-0.04679 -0.305719,-0.04679 -0.421681,0 -0.115961,0.04679 -0.0211,0.08508 0.21084,0.08508 0.231923,0 0.326802,-0.03832 0.210841,-0.08508 z m 7.154497,-1.687456 c -0.06184,-0.06185 -0.163047,-0.06185 -0.224897,0 -0.06184,0.06184 -0.01122,0.112449 0.112448,0.112449 0.123694,0 0.174299,-0.0506 0.112449,-0.112449 z m 10.34521,-0.983919 c 0,-0.04638 -0.03794,-0.08434 -0.08434,-0.08434 -0.04641,0 -0.08433,0.03795 -0.08433,0.08434 0,0.04638 0.03793,0.08434 0.08433,0.08434 0.04641,0 0.08434,-0.03795 0.08434,-0.08434 z M 67.939778,15.77563 c 0,-0.04638 -0.03793,-0.08434 -0.08433,-0.08434 -0.04641,0 -0.08434,0.03795 -0.08434,0.08434 0,0.04638 0.03793,0.08434 0.08434,0.08434 0.04641,0 0.08433,-0.03795 0.08433,-0.08434 z"
       id="path197" /></g></svg>
