<?xml version="1.0" encoding="UTF-8" standalone="no"?>
<!-- Created with Inkscape (http://www.inkscape.org/) -->

<svg
   width="43.200001mm"
   height="37mm"
   viewBox="0 0 43.200002 37"
   version="1.1"
   id="svg5"
   xml:space="preserve"
   sodipodi:docname="engine.svg"
   inkscape:version="1.2.1 (9c6d41e410, 2022-07-14)"
   xmlns:inkscape="http://www.inkscape.org/namespaces/inkscape"
   xmlns:sodipodi="http://sodipodi.sourceforge.net/DTD/sodipodi-0.dtd"
   xmlns="http://www.w3.org/2000/svg"
   xmlns:svg="http://www.w3.org/2000/svg"><sodipodi:namedview
     id="namedview7"
     pagecolor="#ffffff"
     bordercolor="#000000"
     borderopacity="0.25"
     inkscape:showpageshadow="true"
     inkscape:pageopacity="0"
     inkscape:pagecheckerboard="true"
     inkscape:deskcolor="#d1d1d1"
     inkscape:document-units="mm"
     showgrid="false"
     borderlayer="false"
     showborder="false"
     inkscape:zoom="2.8284271"
     inkscape:cx="68.589358"
     inkscape:cy="-31.466252"
     inkscape:window-width="1615"
     inkscape:window-height="1361"
     inkscape:window-x="1731"
     inkscape:window-y="0"
     inkscape:window-maximized="0"
     inkscape:current-layer="layer4" /><defs
     id="defs2"><inkscape:path-effect
       effect="powerstroke"
       id="path-effect427"
       is_visible="true"
       lpeversion="1"
       offset_points="0.55485027,0.34341528"
       not_jump="true"
       sort_points="true"
       interpolator_type="CentripetalCatmullRom"
       interpolator_beta="0.75"
       start_linecap_type="round"
       linejoin_type="spiro"
       miter_limit="4"
       scale_width="1"
       end_linecap_type="round" /><inkscape:path-effect
       effect="simplify"
       id="path-effect425"
       is_visible="true"
       lpeversion="1"
       steps="1"
       threshold="0.0047745358"
       smooth_angles="0"
       helper_size="0"
       simplify_individual_paths="false"
       simplify_just_coalesce="false"
       step="1" /><inkscape:path-effect
       effect="powerstroke"
       id="path-effect420"
       is_visible="true"
       lpeversion="1"
       offset_points="1.6189664,0.54223465"
       not_jump="true"
       sort_points="true"
       interpolator_type="CentripetalCatmullRom"
       interpolator_beta="0.75"
       start_linecap_type="round"
       linejoin_type="spiro"
       miter_limit="4"
       scale_width="1"
       end_linecap_type="round" /><inkscape:path-effect
       effect="simplify"
       id="path-effect418"
       is_visible="true"
       lpeversion="1"
       steps="1"
       threshold="0.0047745358"
       smooth_angles="0"
       helper_size="0"
       simplify_individual_paths="false"
       simplify_just_coalesce="false"
       step="1" /><inkscape:path-effect
       effect="powerstroke"
       id="path-effect413"
       is_visible="true"
       lpeversion="1"
       offset_points="0.91456923,0.54223465"
       not_jump="true"
       sort_points="true"
       interpolator_type="CentripetalCatmullRom"
       interpolator_beta="0.75"
       start_linecap_type="round"
       linejoin_type="spiro"
       miter_limit="4"
       scale_width="1"
       end_linecap_type="round" /><inkscape:path-effect
       effect="simplify"
       id="path-effect411"
       is_visible="true"
       lpeversion="1"
       steps="1"
       threshold="0.0047745358"
       smooth_angles="0"
       helper_size="0"
       simplify_individual_paths="false"
       simplify_just_coalesce="false"
       step="1" /></defs><g
     inkscape:groupmode="layer"
     id="layer4"
     inkscape:label="Layer 1"><path
       style="display:inline;opacity:1;fill:#ffffff;fill-opacity:1;stroke-width:0.264583"
       d="m 6.7737145,4.2175959 6.4030775,0.012782 V 3.7255431 L 12.882838,2.4283128 11.246922,1.872357 9.6876898,1.917089 8.1154454,2.4310187 6.5971882,3.2262963 3.6510468,6.289922 3.3437803,8.9468718 3.3257066,28.883033 l 2.0966409,4.95241 0.4507165,1.333804 0.6879756,0.0037 -0.018074,-1.030245 0.3253409,-0.271116 h 5.6753895 l 0.397639,0.32534 v 1.048321 l 0.741054,-0.01807 0.289191,-0.939871 1.355587,-3.506452 -9.1276166,-0.0723 L 6.2718484,5.2596867 6.814083,5.241613 Z"
       id="path3129"
       sodipodi:nodetypes="cccccccccccccccccccccccccc" /><path
       style="opacity:1;fill:#ffffff;fill-opacity:1;stroke-width:0.264583"
       d="m 6.2176241,5.2958251 7.2569069,-0.00904 -0.01807,-0.5422346 -6.6965982,0.045186 z"
       id="path3131" /><path
       style="opacity:1;fill:#ffffff;fill-opacity:1;stroke-width:0.264583"
       d="m 13.456457,4.7716651 -0.26208,-1.0844694 -0.571606,0.5693463 0.0022,0.5038265 z"
       id="path3135" /><path
       style="opacity:1;fill:#ffffff;fill-opacity:1;stroke-width:0.264583"
       d="m 12.635214,4.2479497 -5.8742799,0.00159 0.0032,-0.047927 5.8841939,0.017243 z"
       id="path3137" /><path
       style="opacity:1;fill:#ffffff;fill-opacity:1;stroke-width:0.264583"
       d="m 13.452409,4.7707682 1.331185,3.9274088 1.488281,0.033073 0.396875,19.546093 -1.455209,2.645834 -2.306835,-0.14056 -0.0083,-22.4399738 -10e-4,-3.4257191 z"
       id="path3139" /><path
       style="opacity:1;fill:#ffffff;fill-opacity:1;stroke-width:0.264583"
       d="m 6.1856191,7.1795277 h 6.8053499 l 0.02339,0.5144936 -6.9573599,-0.011692 z"
       id="path3141" /><path
       style="opacity:1;fill:#ffffff;fill-opacity:1;stroke-width:0.264583"
       d="m 12.625586,5.2668619 0.0041,4.0224935 h 0.367935 l 0.02481,-4.0431641 z"
       id="path3143" /><path
       style="opacity:1;fill:#ffffff;fill-opacity:1;stroke-width:0.264583"
       d="m 17.065625,9.3430988 8.73125,0.033073 -0.06615,2.4143232 -1.240235,2.05052 -1.637109,1.422136 -1.223698,0.562239 -0.165364,3.538802 0.760677,-0.01654 2.596224,-1.835547 1.289843,-1.604036 0.529167,-1.901693 -0.148828,2.761589 -4.20026,4.067968 -0.975651,0.03307 -0.479558,-0.198437 -4.183724,-3.621485 -0.496093,-0.330729 0.03307,-7.441406 0.314192,0.2480469 0.264584,5.6058591 0.496093,1.091406 3.274219,3.092318 0.810286,0.03307 L 21.28242,15.808844 20.273698,15.279687 19.099609,14.56862 18.140495,13.659114 17.4625,12.766146 17.280599,12.534635 17.065625,12.369271 Z"
       id="path3207" /><path
       style="opacity:1;fill:#ffffff;fill-opacity:1;stroke-width:0.264583"
       d="m 16.18317,8.7580882 11.973674,0.046772 v 0.280633 L 16.136398,9.0387211 Z"
       id="path3209" /><path
       style="opacity:1;fill:#ffffff;fill-opacity:1;stroke-width:0.264583"
       d="m 16.124705,9.3193541 0.92375,-0.046772 -0.01169,-0.3741775 -1.028988,0.1403165 0.07016,0.257247 z"
       id="path3211" /><path
       style="opacity:1;fill:#ffffff;fill-opacity:1;stroke-width:0.264583"
       d="M 15.797299,9.6584525 16.463803,9.3310473 17.071841,9.3193528 16.978296,9.085492 15.890844,9.2725808 Z"
       id="path3213" /><path
       style="opacity:1;fill:#ffffff;fill-opacity:1;stroke-width:0.264583"
       d="m 20.848693,15.551745 -0.07016,3.835318 1.403165,-0.02339 -0.09354,-3.847011 z"
       id="path3215" /><path
       style="opacity:1;fill:#ffffff;fill-opacity:1;stroke-width:0.264583"
       d="m 16.767969,15.197005 h -0.06615 l 0.01654,-6.0358072 -0.760677,0.033073 0.413412,6.1184892 z"
       id="path3217" /><path
       style="opacity:1;fill:#ffffff;fill-opacity:1;stroke-width:0.264583"
       d="m 16.10651,9.5249999 11.377083,0.016536 0.04961,-0.5953125 -11.277865,0.066146 z"
       id="path3219" /><path
       style="opacity:1;fill:#ffffff;fill-opacity:1;stroke-width:0.264583"
       d="m 17.842838,18.041276 -1.670182,0.01654 -0.01654,-1.405599 1.570963,0.826823 z"
       id="path3221" /><path
       style="opacity:1;fill:#ffffff;fill-opacity:1;stroke-width:0.264583"
       d="m 16.007291,18.140495 h -0.06614 l 0.628385,-0.33073 0.28112,0.248047 -0.04961,10.004557 -0.46302,0.132292 z"
       id="path3223" /><path
       style="opacity:1;fill:#ffffff;fill-opacity:1;stroke-width:0.264583"
       d="m 16.652213,26.954427 9.756511,0.01654 -0.09922,-10.169922 0.297656,-2.728515 0.413412,0.28112 0.115755,14.039453 -10.864453,-0.181901 c 0,0 0.760677,-2.513542 0.380338,-1.256771 z"
       id="path3225" /><path
       style="opacity:1;fill:#ffffff;fill-opacity:1;stroke-width:0.264583"
       d="m 26.356116,15.364657 0.09354,-6.0102237 0.912058,0.1637025 -0.397565,6.1505402 z"
       id="path3227" /><path
       style="opacity:1;fill:#ffffff;fill-opacity:1;stroke-width:0.264583"
       d="m 17.539563,20.579753 -0.09355,6.03361 3.367596,-0.04677 -0.02339,-2.829715 z"
       id="path3229" /><path
       style="fill:#ffffff;fill-opacity:1;stroke-width:0.264583"
       d="m 25.514211,20.462823 0.09355,6.03361 -3.367596,-0.04677 0.02339,-2.829715 z"
       id="path3229-9" /><path
       style="opacity:1;fill:#ffffff;fill-opacity:1;stroke-width:0.264583"
       d="M 30.658593,2.7119791 30.608983,2.9269531 29.997134,5.3908853 29.943516,35.06953 29.182839,35.03646 26.772526,28.29388 27.070182,9.673828 28.161588,8.3509114 30.245182,2.7285156 30.67513,2.4970052 Z"
       id="path3253"
       sodipodi:nodetypes="ccccccccccc" /></g><path
     style="opacity:1;fill:#ffffff;fill-opacity:1;stroke-width:0.264583"
     d="M 6.2011718,9.0206379 H 12.98112 L 12.95631,12.98112 6.1432892,12.96458 Z"
     id="path3162" /><path
     style="opacity:1;fill:#ffffff;fill-opacity:1;stroke-width:0.264583"
     d="m 6.1432942,14.560351 6.8460938,0.01654 -0.0083,0.28112 -6.8378258,-0.0083 z"
     id="path3164" /><path
     style="opacity:1;fill:#ffffff;fill-opacity:1;stroke-width:0.264583"
     d="m 6.2119284,15.890844 6.8258136,0.01169 v 0.549572 l -6.8638159,-0.01169 z"
     id="path3166" /><path
     style="opacity:1;fill:#ffffff;fill-opacity:1;stroke-width:0.264583"
     d="m 6.1505398,17.726651 6.8755092,0.03508 -0.03508,5.834828 -7.0275177,-0.03508 0.070158,-5.834828 z"
     id="path3168" /><path
     style="opacity:1;fill:#ffffff;fill-opacity:1;stroke-width:0.264583"
     d="M 5.9868373,24.906179 H 13.37684 l -0.453598,0.518625 -6.8545534,-0.02752 z"
     id="path3170" /><path
     style="opacity:1;fill:#ffffff;fill-opacity:1;stroke-width:0.264583"
     d="m 6.0803816,26.473046 6.9807464,0.02339 -0.150288,0.507603 h -2.811198 l -3.9315624,0.0011 z"
     id="path3172" /><path
     style="opacity:1;fill:#ffffff;fill-opacity:1;stroke-width:0.264583"
     d="m 6.1154608,28.074993 6.8638152,-0.01169 -0.02339,0.549571 -7.0976767,-0.02339 z"
     id="path3174" /><path
     style="opacity:1;fill:#ffffff;fill-opacity:1;stroke-width:0.264583"
     d="M 6.101953,12.848828 6.3003905,12.93151 6.2838541,30.873567 5.5562499,30.360937 5.9696614,12.832292 Z"
     id="path3182" /><path
     style="opacity:1;fill:#ffffff;fill-opacity:1;stroke-width:0.264583"
     d="m 12.997656,29.385286 -7.0610675,-0.01654 0.1653645,0.51263 6.91224,0.03307 z"
     id="path3184" /><path
     style="opacity:1;fill:#ffffff;fill-opacity:1;stroke-width:0.264583"
     d="m 12.98112,30.691666 h -0.148828 l -7.0610681,-0.01654 2.0835937,0.314193 5.2089844,-0.04961 z"
     id="path3186" /><path
     style="display:inline;fill:#ffffff;fill-opacity:1;stroke-width:0.264583"
     d="m 36.335621,4.4612051 -6.403078,0.012782 V 3.9691523 l 0.293954,-1.2972303 1.635916,-0.5559558 1.559232,0.044732 1.572245,0.5139297 1.518257,0.7952776 2.946141,3.0636257 0.307267,2.6569494 0.01807,19.9361614 -2.09664,4.95241 -0.450717,1.333804 -0.687976,0.0037 0.01807,-1.030245 -0.325341,-0.271116 h -5.675389 l -0.397639,0.32534 v 1.048321 l -0.741054,-0.01807 -0.289191,-0.939871 -1.355587,-3.506452 9.127617,-0.0723 -0.0723,-25.4488671 -0.542235,-0.018074 z"
     id="path3129-4"
     sodipodi:nodetypes="cccccccccccccccccccccccccc" /><path
     style="fill:#ffffff;fill-opacity:1;stroke-width:0.264583"
     d="m 36.891711,5.5394343 -7.256907,-0.00904 0.01807,-0.5422346 6.696598,0.045186 z"
     id="path3131-3" /><path
     style="fill:#ffffff;fill-opacity:1;stroke-width:0.264583"
     d="m 29.652878,5.0152743 0.26208,-1.0844694 0.571606,0.5693463 -0.0022,0.5038265 z"
     id="path3135-1" /><path
     style="fill:#ffffff;fill-opacity:1;stroke-width:0.264583"
     d="m 30.474121,4.4915589 5.87428,0.00159 -0.0032,-0.047927 -5.884194,0.017243 z"
     id="path3137-1" /><path
     style="fill:#ffffff;fill-opacity:1;stroke-width:0.264583"
     d="m 29.656926,5.0143774 -1.331185,3.9274088 -1.488281,0.033073 -0.396875,19.5460928 1.455209,2.645834 2.306835,-0.14056 0.0083,-22.4399736 0.001,-3.4257191 z"
     id="path3139-8" /><path
     style="fill:#ffffff;fill-opacity:1;stroke-width:0.264583"
     d="m 36.923716,7.4231369 h -6.80535 l -0.02339,0.5144936 6.95736,-0.011692 z"
     id="path3141-7" /><path
     style="fill:#ffffff;fill-opacity:1;stroke-width:0.264583"
     d="m 30.483749,5.5104711 -0.0041,4.0224935 h -0.367935 l -0.02481,-4.0431641 z"
     id="path3143-7" /><path
     style="fill:#ffffff;fill-opacity:1;stroke-width:0.264583"
     d="m 26.341366,15.440614 h 0.06615 l -0.01654,-6.035807 0.760677,0.033073 -0.413412,6.118489 z"
     id="path3217-7" /><path
     style="fill:#ffffff;fill-opacity:1;stroke-width:0.264583"
     d="m 27.102044,18.384104 h 0.06614 l -0.628385,-0.33073 -0.28112,0.248047 0.04961,10.004557 0.46302,0.132292 z"
     id="path3223-3" /><path
     style="fill:#ffffff;fill-opacity:1;stroke-width:0.264583"
     d="m 36.908163,9.2642471 h -6.779948 l 0.02481,3.9604819 6.813021,-0.01654 z"
     id="path3162-9" /><path
     style="fill:#ffffff;fill-opacity:1;stroke-width:0.264583"
     d="m 36.966041,14.80396 -6.846094,0.01654 0.0083,0.28112 6.837826,-0.0083 z"
     id="path3164-9" /><path
     style="fill:#ffffff;fill-opacity:1;stroke-width:0.264583"
     d="m 36.897407,16.134453 -6.825814,0.01169 v 0.549572 l 6.863816,-0.01169 z"
     id="path3166-7" /><path
     style="fill:#ffffff;fill-opacity:1;stroke-width:0.264583"
     d="m 36.958795,17.97026 -6.875509,0.03508 0.03508,5.834828 7.027518,-0.03508 -0.07016,-5.834828 z"
     id="path3168-0" /><path
     style="fill:#ffffff;fill-opacity:1;stroke-width:0.264583"
     d="m 37.122498,25.149788 h -7.390003 l 0.453598,0.518625 6.854553,-0.02752 z"
     id="path3170-9" /><path
     style="fill:#ffffff;fill-opacity:1;stroke-width:0.264583"
     d="m 37.028953,26.716655 -6.980746,0.02339 0.150288,0.507603 h 2.811198 l 3.931562,0.0011 z"
     id="path3172-4" /><path
     style="fill:#ffffff;fill-opacity:1;stroke-width:0.264583"
     d="m 36.993874,28.318602 -6.863815,-0.01169 0.02339,0.549571 7.097677,-0.02339 z"
     id="path3174-6" /><path
     style="fill:#ffffff;fill-opacity:1;stroke-width:0.264583"
     d="m 37.007382,13.092437 -0.198437,0.08268 0.01654,17.942057 0.727604,-0.51263 -0.413411,-17.528645 z"
     id="path3182-1" /><path
     style="fill:#ffffff;fill-opacity:1;stroke-width:0.264583"
     d="m 30.111679,29.628895 7.061068,-0.01654 -0.165365,0.51263 -6.91224,0.03307 z"
     id="path3184-0" /><path
     style="fill:#ffffff;fill-opacity:1;stroke-width:0.264583"
     d="m 30.128215,30.935275 h 0.148828 l 7.061068,-0.01654 -2.083594,0.314193 -5.208984,-0.04961 z"
     id="path3186-9" /></svg>
