<?xml version="1.0" encoding="UTF-8" standalone="no"?>
<!-- Created with Inkscape (http://www.inkscape.org/) -->

<svg
   width="33.072914mm"
   height="23.507162mm"
   viewBox="0 0 33.072914 23.507162"
   version="1.1"
   id="svg5"
   xml:space="preserve"
   inkscape:version="1.2.1 (9c6d41e410, 2022-07-14)"
   sodipodi:docname="GNDSR.svg"
   xmlns:inkscape="http://www.inkscape.org/namespaces/inkscape"
   xmlns:sodipodi="http://sodipodi.sourceforge.net/DTD/sodipodi-0.dtd"
   xmlns="http://www.w3.org/2000/svg"
   xmlns:svg="http://www.w3.org/2000/svg"><sodipodi:namedview
     id="namedview7"
     pagecolor="#505050"
     bordercolor="#ffffff"
     borderopacity="1"
     inkscape:showpageshadow="0"
     inkscape:pageopacity="0"
     inkscape:pagecheckerboard="1"
     inkscape:deskcolor="#505050"
     inkscape:document-units="mm"
     showgrid="false"
     inkscape:zoom="4.051698"
     inkscape:cx="132.90724"
     inkscape:cy="27.272516"
     inkscape:window-width="1920"
     inkscape:window-height="991"
     inkscape:window-x="-9"
     inkscape:window-y="-9"
     inkscape:window-maximized="1"
     inkscape:current-layer="layer1" /><defs
     id="defs2" /><g
     inkscape:label="Layer 1"
     inkscape:groupmode="layer"
     id="layer1"
     transform="translate(29.677287,-147.13445)"><path
       style="fill:#ffffff;stroke:#000000;stroke-width:0.0520318px;stroke-linecap:butt;stroke-linejoin:miter;stroke-opacity:1"
       d="m -26.480671,153.78806 25.2987114,-6.62646 2.9536571,1.00167 -26.1976505,7.3713 z"
       id="path920" /><path
       style="fill:#ffffff;stroke:#000000;stroke-width:0.0520318px;stroke-linecap:butt;stroke-linejoin:miter;stroke-opacity:1"
       d="m -28.481822,164.16417 1.743486,2.81501 2.996616,0.18161 6.973943,-2.92397 19.9047957,-8.77191 -0.1997741,2.36097 -25.9161896,12.34969 -0.726453,0.43587 c 0,0 -2.397292,-1.38026 -2.415454,-1.47107 -0.01816,-0.0908 -1.961421,-3.12374 -1.961421,-3.12374 z"
       id="path954" /><g
       id="g1124"
       transform="matrix(0.1966558,0,0,0.1966558,-10.556609,127.64178)"><path
         style="fill:#ffffff;stroke:#000000;stroke-width:0.264583px;stroke-linecap:butt;stroke-linejoin:miter;stroke-opacity:1"
         d="m -97.060632,162.72201 c 0.738803,-0.9235 8.773321,-18.7472 8.773321,-18.7472 l 7.111005,7.38806 c 0,0 -5.910448,24.3806 -6.187498,23.91884 -0.277053,-0.46175 -9.696828,-12.5597 -9.696828,-12.5597 z"
         id="path356" /><path
         style="fill:#ffffff;stroke:#000000;stroke-width:0.264583px;stroke-linecap:butt;stroke-linejoin:miter;stroke-opacity:1"
         d="m -88.345033,143.94018 c 0.242422,-0.10389 6.210589,-2.11252 6.210589,-2.11252 l 7.037329,7.32174 -6.268977,2.18761 z"
         id="path912" /><path
         style="fill:#ffffff;stroke:#000000;stroke-width:0.264583px;stroke-linecap:butt;stroke-linejoin:miter;stroke-opacity:1"
         d="m -75.064463,149.18205 -3.297743,13.51748 2.579423,9.17491 c 0,0 -11.786981,3.98341 -11.656377,3.88546 0.130603,-0.098 6.236324,-24.42289 6.236324,-24.42289 z"
         id="path914" /><path
         style="fill:#ffffff;stroke:#000000;stroke-width:0.264583px;stroke-linecap:butt;stroke-linejoin:miter;stroke-opacity:1"
         d="m -97.00588,162.76483 c 0.0653,0.26121 2.87328,11.16662 2.87328,11.16662 l 2.12231,3.19979 2.710027,-1.01218 2.024356,7.47706 2.84063,4.47317 11.166615,-4.57113 -2.416169,-11.62372 -11.656378,3.88546 -0.228555,-0.78363 z"
         id="path916" /><path
         style="fill:#ffffff;stroke:#000000;stroke-width:0.264583px;stroke-linecap:butt;stroke-linejoin:miter;stroke-opacity:1"
         d="m -86.671866,143.28856 5.697588,-10.46462 10.840103,9.20756 -4.767032,24.61879 -3.460999,-3.7222 3.460999,-13.64809 -7.313808,-7.64031 z"
         id="path918" /><path
         style="fill:#ffffff;stroke:#000000;stroke-width:0.264583px;stroke-linecap:butt;stroke-linejoin:miter;stroke-opacity:1"
         d="m -70.302005,141.80457 0.20779,0.20779 -4.848415,24.5653 11.843983,-3.80947 133.839318,-45.29804 -7.952954,-13.21576 -48.617218,13.71338 z"
         id="path922" /><path
         style="fill:none;stroke:#000000;stroke-width:0.264583px;stroke-linecap:butt;stroke-linejoin:miter;stroke-opacity:1"
         d="m -21.022886,133.86082 33.371479,-10.42108 2.395443,7.67095 -33.335674,10.4099 z"
         id="path964-6" /><path
         style="fill:#ffffff;stroke:#000000;stroke-width:0.264583px;stroke-linecap:butt;stroke-linejoin:miter;stroke-opacity:1"
         d="m -73.725774,180.72284 0.522414,2.71002 -1.208085,0.45712 2.024356,9.20756 1.534594,2.25291 0.685671,2.54677 2.710026,3.16714 -3.754855,-17.07643 z"
         id="path924" /><path
         style="fill:#ffffff;stroke:#000000;stroke-width:0.264583px;stroke-linecap:butt;stroke-linejoin:miter;stroke-opacity:1"
         d="m -71.146352,184.11853 c 0.424461,-0.0979 13.190972,-5.12619 13.190972,-5.12619 l 3.003883,16.88052 -12.472651,4.99559 z"
         id="path926" /><path
         style="fill:#ffffff;stroke:#000000;stroke-width:0.264583px;stroke-linecap:butt;stroke-linejoin:miter;stroke-opacity:1"
         d="m -78.46016,162.92809 c 0.163256,0.0653 3.428347,3.68955 3.428347,3.68955 l 21.712861,-7.1179 48.2165733,-16.26373 23.2954757,-7.91908 26.850979,-9.14273 16.600046,-5.58721 9.165812,-3.13993 -0.323228,11.56693 -141.469804,55.20249 -2.742676,-3.39569 -1.828454,-9.20756 z"
         id="path928" /><path
         style="fill:#000000;stroke:#000000;stroke-width:0.264583px;stroke-linecap:butt;stroke-linejoin:miter;stroke-opacity:1"
         d="m -57.824777,179.05764 c 0,0 17.860052,-7.2485 17.892702,-6.95465 0.03265,0.29386 -3.199789,18.28452 -3.199789,18.28452 l -11.721679,5.3874 z"
         id="path930" /><path
         style="fill:#ffffff;stroke:#000000;stroke-width:0.264583px;stroke-linecap:butt;stroke-linejoin:miter;stroke-opacity:1"
         d="m -39.71082,172.23414 c 0.923507,-0.27705 10.805036,-4.34049 10.805036,-4.34049 l -3.324625,18.28545 -10.805038,4.43284 z"
         id="path932" /><path
         style="fill:#000000;stroke:#000000;stroke-width:0.264583px;stroke-linecap:butt;stroke-linejoin:miter;stroke-opacity:1"
         d="m -29.059317,167.95633 c 0,0.32651 -3.265093,18.28451 -3.265093,18.28451 l 18.741628,-8.16273 c 0,0 3.330393,-17.37029 3.069186,-17.37029 -0.261207,0 -18.545721,7.24851 -18.545721,7.24851 z"
         id="path934" /><path
         style="fill:#ffffff;stroke:#000000;stroke-width:0.264583px;stroke-linecap:butt;stroke-linejoin:miter;stroke-opacity:1"
         d="m -10.48181,160.55177 -2.909048,17.31577 9.1427237,-4.01726 3.64785447,-17.08489 z"
         id="path936" /><path
         style="fill:#000000;stroke:#000000;stroke-width:0.264583px;stroke-linecap:butt;stroke-linejoin:miter;stroke-opacity:1"
         d="M -0.78498133,156.85774 12.467351,151.77845 9.1427238,168.07836 -4.2481343,173.66558 Z"
         id="path938" /><path
         style="fill:#ffffff;stroke:#000000;stroke-width:0.264583px;stroke-linecap:butt;stroke-linejoin:miter;stroke-opacity:1"
         d="m 12.559701,151.6861 8.357743,-3.23228 c 0,0 -3.416978,15.97668 -3.69403,16.11521 -0.277052,0.13852 -7.8036381,3.46315 -7.8036381,3.46315 z"
         id="path940" /><path
         style="fill:#000000;stroke:#000000;stroke-width:0.264583px;stroke-linecap:butt;stroke-linejoin:miter;stroke-opacity:1"
         d="m 20.686567,148.5 13.898787,-5.4487 -3.647855,15.60728 -13.575559,5.8181 z"
         id="path942" /><path
         style="fill:#ffffff;stroke:#000000;stroke-width:0.264583px;stroke-linecap:butt;stroke-linejoin:miter;stroke-opacity:1"
         d="m 34.838531,142.84777 -3.787508,15.70509 7.477062,-3.42834 3.395694,-15.01943 z"
         id="path944" /><path
         style="fill:#000000;stroke:#000000;stroke-width:0.264583px;stroke-linecap:butt;stroke-linejoin:miter;stroke-opacity:1"
         d="m 41.727874,140.2357 10.285039,-3.95076 -3.754856,14.88881 -9.860576,3.82016 z"
         id="path946" /><path
         style="fill:#ffffff;stroke:#000000;stroke-width:0.264583px;stroke-linecap:butt;stroke-linejoin:miter;stroke-opacity:1"
         d="m 48.453963,150.97785 3.624254,-14.79087 6.562834,-2.61207 -4.016063,14.62761 z"
         id="path948" /><path
         style="fill:#000000;stroke:#000000;stroke-width:0.264583px;stroke-linecap:butt;stroke-linejoin:miter;stroke-opacity:1"
         d="m 58.379843,133.67286 6.399581,-2.38351 -0.750973,12.66855 c 0,0 -9.338161,4.24462 -9.338161,4.11402 0,-0.13061 3.689553,-14.39906 3.689553,-14.39906 z"
         id="path950" /><path
         style="fill:#ffffff;stroke:#000000;stroke-width:0.264583px;stroke-linecap:butt;stroke-linejoin:miter;stroke-opacity:1"
         d="m 64.942677,131.19139 -0.75097,12.73386 c 0,0 5.648608,-2.54677 5.681261,-2.71003 0.03265,-0.16325 0.71832,-12.21144 0.71832,-12.21144 z"
         id="path952" /><path
         style="fill:#000000;stroke:#000000;stroke-width:0.264583px;stroke-linecap:butt;stroke-linejoin:miter;stroke-opacity:1"
         d="m -90.834857,186.56735 c 0,0 -1.044829,-1.04483 -0.391811,-1.11013 0.653018,-0.0653 4.048715,-1.82845 4.048715,-1.82845 0,0 2.546771,4.89764 2.938582,4.30992 0.39181,-0.58772 9.92588,-4.30992 9.92588,-4.30992 l 2.024356,9.66467 1.697847,2.08966 0.653019,2.54677 2.677377,3.19979 -15.215331,-1.11013 z"
         id="path956" /><path
         style="fill:#000000;stroke:#000000;stroke-width:0.264583px;stroke-linecap:butt;stroke-linejoin:miter;stroke-opacity:1"
         d="m -96.516117,162.73218 c 0.522414,-0.52241 10.187088,-16.32546 10.187088,-16.32546 l 0.914225,0.65302 -10.709502,17.10908 z"
         id="path958" /><path
         style="fill:#000000;stroke:#000000;stroke-width:0.264583px;stroke-linecap:butt;stroke-linejoin:miter;stroke-opacity:1"
         d="m -83.586353,149.1494 c 0,0.91422 -7.183202,21.81081 -7.183202,21.81081 l 1.567243,1.95906 6.530184,-23.11685 z"
         id="path960" /><path
         style="fill:none;stroke:#000000;stroke-width:0.264583px;stroke-linecap:butt;stroke-linejoin:miter;stroke-opacity:1"
         d="m -66.143799,147.66008 33.468505,-10.10513 2.322818,7.69325 -33.432596,10.09429 z"
         id="path964" /><path
         style="fill:none;stroke:#000000;stroke-width:0.264583px;stroke-linecap:butt;stroke-linejoin:miter;stroke-opacity:1"
         d="m 25.886105,119.15058 33.41141,-10.29234 2.36585,7.68013 -33.375562,10.28129 z"
         id="path964-2" /></g></g></svg>
