<?xml version="1.0" encoding="UTF-8" standalone="no"?>
<!-- Created with Inkscape (http://www.inkscape.org/) -->

<svg
   width="55.642017mm"
   height="55.505943mm"
   viewBox="0 0 55.642018 55.505944"
   version="1.1"
   id="svg5"
   xml:space="preserve"
   inkscape:version="1.2.1 (9c6d41e410, 2022-07-14)"
   sodipodi:docname="GNParticles.svg"
   xmlns:inkscape="http://www.inkscape.org/namespaces/inkscape"
   xmlns:sodipodi="http://sodipodi.sourceforge.net/DTD/sodipodi-0.dtd"
   xmlns="http://www.w3.org/2000/svg"
   xmlns:svg="http://www.w3.org/2000/svg"><sodipodi:namedview
     id="namedview7"
     pagecolor="#505050"
     bordercolor="#ffffff"
     borderopacity="1"
     inkscape:showpageshadow="0"
     inkscape:pageopacity="0"
     inkscape:pagecheckerboard="1"
     inkscape:deskcolor="#505050"
     inkscape:document-units="mm"
     showgrid="false"
     inkscape:zoom="1.4324916"
     inkscape:cx="130.89082"
     inkscape:cy="65.968974"
     inkscape:window-width="1920"
     inkscape:window-height="991"
     inkscape:window-x="-9"
     inkscape:window-y="-9"
     inkscape:window-maximized="1"
     inkscape:current-layer="layer1" /><defs
     id="defs2" /><g
     inkscape:label="Layer 1"
     inkscape:groupmode="layer"
     id="layer1"
     transform="translate(8.0640615,-29.719956)"><path
       style="fill:none;stroke:#000000;stroke-width:0.264583px;stroke-linecap:butt;stroke-linejoin:miter;stroke-opacity:0"
       d="m -3.358526,77.1684 0.8970883,-2.381306 0.6056525,-1.586324 2.09350322,0.359793 0.75349,0.986273 -0.7432476,1.423907 c 0,0 -0.6533053,0.573152 -0.6944176,0.683467 -0.041122,0.110313 -0.2889274,1.216306 -0.3410772,1.394995 -0.05211,0.178696 -0.78926112,0.691613 -0.78926112,0.691613 0,0 -1.3164346,-0.538909 -1.4348954,-0.674865 -0.1184624,-0.135946 -0.3158929,-0.799037 -0.3468366,-0.897543 z"
       id="path4804" /><path
       style="fill:#ffffff;stroke:#000000;stroke-width:0.264583px;stroke-linecap:butt;stroke-linejoin:miter;stroke-opacity:0"
       d="m -3.2453677,77.046276 1.432334,-3.674943 1.76540282,0.07322 1.07710908,1.155195 -1.26629258,2.205059 -0.76643652,2.004775 c 0,0 -2.2042395,-1.125854 -2.1785984,-1.285427 0.02564,-0.159563 0.034967,-0.508816 0.034967,-0.508816 z"
       id="path4806" /><path
       style="fill:#ffffff;stroke:#000000;stroke-width:0.264583px;stroke-linecap:butt;stroke-linejoin:miter;stroke-opacity:0"
       d="M 0.29934862,64.591059 1.7757024,63.261566 c 0,0 1.2199552,0.266219 1.3074707,0.303678 0.087466,0.03745 1.6807646,1.182045 1.6807646,1.182045 l -0.2206039,1.227285 c 0,0 -0.847057,1.196771 -0.9646965,1.201244 -0.1176428,0.0045 -3.27931638,-2.584712 -3.27931638,-2.584712 z"
       id="path4808" /><path
       style="fill:#ffffff;stroke:#000000;stroke-width:0.264583px;stroke-linecap:butt;stroke-linejoin:miter;stroke-opacity:0"
       d="m 6.9355833,64.184222 -1.1608537,2.713071 c 0,0 0.3187448,0.635812 0.4937806,0.7107 0.1750311,0.07492 1.1348935,0.650045 1.2488715,0.668359 0.113968,0.01831 1.0436679,-0.674119 1.1075777,-0.78077 0.063928,-0.106639 0.3679548,-0.689152 0.337021,-0.787657 -0.030971,-0.09846 0.126542,-1.078717 0.016246,-1.119816 -0.1103032,-0.04112 -2.0426426,-1.403887 -2.0426431,-1.403887 z"
       id="path4810" /><path
       style="fill:#ffffff;stroke:#000000;stroke-width:0.264583px;stroke-linecap:butt;stroke-linejoin:miter;stroke-opacity:0"
       d="m 4.6541684,69.359611 -0.1721553,1.071376 c 0,0 1.814772,3.986252 2.0272552,3.973633 0.2124879,-0.01265 2.2680754,-1.599799 2.2680754,-1.599799 0,0 -2.6288884,-4.304149 -2.7465295,-4.299666 -0.1176428,0.0045 -1.3766458,0.854456 -1.3766458,0.854456 z"
       id="path4812" /><path
       style="fill:#ffffff;stroke:#000000;stroke-width:0.264583px;stroke-linecap:butt;stroke-linejoin:miter;stroke-opacity:0"
       d="m 14.010509,74.581074 -1.061134,2.238025 c 0,0 1.151249,3.458733 1.340937,3.44244 0.1897,-0.01631 2.180985,-0.912268 2.180985,-0.912268 l 0.135527,-0.843431 z"
       id="path4814" /><path
       style="fill:#ffffff;stroke:#000000;stroke-width:0.264583px;stroke-linecap:butt;stroke-linejoin:miter;stroke-opacity:0"
       d="m 18.915261,64.285248 -0.349922,5.088218 2.04339,-1.074685 -0.02774,-2.155764 -0.01637,-2.80869 z"
       id="path4816" /><path
       style="fill:#ffffff;stroke:#000000;stroke-width:0.264583px;stroke-linecap:butt;stroke-linejoin:miter;stroke-opacity:0"
       d="m 28.857132,61.206006 3.468293,6.356494 1.763307,-2.242117 -2.036995,-3.039841 z"
       id="path4818" /><path
       style="fill:none;stroke:#000000;stroke-width:0.264583px;stroke-linecap:butt;stroke-linejoin:miter;stroke-opacity:0"
       d="m 14.130466,60.640916 -0.164448,-2.539358 -0.102213,-1.694931 2.05564,-0.535303 1.093089,0.587911 -0.0901,1.603686 c 0,0 -0.358904,0.791516 -0.35088,0.908969 0.008,0.117456 0.23822,1.227245 0.264378,1.411542 0.02619,0.184286 -0.433931,0.955492 -0.433931,0.955492 0,0 -1.42153,0.05175 -1.585505,-0.02327 -0.163974,-0.07502 -0.617219,-0.597736 -0.686022,-0.674725 z"
       id="path4804-9" /><path
       style="fill:#ffffff;stroke:#000000;stroke-width:0.264583px;stroke-linecap:butt;stroke-linejoin:miter;stroke-opacity:0"
       d="m 14.183211,60.483002 -0.210139,-3.938607 1.638575,-0.661121 1.457567,0.608389 -0.244581,2.531 0.128246,2.142452 c 0,0 -2.472354,-0.116971 -2.514782,-0.272922 -0.04243,-0.155943 -0.177914,-0.477979 -0.177914,-0.477979 z"
       id="path4806-3" /><path
       style="fill:#ffffff;stroke:#000000;stroke-width:0.264583px;stroke-linecap:butt;stroke-linejoin:miter;stroke-opacity:0"
       d="m 12.277706,47.674159 0.796932,-1.81991 c 0,0 1.221207,-0.260414 1.316382,-0.262367 0.09512,-0.0019 2.018605,0.383976 2.018605,0.383976 l 0.304994,1.209079 c 0,0 -0.278321,1.439551 -0.383656,1.492125 -0.105329,0.0526 -4.053263,-1.002853 -4.053263,-1.002853 z"
       id="path4808-0" /><path
       style="fill:#ffffff;stroke:#000000;stroke-width:0.264583px;stroke-linecap:butt;stroke-linejoin:miter;stroke-opacity:0"
       d="m 18.155986,44.567562 0.06092,2.95036 c 0,0 0.552524,0.447852 0.742867,0.443918 0.19035,-0.0039 1.301953,0.12434 1.413344,0.09404 0.111382,-0.0303 0.672923,-1.04444 0.687179,-1.167954 0.01428,-0.12351 0.0511,-0.779557 -0.01768,-0.856548 -0.06881,-0.07693 -0.329439,-1.034946 -0.446869,-1.026916 -0.117446,0.008 -2.439756,-0.436903 -2.439756,-0.436903 z"
       id="path4810-6" /><path
       style="fill:#ffffff;stroke:#000000;stroke-width:0.264583px;stroke-linecap:butt;stroke-linejoin:miter;stroke-opacity:0"
       d="m 18.211155,50.223219 0.284857,1.047064 c 0,0 3.296793,2.883533 3.485175,2.784435 0.188374,-0.09913 1.406799,-2.392581 1.406799,-2.392581 0,0 -4.169562,-2.837518 -4.274893,-2.784934 -0.105328,0.0526 -0.901938,1.346016 -0.901938,1.346016 z"
       id="path4812-3" /><path
       style="fill:#ffffff;stroke:#000000;stroke-width:0.264583px;stroke-linecap:butt;stroke-linejoin:miter;stroke-opacity:0"
       d="m 28.888016,51.122915 -0.04408,2.476453 c 0,0 2.474802,2.676484 2.640901,2.583437 0.166104,-0.09307 1.610905,-1.730294 1.610905,-1.730294 l -0.224251,-0.82429 z"
       id="path4814-8" /><path
       style="fill:#ffffff;stroke:#000000;stroke-width:0.264583px;stroke-linecap:butt;stroke-linejoin:miter;stroke-opacity:0"
       d="m 29.111844,39.720699 1.778937,4.779937 1.418587,-1.821539 -0.914035,-1.952595 -1.172858,-2.552137 z"
       id="path4816-6" /><path
       style="fill:#ffffff;stroke:#000000;stroke-width:0.264583px;stroke-linecap:butt;stroke-linejoin:miter;stroke-opacity:0"
       d="m 36.899996,32.816554 5.780438,4.361264 0.682114,-2.769668 -3.109072,-1.929679 z"
       id="path4818-4" /><path
       style="fill:#ffffff;stroke:#000000;stroke-width:0.264583px;stroke-linecap:butt;stroke-linejoin:miter;stroke-opacity:0"
       d="m -0.49514017,62.150817 0.4850356,-1.926632 c 0,0 1.16133697,-0.458759 1.25487917,-0.476422 0.093496,-0.01764 2.0543084,0.04491 2.0543084,0.04491 l 0.5007196,1.142005 c 0,0 -0.036459,1.465755 -0.1316477,1.535023 -0.095177,0.06929 -4.16329187,-0.318831 -4.16329187,-0.318831 z"
       id="path4808-2" /><path
       style="fill:#ffffff;stroke:#000000;stroke-width:0.264583px;stroke-linecap:butt;stroke-linejoin:miter;stroke-opacity:0"
       d="m 4.7885397,58.114996 0.5479306,2.899674 c 0,0 0.618972,0.350326 0.8060436,0.314972 0.1870856,-0.03533 1.3045911,-0.09265 1.4094379,-0.140956 0.1048363,-0.0483 0.490959,-1.141332 0.4845958,-1.265503 C 8.0302076,59.799012 7.9580526,59.145906 7.877475,59.08135 7.796892,59.01685 7.3814399,58.115125 7.2669536,58.14246 7.1524496,58.16978 4.7885401,58.115 4.7885397,58.115 Z"
       id="path4810-1" /><path
       style="fill:none;stroke:#000000;stroke-width:0.264583px;stroke-linecap:butt;stroke-linejoin:miter;stroke-opacity:0"
       d="M 8.7883123,51.163509 7.23672,49.146594 6.2073567,47.796169 7.6159597,46.206187 8.8512149,46.08524 9.6700456,47.467066 c 0,0 0.1430523,0.857231 0.215165,0.950287 0.072095,0.09307 0.8816814,0.886294 1.0060994,1.024748 0.12444,0.138428 0.172129,1.035197 0.172129,1.035197 0,0 -1.1515279,0.835111 -1.3294887,0.864192 -0.1779601,0.02908 -0.845592,-0.152387 -0.9456241,-0.177975 z"
       id="path4804-9-3" /><path
       style="fill:#ffffff;stroke:#000000;stroke-width:0.264583px;stroke-linecap:butt;stroke-linejoin:miter;stroke-opacity:0"
       d="m 8.7441123,51.002993 -2.3692554,-3.153317 0.9921823,-1.462048 1.5493102,-0.307046 1.2072976,2.237903 1.300359,1.707517 c 0,0 -2.1180972,1.280579 -2.2402301,1.174729 -0.12213,-0.105844 -0.4140817,-0.297748 -0.4140817,-0.297748 z"
       id="path4806-3-9" /><path
       style="fill:#ffffff;stroke:#000000;stroke-width:0.264583px;stroke-linecap:butt;stroke-linejoin:miter;stroke-opacity:0"
       d="m 20.556783,76.142761 -0.165604,-1.979835 c 0,0 0.949953,-0.810403 1.032721,-0.857431 0.08273,-0.047 1.957967,-0.62335 1.957967,-0.62335 l 0.843833,0.918064 c 0,0 0.440586,1.398446 0.372986,1.494827 -0.06758,0.0964 -4.041883,1.047776 -4.041883,1.047776 z"
       id="path4808-05" /><path
       style="fill:#ffffff;stroke:#000000;stroke-width:0.264583px;stroke-linecap:butt;stroke-linejoin:miter;stroke-opacity:0"
       d="m 24.247153,70.612274 1.458187,2.565546 c 0,0 0.699104,0.130796 0.864618,0.03672 0.165537,-0.09406 1.204136,-0.510489 1.287666,-0.590171 0.08352,-0.07968 0.09453,-1.238847 0.04826,-1.354252 -0.04624,-0.115414 -0.326187,-0.709876 -0.423338,-0.74483 -0.09714,-0.0349 -0.782428,-0.753292 -0.881872,-0.690329 -0.09947,0.06296 -2.353522,0.777315 -2.353523,0.777316 z"
       id="path4810-0" /><path
       style="fill:none;stroke:#000000;stroke-width:0.264583px;stroke-linecap:butt;stroke-linejoin:miter;stroke-opacity:0"
       d="m 25.777908,62.739654 -2.12155,-1.405137 -1.411491,-0.943891 0.817221,-1.960703 1.129371,-0.514785 1.222502,1.041833 c 0,0 0.413174,0.76459 0.511554,0.829249 0.09837,0.06468 1.121349,0.552681 1.283927,0.643335 0.162588,0.09062 0.498362,0.923524 0.498362,0.923524 0,0 -0.818692,1.163259 -0.97762,1.24845 -0.158927,0.08519 -0.849335,0.129911 -0.952261,0.138126 z"
       id="path4804-9-6" /><path
       style="fill:#ffffff;stroke:#000000;stroke-width:0.264583px;stroke-linecap:butt;stroke-linejoin:miter;stroke-opacity:0"
       d="m 25.684068,62.602129 -3.263401,-2.215174 0.464747,-1.704706 1.366154,-0.792629 1.867468,1.725788 1.783597,1.193872 c 0,0 -1.588698,1.897961 -1.738546,1.83741 -0.149842,-0.06055 -0.488233,-0.147463 -0.488233,-0.147463 z"
       id="path4806-3-8" /><path
       style="fill:#ffffff;stroke:#000000;stroke-width:0.264583px;stroke-linecap:butt;stroke-linejoin:miter;stroke-opacity:0"
       d="m 9.9946953,60.798074 1.9814947,0.144405 c 0,0 0.652758,1.064458 0.686338,1.153533 0.03355,0.08903 0.31117,2.031102 0.31117,2.031102 l -1.038157,0.690741 c 0,0 -1.449961,0.217674 -1.534652,0.135904 -0.08471,-0.08175 -0.4062468,-4.155673 -0.4062468,-4.155673 z"
       id="path4808-25" /><path
       style="fill:#ffffff;stroke:#000000;stroke-width:0.264583px;stroke-linecap:butt;stroke-linejoin:miter;stroke-opacity:0"
       d="m 14.883763,65.303865 -2.761155,1.041325 c 0,0 -0.237959,0.670247 -0.170773,0.848381 0.06716,0.178153 0.316952,1.26889 0.382669,1.363799 0.06571,0.0949 1.20906,0.2861 1.330258,0.258351 0.121203,-0.02773 0.751977,-0.211785 0.801619,-0.302315 0.04958,-0.09053 0.865839,-0.655717 0.819112,-0.763745 -0.04672,-0.108051 -0.401727,-2.445794 -0.401727,-2.445794 z"
       id="path4810-3" /><path
       style="fill:none;stroke:#000000;stroke-width:0.264583px;stroke-linecap:butt;stroke-linejoin:miter;stroke-opacity:0"
       d="m 22.422409,68.040684 1.718068,-1.877132 1.151977,-1.247472 1.809702,1.112288 0.332828,1.195704 -1.219328,1.045546 c 0,0 -0.819556,0.289201 -0.898733,0.376325 -0.0792,0.08711 -0.720394,1.021719 -0.835236,1.168215 -0.114811,0.146512 -0.989808,0.348627 -0.989808,0.348627 0,0 -1.021738,-0.989685 -1.081169,-1.159932 -0.05943,-0.170245 0.0038,-0.859205 0.01169,-0.962155 z"
       id="path4804-9-9" /><path
       style="fill:#ffffff;stroke:#000000;stroke-width:0.264583px;stroke-linecap:butt;stroke-linejoin:miter;stroke-opacity:0"
       d="m 22.572856,67.96938 2.695876,-2.879069 1.611655,0.724281 0.570453,1.472826 -1.995289,1.576262 -1.456802,1.576159 c 0,0 -1.62771,-1.864612 -1.544584,-2.003216 0.08312,-0.1386 0.22162,-0.459349 0.22162,-0.459349 z"
       id="path4806-3-0" /></g></svg>
