<?xml version="1.0" encoding="UTF-8" standalone="no"?>
<!-- Created with Inkscape (http://www.inkscape.org/) -->

<svg
   width="29.217358mm"
   height="38.407341mm"
   viewBox="0 0 29.217358 38.407341"
   version="1.1"
   id="svg1282"
   xml:space="preserve"
   inkscape:version="1.2.1 (9c6d41e410, 2022-07-14)"
   sodipodi:docname="GNSaber.svg"
   xmlns:inkscape="http://www.inkscape.org/namespaces/inkscape"
   xmlns:sodipodi="http://sodipodi.sourceforge.net/DTD/sodipodi-0.dtd"
   xmlns="http://www.w3.org/2000/svg"
   xmlns:svg="http://www.w3.org/2000/svg"><sodipodi:namedview
     id="namedview1284"
     pagecolor="#ffffff"
     bordercolor="#000000"
     borderopacity="0.25"
     inkscape:showpageshadow="2"
     inkscape:pageopacity="0.0"
     inkscape:pagecheckerboard="true"
     inkscape:deskcolor="#d1d1d1"
     inkscape:document-units="mm"
     showgrid="false"
     inkscape:zoom="1.2938725"
     inkscape:cx="-247.31958"
     inkscape:cy="-101.24645"
     inkscape:window-width="5120"
     inkscape:window-height="1377"
     inkscape:window-x="-8"
     inkscape:window-y="-8"
     inkscape:window-maximized="1"
     inkscape:current-layer="layer1" /><defs
     id="defs1279" /><g
     inkscape:label="Layer 1"
     inkscape:groupmode="layer"
     id="layer1"
     transform="translate(-67.778922,-82.540345)"><path
       style="fill:#ffffff;stroke:#000000;stroke-width:0.396875"
       d="m 94.103929,83.17689 c -0.57749,0.370046 -1.950753,1.956007 -1.950753,1.956007 l -4.563094,5.422098 -4.236404,5.592914 1.726885,2.694952 11.284384,-13.747744 -1.886862,-2.266597 z"
       id="path2141" /><path
       style="fill:#ffffff;stroke:#000000;stroke-width:0.396875"
       d="m 84.933485,98.909953 4.080204,1.621437 5.929045,-10.451886 1.815995,-4.666487 -0.281273,-0.22707 -11.373157,13.397319 z"
       id="path2143" /><path
       style="fill:#ffffff;stroke:#000000;stroke-width:0.396875"
       d="m 70.858306,120.7185 c 0.317898,-0.39379 4.720442,-7.80384 4.720442,-7.80384 l 1.939914,-2.05768 2.622601,-5.78072 -4.291182,2.66826 -6.480179,12.51573 z"
       id="path2145" /><path
       style="fill:#ffffff;stroke:#000000;stroke-width:0.396875"
       d="m 76.211344,107.75741 c -0.201286,-0.44125 -0.716363,-1.41457 -0.716363,-1.41457 l -3.838518,4.98495 -3.652182,6.25039 1.309367,2.63666 z"
       id="path2147" /><path
       style="fill:#ffffff;stroke:#000000;stroke-width:0.396875"
       d="m 75.449568,106.39909 4.133259,-2.70283 0.660104,1.36916 -4.144094,2.60116 z"
       id="path2149" /><path
       style="fill:#ffffff;stroke:#000000;stroke-width:0.396875"
       d="m 77.521618,105.09851 5.514165,-8.556824 0.374152,-0.348361 1.772301,2.638696 -7.607315,12.070379 2.486359,-5.61197 -0.376782,-1.60501 z"
       id="path2151" /><path
       style="fill:#ffffff;stroke:#000000;stroke-width:0.396875"
       d="m 72.758965,117.32829 0.865492,0.88455 3.608498,1.05479 11.938658,-18.70166 -3.922288,-1.586867 -7.471074,11.901617 -2.279494,2.24812 z"
       id="path2153" /><path
       style="fill:#ffffff;stroke:#000000;stroke-width:0.396875"
       d="m 77.300049,119.41471 -0.646642,0.68589 -4.316068,-1.90476 0.365369,-0.91297 1.045098,1.12246 z"
       id="path2155" /><path
       style="fill:#ffffff;stroke:#000000;stroke-width:0.396875"
       d="m 72.449852,118.28667 0.01963,0.66626 0.731314,0.59037 0.586277,0.19456 0.733362,0.12745 0.441244,-0.20128"
       id="path2157" /></g></svg>
