<?xml version="1.0" encoding="UTF-8" standalone="no"?>
<!-- Created with Inkscape (http://www.inkscape.org/) -->

<svg
   width="27.35391mm"
   height="24.915617mm"
   viewBox="0 0 27.35391 24.915617"
   version="1.1"
   id="svg3263"
   inkscape:version="1.2.1 (9c6d41e410, 2022-07-14)"
   sodipodi:docname="GNT_Standard.svg"
   xmlns:inkscape="http://www.inkscape.org/namespaces/inkscape"
   xmlns:sodipodi="http://sodipodi.sourceforge.net/DTD/sodipodi-0.dtd"
   xmlns="http://www.w3.org/2000/svg"
   xmlns:svg="http://www.w3.org/2000/svg">
  <sodipodi:namedview
     id="namedview3265"
     pagecolor="#505050"
     bordercolor="#ffffff"
     borderopacity="1"
     inkscape:showpageshadow="0"
     inkscape:pageopacity="0"
     inkscape:pagecheckerboard="1"
     inkscape:deskcolor="#505050"
     inkscape:document-units="mm"
     showgrid="false"
     inkscape:zoom="5.7299663"
     inkscape:cx="63.351158"
     inkscape:cy="32.897227"
     inkscape:window-width="1920"
     inkscape:window-height="991"
     inkscape:window-x="-9"
     inkscape:window-y="-9"
     inkscape:window-maximized="1"
     inkscape:current-layer="layer1" />
  <defs
     id="defs3260" />
  <g
     inkscape:label="Layer 1"
     inkscape:groupmode="layer"
     id="layer1"
     transform="translate(-31.815209,-11.077858)">
    <g
       id="g4692"
       transform="matrix(0.24754746,-0.29266543,0.29266543,0.24754746,28.260442,32.068573)">
      <path
         style="fill:#ffffff;stroke:#000000;stroke-width:0.264583px;stroke-linecap:butt;stroke-linejoin:miter;stroke-opacity:1"
         d="m 5.6333955,16.900186 7.5727605,-0.184701 1.10821,2.308768 v 2.216418 l -0.184702,1.20056 -0.646455,0.923507 -0.369403,0.369403 -7.5727614,0.09235 0.8311568,-0.646455 0.6464554,-1.754664 0.092351,-1.108209 v -1.38526 L 6.0951493,17.36194 Z"
         id="path3395" />
      <path
         style="display:inline;fill:#ffffff;stroke:#000000;stroke-width:0.264583px;stroke-linecap:butt;stroke-linejoin:miter;stroke-opacity:1"
         d="m 4.7343832,17.011129 h 0.783622 l 0.3265093,0.130603 1.3386877,1.828452 -0.032651,1.893753 -0.457113,1.730499 L 6.2363257,23.44336 5.3220998,23.933124 4.897638,23.965775 4.0487139,23.44336 3.3630446,22.529134 3.1344883,21.582257 l -0.032651,-1.371338 0.065302,-1.43664 0.6203675,-0.946877 0.4897638,-0.489764 z"
         id="path3760" />
      <path
         style="fill:#000000;stroke:#000000;stroke-width:0.264583px;stroke-linecap:butt;stroke-linejoin:miter;stroke-opacity:1"
         d="M 5.0608925,18.12126 5.4853543,18.545722 5.8118636,20.047664 5.68126,21.223098 5.5833073,22.137323 5.3220998,22.855643 5.1914961,23.116851 4.5384778,22.692389 4.1466666,22.202625 4.016063,21.288399 v -1.371338 l 0.1632545,-0.979528 0.3591603,-0.555066 z"
         id="path3762" />
      <path
         style="fill:#ffffff;stroke:#000000;stroke-width:0.264583px;stroke-linecap:butt;stroke-linejoin:miter;stroke-opacity:1"
         d="m 11.689029,16.619318 1.795801,-3.983412 2.938582,2.252913 -1.599895,10.154436 -1.371338,1.763151 -3.4609978,-2.579424 0.3265088,-0.457113 2.742678,-0.03265 0.979527,-1.208084 0.326509,-1.991706 -0.03265,-1.43664 -1.044829,-2.154961 -0.09795,-0.293858 z"
         id="path3764" />
      <path
         style="fill:#ffffff;stroke:#000000;stroke-width:0.264583px;stroke-linecap:butt;stroke-linejoin:miter;stroke-opacity:1"
         d="m 13.386877,12.537953 c 0,0 0.685669,-0.391811 0.946876,-0.391811 0.261208,0 7.019948,0 7.019948,0 L 27.394122,10.415643 43.817534,6.6934383 55.604515,5.0935434 69.187297,3.7548558 75.684831,3.3303937 81.529345,3.232441 81.72525,3.7875067 76.04399,3.5589501 76.011341,4.3425723 50.968084,6.9219949 50.347718,6.2689766 29.124619,10.448294 l 8.293335,0.130604 -3.101837,0.783622 -5.028243,0.09795 -7.1179,1.828451 -7.575013,0.228557 z"
         id="path3766" />
      <path
         style="fill:#ffffff;stroke:#000000;stroke-width:0.264583px;stroke-linecap:butt;stroke-linejoin:miter;stroke-opacity:1"
         d="m 14.776119,13.644823 1.662314,1.315998 c 0,0 7.041744,-0.02309 7.203358,-0.02309 0.161614,0 11.751632,-3.09375 11.751632,-3.09375 L 50.102836,9.0932811 65.291977,7.0648324 78.729011,6.4645523 84.685634,6.3722016 c 0,0 0.323228,-0.7849811 -0.323229,-0.7849811 -0.646453,0 -7.064832,0.092351 -7.064832,0.092351 l -0.808067,-0.9581391 4.848413,-0.092351 -0.380947,-0.4848415 -4.940766,0.2770523 -25.048122,2.500703 1.044829,1.142782 -14.95412,2.5794228 -2.710027,0.71832 -5.126193,0.09795 -7.183203,1.828451 -7.248504,0.163255 z"
         id="path3768" />
      <path
         style="fill:#ffffff;stroke:#000000;stroke-width:0.264583px;stroke-linecap:butt;stroke-linejoin:miter;stroke-opacity:1"
         d="m 23.80252,14.888819 25.777901,-0.04898 0.50609,-1.861103 0.440788,-1.093806 0.767294,-0.473438 1.714735,-0.306319 8.864164,-1.1139958 11.133963,-1.0448293 3.069187,-0.097953 -0.946877,4.0160631 7.509711,0.09795 L 84.500579,6.3995802 67.685356,6.889344 63.603991,7.2811549 35.491549,11.819633 Z"
         id="path3770" />
      <path
         style="fill:#ffffff;stroke:#000000;stroke-width:0.264583px;stroke-linecap:butt;stroke-linejoin:miter;stroke-opacity:1"
         d="m 49.596746,14.937795 5.191495,-0.04898 0.529855,-2.421468 0.11544,-0.161614 10.851211,-0.138526 3.070664,-1.662314 0.669541,-0.230877 1.362173,1.546875 1.731579,-0.138526 -1.408351,-1.639226 -2.100979,-0.069262 -3.232275,1.870102 -10.897388,0.04617 0.115438,-1.085121 -4.40975,0.669543 -0.715716,0.554104 -0.600281,1.777753 z"
         id="path3772" />
      <path
         style="fill:#ffffff;stroke:#000000;stroke-width:0.264583px;stroke-linecap:butt;stroke-linejoin:miter;stroke-opacity:1"
         d="m 55.133395,13.66791 13.113806,-0.115438 3.139924,-1.754664 c 0,0 -1.223648,-1.431437 -1.315998,-1.431437 -0.09235,0 -3.763293,1.823927 -3.763293,1.823927 l -10.966651,0.09235 z"
         id="path3774" />
      <path
         style="fill:#ffffff;stroke:#000000;stroke-width:0.264583px;stroke-linecap:butt;stroke-linejoin:miter;stroke-opacity:1"
         d="m 49.892489,15.006996 0.831157,0.831157 19.76306,-0.115439 -2.28568,-2.19333 -13.206158,0.06926 -0.253963,1.269823 h -4.6868 z"
         id="path3776" />
      <path
         style="fill:#ffffff;stroke:#000000;stroke-width:0.264583px;stroke-linecap:butt;stroke-linejoin:miter;stroke-opacity:1"
         d="m 72.864738,11.197528 c 0,0 1.800839,1.754664 1.893189,1.731576 0.09235,-0.02309 7.89599,0 7.89599,0 l 0.600281,-2.031716 1.777751,1.731577 3.786381,0.184701 1.154382,1.315998 -16.161379,-0.369403 -3.463153,1.870103 -2.008629,-2.031717 3.024487,-1.662313 1.823929,-0.277052 z"
         id="path3778" />
      <path
         style="fill:#ffffff;stroke:#000000;stroke-width:0.264583px;stroke-linecap:butt;stroke-linejoin:miter;stroke-opacity:1"
         d="m 83.692864,9.8584421 5.448694,-0.1154385 2.031714,2.2625934 -5.425606,-0.161614 z"
         id="path3780" />
      <path
         style="fill:#ffffff;stroke:#000000;stroke-width:0.264583px;stroke-linecap:butt;stroke-linejoin:miter;stroke-opacity:1"
         d="m 84.870334,12.328825 0.715719,-0.577193 0.230878,0.161614 -0.669544,0.669543 z"
         id="path3782" />
      <path
         style="fill:#ffffff;stroke:#000000;stroke-width:0.264583px;stroke-linecap:butt;stroke-linejoin:miter;stroke-opacity:1"
         d="m 89.995802,14.245102 -1.800841,6.256763 1.546876,-1.131296 2.147154,-6.118237 -0.646453,-1.29291 -5.633397,-0.09235 -0.392491,0.831156 3.578592,0.04618 z"
         id="path3784" />
      <path
         style="fill:#ffffff;stroke:#000000;stroke-width:0.264583px;stroke-linecap:butt;stroke-linejoin:miter;stroke-opacity:1"
         d="m 81.659949,3.232441 -0.163254,1.4366404 c 0,0 0.424461,0.9795277 0.555064,0.9795277 0.130604,0 0.424464,0 0.424464,0 L 81.855854,4.799685 82.01911,3.8201576 Z"
         id="path3786" />
      <path
         style="fill:#ffffff;stroke:#000000;stroke-width:0.264583px;stroke-linecap:butt;stroke-linejoin:miter;stroke-opacity:1"
         d="m 49.823226,14.891558 -0.06926,2.885961 -6.903217,-0.04618 -0.323229,1.108209 -12.467351,0.323228 -0.323226,-1.154385 -6.603079,-0.09235 -0.554105,0.415578 -1.431436,6.833955 -6.372202,-0.09235 c 0,0 1.339086,-10.112406 1.662314,-10.112406 0.323227,0 32.969215,-0.09235 32.969215,-0.09235 z"
         id="path4516" />
      <path
         style="fill:#ffffff;stroke:#000000;stroke-width:0.264583px;stroke-linecap:butt;stroke-linejoin:miter;stroke-opacity:1"
         d="m 13.48483,26.953334 6.39958,-0.195905 1.338688,-1.501943 -6.383255,-0.146929 -1.420315,1.697849 z"
         id="path4518" />
      <path
         style="fill:#ffffff;stroke:#000000;stroke-width:0.264583px;stroke-linecap:butt;stroke-linejoin:miter;stroke-opacity:1"
         d="m 22.888294,18.12126 0.753497,2.33443 -1.89319,12.328825 -3.69403,-0.831157 0.646455,-2.30877 -2.585821,-1.939364 -0.554104,1.800839 -1.031442,-2.552729 5.403727,-0.228558 1.061155,-1.338686 1.599895,-6.970972 z"
         id="path4520" />
      <path
         style="fill:#ffffff;stroke:#000000;stroke-width:0.264583px;stroke-linecap:butt;stroke-linejoin:miter;stroke-opacity:1"
         d="m 15.561101,29.667676 3.139925,-0.04618 -2.539646,-1.962452 z"
         id="path4522" />
      <path
         style="fill:#ffffff;stroke:#000000;stroke-width:0.264583px;stroke-linecap:butt;stroke-linejoin:miter;stroke-opacity:1"
         d="m 23.671916,20.308872 6.660787,-0.130604 -0.522414,-2.220262 -6.824042,-0.0653 -0.09795,0.293858 z"
         id="path4524" />
      <path
         style="fill:#ffffff;stroke:#000000;stroke-width:0.264583px;stroke-linecap:butt;stroke-linejoin:miter;stroke-opacity:1"
         d="m 23.704567,20.178268 -1.926404,12.603255 6.954645,-0.228555 0.489765,-3.689557 4.734382,-0.0653 -0.130603,2.252913 7.738268,0.0653 0.0653,0.946878 6.758739,-0.03265 c 0,0 0.228558,-0.848924 0.261207,-1.273384 C 48.682516,30.332704 49.76,23.41071 49.76,23.41071 l 0.620366,-3.265092 -6.921995,0.03265 -0.587716,4.669081 H 29.712338 L 30.2021,20.145617 Z"
         id="path4526" />
      <path
         style="fill:#ffffff;stroke:#000000;stroke-width:0.264583px;stroke-linecap:butt;stroke-linejoin:miter;stroke-opacity:1"
         d="m 29.875591,23.900473 11.884935,-0.09795 0.620368,-1.012178 0.293857,-1.40399 -0.09795,-1.697848 -0.163256,-0.71832 0.489765,-1.07748 0.620366,2.350866 -0.653018,4.603779 -13.223621,-0.03265 z"
         id="path4528" />
      <path
         style="fill:#ffffff;stroke:#000000;stroke-width:0.264583px;stroke-linecap:butt;stroke-linejoin:miter;stroke-opacity:1"
         d="m 49.753964,17.569729 0.646456,2.585821 -0.923509,5.010028 16.761661,-0.184701 4.825328,-2.354944 15.884326,-0.415579 0.784982,-0.554104 0.600281,-1.523787 1.523786,-5.310168 0.09235,-0.692631 -16.25373,-0.369403 -3.555505,1.985541 -19.301304,0.138526 -1.062035,-0.877332 z"
         id="path4530" />
      <path
         style="fill:#ffffff;stroke:#000000;stroke-width:0.264583px;stroke-linecap:butt;stroke-linejoin:miter;stroke-opacity:1"
         d="m 69.770989,23.318563 c 0.115438,0.04617 0.946595,0.531017 0.946595,0.531017 l 7.572761,-0.04617 h 0.300138 l -0.784979,2.88596 5.88736,0.0231 1.038945,-3.116837 0.0231,-0.60028 -0.484841,-0.715718 -13.390859,0.369403 -1.177472,0.69263 z"
         id="path4532" />
      <path
         style="fill:#ffffff;stroke:#000000;stroke-width:0.264583px;stroke-linecap:butt;stroke-linejoin:miter;stroke-opacity:1"
         d="m 76.258628,23.757229 -0.577191,0.969683 1.823926,1.754665 0.253966,0.09235 0.808066,-2.655084 z"
         id="path4534" />
      <path
         style="fill:#ffffff;stroke:#000000;stroke-width:0.264583px;stroke-linecap:butt;stroke-linejoin:miter;stroke-opacity:1"
         d="m 79.62943,26.689365 c 0.0231,0.230878 -0.161613,0.969684 -0.161613,0.969684 0,0 0.507929,0.392491 0.600279,0.392491 0.09235,0 1.916279,0.06926 1.916279,0.06926 l 0.623367,-1.431438 z"
         id="path4536" />
      <path
         style="fill:#ffffff;stroke:#000000;stroke-width:0.264583px;stroke-linecap:butt;stroke-linejoin:miter;stroke-opacity:1"
         d="m 71.848879,10.18167 c 0.09235,-0.115439 0.738806,-1.1774722 0.738806,-1.1774722 l 3.39389,-0.1154385 0.138528,0.046175 -0.992772,3.9710827 H 74.64249 l -1.731577,-1.639226 z"
         id="path4538" />
      <path
         style="fill:#ffffff;stroke:#000000;stroke-width:0.264583px;stroke-linecap:butt;stroke-linejoin:miter;stroke-opacity:1"
         d="m 29.157271,29.091969 2.807978,1.893753 c 0,0 1.37134,0.359161 1.567246,0.359161 0.195905,0 5.615958,-0.130604 5.615958,-0.130604 l -5.224147,-0.195905 v -2.318216 l -4.701733,0.163253 z"
         id="path4540" />
      <path
         style="fill:#ffffff;stroke:#000000;stroke-width:0.264583px;stroke-linecap:butt;stroke-linejoin:miter;stroke-opacity:1"
         d="m 51.327245,25.239161 -0.228558,0.587716 1.7305,1.436641 3.003886,0.261208 2.122307,-1.403991 0.881576,-1.012178 -7.542363,0.03265 v 0 z"
         id="path4542" />
      <path
         style="fill:#ffffff;stroke:#000000;stroke-width:0.264583px;stroke-linecap:butt;stroke-linejoin:miter;stroke-opacity:1"
         d="m 53.939318,27.524726 -0.620366,2.187612 -1.273387,0.489762 -1.175433,-0.359159 -0.293859,-0.293859 -0.0653,0.881575 0.457113,0.71832 0.555067,0.587717 c 0,0 0.522414,0.228555 0.653018,0.261207 0.130603,0.03265 0.620368,0.03265 0.620368,0.03265 l 0.163253,0.0653 -0.195905,1.208085 c 0,0 -0.359159,2.710027 -0.42446,2.873283 -0.0653,0.163253 -0.489765,1.208082 -0.489765,1.208082 l -0.783622,0.09795 -0.750972,-0.587717 -0.326509,-0.228557 -0.587717,0.457112 0.0653,0.848924 c 0,0 0.555067,0.195905 0.71832,0.261207 0.163256,0.0653 1.371338,0.130604 1.371338,0.130604 0,0 0.816274,-0.03265 0.97953,-0.03265 0.163253,0 0.881573,-0.195905 0.881573,-0.195905 l 0.359161,-0.620369 1.012177,-4.211968 0.555067,-1.730499 -0.09795,-1.240735 c 0,0 -0.03265,-1.501941 0.0653,-1.632545 0.09795,-0.130603 0.261208,-0.71832 0.261208,-0.71832 l -0.03265,-0.359161 c 0,0 -0.03265,-0.228555 -0.163253,-0.228555 -0.130606,0 -1.436642,-0.09795 -1.436642,-0.09795 z"
         id="path4544" />
      <path
         style="fill:#ffffff;stroke:#000000;stroke-width:0.264583px;stroke-linecap:butt;stroke-linejoin:miter;stroke-opacity:1"
         d="m 52.455222,27.12803 -1.108207,2.862874 0.692629,0.115438 c 0,0 0.969684,-0.184701 1.10821,-0.253963 0.138525,-0.06926 0.369403,-0.531016 0.369403,-0.623369 0,-0.09235 0.461753,-1.639226 0.461753,-1.639226 0,0 0.09235,-0.207788 0,-0.207788 -0.09235,0 -1.616138,-0.115438 -1.616138,-0.115438 z"
         id="path4546" />
      <path
         style="fill:#ffffff;stroke:#000000;stroke-width:0.264583px;stroke-linecap:butt;stroke-linejoin:miter;stroke-opacity:1"
         d="m 51.39319,26.34305 -0.0231,1.385262 -0.831157,1.847014 0.784982,0.461753 1.177472,-2.885961 V 26.85098 L 51.46244,25.950559 Z"
         id="path4548" />
      <path
         style="fill:#ffffff;stroke:#000000;stroke-width:0.264583px;stroke-linecap:butt;stroke-linejoin:miter;stroke-opacity:1"
         d="m 51.150768,31.456974 c -0.05772,0.04618 -1.08512,5.206272 -1.08512,5.206272 l 0.969682,0.75035 0.831157,-0.138528 0.634913,-1.673857 0.519472,-3.474696 -0.900419,-0.161613 -0.600282,-0.300141 z"
         id="path4550" />
      <path
         style="fill:#ffffff;stroke:#000000;stroke-width:0.264583px;stroke-linecap:butt;stroke-linejoin:miter;stroke-opacity:1"
         d="m 22.692389,32.634594 -2.138635,10.138111 1.420315,1.257059 2.399842,-11.346193 -1.599895,-0.04898 z"
         id="path4552" />
      <path
         style="fill:#ffffff;stroke:#000000;stroke-width:0.264583px;stroke-linecap:butt;stroke-linejoin:miter;stroke-opacity:1"
         d="m 27.474346,32.53055 -2.516557,11.520757 -3.024487,0.138525 2.470382,-11.520755 z"
         id="path4554" />
      <path
         style="fill:#ffffff;stroke:#000000;stroke-width:0.264583px;stroke-linecap:butt;stroke-linejoin:miter;stroke-opacity:1"
         d="m 50.249764,6.3995802 -0.816271,2.0570079 0.03265,0.065302 2.318216,-0.35916 z"
         id="path4556" />
      <path
         style="fill:#ffffff;stroke:#000000;stroke-width:0.264583px;stroke-linecap:butt;stroke-linejoin:miter;stroke-opacity:1"
         d="M 29.842941,10.28504 C 30.006194,10.252389 50.347718,6.2689766 50.347718,6.2689766 L 49.40084,8.5545408 37.189396,10.611549 Z"
         id="path4558" />
      <path
         style="fill:#ffffff;stroke:#000000;stroke-width:0.264583px;stroke-linecap:butt;stroke-linejoin:miter;stroke-opacity:1"
         d="m 30.15252,19.139692 0.207787,0.969683 -0.230878,0.09235 -0.207788,3.69403 h 11.820896 c 0,0 0.854244,-1.500699 0.854244,-1.59305 0,-0.09235 0.06926,-1.038946 0.06926,-1.038946 L 42.48134,18.931903 42.38899,18.793377 Z"
         id="path4560" />
      <path
         style="fill:#ffffff;stroke:#000000;stroke-width:0.264583px;stroke-linecap:butt;stroke-linejoin:miter;stroke-opacity:1"
         d="m 42.943097,17.846781 0.669541,2.331857 6.787782,-0.04617 -0.577194,-2.308769 z"
         id="path4562" />
    </g>
  </g>
</svg>
