<?xml version="1.0" encoding="UTF-8" standalone="no"?>
<!-- Created with Inkscape (http://www.inkscape.org/) -->

<svg
   width="210mm"
   height="297mm"
   viewBox="0 0 210 297"
   version="1.1"
   id="svg4816"
   xml:space="preserve"
   inkscape:version="1.2.1 (9c6d41e410, 2022-07-14)"
   sodipodi:docname="GNTAIV.svg"
   xmlns:inkscape="http://www.inkscape.org/namespaces/inkscape"
   xmlns:sodipodi="http://sodipodi.sourceforge.net/DTD/sodipodi-0.dtd"
   xmlns="http://www.w3.org/2000/svg"
   xmlns:svg="http://www.w3.org/2000/svg"><sodipodi:namedview
     id="namedview4818"
     pagecolor="#ffffff"
     bordercolor="#000000"
     borderopacity="0.25"
     inkscape:showpageshadow="2"
     inkscape:pageopacity="0.0"
     inkscape:pagecheckerboard="0"
     inkscape:deskcolor="#d1d1d1"
     inkscape:document-units="mm"
     showgrid="false"
     inkscape:zoom="1.829812"
     inkscape:cx="509.06869"
     inkscape:cy="573.82944"
     inkscape:window-width="5120"
     inkscape:window-height="1377"
     inkscape:window-x="-8"
     inkscape:window-y="-8"
     inkscape:window-maximized="1"
     inkscape:current-layer="layer7" /><defs
     id="defs4813" /><g
     inkscape:label="Layer 1"
     inkscape:groupmode="layer"
     id="layer1"><path
       style="opacity:1;fill:#ffffff;stroke:#000000;stroke-width:0.079375;stroke-linejoin:bevel"
       d="m 106.25495,154.19353 c -0.4427,0.0771 -5.8531,9.61426 -5.8531,9.61426 l 4.30456,17.95205 6.10627,12.67959 19.25402,3.44814 c 0,0 0.28812,-17.90164 -0.0803,-18.5931 -0.3684,-0.69146 -13.36642,-23.69427 -13.36642,-23.69427 l -2.16655,-1.08678 -7.76456,-1.00938 z"
       id="path5638" /></g><g
     inkscape:groupmode="layer"
     id="layer6"
     inkscape:label="Layer 2"><path
       style="opacity:1;fill:#000000;stroke:#000000;stroke-width:0.079375;stroke-linejoin:bevel"
       d="m 107.63953,155.84747 12.08604,21.31977 7.64467,0.98302 -11.3212,-20.36674 -2.093,-0.72177 z"
       id="path5642" /></g><g
     inkscape:groupmode="layer"
     id="layer7"
     inkscape:label="Layer 3"><ellipse
       style="opacity:1;fill:#ffffff;stroke:#000000;stroke-width:0.109151;stroke-linejoin:bevel"
       id="path5651"
       cx="189.76633"
       cy="14.672774"
       rx="2.9075708"
       ry="3.1431925"
       transform="matrix(0.52372364,0.85188823,0.99817874,-0.06032576,0,0)" /><ellipse
       style="opacity:1;fill:#ffffff;stroke:#000000;stroke-width:0.109151;stroke-linejoin:bevel"
       id="path5651-9"
       cx="197.17946"
       cy="14.384627"
       rx="2.9075708"
       ry="3.1431925"
       transform="matrix(0.52372364,0.85188823,0.99817874,-0.06032576,0,0)"
       inkscape:transform-center-x="0.037440325"
       inkscape:transform-center-y="-0.085316973" /><ellipse
       style="opacity:1;fill:#ffffff;stroke:#000000;stroke-width:0.109151;stroke-linejoin:bevel"
       id="path5651-2"
       cx="205.11926"
       cy="14.023208"
       rx="2.9075708"
       ry="3.1431925"
       transform="matrix(0.52372364,0.85188823,0.99817874,-0.06032576,0,0)" /><path
       style="opacity:1;fill:#ffffff;stroke:#000000;stroke-width:0.079375;stroke-linejoin:bevel"
       d="m 119.52539,176.55857 c -0.0423,1.21161 -5.549,9.98636 -5.549,9.98636 l 0.20673,8.41747 15.88358,2.92517 -0.0391,-18.10439 -0.56682,-1.38908 -9.91786,-1.17756 z"
       id="path5691" /><path
       style="opacity:1;fill:#000000;stroke:#000000;stroke-width:0.079375;stroke-linejoin:bevel"
       d="m 103.09688,159.27239 4.6813,11.67612 -0.59646,3.09074 3.92216,4.44633 -3.23533,9.81444 0.7772,1.53633 3.25341,-10.93506 0.16267,-0.65068 2.53043,-1.64478 c 0,0 0.57838,-3.25341 0.52416,-3.32571 -0.0542,-0.0723 -2.06049,-1.87974 -2.06049,-1.87974 l -4.97049,-0.63261 -4.91626,-11.85687 z"
       id="path5715"
       inkscape:label="path5715" /><path
       style="opacity:1;fill:#000000;stroke:#000000;stroke-width:0.079375;stroke-linejoin:bevel"
       d="m 107.65094,170.73595 -0.71571,3.33573 4.08979,4.72882 c 0,0 0.39619,-0.23005 0.34507,-0.29395 -0.0511,-0.0639 -4.05145,-4.48599 -4.05145,-4.48599 l 0.57513,-3.08012 z"
       id="path5720" /><path
       style="opacity:1;fill:#000000;stroke:#000000;stroke-width:0.079375;stroke-linejoin:bevel"
       d="m 111.97078,178.69826 c 0.21727,-0.16615 2.95232,-1.91709 2.97788,-1.99377 0.0256,-0.0767 0.4601,-3.56579 0.4601,-3.56579 l -2.22382,-2.12158 -5.09946,-0.4601 -0.37064,0.14059 5.39341,0.94576 1.86597,1.68704 -0.56235,3.20793 -2.74783,1.75094 0.30674,0.35786 z"
       id="path5722" /><path
       style="opacity:1;fill:#000000;stroke:#000000;stroke-width:0.079375;stroke-linejoin:bevel"
       d="m 107.57936,170.76777 -0.90373,3.34378 4.28365,4.73552 0.16268,-0.1446 -3.94024,-4.88011 z"
       id="path5741" /><path
       style="opacity:1;fill:#000000;stroke:#000000;stroke-width:0.079375;stroke-linejoin:bevel"
       d="m 120.69993,177.49688 -1.63592,18.35293 1.68704,0.25562 1.17581,-18.5063 z"
       id="path5761" /><path
       style="opacity:1;fill:#000000;stroke:#000000;stroke-width:0.079375;stroke-linejoin:bevel"
       d="m 127.39696,178.05923 c 0.0511,0.4601 -0.71572,19.11977 -0.71572,19.11977 l -1.68704,-0.15337 1.38031,-19.17089 z"
       id="path5763" /><path
       style="opacity:1;fill:#000000;stroke:#000000;stroke-width:0.079375;stroke-linejoin:bevel"
       d="m 107.51035,170.95322 c -0.28117,-0.35786 -4.67769,-11.40029 -4.67769,-11.40029 l 0.35785,-0.48566 4.83107,11.6559 z"
       id="path5765" /><path
       style="opacity:1;fill:#000000;stroke:#000000;stroke-width:0.079375;stroke-linejoin:bevel"
       d="m 107.43367,170.83819 c -0.0895,0.23005 -0.86908,3.22071 -0.86908,3.22071 l 0.25561,0.23005 0.76684,-3.34851 z"
       id="path5767" /><path
       style="opacity:1;fill:#ffffff;stroke:#000000;stroke-width:0.079375;stroke-linejoin:bevel"
       d="m 106.64127,153.57161 1.07357,2.30051 8.53744,1.89152 0.4601,-2.14713 -2.40275,-1.1247 z"
       id="path5769" /></g><g
     inkscape:groupmode="layer"
     id="layer8"
     inkscape:label="Layer 4"><path
       style="opacity:1;fill:#ffffff;stroke:#000000;stroke-width:0.079375;stroke-linejoin:bevel"
       d="m 113.03602,171.64353 c -0.23973,-0.0527 -5.21485,-0.57963 -5.21485,-0.57963 l -0.49527,2.94342 3.83377,4.24399 3.17367,-1.87492 0.51366,-2.85217 z"
       id="path5689" /></g></svg>
