<?xml version="1.0" encoding="UTF-8"?>
<svg id="svg5" xmlns="http://www.w3.org/2000/svg" width="258.12" height="257.24" viewBox="0 0 258.12 257.24">
  <defs>
    <style>
      .cls-1 {
        fill: #fff;
        stroke-width: 0px;
      }
    </style>
  </defs>
  <polyline id="polyline324" class="cls-1" points="0 0 0 27.43 0 37.34 257.26 37.34 257.26 0"/>
  <polyline id="polyline326" class="cls-1" points=".86 216.33 .86 246.37 .86 257.24 258.12 257.24 258.12 216.33"/>
  <polygon id="polygon328" class="cls-1" points="206.33 170.18 201.75 170.18 168.59 98.87 174.31 84.48 235.06 84.76 239.08 93.21 206.33 170.18"/>
  <polygon id="polygon330" class="cls-1" points="52.83 170.18 48.26 170.18 15.1 98.87 20.82 84.48 81.57 84.76 85.59 93.21 52.83 170.18"/>
  <polygon id="polygon330-2" data-name="polygon330" class="cls-1" points="129.57 169.68 125 169.68 91.84 98.38 97.56 83.99 158.31 84.27 162.33 92.72 129.57 169.68"/>
</svg>