<?xml version="1.0" encoding="UTF-8"?>
<svg id="svg1282" xmlns="http://www.w3.org/2000/svg" width="80.19" height="89.16" viewBox="0 0 80.19 89.16">
  <defs>
    <style>
      .cls-1 {
        fill: #fff;
        stroke: #fff;
        stroke-width: .14px;
      }
    </style>
  </defs>
  <path id="path604" class="cls-1" d="m7.75,77.16l-4.62-6.76,2.4-2.93,4.68.6s5.31,3.12,5.18,3.29c-.13.17-2.83,3.16-2.83,3.16l6.38,6.35,2.96-3.49,3.98,5.51-2.72,2.82-5.31-.61-5.5-4.42-.04-.42.21-.3s.22-.23.36-.26c.14-.03.55-.28.55-.28,0,0,.42-.32.49-.4.07-.08.17-.54.17-.54l-.02-.51-.37-.65s-.14-.25-.23-.35c-.09-.1-.35-.46-.35-.46l-.67-.62-.73-.42-.65-.2-.99-.24-.71-.04-.36.28-.1.29s-.15.45-.18.63c-.03.18-.08.48-.08.48,0,0,.04.05-.04.23-.08.18-.21.3-.21.3l-.18.16-.25.09-.19-.28Z"/>
  <path id="path606" class="cls-1" d="m8.74,75.59l.75-.09,1,.19.81.24.68.39.61.63.58.65.68,1.01.05.35-.4.37-.62-.1-.52-1.02-.43-.45-.61-.66-.64-.31-1.01-.29-.68-.18h-.5s.25-.75.25-.75Z"/>
  <path id="path608" class="cls-1" d="m7.79,77.42l2.61,1.35-1.06,1.66-.64.2-.51.56-1,.95-2.25,2.51.03.47.23.35.27-.06.83-.73,2.94-2.89.4-.69-.21-.68,1-1.64,1.5,1.53.35.79-6.81,7.55-.7.26-.44-.36.1-.43-.02-.72-.41-.42-.5-.5-.82-.33h-.87s-.81.28-.81.28l-.55.77-.26-.36-.14-.62.11-.82.1-.43s6.4-7.02,6.55-7.09c.14-.08.71-.33.71-.33l.25-.11Z"/>
  <path id="path610" class="cls-1" d="m1.46,86.26s.28.57.38.79c.1.22.61.8.74.81.13.02.7.06.7.06l1.1.04h.18s.36.9.36.9l-.32.21s-1.32-.07-1.42-.08c-.09,0-1.05-.18-1.05-.18l-.64-.54-.72-.62-.36-.46.14-.45s.33-.3.41-.35c.08-.06.5-.15.5-.15h0Z"/>
  <path id="path612" class="cls-1" d="m12.99,74.6l22.29-24.43,2.87,8.82-19.1,21.02-6.05-5.4Z"/>
  <path id="path614" class="cls-1" d="m25.54,76.02l-.64.22s-.34.14-.31.31c.03.17.06.59.1.85.04.26-.14.7.17.76.31.06.63.17.63.17,0,0,.11-.2.22-.37.11-.17.21-.81.27-1.04.06-.22.16-.65.15-.79,0-.14-.46-.08-.46-.08"/>
  <path id="path616" class="cls-1" d="m29.56,75.36c-.45.2-1.33,1.21-1.33,1.21,0,0-.28.9-.25,1.08.02.19.22,1.24.35,1.46.12.22.52.86.62.94.09.08.1.2.1.2l-.38.21-1.16-.03-.71-.16-.38-.12-.38-1.07-.02-1,.27-1.99s.35-.84.52-.94c.17-.09.19-.35.62-.27.44.08,2.14.48,2.14.48h0Z"/>
  <path id="path618" class="cls-1" d="m30.09,75.47c.27.1,14.64,1.26,14.64,1.26,0,0-.63.46-.67.57-.04.11-.28.43-.35.7-.07.27-.02,1.14-.02,1.14l.29.66.32.81.41.42.2.21-15.64-1.24-.67-1.73.15-1.07.57-.95.49-.57.3-.2Z"/>
  <path id="path620" class="cls-1" d="m45.54,76.81l-.48.66s-.17.54-.2.77c-.04.23-.03,1.02-.03,1.16,0,.14.28,1.71.28,1.71,0,0,.2.26.45.31.26.06,1.34.03,1.34.03,0,0,.61-.2.78-.27.17-.07.65-.29.71-.49.06-.2.27-1.18.29-1.34.03-.16.22-.88.25-1.08.03-.21.12-.4-.19-.65-.3-.25-.91-.76-1-.84-.09-.08-.31-.18-.63-.22-.31-.04-1.44-.06-1.44-.06l-.16.33Z"/>
  <path id="path622" class="cls-1" d="m14,69.45l6.84-7.78,12.52-14.07,6.84-7.78,1.73.42-11.95,13.98-14.36,16.3-1.62-1.08Z"/>
  <path id="path624" class="cls-1" d="m33.78,39.25l2.99.44-25.06,28.06-2.56-.85,16.85-18.83,7.78-8.82Z"/>
  <path id="path626" class="cls-1" d="m46.75,62.66c-.43-.29-5.82-4.91-5.82-4.91l-2.72-9.4,19.49-22.13,1.36,7s-3.99,4.48-4.14,4.74c-.15.26-6.46,7.38-6.46,7.38,0,0-.63,1.27-.85,1.66-.22.39.12,1.87.12,1.87,0,0,1.34,2.17,1.7,2.26.36.09,2.65,1.91,2.95,2.04.3.13,1.72,1.14,1.72,1.14l-7.36,8.34Z"/>
  <path id="path628" class="cls-1" d="m42.99,64.66c.21.03,1.29-.12,1.73-.25.44-.13,1.35-.53,1.57-.55.21-.02,2.55-2.1,2.55-2.1,0,0,10.12,10.32,9.69,10.36-.43.04-2.07,1.05-2.07,1.05l-1.58,2.59-.42.32-11.48-11.42Z"/>
  <path id="path630" class="cls-1" d="m49.83,60.9l4.71-5.37,7.17,6-1.3,11.09-11.15-11.47.57-.25Z"/>
  <path id="path632" class="cls-1" d="m26.9,37.41c.43-.34,2.31-.67,2.31-.67,0,0,1.17,1.1,1.5,1.14.33.04,1.85-.36,2.48-.55.63-.19,4.66-.9,4.66-.9,0,0,4.21,3.81,4.39,3.6.18-.21,16.16-17.88,16.16-17.88l-1.59-6.61-5.47-1.04-9.07,1.11s-17.09,19.05-17.15,19.21c-.06.16-.38.48-.17.8.21.32,1.1,1.06,1.24,1.14.14.08.72.65.72.65h0Z"/>
  <path id="path634" class="cls-1" d="m52.62,13.64L65.4.07s4.56.43,4.73.52c.17.09,4.8,4.77,4.8,4.77l-4.56,6.08s-4.41,4.91-4.71,5.4c-.3.49-.88,5.94-.81,6.21.07.27.79,5.1.79,5.1l-3.36,3.46-4.67-16.33-5.3-1.18.3-.46Z"/>
  <path id="path636" class="cls-1" d="m74.9,7.46s5.29,5.19,5.23,5.35c-.06.16-.61,1.5-.71,1.65-.1.15-12.9,13.62-12.9,13.62l-.81-3.78s.01-2.89,0-3.02c-.02-.13.53-4.01.53-4.01,0,0,.64-1.2.77-1.32.13-.12,4.92-5.77,4.92-5.77l2.68-2.73h.3Z"/>
</svg>