<?xml version="1.0" encoding="utf-8"?>
<!-- Generator: Adobe Illustrator 27.5.0, SVG Export Plug-In . SVG Version: 6.00 Build 0)  -->
<svg version="1.1"
	 id="svg5" xmlns:inkscape="http://www.inkscape.org/namespaces/inkscape" xmlns:sodipodi="http://sodipodi.sourceforge.net/DTD/sodipodi-0.dtd" xmlns:svg="http://www.w3.org/2000/svg" inkscape:version="1.2.2 (732a01da63, 2022-12-09)" sodipodi:docname="BeamKnife.svg"
	 xmlns="http://www.w3.org/2000/svg" xmlns:xlink="http://www.w3.org/1999/xlink" x="0px" y="0px" viewBox="0 0 195.3 250"
	 style="enable-background:new 0 0 195.3 250;" xml:space="preserve">
<style type="text/css">
	.st0{fill:#FFFFFF;stroke:#FFFFFF;stroke-width:0.2121;}
</style>
<sodipodi:namedview  bordercolor="#000000" borderopacity="0.25" id="namedview7" inkscape:current-layer="layer1" inkscape:cx="337.93903" inkscape:cy="156.50693" inkscape:deskcolor="#d1d1d1" inkscape:document-units="mm" inkscape:pagecheckerboard="0" inkscape:pageopacity="0.0" inkscape:showpageshadow="2" inkscape:window-height="1377" inkscape:window-maximized="1" inkscape:window-width="5120" inkscape:window-x="-8" inkscape:window-y="-8" inkscape:zoom="2.5877449" pagecolor="#ffffff" showgrid="false" showguides="true">
	</sodipodi:namedview>
<g id="layer1" inkscape:groupmode="layer" inkscape:label="Layer 1">
	<path id="path421" class="st0" d="M120.4,74.7l11.5,1.9l-17.4,27.7l6.9,18.5l-13.2,17.6l-0.9-4.7c0,0-23.4,31.2-24,30.6
		c-0.7-0.6-8.4-36.4-8.4-36.4l19.4-23.5l-2.8-5.9l18.9-23.9L120.4,74.7z"/>
	<path id="path1031" class="st0" d="M74.9,132.6l-32.4,33.6L14,230.7c0,0,37.7-22.5,39.5-24.9c1.8-2.4,31-40.7,31-40.7L74.9,132.6z"
		/>
	<path id="path1033" class="st0" d="M42.5,166.4L75,129.5l3,10.7L42.5,166.4z"/>
	<path id="path1035" class="st0" d="M6.2,247.5c1.2-1.3,47.2-33.8,50.2-35.8c3-2,52-70.7,52-70.7l-1.6-3.7l-50.5,68.2
		c0,0-47.1,34-46.8,33.3c0.3-0.7,29.3-69.9,29.3-69.9L93,105.5l-3.1-3.8L43.2,157l-16,27.5L11.2,219l-9.1,30.4L6.2,247.5z"/>
	<path id="path1037" class="st0" d="M127.5,88.4l2.3,0.5l6.3-7.7l6.1,2l-5.9,11.5l1.1,5.2l-6.3,11.5l-15-7.6L126.3,88L127.5,88.4z"
		/>
	<path id="path1039" class="st0" d="M172.4,49.7l6.9,15.2l5.1-6.5l2,0.7c0,0-29.9,67.2-29.6,64.8c0.3-2.5,1.3-47.6,0.4-47.8
		c-0.9-0.2-38.7-6.3-38.9-7.4c-0.2-1-0.5-17.2-0.5-17.2l29-37.6l15.9,4.8l12.8,6.7l-1.1,6l2.7,4.6L172.4,49.7z"/>
</g>
</svg>
