<?xml version="1.0" encoding="utf-8"?>
<!-- Generator: Adobe Illustrator 27.3.1, SVG Export Plug-In . SVG Version: 6.00 Build 0)  -->
<svg version="1.1"
	 id="svg358" xmlns:svg="http://www.w3.org/2000/svg" xmlns:sodipodi="http://sodipodi.sourceforge.net/DTD/sodipodi-0.dtd" xmlns:inkscape="http://www.inkscape.org/namespaces/inkscape" inkscape:version="1.2.1 (9c6d41e410, 2022-07-14)"
	 xmlns="http://www.w3.org/2000/svg" xmlns:xlink="http://www.w3.org/1999/xlink" x="0px" y="0px" viewBox="0 0 256 256"
	 style="enable-background:new 0 0 256 256;" xml:space="preserve">
<style type="text/css">
	.st0{fill:#FFFFFF;}
</style>
<sodipodi:namedview  bordercolor="#000000" borderopacity="0.25" id="namedview360" inkscape:current-layer="layer1" inkscape:cx="2.1254027" inkscape:cy="154.1883" inkscape:deskcolor="#d1d1d1" inkscape:document-units="mm" inkscape:pagecheckerboard="0" inkscape:pageopacity="0.0" inkscape:showpageshadow="2" inkscape:zoom="2.587745" pagecolor="#ffffff" showgrid="false">
	</sodipodi:namedview>
<g id="layer1" inkscape:groupmode="layer" inkscape:label="Layer 1">
	<path id="path615" class="st0" d="M206.1,158.5c2.1-0.9-12.3,1.2-12.3,1.2l-1-0.7l-0.3-2.2l0.6-3.4l-0.4-2l-4.1-0.5l-1.3,1
		l-0.9,2.9l-0.5,3.1l0.3,2.2l-13.8,1.2l-1.5-1.8l-0.1-2.1l0.4-1.9l-0.9-1l-1.3-0.8l-3.4,0.4l-1.3,1l-0.1,4.2l-0.1,2.7l-0.1,0.3
		l-4.8,0.7l-21.4-88.6l-3-12.6l1.7-4.4l3.6-4.2l2.4-2.6l51.6-12.4l9.7,6.9l15.3,95.7l-3.3,8.5l-1.9,3.7l-0.5,1.6l-0.2,2.3l-0.5,0.7
		L206.1,158.5z"/>
	<path id="path639" class="st0" d="M203.9,163.9l-34.7,68.4l-21.8,1.6l-13.4-1.6l-3.9-1.9l14.8-29.5l-2.7-7.4l-21.1,44.3l-0.4,1.9
		c0,0,0,3,1.7,3.4c1.7,0.4,26.2,1.2,26.2,1.2l18.1,2l13.4-2.3l7.6-5.6l20.4-0.3l12-10.4l29.3,9.9l2.1-4.8l-1.3-3.8l-32.8-69
		l-4.5-1.8l-7.5,2L203.9,163.9z"/>
	<path id="path641" class="st0" d="M151.7,175.7l5.2-9.2l0.9-1.1l3.5-0.7l2.2,2.7l1.7,3.4c0,0,1.4,2.1,2.5,2.5
		c1.1,0.5-6.2-2.8-6.2-2.8l-2-0.8l-1.8,4.9l-4.4,7.5L151.7,175.7z"/>
	<path id="path643" class="st0" d="M165.2,172.3l6.6,3l1.3-1c0,0,1.9-1.9,1-3.2c-0.9-1.3-1.4-4.4-1.4-4.4l0.1-2.7
		c0,0,13-2.7,12.5-1.2c-0.5,1.6,0.2,6.4,0.2,6.4s0.2,1.6,1.1,2c0.9,0.4,5,0.9,5,0.9l1.7-2.3l-1.4-5.1l-0.3-3.1l14.4-1.3l-2.6,4.9
		l-8.8-0.3l0.1,3.6l-0.6,3.4l-2.2,1.2l-2.1,0.9c0,0-1.5-0.9-3-0.9c-1.5,0-4.2-3.5-4.2-3.5l-0.7-2.4l-0.2-1.9l-7.9,0.1l1.3,4.7
		l-1.4,5.1c0,0-0.9,2.6-1.8,2.5c-1-0.1-5.4-2.8-5.4-2.8l-9.7-3.7l1.7-5.3L165.2,172.3z"/>
	<path id="path645" class="st0" d="M163.4,161.7l-2.6,3.1l4.4,8.4l3.5,1.3l-2.5-5.7c0,0-1.5-2.9-1.5-3.6c0-0.8-0.3-2.1-0.3-2.1
		L163.4,161.7z"/>
	<path id="path647" class="st0" d="M171.2,159.8c-0.1,0.6,0.7,6.7,0.7,6.7s0.4,1.8,0.8,2.6c0.4,0.8,1.4,3,1.4,3l0.5,0.1l-1.5-13.2
		L171.2,159.8z"/>
	<path id="path649" class="st0" d="M173.2,160.4l12.6-0.7c0,0-0.1,4.3,0.1,4.5c0.2,0.2,1.1,3.8,1.1,3.8l1.2,1.8l0.3,1.4l-0.4,0.7
		l-4.3-4.5c0,0-1.5-3.1-1.9-3.2c-0.4-0.2-8.9,0.4-8.9,0.4L173.2,160.4z"/>
	<path id="path651" class="st0" d="M192.7,153c-0.6,0.4-1.6,3.5-1.7,3.9c-0.1,0.4-0.1,2.9-0.3,3.7c-0.2,0.8,0.3,3.1,0.4,3.9
		c0,0.8,0.7,3.2,0.7,3.2l1.3,2.1l0.8,1.2l-0.5-6.8l19.7-4.2l-0.7-4.5L192.7,153z"/>
	<path id="path653" class="st0" d="M185.4,168.1l2.6,3.2l0.1,1c0,0-2.2-0.2-2.8-1C184.7,170.3,185.4,168.1,185.4,168.1L185.4,168.1z
		"/>
	<path id="path655" class="st0" d="M187.6,170.7c0,0,1.4,0.2,1.8,0.2c0.5,0,1.3,0.1,1.9-0.3c0.6-0.4,1.8-1.1,1.8-1.1l0.7-0.4
		l0.2,2.2l-1.5,1.7c0,0-1.8,0.1-2.1,0C190,172.9,187.6,170.7,187.6,170.7L187.6,170.7z"/>
	<path id="path657" class="st0" d="M159.1,162.2c-0.2,0.5-2.1,4.5-2.1,4.5l2.6,1.3l2.8-2.7l1.7-1.6l-0.4-2.8L159.1,162.2z"/>
	<path id="path659" class="st0" d="M14.9,25.3l3-0.5l3.7,1.9l3,5L58.8,78l-0.3,3.2l-0.3,5.4l-1.7,3.1l-3.6,4.5l-1.3,0.7l-2.1,0
		L11.3,44.2l-1.9-6.3l-1.7-2.4L9.1,31l2.8-4.3L14.9,25.3z"/>
	<path id="path661" class="st0" d="M43.3,96.2"/>
	<path id="path663" class="st0" d="M41.9,96.1l1.7,12.5c0,0,1.6,8.3,2.2,11c0.5,2.8,1.4,6.9,2.6,8.7c1.2,1.8,6.6,9.5,6.6,9.5
		s6.2,8.5,7.1,10.1s7.6,8.6,8.6,9.9c1,1.3,9.4,11.9,9.4,11.9l7.7,8.2l4.5,4.8l4.8-8.2c0,0,1.7,0.3,3.4,3.9c1.7,3.7,7.3,9.7,8.4,10.6
		c1.1,0.9,7,5,9.9,4.9c2.9-0.1,5.9,0.7,8.5,2.6c2.6,1.9,5.2,3.8,5.2,3.8l2.5-4.5c0,0-2.9-7.6-4.4-10.7s-7.5-14.5-9.7-17.9
		s-7.7-11.6-8.7-14.1s-4.9-9.2-5.8-10.8c-0.9-1.6-3.6-6.6-4.6-9.1c-1-2.5-2.7-8.3-1.3-8.2c1.4,0.1,5.6-0.7,7.5,0.1
		c1.9,0.8,2.2-2.5,0.2-5c-2.1-2.5-6.7-8.2-11.1-12.2c-4.5-3.9-14.3-15.6-16.1-16.7c-1.8-1.2-9.4-9.8-9.4-9.8l-4.8-1.9
		c0,0-2.3,5-3.9,6.5c-1.6,1.5-2,7.2-5,9.8c-3,2.6-6.1,3.4-8,2.6C48.2,97.8,41.9,96.1,41.9,96.1L41.9,96.1z"/>
	<path id="path671" class="st0" d="M145.3,164.6l-7.7,2.8l-5.8,4.8c0,0,2.6,7.4,4.8,10.8c2.1,3.4,23.4,47.6,23.4,47.6
		s3.4,1.8,5.2,0.4c1.9-1.4,2.7-2.7,4.8-4.8c2.1-2.1,2.5-6.6,2.5-6.6l-1.3-2.6l-21-46.2L145.3,164.6z"/>
	<path id="path673" class="st0" d="M131.8,172.1l2.1-4.2l1.7-3.1l2.4-2l3.3-0.3l2.2,0.9l2.2,2.2L131.8,172.1z"/>
	
		<ellipse id="path729" transform="matrix(0.2213 -0.9752 0.9752 0.2213 -35.8299 319.4821)" class="st0" cx="182.1" cy="182.2" rx="6.3" ry="4.6"/>
	
		<ellipse id="path729-8" transform="matrix(0.2213 -0.9752 0.9752 0.2213 -63.6199 328.8846)" class="st0" cx="174.1" cy="204.3" rx="6.3" ry="4.6"/>
	
		<ellipse id="path729-4" transform="matrix(0.2213 -0.9752 0.9752 0.2213 -49.6643 294.9003)" class="st0" cx="159.8" cy="178.5" rx="6.3" ry="4.6"/>
	
		<ellipse id="path729-80" transform="matrix(0.2213 -0.9752 0.9752 0.2213 -104.4942 309.3221)" class="st0" cx="141.4" cy="220.1" rx="6.3" ry="4.6"/>
	
		<ellipse id="path729-7" transform="matrix(0.2213 -0.9752 0.9752 0.2213 -84.211 303.53)" class="st0" cx="147.9" cy="204.5" rx="6.3" ry="4.6"/>
</g>
</svg>
