<?xml version="1.0" encoding="UTF-8" standalone="no"?>
<!-- Created with Inkscape (http://www.inkscape.org/) -->

<svg
   width="255"
   height="255"
   viewBox="0 0 67.468748 67.46875"
   version="1.1"
   id="svg5575"
   xml:space="preserve"
   xmlns="http://www.w3.org/2000/svg"
   xmlns:svg="http://www.w3.org/2000/svg"><defs
     id="defs5572" /><g
     id="layer1"><path
       style="fill:#ffffff;stroke-width:0.215797;stroke-linejoin:bevel;stroke-dashoffset:28.2467"
       d="M 2.8112053,50.682964 1.541236,45.640908 5.9158473,46.791761 9.139365,52.764651 10.760594,52.554363 7.1420626,45.717459 5.6360757,44.772182 4.6597449,44.45051 4.5176194,44.952049 2.1784832,44.42057 2.0938892,43.869559 0.55708243,43.681343 0.2336403,45.41512 2.064253,51.273239 Z"
       id="path5720" /><path
       style="fill:#ffffff;stroke-width:0.215797;stroke-linejoin:bevel;stroke-dashoffset:28.2467"
       d="M 0.67249443,43.475284 20.310625,27.863759 l 1.341795,-0.330834 5.219382,-4.445774 0.3847,-0.686838 5.451978,-4.282899 0.674615,1.934066 -1.962302,1.603874 2.111531,0.194515 4.665841,-2.961908 3.645333,-2.378783 1.218183,0.798391 -8.722591,6.323011 0.17417,0.927926 -1.777051,-1.03947 -6.429029,4.623253 1.517739,1.172075 L 7.2653952,45.394012 6.3697452,44.804396 4.9069453,44.3105 6.3867461,42.997082 5.1840782,42.633054 2.3858008,44.358623 2.2727154,43.801301 Z"
       id="path5722" /><path
       style="fill:#ffffff;stroke-width:0.215797;stroke-linejoin:bevel;stroke-dashoffset:28.2467"
       d="m 7.6122395,45.869115 3.3357135,6.515912 3.4261,-2.689387 0.347283,0.618845 0.697613,-0.460899 -0.328048,-0.653185 3.963069,-3.27644 0.446839,0.647576 0.53448,-0.499999 -0.325553,-0.740231 10.046588,-7.943554 5.452782,-4.470166 0.848256,2.243483 0.476775,-0.396967 -0.714423,-2.296613 4.788647,-3.903863 0.412764,-2.784019 6.805291,-5.55083 -0.750543,-2.631305 -2.144677,1.434642 -1.724023,-1.535656 -8.304169,6.066057 0.06296,1.406056 -6.772294,4.84948 L 27.847542,29.480478 7.2866555,45.59534 Z"
       id="path5724" /><path
       style="fill:#ffffff;stroke-width:0.215797;stroke-linejoin:bevel;stroke-dashoffset:28.2467"
       d="m 31.962082,21.483819 1.726447,-1.476366 -0.149741,-0.404279 1.8146,-1.400156 2.62825,0.154865 0.06574,0.408255 -4.523588,2.937099 z"
       id="path5726" /><path
       style="fill:#ffffff;stroke-width:0.215797;stroke-linejoin:bevel;stroke-dashoffset:28.2467"
       d="m 33.055853,18.216945 2.39685,-7.082669 1.65931,0.191164 -1.329296,6.081868 0.0947,0.298136 2.350816,0.153782 0.330193,0.636913 -0.270887,0.220833 -0.214851,-0.609262 -2.704562,-0.193806 -1.962449,1.605715 -0.407764,-1.082441 z"
       id="path5728" /><path
       style="fill:#ffffff;stroke-width:0.215797;stroke-linejoin:bevel;stroke-dashoffset:28.2467"
       d="m 35.503463,10.488839 2.612523,-1.7735381 4.805147,0.297941 1.82109,5.1293031 -5.940112,4.181325 -0.574508,-0.667934 1.357635,-6.395276 -4.338434,-0.371985 z"
       id="path5730" /><path
       style="fill:#ffffff;stroke-width:0.215797;stroke-linejoin:bevel;stroke-dashoffset:28.2467"
       d="m 42.234468,16.313031 3.037181,-2.181303 0.192921,0.473176 0.760648,-0.42364 -0.247964,-0.57932 2.992217,-2.188637 -0.258456,3.615148 -4.202325,3.210353 z"
       id="path5732" /><path
       style="fill:#ffffff;stroke-width:0.215797;stroke-linejoin:bevel;stroke-dashoffset:28.2467"
       d="m 38.680808,8.1448809 4.443748,-2.852941 4.269176,0.08683 -4.106505,3.243646 -4.848342,-0.366824 z"
       id="path5734" /><path
       style="fill:#ffffff;stroke-width:0.215797;stroke-linejoin:bevel;stroke-dashoffset:28.2467"
       d="m 48.139639,5.2442579 7.612268,-4.88914854 6.104786,0.4304301 3.406269,0.92665644 c 0,0 1.607141,2.912388 1.372905,2.980187 -0.234237,0.0678 -5.598823,3.980803 -5.633083,4.275577 -0.03426,0.294774 -0.719098,1.2254791 -0.719098,1.2254791 l -4.28331,3.55934 c 0,0 -1.185541,-0.511409 -1.458821,-0.432309 -0.273272,0.0791 -4.85707,3.766104 -4.85707,3.766104 l -0.333245,2.171828 c 0,0 -0.783068,0.755675 -0.893127,0.543372 -0.110085,-0.212296 -1.036955,-2.996032 -1.036955,-2.996032 l 2.292529,-1.640219 0.26676,-3.454788 3.374579,-4.2729561 z"
       id="path5736" /><path
       style="fill:#ffffff;stroke-width:0.215797;stroke-linejoin:bevel;stroke-dashoffset:28.2467"
       d="m 44.07167,8.9447289 3.519137,-3.012595 3.840483,1.08583 -2.172653,3.7622781 -3.501504,2.397088 z"
       id="path5738" /><path
       style="fill:#ffffff;stroke-width:0.215797;stroke-linejoin:bevel;stroke-dashoffset:28.2467"
       d="m 3.5088261,50.880278 -1.2525009,-4.480007 0.7027158,-0.2034 c 0,0 2.8738139,0.592446 2.933002,0.778786 0.059188,0.186338 -0.010581,0.369306 -0.010581,0.369306 l -2.2136688,-0.661449 1.0666264,3.760621 z"
       id="path5740" /><path
       style="fill:#ffffff;stroke-width:0.215797;stroke-linejoin:bevel;stroke-dashoffset:28.2467"
       d="m 4.9686591,50.376335 0.7178428,-1.632049 c 0,0 0.07784,-1.365422 0.1607025,-1.104549 0.08286,0.260864 2.4544192,3.969329 2.4544192,3.969329 l -0.9369524,0.2712 z"
       id="path5742" /><path
       style="fill:#ffffff;stroke-width:0.215797;stroke-linejoin:bevel;stroke-dashoffset:28.2467"
       d="m 6.0363722,51.821226 -2.4591962,1.7477 0.100613,1.26574 3.2660887,5.442629 5.1108643,1.570789 c 0,0 2.017846,0.279171 1.995231,0.113073 -0.02262,-0.166105 -1.225794,-5.946869 -1.336214,-5.914908 -0.110421,0.03196 -1.893898,0.49064 -1.893898,0.49064 L 11.533285,60.301304 7.6530757,59.093679 4.8462996,53.863397 6.7834893,52.18047 6.1191865,51.797255 Z"
       id="path5744" /><path
       style="fill:#ffffff;stroke-width:0.215797;stroke-linejoin:bevel;stroke-dashoffset:28.2467"
       d="m 5.2662565,53.856945 1.9371863,-1.682935 1.3033253,-0.26215 0.7330409,1.169014 1.827822,-0.413966 1.086921,1.239228 -1.678764,1.262839 -2.8807123,-2.3314 -1.3099191,0.810773 2.4251198,4.218532 2.2429596,0.703188 0.263751,1.304841 L 7.7123861,58.61611 5.3583304,54.146817 Z"
       id="path5746" /><path
       style="fill:#ffffff;stroke-width:0.215797;stroke-linejoin:bevel;stroke-dashoffset:28.2467"
       d="m 10.813709,57.169114 c -0.139028,-0.102183 -0.655723,-1.661762 -0.655723,-1.661762 l 2.826616,-2.038969 1.235791,0.334091 7.602589,-6.127493 0.650077,-0.167807 2.701972,-2.146399 7.22916,-5.977642 1.802614,1.044938 6.301495,-5.346772 0.627696,-7.893309 4.344556,-3.214207 2.29635,4.572318 -1.5776,0.917035 -0.595903,-1.496457 -1.186141,0.631076 0.494022,2.504286 1.026168,3.04084 0.545679,1.338341 -6.976006,5.528745 -0.34732,-0.489523 -0.645411,-0.220119 -0.611037,0.156506 -0.608016,0.501536 -0.400351,0.685597 -0.267869,0.565853 -0.169012,0.944183 -0.01,0.572595 c 0,0 -22.123946,18.388021 -22.230483,18.052614 -0.106492,-0.335398 -1.237329,-5.908653 -1.237329,-5.908653 l -2.308125,0.383227 z"
       id="path5748" /><path
       style="fill:#ffffff;stroke-width:0.215797;stroke-linejoin:bevel;stroke-dashoffset:28.2467"
       d="m 11.936755,52.271471 2.279316,-1.839512 0.341409,0.505449 1.323277,-0.958517 -0.355653,-0.645196 3.290565,-2.736487 0.40499,0.51582 1.380982,-1.061542 -0.455213,-0.673935 1.948942,-1.456138 -0.433525,3.664782 -7.469491,5.902753 z"
       id="path5750" /><path
       style="fill:#ffffff;stroke-width:0.215797;stroke-linejoin:bevel;stroke-dashoffset:28.2467"
       d="m 22.574426,46.947979 0.177593,-3.331728 6.768493,-5.642303 c 0,0 2.589358,1.034548 2.457207,1.187895 -0.132149,0.153355 -1.937188,1.682936 -1.937188,1.682936 l -0.527164,-0.710657 -0.893345,0.603874 0.154051,0.674785 -3.0756,2.559161 -0.412473,-0.25468 -0.884976,0.630226 0.359926,1.133133 z"
       id="path5752" /><path
       style="fill:#ffffff;stroke-width:0.215797;stroke-linejoin:bevel;stroke-dashoffset:28.2467"
       d="m 30.331043,37.394045 4.73513,-3.787651 0.909705,2.009888 1.160139,-0.997618 -0.852001,-2.112922 4.029145,-3.353112 -0.343609,5.940731 -5.5966,4.871472 z"
       id="path5754" /><path
       style="fill:#ffffff;stroke-width:0.215797;stroke-linejoin:bevel;stroke-dashoffset:28.2467"
       d="m 46.262161,30.135525 c 0,0 1.697997,-1.29718 1.784196,-1.120705 0.0862,0.176476 1.450945,1.910775 1.450945,1.910775 l 0.679266,-0.139065 c 0,0 0.860204,1.189755 0.584151,1.269658 -0.276053,0.0799 -3.896993,3.199766 -4.096107,3.142294 -0.199112,-0.05746 -0.428493,-0.969408 -0.428493,-0.969408 l 0.443291,-0.50238 -0.612981,-3.448193 z"
       id="path5756" /><path
       style="fill:#ffffff;stroke-width:0.215797;stroke-linejoin:bevel;stroke-dashoffset:28.2467"
       d="m 32.104269,47.48428 4.270467,-3.494902 0.240162,0.376495 0.323779,0.165256 0.628236,-0.109929 0.234646,-0.06792 0.345066,-0.09988 0.345865,-0.287154 0.409007,-0.420517 0.269289,-0.48079 0.0936,-0.55943 0.128326,-0.497536 -0.04399,-0.375729 0.04177,-0.342995 11.569335,-9.175617 1.238832,1.670031 -0.116654,0.249583 -0.104103,0.289097 -17.496397,13.955716 z"
       id="path5758" /><path
       style="fill:#ffffff;stroke-width:0.215797;stroke-linejoin:bevel;stroke-dashoffset:28.2467"
       d="m 45.669515,23.429904 0.465019,-0.623774 2.813414,0.221556 0.906151,0.859926 0.663037,2.656782 -3.653326,-0.208637 -1.165802,-2.626352 z"
       id="path5760" /><path
       style="fill:#ffffff;stroke-width:0.215797;stroke-linejoin:bevel;stroke-dashoffset:28.2467"
       d="m 46.194734,22.616061 2.736854,-2.202145 2.697115,0.140114 -2.628924,2.257228 z"
       id="path5764" /><path
       style="fill:#ffffff;stroke-width:0.215797;stroke-linejoin:bevel;stroke-dashoffset:28.2467"
       d="m 49.082591,22.787288 0.953883,1.105083 2.830538,-2.286802 -0.901168,-1.03402 z"
       id="path5766" /><path
       style="fill:#ffffff;stroke-width:0.215797;stroke-linejoin:bevel;stroke-dashoffset:28.2467"
       d="m 50.139413,24.12155 2.745229,-2.175789 0.812773,2.843642 -0.621229,1.935067 0.531271,0.249077 0.583471,-2.528418 7.026032,-6.34989 -0.888188,-3.080778 c 0,0 -0.676941,-0.897505 -0.814972,-0.857552 -0.138023,0.03995 -2.278764,0.227969 -2.278764,0.227969 l -0.250179,-0.503082 2.668283,-2.03842 2.657756,-0.07869 0.969735,0.870303 1.428115,5.255255 -4.149036,6.581808 -1.498165,0.692617 -2.551989,2.119855 0.505435,0.832041 -3.926378,2.632776 -2.31381,-3.963004 z"
       id="path5768" /><path
       style="fill:#ffffff;stroke-width:0.215797;stroke-linejoin:bevel;stroke-dashoffset:28.2467"
       d="m 49.567141,28.488309 0.118961,0.943907 4.548907,7.48839 2.650276,0.182445 -5.242592,-8.438595 0.980054,2.421152 -1.597897,-0.285638 -0.944792,-1.740759 0.08104,-0.598953 z"
       id="path5770" /><path
       style="fill:#ffffff;stroke-width:0.215797;stroke-linejoin:bevel;stroke-dashoffset:28.2467"
       d="m 53.556336,30.988025 3.569997,-2.615942 1.111488,2.929831 2.734147,1.395483 1.480535,-1.03281 0.293515,-0.689227 -0.117186,-0.368934 0.865738,-0.595883 -0.140691,-0.822512 1.008924,0.139586 0.408376,0.716265 -0.221566,0.72595 -1.366734,1.201289 0.370747,1.072453 -4.631299,4.304328 -1.802002,-0.169013 -3.787369,-6.039885 z"
       id="path5772" /><path
       style="fill:#ffffff;stroke-width:0.215797;stroke-linejoin:bevel;stroke-dashoffset:28.2467"
       d="m 60.061242,24.9904 c -0.103652,0.432845 -0.85897,0.996777 -0.85897,0.996777 l 0.167405,0.527032 0.407478,0.428778 0.917533,3.647788 c 0,0 1.542678,0.301614 1.672339,0.235309 0.129665,-0.06626 0.277657,-0.454437 0.277657,-0.454437 l 0.521118,-0.352264 -0.04451,-0.994229 -1.325355,-5.975599 -0.924161,1.360942 z"
       id="path5774" /><path
       style="fill:#ffffff;stroke-width:0.215797;stroke-linejoin:bevel;stroke-dashoffset:28.2467"
       d="m 57.905706,26.650206 0.807107,3.679751 0.792173,-0.258111 0.175609,-0.396126 0.355483,-0.304321 -1.094912,-3.826638 -1.099942,0.807543 z"
       id="path5776" /><path
       style="fill:#ffffff;stroke-width:0.215797;stroke-linejoin:bevel;stroke-dashoffset:28.2467"
       d="m 59.555388,31.17951 c 0.267695,-0.106214 1.125942,-0.440998 1.125942,-0.440998 l 1.606256,0.311983 -0.139632,0.414496 -1.185246,0.918565 -1.748563,-0.759968 z"
       id="path5778" /><path
       style="fill:#ffffff;stroke-width:0.215797;stroke-linejoin:bevel;stroke-dashoffset:28.2467"
       d="m 58.99313,30.737985 0.517744,-0.552704 0.484256,-0.658107 0.26519,-0.01921 0.160807,1.075664 -1.216236,0.726109 z"
       id="path5780" /><path
       style="fill:#ffffff;stroke-width:0.215797;stroke-linejoin:bevel;stroke-dashoffset:28.2467"
       d="m 57.054216,27.385843 c 0,0 0.721838,-0.669336 0.667511,-0.365863 -0.05432,0.303471 0.675674,3.171073 0.675674,3.171073 l 0.561535,1.103552 -0.491901,-0.03026 z"
       id="path5782" /><path
       style="fill:#ffffff;stroke-width:0.215797;stroke-linejoin:bevel;stroke-dashoffset:28.2467"
       d="m 49.41231,20.054599 7.268991,-5.969896 0.384595,0.539781 c 0,0 1.707166,-0.127894 1.68412,8.43e-4 -0.02308,0.128764 -6.707062,5.72586 -6.707062,5.72586 z"
       id="path5784" /><path
       style="fill:#ffffff;stroke-width:0.215797;stroke-linejoin:bevel;stroke-dashoffset:28.2467"
       d="m 52.722737,20.947959 c 0,0 7.021774,-5.67452 7.031852,-5.57571 0.01006,0.09882 0.772329,2.095989 0.772329,2.095989 l -7.078566,5.629921 -0.09596,-0.704704 c 0,0 0.09697,-0.231538 0.06737,-0.324708 -0.0296,-0.09317 -0.06985,-0.488451 -0.06985,-0.488451 l -0.33009,0.03447 z"
       id="path5786" /><path
       style="fill:#ffffff;stroke-width:0.215797;stroke-linejoin:bevel;stroke-dashoffset:28.2467"
       d="m 62.735197,7.7860569 0.662693,0.75775 0.237753,0.938297 c 0,0 0.08387,1.2130371 -0.0148,1.4717871 -0.09867,0.258761 -0.220674,1.013449 -0.220674,1.013449 l 2.869893,-2.0680021 0.456649,-0.650125 0.533586,-0.78749 0.0057,-0.836122 -0.0092,-0.313854 -0.218476,-0.97265 -0.284592,-0.895965 -0.142297,-0.447987 z"
       id="path5788" /><path
       style="fill:#ffffff;stroke-width:0.215797;stroke-linejoin:bevel;stroke-dashoffset:28.2467"
       d="m 60.071354,11.261924 c 0.193231,-0.05593 1.990791,-1.3243721 1.990791,-1.3243721 l 0.469293,-0.135837 c 0,0 0.249331,0.2155801 0.299551,0.3736871 0.05023,0.158115 0.0018,0.574981 -0.213185,0.752307 -0.214969,0.177318 -0.570462,0.481632 -0.570462,0.481632 0,0 0.897794,0.833579 1.019077,0.740926 0.121282,-0.09265 0.341958,-1.106093 0.341958,-1.106093 l 0.06252,-1.2266371 -0.194291,-1.181077 -0.706158,-0.514977 -0.229201,0.03761 -2.76767,2.9592061 z"
       id="path5790" /><path
       style="fill:#ffffff;stroke-width:0.215797;stroke-linejoin:bevel;stroke-dashoffset:28.2467"
       d="m 63.635903,13.231469 3.179108,-2.405506 0.393421,0.23202 -0.818852,2.45482 -0.567336,-0.242727 -0.412807,0.445041 0.550199,0.390103 -1.735897,1.580837 z"
       id="path5792" /><path
       style="fill:#ffffff;stroke-width:0.215797;stroke-linejoin:bevel;stroke-dashoffset:28.2467"
       d="m 65.844279,14.077573 0.42579,-0.672611 0.131305,0.145116 -0.685467,0.727425 z"
       id="path5794" /><path
       style="fill:#ffffff;stroke-width:0.215797;stroke-linejoin:bevel;stroke-dashoffset:28.2467"
       d="m 63.413891,12.196998 2.818938,-1.996049 0.330703,0.168787 c 0,0 0.20766,0.184053 0.07517,0.303789 -0.132469,0.119774 -3.042472,2.365957 -3.042472,2.365957 l -0.310677,-0.642555 z"
       id="path5796" /><path
       style="fill:#ffffff;stroke-width:0.215797;stroke-linejoin:bevel;stroke-dashoffset:28.2467"
       d="m 66.345791,10.086866 0.619343,0.0039 0.409409,0.349468 c 0,0 0.05327,0.167703 0.07694,0.242237 0.02369,0.07457 -0.121779,0.421841 -0.121779,0.421841 z"
       id="path5798" /></g></svg>
