<?xml version="1.0" encoding="UTF-8" standalone="no"?>
<!-- Created with Inkscape (http://www.inkscape.org/) -->

<svg
   width="256"
   height="256"
   viewBox="0 0 67.733332 67.733333"
   version="1.1"
   id="svg5"
   xml:space="preserve"
   inkscape:version="1.2.1 (9c6d41e410, 2022-07-14)"
   sodipodi:docname="GNRifleLight.svg"
   xmlns:inkscape="http://www.inkscape.org/namespaces/inkscape"
   xmlns:sodipodi="http://sodipodi.sourceforge.net/DTD/sodipodi-0.dtd"
   xmlns="http://www.w3.org/2000/svg"
   xmlns:svg="http://www.w3.org/2000/svg"><sodipodi:namedview
     id="namedview7"
     pagecolor="#ffffff"
     bordercolor="#000000"
     borderopacity="0.25"
     inkscape:showpageshadow="2"
     inkscape:pageopacity="0.0"
     inkscape:pagecheckerboard="0"
     inkscape:deskcolor="#d1d1d1"
     inkscape:document-units="mm"
     showgrid="false"
     showguides="true"
     inkscape:zoom="3.659624"
     inkscape:cx="526.4202"
     inkscape:cy="147.00964"
     inkscape:window-width="5120"
     inkscape:window-height="1377"
     inkscape:window-x="-8"
     inkscape:window-y="-8"
     inkscape:window-maximized="1"
     inkscape:current-layer="svg5"><sodipodi:guide
       position="73.671615,68.817802"
       orientation="0,-1"
       id="guide2129"
       inkscape:locked="false" /></sodipodi:namedview><defs
     id="defs2" /><path
     style="display:inline;opacity:1;fill:#ffffff;stroke:#000000;stroke-width:0.293649;stroke-linejoin:bevel;stroke-opacity:1"
     d="M 57.308644,0.13180743 51.731515,5.5878824 48.718581,4.8004075 46.859539,6.4878536 45.673598,6.0941158 l -6.08997,6.1873012 -0.352576,0.8156 0.03205,1.659322 0.608997,2.784284 -4.198873,4.893594 -4.936082,5.034214 -1.185941,1.124964 -2.147516,2.953028 -8.49865,8.355893 -6.391394,6.323987 -7.7059376,7.278547 -0.4986196,0.994336 0.7705937,1.551164 -3.6716519,3.380748 -0.2719745,0.835244 -0.81592258,0.795469 -0.0453287,0.238639 0.0906584,0.477284 0.13598724,0.35796 0.22664511,0.477281 0.40796123,0.596601 0.6346067,0.397735 0.6346066,0.437509 -0.090658,0.198867 -0.135987,0.477281 0.090658,0.477284 0.9519098,1.232976 0.8159228,0.477285 1.2238842,0.198867 0.6799352,-0.238643 5.0315239,-4.45463 0.997239,0.477281 0.589277,0.238642 1.495859,-0.676148 1.767831,-2.068222 5.620801,-5.60806 6.028763,-6.323982 4.26093,-3.897803 2.629084,-1.312525 18.040959,-17.221916 7.026,3.500066 7.026002,-6.801265 -6.980672,-3.53984 -1.677175,-0.477281 8.748504,-9.108127 0.634606,-1.6307128 -4.124946,-5.8467016 -1.26921,-0.3579611 -0.453293,0.3181877 -2.629083,-1.11365727 0.135987,-0.31818799 z"
     id="path3606" /><g
     inkscape:groupmode="layer"
     id="layer3"
     inkscape:label="Layer 1"
     style="display:inline" /><g
     inkscape:groupmode="layer"
     id="layer4"
     inkscape:label="Layer 2"
     style="fill:#000000;stroke:#000000"><path
       style="opacity:1;fill:#000000;stroke:none;stroke-width:0.404012;stroke-linejoin:bevel;stroke-opacity:1"
       d="m 55.304258,22.998589 -0.181318,-0.795469 0.407963,-0.795469 0.49862,-0.397736 3.30902,2.545504 -1.541189,1.312524 z"
       id="path3663" /><path
       style="opacity:1;fill:#000000;stroke:none;stroke-width:0.404012;stroke-linejoin:bevel;stroke-opacity:1"
       d="m 40.300345,13.612048 0.407963,3.340973 0.135987,0.318187 1.541185,0.397735 -0.04533,-0.835242 -0.362632,-2.426183 z"
       id="path3665" /><path
       style="opacity:1;fill:#000000;stroke:none;stroke-width:0.404012;stroke-linejoin:bevel;stroke-opacity:1"
       d="m 42.974758,16.992795 4.895539,-4.573951 0.181314,0.79547 -5.122179,4.414856 z"
       id="path3667" /><path
       style="opacity:1;fill:#000000;stroke:none;stroke-width:0.404012;stroke-linejoin:bevel;stroke-opacity:1"
       d="m 47.88522,6.6425355 1.217994,-1.2163668 2.924787,0.4710787 1.939173,-1.5538564 0.584957,0.035155 3.557824,-3.43113992 0.833365,-0.16874445 0.04808,0.0984341 0.136222,0.0773413 -0.841379,0.15468247 -3.541795,3.3959849 -0.617012,0.021094 -1.915135,1.5819804 -2.916777,-0.4781093 -1.306136,1.2023054 -0.22437,-0.154683 z"
       id="path3673" /><path
       style="opacity:1;fill:none;stroke:#000000;stroke-width:0.404012;stroke-linejoin:bevel;stroke-opacity:1"
       d="m 48.910898,12.618906 5.416868,-5.2310813 1.506465,0.309365 -7.179753,6.8341553 z"
       id="path3675" /><path
       style="opacity:1;fill:none;stroke:#000000;stroke-width:0.293649;stroke-linejoin:bevel;stroke-opacity:1"
       d="m 55.802179,7.7253136 1.57057,-1.0405917 0.929523,-1.0405917 -0.416683,-0.4218616 3.333458,-3.0655263 -3.28538,3.0514648 0.456748,0.464047 -0.937533,1.0898088 -1.522492,1.0616849 z"
       id="path3677" /><path
       style="opacity:1;fill:#000000;fill-opacity:1;stroke:none;stroke-width:0.293649;stroke-linejoin:bevel;stroke-opacity:1"
       d="m 11.44841,55.304597 0.883918,-0.944618 2.901059,-2.804031 0.521283,0.288359 -0.226644,0.517055 -3.762312,3.529896 -0.328636,-0.31819 z"
       id="path3679" /><path
       style="opacity:1;fill:#000000;fill-opacity:1;stroke:none;stroke-width:0.293649;stroke-linejoin:bevel;stroke-opacity:1"
       d="m 15.992648,50.969287 3.830303,-3.8978 c 0,0 0.453291,0.198867 0.464623,0.298303 0.01128,0.09943 -0.158651,0.536942 -0.158651,0.536942 l -3.705649,3.470235 -0.475954,-0.248583 z"
       id="path3681" /><path
       style="opacity:1;fill:none;fill-opacity:1;stroke:#000000;stroke-width:0.293649;stroke-linejoin:bevel;stroke-opacity:1"
       d="m 8.0034045,52.391192 2.8557285,-2.704599 1.518525,0.49717 -2.8783947,2.903463 z"
       id="path3683" /><ellipse
       style="opacity:1;fill:#000000;fill-opacity:1;stroke:#000000;stroke-width:0.234952;stroke-linejoin:bevel;stroke-opacity:1"
       id="path3737"
       cx="42.568081"
       cy="51.474533"
       rx="0.97357845"
       ry="0.54281104"
       transform="matrix(0.83042771,0.5571264,-0.65696622,0.75392001,0,0)" /><ellipse
       style="opacity:1;fill:#000000;fill-opacity:1;stroke:#000000;stroke-width:0.234952;stroke-linejoin:bevel;stroke-opacity:1"
       id="path3737-1"
       cx="46.476486"
       cy="53.189255"
       rx="0.97357845"
       ry="0.54281104"
       transform="matrix(0.83042771,0.5571264,-0.65696622,0.75392001,0,0)" /><path
       style="opacity:1;fill:#000000;fill-opacity:1;stroke:#000000;stroke-width:0.293649;stroke-linejoin:bevel;stroke-opacity:1"
       d="m 12.435185,56.801864 17.853226,-17.57756 0.544892,0.50623 -17.91733,17.49319 z"
       id="path3762" /><path
       style="opacity:1;fill:none;fill-opacity:1;stroke:#000000;stroke-width:0.293649;stroke-linejoin:bevel;stroke-opacity:1"
       d="m 22.724028,37.227491 1.730834,-1.743694 0.256418,-0.253116 -0.576943,-0.337489 2.948827,-3.00928 3.141143,1.378083 0.320525,0.393735 -3.141144,2.896783 -1.891095,1.687448 -0.576945,0.05624 z"
       id="path3764" /><path
       style="opacity:1;fill:#000000;fill-opacity:1;stroke:none;stroke-width:0.293649;stroke-linejoin:bevel;stroke-opacity:1"
       d="m 24.55102,35.483797 2.724458,1.406205 0.320525,-0.42186 -2.820617,-1.29371 z"
       id="path3766" /><path
       style="opacity:1;fill:#000000;fill-opacity:1;stroke:none;stroke-width:0.293649;stroke-linejoin:bevel;stroke-opacity:1"
       d="m 2.5630237,63.917261 c 0,0 1.153889,0.05624 1.2820989,0.02812 0.1282097,-0.02812 1.8269909,-1.265587 1.8269909,-1.265587 L 8.428626,60.092378 9.3260954,59.164284 8.909413,57.195596 7.3708944,56.070636 5.5439035,55.901889 h -0.544892 l -0.6731019,-1.462453 3.0129323,1.124964 1.698781,1.293707 1.2820981,2.081186 -0.03205,0.759347 -3.2052467,2.503045 -2.1475156,1.659324 -0.5769445,0.337489 -2.0193056,-0.08437 0.032052,-0.253117 z"
       id="path3770" /><path
       style="opacity:1;fill:none;fill-opacity:1;stroke:#000000;stroke-width:0.293649;stroke-linejoin:bevel;stroke-opacity:1"
       d="m 10.031249,59.867391 0.801312,0.646852 c 0,0 0.192315,0.337489 0.256419,0.478111 0.06411,0.140619 0.38463,1.237458 0.38463,1.237458 l 0.128211,0.449987 1.057731,0.449987 c 0,0 0.673102,-0.309365 0.512839,-0.393737 -0.160263,-0.08437 -0.705154,-1.293709 -0.705154,-1.293709 0,0 -0.576944,-0.618732 -0.705155,-0.703102 -0.128209,-0.08436 -1.474414,-1.91244 -1.474414,-1.91244 l -0.03205,0.843724 z"
       id="path3774" /><path
       style="opacity:1;fill:none;fill-opacity:1;stroke:#000000;stroke-width:0.293649;stroke-linejoin:bevel;stroke-opacity:1"
       d="m 34.135596,35.924971 -0.271975,-0.676149 -0.04533,-0.397737 2.266452,-2.704596 0.49862,-0.954562 0.634606,-1.431845 3.490337,-3.380748 2.221124,-2.107993 4.578232,-3.818253 1.677173,-1.750034 1.269214,0.159093 2.991717,-2.983011 -0.453291,-1.590939 1.450528,-1.750033 c 0,0 1.269214,1.034111 1.631846,0.79547 0.362633,-0.23864 3.037048,-2.426182 3.037048,-2.426182 l 1.35987,3.261425 c 0,0 -2.039806,2.147768 -2.085137,2.306862 -0.04533,0.159094 -0.589278,1.312525 -0.589278,1.312525 l -0.634605,0.517055 0.589278,1.471619 -1.631846,1.15343 -0.90658,-0.517054 -3.263692,3.539839 -10.788311,11.494537 c 0,0 -1.042568,0.755694 -1.223883,0.755694 -0.181317,0 -0.453294,-0.596601 -0.453294,-0.596601 l -3.58099,3.022784 z"
       id="path3776" /></g><path
     style="opacity:1;fill:#000000;fill-opacity:1;stroke:#000000;stroke-width:0.11746;stroke-linejoin:bevel;stroke-opacity:1"
     d="m 57.797354,24.788396 3.580995,2.704596 1.835828,-1.789805 -4.124947,-2.267089 -1.382533,1.272751 z"
     id="path3778" /></svg>
