<?xml version="1.0" encoding="UTF-8"?>
<svg id="svg1282" xmlns="http://www.w3.org/2000/svg" width="82.77" height="102.57" viewBox="0 0 82.77 102.57">
  <defs>
    <style>
      .cls-1 {
        fill: #fff;
        stroke: #000;
        stroke-width: .36px;
      }
    </style>
  </defs>
  <g id="layer1">
    <g id="g1941">
      <path id="path1288" class="cls-1" d="m29.06,63.78l16.79-21.82.36-.33h1.27s1.59.61,1.59.61l.97,1.35.14,1.21-2.75,3.78s.03-.44-.04-.55c-.07-.1-.09-.51-.26-.53-.17-.03-.47-.1-.47-.1l-.33-.19s2.3-2.95,2.26-3.05c-.04-.1-.29-.69-.42-.73-.12-.03-.59-.09-.69-.05-.09.05-2.65,3.44-2.65,3.44l.15.59s.34.42.55.29c.21-.14.74-.58.74-.58l.5.29-2.89,3.79-.39-.46.91-1.29-.52-.65-.34-.13s-2.71,3.2-2.69,3.34c.02.14.39.91.39.91,0,0,.31-.06.39-.09.08-.03.6-.71.77-.84.16-.13,1.11-1.34,1.11-1.34l.41.5.51.82,3.02-3.78.12.33-3.87,5.05-.32-.51s-.18-.31-.3-.29c-.12.01-.93.67-.93.67l-.76,1.07-.97,1.1-.54.79-.57-.35.94-1.1s.3-.45.2-.55c-.1-.11-.57-.72-.57-.72,0,0-.34-.05-.4,0-.07.05-2.83,3.73-2.83,3.73,0,0,.19.28.33.4.14.13.33.3.58.18.25-.12.73-.6.84-.73.11-.14.67-.87.67-.87l.3-.45.81.53.49.28,2.81-3.54.29.38-4.37,5.62s-.32-.36-.4-.51c-.08-.15-.29-.43-.29-.43l-2.99,3.6-.61-.37.78-1.19.08-.51-.61-.16-3.03,3.63.81.42,2-2.22.62.36.23.27.14.39.22.14,2.89-3.79.23.34-5.42,7.34-.86.81s-.13-.67-.11-.79c.02-.12-.14-.39-.17-.58-.03-.19-.17-.32-.33-.48-.16-.16-.67-.58-.67-.58,0,0-.61-.45-.69-.49-.08-.04-.77-.46-.77-.46l-.82-.13-.59-.04Z"/>
      <path id="path1290" class="cls-1" d="m16.37,81.54l12.35-16.01.48-.56,1.65.53s1.09,1.12,1.14,1.22c.04.1-.13,1.18-.16,1.31-.04.13-12.55,16.16-12.55,16.16l-.29-.54-.7-.99-.75-.47s-.74-.27-.89-.28c-.16,0-.43-.14-.43-.14l.16-.25Z"/>
      <path id="path1292" class="cls-1" d="m28.68,65s.49-.36.66-.33c.17.03.54.05.73.14s.81.56.95.73c.15.18,1.02.87,1.02.87,0,0,.28.86.28,1,0,.14-.09.73-.09.73l.35-.59s.21-.72.26-.81c.04-.09-.44-1.05-.65-1.36-.21-.31-1.15-.92-1.23-.96-.08-.04-1-.36-1-.36,0,0-.65.11-.75.19-.1.08-.54.32-.54.32l-.21.4.23.04Z"/>
      <path id="path1294" class="cls-1" d="m11.86,86.77l3.41-4.11.89-.72,1.35.69s.93.96.97,1.06c.04.1.21.6.25.67.05.07.05.22.07.37.02.14-3.12,4.6-3.12,4.6l-1.92-2.49-1.91-.07Z"/>
      <path id="path1296" class="cls-1" d="m.45,98.51l7.27-8.8,3.13-2.44,2.76-.28-2.46,4.53-5.13,6.53-5.79.53.23-.07Z"/>
      <path id="path1298" class="cls-1" d="m6.03,98.09s1.94,3.15,2.01,3.1c.07-.05,5.9-7.74,5.97-7.79.07-.05,1.81-3.34,1.77-3.44-.04-.1-1.92-2.41-1.92-2.41l-.61.03-2.89,4.86.76-.07.73,1.33-2.34,3.04s-1.24-1.19-1.06-1.34c.18-.14,2.49-2.97,2.49-2.97l.12-.12-.73.12-4.42,5.5.12.14Z"/>
      <path id="path1300" class="cls-1" d="m2.64,99.04l.59-.46s.68-.08.74-.02c.06.06.46.22.46.22.1.08.95.81.95.81l.45.92s.12.43.15.52c.03.08-.05.44-.05.44l-.23.33.05.41,1.81-.57.6-.6-2.08-3.1-5.84.6.27.87,1.97,2.97,3.1-.07.26-.25-.12-.17s.34-.69.21-.61c-.13.07-1.29.06-1.29.06,0,0-.66-.3-.78-.52-.12-.22-.7-1.14-.7-1.14l.18-.99-.69.35Z"/>
      <path id="path1302" class="cls-1" d="m3,99.71l.37-.71.87-.36.82.54-1.67-1.15s-1.17.76-1.07.91c.11.16.67.77.67.77Z"/>
      <path id="path1304" class="cls-1" d="m47.36,41.26c.26-.21.64-.73.72-.64.09.09,1.43.18,1.43.18l1.04-.84,1.32,1.61-.22,1.68-1.1.91-.49-1.17s-1.11-.96-1.18-1.06c-.07-.1-.82-.54-.82-.54l-.58-.1h-.13Z"/>
      <path id="path1306" class="cls-1" d="m46.74,41.27c.19-.12,1.14-.84,1.14-.84l1.17.17,1.26-.74.62.13,1.11,1.64s-.02.49-.04.64c-.02.15-.2.89-.2.89l1.77-.03-2.84-4.61-1.18-.14,2.02-2.81-4.32.58-2.13,3.27,1.24,2.01.49-.28-.11.14Z"/>
      <path id="path1308" class="cls-1" d="m53.34,42.22l10.07-12.91-.88-1.29.62-.75,1.09.68,1.35-1.61.16-1.68,3.07-4.08-.41-3.71s-1.93-.24-1.99-.08c-.07.16-1.36,1.96-1.36,1.96l-.1,1.16-.96.74-.58.03-1.62,2.14-.47,2.34-2.46,3.05,1.12,2.05-5.42,6.44s-1.54-1.15-1.52-1.27-.48-.89-.48-.89l-1.21,1.18-1.81,2.68,1.18.18,2.36,3.91.24-.27Z"/>
      <path id="path1310" class="cls-1" d="m48.91,35.86c.1-.08,3.76-4.7,3.94-4.84.18-.14,1.05-.9,1.05-.9,0,0,.24.05.38.07.14.02.9-.2,1.01-.29s2.81-4.14,2.81-4.14c0,0-.2-1.08-.15-1.15.05-.07,1.68-4.13,1.98-4.24.31-.11,2.98-.92,2.98-.92l.88.48-2.02,2.63-.66,2.52s-2.18,2.99-2.24,3.04c-.07.05-.86.07-.86.07l-.46.65.4.88-4.54,5.62-.65-.99-1.16,1.04-2.67.48Z"/>
      <path id="path1312" class="cls-1" d="m53.68,35.39l4.43-5.49-.27-1.24.2-.29,1.53,2.02h-.56s-4.57,5.64-4.57,5.64l-.76-.64Z"/>
      <path id="path1314" class="cls-1" d="m63.45,16.7l1.95-.99,1.11.08,1.89-2.53,2.08-.2,4.5-5.38.94.19,1.38,3.99-2.46,3.02-.48,2.77s-3.56,4.78-3.62,4.83c-.07.05-1.2-.02-1.2-.02l-3.51,4.48-.11-1.34,2.98-3.36-.53-.82.7-.94-.11-4.08s-2.61-.02-2.68.06c-.07.08-1.54,2.07-1.54,2.07l-1.3-1.83Z"/>
      <path id="path1316" class="cls-1" d="m48.77,23.8c.09-.2,3.68-4.59,3.85-4.61.16-.02,3.83-2.38,3.83-2.38l.93-1.38.72-1.61s3.64-3.68,3.8-3.78c.16-.1,1.46-.08,1.46-.08,0,0,1.03.85,1.11.9.08.04.33.67.4.88.07.21-.14,1.09-.14,1.09,0,0-.82,1.32-.94,1.5-.13.18-.94,1.21-.94,1.21,0,0-1.56,1.34-1.56,1.45,0,.11-.7,1.6-.7,1.6l-.81.95-.49.72s-1.01,2.63-1.06,2.78-1.15,2.53-1.15,2.53l-2.71,3.43-1.17,1.57s-1.09.43-1.19.43c-.1,0-1.09-.2-1.09-.2l-2.51-1.55s-.66-1.83-.68-1.92-.02-1.62-.02-1.62c0,0,.48-1.19.57-1.34.1-.15.52-.57.52-.57h0Z"/>
      <path id="path1318" class="cls-1" d="m61.47,16.84l2.69,3.14s.68-.74.62-.83c-.06-.09-.72-1.1-.72-1.1l-.46.28-.2-.11.63-.49-1.35-2.03-1.2,1.12Z"/>
      <path id="path1320" class="cls-1" d="m67.37,13.29l3.08-1.15,4.78-5.33s2.95,1.87,2.82,1.77c-.13-.11-.62-1.07-.62-1.07,0,0,.84-.34.9-.38s.42-.07.58.07c.16.13.48.6.62.56.14-.03.93-.62.93-.62l2.05-2.57-5.11-4.21-7.19,8.77-3.16,1.09.14,3.08h.17Z"/>
      <path id="path1322" class="cls-1" d="m67.09,10.03c.32-.42,7.49-9.29,7.49-9.29l2.49-.47-6.83,8.59-3.16,1.18Z"/>
      <path id="path1324" class="cls-1" d="m60.31,36.25l1.78-.6,3.54-3.65,1.88-1.28,1.4-1.31,3.96-2s4.84-1.22,4.91-1.27c.07-.05,2.01-3.01,2.01-3.01l-1-.69-6.25,1.79s-1.38,1.05-1.44,1.1c-.07.05-3.57.83-3.57.83l-1.59,2.11-6.46,7.25.84.75Z"/>
      <path id="path1326" class="cls-1" d="m72.79,23.76l.27-1.5s1.42-1.32,1.55-1.16c.13.16,1.7,1.84,1.58,1.88s-3.29,1.06-3.29,1.06l-.11-.28Z"/>
      <path id="path1328" class="cls-1" d="m74.61,27.21l2.04,2.92,1.14-.47,1.45-2.05-.94-1.79-.72.57-2.96.83Z"/>
      <path id="path1330" class="cls-1" d="m67.89,25.89c.12-.01,2.12-.33,2.35-.51.23-.18,1.06-.74,1.06-.74l.96-.85s.39-1.12.41-1.24c.02-.12.19-.65.19-.65l1.39-1.22-.62-1.68-2.78,3.4-1.26.51-2.53,3.1.83-.12Z"/>
      <path id="path1332" class="cls-1" d="m52.75,43.62s1.01-.26,1.07-.36c.06-.1,1.76-2.3,1.85-2.58s10.25-13.27,10.25-13.27c0,0-.41-.57-.5-.51-.08.06-12.1,15.48-12.1,15.48l.32.7-1.01.37.12.17Z"/>
      <path id="path1334" class="cls-1" d="m71.42,28.75l-11.36,14.98-.59-.09s.12-.41.37-.68,3.32-4.54,3.26-4.62c-.06-.09-1.52-1.64-1.52-1.64l-4.5,6.46.02,2.78s-1.14.99-1.05.82c.08-.17.26-2.58.16-2.58-.1,0-1.37-1.23-1.37-1.23l-.48-.37,1.55-2.24.88,1.11,4.18-5.16,1.24-.33s6.67-6.23,6.76-6.3c.08-.06,2.45-.91,2.45-.91h0Z"/>
      <path id="path1336" class="cls-1" d="m65.24,37l2.07-.77,3.54-4.66-.76-1.2,1.37-1.73,1.16,1.97-4.19,6.06-1.23.83-2.83.47.81-1.08.07.1Z"/>
      <path id="path1338" class="cls-1" d="m57.41,45.5l.07-2.56,4.25-5.64.91,1.03-3.37,4.68.22.96-2.09,1.52Z"/>
      <path id="path1340" class="cls-1" d="m47.75,54.12c.13-.07,3.19-4.49,3.19-4.49l.26-1.76s3.42-4.49,3.49-4.43c.06.06,1.31,3.22,1.31,3.22l-4.15,3.61-3.35,4.59s-.37.05-.42-.02c-.05-.07-.33-.71-.33-.71h0Z"/>
      <path id="path1342" class="cls-1" d="m41.03,57.62c.72-.61,10.05-13.19,10.05-13.19,0,0,3.75-1.31,3.6-1.2-.15.12-3.76,4.81-3.76,4.81l-.24,1.69-3.29,4.39.73,1.25-3.53,4.81s-1.72-1.16-1.76-1.26c-.04-.1-.89-1.23-.89-1.23l-.9-.06Z"/>
      <path id="path1344" class="cls-1" d="m38.2,61.43l.82.76s.76.57.84.53c.08-.03,1.52-.84,1.52-.84l1.31.96s.41.16.61.05c.2-.11,1.01-.52,1.04-.62.03-.1.37-1.61.37-1.61,0,0-.29-.57-.55-.65-.26-.09-1.37-.91-1.37-.91,0,0-.58-.78-.71-.9-.13-.11-.17-.47-.55-.36-.38.11-1.05.31-1.05.31l-2.28,3.28Z"/>
      <path id="path1346" class="cls-1" d="m28.52,75.54s9.51-12.95,9.74-13.06c.23-.1.98-.05.98-.05l.44.39s-9.28,12.77-9.4,12.86-.39.2-.51.21c-.12.01-.45-.1-.56-.09-.12.01-.46-.16-.56-.2-.1-.03-.13-.08-.13-.08Z"/>
      <path id="path1348" class="cls-1" d="m30.57,75.71s1.07.54,1.12.6c.05.07.68,1.08.68,1.08l10.6-14.06s-.22-.28-.37-.47c-.16-.19-1.13-.81-1.22-.79-.09.02.05-.3-.41.06s-10.36,13.45-10.39,13.59Z"/>
      <path id="path1350" class="cls-1" d="m27.82,76.14c-.23.44-1.01,1.45-1.08,1.6-.07.16-.44.58-.51.66-.07.08-.56.62-.66.73-.1.11-.27.64-.33.7-.05.07-.26,1.25-.13,1.37.13.11.35.59.59.72.24.13.66.64.75.63.09-.02.63-.26.85-.42s.24-.06.34-.32c.1-.26.02-.97-.14-1.24-.16-.27-.33-1.01-.15-1.33s-.02-.33.33-.66.42-.35.8-.75c.38-.4.95-1.35,1-1.46s.49.01.05-.12-1.72-.11-1.72-.11Z"/>
      <path id="path1352" class="cls-1" d="m27.56,82.01l.17-.82s.29-.09.49-.02c.2.08.58.44.79.28.21-.17.19-.12.39-.36s.25-.3.32-.35c.07-.05.14.1.47-.39.32-.49.38-.56.44-.66s.53-.7.58-.85,1.25-1.24.94-1.39c-.31-.16-1.09-1.31-1.09-1.31,0,0-.1-.45-.53-.11-.43.33-1.03.83-1.13.93-.1.11-.72.53-.88.82-.16.28-1.03,1.01-1.03,1.01l-.37.9s.19.69.24.76c.05.07.22.59.22.59l-.02.97Z"/>
    </g>
  </g>
</svg>