<?xml version="1.0" encoding="UTF-8" standalone="no"?>
<!-- Created with Inkscape (http://www.inkscape.org/) -->

<svg
   version="1.1"
   id="svg182"
   width="546.1333"
   height="546.1333"
   viewBox="0 0 546.1333 546.1333"
   sodipodi:docname="heat_748967.png.2023_07_25_16_50_04.0.svg"
   xmlns:inkscape="http://www.inkscape.org/namespaces/inkscape"
   xmlns:sodipodi="http://sodipodi.sourceforge.net/DTD/sodipodi-0.dtd"
   xmlns="http://www.w3.org/2000/svg"
   xmlns:svg="http://www.w3.org/2000/svg">
  <defs
     id="defs186" />
  <sodipodi:namedview
     id="namedview184"
     pagecolor="#505050"
     bordercolor="#ffffff"
     borderopacity="1"
     inkscape:showpageshadow="0"
     inkscape:pageopacity="0"
     inkscape:pagecheckerboard="1"
     inkscape:deskcolor="#505050"
     showgrid="false" />
  <g
     inkscape:groupmode="layer"
     inkscape:label="Image"
     id="g188">
    <path
       style="fill:#ffffff;stroke:#000000;stroke-width:0.757764;stroke-linejoin:bevel;stroke-dashoffset:28.2467"
       d="m 185.91177,289.86703 c -4.76838,-3.49452 -4.90972,-11.47261 -0.27956,-15.77922 4.75211,-4.42003 11.15772,-12.45825 12.35387,-15.5025 0.72844,-1.85395 1.72334,-4.29976 2.21088,-5.43517 1.13391,-2.6407 1.16593,-18.87383 0.0426,-21.61379 -0.46409,-1.13199 -1.21618,-3.02329 -1.67132,-4.20286 -2.74244,-7.10764 -5.92615,-12.28636 -14.76704,-24.02059 -8.13998,-10.80393 -12.36131,-18.3956 -16.9342,-30.45464 -1.45248,-3.83028 -2.46623,-11.5608 -2.41875,-18.44437 0.0528,-7.65722 1.35641,-17.01843 2.5625,-18.40148 0.39087,-0.44824 0.71141,-1.41335 0.71229,-2.14469 0.005,-3.79365 8.73775,-18.817 15.07774,-25.93771 6.963,-7.82043 15.65859,-4.77307 15.65859,5.48756 0,3.72247 -0.34972,4.53286 -3.89742,9.0313 -2.14357,2.71803 -4.33623,5.45173 -4.87256,6.07489 -1.75175,2.03537 -4.76272,8.48764 -6.34398,13.59465 -1.12178,3.62307 -1.52913,6.94424 -1.47643,12.03777 0.13738,13.27833 4.49833,23.08539 17.46886,39.28467 7.3326,9.15787 13.89465,21.43258 17.20177,32.17687 2.32113,7.54098 2.5476,25.51967 0.40523,32.17042 -3.14717,9.77009 -6.1899,15.40102 -12.32654,22.81179 -8.94187,10.79842 -13.5214,13.06709 -18.70659,9.2671 z"
       id="path315" />
    <path
       style="fill:#ffffff;stroke:#000000;stroke-width:0.757764;stroke-linejoin:bevel;stroke-dashoffset:28.2467"
       d="m 257.12668,289.86189 c -2.82155,-2.0677 -3.90676,-5.67007 -3.14698,-10.44635 0.28444,-1.78807 0.64435,-3.34449 0.79982,-3.45869 0.15546,-0.11421 2.24591,-2.08186 4.64545,-4.37254 6.3456,-6.05775 12.50558,-16.43976 12.50558,-21.07687 0,-0.90545 0.39149,-2.6295 0.86998,-3.83118 1.06019,-2.66261 -0.30809,-12.57126 -2.53369,-18.34834 -1.42198,-3.69105 -7.09722,-14.75348 -7.99203,-15.57836 -0.25591,-0.23592 -2.31746,-2.93823 -4.58124,-6.00514 -2.26376,-3.06691 -4.88925,-6.54131 -5.83442,-7.7209 -0.94518,-1.17958 -2.97273,-4.26532 -4.50567,-6.85719 -1.53295,-2.59187 -3.20889,-5.22526 -3.72431,-5.85196 -0.51542,-0.62669 -0.93713,-1.69094 -0.93713,-2.36499 0,-0.67404 -0.33737,-1.22553 -0.74971,-1.22553 -0.41234,0 -0.7497,-0.42422 -0.7497,-0.94269 0,-0.5185 -0.46496,-2.15918 -1.03324,-3.64599 -3.59498,-9.40558 -3.83984,-10.97831 -3.83984,-24.66214 0,-8.69844 0.2976,-13.8013 0.85055,-14.58393 0.46781,-0.6621 1.08603,-2.46381 1.37383,-4.00378 1.79152,-9.58625 15.14474,-29.12154 21.21733,-31.04019 3.49766,-1.10509 7.15236,0.6546 9.15125,4.40621 2.82867,5.30901 2.12677,7.62445 -5.0217,16.56577 -2.86202,3.57979 -5.91676,8.60373 -7.56355,12.43922 -2.54542,5.92847 -2.78272,7.12672 -3.01969,15.24811 -0.20133,6.90012 0.0403,9.78749 1.11295,13.29709 2.04247,6.68298 6.98037,15.54181 13.53905,24.28969 7.9479,10.60082 10.85387,14.73909 12.42239,17.69015 2.42292,4.55861 5.79299,12.06007 5.79299,12.89467 0,0.45206 0.47791,2.03841 1.06203,3.52522 0.58411,1.48681 1.61485,6.28505 2.29053,10.66277 1.12781,7.307 1.1312,8.57282 0.0415,15.4418 -0.6529,4.11527 -1.49653,8.2544 -1.87476,9.19807 -0.37822,0.94366 -1.41995,3.62653 -2.31494,5.96193 -2.05602,5.36498 -6.16324,11.65982 -11.31069,17.33509 -8.08786,8.91722 -12.11729,10.59658 -16.94188,7.06097 z"
       id="path317" />
    <path
       style="fill:#ffffff;stroke:#000000;stroke-width:0.757764;stroke-linejoin:bevel;stroke-dashoffset:28.2467"
       d="m 328.8193,290.38484 c -2.68391,-1.669 -4.67468,-6.6888 -4.08329,-10.29611 0.35038,-2.13715 1.95302,-4.37931 6.47581,-9.05992 7.00796,-7.25251 10.71669,-13.88626 12.48984,-22.34036 1.16237,-5.54206 1.15446,-6.25303 -0.13952,-12.53373 -1.29723,-6.29651 -3.37417,-11.58864 -7.41928,-18.90462 -1.58226,-2.86168 -11.18686,-16.27458 -12.43723,-17.3687 -0.2696,-0.23592 -2.0962,-2.84101 -4.05909,-5.78911 -4.50333,-6.7636 -9.15302,-17.34053 -11.02969,-25.08986 -1.82455,-7.53407 -1.95497,-21.2526 -0.27274,-28.68724 1.43146,-6.32642 7.09266,-19.65872 9.8967,-23.30708 1.12516,-1.46395 3.13987,-4.12883 4.47712,-5.92196 2.7632,-3.70521 6.46676,-6.7641 9.11976,-7.53233 4.07914,-1.18119 9.8054,4.37655 9.81266,9.52387 0.005,2.904 -1.19513,5.07018 -6.33307,11.43936 -4.56508,5.65907 -9.40794,14.78452 -9.40794,17.72751 0,0.84241 -0.38522,1.97245 -0.85604,2.5112 -1.03071,1.17944 -1.0379,17.0728 -0.008,18.53914 0.3802,0.54152 0.93792,2.30279 1.23937,3.91393 0.87819,4.69348 7.83967,16.76925 13.86945,24.05871 9.21618,11.14155 16.91588,25.63766 19.61229,36.92382 1.1918,4.98839 1.1918,23.32158 0,28.30997 -2.78658,11.66353 -11.73514,25.48894 -21.21169,32.77179 -3.44511,2.64759 -6.67251,3.01616 -9.73504,1.11172 z"
       id="path319" />
    <path
       style="fill:#ffffff;stroke:#000000;stroke-width:0.757764;stroke-linejoin:bevel;stroke-dashoffset:28.2467"
       d="m 161.72384,434.08197 c -0.61851,-0.45737 -2.15475,-0.83751 -3.4139,-0.84473 -1.25914,-0.006 -3.95807,-0.96572 -5.99764,-2.12997 -10.17327,-5.8073 -15.76065,-18.82461 -13.26803,-30.91146 2.55304,-12.37989 10.04261,-20.29995 20.69439,-21.8839 3.05306,-0.454 47.77836,-0.81034 103.94512,-0.82814 65.75854,-0.0209 99.51949,-0.32785 101.38885,-0.92191 3.44327,-1.09424 4.46761,-3.12337 4.17224,-8.26486 -0.18283,-3.18266 -0.64265,-4.31293 -2.34388,-5.76148 l -2.11644,-1.80207 -104.34175,-0.42894 -104.34175,-0.42895 -3.74852,-2.30251 c -10.42775,-6.40518 -15.82915,-19.05989 -13.29772,-31.15471 1.66826,-7.97072 5.29457,-13.81714 11.37867,-18.34496 l 4.16816,-3.10198 134.0745,-0.226 134.07449,-0.22602 2.09365,2.56464 c 2.85907,3.50225 3.25639,6.53814 1.42981,10.92506 -2.79359,6.70947 7.00979,6.26457 -138.03812,6.26457 -126.82528,0 -128.55444,0.0224 -130.23558,1.69087 -1.13071,1.12216 -1.83113,2.9839 -2.08244,5.53524 -0.3376,3.4273 -0.13079,4.12803 1.90623,6.45897 l 2.28491,2.6146 H 261.9692 c 112.20386,0 106.82175,-0.24877 114.3589,5.28566 5.54338,4.07043 8.52491,9.4063 9.98225,17.8647 2.43049,14.10656 -3.83309,26.81655 -15.79353,32.04805 -1.63461,0.71497 -30.75254,1.10216 -106.57351,1.4171 l -104.32439,0.43334 -1.94637,2.40336 c -2.60345,3.21476 -2.66209,8.13011 -0.13706,11.48931 l 1.80927,2.40701 131.07602,0.42893 c 100.56586,0.3291 131.44394,0.67044 132.65668,1.46644 2.33779,1.53448 4.18606,5.21586 4.2674,8.4998 0.0724,2.91937 -1.94056,6.96578 -4.01142,8.06398 -0.59781,0.31702 -1.84144,1.02246 -2.7636,1.56763 -2.16927,1.28243 -257.11452,1.41375 -258.846,0.13333 z"
       id="path321" />
    <rect
       style="fill:#ffffff;stroke:#000000;stroke-width:0.980511;stroke-linejoin:bevel;stroke-dashoffset:28.2467"
       id="rect487"
       width="374.52933"
       height="11.239382"
       x="89.257256"
       y="506.15991" />
    <rect
       style="fill:#ffffff;stroke:#000000;stroke-width:1.08768;stroke-linejoin:bevel;stroke-dashoffset:28.2467"
       id="rect487-8"
       width="447.24515"
       height="11.581882"
       x="165.81023"
       y="-322.80807"
       transform="matrix(0.35948143,0.93315224,-0.93867028,0.34481605,0,0)" />
    <rect
       style="fill:#ffffff;stroke:#000000;stroke-width:1.05768;stroke-linejoin:bevel;stroke-dashoffset:28.2467"
       id="rect487-8-8"
       width="438.81458"
       height="11.162214"
       x="-431.79221"
       y="158.89182"
       transform="rotate(-72.106018)" />
  </g>
</svg>
