<?xml version="1.0" encoding="utf-8"?>
<!-- Generator: Adobe Illustrator 27.7.0, SVG Export Plug-In . SVG Version: 6.00 Build 0)  -->
<svg version="1.1" id="Capa_1" xmlns="http://www.w3.org/2000/svg" xmlns:xlink="http://www.w3.org/1999/xlink" x="0px" y="0px"
	 viewBox="0 0 800 800" style="enable-background:new 0 0 800 800;" xml:space="preserve">
<style type="text/css">
	.st0{fill:#FFFFFF;}
</style>
<g id="SVGRepo_bgCarrier">
</g>
<g id="SVGRepo_tracerCarrier">
</g>
<g id="SVGRepo_iconCarrier">
	<path class="st0" d="M692.5,126.7l27.8-27.8c5.4-5.4,5.4-14.1,0-19.5s-14.1-5.4-19.5,0L673,107.2C535.3-21.3,323.4-36,169.6,72.4
		c-27.1-24.2-68.7-23.6-94.6,2.4c-26,26-26.6,67.6-2.4,94.6c-111.1,157.6-93,376.1,44.3,513.4c78,78,180.6,117.1,283.1,117.1
		S604.9,761,683,682.9C835.8,530.1,838.9,283.5,692.5,126.7z M94.4,94.4c7.8-7.8,18.2-12.1,29.3-12.1c11.1,0,21.5,4.3,29.3,12.1
		c1.1,1.1,1.9,2.3,2.9,3.5l0.8,1.1c4.6,6.1,7.2,13.2,8,20.4c0,0,0,0.1,0,0.1c0.2,2.3,0.3,4.7,0.1,7c0,0.2,0,0.4-0.1,0.6
		c-0.2,2.1-0.5,4.3-1,6.4c-0.1,0.5-0.3,1-0.4,1.5c-0.5,1.8-1.1,3.6-1.8,5.4c-0.4,0.9-1,1.8-1.4,2.7c-0.7,1.3-1.3,2.6-2.1,3.8
		c-1.4,2.1-3.1,4.2-5,6.1c-1.9,1.9-4,3.6-6.3,5.1c-0.2,0.1-0.3,0.2-0.5,0.3c-8.9,5.6-19.8,7.5-30.1,5.7c-0.3-0.1-0.6-0.1-0.8-0.2
		c-1.9-0.4-3.7-1-5.5-1.6c-1.1-0.4-2.2-0.8-3.3-1.3c-0.8-0.3-1.5-0.8-2.3-1.2c-1.8-1-3.5-1.9-5.2-3.2l-0.2-0.2
		c-1.5-1.1-3-2.2-4.4-3.5C78.3,136.8,78.3,110.5,94.4,94.4z M663.4,663.4c-145.3,145.3-381.8,145.3-527.2,0
		C8.6,535.8-8.4,332.7,94.5,186c2.9,1.4,6,2.4,9,3.4c0.5,0.2,1,0.3,1.6,0.5c3,0.8,6,1.5,9.1,1.9c0.6,0.1,1.1,0.1,1.7,0.2
		c2.6,0.3,5.2,0.8,7.8,0.8c6.7,0,13.1-1.2,19.3-3.1c1.3-0.4,2.6-0.7,3.9-1.2c2.2-0.8,4.3-1.6,6.3-2.6c1.9-0.9,3.7-1.9,5.5-2.9
		c1.5-0.9,3.1-1.7,4.5-2.8c3.3-2.3,6.5-4.8,9.4-7.7c3-3,5.6-6.3,7.9-9.7c0.9-1.3,1.6-2.6,2.4-3.9c1.2-2.1,2.4-4.2,3.4-6.4
		c0.8-1.8,1.6-3.5,2.2-5.4c0.6-1.7,1.1-3.4,1.5-5.2c2.3-8.4,3-17,2-25.5c-0.1-0.8-0.1-1.5-0.2-2.3c-0.4-2.9-1-5.7-1.8-8.5
		c-0.2-0.8-0.5-1.7-0.7-2.5c-0.9-2.9-1.9-5.6-3.2-8.4c0-0.1-0.1-0.2-0.1-0.2C328.9-5.8,525.2,8.1,653.3,126.9l-48.9,48.9
		C485.4,67.1,300.2,69.9,185.1,185c-118.4,118.4-118.4,311.1,0,429.5c59.2,59.2,137,88.8,214.8,88.8s155.6-29.6,214.8-88.8
		c47.8-47.8,77.9-110.6,86.2-177.7c11.3-3,22.1-8.7,31-17.5c26.9-26.9,26.9-70.7,0-97.6c-12.4-12.4-28.4-18.8-44.6-19.8
		c-13.4-39.5-34.9-76-63.1-106.8l48.9-48.9C808.6,292.2,805.5,521.3,663.4,663.4z M683,329.1c10.6,0,21.2,4,29.3,12.1
		c16.1,16.2,16.1,42.4,0,58.6c-6,6-13.4,9.7-21.2,11.3l-4,0.4c-6.2,0.6-12.2-0.1-17.8-2.1c-0.1,0-0.3-0.1-0.4-0.1
		c-2.5-0.9-4.9-2.1-7.2-3.5c-0.3-0.2-0.6-0.3-1-0.5c-2.5-1.6-4.8-3.4-7-5.6c-16.2-16.2-16.2-42.4,0-58.6c8.4-8.3,18.2-10.9,25-11.7
		l4-0.4C682.8,329.2,682.9,329.1,683,329.1z M659,306c-3.8,1.4-7.5,3.2-11.1,5.4c-0.7,0.4-1.5,0.7-2.3,1.2c-4,2.6-7.9,5.6-11.5,9.2
		c-26.9,26.9-26.9,70.7,0,97.6c3,3,6.3,5.6,9.7,8c1.3,0.9,2.7,1.7,4.1,2.5c2.1,1.2,4.2,2.4,6.4,3.4c1.9,0.9,3.8,1.6,5.7,2.3
		c1.7,0.6,3.4,1.1,5.1,1.5c2.4,0.6,4.8,1.2,7.2,1.6c0.2,0,0.4,0.1,0.6,0.1c-8.3,59.1-35.7,114.2-77.9,156.4
		c-107.7,107.7-282.8,107.7-390.5,0c-107.7-107.7-107.7-282.8,0-390.5c53.8-53.8,124.5-80.7,195.3-80.7c66.4,0,132.6,24,185,71.5
		l-58.6,58.6c-35.1-30.5-79.4-47.2-126.4-47.2c-51.7,0-100.2,20.1-136.7,56.5s-56.5,85-56.5,136.7s20.1,100.2,56.5,136.7
		s85,56.5,136.7,56.5s100.2-20.1,136.7-56.5c36.4-36.4,56.5-85,56.5-136.7c0-47-16.8-91.4-47.2-126.4l58.5-58.5
		c24,26.5,42.9,57.4,55,90.9C659.2,305.8,659.1,305.9,659,306z M390.1,409.6c2.7,2.7,6.2,4,9.8,4s7.1-1.4,9.8-4l116.7-116.7
		c25.3,29.8,39.1,67.2,39.1,106.9c0,44.3-17.2,85.9-48.4,117.1c-31.2,31.2-72.8,48.4-117.1,48.4s-85.9-17.2-117.1-48.4
		s-48.4-72.8-48.4-117.1s17.2-85.9,48.4-117.1s72.8-48.4,117.1-48.4c39.7,0,77.1,13.9,106.9,39.1L390.1,390.1
		C384.7,395.5,384.7,404.2,390.1,409.6z"/>
</g>
</svg>
