<?xml version="1.0" encoding="utf-8"?>
<!-- Generator: Adobe Illustrator 27.7.0, SVG Export Plug-In . SVG Version: 6.00 Build 0)  -->
<svg version="1.1" id="svg5" xmlns:svg="http://www.w3.org/2000/svg"
	 xmlns="http://www.w3.org/2000/svg" xmlns:xlink="http://www.w3.org/1999/xlink" x="0px" y="0px" viewBox="0 0 255 255"
	 style="enable-background:new 0 0 255 255;" xml:space="preserve">
<style type="text/css">
	.st0{fill:#FFFFFF;}
</style>
<g id="layer1">
</g>
<g id="layer2">
	<path id="path357" class="st0" d="M208.4,46.4l-20.1,3.1l-21.7,8.3l-23.3,17.9l-18.6,18.9l-11.2,12.7l-20.1,22.3L75,159.2L60.2,189
		L51,219.4l3.4,18.5l-5.1,6.1l-36.9-28.4l-2.7-17.4L13,180l6.9-19.6l8.7-20.5l10.1-19.6l12.8-17.9l28.9-33.9l20.8-21.2l14.1-12.1
		l22.6-17.7l19.5-9.6L178.2,4l10.5,2.7l31.5,25.4L208.4,46.4z"/>
	<path id="path359" class="st0" d="M208.8,46l11,6.7l4.5,8.8l0.7,12.3c0,0-0.9,4.5-0.7,6c0.2,1.6-6.7,23.8-6.7,23.8l-13.7,28.2
		l-31.6,43.8L145,205.2l-23.1,19L101.1,237l-23,5.2l-12.8-3.5l-8.1-9.2L51,217.6l-4,23.8l11.4,9.8l16.3,3.4c0,0,21.3-7.4,23.5-8.8
		c2.2-1.4,35.6-24.2,37.2-25.4c1.6-1.2,21.3-19,21.3-19l30.7-37.1l24-35.6l18.6-39l4.5-17.5l1.8-12.1L233,45l-15.2-14L208.8,46z"/>
</g>
<g id="layer3">
	<path id="path362" d="M154.1,22.5c1-0.1,26.2,6.8,26.2,6.8l-0.3,2.1l-2.9,0.3L151.8,24l0.4-2L154.1,22.5z"/>
	<path id="path418" d="M133.6,33.3c1.8,0.4,36.8,4.9,36.8,4.9l1.5,2.1l-1,1.7l-38.3-4.7l-0.4-4L133.6,33.3z"/>
	<path id="path420" d="M113.4,47.7c2.2,0.6,39.7,3,39.7,3l1.1,1.3l-0.4,2.5c0,0-0.6,0.8-1.7,0.6c-1.1-0.2-38.4-2.4-38.4-2.4
		s-2-1.5-2.5-2c-0.4-0.4,0.9-2.7,0.9-2.7L113.4,47.7z"/>
	<path id="path422" d="M97.4,67l32.7-2.3l4.5,0.8c0,0,1.3,0.4,1.5,1.4c0.1,1-1.5,2.6-1.5,2.6s0,0.9-2.2,1.4
		c-2.2,0.5-33.5,2.2-33.5,2.2l-3.5-0.5L94,69.3l2.2-2.1L97.4,67z"/>
	<path id="path424" d="M77.8,86.9c0.9-0.5,36.6-3.6,36.6-3.6s1.9,0.5,2.2,1.1c0.3,0.6-1.1,3.2-1.1,3.2l-1.7,1.7l-4.3,1.2l-5.8,0.8
		c0,0-23.4,2.9-24.2,2.8c-0.8-0.1-4.5-2.1-4.5-2.1s-0.2-3.1,0.2-3.6C75.8,87.9,77.8,86.9,77.8,86.9z"/>
	<path id="path426" d="M60.3,108.8c0.8-0.1,28.5-4.5,28.5-4.5s4-0.8,4.9-0.6c0.9,0.2,3.1,1.5,3.1,1.5l-0.1,2.3c0,0-2,2.5-3.4,3
		c-1.3,0.5-32.3,4.8-32.3,4.8l-2.7-3.1L60.3,108.8z"/>
	<path id="path428" d="M47.4,129.6c1.7-0.1,27.9-3.9,27.9-3.9s3.7,1.4,4.3,1.7c0.6,0.3,1.1,2.9,1.1,2.9s-2.7,2.3-3.4,2.5
		c-0.7,0.2-2.6,0.6-2.6,0.6l-24.8,4.3c0,0-1.3,0.3-2.3-1c-1-1.2-3.1-3.9-2.6-4.7C45.5,131.3,47.4,129.6,47.4,129.6L47.4,129.6z"/>
	<path id="path430" d="M34.8,151.7c2-0.3,26.5-4.9,26.5-4.9l3.7,2.7l0.1,4.1l-1.7,1.7l-21.8,3.7c0,0-3.1,1.4-3.7,0.9
		c-0.6-0.5-2.7-2.2-3.2-2.7c-0.6-0.5-0.8-3-0.8-3L34.8,151.7z"/>
	<path id="path432" d="M26.9,173.2l23-3.6l3.8,2.4l0.8,2.1l-1.6,2c0,0-3.6,1.9-4.5,2.1c-0.9,0.2-8.8,0.8-9.8,0.9
		c-1,0.1-6.4,0.5-7.5,0.5c-1.1,0-3.7-0.9-4.1-1.4c-0.4-0.4-0.7-2.9-0.7-2.9L26.9,173.2z"/>
	<path id="path434" d="M23,191.3c2.1,0.1,16.7-1.4,17.3-0.9c0.7,0.4,5.4,4.3,5.4,4.3l-2,2.1c0,0-5.8,2.1-7.8,2.2
		c-2,0-10.5-1.6-10.5-1.6l-3-4.1L23,191.3z"/>
	<path id="path436" d="M24.5,208.2l13.1,0.9c0,0,1.5,0.1,1.9,0.7c0.4,0.7-0.4,2.5-0.4,2.5l-6.6,0l-5.8-1l-2.7-2.6L24.5,208.2z"/>
	<path id="path438" class="st0" d="M210.8,51.6l-8.3-2.1l-8.2,1.1l-7,1.8l-6.9,2.6L165,62.8l-7.8,4.6l-7.6,6.5l-8.2,7.3l-8.2,8.1
		l-16.5,17.4l-15.6,16.7l-11.9,15.1l-9.8,17.1l-11.8,21.7l-5.5,13.5l-3.8,10l-3.6,10.9l-0.1,8.3l6.3,11.9l2.9,3.6l-5-11.8l0.6-10.5
		l2.6-10.2l4.3-12.9l6.4-14.7l14-26l8.3-12.9l4.4-6l26.7-29.7l11.6-12l15.4-14.6l18.6-12.3l9.4-4.1l16.6-4.5l8.8-0.7l3.4,1.7
		l3.8,3.7l2.6,4l2.6,6.8l0.5,6.1l-1.3,5.9l-1.4,6.5l-1,9.1l-4.2,10.3l-3.1,6.9l-14.9,26.8l-15.3,20.5l-8.9,12.1l-10.8,12.5
		L145.7,198L132,211.6l-8.2,6.3l-4.7,4l-9.3,4.5l-12.7,6.2l-14.2,4.6l-6.9,0.5l-8.5-1.5l-3.8-2l0,1.1l5.9,3.7l17.8,0.6l16.2-7.1
		l13.6-7.4l6.8-4.9l13.5-10.9l17.4-17.3l17.6-19.7l23.4-31.3l14-25.5l7.6-16.6l5.1-19.7l-1.7-17l-3.3-5.3l-5-4.2L210.8,51.6z"/>
	<path id="path440" class="st0" d="M182.1,59.3l11.6-2.9l10.4,0.2l8.7,3.9l3.1,4.3l0.3,10.4l-1.7,11.1l-1.4,9.3l-6.8,15.3l-5.9,12
		l-6.6,12.3l-10.6,16l-12.7,16.6L153.2,186l-10.4,10.5l-13.3,13.4l-13.1,9.7l-12.2,7.2l-11.9,4.8l-5.9,1.5l-22.7-19.9l1.8-12.1
		l9.1-4.5l11.4-7.4l10-8.1l15.8-14.1l15.7-16.1l10.5-12l7.5-9.2l9.1-12.4l9.4-15.9L175.3,81L182.1,59.3z"/>
	<path id="path442" class="st0" d="M59.9,211.1L87,234.6l-7.5,1.7l-6-0.7l-3.9-1.1l-5.6-4.1l-3.1-5.7c0,0-0.8-3.5-0.7-4.2
		C60.3,219.9,59.9,211.1,59.9,211.1L59.9,211.1z"/>
	<path id="path444" class="st0" d="M65.5,201.1l-3,0.5l-2.7,9.5l27,23.6l5.6-3L65.5,201.1z"/>
	<path id="path446" class="st0" d="M62.2,201.7c0,0-1,2.7-1,2.8c0.1,0.1,1.7,0.3,1.8,0.1c0.1-0.2,0-2.8,0-2.8L62.2,201.7z"/>
	<path id="path448" class="st0" d="M60.2,209.9c-0.1,0-0.7,1.2-0.7,1.2l15.2,13.7l-0.1-2.9l-14.5-12.1L60.2,209.9z"/>
</g>
</svg>
