<?xml version="1.0" encoding="utf-8"?>
<!-- Generator: Adobe Illustrator 27.7.0, SVG Export Plug-In . SVG Version: 6.00 Build 0)  -->
<svg version="1.1"
	 id="svg5" xmlns:inkscape="http://www.inkscape.org/namespaces/inkscape" xmlns:sodipodi="http://sodipodi.sourceforge.net/DTD/sodipodi-0.dtd" xmlns:svg="http://www.w3.org/2000/svg" sodipodi:docname="BeamKnife.svg"
	 xmlns="http://www.w3.org/2000/svg" xmlns:xlink="http://www.w3.org/1999/xlink" x="0px" y="0px" viewBox="0 0 195.3 250"
	 style="enable-background:new 0 0 195.3 250;" xml:space="preserve">
<style type="text/css">
	.st0{fill:#FFFFFF;}
	.st1{fill:#FFFFFF;stroke:#000000;stroke-miterlimit:10;}
	.st2{stroke:#FFFFFF;stroke-miterlimit:10;}
	.st3{fill:#D81E1E;}
	.st4{fill:#020000;stroke:#FFFFFF;stroke-miterlimit:10;}
	.st5{fill:#FFFFFF;stroke:#020000;stroke-miterlimit:10;}
	.st6{fill:#FFFFFF;stroke:#070000;stroke-miterlimit:10;}
</style>
<rect x="45.7" y="143.1" transform="matrix(0.3985 -0.9171 0.9171 0.3985 -46.6322 225.6963)" class="st0" width="206.1" height="10.6"/>
<rect x="-50.2" y="100.2" transform="matrix(0.3985 -0.9171 0.9171 0.3985 -67.4291 107.9083)" class="st0" width="197.6" height="10.3"/>
<rect x="0.7" y="211.8" transform="matrix(0.9171 0.3985 -0.3985 0.9171 91.3709 -5.9875)" class="st0" width="118.7" height="10"/>
<rect x="80.5" y="28.2" transform="matrix(0.9171 0.3985 -0.3985 0.9171 24.8313 -52.9806)" class="st0" width="118.7" height="10"/>
<rect x="12.4" y="80" transform="matrix(0.3985 -0.9171 0.9171 0.3985 -54.8078 167.356)" class="st1" width="175.6" height="91"/>
<rect x="18.5" y="114.3" transform="matrix(0.3985 -0.9171 0.9171 0.3985 -56.9521 168.7622)" class="st2" width="163.3" height="27"/>
<path class="st3" d="M57.6,176"/>
<rect x="-2.5" y="134.2" transform="matrix(0.7647 -0.6444 0.6444 0.7647 -79.102 60.9895)" class="st4" width="92.9" height="9.1"/>
<rect x="83.6" y="171.4" transform="matrix(6.123234e-17 -1 1 6.123234e-17 -45.9411 306.0589)" class="st4" width="92.9" height="9.1"/>
<rect x="24.9" y="162.6" transform="matrix(0.7647 -0.6444 0.6444 0.7647 -96.2757 70.6265)" class="st4" width="47.3" height="9.1"/>
<rect x="85.4" y="186.2" transform="matrix(6.123234e-17 -1 1 6.123234e-17 -81.7453 299.8196)" class="st4" width="47.3" height="9.1"/>
<rect x="106.6" y="48.3" transform="matrix(0.9171 0.3985 -0.3985 0.9171 41.1126 -41.6806)" class="st5" width="28.4" height="59.5"/>
<rect x="65.1" y="146.3" transform="matrix(0.9171 0.3985 -0.3985 0.9171 76.7111 -17.0038)" class="st6" width="28.4" height="59.5"/>
<path class="st6" d="M-86.8,118.3"/>
<rect x="80" y="142.7" transform="matrix(0.866 -0.5 0.5 0.866 -63.7771 64.5398)" class="st1" width="17.1" height="17.1"/>
<rect x="100.5" y="95.6" transform="matrix(0.866 -0.5 0.5 0.866 -37.4524 68.4682)" class="st1" width="17.1" height="17.1"/>
</svg>
