<?xml version="1.0" encoding="utf-8"?>
<!-- Generator: Adobe Illustrator 27.4.1, SVG Export Plug-In . SVG Version: 6.00 Build 0)  -->
<svg version="1.1"
	 id="svg250" xmlns:svg="http://www.w3.org/2000/svg" xmlns:sodipodi="http://sodipodi.sourceforge.net/DTD/sodipodi-0.dtd" xmlns:inkscape="http://www.inkscape.org/namespaces/inkscape" sodipodi:docname="handslot.svg"
	 xmlns="http://www.w3.org/2000/svg" xmlns:xlink="http://www.w3.org/1999/xlink" x="0px" y="0px" viewBox="0 0 52.6 51.4"
	 style="enable-background:new 0 0 52.6 51.4;" xml:space="preserve">
<style type="text/css">
	.st0{fill:#FFFFFF;stroke:#FFFFFF;stroke-width:2.495620e-02;}
</style>
<sodipodi:namedview  bordercolor="#000000" borderopacity="0.25" id="namedview252" inkscape:current-layer="layer1" inkscape:cx="75.220271" inkscape:cy="76.476934" inkscape:deskcolor="#d1d1d1" inkscape:pagecheckerboard="0" inkscape:pageopacity="0.0" inkscape:showpageshadow="2" inkscape:window-height="1377" inkscape:window-maximized="1" inkscape:window-width="5120" inkscape:window-x="-8" inkscape:window-y="-8" inkscape:zoom="2.7851535" pagecolor="#ffffff" showgrid="false">
	</sodipodi:namedview>
<path id="path946" class="st0" d="M18.8,20.7L18.5,19l4.4-3.6l-0.7-1.2l0.7-1.5l2.6-1.5l0.8,0.1l0.3,0.3l1.9-0.1l0.4,0.6L30,12
	l2.7-1.2l2.4-1.5l0.5,0.3l0.5-0.2l0.6-0.4L37,8.5l2.7,0.2l1.7,0.2l1.2,0.7l0.9,1.2l0,0.9l-0.2,0.9l2.3,4.2l1.3,2.5l0.7,3l0.1,0.6
	l0.8-0.1l0.4,1.6l-3.3,3.8l-4.4,4.6l-6.4,4l-4.8,1.1l1.2-1.8l1-0.3l0.1-0.9l-1.2-2.5L29.5,27l-1-1.7l-0.8-2.2L27,21.7l-1.4-1.1
	l-0.9-0.2L18.8,20.7z"/>
<path id="path948" class="st0" d="M17.8,22.4l4.7-1.1l3.6,1l0.6,2l-3.5,1.3l-0.4-2.3L17.8,22.4z"/>
<path id="path950" class="st0" d="M13.3,23.8l2.5,0.9l0.9,1.4l-1,1.7l0,0.4l7-2.5L22,23.6l-4.4-0.9L13.3,23.8z"/>
<path id="path952" class="st0" d="M12.7,24.4c-0.1,0-1.5-0.1-1.5-0.1L8.3,25l-0.1,0.5L7.4,26l-0.8,0.6l-0.3,0.8l-0.1,0.7l0.1,0.8
	l0.5,0.3l0.9,0.3c0,0,0.8,0.1,1,0.1c0.2,0,0.8,0,0.8,0s3.2-0.6,3.4-0.7c0.2-0.1,0.6-0.2,0.6-0.2l1-1.1l-0.4-2.5L12.7,24.4z"/>
<path id="path954" class="st0" d="M19.3,28.1c0.2,0,2.2-1.3,2.2-1.3s2.5-1,2.7-1.1c0.1-0.1,1.3-0.6,1.3-0.6l3,0.8l0.7,2.1L25.7,31
	l-0.9-2l-4.4-0.4L19.3,28.1z"/>
<path id="path956" class="st0" d="M14.7,32.8L14.2,32c0,0,2.2-1.6,2.4-1.7c0.2,0,2.3-0.7,2.3-0.7l0.5-0.4l4,0.8l1,1.8l-4.8,3.6
	l-0.9-2L14.7,32.8z"/>
<path id="path958" class="st0" d="M13.3,33.5c0,0-0.8,0.1-1,0.1c-0.1,0-0.3-0.1-0.3-0.1l-2.4,1.5l0.2,0.7l-1,1l-0.4,0.6L8,38.3
	l0,1.3l0.2,0.8L9,40.6c0,0,0.4,0.1,0.6,0.1c0.1,0,5.6-2.5,5.6-2.5l1.7-1.3l-1.2-2.2l-1.9-1L13.3,33.5z"/>
<path id="path960" class="st0" d="M15.3,38.6l-0.8,0.7l-1.2,0.2L11,41.1l0.3,0.6l-0.8,0.9l-0.7,0.9L9.6,45l0,0.6l0.8,0.7l0.6,0.2
	l0.6,0.1l7-4.6L16,39.4c0,0-0.2-0.3-0.3-0.4C15.6,38.8,15.3,38.6,15.3,38.6L15.3,38.6z"/>
<path id="path962" class="st0" d="M28.2,29.7c0,0-4.7,3.7-4.6,3.8c0.1,0.1,1.6,0.9,1.6,0.9l1.5,0.8l4-3.9l-1-1.1c0,0-0.8-0.4-1-0.4
	C28.5,29.8,28.2,29.7,28.2,29.7z"/>
<path id="path964" class="st0" d="M17.6,38.7l1.9,0.9l1.3,1.2l3.3-2l2-2.8L22,34.6l-2,2l-0.9,0.9L17.6,38.7z"/>
<path id="path966" class="st0" d="M29.5,33.4l-4,3.9l1.7,0.3l1.4,1l2.6-3.2l0.5-1.1l-0.8-0.8L29.5,33.4z"/>
<path id="path968" class="st0" d="M25.3,37.9c-0.1,0.2-3.1,3.9-3.1,3.9l0.3,0l2.6,1l1,0.1l2.3-3.8L25.3,37.9z"/>
<path id="path970" class="st0" d="M14.1,47c0,0-0.8,0.8-0.8,1c-0.1,0.2-0.1,0.5-0.1,0.7c-0.1,0.1-0.1,1.2-0.1,1.3
	c0.1,0.2,0.5,0.6,0.7,0.6c0.2,0.1,1.4,0.3,1.4,0.3s0.8-0.1,1.1-0.3c0.3-0.2,5.5-4.5,5.5-4.5l-1.3-1.3L18.7,44c0,0-1.7,0.2-1.9,0.2
	c-0.2,0-2.7,1.8-2.7,1.8S14.2,46.6,14.1,47L14.1,47z"/>
<path id="path972" class="st0" d="M22.4,41.6c-0.2,0.1-2.4,1.8-2.4,1.8l2.8,1.5l1.7-1l1.5-1.3L22.4,41.6z"/>
<path id="path974" class="st0" d="M9.7,10.6l-0.6,1l0.2,0.8l0.4,0l0.2,0.2l0,0.3c0,0,0.1,0.2,0.3,0.2c0.2,0,1,0.2,1,0.2l1.6,0.1
	c0,0,2.4,0,2.5-0.1c0.1,0,1.3-0.3,1.3-0.3l1-0.1l0.7,0.1l2.2-0.4l1.5-1.1c0,0,0.5-0.8,0.5-1c0-0.2-0.6-2-0.6-2s-1.3-1.1-1.5-1.1
	c-0.2,0-2.2-0.2-2.2-0.2s-1.1,0.2-1.2,0.2c-0.1,0-3.1,0.7-3.1,0.7l-1.6,1L9.7,10.6z"/>
<path id="path976" class="st0" d="M19.5,6.8c0,0,4-1,4.2-1.1c0.2,0,2.7-0.2,2.7-0.2l1.1,1.1l0.9,0.5L27.5,10l0.1,0.5
	c0,0-4.3,0.9-4.3,0.8c0-0.1-0.9-2.9-0.9-2.9s-1.4-1-1.6-1.1C20.6,7.3,19.5,6.8,19.5,6.8z"/>
<path id="path978" class="st0" d="M28.3,5.7c0,0,0.6,1.3,0.7,1.3c0.1,0.1,0.3,1,0.3,1.2c0,0.1-0.3,1.4-0.3,1.4
	c0,0.1-0.5,0.8-0.5,0.8L26.8,11l0.1,0.2l2.8-0.1l1.6-0.5c0,0,0.9-0.4,1.1-0.5c0.3-0.1,2.4-1.3,2.4-1.3L35,8.5l-0.5-0.9l-1.3-0.9
	l-3.4-1.1l-1-0.1L28.3,5.7z"/>
</svg>
