<?xml version="1.0" encoding="utf-8"?>
<!-- Generator: Adobe Illustrator 27.4.1, SVG Export Plug-In . SVG Version: 6.00 Build 0)  -->
<svg version="1.1"
	 id="svg250" xmlns:svg="http://www.w3.org/2000/svg" xmlns:inkscape="http://www.inkscape.org/namespaces/inkscape" xmlns:sodipodi="http://sodipodi.sourceforge.net/DTD/sodipodi-0.dtd" inkscape:version="1.2.2 (732a01da63, 2022-12-09)"
	 xmlns="http://www.w3.org/2000/svg" xmlns:xlink="http://www.w3.org/1999/xlink" x="0px" y="0px" viewBox="0 0 52.6 51.4"
	 style="enable-background:new 0 0 52.6 51.4;" xml:space="preserve">
<style type="text/css">
	.st0{fill:#FFFFFF;stroke:#FFFFFF;stroke-width:2.886690e-02;}
</style>
<sodipodi:namedview  bordercolor="#000000" borderopacity="0.25" id="namedview252" inkscape:current-layer="svg250" inkscape:cx="-15.423472" inkscape:cy="30.339175" inkscape:deskcolor="#d1d1d1" inkscape:pagecheckerboard="0" inkscape:pageopacity="0.0" inkscape:showpageshadow="2" inkscape:window-height="1377" inkscape:window-maximized="1" inkscape:window-width="5120" inkscape:window-x="-8" inkscape:window-y="-8" inkscape:zoom="7.8776037" pagecolor="#ffffff" showgrid="false">
	</sodipodi:namedview>
<path id="path659" class="st0" d="M10.2,23.2l0.3-0.2c0,0,0-0.3-0.1-0.3s-1.7-1.4-1.7-1.4l-0.4-0.1c0,0-0.3,0-0.3,0
	c-0.1,0.1-0.5,0.6-0.5,0.6l-0.3,0.4L7,22.7l-0.1,0.4l0.1,0.9l0.2,0.6L7.7,25L8,25.3l0.7,0.2l0.6,0.1l0.8-0.2l0.4-0.3l0.3-0.5l0-0.6
	l-0.1-0.3L10.5,24l-0.3,0.3l-0.3,0.2l-0.4,0.3c0,0-0.2,0.1-0.3,0.1s-0.3,0-0.3,0l-0.3-0.1c0,0-0.2-0.2-0.2-0.2c0,0-0.2-0.3-0.2-0.3
	l-0.1-0.3l-0.1-0.3l0-0.3l0.1-0.3l0.1-0.2l0.2-0.1l0.3,0l0.4,0l0.2,0.1l0.2,0.1l0.2,0.3l0.1,0.2l0,0.1L10.2,23.2z"/>
<path id="path661" class="st0" d="M10,23.4c0,0,0.1,0.4,0.1,0.4c0,0-0.1,0.3-0.1,0.3l0,0.2l-0.2,0.2l1-0.5l-0.3-1.3L10,23.4z"/>
<path id="path700" class="st0" d="M8,20.7c0,0-1.3,1.2-1.4,1.3c0,0.1-0.3,0.7-0.3,0.8c0,0.1,0,0.7,0.1,1c0.1,0.3,0.2,0.9,0.2,1
	c0.1,0,0.5,0.5,0.6,0.5c0.1,0,0.8,0.4,0.8,0.4l0.7,0.2L9.3,26L9.6,26l-0.4,5.2l-2.5-3.5c0,0-0.8-1.5-0.9-1.5c0-0.1-0.6-1.1-0.6-1.1
	l-0.2-1.6l0.2-1.2l0.7-1l1.1-0.9l0.5-0.1L8,20.7z"/>
<path id="path702" class="st0" d="M9.5,26.1c0.1-0.1,0.6-0.2,0.7-0.3c0.1,0,0.6-0.4,0.7-0.5s0.3-0.5,0.3-0.6c0-0.1-0.2-1.9-0.2-1.9
	l1.8,2.1l-0.1,4.9l-3,1.9l-0.2-4.9V26.1z"/>
<path id="path704" class="st0" d="M9.5,27.3c0,0.1-0.3,3.8-0.3,3.8l0.5,0.7l0.1-0.1l-0.1-4.5L9.5,27.3z"/>
<path id="path738" class="st0" d="M19.5,10.6l8.2-0.1l-1.1,27.1l-5.3-0.4l-4.2-0.8l-7.3-2.1L7,33.2l6.1-3.1l0.5-4.4l0.1-1.2
	l-6.9-6.1L19.5,10.6z"/>
<path id="path740" class="st0" d="M6.6,18.3L2,20.5l-0.7,2.6l0.2,2.7l0.8,2.3l4.8,5.1l2.3-1.1l-3-4.1l-1.6-3.5l-0.2-2.1l0.8-1.7
	l3.6-1.4l11.1-8.5l-0.9-0.3L6.6,18.3z"/>
<path id="path659-2" class="st0" d="M43.3,23.3l-0.3-0.2c0,0,0-0.3,0.1-0.3c0,0,1.7-1.4,1.7-1.4l0.4-0.1c0,0,0.3,0,0.3,0
	c0.1,0.1,0.5,0.6,0.5,0.6l0.3,0.4l0.3,0.5l0.1,0.4L46.6,24l-0.2,0.6l-0.5,0.5l-0.4,0.3l-0.7,0.2l-0.6,0.1l-0.8-0.2L43,25.2l-0.3-0.5
	l0-0.6l0.1-0.3l0.3,0.2l0.3,0.3l0.3,0.2l0.4,0.3c0,0,0.2,0.1,0.3,0.1c0,0,0.3,0,0.3,0l0.3-0.1c0,0,0.2-0.2,0.2-0.2
	c0,0,0.2-0.3,0.2-0.3l0.1-0.3l0.1-0.3l0-0.3L45.3,23l-0.1-0.2l-0.2-0.1l-0.3,0l-0.4,0L44,22.8l-0.2,0.1l-0.2,0.3l-0.1,0.2l0,0.1
	L43.3,23.3z"/>
<path id="path700-5" class="st0" d="M45.5,20.8c0,0,1.3,1.2,1.4,1.3c0,0.1,0.3,0.7,0.3,0.8c0,0.1,0,0.7-0.1,1
	c-0.1,0.3-0.2,0.9-0.2,1c-0.1,0-0.5,0.5-0.6,0.5c-0.1,0-0.8,0.4-0.8,0.4l-0.7,0.2L44.3,26l-0.4,0.1l0.4,5.2l2.5-3.5
	c0,0,0.8-1.5,0.9-1.5c0-0.1,0.6-1.1,0.6-1.1l0.2-1.6l-0.2-1.2l-0.7-1l-1.1-0.9l-0.5-0.1L45.5,20.8z"/>
<path id="path702-4" class="st0" d="M44,26.1c-0.1-0.1-0.6-0.2-0.7-0.3s-0.6-0.4-0.7-0.5c-0.1-0.1-0.3-0.5-0.3-0.6
	c0-0.1,0.2-1.9,0.2-1.9L40.6,25l0.1,4.9l3,1.9l0.2-4.9L44,26.1z"/>
<path id="path704-6" class="st0" d="M44,27.4c0,0.1,0.3,3.8,0.3,3.8l-0.5,0.7l-0.1-0.1l0.1-4.5L44,27.4z"/>
<path id="path738-7" class="st0" d="M34,10.7l-8.2-0.1l1.1,27.1l5.3-0.4l4.2-0.8l7.3-2.1l2.8-1.2l-6.1-3.1l-0.5-4.4l-0.1-1.2
	l6.9-6.1L34,10.7z"/>
<path id="path740-6" class="st0" d="M46.9,18.3l4.5,2.3l0.7,2.6L52,25.9l-0.8,2.3l-4.8,5.1L44,32.2l3-4.1l1.6-3.5l0.2-2.1L48,20.8
	l-3.6-1.4l-11.1-8.5l0.9-0.3L46.9,18.3z"/>
<path id="path789" class="st0" d="M26.4,37.6l0.7,0.1c0,0-0.3-3.5-0.4-3.5C26.7,34.2,26.4,37.6,26.4,37.6z"/>
<path id="path791" class="st0" d="M7.2,20.2l0.3-0.1L8,20.7l0.7,0.3l2.5,2.1l1.8,1.9l0.5-0.6l-5.3-4.5L7.2,20.2L7.2,20.2z"/>
<path id="path793" class="st0" d="M7.1,20.4c0.1,0,0.6-0.2,0.6-0.2L7.6,20L7,20.2l-0.1,0.2L7.1,20.4z"/>
<path id="path795" class="st0" d="M40.6,25c0-0.1,0-0.8,0-0.8l4.9-4.3l0.9,0.4l-0.8,0.5l-0.4,0L42.4,23L40.6,25z"/>
</svg>
