<?xml version="1.0" encoding="utf-8"?>
<!-- Generator: Adobe Illustrator 27.4.1, SVG Export Plug-In . SVG Version: 6.00 Build 0)  -->
<svg version="1.1"
	 id="svg250" xmlns:inkscape="http://www.inkscape.org/namespaces/inkscape" xmlns:svg="http://www.w3.org/2000/svg" xmlns:sodipodi="http://sodipodi.sourceforge.net/DTD/sodipodi-0.dtd"
	 xmlns="http://www.w3.org/2000/svg" xmlns:xlink="http://www.w3.org/1999/xlink" x="0px" y="0px" viewBox="0 0 52.6 51.4"
	 style="enable-background:new 0 0 52.6 51.4;" xml:space="preserve">
<style type="text/css">
	.st0{fill:#FFFFFF;stroke:#FFFFFF;stroke-width:1.172000e-02;}
</style>
<sodipodi:namedview  bordercolor="#000000" borderopacity="0.25" id="namedview252" inkscape:current-layer="svg250" inkscape:cx="35.92463" inkscape:cy="57.631739" inkscape:deskcolor="#d1d1d1" inkscape:pagecheckerboard="0" inkscape:pageopacity="0.0" inkscape:showpageshadow="2" inkscape:window-height="1377" inkscape:window-maximized="1" inkscape:window-width="5120" inkscape:window-x="-8" inkscape:window-y="-8" inkscape:zoom="3.9388019" pagecolor="#ffffff" showgrid="false">
	</sodipodi:namedview>
<path id="path452" class="st0" d="M18.1,38.2l2.5,2.2l2.5-0.4l8.8,3.6l0,2.7l1.2,2l8.3-1.3l3.6-5.4l-8.4-3.9l0.9,0.1l8.5,3.5
	L44.2,48l-13.4,1.8L24.7,49L15.7,41l-0.5-1.5l1.4-1.2l2,0L18.1,38.2z"/>
<path id="path454" class="st0" d="M19.1,35.9l3.2-3.2l3.5-7.1l-4.6-8.9l-19,1.6l3.1,4.7l-2,6.7l10.1,3.9l0.2,1.5L19.1,35.9z"/>
<path id="path456" class="st0" d="M32,29.6l3.7,3.5l3.7,1.1c0,0,9.5-10.4,9.4-10.6c0-0.2-3.3-9.1-3.3-9.1l-5.8,3.2l-1.8,3.8l2.1,4.8
	l-2.1,2l-4,0.3l-1.4,0.3L32,29.6z"/>
<path id="path458" class="st0" d="M25.7,22l4,2.5l7-0.6l-1.5-3.2l1.7,0.1l2.3,6l-4.5,1.6l-3.5,0.1l-4.2-2L25.7,22z"/>
<path id="path460" class="st0" d="M18.3,37.1l2.6,2.8l2.1-0.1l2.3-2.8l-1.5-3.6L18.3,37.1z"/>
<path id="path462" class="st0" d="M25.1,39.8l1.9-1l3.9,1.3l5.6-1l-2.6-1.4l1.1-0.2l4.2,1.8l-0.6,3.4l-5.8,0.6L25.1,39.8z"/>
<path id="path464" class="st0" d="M29.8,30.1l-0.3,2.5l-0.3,5.7l0.9,0.6l2.1-2.5l-1.3-3.7l0.3-2.7L29.8,30.1z"/>
<path id="path466" class="st0" d="M26,37.1l2.1,1l0.2,1.1l1.2,0.2l-0.4-1.6l-2.1-1.2L26,37.1z"/>
<path id="path468" class="st0" d="M25.4,19l9-7.7l12-4.6l-1.1,5l-9.8,7.7L25.4,19z"/>
<path id="path470" class="st0" d="M19.9,13.9l3.7,2.8l14.7-9.5L51,3.4l-2.2,8l-9.5,6c0,0,0.3,0.1,0.6-0.1c0.3-0.2,9.7-6.1,9.7-6.1
	l2.7-3.7l0.1-5.2L41.6,3.3L29.3,7.9L19.9,13.9z"/>
</svg>
