<?xml version="1.0" encoding="utf-8"?>
<!-- Generator: Adobe Illustrator 27.4.1, SVG Export Plug-In . SVG Version: 6.00 Build 0)  -->
<svg version="1.1"
	 id="svg250" xmlns:inkscape="http://www.inkscape.org/namespaces/inkscape" xmlns:sodipodi="http://sodipodi.sourceforge.net/DTD/sodipodi-0.dtd" xmlns:svg="http://www.w3.org/2000/svg"
	 xmlns="http://www.w3.org/2000/svg" xmlns:xlink="http://www.w3.org/1999/xlink" x="0px" y="0px" viewBox="0 0 52.6 51.4"
	 style="enable-background:new 0 0 52.6 51.4;" xml:space="preserve">
<style type="text/css">
	.st0{fill:#FFFFFF;stroke:#FFFFFF;stroke-width:2.182030e-02;}
</style>
<sodipodi:namedview  bordercolor="#000000" borderopacity="0.25" id="namedview252" inkscape:current-layer="svg250" inkscape:cx="0.40392747" inkscape:cy="31.237058" inkscape:deskcolor="#d1d1d1" inkscape:pagecheckerboard="0" inkscape:pageopacity="0.0" inkscape:showpageshadow="2" inkscape:window-height="1377" inkscape:window-maximized="1" inkscape:window-width="5120" inkscape:window-x="-8" inkscape:window-y="-8" inkscape:zoom="11.140614" pagecolor="#ffffff" showgrid="false">
	</sodipodi:namedview>
<path id="path432" class="st0" d="M19.8,7.9l-1-1.7L19.5,1l-2.7-0.2l-3.2,2.3l-1.8,3.3l-1.3,6l-0.2,3.1l3,10.1l-1,10.1l0.6,5.1
	l1.8,1.7l1.5-20.9L14,13.2l2.4-6.8L18,6L19.8,7.9z"/>
<path id="path434" class="st0" d="M31.2,5.7c0.3-0.6,1.2-5.5,1.5-5.5s3.6,0.4,3.6,0.4l8.4,6.1l-0.8,12.6l-4.3,19.8l-3.3,6.7L30,42.1
	l1.5-18.2l-1.3-10.8l2.4-6.9L31.2,5.7z"/>
<path id="path436" class="st0" d="M17.5,7.3c0,0.2-2.2,5.8-2.2,5.8l1.3,9l6.4,5.3l7.6-5.4l-1.3-9l2.2-6.8l-1.6,0.1l-0.4,1.3
	L19.3,7.8l-1.4-1.5L17.5,7.3z"/>
<path id="path438" class="st0" d="M16.8,27.2l-1.2,10l13.5,0.1l1.6-13L27,27.8l-2,6.5l-4.5-0.2L20,27.8l-2.8-4.3L16.8,27.2z"/>
<path id="path440" class="st0" d="M15.5,38.8l-0.8,7.9l4.4,4l12.1,0.2l2.1-5.8l-4.7-3l0.1-3.7L15.5,38.8z"/>
</svg>
