<?xml version="1.0" encoding="utf-8"?>
<!-- Generator: Adobe Illustrator 27.7.0, SVG Export Plug-In . SVG Version: 6.00 Build 0)  -->
<svg version="1.1"
	 id="svg5" xmlns:sodipodi="http://sodipodi.sourceforge.net/DTD/sodipodi-0.dtd" xmlns:svg="http://www.w3.org/2000/svg" xmlns:inkscape="http://www.inkscape.org/namespaces/inkscape" inkscape:export-filename="structure" inkscape:export-ydpi="96"
	 xmlns="http://www.w3.org/2000/svg" xmlns:xlink="http://www.w3.org/1999/xlink" x="0px" y="0px" viewBox="0 0 793.7 1122.5"
	 style="enable-background:new 0 0 793.7 1122.5;" xml:space="preserve">
<style type="text/css">
	.st0{fill:#FFFFFF;stroke:#FFFFFF;stroke-miterlimit:10;}
</style>
<sodipodi:namedview  bordercolor="#000000" borderopacity="0.25" id="namedview7" inkscape:deskcolor="#d1d1d1" inkscape:document-units="mm" inkscape:pagecheckerboard="0" inkscape:pageopacity="0.0" inkscape:showpageshadow="2" pagecolor="#ffffff" showgrid="false">
	</sodipodi:namedview>
<g id="layer1" inkscape:groupmode="layer" inkscape:label="Layer 1">
	<path id="path410" class="st0" d="M70.4,15.2L86.5,12l12,2.4l10,2l-1.9,8.8l-9.2,2.2l-7.8,8.2l-22.8-3.8L70.4,15.2z"/>
	<path id="path412" class="st0" d="M145.7,20l36.2-2.4l2.5,17.7l-10-0.2l-3.9-0.6l-5.3,1.4c0,0-3.3,1.4-4.5,1.4
		c-1.1,0-13.1,0.4-13.1,0.4L145.7,20z"/>
	<path id="path414" class="st0" d="M98.5,32.1l-0.8,8l6.4,0.6l-0.8,5.6l23.1,1.4l1.4-5.4H145l-0.6-7.4L126,33.7l-3.6,1l-18.1-1.6
		L98.5,32.1z"/>
	<path id="path418" class="st0" d="M107.4,53.6l-3.1,14.1l9.2,1.4l8.3,2.2l3.6-14.9l-9.7-2.4L107.4,53.6z"/>
	<path id="path420" class="st0" d="M91.5,79.9l-2.2,24.3l28.6,0.2l22-24.1L91.5,79.9z"/>
	<path id="path422" class="st0" d="M76.5,108.6l29.8,0.2l-0.3,3.8h-3.1l-0.3,6l-4.2,0.2l-2.2,8.8l-0.3,9.2l-12.8-0.6l-1.7-9
		l-3.1-2.4L76.5,108.6z"/>
	<path id="path424" class="st0" d="M129.1,105l6.1,15.3l3.9-0.4l2.8,7h3.3l4.7,13.5c0,0,15.6-1.2,15.3-2s-6.1-14.5-6.1-14.5l1.4-3.2
		l-6.7-21.1l-25.9,3.8L129.1,105z"/>
	<path id="path426" class="st0" d="M82.3,156l0.8,41.6l14,10.4l8.3-1.4l0.3-9.2l-4.2-5.2l0.8-20.3l4.5,0.6l-1.1-11l-10.3-4.2
		L82.3,156z"/>
	<path id="path428" class="st0" d="M158.8,167.9l17.8,40l-5.3,1.4l2.2,5.6l20.6-3.8l-2.5-6.2l-4.7,1.2l-14.5-40L158.8,167.9z"/>
	<path id="path430" class="st0" d="M153,146.2l3.9,14.1l11.1-1.6l-5-14.3L153,146.2z"/>
	<path id="path432" class="st0" d="M82.9,142.3v9.4l10-0.8l-0.8-10.4l-9.2,0.2V142.3z"/>
	<path id="path434" class="st0" d="M50.1,224.5l0.6,8.6l22.5,0.2l9.7-8.4l12.5-0.2l1.7,5.6l5.6-0.2l7.2-15.5l-5.3-3.2L69,212.9
		l-2.2,3.4h-9.2l-0.3,4.4l-6.4,1.2L50.1,224.5z"/>
	<path id="path436" class="st0" d="M174.4,221.1l-1.4,5.6V240l-0.8,10.4l10,2.8c0,0,15,0.6,13.9-1.4s1.7-15.1,1.7-15.1
		s5.3,0.4,5.3-0.6s0-9.2,0-9.2l-5.8-6.4L174.4,221.1z"/>
	<path id="path438" class="st0" d="M161.9,44.3c-0.3,1.6,1.7,15.1,1.7,15.1l15.6-2l-5-17.1l-12.5,2L161.9,44.3z"/>
	<path id="path440" class="st0" d="M161.3,69l5.3,25.1c0,0,21.7,0.6,20.9-0.2c-0.8-0.8-7.8-26.5-7.8-26.5L161.3,69z"/>
	<path id="path442" class="st0" d="M55.4,82.1c0.8-1.4,9.2-22.3,9.2-22.3l16.1,4.8L68.2,87.9L54,84.1l1.4-3.2V82.1z"/>
	<path id="path444" class="st0" d="M79,40.5l-7,11.4l11.1,3.4l6.7-14.1L79,38.5V40.5z"/>
	<path id="path446" class="st0" d="M117.9,1.7l-7.5,16.9l3.1,6.2l25.6,0.4L136,17l-6.7-13.7L117.9,1.7z"/>
</g>
</svg>
