<?xml version="1.0" encoding="utf-8"?>
<!-- Generator: Adobe Illustrator 27.4.1, SVG Export Plug-In . SVG Version: 6.00 Build 0)  -->
<svg version="1.1"
	 id="svg3263" xmlns:sodipodi="http://sodipodi.sourceforge.net/DTD/sodipodi-0.dtd" xmlns:inkscape="http://www.inkscape.org/namespaces/inkscape" xmlns:svg="http://www.w3.org/2000/svg" inkscape:version="1.2.1 (9c6d41e410, 2022-07-14)" sodipodi:docname="Backpackmount.svg"
	 xmlns="http://www.w3.org/2000/svg" xmlns:xlink="http://www.w3.org/1999/xlink" x="0px" y="0px" viewBox="0 0 77.5 70.6"
	 style="enable-background:new 0 0 77.5 70.6;" xml:space="preserve">
<style type="text/css">
	.st0{fill:#FFFFFF;stroke:#FFFFFF;stroke-width:0.4561;}
</style>
<sodipodi:namedview  bordercolor="#ffffff" borderopacity="1" id="namedview3265" inkscape:current-layer="layer1" inkscape:cx="132.29021" inkscape:cy="47.140728" inkscape:deskcolor="#505050" inkscape:document-units="mm" inkscape:pagecheckerboard="1" inkscape:pageopacity="0" inkscape:showpageshadow="0" inkscape:window-height="991" inkscape:window-maximized="1" inkscape:window-width="1920" inkscape:window-x="-9" inkscape:window-y="-9" inkscape:zoom="2.025849" pagecolor="#505050" showgrid="false">
	</sodipodi:namedview>
<g id="layer1" transform="translate(-31.815209,-11.077858)" inkscape:groupmode="layer" inkscape:label="Layer 1">
	<path id="path364" class="st0" d="M88.2,13.3l-0.2,20.1l-11.2-0.2l-5.1,0.1l-1.5,0.2l-0.8,0.3l-0.8,0.4l-1.3,1l-1.1,0.9l-1.5,2
		l-1.2,2.3l-0.7,2.2l-0.4,1.8l-0.1,2l0,2.1l0.4,2.2l0.4,1.6l0.9,2l1.2,1.9l1.5,1.6l2,1.4l1.6,0.6l1.2,0.3l7.6,0.1l8.4,0l-0.3,19.9
		l-17.9-0.3L65.2,79l-1.6-0.7l-2.8-1.6l-2.6-1.9l-2.7-2.7l-2.4-3.4l-1.9-3.4L49.9,62l-1.4-4.6l-0.7-3l-0.3-2.8l0-5.2l0.3-5.5
		l0.5-3.1l0.7-2.6l1.1-3.3l1.4-3.3l1.5-2.8l2.9-4.1l3.1-3.2l2.7-1.9l3.5-2.1l4.1-1.1l1.5-0.1L88.2,13.3z"/>
</g>
</svg>
