<?xml version="1.0" encoding="UTF-8" standalone="no"?>
<!-- Generator: Adobe Illustrator 27.5.0, SVG Export Plug-In . SVG Version: 6.00 Build 0)  -->

<svg
   version="1.1"
   id="svg5"
   inkscape:version="1.2.2 (732a01da63, 2022-12-09)"
   x="0px"
   y="0px"
   viewBox="0 0 127.99999 320.00001"
   xml:space="preserve"
   sodipodi:docname="GMShield.svg"
   width="128"
   height="320"
   xmlns:inkscape="http://www.inkscape.org/namespaces/inkscape"
   xmlns:sodipodi="http://sodipodi.sourceforge.net/DTD/sodipodi-0.dtd"
   xmlns="http://www.w3.org/2000/svg"
   xmlns:svg="http://www.w3.org/2000/svg"><defs
   id="defs19" />
<style
   type="text/css"
   id="style2">
	.st0{fill:#FFFFFF;stroke:#000000;stroke-miterlimit:10;}
</style>
<sodipodi:namedview
   bordercolor="#000000"
   borderopacity="0.25"
   id="namedview7"
   inkscape:current-layer="layer1"
   inkscape:cx="1476.1079"
   inkscape:cy="41.534322"
   inkscape:deskcolor="#d1d1d1"
   inkscape:document-units="mm"
   inkscape:pagecheckerboard="0"
   inkscape:pageopacity="0.0"
   inkscape:showpageshadow="2"
   inkscape:window-height="1377"
   inkscape:window-maximized="1"
   inkscape:window-width="5120"
   inkscape:window-x="-8"
   inkscape:window-y="-8"
   inkscape:zoom="0.914906"
   pagecolor="#ffffff"
   showgrid="false">
	</sodipodi:namedview>
<g
   id="layer1"
   inkscape:groupmode="layer"
   inkscape:label="Layer 1">
	
	
	
	
	
	
	
	
	
	
	
	
<path
   style="font-variation-settings:'wght' 700;fill:#ffffff;stroke:#ffffff;stroke-width:0.377953;stroke-opacity:1"
   d="m 32.566439,15.575372 -3.8256,3.6889 -7.1045,40.71457 -13.9358994,76.510598 3.0058004,161.62862 31.150699,4.37204 0.6832,-4.37204 -0.6832,-8.88069 4.6453,-62.57473 2.7325,-78.42336 0.6832,-2.04939 1.2296,-0.40988 h 1.093 l 1.5029,0.13663 2.3226,1.36626 0.5465,2.32264 -1.3662,4.50866 -1.2297,1.63951 -5.0551,133.89354 -1.3663,8.33419 -2.8691,1.36626 -2.0494,-0.27325 -0.5788,3.4113 38.4242,3.55663 h 13.1161 L 118.23094,143.73062 114.40544,20.220652 99.96684,15.508072 H 86.344939 l 0.9661,8.88805 1.8356,8.30839 -1.1594,11.20667 c 0,0 0.5797,2.60845 -1.1593,2.60845 -1.7389,0 -45.1165,-0.57965 -45.1165,-0.57965 0,0 -3.5745,-3.47793 -3.6711,-4.63725 -0.097,-1.15931 0.1932,-15.65069 0.8695,-15.65069 0.6762,0 48.5944,0.67627 48.5944,0.67627 l -1.3525,-10.91684 z"
   id="path314" /><path
   style="font-variation-settings:'wght' 700;fill:#ffffff;stroke:#ffffff;stroke-width:0.377953;stroke-opacity:1"
   d="m 49.644639,148.8541 c 0,-0.27326 0.7515,-1.50289 0.7515,-1.50289 l 1.2296,-1.09301 c 0,0 0.6831,0 1.093,0 0.4099,0 1.5712,0.68313 1.5712,0.68313 0,0 0.2733,1.5712 0.3416,2.11771 0.068,0.5465 0.068,2.1177 -0.1367,3.1424 -0.2049,1.02469 -0.5465,3.34733 -0.5465,3.34733 l 0.068,0.75145 c 0,0 5.4651,-4.85023 5.1918,-5.32842 -0.2732,-0.47819 -2.3226,-5.53335 -2.6642,-5.60167 -0.3415,-0.0683 -6.6946,-2.59589 -6.8996,-2.1177 -0.2049,0.47819 0,5.60167 0,5.60167 z"
   id="path978" /><path
   style="font-variation-settings:'wght' 700;fill:#ffffff;stroke:#ffffff;stroke-width:0.377953;stroke-opacity:1"
   d="m 47.117039,149.74217 2.4593,-0.47819 -0.4099,-2.25433 c 0,0 -2.8691,2.80083 -2.5276,2.80083 0.3416,0 0.4782,-0.0683 0.4782,-0.0683 z"
   id="path980" /><path
   style="font-variation-settings:'wght' 700;fill:#ffffff;stroke:#ffffff;stroke-width:0.377953;stroke-opacity:1"
   d="m 43.974639,266.14757 -0.5465,28.55484 0.068,2.45927 c 0,0 0.9564,0.68313 1.3663,0.68313 0.4099,0 0.3416,0 0.7514,0 0.4099,0 0.6149,0.0683 0.9564,-0.27325 0.3416,-0.34156 2.1177,-33.40507 2.1177,-33.40507 l 2.4593,0.13663 -1.2979,35.86434 -9.3589,0.81975 -4.1671,-19.4009 6.763,-15.09718 0.6148,-0.34156 z"
   id="path982" /><path
   style="font-variation-settings:'wght' 700;fill:#ffffff;stroke:#ffffff;stroke-width:0.377953;stroke-opacity:1"
   d="m 27.703139,8.1657722 c 1.2559,-0.19321 5.6033,-5.4101096 5.6033,-5.4101096 l 67.723101,0.28983 22.4133,6.5694196 c 0,0 4.9271,131.0987078 4.8305,131.5817578 -0.097,0.48305 -23.2828,163.5594 -23.2828,163.5594 l -0.097,11.88293 -14.008401,4.92707 -16.4235,0.38644 -59.1249,-6.18299 -4.250799,-3.28472 -1.5457,-4.83046 -0.1933,-5.89316 51.879199,5.31351 c 0,0 32.2675,1.64235 32.7505,1.44913 0.4831,-0.19321 2.7051,-0.67626 2.7051,-0.67626 l 23.862501,-165.20175 -4.6373,-125.012328 -14.9744,-4.44403 -68.399301,-0.19321 -5.2169,2.41523 z"
   id="path984" /><path
   style="font-variation-settings:'wght' 700;fill:#ffffff;stroke:#ffffff;stroke-width:0.377953;stroke-opacity:1"
   d="m 28.740839,14.755612 -10.2469,48.229 L 5.6510396,127.19887 9.33994,297.29831 c 0,0 0.6832,3.41565 0.1367,3.41565 -0.5466,0 -2.8692004,-0.27325 -3.1424004,-1.22963 -0.2733,-0.95639 -2.3227,-102.1963 -2.3227,-102.1963 l -2.4593,-66.53689 15.4387994,-80.609378 8.6074,-35.79603 3.6889,-2.32264 z"
   id="path986" /></g>
</svg>
