<?xml version="1.0" encoding="utf-8"?>
<!-- Generator: Adobe Illustrator 27.4.1, SVG Export Plug-In . SVG Version: 6.00 Build 0)  -->
<svg version="1.1"
	 id="svg250" xmlns:inkscape="http://www.inkscape.org/namespaces/inkscape" xmlns:sodipodi="http://sodipodi.sourceforge.net/DTD/sodipodi-0.dtd" xmlns:svg="http://www.w3.org/2000/svg" inkscape:version="1.2.2 (732a01da63, 2022-12-09)"
	 xmlns="http://www.w3.org/2000/svg" xmlns:xlink="http://www.w3.org/1999/xlink" x="0px" y="0px" viewBox="0 0 52.6 51.4"
	 style="enable-background:new 0 0 52.6 51.4;" xml:space="preserve">
<style type="text/css">
	.st0{fill:#FFFFFF;stroke:#000000;stroke-miterlimit:10;}
</style>
<sodipodi:namedview  bordercolor="#000000" borderopacity="0.25" id="namedview252" inkscape:current-layer="svg250" inkscape:cx="-159.86552" inkscape:cy="48.830343" inkscape:deskcolor="#d1d1d1" inkscape:pagecheckerboard="0" inkscape:pageopacity="0.0" inkscape:showpageshadow="2" inkscape:window-height="1377" inkscape:window-maximized="1" inkscape:window-width="5120" inkscape:window-x="-8" inkscape:window-y="-8" inkscape:zoom="5.570307" pagecolor="#ffffff" showgrid="false">
	</sodipodi:namedview>
<path id="path475" class="st0" d="M12.2,42.3l3-6.8l4.5,2.5l-4.1,6.2L12.2,42.3z"/>
<path id="path477" class="st0" d="M15.9,35l3.4-6l3.5,2.9L20,37.1L15.9,35z"/>
<path id="path479" class="st0" d="M20.1,28.4c0.5-0.6,2.1-3.3,2.1-3.3l3,0.9l-2.5,4L20.1,28.4z"/>
<path id="path483" class="st0" d="M28.2,48.2l-1.6-7l1.6-0.6l3.2,0.5l-0.7,7.4L28.2,48.2z"/>
<path id="path485" class="st0" d="M26.6,39.2l0.6-1.4l3.5,0.6l-0.3-4.8L27,33.3l-1,0.6L26.6,39.2z"/>
<path id="path487" class="st0" d="M26.7,30.7l0-4.5l3.6,0.4l0,4.6L26.7,30.7z"/>
<path id="path489" class="st0" d="M38.6,46.6l-3-6.4l1.6-0.8l2.5-0.2l0.5,0.7l0.8,6.3L38.6,46.6z"/>
<path id="path491" class="st0" d="M35.1,39l0.8-1.8l3.2-0.2l-1.7-4l-3.1,0.3l-1.8,1l2.5,5L35.1,39z"/>
<path id="path493" class="st0" d="M32.8,31.3l-1.5-4.1l2-0.4l1.9,0.2l1.5,3.7L33.5,31L32.8,31.3z"/>
<path id="path495" class="st0" d="M36.6,27.7c0.1,0.2,2.3,3.5,2.3,3.5l-0.1,0.5l0.6,0.6l0.5-1.4l2.9-1.4l-2.2-2.8l-3.7,0L36.6,27.7z
	"/>
<path id="path497" class="st0" d="M40.3,33.5l3.1,3.7l0.8-1.5l2.6-0.8l-2.4-3.2l-3,1L40.3,33.5z"/>
<path id="path499" class="st0" d="M49,43.3l-4.7-4.9l2.2-1l2.1-1l1,1.7l1.8,4.4l-2.2,1.2L49,43.3z"/>
<path id="path501" class="st0" d="M20.9,23.9c-0.2,0-1.3-0.6-1.3-0.6L19,22.5l-0.6-5.8l-1.6-0.8l-0.4-2.3l1.9-2.2l-0.1-8.7L22.6,3
	l0.5,1.5l2-2.3l8.8,0.7l0,1.6l1.7,0.4l1.5,3.2l2.7,0.3L41.4,19l1.2,0.7l0.5,6c0,0-2.2,0.4-2.3,0.1c-0.1-0.3-0.6-2.6-0.6-2.6l-19-2.3
	L20.9,23.9z"/>
<path id="path505" class="st0" d="M0.8,16.6c0.2-0.2,7.5-6.2,7.5-6.2l3.1,2.7l0.5,1.6l-0.6,1.1c0,0-0.4,0.6-0.4,0.8
	c-0.1,0.1-0.2,0.4-0.2,0.4l-6,1.4c0,0-0.4-0.1-0.6-0.1c-0.2,0-0.8,0.1-0.8,0.1l-2.2-1.6L0.8,16.6z"/>
<path id="path507" class="st0" d="M10.1,8.9l2,2.9l1.6-0.2l0.4,1.4l0.1,0.6l0.9-0.2l2.8-3.7l-1-5.1l-1.2-0.8L10.1,8.9z"/>
</svg>
