<?xml version="1.0" encoding="utf-8"?>
<!-- Generator: Adobe Illustrator 27.4.1, SVG Export Plug-In . SVG Version: 6.00 Build 0)  -->
<svg version="1.1"
	 id="svg250" xmlns:svg="http://www.w3.org/2000/svg" xmlns:inkscape="http://www.inkscape.org/namespaces/inkscape" xmlns:sodipodi="http://sodipodi.sourceforge.net/DTD/sodipodi-0.dtd" inkscape:version="1.2.2 (732a01da63, 2022-12-09)"
	 xmlns="http://www.w3.org/2000/svg" xmlns:xlink="http://www.w3.org/1999/xlink" x="0px" y="0px" viewBox="0 0 52.6 51.4"
	 style="enable-background:new 0 0 52.6 51.4;" xml:space="preserve">
<style type="text/css">
	.st0{fill:#FFFFFF;stroke:#FFFFFF;stroke-width:3.258440e-02;}
</style>
<sodipodi:namedview  bordercolor="#000000" borderopacity="0.25" id="namedview252" inkscape:current-layer="svg250" inkscape:cx="41.19273" inkscape:cy="1.9041323" inkscape:deskcolor="#d1d1d1" inkscape:pagecheckerboard="0" inkscape:pageopacity="0.0" inkscape:showpageshadow="2" inkscape:window-height="1377" inkscape:window-maximized="1" inkscape:window-width="5120" inkscape:window-x="-8" inkscape:window-y="-8" inkscape:zoom="7.8776037" pagecolor="#ffffff" showgrid="false">
	</sodipodi:namedview>
<path id="path667" class="st0" d="M10.1,1.8c0.4-0.1,2.4-0.3,2.4-0.3l4,8.3l5.6-0.2l-1-8.9L25,0.2l0.5,2.2l0.8,1.1l1.4,10l4.9,20.9
	l1.8,6.8l1.6,1.3l0.5,5l-1.1,0.4l-1.4-5.3l-1.4-1.1l-8.6,0.4l-1.3,1.6l0.5,4.8l-1.8,0.2c0,0-0.5-3.5-0.5-3.8s0.6-3.2,0.7-3.4
	c0.1-0.2,0.1-8,0.1-8l-3.8-11.3l-2.9-8.4l-4.5-6.5l-0.5-2.9V1.8z"/>
<path id="path723" class="st0" d="M24.2,49.9c0,0,0.5-1.7,0.5-1.8s1.1-3.6,1.1-3.6l6.3-0.4l2,3.8c0,0-0.3,0.5-0.3,0.7s0,1,0,1
	s-0.1,0.7-0.1,0.8c-0.1,0.1-0.7,0.4-0.9,0.5c-0.1,0.1-0.8,0.3-1.1,0.3c-0.3,0-1.6,0-1.7,0c-0.2,0-2,0-2.4,0c-0.3,0-1.8-0.4-2.1-0.5
	c-0.3-0.1-0.4-0.2-0.8-0.3C24.6,50.2,24.2,49.9,24.2,49.9L24.2,49.9z"/>
<path id="path725" class="st0" d="M14.2,1.4c0.2,0,5.8-0.5,5.8-0.5L20,1.4c0,0-0.2,0-0.3,0.1c-0.1,0.1-0.2,0.6-0.2,0.6
	s0,0.4-0.2,0.4c-0.2,0-1,0.1-1.4,0.1c-0.4,0-0.9,0-1,0s-0.4-0.5-0.4-0.5s0.4,0-0.2-0.1c-0.6-0.2-0.6-0.1-0.8-0.2
	c-0.2,0-0.8-0.1-0.8-0.1L14.2,1.4z"/>
<path id="path727" class="st0" d="M17,3.3L19.1,3c0,0,0.2,0.2,0.2,0.3s0.1,0.5-0.1,0.6c-0.1,0.1,0,0.5-0.4,0.5
	c-0.4,0-1.6,0.1-1.6,0.1S17,4.5,16.8,4.1c-0.2-0.4-0.2-0.6-0.2-0.6L17,3.3z"/>
<path id="path729" class="st0" d="M18.1,5.1c0,0,0.4-0.1,0.5-0.2c0.1,0,0.5-0.1,0.8-0.3c0.3-0.1,0.4-0.3,0.4-0.3S20,4.5,20,4.7
	c0,0.1,0.2,0.8,0.2,0.8s-0.3,0.2-0.5,0.2C19.4,5.9,18.9,6,18.7,6c-0.2,0-0.9-0.4-0.9-0.4l0-0.3L18.1,5.1z"/>
<path id="path731" class="st0" d="M17.9,6.5l1.3-0.4h0.8l0.2,0.3c0,0,0.1,0.3,0,0.4c-0.2,0-0.7,0.2-0.9,0.2c-0.2,0-0.2,0-0.7,0
	c-0.4,0-0.9-0.1-0.9-0.1L17.9,6.5z"/>
<path id="path733" class="st0" d="M18.4,7.7c0,0,0.7-0.4,0.8-0.4c0.1,0,0.8,0,0.9-0.1c0.1,0,0.7-0.1,0.7-0.1s0.1-0.1,0.2,0.1
	c0.1,0.2,0,0.4,0,0.4s0.2,0-0.1,0.1c-0.2,0.1-0.1,0.1-0.5,0.1c-0.4,0-0.3,0-0.6,0.1C19.5,8,19.5,8,19.3,8s-0.1,0.1-0.5,0
	C18.4,8,18.4,7.7,18.4,7.7L18.4,7.7z"/>
<path id="path735" class="st0" d="M18.6,8.6c0,0,0.3-0.2,0.6-0.2c0.3-0.1,1-0.1,1-0.1s-0.1,0,0.2,0s0.3,0,0.5,0.2
	c0.1,0.1,0.2,0,0.1,0.2c-0.1,0.2-0.2,0.3-0.2,0.3s0.2,0-0.2,0.1c-0.4,0.1-0.3,0.1-0.6,0.1c-0.2,0-0.2,0-0.4,0c-0.2,0-0.2,0-0.3,0
	s-0.5-0.2-0.5-0.2L18.6,8.6z"/>
</svg>
